%TF.GenerationSoftware,KiCad,Pcbnew,8.0.2*%
%TF.CreationDate,2024-07-08T14:57:59+00:00*%
%TF.ProjectId,mothbeam,6d6f7468-6265-4616-9d2e-6b696361645f,rev?*%
%TF.SameCoordinates,Original*%
%TF.FileFunction,Legend,Top*%
%TF.FilePolarity,Positive*%
%FSLAX46Y46*%
G04 Gerber Fmt 4.6, Leading zero omitted, Abs format (unit mm)*
G04 Created by KiCad (PCBNEW 8.0.2) date 2024-07-08 14:57:59*
%MOMM*%
%LPD*%
G01*
G04 APERTURE LIST*
%ADD10C,0.150000*%
%ADD11C,0.300000*%
%ADD12C,0.200000*%
%ADD13C,0.100000*%
%ADD14C,0.120000*%
%ADD15C,0.000000*%
G04 APERTURE END LIST*
D10*
X124431466Y-99434420D02*
X124431466Y-98672516D01*
X124812419Y-99053468D02*
X124050514Y-99053468D01*
X123812419Y-98339182D02*
X124812419Y-98005849D01*
X124812419Y-98005849D02*
X123812419Y-97672516D01*
X124812419Y-97339182D02*
X123812419Y-97339182D01*
X123812419Y-97339182D02*
X123812419Y-97101087D01*
X123812419Y-97101087D02*
X123860038Y-96958230D01*
X123860038Y-96958230D02*
X123955276Y-96862992D01*
X123955276Y-96862992D02*
X124050514Y-96815373D01*
X124050514Y-96815373D02*
X124240990Y-96767754D01*
X124240990Y-96767754D02*
X124383847Y-96767754D01*
X124383847Y-96767754D02*
X124574323Y-96815373D01*
X124574323Y-96815373D02*
X124669561Y-96862992D01*
X124669561Y-96862992D02*
X124764800Y-96958230D01*
X124764800Y-96958230D02*
X124812419Y-97101087D01*
X124812419Y-97101087D02*
X124812419Y-97339182D01*
X124717180Y-95767754D02*
X124764800Y-95815373D01*
X124764800Y-95815373D02*
X124812419Y-95958230D01*
X124812419Y-95958230D02*
X124812419Y-96053468D01*
X124812419Y-96053468D02*
X124764800Y-96196325D01*
X124764800Y-96196325D02*
X124669561Y-96291563D01*
X124669561Y-96291563D02*
X124574323Y-96339182D01*
X124574323Y-96339182D02*
X124383847Y-96386801D01*
X124383847Y-96386801D02*
X124240990Y-96386801D01*
X124240990Y-96386801D02*
X124050514Y-96339182D01*
X124050514Y-96339182D02*
X123955276Y-96291563D01*
X123955276Y-96291563D02*
X123860038Y-96196325D01*
X123860038Y-96196325D02*
X123812419Y-96053468D01*
X123812419Y-96053468D02*
X123812419Y-95958230D01*
X123812419Y-95958230D02*
X123860038Y-95815373D01*
X123860038Y-95815373D02*
X123907657Y-95767754D01*
X105953131Y-37597496D02*
X105762655Y-37597496D01*
X105762655Y-37597496D02*
X105762655Y-36454639D01*
X105762655Y-36454639D02*
X105953131Y-36454639D01*
X106791226Y-37597496D02*
X106981702Y-37597496D01*
X106981702Y-37597496D02*
X106981702Y-36454639D01*
X106981702Y-36454639D02*
X106791226Y-36454639D01*
X107324559Y-36797496D02*
X107476940Y-37330830D01*
X107476940Y-37330830D02*
X107629321Y-36949877D01*
X107629321Y-36949877D02*
X107781702Y-37330830D01*
X107781702Y-37330830D02*
X107934083Y-36797496D01*
X108238845Y-37330830D02*
X108238845Y-36530830D01*
X108581702Y-37330830D02*
X108581702Y-36911782D01*
X108581702Y-36911782D02*
X108543607Y-36835592D01*
X108543607Y-36835592D02*
X108467416Y-36797496D01*
X108467416Y-36797496D02*
X108353130Y-36797496D01*
X108353130Y-36797496D02*
X108276940Y-36835592D01*
X108276940Y-36835592D02*
X108238845Y-36873687D01*
X108962655Y-37330830D02*
X108962655Y-36797496D01*
X108962655Y-36530830D02*
X108924559Y-36568925D01*
X108924559Y-36568925D02*
X108962655Y-36607020D01*
X108962655Y-36607020D02*
X109000750Y-36568925D01*
X109000750Y-36568925D02*
X108962655Y-36530830D01*
X108962655Y-36530830D02*
X108962655Y-36607020D01*
X109229321Y-36797496D02*
X109534083Y-36797496D01*
X109343607Y-36530830D02*
X109343607Y-37216544D01*
X109343607Y-37216544D02*
X109381702Y-37292735D01*
X109381702Y-37292735D02*
X109457892Y-37330830D01*
X109457892Y-37330830D02*
X109534083Y-37330830D01*
X110105512Y-37292735D02*
X110029321Y-37330830D01*
X110029321Y-37330830D02*
X109876940Y-37330830D01*
X109876940Y-37330830D02*
X109800750Y-37292735D01*
X109800750Y-37292735D02*
X109762654Y-37216544D01*
X109762654Y-37216544D02*
X109762654Y-36911782D01*
X109762654Y-36911782D02*
X109800750Y-36835592D01*
X109800750Y-36835592D02*
X109876940Y-36797496D01*
X109876940Y-36797496D02*
X110029321Y-36797496D01*
X110029321Y-36797496D02*
X110105512Y-36835592D01*
X110105512Y-36835592D02*
X110143607Y-36911782D01*
X110143607Y-36911782D02*
X110143607Y-36987973D01*
X110143607Y-36987973D02*
X109762654Y-37064163D01*
X105953131Y-38885451D02*
X105762655Y-38885451D01*
X105762655Y-38885451D02*
X105762655Y-37742594D01*
X105762655Y-37742594D02*
X105953131Y-37742594D01*
X106791226Y-38885451D02*
X106981702Y-38885451D01*
X106981702Y-38885451D02*
X106981702Y-37742594D01*
X106981702Y-37742594D02*
X106791226Y-37742594D01*
X107781702Y-37818785D02*
X107400750Y-37818785D01*
X107400750Y-37818785D02*
X107362654Y-38199737D01*
X107362654Y-38199737D02*
X107400750Y-38161642D01*
X107400750Y-38161642D02*
X107476940Y-38123547D01*
X107476940Y-38123547D02*
X107667416Y-38123547D01*
X107667416Y-38123547D02*
X107743607Y-38161642D01*
X107743607Y-38161642D02*
X107781702Y-38199737D01*
X107781702Y-38199737D02*
X107819797Y-38275928D01*
X107819797Y-38275928D02*
X107819797Y-38466404D01*
X107819797Y-38466404D02*
X107781702Y-38542594D01*
X107781702Y-38542594D02*
X107743607Y-38580690D01*
X107743607Y-38580690D02*
X107667416Y-38618785D01*
X107667416Y-38618785D02*
X107476940Y-38618785D01*
X107476940Y-38618785D02*
X107400750Y-38580690D01*
X107400750Y-38580690D02*
X107362654Y-38542594D01*
X108124559Y-37894975D02*
X108162655Y-37856880D01*
X108162655Y-37856880D02*
X108238845Y-37818785D01*
X108238845Y-37818785D02*
X108429321Y-37818785D01*
X108429321Y-37818785D02*
X108505512Y-37856880D01*
X108505512Y-37856880D02*
X108543607Y-37894975D01*
X108543607Y-37894975D02*
X108581702Y-37971166D01*
X108581702Y-37971166D02*
X108581702Y-38047356D01*
X108581702Y-38047356D02*
X108543607Y-38161642D01*
X108543607Y-38161642D02*
X108086464Y-38618785D01*
X108086464Y-38618785D02*
X108581702Y-38618785D01*
X109076941Y-37818785D02*
X109153131Y-37818785D01*
X109153131Y-37818785D02*
X109229322Y-37856880D01*
X109229322Y-37856880D02*
X109267417Y-37894975D01*
X109267417Y-37894975D02*
X109305512Y-37971166D01*
X109305512Y-37971166D02*
X109343607Y-38123547D01*
X109343607Y-38123547D02*
X109343607Y-38314023D01*
X109343607Y-38314023D02*
X109305512Y-38466404D01*
X109305512Y-38466404D02*
X109267417Y-38542594D01*
X109267417Y-38542594D02*
X109229322Y-38580690D01*
X109229322Y-38580690D02*
X109153131Y-38618785D01*
X109153131Y-38618785D02*
X109076941Y-38618785D01*
X109076941Y-38618785D02*
X109000750Y-38580690D01*
X109000750Y-38580690D02*
X108962655Y-38542594D01*
X108962655Y-38542594D02*
X108924560Y-38466404D01*
X108924560Y-38466404D02*
X108886464Y-38314023D01*
X108886464Y-38314023D02*
X108886464Y-38123547D01*
X108886464Y-38123547D02*
X108924560Y-37971166D01*
X108924560Y-37971166D02*
X108962655Y-37894975D01*
X108962655Y-37894975D02*
X109000750Y-37856880D01*
X109000750Y-37856880D02*
X109076941Y-37818785D01*
X105953131Y-40173406D02*
X105762655Y-40173406D01*
X105762655Y-40173406D02*
X105762655Y-39030549D01*
X105762655Y-39030549D02*
X105953131Y-39030549D01*
X106791226Y-40173406D02*
X106981702Y-40173406D01*
X106981702Y-40173406D02*
X106981702Y-39030549D01*
X106981702Y-39030549D02*
X106791226Y-39030549D01*
X107743607Y-39373406D02*
X107743607Y-39906740D01*
X107553131Y-39068645D02*
X107362654Y-39640073D01*
X107362654Y-39640073D02*
X107857893Y-39640073D01*
X108543607Y-39106740D02*
X108162655Y-39106740D01*
X108162655Y-39106740D02*
X108124559Y-39487692D01*
X108124559Y-39487692D02*
X108162655Y-39449597D01*
X108162655Y-39449597D02*
X108238845Y-39411502D01*
X108238845Y-39411502D02*
X108429321Y-39411502D01*
X108429321Y-39411502D02*
X108505512Y-39449597D01*
X108505512Y-39449597D02*
X108543607Y-39487692D01*
X108543607Y-39487692D02*
X108581702Y-39563883D01*
X108581702Y-39563883D02*
X108581702Y-39754359D01*
X108581702Y-39754359D02*
X108543607Y-39830549D01*
X108543607Y-39830549D02*
X108505512Y-39868645D01*
X108505512Y-39868645D02*
X108429321Y-39906740D01*
X108429321Y-39906740D02*
X108238845Y-39906740D01*
X108238845Y-39906740D02*
X108162655Y-39868645D01*
X108162655Y-39868645D02*
X108124559Y-39830549D01*
X109076941Y-39106740D02*
X109153131Y-39106740D01*
X109153131Y-39106740D02*
X109229322Y-39144835D01*
X109229322Y-39144835D02*
X109267417Y-39182930D01*
X109267417Y-39182930D02*
X109305512Y-39259121D01*
X109305512Y-39259121D02*
X109343607Y-39411502D01*
X109343607Y-39411502D02*
X109343607Y-39601978D01*
X109343607Y-39601978D02*
X109305512Y-39754359D01*
X109305512Y-39754359D02*
X109267417Y-39830549D01*
X109267417Y-39830549D02*
X109229322Y-39868645D01*
X109229322Y-39868645D02*
X109153131Y-39906740D01*
X109153131Y-39906740D02*
X109076941Y-39906740D01*
X109076941Y-39906740D02*
X109000750Y-39868645D01*
X109000750Y-39868645D02*
X108962655Y-39830549D01*
X108962655Y-39830549D02*
X108924560Y-39754359D01*
X108924560Y-39754359D02*
X108886464Y-39601978D01*
X108886464Y-39601978D02*
X108886464Y-39411502D01*
X108886464Y-39411502D02*
X108924560Y-39259121D01*
X108924560Y-39259121D02*
X108962655Y-39182930D01*
X108962655Y-39182930D02*
X109000750Y-39144835D01*
X109000750Y-39144835D02*
X109076941Y-39106740D01*
X105953131Y-41461361D02*
X105762655Y-41461361D01*
X105762655Y-41461361D02*
X105762655Y-40318504D01*
X105762655Y-40318504D02*
X105953131Y-40318504D01*
X106791226Y-41461361D02*
X106981702Y-41461361D01*
X106981702Y-41461361D02*
X106981702Y-40318504D01*
X106981702Y-40318504D02*
X106791226Y-40318504D01*
X107210274Y-41270885D02*
X107819797Y-41270885D01*
X107819798Y-41270885D02*
X108429321Y-41270885D01*
X108429322Y-41270885D02*
X109038845Y-41270885D01*
X108988219Y-99383620D02*
X107988219Y-99383620D01*
X107988219Y-99383620D02*
X107988219Y-99145525D01*
X107988219Y-99145525D02*
X108035838Y-99002668D01*
X108035838Y-99002668D02*
X108131076Y-98907430D01*
X108131076Y-98907430D02*
X108226314Y-98859811D01*
X108226314Y-98859811D02*
X108416790Y-98812192D01*
X108416790Y-98812192D02*
X108559647Y-98812192D01*
X108559647Y-98812192D02*
X108750123Y-98859811D01*
X108750123Y-98859811D02*
X108845361Y-98907430D01*
X108845361Y-98907430D02*
X108940600Y-99002668D01*
X108940600Y-99002668D02*
X108988219Y-99145525D01*
X108988219Y-99145525D02*
X108988219Y-99383620D01*
X108988219Y-98383620D02*
X107988219Y-98383620D01*
X108988219Y-97907430D02*
X107988219Y-97907430D01*
X107988219Y-97907430D02*
X108702504Y-97574097D01*
X108702504Y-97574097D02*
X107988219Y-97240764D01*
X107988219Y-97240764D02*
X108988219Y-97240764D01*
X105699131Y-44760296D02*
X105508655Y-44760296D01*
X105508655Y-44760296D02*
X105508655Y-43617439D01*
X105508655Y-43617439D02*
X105699131Y-43617439D01*
X106537226Y-44760296D02*
X106727702Y-44760296D01*
X106727702Y-44760296D02*
X106727702Y-43617439D01*
X106727702Y-43617439D02*
X106537226Y-43617439D01*
X107070559Y-43960296D02*
X107222940Y-44493630D01*
X107222940Y-44493630D02*
X107375321Y-44112677D01*
X107375321Y-44112677D02*
X107527702Y-44493630D01*
X107527702Y-44493630D02*
X107680083Y-43960296D01*
X107984845Y-44493630D02*
X107984845Y-43693630D01*
X108327702Y-44493630D02*
X108327702Y-44074582D01*
X108327702Y-44074582D02*
X108289607Y-43998392D01*
X108289607Y-43998392D02*
X108213416Y-43960296D01*
X108213416Y-43960296D02*
X108099130Y-43960296D01*
X108099130Y-43960296D02*
X108022940Y-43998392D01*
X108022940Y-43998392D02*
X107984845Y-44036487D01*
X108708655Y-44493630D02*
X108708655Y-43960296D01*
X108708655Y-43693630D02*
X108670559Y-43731725D01*
X108670559Y-43731725D02*
X108708655Y-43769820D01*
X108708655Y-43769820D02*
X108746750Y-43731725D01*
X108746750Y-43731725D02*
X108708655Y-43693630D01*
X108708655Y-43693630D02*
X108708655Y-43769820D01*
X108975321Y-43960296D02*
X109280083Y-43960296D01*
X109089607Y-43693630D02*
X109089607Y-44379344D01*
X109089607Y-44379344D02*
X109127702Y-44455535D01*
X109127702Y-44455535D02*
X109203892Y-44493630D01*
X109203892Y-44493630D02*
X109280083Y-44493630D01*
X109851512Y-44455535D02*
X109775321Y-44493630D01*
X109775321Y-44493630D02*
X109622940Y-44493630D01*
X109622940Y-44493630D02*
X109546750Y-44455535D01*
X109546750Y-44455535D02*
X109508654Y-44379344D01*
X109508654Y-44379344D02*
X109508654Y-44074582D01*
X109508654Y-44074582D02*
X109546750Y-43998392D01*
X109546750Y-43998392D02*
X109622940Y-43960296D01*
X109622940Y-43960296D02*
X109775321Y-43960296D01*
X109775321Y-43960296D02*
X109851512Y-43998392D01*
X109851512Y-43998392D02*
X109889607Y-44074582D01*
X109889607Y-44074582D02*
X109889607Y-44150773D01*
X109889607Y-44150773D02*
X109508654Y-44226963D01*
X105699131Y-46048251D02*
X105508655Y-46048251D01*
X105508655Y-46048251D02*
X105508655Y-44905394D01*
X105508655Y-44905394D02*
X105699131Y-44905394D01*
X106537226Y-46048251D02*
X106727702Y-46048251D01*
X106727702Y-46048251D02*
X106727702Y-44905394D01*
X106727702Y-44905394D02*
X106537226Y-44905394D01*
X107527702Y-44981585D02*
X107146750Y-44981585D01*
X107146750Y-44981585D02*
X107108654Y-45362537D01*
X107108654Y-45362537D02*
X107146750Y-45324442D01*
X107146750Y-45324442D02*
X107222940Y-45286347D01*
X107222940Y-45286347D02*
X107413416Y-45286347D01*
X107413416Y-45286347D02*
X107489607Y-45324442D01*
X107489607Y-45324442D02*
X107527702Y-45362537D01*
X107527702Y-45362537D02*
X107565797Y-45438728D01*
X107565797Y-45438728D02*
X107565797Y-45629204D01*
X107565797Y-45629204D02*
X107527702Y-45705394D01*
X107527702Y-45705394D02*
X107489607Y-45743490D01*
X107489607Y-45743490D02*
X107413416Y-45781585D01*
X107413416Y-45781585D02*
X107222940Y-45781585D01*
X107222940Y-45781585D02*
X107146750Y-45743490D01*
X107146750Y-45743490D02*
X107108654Y-45705394D01*
X107870559Y-45057775D02*
X107908655Y-45019680D01*
X107908655Y-45019680D02*
X107984845Y-44981585D01*
X107984845Y-44981585D02*
X108175321Y-44981585D01*
X108175321Y-44981585D02*
X108251512Y-45019680D01*
X108251512Y-45019680D02*
X108289607Y-45057775D01*
X108289607Y-45057775D02*
X108327702Y-45133966D01*
X108327702Y-45133966D02*
X108327702Y-45210156D01*
X108327702Y-45210156D02*
X108289607Y-45324442D01*
X108289607Y-45324442D02*
X107832464Y-45781585D01*
X107832464Y-45781585D02*
X108327702Y-45781585D01*
X108822941Y-44981585D02*
X108899131Y-44981585D01*
X108899131Y-44981585D02*
X108975322Y-45019680D01*
X108975322Y-45019680D02*
X109013417Y-45057775D01*
X109013417Y-45057775D02*
X109051512Y-45133966D01*
X109051512Y-45133966D02*
X109089607Y-45286347D01*
X109089607Y-45286347D02*
X109089607Y-45476823D01*
X109089607Y-45476823D02*
X109051512Y-45629204D01*
X109051512Y-45629204D02*
X109013417Y-45705394D01*
X109013417Y-45705394D02*
X108975322Y-45743490D01*
X108975322Y-45743490D02*
X108899131Y-45781585D01*
X108899131Y-45781585D02*
X108822941Y-45781585D01*
X108822941Y-45781585D02*
X108746750Y-45743490D01*
X108746750Y-45743490D02*
X108708655Y-45705394D01*
X108708655Y-45705394D02*
X108670560Y-45629204D01*
X108670560Y-45629204D02*
X108632464Y-45476823D01*
X108632464Y-45476823D02*
X108632464Y-45286347D01*
X108632464Y-45286347D02*
X108670560Y-45133966D01*
X108670560Y-45133966D02*
X108708655Y-45057775D01*
X108708655Y-45057775D02*
X108746750Y-45019680D01*
X108746750Y-45019680D02*
X108822941Y-44981585D01*
X105699131Y-47336206D02*
X105508655Y-47336206D01*
X105508655Y-47336206D02*
X105508655Y-46193349D01*
X105508655Y-46193349D02*
X105699131Y-46193349D01*
X106537226Y-47336206D02*
X106727702Y-47336206D01*
X106727702Y-47336206D02*
X106727702Y-46193349D01*
X106727702Y-46193349D02*
X106537226Y-46193349D01*
X107489607Y-46536206D02*
X107489607Y-47069540D01*
X107299131Y-46231445D02*
X107108654Y-46802873D01*
X107108654Y-46802873D02*
X107603893Y-46802873D01*
X108289607Y-46269540D02*
X107908655Y-46269540D01*
X107908655Y-46269540D02*
X107870559Y-46650492D01*
X107870559Y-46650492D02*
X107908655Y-46612397D01*
X107908655Y-46612397D02*
X107984845Y-46574302D01*
X107984845Y-46574302D02*
X108175321Y-46574302D01*
X108175321Y-46574302D02*
X108251512Y-46612397D01*
X108251512Y-46612397D02*
X108289607Y-46650492D01*
X108289607Y-46650492D02*
X108327702Y-46726683D01*
X108327702Y-46726683D02*
X108327702Y-46917159D01*
X108327702Y-46917159D02*
X108289607Y-46993349D01*
X108289607Y-46993349D02*
X108251512Y-47031445D01*
X108251512Y-47031445D02*
X108175321Y-47069540D01*
X108175321Y-47069540D02*
X107984845Y-47069540D01*
X107984845Y-47069540D02*
X107908655Y-47031445D01*
X107908655Y-47031445D02*
X107870559Y-46993349D01*
X108822941Y-46269540D02*
X108899131Y-46269540D01*
X108899131Y-46269540D02*
X108975322Y-46307635D01*
X108975322Y-46307635D02*
X109013417Y-46345730D01*
X109013417Y-46345730D02*
X109051512Y-46421921D01*
X109051512Y-46421921D02*
X109089607Y-46574302D01*
X109089607Y-46574302D02*
X109089607Y-46764778D01*
X109089607Y-46764778D02*
X109051512Y-46917159D01*
X109051512Y-46917159D02*
X109013417Y-46993349D01*
X109013417Y-46993349D02*
X108975322Y-47031445D01*
X108975322Y-47031445D02*
X108899131Y-47069540D01*
X108899131Y-47069540D02*
X108822941Y-47069540D01*
X108822941Y-47069540D02*
X108746750Y-47031445D01*
X108746750Y-47031445D02*
X108708655Y-46993349D01*
X108708655Y-46993349D02*
X108670560Y-46917159D01*
X108670560Y-46917159D02*
X108632464Y-46764778D01*
X108632464Y-46764778D02*
X108632464Y-46574302D01*
X108632464Y-46574302D02*
X108670560Y-46421921D01*
X108670560Y-46421921D02*
X108708655Y-46345730D01*
X108708655Y-46345730D02*
X108746750Y-46307635D01*
X108746750Y-46307635D02*
X108822941Y-46269540D01*
X105699131Y-48624161D02*
X105508655Y-48624161D01*
X105508655Y-48624161D02*
X105508655Y-47481304D01*
X105508655Y-47481304D02*
X105699131Y-47481304D01*
X106537226Y-48624161D02*
X106727702Y-48624161D01*
X106727702Y-48624161D02*
X106727702Y-47481304D01*
X106727702Y-47481304D02*
X106537226Y-47481304D01*
X124710819Y-82857811D02*
X124710819Y-83429239D01*
X124710819Y-83143525D02*
X123710819Y-83143525D01*
X123710819Y-83143525D02*
X123853676Y-83238763D01*
X123853676Y-83238763D02*
X123948914Y-83334001D01*
X123948914Y-83334001D02*
X123996533Y-83429239D01*
X123806057Y-82476858D02*
X123758438Y-82429239D01*
X123758438Y-82429239D02*
X123710819Y-82334001D01*
X123710819Y-82334001D02*
X123710819Y-82095906D01*
X123710819Y-82095906D02*
X123758438Y-82000668D01*
X123758438Y-82000668D02*
X123806057Y-81953049D01*
X123806057Y-81953049D02*
X123901295Y-81905430D01*
X123901295Y-81905430D02*
X123996533Y-81905430D01*
X123996533Y-81905430D02*
X124139390Y-81953049D01*
X124139390Y-81953049D02*
X124710819Y-82524477D01*
X124710819Y-82524477D02*
X124710819Y-81905430D01*
X124615580Y-81476858D02*
X124663200Y-81429239D01*
X124663200Y-81429239D02*
X124710819Y-81476858D01*
X124710819Y-81476858D02*
X124663200Y-81524477D01*
X124663200Y-81524477D02*
X124615580Y-81476858D01*
X124615580Y-81476858D02*
X124710819Y-81476858D01*
X124615580Y-81000668D02*
X124663200Y-80953049D01*
X124663200Y-80953049D02*
X124710819Y-81000668D01*
X124710819Y-81000668D02*
X124663200Y-81048287D01*
X124663200Y-81048287D02*
X124615580Y-81000668D01*
X124615580Y-81000668D02*
X124710819Y-81000668D01*
X124044152Y-80095907D02*
X124710819Y-80095907D01*
X123663200Y-80334002D02*
X124377485Y-80572097D01*
X124377485Y-80572097D02*
X124377485Y-79953050D01*
X124139390Y-79429240D02*
X124091771Y-79524478D01*
X124091771Y-79524478D02*
X124044152Y-79572097D01*
X124044152Y-79572097D02*
X123948914Y-79619716D01*
X123948914Y-79619716D02*
X123901295Y-79619716D01*
X123901295Y-79619716D02*
X123806057Y-79572097D01*
X123806057Y-79572097D02*
X123758438Y-79524478D01*
X123758438Y-79524478D02*
X123710819Y-79429240D01*
X123710819Y-79429240D02*
X123710819Y-79238764D01*
X123710819Y-79238764D02*
X123758438Y-79143526D01*
X123758438Y-79143526D02*
X123806057Y-79095907D01*
X123806057Y-79095907D02*
X123901295Y-79048288D01*
X123901295Y-79048288D02*
X123948914Y-79048288D01*
X123948914Y-79048288D02*
X124044152Y-79095907D01*
X124044152Y-79095907D02*
X124091771Y-79143526D01*
X124091771Y-79143526D02*
X124139390Y-79238764D01*
X124139390Y-79238764D02*
X124139390Y-79429240D01*
X124139390Y-79429240D02*
X124187009Y-79524478D01*
X124187009Y-79524478D02*
X124234628Y-79572097D01*
X124234628Y-79572097D02*
X124329866Y-79619716D01*
X124329866Y-79619716D02*
X124520342Y-79619716D01*
X124520342Y-79619716D02*
X124615580Y-79572097D01*
X124615580Y-79572097D02*
X124663200Y-79524478D01*
X124663200Y-79524478D02*
X124710819Y-79429240D01*
X124710819Y-79429240D02*
X124710819Y-79238764D01*
X124710819Y-79238764D02*
X124663200Y-79143526D01*
X124663200Y-79143526D02*
X124615580Y-79095907D01*
X124615580Y-79095907D02*
X124520342Y-79048288D01*
X124520342Y-79048288D02*
X124329866Y-79048288D01*
X124329866Y-79048288D02*
X124234628Y-79095907D01*
X124234628Y-79095907D02*
X124187009Y-79143526D01*
X124187009Y-79143526D02*
X124139390Y-79238764D01*
X123710819Y-78000668D02*
X124710819Y-77667335D01*
X124710819Y-77667335D02*
X123710819Y-77334002D01*
X124710819Y-76238763D02*
X123710819Y-76238763D01*
X123710819Y-76238763D02*
X123710819Y-76000668D01*
X123710819Y-76000668D02*
X123758438Y-75857811D01*
X123758438Y-75857811D02*
X123853676Y-75762573D01*
X123853676Y-75762573D02*
X123948914Y-75714954D01*
X123948914Y-75714954D02*
X124139390Y-75667335D01*
X124139390Y-75667335D02*
X124282247Y-75667335D01*
X124282247Y-75667335D02*
X124472723Y-75714954D01*
X124472723Y-75714954D02*
X124567961Y-75762573D01*
X124567961Y-75762573D02*
X124663200Y-75857811D01*
X124663200Y-75857811D02*
X124710819Y-76000668D01*
X124710819Y-76000668D02*
X124710819Y-76238763D01*
X124615580Y-74667335D02*
X124663200Y-74714954D01*
X124663200Y-74714954D02*
X124710819Y-74857811D01*
X124710819Y-74857811D02*
X124710819Y-74953049D01*
X124710819Y-74953049D02*
X124663200Y-75095906D01*
X124663200Y-75095906D02*
X124567961Y-75191144D01*
X124567961Y-75191144D02*
X124472723Y-75238763D01*
X124472723Y-75238763D02*
X124282247Y-75286382D01*
X124282247Y-75286382D02*
X124139390Y-75286382D01*
X124139390Y-75286382D02*
X123948914Y-75238763D01*
X123948914Y-75238763D02*
X123853676Y-75191144D01*
X123853676Y-75191144D02*
X123758438Y-75095906D01*
X123758438Y-75095906D02*
X123710819Y-74953049D01*
X123710819Y-74953049D02*
X123710819Y-74857811D01*
X123710819Y-74857811D02*
X123758438Y-74714954D01*
X123758438Y-74714954D02*
X123806057Y-74667335D01*
X117967369Y-36683230D02*
X118462607Y-36683230D01*
X118462607Y-36683230D02*
X118195941Y-36987992D01*
X118195941Y-36987992D02*
X118310226Y-36987992D01*
X118310226Y-36987992D02*
X118386417Y-37026087D01*
X118386417Y-37026087D02*
X118424512Y-37064182D01*
X118424512Y-37064182D02*
X118462607Y-37140373D01*
X118462607Y-37140373D02*
X118462607Y-37330849D01*
X118462607Y-37330849D02*
X118424512Y-37407039D01*
X118424512Y-37407039D02*
X118386417Y-37445135D01*
X118386417Y-37445135D02*
X118310226Y-37483230D01*
X118310226Y-37483230D02*
X118081655Y-37483230D01*
X118081655Y-37483230D02*
X118005464Y-37445135D01*
X118005464Y-37445135D02*
X117967369Y-37407039D01*
X119148322Y-36683230D02*
X118995941Y-36683230D01*
X118995941Y-36683230D02*
X118919750Y-36721325D01*
X118919750Y-36721325D02*
X118881655Y-36759420D01*
X118881655Y-36759420D02*
X118805465Y-36873706D01*
X118805465Y-36873706D02*
X118767369Y-37026087D01*
X118767369Y-37026087D02*
X118767369Y-37330849D01*
X118767369Y-37330849D02*
X118805465Y-37407039D01*
X118805465Y-37407039D02*
X118843560Y-37445135D01*
X118843560Y-37445135D02*
X118919750Y-37483230D01*
X118919750Y-37483230D02*
X119072131Y-37483230D01*
X119072131Y-37483230D02*
X119148322Y-37445135D01*
X119148322Y-37445135D02*
X119186417Y-37407039D01*
X119186417Y-37407039D02*
X119224512Y-37330849D01*
X119224512Y-37330849D02*
X119224512Y-37140373D01*
X119224512Y-37140373D02*
X119186417Y-37064182D01*
X119186417Y-37064182D02*
X119148322Y-37026087D01*
X119148322Y-37026087D02*
X119072131Y-36987992D01*
X119072131Y-36987992D02*
X118919750Y-36987992D01*
X118919750Y-36987992D02*
X118843560Y-37026087D01*
X118843560Y-37026087D02*
X118805465Y-37064182D01*
X118805465Y-37064182D02*
X118767369Y-37140373D01*
X119948322Y-36683230D02*
X119567370Y-36683230D01*
X119567370Y-36683230D02*
X119529274Y-37064182D01*
X119529274Y-37064182D02*
X119567370Y-37026087D01*
X119567370Y-37026087D02*
X119643560Y-36987992D01*
X119643560Y-36987992D02*
X119834036Y-36987992D01*
X119834036Y-36987992D02*
X119910227Y-37026087D01*
X119910227Y-37026087D02*
X119948322Y-37064182D01*
X119948322Y-37064182D02*
X119986417Y-37140373D01*
X119986417Y-37140373D02*
X119986417Y-37330849D01*
X119986417Y-37330849D02*
X119948322Y-37407039D01*
X119948322Y-37407039D02*
X119910227Y-37445135D01*
X119910227Y-37445135D02*
X119834036Y-37483230D01*
X119834036Y-37483230D02*
X119643560Y-37483230D01*
X119643560Y-37483230D02*
X119567370Y-37445135D01*
X119567370Y-37445135D02*
X119529274Y-37407039D01*
X121167370Y-37749896D02*
X120976894Y-37749896D01*
X120976894Y-37749896D02*
X120976894Y-36607039D01*
X120976894Y-36607039D02*
X121167370Y-36607039D01*
X122005465Y-37749896D02*
X122195941Y-37749896D01*
X122195941Y-37749896D02*
X122195941Y-36607039D01*
X122195941Y-36607039D02*
X122005465Y-36607039D01*
X117967369Y-37971185D02*
X118462607Y-37971185D01*
X118462607Y-37971185D02*
X118195941Y-38275947D01*
X118195941Y-38275947D02*
X118310226Y-38275947D01*
X118310226Y-38275947D02*
X118386417Y-38314042D01*
X118386417Y-38314042D02*
X118424512Y-38352137D01*
X118424512Y-38352137D02*
X118462607Y-38428328D01*
X118462607Y-38428328D02*
X118462607Y-38618804D01*
X118462607Y-38618804D02*
X118424512Y-38694994D01*
X118424512Y-38694994D02*
X118386417Y-38733090D01*
X118386417Y-38733090D02*
X118310226Y-38771185D01*
X118310226Y-38771185D02*
X118081655Y-38771185D01*
X118081655Y-38771185D02*
X118005464Y-38733090D01*
X118005464Y-38733090D02*
X117967369Y-38694994D01*
X119148322Y-37971185D02*
X118995941Y-37971185D01*
X118995941Y-37971185D02*
X118919750Y-38009280D01*
X118919750Y-38009280D02*
X118881655Y-38047375D01*
X118881655Y-38047375D02*
X118805465Y-38161661D01*
X118805465Y-38161661D02*
X118767369Y-38314042D01*
X118767369Y-38314042D02*
X118767369Y-38618804D01*
X118767369Y-38618804D02*
X118805465Y-38694994D01*
X118805465Y-38694994D02*
X118843560Y-38733090D01*
X118843560Y-38733090D02*
X118919750Y-38771185D01*
X118919750Y-38771185D02*
X119072131Y-38771185D01*
X119072131Y-38771185D02*
X119148322Y-38733090D01*
X119148322Y-38733090D02*
X119186417Y-38694994D01*
X119186417Y-38694994D02*
X119224512Y-38618804D01*
X119224512Y-38618804D02*
X119224512Y-38428328D01*
X119224512Y-38428328D02*
X119186417Y-38352137D01*
X119186417Y-38352137D02*
X119148322Y-38314042D01*
X119148322Y-38314042D02*
X119072131Y-38275947D01*
X119072131Y-38275947D02*
X118919750Y-38275947D01*
X118919750Y-38275947D02*
X118843560Y-38314042D01*
X118843560Y-38314042D02*
X118805465Y-38352137D01*
X118805465Y-38352137D02*
X118767369Y-38428328D01*
X119681655Y-38314042D02*
X119605465Y-38275947D01*
X119605465Y-38275947D02*
X119567370Y-38237851D01*
X119567370Y-38237851D02*
X119529274Y-38161661D01*
X119529274Y-38161661D02*
X119529274Y-38123566D01*
X119529274Y-38123566D02*
X119567370Y-38047375D01*
X119567370Y-38047375D02*
X119605465Y-38009280D01*
X119605465Y-38009280D02*
X119681655Y-37971185D01*
X119681655Y-37971185D02*
X119834036Y-37971185D01*
X119834036Y-37971185D02*
X119910227Y-38009280D01*
X119910227Y-38009280D02*
X119948322Y-38047375D01*
X119948322Y-38047375D02*
X119986417Y-38123566D01*
X119986417Y-38123566D02*
X119986417Y-38161661D01*
X119986417Y-38161661D02*
X119948322Y-38237851D01*
X119948322Y-38237851D02*
X119910227Y-38275947D01*
X119910227Y-38275947D02*
X119834036Y-38314042D01*
X119834036Y-38314042D02*
X119681655Y-38314042D01*
X119681655Y-38314042D02*
X119605465Y-38352137D01*
X119605465Y-38352137D02*
X119567370Y-38390232D01*
X119567370Y-38390232D02*
X119529274Y-38466423D01*
X119529274Y-38466423D02*
X119529274Y-38618804D01*
X119529274Y-38618804D02*
X119567370Y-38694994D01*
X119567370Y-38694994D02*
X119605465Y-38733090D01*
X119605465Y-38733090D02*
X119681655Y-38771185D01*
X119681655Y-38771185D02*
X119834036Y-38771185D01*
X119834036Y-38771185D02*
X119910227Y-38733090D01*
X119910227Y-38733090D02*
X119948322Y-38694994D01*
X119948322Y-38694994D02*
X119986417Y-38618804D01*
X119986417Y-38618804D02*
X119986417Y-38466423D01*
X119986417Y-38466423D02*
X119948322Y-38390232D01*
X119948322Y-38390232D02*
X119910227Y-38352137D01*
X119910227Y-38352137D02*
X119834036Y-38314042D01*
X121167370Y-39037851D02*
X120976894Y-39037851D01*
X120976894Y-39037851D02*
X120976894Y-37894994D01*
X120976894Y-37894994D02*
X121167370Y-37894994D01*
X122005465Y-39037851D02*
X122195941Y-39037851D01*
X122195941Y-39037851D02*
X122195941Y-37894994D01*
X122195941Y-37894994D02*
X122005465Y-37894994D01*
X117967369Y-39259140D02*
X118462607Y-39259140D01*
X118462607Y-39259140D02*
X118195941Y-39563902D01*
X118195941Y-39563902D02*
X118310226Y-39563902D01*
X118310226Y-39563902D02*
X118386417Y-39601997D01*
X118386417Y-39601997D02*
X118424512Y-39640092D01*
X118424512Y-39640092D02*
X118462607Y-39716283D01*
X118462607Y-39716283D02*
X118462607Y-39906759D01*
X118462607Y-39906759D02*
X118424512Y-39982949D01*
X118424512Y-39982949D02*
X118386417Y-40021045D01*
X118386417Y-40021045D02*
X118310226Y-40059140D01*
X118310226Y-40059140D02*
X118081655Y-40059140D01*
X118081655Y-40059140D02*
X118005464Y-40021045D01*
X118005464Y-40021045D02*
X117967369Y-39982949D01*
X118843560Y-40059140D02*
X118995941Y-40059140D01*
X118995941Y-40059140D02*
X119072131Y-40021045D01*
X119072131Y-40021045D02*
X119110227Y-39982949D01*
X119110227Y-39982949D02*
X119186417Y-39868664D01*
X119186417Y-39868664D02*
X119224512Y-39716283D01*
X119224512Y-39716283D02*
X119224512Y-39411521D01*
X119224512Y-39411521D02*
X119186417Y-39335330D01*
X119186417Y-39335330D02*
X119148322Y-39297235D01*
X119148322Y-39297235D02*
X119072131Y-39259140D01*
X119072131Y-39259140D02*
X118919750Y-39259140D01*
X118919750Y-39259140D02*
X118843560Y-39297235D01*
X118843560Y-39297235D02*
X118805465Y-39335330D01*
X118805465Y-39335330D02*
X118767369Y-39411521D01*
X118767369Y-39411521D02*
X118767369Y-39601997D01*
X118767369Y-39601997D02*
X118805465Y-39678187D01*
X118805465Y-39678187D02*
X118843560Y-39716283D01*
X118843560Y-39716283D02*
X118919750Y-39754378D01*
X118919750Y-39754378D02*
X119072131Y-39754378D01*
X119072131Y-39754378D02*
X119148322Y-39716283D01*
X119148322Y-39716283D02*
X119186417Y-39678187D01*
X119186417Y-39678187D02*
X119224512Y-39601997D01*
X119948322Y-39259140D02*
X119567370Y-39259140D01*
X119567370Y-39259140D02*
X119529274Y-39640092D01*
X119529274Y-39640092D02*
X119567370Y-39601997D01*
X119567370Y-39601997D02*
X119643560Y-39563902D01*
X119643560Y-39563902D02*
X119834036Y-39563902D01*
X119834036Y-39563902D02*
X119910227Y-39601997D01*
X119910227Y-39601997D02*
X119948322Y-39640092D01*
X119948322Y-39640092D02*
X119986417Y-39716283D01*
X119986417Y-39716283D02*
X119986417Y-39906759D01*
X119986417Y-39906759D02*
X119948322Y-39982949D01*
X119948322Y-39982949D02*
X119910227Y-40021045D01*
X119910227Y-40021045D02*
X119834036Y-40059140D01*
X119834036Y-40059140D02*
X119643560Y-40059140D01*
X119643560Y-40059140D02*
X119567370Y-40021045D01*
X119567370Y-40021045D02*
X119529274Y-39982949D01*
X121167370Y-40325806D02*
X120976894Y-40325806D01*
X120976894Y-40325806D02*
X120976894Y-39182949D01*
X120976894Y-39182949D02*
X121167370Y-39182949D01*
X122005465Y-40325806D02*
X122195941Y-40325806D01*
X122195941Y-40325806D02*
X122195941Y-39182949D01*
X122195941Y-39182949D02*
X122005465Y-39182949D01*
X118386417Y-40813761D02*
X118386417Y-41347095D01*
X118195941Y-40509000D02*
X118005464Y-41080428D01*
X118005464Y-41080428D02*
X118500703Y-41080428D01*
X118957846Y-40547095D02*
X119034036Y-40547095D01*
X119034036Y-40547095D02*
X119110227Y-40585190D01*
X119110227Y-40585190D02*
X119148322Y-40623285D01*
X119148322Y-40623285D02*
X119186417Y-40699476D01*
X119186417Y-40699476D02*
X119224512Y-40851857D01*
X119224512Y-40851857D02*
X119224512Y-41042333D01*
X119224512Y-41042333D02*
X119186417Y-41194714D01*
X119186417Y-41194714D02*
X119148322Y-41270904D01*
X119148322Y-41270904D02*
X119110227Y-41309000D01*
X119110227Y-41309000D02*
X119034036Y-41347095D01*
X119034036Y-41347095D02*
X118957846Y-41347095D01*
X118957846Y-41347095D02*
X118881655Y-41309000D01*
X118881655Y-41309000D02*
X118843560Y-41270904D01*
X118843560Y-41270904D02*
X118805465Y-41194714D01*
X118805465Y-41194714D02*
X118767369Y-41042333D01*
X118767369Y-41042333D02*
X118767369Y-40851857D01*
X118767369Y-40851857D02*
X118805465Y-40699476D01*
X118805465Y-40699476D02*
X118843560Y-40623285D01*
X118843560Y-40623285D02*
X118881655Y-40585190D01*
X118881655Y-40585190D02*
X118957846Y-40547095D01*
X119948322Y-40547095D02*
X119567370Y-40547095D01*
X119567370Y-40547095D02*
X119529274Y-40928047D01*
X119529274Y-40928047D02*
X119567370Y-40889952D01*
X119567370Y-40889952D02*
X119643560Y-40851857D01*
X119643560Y-40851857D02*
X119834036Y-40851857D01*
X119834036Y-40851857D02*
X119910227Y-40889952D01*
X119910227Y-40889952D02*
X119948322Y-40928047D01*
X119948322Y-40928047D02*
X119986417Y-41004238D01*
X119986417Y-41004238D02*
X119986417Y-41194714D01*
X119986417Y-41194714D02*
X119948322Y-41270904D01*
X119948322Y-41270904D02*
X119910227Y-41309000D01*
X119910227Y-41309000D02*
X119834036Y-41347095D01*
X119834036Y-41347095D02*
X119643560Y-41347095D01*
X119643560Y-41347095D02*
X119567370Y-41309000D01*
X119567370Y-41309000D02*
X119529274Y-41270904D01*
X121167370Y-41613761D02*
X120976894Y-41613761D01*
X120976894Y-41613761D02*
X120976894Y-40470904D01*
X120976894Y-40470904D02*
X121167370Y-40470904D01*
X122005465Y-41613761D02*
X122195941Y-41613761D01*
X122195941Y-41613761D02*
X122195941Y-40470904D01*
X122195941Y-40470904D02*
X122005465Y-40470904D01*
X105597531Y-54557096D02*
X105407055Y-54557096D01*
X105407055Y-54557096D02*
X105407055Y-53414239D01*
X105407055Y-53414239D02*
X105597531Y-53414239D01*
X106435626Y-54557096D02*
X106626102Y-54557096D01*
X106626102Y-54557096D02*
X106626102Y-53414239D01*
X106626102Y-53414239D02*
X106435626Y-53414239D01*
X105597531Y-55845051D02*
X105407055Y-55845051D01*
X105407055Y-55845051D02*
X105407055Y-54702194D01*
X105407055Y-54702194D02*
X105597531Y-54702194D01*
X106435626Y-55845051D02*
X106626102Y-55845051D01*
X106626102Y-55845051D02*
X106626102Y-54702194D01*
X106626102Y-54702194D02*
X106435626Y-54702194D01*
X107426102Y-54778385D02*
X107045150Y-54778385D01*
X107045150Y-54778385D02*
X107007054Y-55159337D01*
X107007054Y-55159337D02*
X107045150Y-55121242D01*
X107045150Y-55121242D02*
X107121340Y-55083147D01*
X107121340Y-55083147D02*
X107311816Y-55083147D01*
X107311816Y-55083147D02*
X107388007Y-55121242D01*
X107388007Y-55121242D02*
X107426102Y-55159337D01*
X107426102Y-55159337D02*
X107464197Y-55235528D01*
X107464197Y-55235528D02*
X107464197Y-55426004D01*
X107464197Y-55426004D02*
X107426102Y-55502194D01*
X107426102Y-55502194D02*
X107388007Y-55540290D01*
X107388007Y-55540290D02*
X107311816Y-55578385D01*
X107311816Y-55578385D02*
X107121340Y-55578385D01*
X107121340Y-55578385D02*
X107045150Y-55540290D01*
X107045150Y-55540290D02*
X107007054Y-55502194D01*
X107768959Y-54854575D02*
X107807055Y-54816480D01*
X107807055Y-54816480D02*
X107883245Y-54778385D01*
X107883245Y-54778385D02*
X108073721Y-54778385D01*
X108073721Y-54778385D02*
X108149912Y-54816480D01*
X108149912Y-54816480D02*
X108188007Y-54854575D01*
X108188007Y-54854575D02*
X108226102Y-54930766D01*
X108226102Y-54930766D02*
X108226102Y-55006956D01*
X108226102Y-55006956D02*
X108188007Y-55121242D01*
X108188007Y-55121242D02*
X107730864Y-55578385D01*
X107730864Y-55578385D02*
X108226102Y-55578385D01*
X108721341Y-54778385D02*
X108797531Y-54778385D01*
X108797531Y-54778385D02*
X108873722Y-54816480D01*
X108873722Y-54816480D02*
X108911817Y-54854575D01*
X108911817Y-54854575D02*
X108949912Y-54930766D01*
X108949912Y-54930766D02*
X108988007Y-55083147D01*
X108988007Y-55083147D02*
X108988007Y-55273623D01*
X108988007Y-55273623D02*
X108949912Y-55426004D01*
X108949912Y-55426004D02*
X108911817Y-55502194D01*
X108911817Y-55502194D02*
X108873722Y-55540290D01*
X108873722Y-55540290D02*
X108797531Y-55578385D01*
X108797531Y-55578385D02*
X108721341Y-55578385D01*
X108721341Y-55578385D02*
X108645150Y-55540290D01*
X108645150Y-55540290D02*
X108607055Y-55502194D01*
X108607055Y-55502194D02*
X108568960Y-55426004D01*
X108568960Y-55426004D02*
X108530864Y-55273623D01*
X108530864Y-55273623D02*
X108530864Y-55083147D01*
X108530864Y-55083147D02*
X108568960Y-54930766D01*
X108568960Y-54930766D02*
X108607055Y-54854575D01*
X108607055Y-54854575D02*
X108645150Y-54816480D01*
X108645150Y-54816480D02*
X108721341Y-54778385D01*
X105597531Y-57133006D02*
X105407055Y-57133006D01*
X105407055Y-57133006D02*
X105407055Y-55990149D01*
X105407055Y-55990149D02*
X105597531Y-55990149D01*
X106435626Y-57133006D02*
X106626102Y-57133006D01*
X106626102Y-57133006D02*
X106626102Y-55990149D01*
X106626102Y-55990149D02*
X106435626Y-55990149D01*
X107388007Y-56333006D02*
X107388007Y-56866340D01*
X107197531Y-56028245D02*
X107007054Y-56599673D01*
X107007054Y-56599673D02*
X107502293Y-56599673D01*
X108188007Y-56066340D02*
X107807055Y-56066340D01*
X107807055Y-56066340D02*
X107768959Y-56447292D01*
X107768959Y-56447292D02*
X107807055Y-56409197D01*
X107807055Y-56409197D02*
X107883245Y-56371102D01*
X107883245Y-56371102D02*
X108073721Y-56371102D01*
X108073721Y-56371102D02*
X108149912Y-56409197D01*
X108149912Y-56409197D02*
X108188007Y-56447292D01*
X108188007Y-56447292D02*
X108226102Y-56523483D01*
X108226102Y-56523483D02*
X108226102Y-56713959D01*
X108226102Y-56713959D02*
X108188007Y-56790149D01*
X108188007Y-56790149D02*
X108149912Y-56828245D01*
X108149912Y-56828245D02*
X108073721Y-56866340D01*
X108073721Y-56866340D02*
X107883245Y-56866340D01*
X107883245Y-56866340D02*
X107807055Y-56828245D01*
X107807055Y-56828245D02*
X107768959Y-56790149D01*
X108721341Y-56066340D02*
X108797531Y-56066340D01*
X108797531Y-56066340D02*
X108873722Y-56104435D01*
X108873722Y-56104435D02*
X108911817Y-56142530D01*
X108911817Y-56142530D02*
X108949912Y-56218721D01*
X108949912Y-56218721D02*
X108988007Y-56371102D01*
X108988007Y-56371102D02*
X108988007Y-56561578D01*
X108988007Y-56561578D02*
X108949912Y-56713959D01*
X108949912Y-56713959D02*
X108911817Y-56790149D01*
X108911817Y-56790149D02*
X108873722Y-56828245D01*
X108873722Y-56828245D02*
X108797531Y-56866340D01*
X108797531Y-56866340D02*
X108721341Y-56866340D01*
X108721341Y-56866340D02*
X108645150Y-56828245D01*
X108645150Y-56828245D02*
X108607055Y-56790149D01*
X108607055Y-56790149D02*
X108568960Y-56713959D01*
X108568960Y-56713959D02*
X108530864Y-56561578D01*
X108530864Y-56561578D02*
X108530864Y-56371102D01*
X108530864Y-56371102D02*
X108568960Y-56218721D01*
X108568960Y-56218721D02*
X108607055Y-56142530D01*
X108607055Y-56142530D02*
X108645150Y-56104435D01*
X108645150Y-56104435D02*
X108721341Y-56066340D01*
X105597531Y-58420961D02*
X105407055Y-58420961D01*
X105407055Y-58420961D02*
X105407055Y-57278104D01*
X105407055Y-57278104D02*
X105597531Y-57278104D01*
X106435626Y-58420961D02*
X106626102Y-58420961D01*
X106626102Y-58420961D02*
X106626102Y-57278104D01*
X106626102Y-57278104D02*
X106435626Y-57278104D01*
X106854674Y-58230485D02*
X107464197Y-58230485D01*
X107464198Y-58230485D02*
X108073721Y-58230485D01*
X108073722Y-58230485D02*
X108683245Y-58230485D01*
X118119769Y-61190430D02*
X118615007Y-61190430D01*
X118615007Y-61190430D02*
X118348341Y-61495192D01*
X118348341Y-61495192D02*
X118462626Y-61495192D01*
X118462626Y-61495192D02*
X118538817Y-61533287D01*
X118538817Y-61533287D02*
X118576912Y-61571382D01*
X118576912Y-61571382D02*
X118615007Y-61647573D01*
X118615007Y-61647573D02*
X118615007Y-61838049D01*
X118615007Y-61838049D02*
X118576912Y-61914239D01*
X118576912Y-61914239D02*
X118538817Y-61952335D01*
X118538817Y-61952335D02*
X118462626Y-61990430D01*
X118462626Y-61990430D02*
X118234055Y-61990430D01*
X118234055Y-61990430D02*
X118157864Y-61952335D01*
X118157864Y-61952335D02*
X118119769Y-61914239D01*
X119300722Y-61190430D02*
X119148341Y-61190430D01*
X119148341Y-61190430D02*
X119072150Y-61228525D01*
X119072150Y-61228525D02*
X119034055Y-61266620D01*
X119034055Y-61266620D02*
X118957865Y-61380906D01*
X118957865Y-61380906D02*
X118919769Y-61533287D01*
X118919769Y-61533287D02*
X118919769Y-61838049D01*
X118919769Y-61838049D02*
X118957865Y-61914239D01*
X118957865Y-61914239D02*
X118995960Y-61952335D01*
X118995960Y-61952335D02*
X119072150Y-61990430D01*
X119072150Y-61990430D02*
X119224531Y-61990430D01*
X119224531Y-61990430D02*
X119300722Y-61952335D01*
X119300722Y-61952335D02*
X119338817Y-61914239D01*
X119338817Y-61914239D02*
X119376912Y-61838049D01*
X119376912Y-61838049D02*
X119376912Y-61647573D01*
X119376912Y-61647573D02*
X119338817Y-61571382D01*
X119338817Y-61571382D02*
X119300722Y-61533287D01*
X119300722Y-61533287D02*
X119224531Y-61495192D01*
X119224531Y-61495192D02*
X119072150Y-61495192D01*
X119072150Y-61495192D02*
X118995960Y-61533287D01*
X118995960Y-61533287D02*
X118957865Y-61571382D01*
X118957865Y-61571382D02*
X118919769Y-61647573D01*
X120100722Y-61190430D02*
X119719770Y-61190430D01*
X119719770Y-61190430D02*
X119681674Y-61571382D01*
X119681674Y-61571382D02*
X119719770Y-61533287D01*
X119719770Y-61533287D02*
X119795960Y-61495192D01*
X119795960Y-61495192D02*
X119986436Y-61495192D01*
X119986436Y-61495192D02*
X120062627Y-61533287D01*
X120062627Y-61533287D02*
X120100722Y-61571382D01*
X120100722Y-61571382D02*
X120138817Y-61647573D01*
X120138817Y-61647573D02*
X120138817Y-61838049D01*
X120138817Y-61838049D02*
X120100722Y-61914239D01*
X120100722Y-61914239D02*
X120062627Y-61952335D01*
X120062627Y-61952335D02*
X119986436Y-61990430D01*
X119986436Y-61990430D02*
X119795960Y-61990430D01*
X119795960Y-61990430D02*
X119719770Y-61952335D01*
X119719770Y-61952335D02*
X119681674Y-61914239D01*
X121319770Y-62257096D02*
X121129294Y-62257096D01*
X121129294Y-62257096D02*
X121129294Y-61114239D01*
X121129294Y-61114239D02*
X121319770Y-61114239D01*
X122157865Y-62257096D02*
X122348341Y-62257096D01*
X122348341Y-62257096D02*
X122348341Y-61114239D01*
X122348341Y-61114239D02*
X122157865Y-61114239D01*
X118119769Y-62478385D02*
X118615007Y-62478385D01*
X118615007Y-62478385D02*
X118348341Y-62783147D01*
X118348341Y-62783147D02*
X118462626Y-62783147D01*
X118462626Y-62783147D02*
X118538817Y-62821242D01*
X118538817Y-62821242D02*
X118576912Y-62859337D01*
X118576912Y-62859337D02*
X118615007Y-62935528D01*
X118615007Y-62935528D02*
X118615007Y-63126004D01*
X118615007Y-63126004D02*
X118576912Y-63202194D01*
X118576912Y-63202194D02*
X118538817Y-63240290D01*
X118538817Y-63240290D02*
X118462626Y-63278385D01*
X118462626Y-63278385D02*
X118234055Y-63278385D01*
X118234055Y-63278385D02*
X118157864Y-63240290D01*
X118157864Y-63240290D02*
X118119769Y-63202194D01*
X119300722Y-62478385D02*
X119148341Y-62478385D01*
X119148341Y-62478385D02*
X119072150Y-62516480D01*
X119072150Y-62516480D02*
X119034055Y-62554575D01*
X119034055Y-62554575D02*
X118957865Y-62668861D01*
X118957865Y-62668861D02*
X118919769Y-62821242D01*
X118919769Y-62821242D02*
X118919769Y-63126004D01*
X118919769Y-63126004D02*
X118957865Y-63202194D01*
X118957865Y-63202194D02*
X118995960Y-63240290D01*
X118995960Y-63240290D02*
X119072150Y-63278385D01*
X119072150Y-63278385D02*
X119224531Y-63278385D01*
X119224531Y-63278385D02*
X119300722Y-63240290D01*
X119300722Y-63240290D02*
X119338817Y-63202194D01*
X119338817Y-63202194D02*
X119376912Y-63126004D01*
X119376912Y-63126004D02*
X119376912Y-62935528D01*
X119376912Y-62935528D02*
X119338817Y-62859337D01*
X119338817Y-62859337D02*
X119300722Y-62821242D01*
X119300722Y-62821242D02*
X119224531Y-62783147D01*
X119224531Y-62783147D02*
X119072150Y-62783147D01*
X119072150Y-62783147D02*
X118995960Y-62821242D01*
X118995960Y-62821242D02*
X118957865Y-62859337D01*
X118957865Y-62859337D02*
X118919769Y-62935528D01*
X119834055Y-62821242D02*
X119757865Y-62783147D01*
X119757865Y-62783147D02*
X119719770Y-62745051D01*
X119719770Y-62745051D02*
X119681674Y-62668861D01*
X119681674Y-62668861D02*
X119681674Y-62630766D01*
X119681674Y-62630766D02*
X119719770Y-62554575D01*
X119719770Y-62554575D02*
X119757865Y-62516480D01*
X119757865Y-62516480D02*
X119834055Y-62478385D01*
X119834055Y-62478385D02*
X119986436Y-62478385D01*
X119986436Y-62478385D02*
X120062627Y-62516480D01*
X120062627Y-62516480D02*
X120100722Y-62554575D01*
X120100722Y-62554575D02*
X120138817Y-62630766D01*
X120138817Y-62630766D02*
X120138817Y-62668861D01*
X120138817Y-62668861D02*
X120100722Y-62745051D01*
X120100722Y-62745051D02*
X120062627Y-62783147D01*
X120062627Y-62783147D02*
X119986436Y-62821242D01*
X119986436Y-62821242D02*
X119834055Y-62821242D01*
X119834055Y-62821242D02*
X119757865Y-62859337D01*
X119757865Y-62859337D02*
X119719770Y-62897432D01*
X119719770Y-62897432D02*
X119681674Y-62973623D01*
X119681674Y-62973623D02*
X119681674Y-63126004D01*
X119681674Y-63126004D02*
X119719770Y-63202194D01*
X119719770Y-63202194D02*
X119757865Y-63240290D01*
X119757865Y-63240290D02*
X119834055Y-63278385D01*
X119834055Y-63278385D02*
X119986436Y-63278385D01*
X119986436Y-63278385D02*
X120062627Y-63240290D01*
X120062627Y-63240290D02*
X120100722Y-63202194D01*
X120100722Y-63202194D02*
X120138817Y-63126004D01*
X120138817Y-63126004D02*
X120138817Y-62973623D01*
X120138817Y-62973623D02*
X120100722Y-62897432D01*
X120100722Y-62897432D02*
X120062627Y-62859337D01*
X120062627Y-62859337D02*
X119986436Y-62821242D01*
X121319770Y-63545051D02*
X121129294Y-63545051D01*
X121129294Y-63545051D02*
X121129294Y-62402194D01*
X121129294Y-62402194D02*
X121319770Y-62402194D01*
X122157865Y-63545051D02*
X122348341Y-63545051D01*
X122348341Y-63545051D02*
X122348341Y-62402194D01*
X122348341Y-62402194D02*
X122157865Y-62402194D01*
X118119769Y-63766340D02*
X118615007Y-63766340D01*
X118615007Y-63766340D02*
X118348341Y-64071102D01*
X118348341Y-64071102D02*
X118462626Y-64071102D01*
X118462626Y-64071102D02*
X118538817Y-64109197D01*
X118538817Y-64109197D02*
X118576912Y-64147292D01*
X118576912Y-64147292D02*
X118615007Y-64223483D01*
X118615007Y-64223483D02*
X118615007Y-64413959D01*
X118615007Y-64413959D02*
X118576912Y-64490149D01*
X118576912Y-64490149D02*
X118538817Y-64528245D01*
X118538817Y-64528245D02*
X118462626Y-64566340D01*
X118462626Y-64566340D02*
X118234055Y-64566340D01*
X118234055Y-64566340D02*
X118157864Y-64528245D01*
X118157864Y-64528245D02*
X118119769Y-64490149D01*
X118995960Y-64566340D02*
X119148341Y-64566340D01*
X119148341Y-64566340D02*
X119224531Y-64528245D01*
X119224531Y-64528245D02*
X119262627Y-64490149D01*
X119262627Y-64490149D02*
X119338817Y-64375864D01*
X119338817Y-64375864D02*
X119376912Y-64223483D01*
X119376912Y-64223483D02*
X119376912Y-63918721D01*
X119376912Y-63918721D02*
X119338817Y-63842530D01*
X119338817Y-63842530D02*
X119300722Y-63804435D01*
X119300722Y-63804435D02*
X119224531Y-63766340D01*
X119224531Y-63766340D02*
X119072150Y-63766340D01*
X119072150Y-63766340D02*
X118995960Y-63804435D01*
X118995960Y-63804435D02*
X118957865Y-63842530D01*
X118957865Y-63842530D02*
X118919769Y-63918721D01*
X118919769Y-63918721D02*
X118919769Y-64109197D01*
X118919769Y-64109197D02*
X118957865Y-64185387D01*
X118957865Y-64185387D02*
X118995960Y-64223483D01*
X118995960Y-64223483D02*
X119072150Y-64261578D01*
X119072150Y-64261578D02*
X119224531Y-64261578D01*
X119224531Y-64261578D02*
X119300722Y-64223483D01*
X119300722Y-64223483D02*
X119338817Y-64185387D01*
X119338817Y-64185387D02*
X119376912Y-64109197D01*
X120100722Y-63766340D02*
X119719770Y-63766340D01*
X119719770Y-63766340D02*
X119681674Y-64147292D01*
X119681674Y-64147292D02*
X119719770Y-64109197D01*
X119719770Y-64109197D02*
X119795960Y-64071102D01*
X119795960Y-64071102D02*
X119986436Y-64071102D01*
X119986436Y-64071102D02*
X120062627Y-64109197D01*
X120062627Y-64109197D02*
X120100722Y-64147292D01*
X120100722Y-64147292D02*
X120138817Y-64223483D01*
X120138817Y-64223483D02*
X120138817Y-64413959D01*
X120138817Y-64413959D02*
X120100722Y-64490149D01*
X120100722Y-64490149D02*
X120062627Y-64528245D01*
X120062627Y-64528245D02*
X119986436Y-64566340D01*
X119986436Y-64566340D02*
X119795960Y-64566340D01*
X119795960Y-64566340D02*
X119719770Y-64528245D01*
X119719770Y-64528245D02*
X119681674Y-64490149D01*
X121319770Y-64833006D02*
X121129294Y-64833006D01*
X121129294Y-64833006D02*
X121129294Y-63690149D01*
X121129294Y-63690149D02*
X121319770Y-63690149D01*
X122157865Y-64833006D02*
X122348341Y-64833006D01*
X122348341Y-64833006D02*
X122348341Y-63690149D01*
X122348341Y-63690149D02*
X122157865Y-63690149D01*
X118538817Y-65320961D02*
X118538817Y-65854295D01*
X118348341Y-65016200D02*
X118157864Y-65587628D01*
X118157864Y-65587628D02*
X118653103Y-65587628D01*
X119110246Y-65054295D02*
X119186436Y-65054295D01*
X119186436Y-65054295D02*
X119262627Y-65092390D01*
X119262627Y-65092390D02*
X119300722Y-65130485D01*
X119300722Y-65130485D02*
X119338817Y-65206676D01*
X119338817Y-65206676D02*
X119376912Y-65359057D01*
X119376912Y-65359057D02*
X119376912Y-65549533D01*
X119376912Y-65549533D02*
X119338817Y-65701914D01*
X119338817Y-65701914D02*
X119300722Y-65778104D01*
X119300722Y-65778104D02*
X119262627Y-65816200D01*
X119262627Y-65816200D02*
X119186436Y-65854295D01*
X119186436Y-65854295D02*
X119110246Y-65854295D01*
X119110246Y-65854295D02*
X119034055Y-65816200D01*
X119034055Y-65816200D02*
X118995960Y-65778104D01*
X118995960Y-65778104D02*
X118957865Y-65701914D01*
X118957865Y-65701914D02*
X118919769Y-65549533D01*
X118919769Y-65549533D02*
X118919769Y-65359057D01*
X118919769Y-65359057D02*
X118957865Y-65206676D01*
X118957865Y-65206676D02*
X118995960Y-65130485D01*
X118995960Y-65130485D02*
X119034055Y-65092390D01*
X119034055Y-65092390D02*
X119110246Y-65054295D01*
X120100722Y-65054295D02*
X119719770Y-65054295D01*
X119719770Y-65054295D02*
X119681674Y-65435247D01*
X119681674Y-65435247D02*
X119719770Y-65397152D01*
X119719770Y-65397152D02*
X119795960Y-65359057D01*
X119795960Y-65359057D02*
X119986436Y-65359057D01*
X119986436Y-65359057D02*
X120062627Y-65397152D01*
X120062627Y-65397152D02*
X120100722Y-65435247D01*
X120100722Y-65435247D02*
X120138817Y-65511438D01*
X120138817Y-65511438D02*
X120138817Y-65701914D01*
X120138817Y-65701914D02*
X120100722Y-65778104D01*
X120100722Y-65778104D02*
X120062627Y-65816200D01*
X120062627Y-65816200D02*
X119986436Y-65854295D01*
X119986436Y-65854295D02*
X119795960Y-65854295D01*
X119795960Y-65854295D02*
X119719770Y-65816200D01*
X119719770Y-65816200D02*
X119681674Y-65778104D01*
X121319770Y-66120961D02*
X121129294Y-66120961D01*
X121129294Y-66120961D02*
X121129294Y-64978104D01*
X121129294Y-64978104D02*
X121319770Y-64978104D01*
X122157865Y-66120961D02*
X122348341Y-66120961D01*
X122348341Y-66120961D02*
X122348341Y-64978104D01*
X122348341Y-64978104D02*
X122157865Y-64978104D01*
X118094369Y-43690430D02*
X118589607Y-43690430D01*
X118589607Y-43690430D02*
X118322941Y-43995192D01*
X118322941Y-43995192D02*
X118437226Y-43995192D01*
X118437226Y-43995192D02*
X118513417Y-44033287D01*
X118513417Y-44033287D02*
X118551512Y-44071382D01*
X118551512Y-44071382D02*
X118589607Y-44147573D01*
X118589607Y-44147573D02*
X118589607Y-44338049D01*
X118589607Y-44338049D02*
X118551512Y-44414239D01*
X118551512Y-44414239D02*
X118513417Y-44452335D01*
X118513417Y-44452335D02*
X118437226Y-44490430D01*
X118437226Y-44490430D02*
X118208655Y-44490430D01*
X118208655Y-44490430D02*
X118132464Y-44452335D01*
X118132464Y-44452335D02*
X118094369Y-44414239D01*
X119275322Y-43690430D02*
X119122941Y-43690430D01*
X119122941Y-43690430D02*
X119046750Y-43728525D01*
X119046750Y-43728525D02*
X119008655Y-43766620D01*
X119008655Y-43766620D02*
X118932465Y-43880906D01*
X118932465Y-43880906D02*
X118894369Y-44033287D01*
X118894369Y-44033287D02*
X118894369Y-44338049D01*
X118894369Y-44338049D02*
X118932465Y-44414239D01*
X118932465Y-44414239D02*
X118970560Y-44452335D01*
X118970560Y-44452335D02*
X119046750Y-44490430D01*
X119046750Y-44490430D02*
X119199131Y-44490430D01*
X119199131Y-44490430D02*
X119275322Y-44452335D01*
X119275322Y-44452335D02*
X119313417Y-44414239D01*
X119313417Y-44414239D02*
X119351512Y-44338049D01*
X119351512Y-44338049D02*
X119351512Y-44147573D01*
X119351512Y-44147573D02*
X119313417Y-44071382D01*
X119313417Y-44071382D02*
X119275322Y-44033287D01*
X119275322Y-44033287D02*
X119199131Y-43995192D01*
X119199131Y-43995192D02*
X119046750Y-43995192D01*
X119046750Y-43995192D02*
X118970560Y-44033287D01*
X118970560Y-44033287D02*
X118932465Y-44071382D01*
X118932465Y-44071382D02*
X118894369Y-44147573D01*
X120075322Y-43690430D02*
X119694370Y-43690430D01*
X119694370Y-43690430D02*
X119656274Y-44071382D01*
X119656274Y-44071382D02*
X119694370Y-44033287D01*
X119694370Y-44033287D02*
X119770560Y-43995192D01*
X119770560Y-43995192D02*
X119961036Y-43995192D01*
X119961036Y-43995192D02*
X120037227Y-44033287D01*
X120037227Y-44033287D02*
X120075322Y-44071382D01*
X120075322Y-44071382D02*
X120113417Y-44147573D01*
X120113417Y-44147573D02*
X120113417Y-44338049D01*
X120113417Y-44338049D02*
X120075322Y-44414239D01*
X120075322Y-44414239D02*
X120037227Y-44452335D01*
X120037227Y-44452335D02*
X119961036Y-44490430D01*
X119961036Y-44490430D02*
X119770560Y-44490430D01*
X119770560Y-44490430D02*
X119694370Y-44452335D01*
X119694370Y-44452335D02*
X119656274Y-44414239D01*
X121294370Y-44757096D02*
X121103894Y-44757096D01*
X121103894Y-44757096D02*
X121103894Y-43614239D01*
X121103894Y-43614239D02*
X121294370Y-43614239D01*
X122132465Y-44757096D02*
X122322941Y-44757096D01*
X122322941Y-44757096D02*
X122322941Y-43614239D01*
X122322941Y-43614239D02*
X122132465Y-43614239D01*
X118094369Y-44978385D02*
X118589607Y-44978385D01*
X118589607Y-44978385D02*
X118322941Y-45283147D01*
X118322941Y-45283147D02*
X118437226Y-45283147D01*
X118437226Y-45283147D02*
X118513417Y-45321242D01*
X118513417Y-45321242D02*
X118551512Y-45359337D01*
X118551512Y-45359337D02*
X118589607Y-45435528D01*
X118589607Y-45435528D02*
X118589607Y-45626004D01*
X118589607Y-45626004D02*
X118551512Y-45702194D01*
X118551512Y-45702194D02*
X118513417Y-45740290D01*
X118513417Y-45740290D02*
X118437226Y-45778385D01*
X118437226Y-45778385D02*
X118208655Y-45778385D01*
X118208655Y-45778385D02*
X118132464Y-45740290D01*
X118132464Y-45740290D02*
X118094369Y-45702194D01*
X119275322Y-44978385D02*
X119122941Y-44978385D01*
X119122941Y-44978385D02*
X119046750Y-45016480D01*
X119046750Y-45016480D02*
X119008655Y-45054575D01*
X119008655Y-45054575D02*
X118932465Y-45168861D01*
X118932465Y-45168861D02*
X118894369Y-45321242D01*
X118894369Y-45321242D02*
X118894369Y-45626004D01*
X118894369Y-45626004D02*
X118932465Y-45702194D01*
X118932465Y-45702194D02*
X118970560Y-45740290D01*
X118970560Y-45740290D02*
X119046750Y-45778385D01*
X119046750Y-45778385D02*
X119199131Y-45778385D01*
X119199131Y-45778385D02*
X119275322Y-45740290D01*
X119275322Y-45740290D02*
X119313417Y-45702194D01*
X119313417Y-45702194D02*
X119351512Y-45626004D01*
X119351512Y-45626004D02*
X119351512Y-45435528D01*
X119351512Y-45435528D02*
X119313417Y-45359337D01*
X119313417Y-45359337D02*
X119275322Y-45321242D01*
X119275322Y-45321242D02*
X119199131Y-45283147D01*
X119199131Y-45283147D02*
X119046750Y-45283147D01*
X119046750Y-45283147D02*
X118970560Y-45321242D01*
X118970560Y-45321242D02*
X118932465Y-45359337D01*
X118932465Y-45359337D02*
X118894369Y-45435528D01*
X119808655Y-45321242D02*
X119732465Y-45283147D01*
X119732465Y-45283147D02*
X119694370Y-45245051D01*
X119694370Y-45245051D02*
X119656274Y-45168861D01*
X119656274Y-45168861D02*
X119656274Y-45130766D01*
X119656274Y-45130766D02*
X119694370Y-45054575D01*
X119694370Y-45054575D02*
X119732465Y-45016480D01*
X119732465Y-45016480D02*
X119808655Y-44978385D01*
X119808655Y-44978385D02*
X119961036Y-44978385D01*
X119961036Y-44978385D02*
X120037227Y-45016480D01*
X120037227Y-45016480D02*
X120075322Y-45054575D01*
X120075322Y-45054575D02*
X120113417Y-45130766D01*
X120113417Y-45130766D02*
X120113417Y-45168861D01*
X120113417Y-45168861D02*
X120075322Y-45245051D01*
X120075322Y-45245051D02*
X120037227Y-45283147D01*
X120037227Y-45283147D02*
X119961036Y-45321242D01*
X119961036Y-45321242D02*
X119808655Y-45321242D01*
X119808655Y-45321242D02*
X119732465Y-45359337D01*
X119732465Y-45359337D02*
X119694370Y-45397432D01*
X119694370Y-45397432D02*
X119656274Y-45473623D01*
X119656274Y-45473623D02*
X119656274Y-45626004D01*
X119656274Y-45626004D02*
X119694370Y-45702194D01*
X119694370Y-45702194D02*
X119732465Y-45740290D01*
X119732465Y-45740290D02*
X119808655Y-45778385D01*
X119808655Y-45778385D02*
X119961036Y-45778385D01*
X119961036Y-45778385D02*
X120037227Y-45740290D01*
X120037227Y-45740290D02*
X120075322Y-45702194D01*
X120075322Y-45702194D02*
X120113417Y-45626004D01*
X120113417Y-45626004D02*
X120113417Y-45473623D01*
X120113417Y-45473623D02*
X120075322Y-45397432D01*
X120075322Y-45397432D02*
X120037227Y-45359337D01*
X120037227Y-45359337D02*
X119961036Y-45321242D01*
X121294370Y-46045051D02*
X121103894Y-46045051D01*
X121103894Y-46045051D02*
X121103894Y-44902194D01*
X121103894Y-44902194D02*
X121294370Y-44902194D01*
X122132465Y-46045051D02*
X122322941Y-46045051D01*
X122322941Y-46045051D02*
X122322941Y-44902194D01*
X122322941Y-44902194D02*
X122132465Y-44902194D01*
X118094369Y-46266340D02*
X118589607Y-46266340D01*
X118589607Y-46266340D02*
X118322941Y-46571102D01*
X118322941Y-46571102D02*
X118437226Y-46571102D01*
X118437226Y-46571102D02*
X118513417Y-46609197D01*
X118513417Y-46609197D02*
X118551512Y-46647292D01*
X118551512Y-46647292D02*
X118589607Y-46723483D01*
X118589607Y-46723483D02*
X118589607Y-46913959D01*
X118589607Y-46913959D02*
X118551512Y-46990149D01*
X118551512Y-46990149D02*
X118513417Y-47028245D01*
X118513417Y-47028245D02*
X118437226Y-47066340D01*
X118437226Y-47066340D02*
X118208655Y-47066340D01*
X118208655Y-47066340D02*
X118132464Y-47028245D01*
X118132464Y-47028245D02*
X118094369Y-46990149D01*
X118970560Y-47066340D02*
X119122941Y-47066340D01*
X119122941Y-47066340D02*
X119199131Y-47028245D01*
X119199131Y-47028245D02*
X119237227Y-46990149D01*
X119237227Y-46990149D02*
X119313417Y-46875864D01*
X119313417Y-46875864D02*
X119351512Y-46723483D01*
X119351512Y-46723483D02*
X119351512Y-46418721D01*
X119351512Y-46418721D02*
X119313417Y-46342530D01*
X119313417Y-46342530D02*
X119275322Y-46304435D01*
X119275322Y-46304435D02*
X119199131Y-46266340D01*
X119199131Y-46266340D02*
X119046750Y-46266340D01*
X119046750Y-46266340D02*
X118970560Y-46304435D01*
X118970560Y-46304435D02*
X118932465Y-46342530D01*
X118932465Y-46342530D02*
X118894369Y-46418721D01*
X118894369Y-46418721D02*
X118894369Y-46609197D01*
X118894369Y-46609197D02*
X118932465Y-46685387D01*
X118932465Y-46685387D02*
X118970560Y-46723483D01*
X118970560Y-46723483D02*
X119046750Y-46761578D01*
X119046750Y-46761578D02*
X119199131Y-46761578D01*
X119199131Y-46761578D02*
X119275322Y-46723483D01*
X119275322Y-46723483D02*
X119313417Y-46685387D01*
X119313417Y-46685387D02*
X119351512Y-46609197D01*
X120075322Y-46266340D02*
X119694370Y-46266340D01*
X119694370Y-46266340D02*
X119656274Y-46647292D01*
X119656274Y-46647292D02*
X119694370Y-46609197D01*
X119694370Y-46609197D02*
X119770560Y-46571102D01*
X119770560Y-46571102D02*
X119961036Y-46571102D01*
X119961036Y-46571102D02*
X120037227Y-46609197D01*
X120037227Y-46609197D02*
X120075322Y-46647292D01*
X120075322Y-46647292D02*
X120113417Y-46723483D01*
X120113417Y-46723483D02*
X120113417Y-46913959D01*
X120113417Y-46913959D02*
X120075322Y-46990149D01*
X120075322Y-46990149D02*
X120037227Y-47028245D01*
X120037227Y-47028245D02*
X119961036Y-47066340D01*
X119961036Y-47066340D02*
X119770560Y-47066340D01*
X119770560Y-47066340D02*
X119694370Y-47028245D01*
X119694370Y-47028245D02*
X119656274Y-46990149D01*
X121294370Y-47333006D02*
X121103894Y-47333006D01*
X121103894Y-47333006D02*
X121103894Y-46190149D01*
X121103894Y-46190149D02*
X121294370Y-46190149D01*
X122132465Y-47333006D02*
X122322941Y-47333006D01*
X122322941Y-47333006D02*
X122322941Y-46190149D01*
X122322941Y-46190149D02*
X122132465Y-46190149D01*
X118513417Y-47820961D02*
X118513417Y-48354295D01*
X118322941Y-47516200D02*
X118132464Y-48087628D01*
X118132464Y-48087628D02*
X118627703Y-48087628D01*
X119084846Y-47554295D02*
X119161036Y-47554295D01*
X119161036Y-47554295D02*
X119237227Y-47592390D01*
X119237227Y-47592390D02*
X119275322Y-47630485D01*
X119275322Y-47630485D02*
X119313417Y-47706676D01*
X119313417Y-47706676D02*
X119351512Y-47859057D01*
X119351512Y-47859057D02*
X119351512Y-48049533D01*
X119351512Y-48049533D02*
X119313417Y-48201914D01*
X119313417Y-48201914D02*
X119275322Y-48278104D01*
X119275322Y-48278104D02*
X119237227Y-48316200D01*
X119237227Y-48316200D02*
X119161036Y-48354295D01*
X119161036Y-48354295D02*
X119084846Y-48354295D01*
X119084846Y-48354295D02*
X119008655Y-48316200D01*
X119008655Y-48316200D02*
X118970560Y-48278104D01*
X118970560Y-48278104D02*
X118932465Y-48201914D01*
X118932465Y-48201914D02*
X118894369Y-48049533D01*
X118894369Y-48049533D02*
X118894369Y-47859057D01*
X118894369Y-47859057D02*
X118932465Y-47706676D01*
X118932465Y-47706676D02*
X118970560Y-47630485D01*
X118970560Y-47630485D02*
X119008655Y-47592390D01*
X119008655Y-47592390D02*
X119084846Y-47554295D01*
X120075322Y-47554295D02*
X119694370Y-47554295D01*
X119694370Y-47554295D02*
X119656274Y-47935247D01*
X119656274Y-47935247D02*
X119694370Y-47897152D01*
X119694370Y-47897152D02*
X119770560Y-47859057D01*
X119770560Y-47859057D02*
X119961036Y-47859057D01*
X119961036Y-47859057D02*
X120037227Y-47897152D01*
X120037227Y-47897152D02*
X120075322Y-47935247D01*
X120075322Y-47935247D02*
X120113417Y-48011438D01*
X120113417Y-48011438D02*
X120113417Y-48201914D01*
X120113417Y-48201914D02*
X120075322Y-48278104D01*
X120075322Y-48278104D02*
X120037227Y-48316200D01*
X120037227Y-48316200D02*
X119961036Y-48354295D01*
X119961036Y-48354295D02*
X119770560Y-48354295D01*
X119770560Y-48354295D02*
X119694370Y-48316200D01*
X119694370Y-48316200D02*
X119656274Y-48278104D01*
X121294370Y-48620961D02*
X121103894Y-48620961D01*
X121103894Y-48620961D02*
X121103894Y-47478104D01*
X121103894Y-47478104D02*
X121294370Y-47478104D01*
X122132465Y-48620961D02*
X122322941Y-48620961D01*
X122322941Y-48620961D02*
X122322941Y-47478104D01*
X122322941Y-47478104D02*
X122132465Y-47478104D01*
X105775331Y-62260896D02*
X105584855Y-62260896D01*
X105584855Y-62260896D02*
X105584855Y-61118039D01*
X105584855Y-61118039D02*
X105775331Y-61118039D01*
X106613426Y-62260896D02*
X106803902Y-62260896D01*
X106803902Y-62260896D02*
X106803902Y-61118039D01*
X106803902Y-61118039D02*
X106613426Y-61118039D01*
X107146759Y-61460896D02*
X107299140Y-61994230D01*
X107299140Y-61994230D02*
X107451521Y-61613277D01*
X107451521Y-61613277D02*
X107603902Y-61994230D01*
X107603902Y-61994230D02*
X107756283Y-61460896D01*
X108061045Y-61994230D02*
X108061045Y-61194230D01*
X108403902Y-61994230D02*
X108403902Y-61575182D01*
X108403902Y-61575182D02*
X108365807Y-61498992D01*
X108365807Y-61498992D02*
X108289616Y-61460896D01*
X108289616Y-61460896D02*
X108175330Y-61460896D01*
X108175330Y-61460896D02*
X108099140Y-61498992D01*
X108099140Y-61498992D02*
X108061045Y-61537087D01*
X108784855Y-61994230D02*
X108784855Y-61460896D01*
X108784855Y-61194230D02*
X108746759Y-61232325D01*
X108746759Y-61232325D02*
X108784855Y-61270420D01*
X108784855Y-61270420D02*
X108822950Y-61232325D01*
X108822950Y-61232325D02*
X108784855Y-61194230D01*
X108784855Y-61194230D02*
X108784855Y-61270420D01*
X109051521Y-61460896D02*
X109356283Y-61460896D01*
X109165807Y-61194230D02*
X109165807Y-61879944D01*
X109165807Y-61879944D02*
X109203902Y-61956135D01*
X109203902Y-61956135D02*
X109280092Y-61994230D01*
X109280092Y-61994230D02*
X109356283Y-61994230D01*
X109927712Y-61956135D02*
X109851521Y-61994230D01*
X109851521Y-61994230D02*
X109699140Y-61994230D01*
X109699140Y-61994230D02*
X109622950Y-61956135D01*
X109622950Y-61956135D02*
X109584854Y-61879944D01*
X109584854Y-61879944D02*
X109584854Y-61575182D01*
X109584854Y-61575182D02*
X109622950Y-61498992D01*
X109622950Y-61498992D02*
X109699140Y-61460896D01*
X109699140Y-61460896D02*
X109851521Y-61460896D01*
X109851521Y-61460896D02*
X109927712Y-61498992D01*
X109927712Y-61498992D02*
X109965807Y-61575182D01*
X109965807Y-61575182D02*
X109965807Y-61651373D01*
X109965807Y-61651373D02*
X109584854Y-61727563D01*
X105775331Y-63548851D02*
X105584855Y-63548851D01*
X105584855Y-63548851D02*
X105584855Y-62405994D01*
X105584855Y-62405994D02*
X105775331Y-62405994D01*
X106613426Y-63548851D02*
X106803902Y-63548851D01*
X106803902Y-63548851D02*
X106803902Y-62405994D01*
X106803902Y-62405994D02*
X106613426Y-62405994D01*
X107603902Y-62482185D02*
X107222950Y-62482185D01*
X107222950Y-62482185D02*
X107184854Y-62863137D01*
X107184854Y-62863137D02*
X107222950Y-62825042D01*
X107222950Y-62825042D02*
X107299140Y-62786947D01*
X107299140Y-62786947D02*
X107489616Y-62786947D01*
X107489616Y-62786947D02*
X107565807Y-62825042D01*
X107565807Y-62825042D02*
X107603902Y-62863137D01*
X107603902Y-62863137D02*
X107641997Y-62939328D01*
X107641997Y-62939328D02*
X107641997Y-63129804D01*
X107641997Y-63129804D02*
X107603902Y-63205994D01*
X107603902Y-63205994D02*
X107565807Y-63244090D01*
X107565807Y-63244090D02*
X107489616Y-63282185D01*
X107489616Y-63282185D02*
X107299140Y-63282185D01*
X107299140Y-63282185D02*
X107222950Y-63244090D01*
X107222950Y-63244090D02*
X107184854Y-63205994D01*
X107946759Y-62558375D02*
X107984855Y-62520280D01*
X107984855Y-62520280D02*
X108061045Y-62482185D01*
X108061045Y-62482185D02*
X108251521Y-62482185D01*
X108251521Y-62482185D02*
X108327712Y-62520280D01*
X108327712Y-62520280D02*
X108365807Y-62558375D01*
X108365807Y-62558375D02*
X108403902Y-62634566D01*
X108403902Y-62634566D02*
X108403902Y-62710756D01*
X108403902Y-62710756D02*
X108365807Y-62825042D01*
X108365807Y-62825042D02*
X107908664Y-63282185D01*
X107908664Y-63282185D02*
X108403902Y-63282185D01*
X108899141Y-62482185D02*
X108975331Y-62482185D01*
X108975331Y-62482185D02*
X109051522Y-62520280D01*
X109051522Y-62520280D02*
X109089617Y-62558375D01*
X109089617Y-62558375D02*
X109127712Y-62634566D01*
X109127712Y-62634566D02*
X109165807Y-62786947D01*
X109165807Y-62786947D02*
X109165807Y-62977423D01*
X109165807Y-62977423D02*
X109127712Y-63129804D01*
X109127712Y-63129804D02*
X109089617Y-63205994D01*
X109089617Y-63205994D02*
X109051522Y-63244090D01*
X109051522Y-63244090D02*
X108975331Y-63282185D01*
X108975331Y-63282185D02*
X108899141Y-63282185D01*
X108899141Y-63282185D02*
X108822950Y-63244090D01*
X108822950Y-63244090D02*
X108784855Y-63205994D01*
X108784855Y-63205994D02*
X108746760Y-63129804D01*
X108746760Y-63129804D02*
X108708664Y-62977423D01*
X108708664Y-62977423D02*
X108708664Y-62786947D01*
X108708664Y-62786947D02*
X108746760Y-62634566D01*
X108746760Y-62634566D02*
X108784855Y-62558375D01*
X108784855Y-62558375D02*
X108822950Y-62520280D01*
X108822950Y-62520280D02*
X108899141Y-62482185D01*
X105775331Y-64836806D02*
X105584855Y-64836806D01*
X105584855Y-64836806D02*
X105584855Y-63693949D01*
X105584855Y-63693949D02*
X105775331Y-63693949D01*
X106613426Y-64836806D02*
X106803902Y-64836806D01*
X106803902Y-64836806D02*
X106803902Y-63693949D01*
X106803902Y-63693949D02*
X106613426Y-63693949D01*
X107565807Y-64036806D02*
X107565807Y-64570140D01*
X107375331Y-63732045D02*
X107184854Y-64303473D01*
X107184854Y-64303473D02*
X107680093Y-64303473D01*
X108365807Y-63770140D02*
X107984855Y-63770140D01*
X107984855Y-63770140D02*
X107946759Y-64151092D01*
X107946759Y-64151092D02*
X107984855Y-64112997D01*
X107984855Y-64112997D02*
X108061045Y-64074902D01*
X108061045Y-64074902D02*
X108251521Y-64074902D01*
X108251521Y-64074902D02*
X108327712Y-64112997D01*
X108327712Y-64112997D02*
X108365807Y-64151092D01*
X108365807Y-64151092D02*
X108403902Y-64227283D01*
X108403902Y-64227283D02*
X108403902Y-64417759D01*
X108403902Y-64417759D02*
X108365807Y-64493949D01*
X108365807Y-64493949D02*
X108327712Y-64532045D01*
X108327712Y-64532045D02*
X108251521Y-64570140D01*
X108251521Y-64570140D02*
X108061045Y-64570140D01*
X108061045Y-64570140D02*
X107984855Y-64532045D01*
X107984855Y-64532045D02*
X107946759Y-64493949D01*
X108899141Y-63770140D02*
X108975331Y-63770140D01*
X108975331Y-63770140D02*
X109051522Y-63808235D01*
X109051522Y-63808235D02*
X109089617Y-63846330D01*
X109089617Y-63846330D02*
X109127712Y-63922521D01*
X109127712Y-63922521D02*
X109165807Y-64074902D01*
X109165807Y-64074902D02*
X109165807Y-64265378D01*
X109165807Y-64265378D02*
X109127712Y-64417759D01*
X109127712Y-64417759D02*
X109089617Y-64493949D01*
X109089617Y-64493949D02*
X109051522Y-64532045D01*
X109051522Y-64532045D02*
X108975331Y-64570140D01*
X108975331Y-64570140D02*
X108899141Y-64570140D01*
X108899141Y-64570140D02*
X108822950Y-64532045D01*
X108822950Y-64532045D02*
X108784855Y-64493949D01*
X108784855Y-64493949D02*
X108746760Y-64417759D01*
X108746760Y-64417759D02*
X108708664Y-64265378D01*
X108708664Y-64265378D02*
X108708664Y-64074902D01*
X108708664Y-64074902D02*
X108746760Y-63922521D01*
X108746760Y-63922521D02*
X108784855Y-63846330D01*
X108784855Y-63846330D02*
X108822950Y-63808235D01*
X108822950Y-63808235D02*
X108899141Y-63770140D01*
X105775331Y-66124761D02*
X105584855Y-66124761D01*
X105584855Y-66124761D02*
X105584855Y-64981904D01*
X105584855Y-64981904D02*
X105775331Y-64981904D01*
X106613426Y-66124761D02*
X106803902Y-66124761D01*
X106803902Y-66124761D02*
X106803902Y-64981904D01*
X106803902Y-64981904D02*
X106613426Y-64981904D01*
X107032474Y-65934285D02*
X107641997Y-65934285D01*
X107641998Y-65934285D02*
X108251521Y-65934285D01*
X108251522Y-65934285D02*
X108861045Y-65934285D01*
X117027438Y-98834411D02*
X116979819Y-98929649D01*
X116979819Y-98929649D02*
X116979819Y-99072506D01*
X116979819Y-99072506D02*
X117027438Y-99215363D01*
X117027438Y-99215363D02*
X117122676Y-99310601D01*
X117122676Y-99310601D02*
X117217914Y-99358220D01*
X117217914Y-99358220D02*
X117408390Y-99405839D01*
X117408390Y-99405839D02*
X117551247Y-99405839D01*
X117551247Y-99405839D02*
X117741723Y-99358220D01*
X117741723Y-99358220D02*
X117836961Y-99310601D01*
X117836961Y-99310601D02*
X117932200Y-99215363D01*
X117932200Y-99215363D02*
X117979819Y-99072506D01*
X117979819Y-99072506D02*
X117979819Y-98977268D01*
X117979819Y-98977268D02*
X117932200Y-98834411D01*
X117932200Y-98834411D02*
X117884580Y-98786792D01*
X117884580Y-98786792D02*
X117551247Y-98786792D01*
X117551247Y-98786792D02*
X117551247Y-98977268D01*
X117979819Y-98358220D02*
X116979819Y-98358220D01*
X116979819Y-98358220D02*
X117979819Y-97786792D01*
X117979819Y-97786792D02*
X116979819Y-97786792D01*
X117979819Y-97310601D02*
X116979819Y-97310601D01*
X116979819Y-97310601D02*
X116979819Y-97072506D01*
X116979819Y-97072506D02*
X117027438Y-96929649D01*
X117027438Y-96929649D02*
X117122676Y-96834411D01*
X117122676Y-96834411D02*
X117217914Y-96786792D01*
X117217914Y-96786792D02*
X117408390Y-96739173D01*
X117408390Y-96739173D02*
X117551247Y-96739173D01*
X117551247Y-96739173D02*
X117741723Y-96786792D01*
X117741723Y-96786792D02*
X117836961Y-96834411D01*
X117836961Y-96834411D02*
X117932200Y-96929649D01*
X117932200Y-96929649D02*
X117979819Y-97072506D01*
X117979819Y-97072506D02*
X117979819Y-97310601D01*
D11*
X123616428Y-50845546D02*
X124616428Y-50559832D01*
X124616428Y-50559832D02*
X123902142Y-50274117D01*
X123902142Y-50274117D02*
X124616428Y-49988403D01*
X124616428Y-49988403D02*
X123616428Y-49702689D01*
X123616428Y-49274117D02*
X124616428Y-48988403D01*
X124616428Y-48988403D02*
X123902142Y-48702688D01*
X123902142Y-48702688D02*
X124616428Y-48416974D01*
X124616428Y-48416974D02*
X123616428Y-48131260D01*
X123616428Y-47702688D02*
X124616428Y-47416974D01*
X124616428Y-47416974D02*
X123902142Y-47131259D01*
X123902142Y-47131259D02*
X124616428Y-46845545D01*
X124616428Y-46845545D02*
X123616428Y-46559831D01*
X124473571Y-45988402D02*
X124545000Y-45916973D01*
X124545000Y-45916973D02*
X124616428Y-45988402D01*
X124616428Y-45988402D02*
X124545000Y-46059830D01*
X124545000Y-46059830D02*
X124473571Y-45988402D01*
X124473571Y-45988402D02*
X124616428Y-45988402D01*
X124616428Y-45059830D02*
X124545000Y-45202687D01*
X124545000Y-45202687D02*
X124402142Y-45274116D01*
X124402142Y-45274116D02*
X123116428Y-45274116D01*
X124616428Y-43845545D02*
X123830714Y-43845545D01*
X123830714Y-43845545D02*
X123687857Y-43916973D01*
X123687857Y-43916973D02*
X123616428Y-44059830D01*
X123616428Y-44059830D02*
X123616428Y-44345545D01*
X123616428Y-44345545D02*
X123687857Y-44488402D01*
X124545000Y-43845545D02*
X124616428Y-43988402D01*
X124616428Y-43988402D02*
X124616428Y-44345545D01*
X124616428Y-44345545D02*
X124545000Y-44488402D01*
X124545000Y-44488402D02*
X124402142Y-44559830D01*
X124402142Y-44559830D02*
X124259285Y-44559830D01*
X124259285Y-44559830D02*
X124116428Y-44488402D01*
X124116428Y-44488402D02*
X124045000Y-44345545D01*
X124045000Y-44345545D02*
X124045000Y-43988402D01*
X124045000Y-43988402D02*
X123973571Y-43845545D01*
X124616428Y-43131259D02*
X123116428Y-43131259D01*
X123687857Y-43131259D02*
X123616428Y-42988402D01*
X123616428Y-42988402D02*
X123616428Y-42702687D01*
X123616428Y-42702687D02*
X123687857Y-42559830D01*
X123687857Y-42559830D02*
X123759285Y-42488402D01*
X123759285Y-42488402D02*
X123902142Y-42416973D01*
X123902142Y-42416973D02*
X124330714Y-42416973D01*
X124330714Y-42416973D02*
X124473571Y-42488402D01*
X124473571Y-42488402D02*
X124545000Y-42559830D01*
X124545000Y-42559830D02*
X124616428Y-42702687D01*
X124616428Y-42702687D02*
X124616428Y-42988402D01*
X124616428Y-42988402D02*
X124545000Y-43131259D01*
X124616428Y-41559830D02*
X124545000Y-41702687D01*
X124545000Y-41702687D02*
X124402142Y-41774116D01*
X124402142Y-41774116D02*
X123116428Y-41774116D01*
X124616428Y-40345545D02*
X123830714Y-40345545D01*
X123830714Y-40345545D02*
X123687857Y-40416973D01*
X123687857Y-40416973D02*
X123616428Y-40559830D01*
X123616428Y-40559830D02*
X123616428Y-40845545D01*
X123616428Y-40845545D02*
X123687857Y-40988402D01*
X124545000Y-40345545D02*
X124616428Y-40488402D01*
X124616428Y-40488402D02*
X124616428Y-40845545D01*
X124616428Y-40845545D02*
X124545000Y-40988402D01*
X124545000Y-40988402D02*
X124402142Y-41059830D01*
X124402142Y-41059830D02*
X124259285Y-41059830D01*
X124259285Y-41059830D02*
X124116428Y-40988402D01*
X124116428Y-40988402D02*
X124045000Y-40845545D01*
X124045000Y-40845545D02*
X124045000Y-40488402D01*
X124045000Y-40488402D02*
X123973571Y-40345545D01*
X124616428Y-39631259D02*
X123116428Y-39631259D01*
X123687857Y-39631259D02*
X123616428Y-39488402D01*
X123616428Y-39488402D02*
X123616428Y-39202687D01*
X123616428Y-39202687D02*
X123687857Y-39059830D01*
X123687857Y-39059830D02*
X123759285Y-38988402D01*
X123759285Y-38988402D02*
X123902142Y-38916973D01*
X123902142Y-38916973D02*
X124330714Y-38916973D01*
X124330714Y-38916973D02*
X124473571Y-38988402D01*
X124473571Y-38988402D02*
X124545000Y-39059830D01*
X124545000Y-39059830D02*
X124616428Y-39202687D01*
X124616428Y-39202687D02*
X124616428Y-39488402D01*
X124616428Y-39488402D02*
X124545000Y-39631259D01*
X124473571Y-38274116D02*
X124545000Y-38202687D01*
X124545000Y-38202687D02*
X124616428Y-38274116D01*
X124616428Y-38274116D02*
X124545000Y-38345544D01*
X124545000Y-38345544D02*
X124473571Y-38274116D01*
X124473571Y-38274116D02*
X124616428Y-38274116D01*
X124545000Y-36988401D02*
X124616428Y-37131258D01*
X124616428Y-37131258D02*
X124616428Y-37416973D01*
X124616428Y-37416973D02*
X124545000Y-37559830D01*
X124545000Y-37559830D02*
X124402142Y-37631258D01*
X124402142Y-37631258D02*
X123830714Y-37631258D01*
X123830714Y-37631258D02*
X123687857Y-37559830D01*
X123687857Y-37559830D02*
X123616428Y-37416973D01*
X123616428Y-37416973D02*
X123616428Y-37131258D01*
X123616428Y-37131258D02*
X123687857Y-36988401D01*
X123687857Y-36988401D02*
X123830714Y-36916973D01*
X123830714Y-36916973D02*
X123973571Y-36916973D01*
X123973571Y-36916973D02*
X124116428Y-37631258D01*
X123616428Y-35631259D02*
X124616428Y-35631259D01*
X123616428Y-36274116D02*
X124402142Y-36274116D01*
X124402142Y-36274116D02*
X124545000Y-36202687D01*
X124545000Y-36202687D02*
X124616428Y-36059830D01*
X124616428Y-36059830D02*
X124616428Y-35845544D01*
X124616428Y-35845544D02*
X124545000Y-35702687D01*
X124545000Y-35702687D02*
X124473571Y-35631259D01*
X124794228Y-67873089D02*
X123294228Y-67873089D01*
X123294228Y-67873089D02*
X124365657Y-67373089D01*
X124365657Y-67373089D02*
X123294228Y-66873089D01*
X123294228Y-66873089D02*
X124794228Y-66873089D01*
X124794228Y-65944517D02*
X124722800Y-66087374D01*
X124722800Y-66087374D02*
X124651371Y-66158803D01*
X124651371Y-66158803D02*
X124508514Y-66230231D01*
X124508514Y-66230231D02*
X124079942Y-66230231D01*
X124079942Y-66230231D02*
X123937085Y-66158803D01*
X123937085Y-66158803D02*
X123865657Y-66087374D01*
X123865657Y-66087374D02*
X123794228Y-65944517D01*
X123794228Y-65944517D02*
X123794228Y-65730231D01*
X123794228Y-65730231D02*
X123865657Y-65587374D01*
X123865657Y-65587374D02*
X123937085Y-65515946D01*
X123937085Y-65515946D02*
X124079942Y-65444517D01*
X124079942Y-65444517D02*
X124508514Y-65444517D01*
X124508514Y-65444517D02*
X124651371Y-65515946D01*
X124651371Y-65515946D02*
X124722800Y-65587374D01*
X124722800Y-65587374D02*
X124794228Y-65730231D01*
X124794228Y-65730231D02*
X124794228Y-65944517D01*
X123794228Y-65015945D02*
X123794228Y-64444517D01*
X123294228Y-64801660D02*
X124579942Y-64801660D01*
X124579942Y-64801660D02*
X124722800Y-64730231D01*
X124722800Y-64730231D02*
X124794228Y-64587374D01*
X124794228Y-64587374D02*
X124794228Y-64444517D01*
X124794228Y-63944517D02*
X123294228Y-63944517D01*
X124794228Y-63301660D02*
X124008514Y-63301660D01*
X124008514Y-63301660D02*
X123865657Y-63373088D01*
X123865657Y-63373088D02*
X123794228Y-63515945D01*
X123794228Y-63515945D02*
X123794228Y-63730231D01*
X123794228Y-63730231D02*
X123865657Y-63873088D01*
X123865657Y-63873088D02*
X123937085Y-63944517D01*
X124008514Y-62087374D02*
X124079942Y-61873088D01*
X124079942Y-61873088D02*
X124151371Y-61801659D01*
X124151371Y-61801659D02*
X124294228Y-61730231D01*
X124294228Y-61730231D02*
X124508514Y-61730231D01*
X124508514Y-61730231D02*
X124651371Y-61801659D01*
X124651371Y-61801659D02*
X124722800Y-61873088D01*
X124722800Y-61873088D02*
X124794228Y-62015945D01*
X124794228Y-62015945D02*
X124794228Y-62587374D01*
X124794228Y-62587374D02*
X123294228Y-62587374D01*
X123294228Y-62587374D02*
X123294228Y-62087374D01*
X123294228Y-62087374D02*
X123365657Y-61944517D01*
X123365657Y-61944517D02*
X123437085Y-61873088D01*
X123437085Y-61873088D02*
X123579942Y-61801659D01*
X123579942Y-61801659D02*
X123722800Y-61801659D01*
X123722800Y-61801659D02*
X123865657Y-61873088D01*
X123865657Y-61873088D02*
X123937085Y-61944517D01*
X123937085Y-61944517D02*
X124008514Y-62087374D01*
X124008514Y-62087374D02*
X124008514Y-62587374D01*
X124722800Y-60515945D02*
X124794228Y-60658802D01*
X124794228Y-60658802D02*
X124794228Y-60944517D01*
X124794228Y-60944517D02*
X124722800Y-61087374D01*
X124722800Y-61087374D02*
X124579942Y-61158802D01*
X124579942Y-61158802D02*
X124008514Y-61158802D01*
X124008514Y-61158802D02*
X123865657Y-61087374D01*
X123865657Y-61087374D02*
X123794228Y-60944517D01*
X123794228Y-60944517D02*
X123794228Y-60658802D01*
X123794228Y-60658802D02*
X123865657Y-60515945D01*
X123865657Y-60515945D02*
X124008514Y-60444517D01*
X124008514Y-60444517D02*
X124151371Y-60444517D01*
X124151371Y-60444517D02*
X124294228Y-61158802D01*
X124794228Y-59158803D02*
X124008514Y-59158803D01*
X124008514Y-59158803D02*
X123865657Y-59230231D01*
X123865657Y-59230231D02*
X123794228Y-59373088D01*
X123794228Y-59373088D02*
X123794228Y-59658803D01*
X123794228Y-59658803D02*
X123865657Y-59801660D01*
X124722800Y-59158803D02*
X124794228Y-59301660D01*
X124794228Y-59301660D02*
X124794228Y-59658803D01*
X124794228Y-59658803D02*
X124722800Y-59801660D01*
X124722800Y-59801660D02*
X124579942Y-59873088D01*
X124579942Y-59873088D02*
X124437085Y-59873088D01*
X124437085Y-59873088D02*
X124294228Y-59801660D01*
X124294228Y-59801660D02*
X124222800Y-59658803D01*
X124222800Y-59658803D02*
X124222800Y-59301660D01*
X124222800Y-59301660D02*
X124151371Y-59158803D01*
X124794228Y-58444517D02*
X123794228Y-58444517D01*
X123937085Y-58444517D02*
X123865657Y-58373088D01*
X123865657Y-58373088D02*
X123794228Y-58230231D01*
X123794228Y-58230231D02*
X123794228Y-58015945D01*
X123794228Y-58015945D02*
X123865657Y-57873088D01*
X123865657Y-57873088D02*
X124008514Y-57801660D01*
X124008514Y-57801660D02*
X124794228Y-57801660D01*
X124008514Y-57801660D02*
X123865657Y-57730231D01*
X123865657Y-57730231D02*
X123794228Y-57587374D01*
X123794228Y-57587374D02*
X123794228Y-57373088D01*
X123794228Y-57373088D02*
X123865657Y-57230231D01*
X123865657Y-57230231D02*
X124008514Y-57158802D01*
X124008514Y-57158802D02*
X124794228Y-57158802D01*
D12*
X124759019Y-55421498D02*
X124282828Y-55754831D01*
X124759019Y-55992926D02*
X123759019Y-55992926D01*
X123759019Y-55992926D02*
X123759019Y-55611974D01*
X123759019Y-55611974D02*
X123806638Y-55516736D01*
X123806638Y-55516736D02*
X123854257Y-55469117D01*
X123854257Y-55469117D02*
X123949495Y-55421498D01*
X123949495Y-55421498D02*
X124092352Y-55421498D01*
X124092352Y-55421498D02*
X124187590Y-55469117D01*
X124187590Y-55469117D02*
X124235209Y-55516736D01*
X124235209Y-55516736D02*
X124282828Y-55611974D01*
X124282828Y-55611974D02*
X124282828Y-55992926D01*
X124235209Y-54992926D02*
X124235209Y-54659593D01*
X124759019Y-54516736D02*
X124759019Y-54992926D01*
X124759019Y-54992926D02*
X123759019Y-54992926D01*
X123759019Y-54992926D02*
X123759019Y-54516736D01*
X123759019Y-54231021D02*
X124759019Y-53897688D01*
X124759019Y-53897688D02*
X123759019Y-53564355D01*
X124473304Y-52516735D02*
X124473304Y-52040545D01*
X124759019Y-52611973D02*
X123759019Y-52278640D01*
X123759019Y-52278640D02*
X124759019Y-51945307D01*
D10*
X118145169Y-53498030D02*
X118640407Y-53498030D01*
X118640407Y-53498030D02*
X118373741Y-53802792D01*
X118373741Y-53802792D02*
X118488026Y-53802792D01*
X118488026Y-53802792D02*
X118564217Y-53840887D01*
X118564217Y-53840887D02*
X118602312Y-53878982D01*
X118602312Y-53878982D02*
X118640407Y-53955173D01*
X118640407Y-53955173D02*
X118640407Y-54145649D01*
X118640407Y-54145649D02*
X118602312Y-54221839D01*
X118602312Y-54221839D02*
X118564217Y-54259935D01*
X118564217Y-54259935D02*
X118488026Y-54298030D01*
X118488026Y-54298030D02*
X118259455Y-54298030D01*
X118259455Y-54298030D02*
X118183264Y-54259935D01*
X118183264Y-54259935D02*
X118145169Y-54221839D01*
X119326122Y-53498030D02*
X119173741Y-53498030D01*
X119173741Y-53498030D02*
X119097550Y-53536125D01*
X119097550Y-53536125D02*
X119059455Y-53574220D01*
X119059455Y-53574220D02*
X118983265Y-53688506D01*
X118983265Y-53688506D02*
X118945169Y-53840887D01*
X118945169Y-53840887D02*
X118945169Y-54145649D01*
X118945169Y-54145649D02*
X118983265Y-54221839D01*
X118983265Y-54221839D02*
X119021360Y-54259935D01*
X119021360Y-54259935D02*
X119097550Y-54298030D01*
X119097550Y-54298030D02*
X119249931Y-54298030D01*
X119249931Y-54298030D02*
X119326122Y-54259935D01*
X119326122Y-54259935D02*
X119364217Y-54221839D01*
X119364217Y-54221839D02*
X119402312Y-54145649D01*
X119402312Y-54145649D02*
X119402312Y-53955173D01*
X119402312Y-53955173D02*
X119364217Y-53878982D01*
X119364217Y-53878982D02*
X119326122Y-53840887D01*
X119326122Y-53840887D02*
X119249931Y-53802792D01*
X119249931Y-53802792D02*
X119097550Y-53802792D01*
X119097550Y-53802792D02*
X119021360Y-53840887D01*
X119021360Y-53840887D02*
X118983265Y-53878982D01*
X118983265Y-53878982D02*
X118945169Y-53955173D01*
X120126122Y-53498030D02*
X119745170Y-53498030D01*
X119745170Y-53498030D02*
X119707074Y-53878982D01*
X119707074Y-53878982D02*
X119745170Y-53840887D01*
X119745170Y-53840887D02*
X119821360Y-53802792D01*
X119821360Y-53802792D02*
X120011836Y-53802792D01*
X120011836Y-53802792D02*
X120088027Y-53840887D01*
X120088027Y-53840887D02*
X120126122Y-53878982D01*
X120126122Y-53878982D02*
X120164217Y-53955173D01*
X120164217Y-53955173D02*
X120164217Y-54145649D01*
X120164217Y-54145649D02*
X120126122Y-54221839D01*
X120126122Y-54221839D02*
X120088027Y-54259935D01*
X120088027Y-54259935D02*
X120011836Y-54298030D01*
X120011836Y-54298030D02*
X119821360Y-54298030D01*
X119821360Y-54298030D02*
X119745170Y-54259935D01*
X119745170Y-54259935D02*
X119707074Y-54221839D01*
X121345170Y-54564696D02*
X121154694Y-54564696D01*
X121154694Y-54564696D02*
X121154694Y-53421839D01*
X121154694Y-53421839D02*
X121345170Y-53421839D01*
X122183265Y-54564696D02*
X122373741Y-54564696D01*
X122373741Y-54564696D02*
X122373741Y-53421839D01*
X122373741Y-53421839D02*
X122183265Y-53421839D01*
X118145169Y-54785985D02*
X118640407Y-54785985D01*
X118640407Y-54785985D02*
X118373741Y-55090747D01*
X118373741Y-55090747D02*
X118488026Y-55090747D01*
X118488026Y-55090747D02*
X118564217Y-55128842D01*
X118564217Y-55128842D02*
X118602312Y-55166937D01*
X118602312Y-55166937D02*
X118640407Y-55243128D01*
X118640407Y-55243128D02*
X118640407Y-55433604D01*
X118640407Y-55433604D02*
X118602312Y-55509794D01*
X118602312Y-55509794D02*
X118564217Y-55547890D01*
X118564217Y-55547890D02*
X118488026Y-55585985D01*
X118488026Y-55585985D02*
X118259455Y-55585985D01*
X118259455Y-55585985D02*
X118183264Y-55547890D01*
X118183264Y-55547890D02*
X118145169Y-55509794D01*
X119326122Y-54785985D02*
X119173741Y-54785985D01*
X119173741Y-54785985D02*
X119097550Y-54824080D01*
X119097550Y-54824080D02*
X119059455Y-54862175D01*
X119059455Y-54862175D02*
X118983265Y-54976461D01*
X118983265Y-54976461D02*
X118945169Y-55128842D01*
X118945169Y-55128842D02*
X118945169Y-55433604D01*
X118945169Y-55433604D02*
X118983265Y-55509794D01*
X118983265Y-55509794D02*
X119021360Y-55547890D01*
X119021360Y-55547890D02*
X119097550Y-55585985D01*
X119097550Y-55585985D02*
X119249931Y-55585985D01*
X119249931Y-55585985D02*
X119326122Y-55547890D01*
X119326122Y-55547890D02*
X119364217Y-55509794D01*
X119364217Y-55509794D02*
X119402312Y-55433604D01*
X119402312Y-55433604D02*
X119402312Y-55243128D01*
X119402312Y-55243128D02*
X119364217Y-55166937D01*
X119364217Y-55166937D02*
X119326122Y-55128842D01*
X119326122Y-55128842D02*
X119249931Y-55090747D01*
X119249931Y-55090747D02*
X119097550Y-55090747D01*
X119097550Y-55090747D02*
X119021360Y-55128842D01*
X119021360Y-55128842D02*
X118983265Y-55166937D01*
X118983265Y-55166937D02*
X118945169Y-55243128D01*
X119859455Y-55128842D02*
X119783265Y-55090747D01*
X119783265Y-55090747D02*
X119745170Y-55052651D01*
X119745170Y-55052651D02*
X119707074Y-54976461D01*
X119707074Y-54976461D02*
X119707074Y-54938366D01*
X119707074Y-54938366D02*
X119745170Y-54862175D01*
X119745170Y-54862175D02*
X119783265Y-54824080D01*
X119783265Y-54824080D02*
X119859455Y-54785985D01*
X119859455Y-54785985D02*
X120011836Y-54785985D01*
X120011836Y-54785985D02*
X120088027Y-54824080D01*
X120088027Y-54824080D02*
X120126122Y-54862175D01*
X120126122Y-54862175D02*
X120164217Y-54938366D01*
X120164217Y-54938366D02*
X120164217Y-54976461D01*
X120164217Y-54976461D02*
X120126122Y-55052651D01*
X120126122Y-55052651D02*
X120088027Y-55090747D01*
X120088027Y-55090747D02*
X120011836Y-55128842D01*
X120011836Y-55128842D02*
X119859455Y-55128842D01*
X119859455Y-55128842D02*
X119783265Y-55166937D01*
X119783265Y-55166937D02*
X119745170Y-55205032D01*
X119745170Y-55205032D02*
X119707074Y-55281223D01*
X119707074Y-55281223D02*
X119707074Y-55433604D01*
X119707074Y-55433604D02*
X119745170Y-55509794D01*
X119745170Y-55509794D02*
X119783265Y-55547890D01*
X119783265Y-55547890D02*
X119859455Y-55585985D01*
X119859455Y-55585985D02*
X120011836Y-55585985D01*
X120011836Y-55585985D02*
X120088027Y-55547890D01*
X120088027Y-55547890D02*
X120126122Y-55509794D01*
X120126122Y-55509794D02*
X120164217Y-55433604D01*
X120164217Y-55433604D02*
X120164217Y-55281223D01*
X120164217Y-55281223D02*
X120126122Y-55205032D01*
X120126122Y-55205032D02*
X120088027Y-55166937D01*
X120088027Y-55166937D02*
X120011836Y-55128842D01*
X121345170Y-55852651D02*
X121154694Y-55852651D01*
X121154694Y-55852651D02*
X121154694Y-54709794D01*
X121154694Y-54709794D02*
X121345170Y-54709794D01*
X122183265Y-55852651D02*
X122373741Y-55852651D01*
X122373741Y-55852651D02*
X122373741Y-54709794D01*
X122373741Y-54709794D02*
X122183265Y-54709794D01*
X118145169Y-56073940D02*
X118640407Y-56073940D01*
X118640407Y-56073940D02*
X118373741Y-56378702D01*
X118373741Y-56378702D02*
X118488026Y-56378702D01*
X118488026Y-56378702D02*
X118564217Y-56416797D01*
X118564217Y-56416797D02*
X118602312Y-56454892D01*
X118602312Y-56454892D02*
X118640407Y-56531083D01*
X118640407Y-56531083D02*
X118640407Y-56721559D01*
X118640407Y-56721559D02*
X118602312Y-56797749D01*
X118602312Y-56797749D02*
X118564217Y-56835845D01*
X118564217Y-56835845D02*
X118488026Y-56873940D01*
X118488026Y-56873940D02*
X118259455Y-56873940D01*
X118259455Y-56873940D02*
X118183264Y-56835845D01*
X118183264Y-56835845D02*
X118145169Y-56797749D01*
X119021360Y-56873940D02*
X119173741Y-56873940D01*
X119173741Y-56873940D02*
X119249931Y-56835845D01*
X119249931Y-56835845D02*
X119288027Y-56797749D01*
X119288027Y-56797749D02*
X119364217Y-56683464D01*
X119364217Y-56683464D02*
X119402312Y-56531083D01*
X119402312Y-56531083D02*
X119402312Y-56226321D01*
X119402312Y-56226321D02*
X119364217Y-56150130D01*
X119364217Y-56150130D02*
X119326122Y-56112035D01*
X119326122Y-56112035D02*
X119249931Y-56073940D01*
X119249931Y-56073940D02*
X119097550Y-56073940D01*
X119097550Y-56073940D02*
X119021360Y-56112035D01*
X119021360Y-56112035D02*
X118983265Y-56150130D01*
X118983265Y-56150130D02*
X118945169Y-56226321D01*
X118945169Y-56226321D02*
X118945169Y-56416797D01*
X118945169Y-56416797D02*
X118983265Y-56492987D01*
X118983265Y-56492987D02*
X119021360Y-56531083D01*
X119021360Y-56531083D02*
X119097550Y-56569178D01*
X119097550Y-56569178D02*
X119249931Y-56569178D01*
X119249931Y-56569178D02*
X119326122Y-56531083D01*
X119326122Y-56531083D02*
X119364217Y-56492987D01*
X119364217Y-56492987D02*
X119402312Y-56416797D01*
X120126122Y-56073940D02*
X119745170Y-56073940D01*
X119745170Y-56073940D02*
X119707074Y-56454892D01*
X119707074Y-56454892D02*
X119745170Y-56416797D01*
X119745170Y-56416797D02*
X119821360Y-56378702D01*
X119821360Y-56378702D02*
X120011836Y-56378702D01*
X120011836Y-56378702D02*
X120088027Y-56416797D01*
X120088027Y-56416797D02*
X120126122Y-56454892D01*
X120126122Y-56454892D02*
X120164217Y-56531083D01*
X120164217Y-56531083D02*
X120164217Y-56721559D01*
X120164217Y-56721559D02*
X120126122Y-56797749D01*
X120126122Y-56797749D02*
X120088027Y-56835845D01*
X120088027Y-56835845D02*
X120011836Y-56873940D01*
X120011836Y-56873940D02*
X119821360Y-56873940D01*
X119821360Y-56873940D02*
X119745170Y-56835845D01*
X119745170Y-56835845D02*
X119707074Y-56797749D01*
X121345170Y-57140606D02*
X121154694Y-57140606D01*
X121154694Y-57140606D02*
X121154694Y-55997749D01*
X121154694Y-55997749D02*
X121345170Y-55997749D01*
X122183265Y-57140606D02*
X122373741Y-57140606D01*
X122373741Y-57140606D02*
X122373741Y-55997749D01*
X122373741Y-55997749D02*
X122183265Y-55997749D01*
X118564217Y-57628561D02*
X118564217Y-58161895D01*
X118373741Y-57323800D02*
X118183264Y-57895228D01*
X118183264Y-57895228D02*
X118678503Y-57895228D01*
X119135646Y-57361895D02*
X119211836Y-57361895D01*
X119211836Y-57361895D02*
X119288027Y-57399990D01*
X119288027Y-57399990D02*
X119326122Y-57438085D01*
X119326122Y-57438085D02*
X119364217Y-57514276D01*
X119364217Y-57514276D02*
X119402312Y-57666657D01*
X119402312Y-57666657D02*
X119402312Y-57857133D01*
X119402312Y-57857133D02*
X119364217Y-58009514D01*
X119364217Y-58009514D02*
X119326122Y-58085704D01*
X119326122Y-58085704D02*
X119288027Y-58123800D01*
X119288027Y-58123800D02*
X119211836Y-58161895D01*
X119211836Y-58161895D02*
X119135646Y-58161895D01*
X119135646Y-58161895D02*
X119059455Y-58123800D01*
X119059455Y-58123800D02*
X119021360Y-58085704D01*
X119021360Y-58085704D02*
X118983265Y-58009514D01*
X118983265Y-58009514D02*
X118945169Y-57857133D01*
X118945169Y-57857133D02*
X118945169Y-57666657D01*
X118945169Y-57666657D02*
X118983265Y-57514276D01*
X118983265Y-57514276D02*
X119021360Y-57438085D01*
X119021360Y-57438085D02*
X119059455Y-57399990D01*
X119059455Y-57399990D02*
X119135646Y-57361895D01*
X120126122Y-57361895D02*
X119745170Y-57361895D01*
X119745170Y-57361895D02*
X119707074Y-57742847D01*
X119707074Y-57742847D02*
X119745170Y-57704752D01*
X119745170Y-57704752D02*
X119821360Y-57666657D01*
X119821360Y-57666657D02*
X120011836Y-57666657D01*
X120011836Y-57666657D02*
X120088027Y-57704752D01*
X120088027Y-57704752D02*
X120126122Y-57742847D01*
X120126122Y-57742847D02*
X120164217Y-57819038D01*
X120164217Y-57819038D02*
X120164217Y-58009514D01*
X120164217Y-58009514D02*
X120126122Y-58085704D01*
X120126122Y-58085704D02*
X120088027Y-58123800D01*
X120088027Y-58123800D02*
X120011836Y-58161895D01*
X120011836Y-58161895D02*
X119821360Y-58161895D01*
X119821360Y-58161895D02*
X119745170Y-58123800D01*
X119745170Y-58123800D02*
X119707074Y-58085704D01*
X121345170Y-58428561D02*
X121154694Y-58428561D01*
X121154694Y-58428561D02*
X121154694Y-57285704D01*
X121154694Y-57285704D02*
X121345170Y-57285704D01*
X122183265Y-58428561D02*
X122373741Y-58428561D01*
X122373741Y-58428561D02*
X122373741Y-57285704D01*
X122373741Y-57285704D02*
X122183265Y-57285704D01*
D13*
X123618666Y-71872819D02*
X123618666Y-72587104D01*
X123618666Y-72587104D02*
X123571047Y-72729961D01*
X123571047Y-72729961D02*
X123475809Y-72825200D01*
X123475809Y-72825200D02*
X123332952Y-72872819D01*
X123332952Y-72872819D02*
X123237714Y-72872819D01*
X124523428Y-71872819D02*
X124332952Y-71872819D01*
X124332952Y-71872819D02*
X124237714Y-71920438D01*
X124237714Y-71920438D02*
X124190095Y-71968057D01*
X124190095Y-71968057D02*
X124094857Y-72110914D01*
X124094857Y-72110914D02*
X124047238Y-72301390D01*
X124047238Y-72301390D02*
X124047238Y-72682342D01*
X124047238Y-72682342D02*
X124094857Y-72777580D01*
X124094857Y-72777580D02*
X124142476Y-72825200D01*
X124142476Y-72825200D02*
X124237714Y-72872819D01*
X124237714Y-72872819D02*
X124428190Y-72872819D01*
X124428190Y-72872819D02*
X124523428Y-72825200D01*
X124523428Y-72825200D02*
X124571047Y-72777580D01*
X124571047Y-72777580D02*
X124618666Y-72682342D01*
X124618666Y-72682342D02*
X124618666Y-72444247D01*
X124618666Y-72444247D02*
X124571047Y-72349009D01*
X124571047Y-72349009D02*
X124523428Y-72301390D01*
X124523428Y-72301390D02*
X124428190Y-72253771D01*
X124428190Y-72253771D02*
X124237714Y-72253771D01*
X124237714Y-72253771D02*
X124142476Y-72301390D01*
X124142476Y-72301390D02*
X124094857Y-72349009D01*
X124094857Y-72349009D02*
X124047238Y-72444247D01*
D10*
X106259333Y-75892819D02*
X105926000Y-75416628D01*
X105687905Y-75892819D02*
X105687905Y-74892819D01*
X105687905Y-74892819D02*
X106068857Y-74892819D01*
X106068857Y-74892819D02*
X106164095Y-74940438D01*
X106164095Y-74940438D02*
X106211714Y-74988057D01*
X106211714Y-74988057D02*
X106259333Y-75083295D01*
X106259333Y-75083295D02*
X106259333Y-75226152D01*
X106259333Y-75226152D02*
X106211714Y-75321390D01*
X106211714Y-75321390D02*
X106164095Y-75369009D01*
X106164095Y-75369009D02*
X106068857Y-75416628D01*
X106068857Y-75416628D02*
X105687905Y-75416628D01*
X107211714Y-75892819D02*
X106640286Y-75892819D01*
X106926000Y-75892819D02*
X106926000Y-74892819D01*
X106926000Y-74892819D02*
X106830762Y-75035676D01*
X106830762Y-75035676D02*
X106735524Y-75130914D01*
X106735524Y-75130914D02*
X106640286Y-75178533D01*
X122095419Y-85878894D02*
X121095419Y-85878894D01*
X121095419Y-85878894D02*
X121095419Y-85640799D01*
X121095419Y-85640799D02*
X121143038Y-85497942D01*
X121143038Y-85497942D02*
X121238276Y-85402704D01*
X121238276Y-85402704D02*
X121333514Y-85355085D01*
X121333514Y-85355085D02*
X121523990Y-85307466D01*
X121523990Y-85307466D02*
X121666847Y-85307466D01*
X121666847Y-85307466D02*
X121857323Y-85355085D01*
X121857323Y-85355085D02*
X121952561Y-85402704D01*
X121952561Y-85402704D02*
X122047800Y-85497942D01*
X122047800Y-85497942D02*
X122095419Y-85640799D01*
X122095419Y-85640799D02*
X122095419Y-85878894D01*
X121095419Y-84402704D02*
X121095419Y-84878894D01*
X121095419Y-84878894D02*
X121571609Y-84926513D01*
X121571609Y-84926513D02*
X121523990Y-84878894D01*
X121523990Y-84878894D02*
X121476371Y-84783656D01*
X121476371Y-84783656D02*
X121476371Y-84545561D01*
X121476371Y-84545561D02*
X121523990Y-84450323D01*
X121523990Y-84450323D02*
X121571609Y-84402704D01*
X121571609Y-84402704D02*
X121666847Y-84355085D01*
X121666847Y-84355085D02*
X121904942Y-84355085D01*
X121904942Y-84355085D02*
X122000180Y-84402704D01*
X122000180Y-84402704D02*
X122047800Y-84450323D01*
X122047800Y-84450323D02*
X122095419Y-84545561D01*
X122095419Y-84545561D02*
X122095419Y-84783656D01*
X122095419Y-84783656D02*
X122047800Y-84878894D01*
X122047800Y-84878894D02*
X122000180Y-84926513D01*
X106564133Y-74248180D02*
X106516514Y-74295800D01*
X106516514Y-74295800D02*
X106373657Y-74343419D01*
X106373657Y-74343419D02*
X106278419Y-74343419D01*
X106278419Y-74343419D02*
X106135562Y-74295800D01*
X106135562Y-74295800D02*
X106040324Y-74200561D01*
X106040324Y-74200561D02*
X105992705Y-74105323D01*
X105992705Y-74105323D02*
X105945086Y-73914847D01*
X105945086Y-73914847D02*
X105945086Y-73771990D01*
X105945086Y-73771990D02*
X105992705Y-73581514D01*
X105992705Y-73581514D02*
X106040324Y-73486276D01*
X106040324Y-73486276D02*
X106135562Y-73391038D01*
X106135562Y-73391038D02*
X106278419Y-73343419D01*
X106278419Y-73343419D02*
X106373657Y-73343419D01*
X106373657Y-73343419D02*
X106516514Y-73391038D01*
X106516514Y-73391038D02*
X106564133Y-73438657D01*
X107421276Y-73676752D02*
X107421276Y-74343419D01*
X107183181Y-73295800D02*
X106945086Y-74010085D01*
X106945086Y-74010085D02*
X107564133Y-74010085D01*
X111085333Y-77162819D02*
X110752000Y-76686628D01*
X110513905Y-77162819D02*
X110513905Y-76162819D01*
X110513905Y-76162819D02*
X110894857Y-76162819D01*
X110894857Y-76162819D02*
X110990095Y-76210438D01*
X110990095Y-76210438D02*
X111037714Y-76258057D01*
X111037714Y-76258057D02*
X111085333Y-76353295D01*
X111085333Y-76353295D02*
X111085333Y-76496152D01*
X111085333Y-76496152D02*
X111037714Y-76591390D01*
X111037714Y-76591390D02*
X110990095Y-76639009D01*
X110990095Y-76639009D02*
X110894857Y-76686628D01*
X110894857Y-76686628D02*
X110513905Y-76686628D01*
X111466286Y-76258057D02*
X111513905Y-76210438D01*
X111513905Y-76210438D02*
X111609143Y-76162819D01*
X111609143Y-76162819D02*
X111847238Y-76162819D01*
X111847238Y-76162819D02*
X111942476Y-76210438D01*
X111942476Y-76210438D02*
X111990095Y-76258057D01*
X111990095Y-76258057D02*
X112037714Y-76353295D01*
X112037714Y-76353295D02*
X112037714Y-76448533D01*
X112037714Y-76448533D02*
X111990095Y-76591390D01*
X111990095Y-76591390D02*
X111418667Y-77162819D01*
X111418667Y-77162819D02*
X112037714Y-77162819D01*
D13*
X111301305Y-38481219D02*
X111301305Y-37481219D01*
X111301305Y-37481219D02*
X111539400Y-37481219D01*
X111539400Y-37481219D02*
X111682257Y-37528838D01*
X111682257Y-37528838D02*
X111777495Y-37624076D01*
X111777495Y-37624076D02*
X111825114Y-37719314D01*
X111825114Y-37719314D02*
X111872733Y-37909790D01*
X111872733Y-37909790D02*
X111872733Y-38052647D01*
X111872733Y-38052647D02*
X111825114Y-38243123D01*
X111825114Y-38243123D02*
X111777495Y-38338361D01*
X111777495Y-38338361D02*
X111682257Y-38433600D01*
X111682257Y-38433600D02*
X111539400Y-38481219D01*
X111539400Y-38481219D02*
X111301305Y-38481219D01*
X112825114Y-38481219D02*
X112253686Y-38481219D01*
X112539400Y-38481219D02*
X112539400Y-37481219D01*
X112539400Y-37481219D02*
X112444162Y-37624076D01*
X112444162Y-37624076D02*
X112348924Y-37719314D01*
X112348924Y-37719314D02*
X112253686Y-37766933D01*
X115367715Y-41504133D02*
X114605811Y-41504133D01*
X112724666Y-37186515D02*
X112724666Y-36424611D01*
X113105619Y-36805563D02*
X112343714Y-36805563D01*
X111199705Y-62179419D02*
X111199705Y-61179419D01*
X111199705Y-61179419D02*
X111437800Y-61179419D01*
X111437800Y-61179419D02*
X111580657Y-61227038D01*
X111580657Y-61227038D02*
X111675895Y-61322276D01*
X111675895Y-61322276D02*
X111723514Y-61417514D01*
X111723514Y-61417514D02*
X111771133Y-61607990D01*
X111771133Y-61607990D02*
X111771133Y-61750847D01*
X111771133Y-61750847D02*
X111723514Y-61941323D01*
X111723514Y-61941323D02*
X111675895Y-62036561D01*
X111675895Y-62036561D02*
X111580657Y-62131800D01*
X111580657Y-62131800D02*
X111437800Y-62179419D01*
X111437800Y-62179419D02*
X111199705Y-62179419D01*
X112628276Y-61512752D02*
X112628276Y-62179419D01*
X112390181Y-61131800D02*
X112152086Y-61846085D01*
X112152086Y-61846085D02*
X112771133Y-61846085D01*
X115367715Y-65659533D02*
X114605811Y-65659533D01*
X115010666Y-60706915D02*
X115010666Y-59945011D01*
X115391619Y-60325963D02*
X114629714Y-60325963D01*
X119650219Y-35690133D02*
X120364504Y-35690133D01*
X120364504Y-35690133D02*
X120507361Y-35737752D01*
X120507361Y-35737752D02*
X120602600Y-35832990D01*
X120602600Y-35832990D02*
X120650219Y-35975847D01*
X120650219Y-35975847D02*
X120650219Y-36071085D01*
X119650219Y-34737752D02*
X119650219Y-35213942D01*
X119650219Y-35213942D02*
X120126409Y-35261561D01*
X120126409Y-35261561D02*
X120078790Y-35213942D01*
X120078790Y-35213942D02*
X120031171Y-35118704D01*
X120031171Y-35118704D02*
X120031171Y-34880609D01*
X120031171Y-34880609D02*
X120078790Y-34785371D01*
X120078790Y-34785371D02*
X120126409Y-34737752D01*
X120126409Y-34737752D02*
X120221647Y-34690133D01*
X120221647Y-34690133D02*
X120459742Y-34690133D01*
X120459742Y-34690133D02*
X120554980Y-34737752D01*
X120554980Y-34737752D02*
X120602600Y-34785371D01*
X120602600Y-34785371D02*
X120650219Y-34880609D01*
X120650219Y-34880609D02*
X120650219Y-35118704D01*
X120650219Y-35118704D02*
X120602600Y-35213942D01*
X120602600Y-35213942D02*
X120554980Y-35261561D01*
D10*
X117232133Y-79201180D02*
X117184514Y-79248800D01*
X117184514Y-79248800D02*
X117041657Y-79296419D01*
X117041657Y-79296419D02*
X116946419Y-79296419D01*
X116946419Y-79296419D02*
X116803562Y-79248800D01*
X116803562Y-79248800D02*
X116708324Y-79153561D01*
X116708324Y-79153561D02*
X116660705Y-79058323D01*
X116660705Y-79058323D02*
X116613086Y-78867847D01*
X116613086Y-78867847D02*
X116613086Y-78724990D01*
X116613086Y-78724990D02*
X116660705Y-78534514D01*
X116660705Y-78534514D02*
X116708324Y-78439276D01*
X116708324Y-78439276D02*
X116803562Y-78344038D01*
X116803562Y-78344038D02*
X116946419Y-78296419D01*
X116946419Y-78296419D02*
X117041657Y-78296419D01*
X117041657Y-78296419D02*
X117184514Y-78344038D01*
X117184514Y-78344038D02*
X117232133Y-78391657D01*
X118184514Y-79296419D02*
X117613086Y-79296419D01*
X117898800Y-79296419D02*
X117898800Y-78296419D01*
X117898800Y-78296419D02*
X117803562Y-78439276D01*
X117803562Y-78439276D02*
X117708324Y-78534514D01*
X117708324Y-78534514D02*
X117613086Y-78582133D01*
D13*
X123517066Y-69205819D02*
X123517066Y-69920104D01*
X123517066Y-69920104D02*
X123469447Y-70062961D01*
X123469447Y-70062961D02*
X123374209Y-70158200D01*
X123374209Y-70158200D02*
X123231352Y-70205819D01*
X123231352Y-70205819D02*
X123136114Y-70205819D01*
X124421828Y-69539152D02*
X124421828Y-70205819D01*
X124183733Y-69158200D02*
X123945638Y-69872485D01*
X123945638Y-69872485D02*
X124564685Y-69872485D01*
D10*
X123824866Y-89720009D02*
X123491533Y-89720009D01*
X123491533Y-90243819D02*
X123491533Y-89243819D01*
X123491533Y-89243819D02*
X123967723Y-89243819D01*
X124872485Y-90243819D02*
X124301057Y-90243819D01*
X124586771Y-90243819D02*
X124586771Y-89243819D01*
X124586771Y-89243819D02*
X124491533Y-89386676D01*
X124491533Y-89386676D02*
X124396295Y-89481914D01*
X124396295Y-89481914D02*
X124301057Y-89529533D01*
X119975333Y-79251980D02*
X119927714Y-79299600D01*
X119927714Y-79299600D02*
X119784857Y-79347219D01*
X119784857Y-79347219D02*
X119689619Y-79347219D01*
X119689619Y-79347219D02*
X119546762Y-79299600D01*
X119546762Y-79299600D02*
X119451524Y-79204361D01*
X119451524Y-79204361D02*
X119403905Y-79109123D01*
X119403905Y-79109123D02*
X119356286Y-78918647D01*
X119356286Y-78918647D02*
X119356286Y-78775790D01*
X119356286Y-78775790D02*
X119403905Y-78585314D01*
X119403905Y-78585314D02*
X119451524Y-78490076D01*
X119451524Y-78490076D02*
X119546762Y-78394838D01*
X119546762Y-78394838D02*
X119689619Y-78347219D01*
X119689619Y-78347219D02*
X119784857Y-78347219D01*
X119784857Y-78347219D02*
X119927714Y-78394838D01*
X119927714Y-78394838D02*
X119975333Y-78442457D01*
X120356286Y-78442457D02*
X120403905Y-78394838D01*
X120403905Y-78394838D02*
X120499143Y-78347219D01*
X120499143Y-78347219D02*
X120737238Y-78347219D01*
X120737238Y-78347219D02*
X120832476Y-78394838D01*
X120832476Y-78394838D02*
X120880095Y-78442457D01*
X120880095Y-78442457D02*
X120927714Y-78537695D01*
X120927714Y-78537695D02*
X120927714Y-78632933D01*
X120927714Y-78632933D02*
X120880095Y-78775790D01*
X120880095Y-78775790D02*
X120308667Y-79347219D01*
X120308667Y-79347219D02*
X120927714Y-79347219D01*
D13*
X111199705Y-45999619D02*
X111199705Y-44999619D01*
X111199705Y-44999619D02*
X111437800Y-44999619D01*
X111437800Y-44999619D02*
X111580657Y-45047238D01*
X111580657Y-45047238D02*
X111675895Y-45142476D01*
X111675895Y-45142476D02*
X111723514Y-45237714D01*
X111723514Y-45237714D02*
X111771133Y-45428190D01*
X111771133Y-45428190D02*
X111771133Y-45571047D01*
X111771133Y-45571047D02*
X111723514Y-45761523D01*
X111723514Y-45761523D02*
X111675895Y-45856761D01*
X111675895Y-45856761D02*
X111580657Y-45952000D01*
X111580657Y-45952000D02*
X111437800Y-45999619D01*
X111437800Y-45999619D02*
X111199705Y-45999619D01*
X112152086Y-45094857D02*
X112199705Y-45047238D01*
X112199705Y-45047238D02*
X112294943Y-44999619D01*
X112294943Y-44999619D02*
X112533038Y-44999619D01*
X112533038Y-44999619D02*
X112628276Y-45047238D01*
X112628276Y-45047238D02*
X112675895Y-45094857D01*
X112675895Y-45094857D02*
X112723514Y-45190095D01*
X112723514Y-45190095D02*
X112723514Y-45285333D01*
X112723514Y-45285333D02*
X112675895Y-45428190D01*
X112675895Y-45428190D02*
X112104467Y-45999619D01*
X112104467Y-45999619D02*
X112723514Y-45999619D01*
X113729466Y-44743115D02*
X113729466Y-43981211D01*
X114110419Y-44362163D02*
X113348514Y-44362163D01*
X115062915Y-49581333D02*
X114301011Y-49581333D01*
X111225105Y-54203819D02*
X111225105Y-53203819D01*
X111225105Y-53203819D02*
X111463200Y-53203819D01*
X111463200Y-53203819D02*
X111606057Y-53251438D01*
X111606057Y-53251438D02*
X111701295Y-53346676D01*
X111701295Y-53346676D02*
X111748914Y-53441914D01*
X111748914Y-53441914D02*
X111796533Y-53632390D01*
X111796533Y-53632390D02*
X111796533Y-53775247D01*
X111796533Y-53775247D02*
X111748914Y-53965723D01*
X111748914Y-53965723D02*
X111701295Y-54060961D01*
X111701295Y-54060961D02*
X111606057Y-54156200D01*
X111606057Y-54156200D02*
X111463200Y-54203819D01*
X111463200Y-54203819D02*
X111225105Y-54203819D01*
X112129867Y-53203819D02*
X112748914Y-53203819D01*
X112748914Y-53203819D02*
X112415581Y-53584771D01*
X112415581Y-53584771D02*
X112558438Y-53584771D01*
X112558438Y-53584771D02*
X112653676Y-53632390D01*
X112653676Y-53632390D02*
X112701295Y-53680009D01*
X112701295Y-53680009D02*
X112748914Y-53775247D01*
X112748914Y-53775247D02*
X112748914Y-54013342D01*
X112748914Y-54013342D02*
X112701295Y-54108580D01*
X112701295Y-54108580D02*
X112653676Y-54156200D01*
X112653676Y-54156200D02*
X112558438Y-54203819D01*
X112558438Y-54203819D02*
X112272724Y-54203819D01*
X112272724Y-54203819D02*
X112177486Y-54156200D01*
X112177486Y-54156200D02*
X112129867Y-54108580D01*
X114782066Y-52604315D02*
X114782066Y-51842411D01*
X115163019Y-52223363D02*
X114401114Y-52223363D01*
X115367715Y-57480733D02*
X114605811Y-57480733D01*
D10*
X105618066Y-68460209D02*
X105284733Y-68460209D01*
X105284733Y-68984019D02*
X105284733Y-67984019D01*
X105284733Y-67984019D02*
X105760923Y-67984019D01*
X106475209Y-68460209D02*
X106618066Y-68507828D01*
X106618066Y-68507828D02*
X106665685Y-68555447D01*
X106665685Y-68555447D02*
X106713304Y-68650685D01*
X106713304Y-68650685D02*
X106713304Y-68793542D01*
X106713304Y-68793542D02*
X106665685Y-68888780D01*
X106665685Y-68888780D02*
X106618066Y-68936400D01*
X106618066Y-68936400D02*
X106522828Y-68984019D01*
X106522828Y-68984019D02*
X106141876Y-68984019D01*
X106141876Y-68984019D02*
X106141876Y-67984019D01*
X106141876Y-67984019D02*
X106475209Y-67984019D01*
X106475209Y-67984019D02*
X106570447Y-68031638D01*
X106570447Y-68031638D02*
X106618066Y-68079257D01*
X106618066Y-68079257D02*
X106665685Y-68174495D01*
X106665685Y-68174495D02*
X106665685Y-68269733D01*
X106665685Y-68269733D02*
X106618066Y-68364971D01*
X106618066Y-68364971D02*
X106570447Y-68412590D01*
X106570447Y-68412590D02*
X106475209Y-68460209D01*
X106475209Y-68460209D02*
X106141876Y-68460209D01*
X107665685Y-68984019D02*
X107094257Y-68984019D01*
X107379971Y-68984019D02*
X107379971Y-67984019D01*
X107379971Y-67984019D02*
X107284733Y-68126876D01*
X107284733Y-68126876D02*
X107189495Y-68222114D01*
X107189495Y-68222114D02*
X107094257Y-68269733D01*
X113516580Y-70143666D02*
X113564200Y-70191285D01*
X113564200Y-70191285D02*
X113611819Y-70334142D01*
X113611819Y-70334142D02*
X113611819Y-70429380D01*
X113611819Y-70429380D02*
X113564200Y-70572237D01*
X113564200Y-70572237D02*
X113468961Y-70667475D01*
X113468961Y-70667475D02*
X113373723Y-70715094D01*
X113373723Y-70715094D02*
X113183247Y-70762713D01*
X113183247Y-70762713D02*
X113040390Y-70762713D01*
X113040390Y-70762713D02*
X112849914Y-70715094D01*
X112849914Y-70715094D02*
X112754676Y-70667475D01*
X112754676Y-70667475D02*
X112659438Y-70572237D01*
X112659438Y-70572237D02*
X112611819Y-70429380D01*
X112611819Y-70429380D02*
X112611819Y-70334142D01*
X112611819Y-70334142D02*
X112659438Y-70191285D01*
X112659438Y-70191285D02*
X112707057Y-70143666D01*
X112611819Y-69238904D02*
X112611819Y-69715094D01*
X112611819Y-69715094D02*
X113088009Y-69762713D01*
X113088009Y-69762713D02*
X113040390Y-69715094D01*
X113040390Y-69715094D02*
X112992771Y-69619856D01*
X112992771Y-69619856D02*
X112992771Y-69381761D01*
X112992771Y-69381761D02*
X113040390Y-69286523D01*
X113040390Y-69286523D02*
X113088009Y-69238904D01*
X113088009Y-69238904D02*
X113183247Y-69191285D01*
X113183247Y-69191285D02*
X113421342Y-69191285D01*
X113421342Y-69191285D02*
X113516580Y-69238904D01*
X113516580Y-69238904D02*
X113564200Y-69286523D01*
X113564200Y-69286523D02*
X113611819Y-69381761D01*
X113611819Y-69381761D02*
X113611819Y-69619856D01*
X113611819Y-69619856D02*
X113564200Y-69715094D01*
X113564200Y-69715094D02*
X113516580Y-69762713D01*
X106513333Y-71479580D02*
X106465714Y-71527200D01*
X106465714Y-71527200D02*
X106322857Y-71574819D01*
X106322857Y-71574819D02*
X106227619Y-71574819D01*
X106227619Y-71574819D02*
X106084762Y-71527200D01*
X106084762Y-71527200D02*
X105989524Y-71431961D01*
X105989524Y-71431961D02*
X105941905Y-71336723D01*
X105941905Y-71336723D02*
X105894286Y-71146247D01*
X105894286Y-71146247D02*
X105894286Y-71003390D01*
X105894286Y-71003390D02*
X105941905Y-70812914D01*
X105941905Y-70812914D02*
X105989524Y-70717676D01*
X105989524Y-70717676D02*
X106084762Y-70622438D01*
X106084762Y-70622438D02*
X106227619Y-70574819D01*
X106227619Y-70574819D02*
X106322857Y-70574819D01*
X106322857Y-70574819D02*
X106465714Y-70622438D01*
X106465714Y-70622438D02*
X106513333Y-70670057D01*
X106846667Y-70574819D02*
X107465714Y-70574819D01*
X107465714Y-70574819D02*
X107132381Y-70955771D01*
X107132381Y-70955771D02*
X107275238Y-70955771D01*
X107275238Y-70955771D02*
X107370476Y-71003390D01*
X107370476Y-71003390D02*
X107418095Y-71051009D01*
X107418095Y-71051009D02*
X107465714Y-71146247D01*
X107465714Y-71146247D02*
X107465714Y-71384342D01*
X107465714Y-71384342D02*
X107418095Y-71479580D01*
X107418095Y-71479580D02*
X107370476Y-71527200D01*
X107370476Y-71527200D02*
X107275238Y-71574819D01*
X107275238Y-71574819D02*
X106989524Y-71574819D01*
X106989524Y-71574819D02*
X106894286Y-71527200D01*
X106894286Y-71527200D02*
X106846667Y-71479580D01*
%TO.C,J6*%
D13*
X122934800Y-73589200D02*
X116434800Y-73589200D01*
X116434800Y-71089200D01*
X122934800Y-71089200D01*
X122934800Y-73589200D01*
D14*
%TO.C,TP7*%
X115935800Y-58775600D02*
G75*
G02*
X114035800Y-58775600I-950000J0D01*
G01*
X114035800Y-58775600D02*
G75*
G02*
X115935800Y-58775600I950000J0D01*
G01*
%TO.C,R1*%
X106587936Y-76433000D02*
X108042064Y-76433000D01*
X106587936Y-78253000D02*
X108042064Y-78253000D01*
%TO.C,D5*%
X124444000Y-84280000D02*
X122444000Y-84280000D01*
X124444000Y-84280000D02*
X124444000Y-88140000D01*
X122444000Y-84280000D02*
X122444000Y-88140000D01*
%TO.C,TP5*%
X108874600Y-53340000D02*
G75*
G02*
X106974600Y-53340000I-950000J0D01*
G01*
X106974600Y-53340000D02*
G75*
G02*
X108874600Y-53340000I950000J0D01*
G01*
%TO.C,C4*%
X110667852Y-75909000D02*
X109245348Y-75909000D01*
X110667852Y-73189000D02*
X109245348Y-73189000D01*
%TO.C,J2*%
D13*
X114269200Y-99450000D02*
X116769200Y-99450000D01*
X116769200Y-92950000D01*
X114269200Y-92950000D01*
X114269200Y-99450000D01*
D14*
%TO.C,R2*%
X110463359Y-77344000D02*
X110770641Y-77344000D01*
X110463359Y-78104000D02*
X110770641Y-78104000D01*
%TO.C,TP1*%
X108823800Y-48971200D02*
G75*
G02*
X106923800Y-48971200I-950000J0D01*
G01*
X106923800Y-48971200D02*
G75*
G02*
X108823800Y-48971200I950000J0D01*
G01*
%TO.C,J7*%
D13*
X118561800Y-99450000D02*
X121061800Y-99450000D01*
X121061800Y-92950000D01*
X118561800Y-92950000D01*
X118561800Y-99450000D01*
D14*
%TO.C,TP3*%
X115924600Y-43104400D02*
G75*
G02*
X114024600Y-43104400I-950000J0D01*
G01*
X114024600Y-43104400D02*
G75*
G02*
X115924600Y-43104400I950000J0D01*
G01*
%TO.C,TP6*%
X112506800Y-57150000D02*
G75*
G02*
X110606800Y-57150000I-950000J0D01*
G01*
X110606800Y-57150000D02*
G75*
G02*
X112506800Y-57150000I950000J0D01*
G01*
%TO.C,TP2*%
X112481400Y-41249600D02*
G75*
G02*
X110581400Y-41249600I-950000J0D01*
G01*
X110581400Y-41249600D02*
G75*
G02*
X112481400Y-41249600I950000J0D01*
G01*
%TO.C,D1*%
D13*
X112974600Y-41104400D02*
X116974600Y-41104400D01*
X116974600Y-37104400D01*
X112974600Y-37104400D01*
X112974600Y-41104400D01*
%TO.C,D4*%
X113000000Y-65104400D02*
X117000000Y-65104400D01*
X117000000Y-61104400D01*
X113000000Y-61104400D01*
X113000000Y-65104400D01*
D14*
%TO.C,TP4*%
X112608400Y-47320200D02*
G75*
G02*
X110708400Y-47320200I-950000J0D01*
G01*
X110708400Y-47320200D02*
G75*
G02*
X112608400Y-47320200I950000J0D01*
G01*
%TO.C,J5*%
D13*
X112851200Y-34005200D02*
X119351200Y-34005200D01*
X119351200Y-36505200D01*
X112851200Y-36505200D01*
X112851200Y-34005200D01*
%TO.C,J3*%
X105226800Y-99450000D02*
X107726800Y-99450000D01*
X107726800Y-92950000D01*
X105226800Y-92950000D01*
X105226800Y-99450000D01*
D15*
%TO.C,H1*%
G36*
X119555274Y-30093152D02*
G01*
X119629420Y-30116758D01*
X119696347Y-30154813D01*
X119754056Y-30206263D01*
X119787675Y-30249352D01*
X119825729Y-30320710D01*
X119847536Y-30395478D01*
X119852944Y-30471924D01*
X119841805Y-30548318D01*
X119819203Y-30611938D01*
X119809330Y-30629138D01*
X119790403Y-30658069D01*
X119763762Y-30696833D01*
X119730745Y-30743534D01*
X119692693Y-30796273D01*
X119650944Y-30853153D01*
X119612900Y-30904207D01*
X119426981Y-31151951D01*
X119641791Y-31154241D01*
X119856602Y-31156530D01*
X119856602Y-31370474D01*
X119205476Y-31370474D01*
X119162469Y-31284772D01*
X119119461Y-31199069D01*
X119364651Y-30872383D01*
X119414417Y-30805813D01*
X119461298Y-30742599D01*
X119504220Y-30684223D01*
X119542111Y-30632167D01*
X119573899Y-30587912D01*
X119598511Y-30552942D01*
X119614875Y-30528738D01*
X119621818Y-30517031D01*
X119633000Y-30469940D01*
X119628842Y-30423462D01*
X119610993Y-30380487D01*
X119581098Y-30343906D01*
X119540806Y-30316612D01*
X119499816Y-30302912D01*
X119463539Y-30302595D01*
X119423309Y-30312922D01*
X119386543Y-30331711D01*
X119376792Y-30339095D01*
X119352075Y-30363940D01*
X119335154Y-30392164D01*
X119324422Y-30427885D01*
X119318272Y-30475222D01*
X119317093Y-30492100D01*
X119312438Y-30569225D01*
X119098201Y-30569225D01*
X119099590Y-30481583D01*
X119104869Y-30404342D01*
X119118972Y-30339032D01*
X119143306Y-30282131D01*
X119179279Y-30230118D01*
X119215648Y-30191325D01*
X119273579Y-30143161D01*
X119332759Y-30110421D01*
X119396939Y-30091571D01*
X119469873Y-30085080D01*
X119475912Y-30085049D01*
X119555274Y-30093152D01*
G37*
G36*
X111646847Y-30304047D02*
G01*
X111677633Y-30306067D01*
X111701770Y-30310515D01*
X111724494Y-30318276D01*
X111744971Y-30327370D01*
X111814771Y-30368750D01*
X111871649Y-30421338D01*
X111915398Y-30484853D01*
X111945812Y-30559011D01*
X111959789Y-30621711D01*
X111961005Y-30662624D01*
X111954803Y-30711867D01*
X111942403Y-30762964D01*
X111925020Y-30809440D01*
X111924152Y-30811294D01*
X111906685Y-30841781D01*
X111882553Y-30876039D01*
X111860645Y-30902475D01*
X111818410Y-30948686D01*
X111818410Y-31955374D01*
X111818486Y-32123568D01*
X111818713Y-32278375D01*
X111819087Y-32419422D01*
X111819605Y-32546337D01*
X111820264Y-32658747D01*
X111821061Y-32756278D01*
X111821993Y-32838558D01*
X111823056Y-32905213D01*
X111824249Y-32955872D01*
X111825567Y-32990160D01*
X111827008Y-33007705D01*
X111827099Y-33008221D01*
X111848828Y-33079039D01*
X111884963Y-33143001D01*
X111933495Y-33198172D01*
X111992412Y-33242619D01*
X112059705Y-33274406D01*
X112119582Y-33289644D01*
X112140392Y-33291580D01*
X112177004Y-33293327D01*
X112228082Y-33294861D01*
X112292288Y-33296160D01*
X112368288Y-33297201D01*
X112454743Y-33297961D01*
X112550319Y-33298416D01*
X112635969Y-33298547D01*
X113097894Y-33298611D01*
X113142278Y-33256635D01*
X113203519Y-33209204D01*
X113269021Y-33177057D01*
X113336905Y-33159474D01*
X113405294Y-33155736D01*
X113472309Y-33165125D01*
X113536070Y-33186922D01*
X113594701Y-33220409D01*
X113646320Y-33264867D01*
X113689052Y-33319578D01*
X113721015Y-33383822D01*
X113740333Y-33456882D01*
X113743967Y-33486800D01*
X113742172Y-33562364D01*
X113724705Y-33633544D01*
X113692819Y-33698656D01*
X113647765Y-33756016D01*
X113590797Y-33803939D01*
X113523166Y-33840741D01*
X113466383Y-33859985D01*
X113415587Y-33869791D01*
X113367744Y-33870511D01*
X113319583Y-33863598D01*
X113255511Y-33843384D01*
X113193184Y-33809587D01*
X113143690Y-33770398D01*
X113097894Y-33727086D01*
X112596018Y-33727086D01*
X112483788Y-33727049D01*
X112387162Y-33726864D01*
X112304605Y-33726419D01*
X112234582Y-33725605D01*
X112175558Y-33724310D01*
X112125998Y-33722424D01*
X112084368Y-33719836D01*
X112049131Y-33716435D01*
X112018753Y-33712111D01*
X111991700Y-33706752D01*
X111966435Y-33700248D01*
X111941425Y-33692489D01*
X111915134Y-33683363D01*
X111896562Y-33676621D01*
X111800819Y-33632873D01*
X111710057Y-33574430D01*
X111627914Y-33504584D01*
X113245625Y-33504584D01*
X113249810Y-33548855D01*
X113267821Y-33589502D01*
X113298970Y-33623366D01*
X113330253Y-33642280D01*
X113362879Y-33654594D01*
X113390895Y-33657504D01*
X113423470Y-33651720D01*
X113429856Y-33649997D01*
X113460996Y-33634603D01*
X113491515Y-33608551D01*
X113515468Y-33577470D01*
X113523215Y-33561566D01*
X113531581Y-33516621D01*
X113524872Y-33471611D01*
X113504656Y-33430576D01*
X113472499Y-33397556D01*
X113455527Y-33386901D01*
X113408211Y-33370266D01*
X113362068Y-33369937D01*
X113319408Y-33385504D01*
X113282542Y-33416556D01*
X113281478Y-33417809D01*
X113255952Y-33459849D01*
X113245625Y-33504584D01*
X111627914Y-33504584D01*
X111626689Y-33503542D01*
X111553127Y-33422460D01*
X111491784Y-33333434D01*
X111456895Y-33266471D01*
X111442418Y-33230946D01*
X111426665Y-33186627D01*
X111412380Y-33141380D01*
X111408382Y-33127320D01*
X111386006Y-33045811D01*
X111380664Y-30938741D01*
X111343247Y-30898740D01*
X111296474Y-30837296D01*
X111264949Y-30770935D01*
X111248262Y-30701708D01*
X111246927Y-30660288D01*
X111459495Y-30660288D01*
X111466541Y-30701510D01*
X111486343Y-30739995D01*
X111519579Y-30772823D01*
X111530377Y-30779994D01*
X111564145Y-30792407D01*
X111605408Y-30795886D01*
X111646966Y-30790321D01*
X111670056Y-30782124D01*
X111705260Y-30756418D01*
X111730606Y-30719334D01*
X111743693Y-30674922D01*
X111744957Y-30655707D01*
X111737327Y-30607137D01*
X111715935Y-30566751D01*
X111683024Y-30536606D01*
X111640841Y-30518764D01*
X111591880Y-30515263D01*
X111545315Y-30526395D01*
X111508116Y-30549382D01*
X111480961Y-30581305D01*
X111464528Y-30619247D01*
X111459495Y-30660288D01*
X111246927Y-30660288D01*
X111246004Y-30631664D01*
X111257764Y-30562854D01*
X111283130Y-30497327D01*
X111321694Y-30437133D01*
X111373045Y-30384324D01*
X111436771Y-30340948D01*
X111456952Y-30330689D01*
X111484464Y-30318293D01*
X111507412Y-30310376D01*
X111531181Y-30305944D01*
X111561156Y-30304006D01*
X111602720Y-30303571D01*
X111604173Y-30303571D01*
X111646847Y-30304047D01*
G37*
G36*
X116881708Y-30303964D02*
G01*
X116911962Y-30305808D01*
X116935829Y-30310097D01*
X116958681Y-30317827D01*
X116985891Y-30329991D01*
X116988166Y-30331067D01*
X117054983Y-30371371D01*
X117109425Y-30421870D01*
X117151092Y-30480493D01*
X117179581Y-30545174D01*
X117194491Y-30613841D01*
X117195421Y-30684428D01*
X117181969Y-30754863D01*
X117153734Y-30823080D01*
X117110313Y-30887008D01*
X117098627Y-30900353D01*
X117054375Y-30948686D01*
X117054375Y-31959659D01*
X117054451Y-32128283D01*
X117054676Y-32283500D01*
X117055049Y-32424940D01*
X117055565Y-32552233D01*
X117056221Y-32665009D01*
X117057015Y-32762897D01*
X117057943Y-32845528D01*
X117059003Y-32912532D01*
X117060191Y-32963537D01*
X117061505Y-32998175D01*
X117062941Y-33016075D01*
X117063064Y-33016791D01*
X117084977Y-33088521D01*
X117121334Y-33153481D01*
X117170089Y-33209570D01*
X117229195Y-33254686D01*
X117296607Y-33286731D01*
X117337169Y-33298171D01*
X117352921Y-33300385D01*
X117378527Y-33302232D01*
X117414865Y-33303724D01*
X117462813Y-33304870D01*
X117523248Y-33305682D01*
X117597048Y-33306171D01*
X117685091Y-33306346D01*
X117788254Y-33306219D01*
X117907415Y-33305801D01*
X117946060Y-33305623D01*
X118507819Y-33302896D01*
X118572410Y-33270968D01*
X118639841Y-33228960D01*
X118694707Y-33175495D01*
X118737918Y-33109647D01*
X118745266Y-33094857D01*
X118772560Y-33037242D01*
X118775365Y-32830084D01*
X118776098Y-32760434D01*
X118776119Y-32705364D01*
X118775321Y-32662325D01*
X118773595Y-32628769D01*
X118770834Y-32602145D01*
X118766931Y-32579907D01*
X118764336Y-32568925D01*
X118737122Y-32495499D01*
X118696008Y-32431666D01*
X118641964Y-32378607D01*
X118575961Y-32337505D01*
X118572897Y-32336037D01*
X118515475Y-32308834D01*
X118181947Y-32306309D01*
X117848419Y-32303785D01*
X117809174Y-32341421D01*
X117749403Y-32389524D01*
X117686471Y-32421334D01*
X117618126Y-32437672D01*
X117542118Y-32439361D01*
X117541127Y-32439294D01*
X117466330Y-32426194D01*
X117398552Y-32398821D01*
X117339090Y-32359056D01*
X117289241Y-32308779D01*
X117250303Y-32249871D01*
X117223571Y-32184211D01*
X117210345Y-32113681D01*
X117211121Y-32077437D01*
X117424215Y-32077437D01*
X117424680Y-32090872D01*
X117434923Y-32140440D01*
X117458396Y-32179448D01*
X117495799Y-32209027D01*
X117498536Y-32210545D01*
X117534438Y-32222527D01*
X117575640Y-32225006D01*
X117615228Y-32218270D01*
X117643884Y-32204478D01*
X117677990Y-32170066D01*
X117698998Y-32129295D01*
X117706932Y-32085500D01*
X117701818Y-32042018D01*
X117683680Y-32002183D01*
X117652543Y-31969333D01*
X117642085Y-31962201D01*
X117605078Y-31947900D01*
X117562068Y-31944101D01*
X117520021Y-31950716D01*
X117490748Y-31964115D01*
X117453117Y-31996611D01*
X117431320Y-32033654D01*
X117424215Y-32077437D01*
X117211121Y-32077437D01*
X117211919Y-32040161D01*
X117224682Y-31980538D01*
X117254559Y-31909586D01*
X117296862Y-31848938D01*
X117349665Y-31799534D01*
X117411038Y-31762313D01*
X117479055Y-31738216D01*
X117551788Y-31728182D01*
X117627308Y-31733151D01*
X117695511Y-31751027D01*
X117739631Y-31771063D01*
X117782351Y-31800004D01*
X117821345Y-31834094D01*
X117855623Y-31866576D01*
X118202688Y-31869597D01*
X118297402Y-31870521D01*
X118376980Y-31871679D01*
X118443426Y-31873342D01*
X118498742Y-31875779D01*
X118544931Y-31879261D01*
X118583997Y-31884057D01*
X118617942Y-31890437D01*
X118648771Y-31898671D01*
X118678485Y-31909029D01*
X118709088Y-31921781D01*
X118742584Y-31937196D01*
X118757644Y-31944361D01*
X118860483Y-32002462D01*
X118951209Y-32072681D01*
X119029915Y-32155111D01*
X119096699Y-32249841D01*
X119118882Y-32288918D01*
X119146254Y-32344715D01*
X119168311Y-32400749D01*
X119185452Y-32459462D01*
X119198071Y-32523296D01*
X119206567Y-32594692D01*
X119211335Y-32676092D01*
X119212771Y-32769938D01*
X119211692Y-32860269D01*
X119210125Y-32926921D01*
X119208406Y-32979479D01*
X119206258Y-33020987D01*
X119203401Y-33054489D01*
X119199556Y-33083029D01*
X119194445Y-33109653D01*
X119187789Y-33137403D01*
X119185509Y-33146178D01*
X119147932Y-33256464D01*
X119095932Y-33358335D01*
X119030565Y-33450731D01*
X118952886Y-33532598D01*
X118863950Y-33602877D01*
X118764813Y-33660512D01*
X118656532Y-33704446D01*
X118615842Y-33716616D01*
X118532614Y-33739271D01*
X117949888Y-33740904D01*
X117849824Y-33741074D01*
X117753553Y-33741024D01*
X117662646Y-33740769D01*
X117578680Y-33740324D01*
X117503228Y-33739701D01*
X117437864Y-33738917D01*
X117384162Y-33737984D01*
X117343697Y-33736917D01*
X117318042Y-33735730D01*
X117311460Y-33735124D01*
X117255312Y-33724473D01*
X117191714Y-33707337D01*
X117127956Y-33685981D01*
X117071325Y-33662668D01*
X117058729Y-33656597D01*
X116966010Y-33600945D01*
X116880339Y-33531340D01*
X116803997Y-33450292D01*
X116739265Y-33360312D01*
X116688422Y-33263908D01*
X116677244Y-33236774D01*
X116669827Y-33217758D01*
X116663159Y-33200382D01*
X116657202Y-33183677D01*
X116651916Y-33166679D01*
X116647259Y-33148421D01*
X116643194Y-33127936D01*
X116639679Y-33104258D01*
X116636674Y-33076420D01*
X116634140Y-33043456D01*
X116632037Y-33004400D01*
X116630324Y-32958286D01*
X116628962Y-32904146D01*
X116627911Y-32841015D01*
X116627131Y-32767925D01*
X116626581Y-32683912D01*
X116626223Y-32588008D01*
X116626015Y-32479246D01*
X116625918Y-32356661D01*
X116625893Y-32219287D01*
X116625898Y-32066156D01*
X116625900Y-31995094D01*
X116625900Y-30947939D01*
X116582589Y-30902144D01*
X116535353Y-30840781D01*
X116503263Y-30774275D01*
X116485939Y-30704743D01*
X116483097Y-30636564D01*
X116697046Y-30636564D01*
X116697726Y-30675874D01*
X116712963Y-30717905D01*
X116713737Y-30719449D01*
X116740973Y-30759253D01*
X116775824Y-30784192D01*
X116820173Y-30795412D01*
X116840119Y-30796317D01*
X116873025Y-30794477D01*
X116897632Y-30787232D01*
X116922550Y-30771998D01*
X116923595Y-30771244D01*
X116957377Y-30737897D01*
X116976999Y-30699408D01*
X116983502Y-30658543D01*
X116977930Y-30618071D01*
X116961327Y-30580760D01*
X116934736Y-30549377D01*
X116899199Y-30526691D01*
X116855760Y-30515469D01*
X116827145Y-30515321D01*
X116778608Y-30526664D01*
X116740334Y-30551583D01*
X116712843Y-30589729D01*
X116710785Y-30594086D01*
X116697046Y-30636564D01*
X116483097Y-30636564D01*
X116483003Y-30634304D01*
X116494074Y-30565076D01*
X116518774Y-30499178D01*
X116556723Y-30438726D01*
X116607543Y-30385840D01*
X116670853Y-30342638D01*
X116683971Y-30335843D01*
X116714167Y-30321342D01*
X116737754Y-30311998D01*
X116760188Y-30306678D01*
X116786921Y-30304254D01*
X116823406Y-30303594D01*
X116839693Y-30303571D01*
X116881708Y-30303964D01*
G37*
G36*
X114428455Y-31018113D02*
G01*
X114499804Y-31039277D01*
X114566115Y-31075575D01*
X114612791Y-31114094D01*
X114656057Y-31156236D01*
X115157163Y-31156236D01*
X115269499Y-31156275D01*
X115366224Y-31156468D01*
X115448866Y-31156929D01*
X115518955Y-31157773D01*
X115578018Y-31159113D01*
X115627584Y-31161066D01*
X115669181Y-31163744D01*
X115704337Y-31167263D01*
X115734580Y-31171737D01*
X115761440Y-31177280D01*
X115786443Y-31184007D01*
X115811120Y-31192031D01*
X115836997Y-31201469D01*
X115855438Y-31208512D01*
X115943572Y-31250598D01*
X116028715Y-31306749D01*
X116108116Y-31374290D01*
X116179020Y-31450542D01*
X116238676Y-31532830D01*
X116284330Y-31618477D01*
X116289402Y-31630471D01*
X116300129Y-31656396D01*
X116309433Y-31678984D01*
X116317421Y-31699601D01*
X116324199Y-31719615D01*
X116329872Y-31740393D01*
X116334547Y-31763302D01*
X116338331Y-31789709D01*
X116341330Y-31820982D01*
X116343649Y-31858488D01*
X116345396Y-31903594D01*
X116346675Y-31957668D01*
X116347595Y-32022075D01*
X116348261Y-32098185D01*
X116348778Y-32187363D01*
X116349254Y-32290977D01*
X116349781Y-32407383D01*
X116350311Y-32543781D01*
X116350522Y-32663507D01*
X116350410Y-32767025D01*
X116349970Y-32854800D01*
X116349198Y-32927295D01*
X116348089Y-32984974D01*
X116346637Y-33028302D01*
X116344840Y-33057743D01*
X116343166Y-33071520D01*
X116313533Y-33186790D01*
X116269292Y-33293603D01*
X116211175Y-33391142D01*
X116139916Y-33478590D01*
X116056248Y-33555130D01*
X115960905Y-33619944D01*
X115854619Y-33672215D01*
X115779990Y-33699086D01*
X115704679Y-33722617D01*
X115087675Y-33724332D01*
X114965149Y-33724618D01*
X114858579Y-33724739D01*
X114766781Y-33724675D01*
X114688572Y-33724408D01*
X114622768Y-33723920D01*
X114568188Y-33723193D01*
X114523647Y-33722208D01*
X114487962Y-33720947D01*
X114459951Y-33719392D01*
X114438431Y-33717524D01*
X114422217Y-33715326D01*
X114414969Y-33713933D01*
X114377504Y-33704597D01*
X114333760Y-33691975D01*
X114294996Y-33679401D01*
X114191977Y-33634582D01*
X114097243Y-33575521D01*
X114012133Y-33503647D01*
X113937987Y-33420386D01*
X113876144Y-33327168D01*
X113827944Y-33225418D01*
X113805081Y-33157215D01*
X113794019Y-33103917D01*
X113787190Y-33040368D01*
X113784653Y-32972110D01*
X113786468Y-32904682D01*
X113792693Y-32843627D01*
X113801296Y-32801600D01*
X113838999Y-32695874D01*
X113891094Y-32597227D01*
X113956148Y-32507232D01*
X114001524Y-32459966D01*
X115282380Y-32459966D01*
X115293663Y-32500562D01*
X115316348Y-32536595D01*
X115350130Y-32564898D01*
X115382582Y-32579153D01*
X115420731Y-32585968D01*
X115456571Y-32580598D01*
X115486414Y-32568061D01*
X115526214Y-32540830D01*
X115551151Y-32505986D01*
X115562374Y-32461642D01*
X115563282Y-32441661D01*
X115560533Y-32404210D01*
X115551059Y-32375768D01*
X115543931Y-32363661D01*
X115519272Y-32337624D01*
X115485169Y-32315193D01*
X115448442Y-32300152D01*
X115421885Y-32295980D01*
X115398229Y-32299901D01*
X115369237Y-32309795D01*
X115357323Y-32315261D01*
X115319970Y-32342454D01*
X115295231Y-32377746D01*
X115282802Y-32417972D01*
X115282380Y-32459966D01*
X114001524Y-32459966D01*
X114032729Y-32427462D01*
X114119403Y-32359489D01*
X114214738Y-32304887D01*
X114278085Y-32278249D01*
X114312308Y-32266036D01*
X114343241Y-32255949D01*
X114372960Y-32247786D01*
X114403543Y-32241344D01*
X114437067Y-32236420D01*
X114475608Y-32232812D01*
X114521245Y-32230317D01*
X114576055Y-32228734D01*
X114642113Y-32227859D01*
X114721498Y-32227490D01*
X114799522Y-32227424D01*
X115131538Y-32227424D01*
X115174634Y-32185884D01*
X115235618Y-32138226D01*
X115302680Y-32105512D01*
X115373553Y-32087761D01*
X115445971Y-32084994D01*
X115517668Y-32097230D01*
X115586376Y-32124489D01*
X115649830Y-32166793D01*
X115666564Y-32181540D01*
X115717549Y-32238611D01*
X115752626Y-32300409D01*
X115772725Y-32369063D01*
X115778780Y-32439101D01*
X115771690Y-32514979D01*
X115750579Y-32583560D01*
X115717283Y-32644057D01*
X115673636Y-32695677D01*
X115621475Y-32737632D01*
X115562635Y-32769130D01*
X115498951Y-32789381D01*
X115432260Y-32797596D01*
X115364395Y-32792984D01*
X115297194Y-32774754D01*
X115232491Y-32742117D01*
X115176465Y-32698421D01*
X115131173Y-32655899D01*
X114838916Y-32655899D01*
X114757354Y-32656188D01*
X114683250Y-32657021D01*
X114618476Y-32658348D01*
X114564907Y-32660118D01*
X114524416Y-32662278D01*
X114498876Y-32664779D01*
X114496210Y-32665225D01*
X114423735Y-32686570D01*
X114358188Y-32721630D01*
X114302168Y-32768576D01*
X114258276Y-32825580D01*
X114251547Y-32837349D01*
X114237641Y-32864188D01*
X114228983Y-32886005D01*
X114224340Y-32908497D01*
X114222476Y-32937362D01*
X114222155Y-32972970D01*
X114222709Y-33013320D01*
X114225097Y-33042244D01*
X114230413Y-33065440D01*
X114239747Y-33088604D01*
X114247255Y-33103917D01*
X114285199Y-33160758D01*
X114336305Y-33210203D01*
X114397418Y-33250089D01*
X114465379Y-33278251D01*
X114519465Y-33290452D01*
X114540070Y-33292146D01*
X114575730Y-33293632D01*
X114624516Y-33294910D01*
X114684502Y-33295981D01*
X114753763Y-33296845D01*
X114830370Y-33297503D01*
X114912398Y-33297957D01*
X114997921Y-33298205D01*
X115085010Y-33298249D01*
X115171741Y-33298090D01*
X115256186Y-33297729D01*
X115336418Y-33297165D01*
X115410512Y-33296399D01*
X115476539Y-33295432D01*
X115532575Y-33294265D01*
X115576692Y-33292899D01*
X115606964Y-33291333D01*
X115618984Y-33290102D01*
X115691637Y-33269968D01*
X115757706Y-33235503D01*
X115815161Y-33188681D01*
X115861969Y-33131477D01*
X115896098Y-33065865D01*
X115913886Y-33003532D01*
X115915906Y-32983609D01*
X115917687Y-32948474D01*
X115919228Y-32900040D01*
X115920531Y-32840223D01*
X115921594Y-32770935D01*
X115922418Y-32694090D01*
X115923004Y-32611603D01*
X115923350Y-32525386D01*
X115923457Y-32437354D01*
X115923325Y-32349420D01*
X115922954Y-32263499D01*
X115922344Y-32181503D01*
X115921495Y-32105348D01*
X115920407Y-32036946D01*
X115919080Y-31978211D01*
X115917515Y-31931058D01*
X115915710Y-31897400D01*
X115913875Y-31880190D01*
X115892206Y-31807784D01*
X115856324Y-31742298D01*
X115808217Y-31685749D01*
X115749872Y-31640151D01*
X115683275Y-31607519D01*
X115630809Y-31593086D01*
X115613220Y-31591386D01*
X115580031Y-31589823D01*
X115532777Y-31588422D01*
X115472998Y-31587207D01*
X115402231Y-31586204D01*
X115322013Y-31585438D01*
X115233882Y-31584934D01*
X115139376Y-31584718D01*
X115119469Y-31584711D01*
X114652286Y-31584711D01*
X114606491Y-31628022D01*
X114547170Y-31673751D01*
X114481260Y-31706234D01*
X114411822Y-31724487D01*
X114341917Y-31727525D01*
X114309992Y-31723457D01*
X114233564Y-31700966D01*
X114165565Y-31664297D01*
X114107477Y-31614936D01*
X114060782Y-31554374D01*
X114026961Y-31484100D01*
X114010244Y-31422288D01*
X114006121Y-31355157D01*
X114006391Y-31353492D01*
X114220166Y-31353492D01*
X114223589Y-31398185D01*
X114230305Y-31417923D01*
X114249611Y-31454882D01*
X114273903Y-31480454D01*
X114307850Y-31500038D01*
X114345308Y-31513063D01*
X114378814Y-31513619D01*
X114415891Y-31501707D01*
X114419608Y-31500047D01*
X114462224Y-31472707D01*
X114491349Y-31437230D01*
X114506452Y-31396414D01*
X114507000Y-31353054D01*
X114492462Y-31309944D01*
X114463229Y-31270797D01*
X114422262Y-31239833D01*
X114379076Y-31225563D01*
X114335316Y-31227985D01*
X114292624Y-31247102D01*
X114263953Y-31270719D01*
X114233662Y-31310825D01*
X114220166Y-31353492D01*
X114006391Y-31353492D01*
X114017157Y-31287045D01*
X114041818Y-31220855D01*
X114078570Y-31159494D01*
X114125879Y-31105866D01*
X114182210Y-31062876D01*
X114207293Y-31049129D01*
X114279889Y-31022669D01*
X114354380Y-31012454D01*
X114428455Y-31018113D01*
G37*
%TO.C,J8*%
D13*
X111576800Y-99450000D02*
X114076800Y-99450000D01*
X114076800Y-92950000D01*
X111576800Y-92950000D01*
X111576800Y-99450000D01*
D14*
%TO.C,C1*%
X119444600Y-81103948D02*
X119444600Y-82526452D01*
X116724600Y-81103948D02*
X116724600Y-82526452D01*
%TO.C,J4*%
D13*
X122909400Y-70719000D02*
X116409400Y-70719000D01*
X116409400Y-68219000D01*
X122909400Y-68219000D01*
X122909400Y-70719000D01*
D14*
%TO.C,F1*%
X122003736Y-90758600D02*
X123207864Y-90758600D01*
X122003736Y-92578600D02*
X123207864Y-92578600D01*
%TO.C,C2*%
X122772000Y-81076748D02*
X122772000Y-82499252D01*
X120052000Y-81076748D02*
X120052000Y-82499252D01*
%TO.C,D2*%
D13*
X112974600Y-49104400D02*
X116974600Y-49104400D01*
X116974600Y-45104400D01*
X112974600Y-45104400D01*
X112974600Y-49104400D01*
%TO.C,D3*%
X113000000Y-57104400D02*
X117000000Y-57104400D01*
X117000000Y-53104400D01*
X113000000Y-53104400D01*
X113000000Y-57104400D01*
D14*
%TO.C,TP8*%
X112583000Y-65709800D02*
G75*
G02*
X110683000Y-65709800I-950000J0D01*
G01*
X110683000Y-65709800D02*
G75*
G02*
X112583000Y-65709800I950000J0D01*
G01*
%TO.C,J1*%
D13*
X121178000Y-99450000D02*
X123678000Y-99450000D01*
X123678000Y-92950000D01*
X121178000Y-92950000D01*
X121178000Y-99450000D01*
D14*
%TO.C,FB1*%
X109650264Y-69213400D02*
X109196136Y-69213400D01*
X109650264Y-67743400D02*
X109196136Y-67743400D01*
%TO.C,U1*%
X115944000Y-81505000D02*
X115254000Y-81505000D01*
X115254000Y-81505000D02*
X115254000Y-76380000D01*
X106234000Y-81505000D02*
X106234000Y-80405000D01*
X105544000Y-81505000D02*
X106234000Y-81505000D01*
X115944000Y-83005000D02*
X115944000Y-81505000D01*
X105544000Y-83005000D02*
X105544000Y-81505000D01*
%TO.C,C5*%
X114200000Y-70619252D02*
X114200000Y-70096748D01*
X115670000Y-70619252D02*
X115670000Y-70096748D01*
%TO.C,C3*%
X110693252Y-72607000D02*
X109270748Y-72607000D01*
X110693252Y-69887000D02*
X109270748Y-69887000D01*
%TD*%
M02*
