%TF.GenerationSoftware,KiCad,Pcbnew,9.0.2*%
%TF.CreationDate,2025-10-09T09:29:39-05:00*%
%TF.ProjectId,MothBox5.0.2,4d6f7468-426f-4783-952e-302e322e6b69,5.0.2*%
%TF.SameCoordinates,Original*%
%TF.FileFunction,Soldermask,Top*%
%TF.FilePolarity,Negative*%
%FSLAX46Y46*%
G04 Gerber Fmt 4.6, Leading zero omitted, Abs format (unit mm)*
G04 Created by KiCad (PCBNEW 9.0.2) date 2025-10-09 09:29:39*
%MOMM*%
%LPD*%
G01*
G04 APERTURE LIST*
G04 Aperture macros list*
%AMRoundRect*
0 Rectangle with rounded corners*
0 $1 Rounding radius*
0 $2 $3 $4 $5 $6 $7 $8 $9 X,Y pos of 4 corners*
0 Add a 4 corners polygon primitive as box body*
4,1,4,$2,$3,$4,$5,$6,$7,$8,$9,$2,$3,0*
0 Add four circle primitives for the rounded corners*
1,1,$1+$1,$2,$3*
1,1,$1+$1,$4,$5*
1,1,$1+$1,$6,$7*
1,1,$1+$1,$8,$9*
0 Add four rect primitives between the rounded corners*
20,1,$1+$1,$2,$3,$4,$5,0*
20,1,$1+$1,$4,$5,$6,$7,0*
20,1,$1+$1,$6,$7,$8,$9,0*
20,1,$1+$1,$8,$9,$2,$3,0*%
G04 Aperture macros list end*
%ADD10RoundRect,0.250000X-1.075000X0.312500X-1.075000X-0.312500X1.075000X-0.312500X1.075000X0.312500X0*%
%ADD11R,0.800000X2.400000*%
%ADD12R,2.630000X1.520000*%
%ADD13RoundRect,0.225000X-0.225000X-0.250000X0.225000X-0.250000X0.225000X0.250000X-0.225000X0.250000X0*%
%ADD14RoundRect,0.075000X-0.075000X0.250000X-0.075000X-0.250000X0.075000X-0.250000X0.075000X0.250000X0*%
%ADD15R,2.400000X0.800000*%
%ADD16R,1.520000X2.630000*%
%ADD17C,1.000000*%
%ADD18RoundRect,0.250000X-0.539169X0.981111X-0.981111X0.539169X0.539169X-0.981111X0.981111X-0.539169X0*%
%ADD19R,0.450000X0.400000*%
%ADD20R,0.910000X0.400000*%
%ADD21R,0.910000X0.810000*%
%ADD22C,12.800000*%
%ADD23R,1.700000X1.700000*%
%ADD24C,1.700000*%
%ADD25R,1.800000X1.780000*%
%ADD26C,1.800000*%
%ADD27RoundRect,0.250000X-0.312500X-1.075000X0.312500X-1.075000X0.312500X1.075000X-0.312500X1.075000X0*%
%ADD28RoundRect,0.250000X0.312500X1.075000X-0.312500X1.075000X-0.312500X-1.075000X0.312500X-1.075000X0*%
%ADD29RoundRect,0.250000X1.075000X-0.312500X1.075000X0.312500X-1.075000X0.312500X-1.075000X-0.312500X0*%
%ADD30RoundRect,0.200000X0.200000X0.275000X-0.200000X0.275000X-0.200000X-0.275000X0.200000X-0.275000X0*%
%ADD31C,2.200000*%
%ADD32C,4.204000*%
G04 APERTURE END LIST*
D10*
%TO.C,R37*%
X121932128Y19928372D03*
X121932128Y17003372D03*
%TD*%
%TO.C,R15*%
X-13685185Y-3549651D03*
X-13685185Y-6474651D03*
%TD*%
D11*
%TO.C,LED13*%
X13164815Y53787849D03*
X18444815Y53787849D03*
D12*
X16104815Y53787849D03*
%TD*%
D10*
%TO.C,R17*%
X-26244678Y-26032629D03*
X-26244678Y-28957629D03*
%TD*%
D13*
%TO.C,C13*%
X33423881Y42861407D03*
X34973881Y42861407D03*
%TD*%
D10*
%TO.C,R22*%
X137604984Y50119912D03*
X137604984Y47194912D03*
%TD*%
%TO.C,R13*%
X35162498Y-15520039D03*
X35162498Y-18445039D03*
%TD*%
D14*
%TO.C,U18*%
X34854930Y41394962D03*
X34204930Y41394962D03*
X33554930Y41394962D03*
X33554930Y39594962D03*
X34204930Y39594962D03*
X34854930Y39594962D03*
%TD*%
D15*
%TO.C,LED9*%
X73957305Y32466849D03*
X73957305Y27186849D03*
D16*
X73957305Y29526849D03*
%TD*%
D11*
%TO.C,LED44*%
X12824288Y-28752541D03*
X7544288Y-28752541D03*
D12*
X9884288Y-28752541D03*
%TD*%
D15*
%TO.C,LED23*%
X-68720499Y44777468D03*
X-68720499Y39497468D03*
D16*
X-68720499Y41837468D03*
%TD*%
D11*
%TO.C,LED37*%
X73354815Y-18012151D03*
X68074815Y-18012151D03*
D12*
X70414815Y-18012151D03*
%TD*%
D17*
%TO.C,TP9*%
X-67749331Y22291322D03*
%TD*%
D11*
%TO.C,LED12*%
X109962528Y39797849D03*
X115242528Y39797849D03*
D12*
X112902528Y39797849D03*
%TD*%
D11*
%TO.C,LED35*%
X74654815Y-48062151D03*
X69374815Y-48062151D03*
D12*
X71714815Y-48062151D03*
%TD*%
D15*
%TO.C,LED40*%
X39414241Y-24668396D03*
X39414241Y-19388396D03*
D16*
X39414241Y-21728396D03*
%TD*%
D18*
%TO.C,R8*%
X133515012Y-23272435D03*
X131446724Y-25340723D03*
%TD*%
D15*
%TO.C,LED28*%
X149348989Y-12894689D03*
X149348989Y-7614689D03*
D16*
X149348989Y-9954689D03*
%TD*%
D19*
%TO.C,Q3*%
X1250882Y25456536D03*
X1250882Y26116535D03*
X1250882Y26766536D03*
X-649118Y26766536D03*
X-649118Y26116535D03*
X-649118Y25456536D03*
D20*
X300882Y26816537D03*
D21*
X300882Y25786537D03*
%TD*%
D22*
%TO.C,H3*%
X32214815Y73937849D03*
%TD*%
D15*
%TO.C,LED33*%
X123264815Y-53752151D03*
X123264815Y-48472151D03*
D16*
X123264815Y-50812151D03*
%TD*%
D11*
%TO.C,LED41*%
X44550556Y-32978424D03*
X39270556Y-32978424D03*
D12*
X41610556Y-32978424D03*
%TD*%
D11*
%TO.C,LED22*%
X-67655045Y30903755D03*
X-62375045Y30903755D03*
D12*
X-64715045Y30903755D03*
%TD*%
D11*
%TO.C,LED42*%
X42446264Y-47481387D03*
X47726264Y-47481387D03*
D12*
X45386264Y-47481387D03*
%TD*%
D10*
%TO.C,R23*%
X29701110Y57919480D03*
X29701110Y54994480D03*
%TD*%
D17*
%TO.C,TP4*%
X106764815Y38387849D03*
%TD*%
%TO.C,TP7*%
X100644448Y2305791D03*
%TD*%
D22*
%TO.C,H6*%
X-62785185Y-42062151D03*
%TD*%
D11*
%TO.C,LED21*%
X-45725536Y-5454480D03*
X-40445536Y-5454480D03*
D12*
X-42785536Y-5454480D03*
%TD*%
D23*
%TO.C,U5*%
X-50012001Y39448894D03*
D24*
X-50012001Y41988894D03*
X-47472001Y39448894D03*
X-47472001Y41988894D03*
X-44932002Y39448894D03*
X-44932001Y41988894D03*
X-42392001Y39448894D03*
X-42392001Y41988894D03*
X-39852001Y39448894D03*
X-39852001Y41988894D03*
X-37312001Y39448894D03*
X-37312001Y41988894D03*
X-34772001Y39448894D03*
X-34772001Y41988894D03*
X-32232000Y39448894D03*
X-32232001Y41988894D03*
X-29692001Y39448894D03*
X-29692001Y41988894D03*
X-27152001Y39448894D03*
X-27152001Y41988894D03*
X-24612001Y39448894D03*
X-24612001Y41988894D03*
X-22072002Y39448894D03*
X-22072001Y41988894D03*
X-19532001Y39448894D03*
X-19532001Y41988894D03*
X-16992001Y39448894D03*
X-16992001Y41988894D03*
X-14452001Y39448894D03*
X-14452001Y41988894D03*
X-11912002Y39448894D03*
X-11912001Y41988894D03*
X-9372000Y39448894D03*
X-9372001Y41988894D03*
X-6832001Y39448894D03*
X-6832001Y41988894D03*
X-4292001Y39448894D03*
X-4292001Y41988894D03*
X-1752001Y39448894D03*
X-1752001Y41988894D03*
%TD*%
D11*
%TO.C,LED38*%
X61524815Y-27912151D03*
X66804815Y-27912151D03*
D12*
X64464815Y-27912151D03*
%TD*%
D25*
%TO.C,H10*%
X88827556Y76664779D03*
D26*
X91367556Y76664779D03*
X88827556Y74124779D03*
X91367556Y74124779D03*
X88827556Y71584779D03*
X91367556Y71584779D03*
X88827556Y69044779D03*
X91367556Y69044779D03*
%TD*%
D11*
%TO.C,LED20*%
X-22220522Y2937849D03*
X-27500522Y2937849D03*
D12*
X-25160522Y2937849D03*
%TD*%
D11*
%TO.C,LED16*%
X-65875185Y-29512151D03*
X-60595185Y-29512151D03*
D12*
X-62935185Y-29512151D03*
%TD*%
D27*
%TO.C,R16*%
X152362506Y13603935D03*
X155287506Y13603935D03*
%TD*%
D28*
%TO.C,R24*%
X-47247654Y-24967801D03*
X-50172654Y-24967801D03*
%TD*%
D15*
%TO.C,LED7*%
X98753974Y9874638D03*
X98753974Y15154638D03*
D16*
X98753974Y12814638D03*
%TD*%
D11*
%TO.C,LED52*%
X123143246Y13469896D03*
X117863246Y13469896D03*
D12*
X120203246Y13469896D03*
%TD*%
D11*
%TO.C,LED53*%
X133012853Y-5999252D03*
X127732853Y-5999252D03*
D12*
X130072853Y-5999252D03*
%TD*%
D19*
%TO.C,Q7*%
X122885904Y26753819D03*
X122885904Y27413818D03*
X122885904Y28063819D03*
X120985904Y28063819D03*
X120985904Y27413818D03*
X120985904Y26753819D03*
D20*
X121935904Y28113820D03*
D21*
X121935904Y27083820D03*
%TD*%
D11*
%TO.C,LED2*%
X-34378623Y-39273687D03*
X-29098623Y-39273687D03*
D12*
X-31438623Y-39273687D03*
%TD*%
D29*
%TO.C,R18*%
X13021754Y9045081D03*
X13021754Y11970081D03*
%TD*%
D15*
%TO.C,LED34*%
X89653568Y-32067606D03*
X89653568Y-26787606D03*
D16*
X89653568Y-29127606D03*
%TD*%
D17*
%TO.C,TP6*%
X128267838Y24986014D03*
%TD*%
D11*
%TO.C,LED15*%
X63329814Y45116682D03*
X58049814Y45116682D03*
D12*
X60389814Y45116682D03*
%TD*%
D11*
%TO.C,LED8*%
X86419596Y3861772D03*
X91699596Y3861772D03*
D12*
X89359596Y3861772D03*
%TD*%
D15*
%TO.C,LED25*%
X156434036Y21823489D03*
X156434036Y16543489D03*
D16*
X156434036Y18883489D03*
%TD*%
D30*
%TO.C,R9*%
X122731363Y29449739D03*
X121081363Y29449739D03*
%TD*%
D11*
%TO.C,LED18*%
X-66812031Y-4052383D03*
X-61532031Y-4052383D03*
D12*
X-63872031Y-4052383D03*
%TD*%
D11*
%TO.C,LED10*%
X128672760Y49092134D03*
X133952760Y49092134D03*
D12*
X131612760Y49092134D03*
%TD*%
D11*
%TO.C,LED36*%
X91269834Y-47551229D03*
X85989834Y-47551229D03*
D12*
X88329834Y-47551229D03*
%TD*%
D15*
%TO.C,LED1*%
X-43968473Y-37821826D03*
X-43968473Y-32541826D03*
D16*
X-43968473Y-34881826D03*
%TD*%
D15*
%TO.C,LED49*%
X72237502Y45398461D03*
X72237502Y50678461D03*
D16*
X72237502Y48338461D03*
%TD*%
D15*
%TO.C,LED30*%
X158680815Y-35107165D03*
X158680815Y-29827165D03*
D16*
X158680815Y-32167165D03*
%TD*%
D15*
%TO.C,LED46*%
X-23452121Y-12643335D03*
X-23452121Y-7363335D03*
D16*
X-23452121Y-9703335D03*
%TD*%
D22*
%TO.C,H7*%
X153714815Y-46562151D03*
%TD*%
D15*
%TO.C,LED39*%
X61735751Y-44702319D03*
X61735751Y-39422319D03*
D16*
X61735751Y-41762319D03*
%TD*%
D17*
%TO.C,TP3*%
X127364815Y33237849D03*
%TD*%
D15*
%TO.C,LED27*%
X154160114Y57628725D03*
X154160114Y52348725D03*
D16*
X154160114Y54688725D03*
%TD*%
D11*
%TO.C,LED50*%
X88150103Y48090952D03*
X82870103Y48090952D03*
D12*
X85210103Y48090952D03*
%TD*%
D18*
%TO.C,R28*%
X93484709Y55279973D03*
X91416421Y53211685D03*
%TD*%
D11*
%TO.C,LED31*%
X105124815Y-9912151D03*
X110404815Y-9912151D03*
D12*
X108064815Y-9912151D03*
%TD*%
D10*
%TO.C,R10*%
X86402034Y-10815518D03*
X86402034Y-13740518D03*
%TD*%
D15*
%TO.C,LED32*%
X119514815Y-37952151D03*
X119514815Y-32672151D03*
D16*
X119514815Y-35012151D03*
%TD*%
D22*
%TO.C,H4*%
X-63935185Y72187849D03*
%TD*%
D11*
%TO.C,LED48*%
X-15657713Y-50113872D03*
X-20937713Y-50113872D03*
D12*
X-18597713Y-50113872D03*
%TD*%
D17*
%TO.C,TP2*%
X148970711Y-27151745D03*
%TD*%
D15*
%TO.C,LED51*%
X100425197Y40220959D03*
X100425197Y45500959D03*
D16*
X100425197Y43160959D03*
%TD*%
D11*
%TO.C,LED6*%
X-7652359Y12630475D03*
X-2372359Y12630475D03*
D12*
X-4712359Y12630475D03*
%TD*%
D22*
%TO.C,H5*%
X-63300000Y10884329D03*
%TD*%
D10*
%TO.C,R14*%
X3039064Y-10205001D03*
X3039064Y-13130001D03*
%TD*%
D17*
%TO.C,TP8*%
X18208170Y79732148D03*
%TD*%
D11*
%TO.C,LED3*%
X-44275185Y-51412151D03*
X-38995185Y-51412151D03*
D12*
X-41335185Y-51412151D03*
%TD*%
D11*
%TO.C,LED4*%
X15583214Y26514862D03*
X20863214Y26514862D03*
D12*
X18523214Y26514862D03*
%TD*%
D15*
%TO.C,LED54*%
X137992829Y11973809D03*
X137992829Y6693809D03*
D16*
X137992829Y9033809D03*
%TD*%
D11*
%TO.C,LED47*%
X-15645185Y-21512151D03*
X-20925185Y-21512151D03*
D12*
X-18585185Y-21512151D03*
%TD*%
D28*
%TO.C,R26*%
X-56638993Y28962261D03*
X-59563993Y28962261D03*
%TD*%
D15*
%TO.C,LED45*%
X16449790Y-16356998D03*
X16449790Y-21636998D03*
D16*
X16449790Y-19296998D03*
%TD*%
D15*
%TO.C,LED5*%
X9845089Y-3502151D03*
X9845089Y1777849D03*
D16*
X9845089Y-562151D03*
%TD*%
D10*
%TO.C,R12*%
X66457030Y-12086852D03*
X66457030Y-15011852D03*
%TD*%
%TO.C,R25*%
X-35556060Y21652849D03*
X-35556060Y18727849D03*
%TD*%
D11*
%TO.C,LED14*%
X36062288Y50273830D03*
X30782288Y50273830D03*
D12*
X33122288Y50273830D03*
%TD*%
D15*
%TO.C,LED17*%
X-66035185Y-11322151D03*
X-66035185Y-16602151D03*
D16*
X-66035185Y-14262151D03*
%TD*%
D25*
%TO.C,H9*%
X-3153838Y77032342D03*
D26*
X-613838Y77032342D03*
X-3153838Y74492342D03*
X-613838Y74492342D03*
X-3153838Y71952342D03*
X-613838Y71952342D03*
X-3153838Y69412342D03*
X-613838Y69412342D03*
%TD*%
D25*
%TO.C,H8*%
X145620519Y76898184D03*
D26*
X148160519Y76898184D03*
X145620519Y74358184D03*
X148160519Y74358184D03*
X145620519Y71818184D03*
X148160519Y71818184D03*
X145620519Y69278184D03*
X148160519Y69278184D03*
%TD*%
D22*
%TO.C,H2*%
X155714815Y65937849D03*
%TD*%
D11*
%TO.C,LED11*%
X117969562Y45680128D03*
X123249562Y45680128D03*
D12*
X120909562Y45680128D03*
%TD*%
D17*
%TO.C,TP10*%
X146615789Y-54705402D03*
%TD*%
D27*
%TO.C,R7*%
X142907750Y-5814389D03*
X145832750Y-5814389D03*
%TD*%
D17*
%TO.C,TP5*%
X136316275Y-19642711D03*
%TD*%
D30*
%TO.C,R11*%
X1109568Y28221473D03*
X-540432Y28221473D03*
%TD*%
D11*
%TO.C,LED29*%
X150994815Y-23062151D03*
X145714815Y-23062151D03*
D12*
X148054815Y-23062151D03*
%TD*%
D11*
%TO.C,LED43*%
X17157522Y-39514134D03*
X11877522Y-39514134D03*
D12*
X14217522Y-39514134D03*
%TD*%
D11*
%TO.C,LED24*%
X-64241445Y57102811D03*
X-69521445Y57102811D03*
D12*
X-67181445Y57102811D03*
%TD*%
D10*
%TO.C,R20*%
X103850261Y18119227D03*
X103850261Y15194227D03*
%TD*%
D11*
%TO.C,LED26*%
X155195902Y32762923D03*
X160475902Y32762923D03*
D12*
X158135902Y32762923D03*
%TD*%
D11*
%TO.C,LED19*%
X-45128725Y12615695D03*
X-39848725Y12615695D03*
D12*
X-42188725Y12615695D03*
%TD*%
D24*
%TO.C,J4*%
X157061743Y45616086D03*
X151981743Y45616086D03*
X157061743Y43076086D03*
X151981743Y43076086D03*
X157061743Y40536086D03*
X151981743Y40536086D03*
X157061743Y37996086D03*
X151981743Y37996086D03*
%TD*%
D31*
%TO.C,C16*%
X118675583Y9548297D03*
X118675583Y17048297D03*
%TD*%
D23*
%TO.C,U7*%
X-49915185Y49490349D03*
D24*
X-49915185Y46950349D03*
X-47375185Y49490349D03*
X-47375185Y46950349D03*
X-44835185Y49490349D03*
X-44835185Y46950349D03*
X-42295185Y49490349D03*
X-42295185Y46950349D03*
X-39755185Y49490349D03*
X-39755185Y46950349D03*
X-37215185Y49490349D03*
X-37215185Y46950349D03*
X-34675185Y49490349D03*
X-34675185Y46950349D03*
X-32135185Y49490349D03*
X-32135185Y46950349D03*
X-29595185Y49490349D03*
X-29595185Y46950349D03*
X-27055185Y49490349D03*
X-27055185Y46950349D03*
X-24515185Y49490349D03*
X-24515185Y46950349D03*
X-21975185Y49490349D03*
X-21975185Y46950349D03*
X-19435185Y49490349D03*
X-19435185Y46950349D03*
X-16895185Y49490349D03*
X-16895185Y46950349D03*
X-14355185Y49490349D03*
X-14355185Y46950349D03*
X-11815185Y49490349D03*
X-11815185Y46950349D03*
X-9275185Y49490349D03*
X-9275185Y46950349D03*
X-6735185Y49490349D03*
X-6735185Y46950349D03*
X-4195185Y49490349D03*
X-4195185Y46950349D03*
X-1655185Y49490349D03*
X-1655185Y46950349D03*
%TD*%
%TO.C,J3*%
X157079878Y-8069029D03*
X151999878Y-8069029D03*
X157079878Y-10609029D03*
X151999878Y-10609029D03*
X157079878Y-13149029D03*
X151999878Y-13149029D03*
X157079878Y-15689029D03*
X151999878Y-15689029D03*
%TD*%
D23*
%TO.C,U8*%
X109003998Y37067769D03*
D24*
X111543998Y37067769D03*
X114083998Y37067769D03*
X116623998Y37067769D03*
X119163998Y37067769D03*
%TD*%
%TO.C,J2*%
X138114741Y-52138937D03*
X138114741Y-47058937D03*
X135574741Y-52138937D03*
X135574741Y-47058937D03*
X133034741Y-52138937D03*
X133034741Y-47058937D03*
X130494741Y-52138937D03*
X130494741Y-47058937D03*
%TD*%
D32*
%TO.C,U6*%
X-54285185Y54437849D03*
X3214815Y54437849D03*
X-54285185Y69437849D03*
X3214815Y69437849D03*
%TD*%
D31*
%TO.C,C1*%
X-62650000Y51234329D03*
X-62650000Y43734329D03*
%TD*%
D24*
%TO.C,J1*%
X156914327Y8694689D03*
X151834327Y8694689D03*
X156914327Y6154689D03*
X151834327Y6154689D03*
X156914327Y3614689D03*
X151834327Y3614689D03*
X156914327Y1074689D03*
X151834327Y1074689D03*
%TD*%
D23*
%TO.C,H1*%
X110274815Y27787849D03*
D24*
X112814815Y27787849D03*
X115354814Y27787849D03*
X117894815Y27787849D03*
%TD*%
D17*
%TO.C,TP1*%
X99243003Y-15812151D03*
%TD*%
D31*
%TO.C,C14*%
X132992507Y-29530312D03*
X125492507Y-29530312D03*
%TD*%
M02*
