%TF.GenerationSoftware,KiCad,Pcbnew,9.0.2*%
%TF.CreationDate,2025-05-14T09:05:42+08:00*%
%TF.ProjectId,MothBo,4d6f7468-426f-42e6-9b69-6361645f7063,5.0.0*%
%TF.SameCoordinates,Original*%
%TF.FileFunction,Soldermask,Bot*%
%TF.FilePolarity,Negative*%
%FSLAX46Y46*%
G04 Gerber Fmt 4.6, Leading zero omitted, Abs format (unit mm)*
G04 Created by KiCad (PCBNEW 9.0.2) date 2025-05-14 09:05:42*
%MOMM*%
%LPD*%
G01*
G04 APERTURE LIST*
G04 Aperture macros list*
%AMRoundRect*
0 Rectangle with rounded corners*
0 $1 Rounding radius*
0 $2 $3 $4 $5 $6 $7 $8 $9 X,Y pos of 4 corners*
0 Add a 4 corners polygon primitive as box body*
4,1,4,$2,$3,$4,$5,$6,$7,$8,$9,$2,$3,0*
0 Add four circle primitives for the rounded corners*
1,1,$1+$1,$2,$3*
1,1,$1+$1,$4,$5*
1,1,$1+$1,$6,$7*
1,1,$1+$1,$8,$9*
0 Add four rect primitives between the rounded corners*
20,1,$1+$1,$2,$3,$4,$5,0*
20,1,$1+$1,$4,$5,$6,$7,0*
20,1,$1+$1,$6,$7,$8,$9,0*
20,1,$1+$1,$8,$9,$2,$3,0*%
G04 Aperture macros list end*
%ADD10RoundRect,0.250000X-1.000000X1.000000X-1.000000X-1.000000X1.000000X-1.000000X1.000000X1.000000X0*%
%ADD11C,2.500000*%
%ADD12C,1.905000*%
%ADD13C,2.857500*%
%ADD14RoundRect,0.250000X-0.300000X-0.300000X0.300000X-0.300000X0.300000X0.300000X-0.300000X0.300000X0*%
%ADD15RoundRect,0.112500X0.112500X-0.187500X0.112500X0.187500X-0.112500X0.187500X-0.112500X-0.187500X0*%
%ADD16RoundRect,0.250000X-0.450000X0.262500X-0.450000X-0.262500X0.450000X-0.262500X0.450000X0.262500X0*%
%ADD17RoundRect,0.249997X2.950003X2.650003X-2.950003X2.650003X-2.950003X-2.650003X2.950003X-2.650003X0*%
%ADD18RoundRect,0.250000X0.850000X0.350000X-0.850000X0.350000X-0.850000X-0.350000X0.850000X-0.350000X0*%
%ADD19RoundRect,0.250000X-0.262500X-0.450000X0.262500X-0.450000X0.262500X0.450000X-0.262500X0.450000X0*%
%ADD20RoundRect,0.150000X0.587500X0.150000X-0.587500X0.150000X-0.587500X-0.150000X0.587500X-0.150000X0*%
%ADD21R,1.700000X1.700000*%
%ADD22C,1.700000*%
%ADD23RoundRect,0.250000X0.450000X-0.262500X0.450000X0.262500X-0.450000X0.262500X-0.450000X-0.262500X0*%
%ADD24RoundRect,0.250000X0.262500X0.450000X-0.262500X0.450000X-0.262500X-0.450000X0.262500X-0.450000X0*%
%ADD25RoundRect,0.250000X0.475000X-0.337500X0.475000X0.337500X-0.475000X0.337500X-0.475000X-0.337500X0*%
%ADD26RoundRect,0.112500X-0.112500X0.187500X-0.112500X-0.187500X0.112500X-0.187500X0.112500X0.187500X0*%
%ADD27RoundRect,0.150000X0.150000X-0.587500X0.150000X0.587500X-0.150000X0.587500X-0.150000X-0.587500X0*%
%ADD28RoundRect,0.112500X0.187500X0.112500X-0.187500X0.112500X-0.187500X-0.112500X0.187500X-0.112500X0*%
%ADD29RoundRect,0.102000X0.550000X-0.850000X0.550000X0.850000X-0.550000X0.850000X-0.550000X-0.850000X0*%
%ADD30RoundRect,0.102000X0.750000X0.550000X-0.750000X0.550000X-0.750000X-0.550000X0.750000X-0.550000X0*%
%ADD31RoundRect,0.250001X1.149999X-1.149999X1.149999X1.149999X-1.149999X1.149999X-1.149999X-1.149999X0*%
%ADD32C,2.800000*%
%ADD33C,6.404000*%
%ADD34RoundRect,0.250000X0.475000X-0.250000X0.475000X0.250000X-0.475000X0.250000X-0.475000X-0.250000X0*%
%ADD35RoundRect,0.150000X0.150000X-0.825000X0.150000X0.825000X-0.150000X0.825000X-0.150000X-0.825000X0*%
%ADD36R,4.600000X2.000000*%
%ADD37O,4.200000X2.000000*%
%ADD38O,2.000000X4.200000*%
%ADD39RoundRect,0.675000X0.675000X0.675000X-0.675000X0.675000X-0.675000X-0.675000X0.675000X-0.675000X0*%
%ADD40C,2.700000*%
%ADD41RoundRect,0.150000X-0.825000X-0.150000X0.825000X-0.150000X0.825000X0.150000X-0.825000X0.150000X0*%
%ADD42RoundRect,0.250000X-1.950000X-1.000000X1.950000X-1.000000X1.950000X1.000000X-1.950000X1.000000X0*%
%ADD43RoundRect,0.250000X0.362500X1.425000X-0.362500X1.425000X-0.362500X-1.425000X0.362500X-1.425000X0*%
%ADD44RoundRect,0.100500X-0.301500X1.031500X-0.301500X-1.031500X0.301500X-1.031500X0.301500X1.031500X0*%
%ADD45R,1.905000X2.000000*%
%ADD46O,1.905000X2.000000*%
%ADD47RoundRect,0.150000X0.825000X0.150000X-0.825000X0.150000X-0.825000X-0.150000X0.825000X-0.150000X0*%
%ADD48RoundRect,0.102000X0.850000X0.550000X-0.850000X0.550000X-0.850000X-0.550000X0.850000X-0.550000X0*%
%ADD49C,0.400000*%
%ADD50RoundRect,0.102000X0.350000X1.000000X-0.350000X1.000000X-0.350000X-1.000000X0.350000X-1.000000X0*%
%ADD51RoundRect,0.102000X0.380000X1.000000X-0.380000X1.000000X-0.380000X-1.000000X0.380000X-1.000000X0*%
%ADD52RoundRect,0.102000X0.400000X1.000000X-0.400000X1.000000X-0.400000X-1.000000X0.400000X-1.000000X0*%
%ADD53O,1.204000X2.204000*%
%ADD54RoundRect,0.150000X-0.587500X-0.150000X0.587500X-0.150000X0.587500X0.150000X-0.587500X0.150000X0*%
%ADD55RoundRect,0.250000X1.000000X-1.750000X1.000000X1.750000X-1.000000X1.750000X-1.000000X-1.750000X0*%
G04 APERTURE END LIST*
D10*
%TO.C,J1*%
X158500000Y-70765671D03*
D11*
X158500000Y-80765671D03*
%TD*%
D12*
%TO.C,A1*%
X35061497Y29246355D03*
X37561331Y29246355D03*
X35061497Y32764329D03*
X37561331Y32764329D03*
X34928203Y14741147D03*
X37416361Y14743415D03*
D13*
X-1111190Y14483124D03*
X-1000000Y33064329D03*
%TD*%
D12*
%TO.C,A2*%
X71854864Y17731389D03*
X69355030Y17731389D03*
X71854864Y14213415D03*
X69355030Y14213415D03*
X71988158Y32236597D03*
X69500000Y32234329D03*
%TD*%
%TO.C,A3*%
X-11500000Y29234329D03*
X-9000166Y29234329D03*
X-11500000Y32752303D03*
X-9000166Y32752303D03*
X-11633294Y14729121D03*
X-9145136Y14731389D03*
D13*
X-47672687Y14471098D03*
X-47561497Y33052303D03*
%TD*%
D14*
%TO.C,E1*%
X144700000Y-69225671D03*
X147500000Y-69225671D03*
%TD*%
D15*
%TO.C,D36*%
X107180000Y-32373171D03*
X107180000Y-30273171D03*
%TD*%
D16*
%TO.C,R81*%
X125390000Y-31163171D03*
X125390000Y-32988171D03*
%TD*%
D17*
%TO.C,Q2*%
X107550000Y-42835671D03*
D18*
X113850000Y-40555671D03*
X113850000Y-45115671D03*
%TD*%
D19*
%TO.C,R77*%
X68852500Y-1845671D03*
X70677500Y-1845671D03*
%TD*%
D16*
%TO.C,R76*%
X12260000Y25546829D03*
X12260000Y23721829D03*
%TD*%
D20*
%TO.C,Q9*%
X9987500Y25516829D03*
X9987500Y23616829D03*
X8112500Y24566829D03*
%TD*%
D21*
%TO.C,J5*%
X-52500000Y15614329D03*
D22*
X-52500000Y18154329D03*
X-52500000Y20694329D03*
X-52500000Y23234329D03*
X-52500000Y25774329D03*
%TD*%
D16*
%TO.C,R1*%
X117610000Y-43323171D03*
X117610000Y-45148171D03*
%TD*%
%TO.C,R47*%
X-35500000Y-17073171D03*
X-35500000Y-18898171D03*
%TD*%
%TO.C,R84*%
X2670000Y1579329D03*
X2670000Y-245671D03*
%TD*%
D23*
%TO.C,R33*%
X-18320000Y15161829D03*
X-18320000Y16986829D03*
%TD*%
D20*
%TO.C,Q3*%
X119487500Y-39255671D03*
X119487500Y-41155671D03*
X117612500Y-40205671D03*
%TD*%
D23*
%TO.C,R19*%
X-20840000Y15161829D03*
X-20840000Y16986829D03*
%TD*%
D24*
%TO.C,R35*%
X-55697500Y-30662290D03*
X-57522500Y-30662290D03*
%TD*%
D23*
%TO.C,R32*%
X-23400000Y15161829D03*
X-23400000Y16986829D03*
%TD*%
D24*
%TO.C,R37*%
X-55697500Y-905671D03*
X-57522500Y-905671D03*
%TD*%
D25*
%TO.C,C5*%
X119900000Y-45143171D03*
X119900000Y-43068171D03*
%TD*%
D23*
%TO.C,R30*%
X-33540000Y15161829D03*
X-33540000Y16986829D03*
%TD*%
D24*
%TO.C,R23*%
X-55697500Y1674329D03*
X-57522500Y1674329D03*
%TD*%
D26*
%TO.C,D30*%
X-5210000Y27901829D03*
X-5210000Y25801829D03*
%TD*%
D23*
%TO.C,R31*%
X-28520000Y15161829D03*
X-28520000Y16986829D03*
%TD*%
D27*
%TO.C,Q8*%
X70635000Y-6093171D03*
X68735000Y-6093171D03*
X69685000Y-4218171D03*
%TD*%
D28*
%TO.C,D29*%
X68560000Y9314329D03*
X66460000Y9314329D03*
%TD*%
D29*
%TO.C,SW3*%
X-18310000Y20071829D03*
X-18310000Y28971829D03*
X-20850000Y20071829D03*
X-20850000Y28971829D03*
X-23390000Y20071829D03*
X-23390000Y28971829D03*
%TD*%
D30*
%TO.C,SW6*%
X-62100000Y-10415671D03*
X-71000000Y-10415671D03*
X-62100000Y-12955671D03*
X-71000000Y-12955671D03*
X-62100000Y-15495671D03*
X-71000000Y-15495671D03*
X-62100000Y-18035671D03*
X-71000000Y-18035671D03*
X-62100000Y-20575671D03*
X-71000000Y-20575671D03*
X-62100000Y-23115671D03*
X-71000000Y-23115671D03*
%TD*%
D31*
%TO.C,U2*%
X158600000Y-63265671D03*
D32*
X158600000Y-58265671D03*
X158600000Y-53265671D03*
X158600000Y-48265671D03*
%TD*%
D33*
%TO.C,U4*%
X158237500Y21736829D03*
X100237500Y21736829D03*
X100237500Y-27263171D03*
%TD*%
D34*
%TO.C,C18*%
X-10380000Y-18535671D03*
X-10380000Y-16635671D03*
%TD*%
D23*
%TO.C,R78*%
X5852500Y23529329D03*
X5852500Y25354329D03*
%TD*%
D35*
%TO.C,U8*%
X73095000Y1269329D03*
X71825000Y1269329D03*
X70555000Y1269329D03*
X69285000Y1269329D03*
X69285000Y6219329D03*
X70555000Y6219329D03*
X71825000Y6219329D03*
X73095000Y6219329D03*
%TD*%
D24*
%TO.C,R36*%
X-55697500Y-5985671D03*
X-57522500Y-5985671D03*
%TD*%
D36*
%TO.C,J7*%
X97500000Y-36465671D03*
D37*
X97500000Y-42765671D03*
D38*
X92700000Y-39365671D03*
%TD*%
D26*
%TO.C,D31*%
X29490000Y31544329D03*
X29490000Y29444329D03*
%TD*%
D23*
%TO.C,R80*%
X12260000Y30251829D03*
X12260000Y32076829D03*
%TD*%
D16*
%TO.C,R82*%
X18690000Y32086829D03*
X18690000Y30261829D03*
%TD*%
D39*
%TO.C,F1*%
X142330000Y-82515671D03*
X135570000Y-82515671D03*
D40*
X128290000Y-82515671D03*
X121530000Y-82515671D03*
%TD*%
D24*
%TO.C,R2*%
X119522500Y-37065671D03*
X117697500Y-37065671D03*
%TD*%
%TO.C,R75*%
X70657500Y-8665671D03*
X68832500Y-8665671D03*
%TD*%
%TO.C,R22*%
X-55697500Y-3565671D03*
X-57522500Y-3565671D03*
%TD*%
D41*
%TO.C,U11*%
X21365000Y27749329D03*
X21365000Y29019329D03*
X21365000Y30289329D03*
X21365000Y31559329D03*
X26315000Y31559329D03*
X26315000Y30289329D03*
X26315000Y29019329D03*
X26315000Y27749329D03*
%TD*%
D24*
%TO.C,R34*%
X-55697500Y-35585671D03*
X-57522500Y-35585671D03*
%TD*%
D21*
%TO.C,U3*%
X101600000Y31234329D03*
D22*
X101600000Y28694329D03*
X104140000Y31234329D03*
X104140000Y28694329D03*
X106680000Y31234329D03*
X106680000Y28694329D03*
X109220000Y31234329D03*
X109220000Y28694329D03*
X111760000Y31234329D03*
X111760000Y28694329D03*
X114300000Y31234329D03*
X114300000Y28694329D03*
X116840000Y31234329D03*
X116840000Y28694329D03*
X119380000Y31234329D03*
X119380000Y28694329D03*
X121920000Y31234329D03*
X121920000Y28694329D03*
X124460000Y31234329D03*
X124460000Y28694329D03*
X127000000Y31234329D03*
X127000000Y28694329D03*
X129540000Y31234329D03*
X129540000Y28694329D03*
X132080000Y31234329D03*
X132080000Y28694329D03*
X134620000Y31234329D03*
X134620000Y28694329D03*
X137160000Y31234329D03*
X137160000Y28694329D03*
X139700000Y31234329D03*
X139700000Y28694329D03*
X142240000Y31234329D03*
X142240000Y28694329D03*
X144780000Y31234329D03*
X144780000Y28694329D03*
X147320000Y31234329D03*
X147320000Y28694329D03*
X149860000Y31234329D03*
X149860000Y28694329D03*
%TD*%
D24*
%TO.C,R42*%
X-55697500Y-12995671D03*
X-57522500Y-12995671D03*
%TD*%
%TO.C,R39*%
X-55697500Y9174329D03*
X-57522500Y9174329D03*
%TD*%
D23*
%TO.C,R86*%
X4110000Y-18398171D03*
X4110000Y-16573171D03*
%TD*%
D24*
%TO.C,R24*%
X-55697500Y6634329D03*
X-57522500Y6634329D03*
%TD*%
D23*
%TO.C,R18*%
X-31010000Y15161829D03*
X-31010000Y16986829D03*
%TD*%
D42*
%TO.C,C1*%
X126080000Y-70525671D03*
X134480000Y-70525671D03*
%TD*%
D24*
%TO.C,R38*%
X-55697500Y4064329D03*
X-57522500Y4064329D03*
%TD*%
D16*
%TO.C,R83*%
X480000Y1579329D03*
X480000Y-245671D03*
%TD*%
D43*
%TO.C,RJ1*%
X114892500Y23534329D03*
X108967500Y23534329D03*
%TD*%
D44*
%TO.C,U12*%
X-10355000Y-3873171D03*
X-9085000Y-3873171D03*
X-7815000Y-3873171D03*
X-6545000Y-3873171D03*
X-5275000Y-3873171D03*
X-4005000Y-3873171D03*
X-2735000Y-3873171D03*
X-1465000Y-3873171D03*
X-195000Y-3873171D03*
X1075000Y-3873171D03*
X2345000Y-3873171D03*
X3615000Y-3873171D03*
X3615000Y-13153171D03*
X2345000Y-13153171D03*
X1075000Y-13153171D03*
X-195000Y-13153171D03*
X-1465000Y-13153171D03*
X-2735000Y-13153171D03*
X-4005000Y-13153171D03*
X-5275000Y-13153171D03*
X-6545000Y-13153171D03*
X-7815000Y-13153171D03*
X-9085000Y-13153171D03*
X-10355000Y-13153171D03*
%TD*%
D45*
%TO.C,Q1*%
X137500000Y-91765671D03*
D46*
X134960000Y-91765671D03*
X132420000Y-91765671D03*
%TD*%
D23*
%TO.C,R28*%
X-43770000Y15161829D03*
X-43770000Y16986829D03*
%TD*%
D47*
%TO.C,U9*%
X3067500Y27891829D03*
X3067500Y26621829D03*
X3067500Y25351829D03*
X3067500Y24081829D03*
X-1882500Y24081829D03*
X-1882500Y25351829D03*
X-1882500Y26621829D03*
X-1882500Y27891829D03*
%TD*%
D34*
%TO.C,C13*%
X-50290000Y-18835671D03*
X-50290000Y-16935671D03*
%TD*%
D23*
%TO.C,R29*%
X-38680000Y15161829D03*
X-38680000Y16986829D03*
%TD*%
D48*
%TO.C,SW4*%
X-62100000Y-27985671D03*
X-71000000Y-27985671D03*
X-62100000Y-30525671D03*
X-71000000Y-30525671D03*
X-62100000Y-33065671D03*
X-71000000Y-33065671D03*
X-62100000Y-35605671D03*
X-71000000Y-35605671D03*
%TD*%
D23*
%TO.C,R50*%
X-39400000Y-498171D03*
X-39400000Y1326829D03*
%TD*%
D29*
%TO.C,SW2*%
X-28490000Y20041829D03*
X-28490000Y28941829D03*
X-31030000Y20041829D03*
X-31030000Y28941829D03*
X-33570000Y20041829D03*
X-33570000Y28941829D03*
X-36110000Y20041829D03*
X-36110000Y28941829D03*
X-38650000Y20041829D03*
X-38650000Y28941829D03*
X-41190000Y20041829D03*
X-41190000Y28941829D03*
X-43730000Y20041829D03*
X-43730000Y28941829D03*
%TD*%
D16*
%TO.C,R48*%
X-37790000Y-17073171D03*
X-37790000Y-18898171D03*
%TD*%
D49*
%TO.C,J2*%
X111520000Y-56265671D03*
X111520000Y-56165671D03*
X111520000Y-56115671D03*
X111520000Y-56015671D03*
X111520000Y-55815671D03*
X111520000Y-55715671D03*
X111520000Y-55665671D03*
X111520000Y-55565671D03*
X111520000Y-52465671D03*
X111520000Y-52365671D03*
X111520000Y-52315671D03*
X111520000Y-52215671D03*
X111520000Y-52015671D03*
X111520000Y-51915671D03*
X111520000Y-51865671D03*
X111520000Y-51765671D03*
X102880000Y-56265671D03*
X102880000Y-56165671D03*
X102880000Y-56115671D03*
X102880000Y-56015671D03*
X102880000Y-55815671D03*
X102880000Y-55715671D03*
X102880000Y-55665671D03*
X102880000Y-55615671D03*
X102880000Y-52465671D03*
X102880000Y-52415671D03*
X102880000Y-52315671D03*
X102880000Y-52015671D03*
X102880000Y-51915671D03*
X102880000Y-51865671D03*
X102880000Y-51765671D03*
D50*
X107700000Y-51565671D03*
D51*
X105680000Y-51565671D03*
D52*
X104450000Y-51565671D03*
D50*
X106700000Y-51565671D03*
D51*
X108720000Y-51565671D03*
D52*
X109950000Y-51565671D03*
D53*
X111500000Y-55915671D03*
X102900000Y-55915671D03*
X102900000Y-52115671D03*
X111520000Y-52115671D03*
%TD*%
D24*
%TO.C,R25*%
X-55697500Y-20575671D03*
X-57522500Y-20575671D03*
%TD*%
D47*
%TO.C,U10*%
X115456250Y-28555671D03*
X115456250Y-29825671D03*
X115456250Y-31095671D03*
X115456250Y-32365671D03*
X110506250Y-32365671D03*
X110506250Y-31095671D03*
X110506250Y-29825671D03*
X110506250Y-28555671D03*
%TD*%
D24*
%TO.C,R20*%
X-55697500Y-33268909D03*
X-57522500Y-33268909D03*
%TD*%
D54*
%TO.C,Q11*%
X14552500Y30264329D03*
X14552500Y32164329D03*
X16427500Y31214329D03*
%TD*%
D23*
%TO.C,R79*%
X118401250Y-32878171D03*
X118401250Y-31053171D03*
%TD*%
D28*
%TO.C,E3*%
X105660000Y-48055671D03*
X103560000Y-48055671D03*
%TD*%
D44*
%TO.C,U13*%
X-50295000Y-3963171D03*
X-49025000Y-3963171D03*
X-47755000Y-3963171D03*
X-46485000Y-3963171D03*
X-45215000Y-3963171D03*
X-43945000Y-3963171D03*
X-42675000Y-3963171D03*
X-41405000Y-3963171D03*
X-40135000Y-3963171D03*
X-38865000Y-3963171D03*
X-37595000Y-3963171D03*
X-36325000Y-3963171D03*
X-36325000Y-13243171D03*
X-37595000Y-13243171D03*
X-38865000Y-13243171D03*
X-40135000Y-13243171D03*
X-41405000Y-13243171D03*
X-42675000Y-13243171D03*
X-43945000Y-13243171D03*
X-45215000Y-13243171D03*
X-46485000Y-13243171D03*
X-47755000Y-13243171D03*
X-49025000Y-13243171D03*
X-50295000Y-13243171D03*
%TD*%
D24*
%TO.C,R26*%
X-55697500Y-15485671D03*
X-57522500Y-15485671D03*
%TD*%
D23*
%TO.C,R17*%
X-36110000Y15161829D03*
X-36110000Y16986829D03*
%TD*%
%TO.C,R85*%
X1970000Y-18388171D03*
X1970000Y-16563171D03*
%TD*%
D55*
%TO.C,C4*%
X126630000Y-46335671D03*
X126630000Y-38335671D03*
%TD*%
D12*
%TO.C,J4*%
X-31050680Y-10538019D03*
X-15866151Y-13119451D03*
X-31050680Y-20307866D03*
X-15866151Y-10705332D03*
X-31050680Y-15422942D03*
X-15866151Y-15533570D03*
X-15866151Y-17947689D03*
X-15866151Y-20361808D03*
X-31050680Y-17865404D03*
X-31050680Y-12980481D03*
%TD*%
D23*
%TO.C,R16*%
X-41250000Y15161829D03*
X-41250000Y16986829D03*
%TD*%
D24*
%TO.C,R3*%
X151522500Y-69215671D03*
X149697500Y-69215671D03*
%TD*%
%TO.C,R27*%
X-55697500Y-10455671D03*
X-57522500Y-10455671D03*
%TD*%
D20*
%TO.C,Q10*%
X122817500Y-31163171D03*
X122817500Y-33063171D03*
X120942500Y-32113171D03*
%TD*%
D23*
%TO.C,R49*%
X-37170000Y-488171D03*
X-37170000Y1336829D03*
%TD*%
D24*
%TO.C,R21*%
X-55697500Y-28055671D03*
X-57522500Y-28055671D03*
%TD*%
D30*
%TO.C,SW5*%
X-62100000Y9234329D03*
X-71000000Y9234329D03*
X-62100000Y6694329D03*
X-71000000Y6694329D03*
X-62100000Y4154329D03*
X-71000000Y4154329D03*
X-62100000Y1614329D03*
X-71000000Y1614329D03*
X-62100000Y-925671D03*
X-71000000Y-925671D03*
X-62100000Y-3465671D03*
X-71000000Y-3465671D03*
X-62100000Y-6005671D03*
X-71000000Y-6005671D03*
%TD*%
D24*
%TO.C,R41*%
X-55697500Y-18045671D03*
X-57522500Y-18045671D03*
%TD*%
%TO.C,R40*%
X-55697500Y-23105671D03*
X-57522500Y-23105671D03*
%TD*%
M02*
