<?xml version="1.0" encoding="utf-8"?>
<!-- Generator: Adobe Illustrator 22.0.0, SVG Export Plug-In . SVG Version: 6.00 Build 0)  -->
<svg version="1.1" xmlns="http://www.w3.org/2000/svg" xmlns:xlink="http://www.w3.org/1999/xlink" x="0px" y="0px"
	 viewBox="0 0 510.2 272.1" style="enable-background:new 0 0 510.2 272.1;" xml:space="preserve">
<style type="text/css">
	.st0{opacity:0.6;enable-background:new    ;}
	.st1{opacity:0.47;fill:#FBF6CB;enable-background:new    ;}
	.st2{opacity:0.47;fill:#CBFBCE;enable-background:new    ;}
	.st3{opacity:0.47;fill:#CBD4FB;enable-background:new    ;}
	.st4{font-family:'AgencyFB-Reg';}
	.st5{font-size:5.8334px;}
	.st6{clip-path:url(#SVGID_4_);}
	.st7{clip-path:url(#SVGID_6_);}
	.st8{clip-path:url(#SVGID_8_);}
	.st9{clip-path:url(#SVGID_10_);}
	.st10{clip-path:url(#SVGID_14_);}
	.st11{clip-path:url(#SVGID_16_);}
	.st12{clip-path:url(#SVGID_18_);}
	.st13{clip-path:url(#SVGID_20_);}
	.st14{fill:#EFFFB4;}
	.st15{clip-path:url(#SVGID_22_);}
	.st16{fill:none;stroke:#A3FF4F;stroke-width:3;stroke-miterlimit:10;}
	.st17{clip-path:url(#SVGID_24_);}
	.st18{clip-path:url(#SVGID_26_);}
	.st19{fill:none;stroke:#D32E27;stroke-miterlimit:10;}
	.st20{fill:#D32E27;}
	.st21{clip-path:url(#SVGID_28_);}
	.st22{font-size:12px;}
	.st23{fill:#ADFF0A;}
	.st24{font-family:'AgencyFB-Bold';}
	.st25{font-size:6.6543px;}
	.st26{font-size:6.9271px;}
	.st27{fill:#0AFFCE;}
	.st28{font-size:5px;}
	.st29{font-size:7.2897px;}
	.st30{font-size:7.2841px;}
	.st31{enable-background:new    ;}
	.st32{font-size:7.5088px;}
	.st33{font-size:7.7124px;}
	.st34{fill:#E2FFAB;}
	.st35{font-size:6.1323px;}
	.st36{font-size:3.905px;}
	.st37{fill:#F7FE39;}
	.st38{fill:#FE39EA;}
	.st39{fill:none;}
	.st40{font-size:7.8334px;}
	.st41{font-size:7px;}
	.st42{opacity:0.85;fill:#E19CFF;enable-background:new    ;}
	.st43{font-size:6.2826px;}
	.st44{clip-path:url(#SVGID_30_);}
	.st45{fill:#FF0A0A;}
	.st46{fill:#FFFFFF;}
	.st47{font-family:'JosefinSans-Bold';}
	.st48{font-size:13px;}
	.st49{display:none;fill:#F07A7A;}
	.st50{display:none;}
	.st51{display:inline;}
</style>
<g id="Layer_1">
	
		<g id="Background" inkscape:version="1.2.2 (732a01da63, 2022-12-09)" sodipodi:docname="First Example Espanol.svg" xmlns:inkscape="http://www.inkscape.org/namespaces/inkscape" xmlns:sodipodi="http://sodipodi.sourceforge.net/DTD/sodipodi-0.dtd" xmlns:svg="http://www.w3.org/2000/svg">
		<rect y="-1" class="st0" width="25.5" height="272.1"/>
		
			<sodipodi:namedview  bordercolor="#000000" borderopacity="0.25" id="namedview1" inkscape:current-layer="layer1" inkscape:cx="374.64043" inkscape:cy="151.8087" inkscape:deskcolor="#d1d1d1" inkscape:document-units="mm" inkscape:pagecheckerboard="0" inkscape:pageopacity="0.0" inkscape:showpageshadow="2" inkscape:window-height="1017" inkscape:window-maximized="1" inkscape:window-width="1920" inkscape:window-x="-8" inkscape:window-y="-8" inkscape:zoom="2.048631" pagecolor="#ffffff" showgrid="false">
			</sodipodi:namedview>
		<rect id="rect1-7_1_" y="-0.4" class="st1" width="510.2" height="90.7"/>
		<rect id="rect1-7_2_" y="90.3" class="st2" width="510.2" height="90.7"/>
		<rect id="rect1-7_3_" x="-0.2" y="181.1" class="st3" width="510.2" height="90.7"/>
	</g>
	<g id="Old">
		<text transform="matrix(1 0 0 1 405.719 121.4546)" class="st4 st5">. </text>
		<text transform="matrix(1 0 0 1 470.427 108.2524)" class="st4 st5">. </text>
	</g>
	<g id="Images_Use">
		
			<image style="overflow:visible;enable-background:new    ;" width="1740" height="1223" xlink:href="Jasmine Guide/illustration PNGs/IMG_0969.PNG"  transform="matrix(-5.951349e-02 0 0 5.951349e-02 122.5577 116.1065)">
		</image>
		
			<image style="overflow:visible;enable-background:new    ;" width="4513" height="3838" xlink:href="Jasmine Guide/illustration PNGs/On tree.png"  transform="matrix(2.590549e-02 0 0 2.590549e-02 143.4514 87.9746)">
		</image>
		<g>
			<g>
				<defs>
					<rect id="SVGID_3_" x="351.8" y="96.2" width="52.4" height="49.1"/>
				</defs>
				<clipPath id="SVGID_4_">
					<use xlink:href="#SVGID_3_"  style="overflow:visible;"/>
				</clipPath>
				<g class="st6">
					
						<image style="overflow:visible;enable-background:new    ;" width="639" height="691" xlink:href="FDDCE6A1.jpg"  transform="matrix(9.375239e-02 0 0 9.375239e-02 349.7392 94.7401)">
					</image>
				</g>
			</g>
		</g>
	</g>
	<g id="Images_Collect">
		
			<image style="overflow:visible;enable-background:new    ;" width="4513" height="3838" xlink:href="Jasmine Guide/illustration PNGs/Mothbox_part2.png"  transform="matrix(2.668851e-02 0 0 2.668851e-02 16.0587 184.3963)">
		</image>
		
			<image style="overflow:visible;enable-background:new    ;" width="4513" height="3838" xlink:href="Jasmine Guide/illustration PNGs/Glowuploaddata.png"  transform="matrix(4.387015e-02 0 0 4.387015e-02 326.9932 174.7268)">
		</image>
		<g>
			<g>
				<defs>
					<rect id="SVGID_5_" x="160.6" y="182.3" width="159.8" height="152.1"/>
				</defs>
				<clipPath id="SVGID_6_">
					<use xlink:href="#SVGID_5_"  style="overflow:visible;"/>
				</clipPath>
				<g class="st7">
					
						<image style="overflow:visible;enable-background:new    ;" width="5500" height="4122" xlink:href="Jasmine Guide/illustration PNGs/DisconnectUSB.png"  transform="matrix(6.784279e-02 0 0 6.784279e-02 139.3966 107.352)">
					</image>
				</g>
			</g>
		</g>
		<g>
			<g>
				<defs>
					<rect id="SVGID_7_" x="82.2" y="175.3" width="123.2" height="105.5"/>
				</defs>
				<clipPath id="SVGID_8_">
					<use xlink:href="#SVGID_7_"  style="overflow:visible;"/>
				</clipPath>
				<g class="st8">
					
						<image style="overflow:visible;enable-background:new    ;" width="5500" height="4122" xlink:href="Jasmine Guide/illustration PNGs/Wire_arming1.png"  transform="matrix(4.704586e-02 0 0 4.704586e-02 82.2215 152.996)">
					</image>
				</g>
			</g>
		</g>
	</g>
</g>
<g id="Layer_4">
	<g>
		<g>
			<defs>
				<rect id="SVGID_9_" x="313.6" y="2.8" width="96.4" height="85.7"/>
			</defs>
			<clipPath id="SVGID_10_">
				<use xlink:href="#SVGID_9_"  style="overflow:visible;"/>
			</clipPath>
			<g class="st9">
				
					<image style="overflow:visible;enable-background:new    ;" width="5500" height="4122" xlink:href="Jasmine Guide/illustration PNGs/Desiccant.png"  transform="matrix(3.505271e-02 0 0 3.505271e-02 313.6426 -10.6422)">
				</image>
			</g>
		</g>
	</g>
	<g>
		<g>
			<defs>
				<rect id="SVGID_12_" x="218.1" y="14.8" width="98.3" height="85.1"/>
			</defs>
			<clipPath id="SVGID_14_">
				<use xlink:href="#SVGID_12_"  style="overflow:visible;"/>
			</clipPath>
			<g class="st10">
				
					<image style="overflow:visible;enable-background:new    ;" width="5500" height="4122" xlink:href="Jasmine Guide/illustration PNGs/Wire_arming1.png"  transform="matrix(3.574750e-02 0 0 3.574750e-02 218.1176 0.6595)">
				</image>
			</g>
		</g>
	</g>
	
		<image style="overflow:visible;enable-background:new    ;" width="566" height="748" xlink:href="F21ABA22.png"  transform="matrix(4.804655e-02 0 0 4.804655e-02 92.1673 23.937)">
	</image>
	
		<image style="overflow:visible;enable-background:new    ;" width="566" height="748" xlink:href="F21ABA26.png"  transform="matrix(4.804655e-02 0 0 4.804655e-02 154.1673 26.937)">
	</image>
	<g>
		<g>
			<defs>
				<rect id="SVGID_15_" x="92.4" y="26.8" width="103.8" height="64.2"/>
			</defs>
			<clipPath id="SVGID_16_">
				<use xlink:href="#SVGID_15_"  style="overflow:visible;"/>
			</clipPath>
			<g transform="matrix(1 0 0 1 0 -1.907349e-06)" class="st11">
				
					<image style="overflow:visible;enable-background:new    ;" width="4122" height="5500" xlink:href="Jasmine Guide/illustration PNGs/MOTHBOX_charging.png"  transform="matrix(-4.592598e-18 2.500094e-02 -2.500094e-02 -4.592598e-18 196.2305 26.7748)">
				</image>
			</g>
		</g>
	</g>
	<g>
		<g>
			<defs>
				<rect id="SVGID_17_" x="5.7" y="-2.8" width="92.1" height="90.2"/>
			</defs>
			<clipPath id="SVGID_18_">
				<use xlink:href="#SVGID_17_"  style="overflow:visible;"/>
			</clipPath>
			<g transform="matrix(1 0 0 1 4.768372e-07 0)" class="st12">
				
					<image style="overflow:visible;enable-background:new    ;" width="5500" height="4122" xlink:href="Jasmine Guide/illustration PNGs/MOTHBOX.png"  transform="matrix(3.985240e-02 0 0 3.985240e-02 -6.6949 -20.8466)">
				</image>
			</g>
		</g>
	</g>
	<g>
		<g>
			<defs>
				<rect id="SVGID_19_" x="120.7" y="30.3" width="137.5" height="61.3"/>
			</defs>
			<clipPath id="SVGID_20_">
				<use xlink:href="#SVGID_19_"  style="overflow:visible;"/>
			</clipPath>
			<g transform="matrix(1 0 0 1 0 0)" class="st13">
				
					<image style="overflow:visible;enable-background:new    ;" width="4122" height="5500" xlink:href="Jasmine Guide/illustration PNGs/MOTHBOXcharge2.png"  transform="matrix(-4.592598e-18 2.500094e-02 -2.500094e-02 -4.592598e-18 258.204 30.2811)">
				</image>
			</g>
		</g>
	</g>
	<g>
		<g>
			<rect id="SVGID_11_" x="196.5" y="45.4" class="st14" width="58.5" height="43.1"/>
		</g>
		<g>
			<defs>
				<rect id="SVGID_21_" x="196.5" y="45.4" width="58.5" height="43.1"/>
			</defs>
			<clipPath id="SVGID_22_">
				<use xlink:href="#SVGID_21_"  style="overflow:visible;"/>
			</clipPath>
			<g transform="matrix(1 0 0 1 0 1.907349e-06)" class="st15">
				
					<image style="overflow:visible;enable-background:new    ;" width="5500" height="4122" xlink:href="Jasmine Guide/illustration PNGs/Usb_charge2.png"  transform="matrix(5.521100e-02 0 0 5.521100e-02 135.299 -29.2797)">
				</image>
			</g>
		</g>
		<g>
			<rect id="SVGID_1_" x="196.5" y="45.4" class="st16" width="58.5" height="43.1"/>
		</g>
	</g>
	<g>
		<g>
			<polygon id="SVGID_13_" class="st14" points="283.7,5.7 334.3,6.4 334.3,65.3 283.7,65.3 			"/>
		</g>
		<g>
			<defs>
				<polygon id="SVGID_23_" points="283.7,5.7 334.3,6.4 334.3,65.3 283.7,65.3 				"/>
			</defs>
			<clipPath id="SVGID_24_">
				<use xlink:href="#SVGID_23_"  style="overflow:visible;"/>
			</clipPath>
			<g class="st17">
				
					<image style="overflow:visible;enable-background:new    ;" width="5500" height="4122" xlink:href="Jasmine Guide/illustration PNGs/Armed_wires2.png"  transform="matrix(5.846739e-02 0 0 5.846739e-02 221.6355 -57.427)">
				</image>
			</g>
		</g>
		<g>
			<polygon id="SVGID_2_" class="st16" points="283.7,5.7 334.3,6.4 334.3,65.3 283.7,65.3 			"/>
		</g>
	</g>
	<g>
		<g>
			<defs>
				<rect id="SVGID_25_" x="424" y="29.1" width="49.3" height="29.7"/>
			</defs>
			<clipPath id="SVGID_26_">
				<use xlink:href="#SVGID_25_"  style="overflow:visible;"/>
			</clipPath>
			<g transform="matrix(1 0 0 1 3.051758e-05 0)" class="st18">
				
					<image style="overflow:visible;enable-background:new    ;" width="698" height="674" xlink:href="FDDCE6A7.jpg"  transform="matrix(7.086661e-02 0 0 7.027614e-02 423.8768 21.4645)">
				</image>
			</g>
		</g>
	</g>
	<g>
		<g>
			<line class="st19" x1="271.3" y1="70.6" x2="291.1" y2="31.2"/>
			<g>
				<path class="st20" d="M293.8,25.8c-0.3,3-0.3,7,0.4,9.8l-3.5-3.7l-5-0.6C288.4,30.2,291.6,27.8,293.8,25.8z"/>
			</g>
		</g>
	</g>
	<g>
		<g>
			<defs>
				<rect id="SVGID_27_" x="411.2" y="52.8" width="43.7" height="37.1"/>
			</defs>
			<clipPath id="SVGID_28_">
				<use xlink:href="#SVGID_27_"  style="overflow:visible;"/>
			</clipPath>
			<g transform="matrix(1 0 0 1 0 1.907349e-06)" class="st21">
				
					<image style="overflow:visible;enable-background:new    ;" width="5500" height="4122" xlink:href="Jasmine Guide/illustration PNGs/Closed.png"  transform="matrix(2.560484e-02 0 0 2.560484e-02 387.0461 21.3873)">
				</image>
			</g>
		</g>
	</g>
</g>
<g id="Layer_2">
	<text transform="matrix(0 -1 1 0 17.4325 65.2845)" class="st4 st22">PREPARA</text>
	<text transform="matrix(0 -1 1 0 17.4325 169.5189)" class="st4 st22">USE EN EL CAMPO</text>
	<text transform="matrix(0 -1 1 0 17.4325 241.3754)" class="st4 st22">RECOJE</text>
	<rect x="23.3" y="2.9" class="st23" width="80.6" height="43.2"/>
	<text transform="matrix(1 0 0 1 25.2974 9.7596)" class="st24 st25">La batería principal debe siempre </text>
	<text transform="matrix(1 0 0 1 25.2974 17.7049)" class="st24 st25">estar ENCENDIDA.</text>
	<text transform="matrix(1 0 0 1 25.2974 25.7836)" class="st4 st25">Abre la Mothbox y verifique que el </text>
	<text transform="matrix(1 0 0 1 25.2974 33.7289)" class="st4 st25">interruptor de la batería esté </text>
	<text transform="matrix(1 0 0 1 25.2974 41.6761)" class="st4 st25">encendido (si ya no está encendido).</text>
	<rect x="194.8" y="4.6" class="st23" width="80.9" height="39.2"/>
	<text transform="matrix(1 0 0 1 194.7847 9.9159)" class="st24 st26">Almacenamiento USB. </text>
	<text transform="matrix(1 0 0 1 194.7847 18.2284)" class="st4 st26">Asegúrate de que haya un dispositivo </text>
	<text transform="matrix(1 0 0 1 194.7847 26.5409)" class="st4 st26">de almacenamiento externo </text>
	<text transform="matrix(1 0 0 1 194.7847 34.8534)" class="st4 st26">conectado al puerto USB del Pi para </text>
	<text transform="matrix(1 0 0 1 194.7847 43.1659)" class="st4 st26">grabar tus fotos.</text>
	<rect x="117" y="113.1" class="st27" width="37.8" height="42.6"/>
	<text transform="matrix(1 0 0 1 117.029 116.9206)" class="st24 st28">Cuelgue la Mothbox.</text>
	<text transform="matrix(1 0 0 1 117.029 122.9206)" class="st4 st28"> Sujétela a un árbol o </text>
	<text transform="matrix(1 0 0 1 117.029 128.9206)" class="st4 st28">un trípode. Asegúrese </text>
	<text transform="matrix(1 0 0 1 117.029 134.9206)" class="st4 st28">de que no haya </text>
	<text transform="matrix(1 0 0 1 117.029 140.9206)" class="st4 st28">obstáculos (hojas o </text>
	<text transform="matrix(1 0 0 1 117.029 146.9206)" class="st4 st28">hierbas altas) entre el </text>
	<text transform="matrix(1 0 0 1 117.029 152.9206)" class="st4 st28">blanco y la caja.</text>
	<rect x="40.8" y="98.6" class="st27" width="45" height="25.5"/>
	<text transform="matrix(1 0 0 1 40.7668 102.3746)" class="st24 st28">Coloque los brazos. </text>
	<text transform="matrix(1 0 0 1 40.7668 108.3746)" class="st4 st28">Use tornillos y tuercas de </text>
	<text transform="matrix(1 0 0 1 40.7668 114.3746)" class="st4 st28">1/4&quot; para conectarlos a la </text>
	<text transform="matrix(1 0 0 1 40.7668 120.3746)" class="st4 st28">parte inferior de la caja.</text>
	<rect x="424" y="4.7" class="st23" width="82.8" height="25.7"/>
	<text transform="matrix(1 0 0 1 423.9541 10.2367)" class="st24 st29">Compruebe las LEDs. </text>
	<text transform="matrix(1 0 0 1 423.9541 18.9847)" class="st4 st29">Las LEDs de espera deben estar </text>
	<text transform="matrix(1 0 0 1 423.9541 27.7318)" class="st4 st29">siempre encendidas.</text>
	<rect x="349.5" y="4.7" class="st23" width="61.6" height="34.9"/>
	<text transform="matrix(1 0 0 1 349.4502 10.2308)" class="st24 st30">Agregue sílice.</text>
	<text transform="matrix(1 0 0 1 349.4502 18.972)" class="st31"><tspan x="0" y="0" class="st4 st30"> Agregue un paquete</tspan><tspan x="0" y="8.7" class="st4 st30"> de gel de secado de sílice </tspan><tspan x="0" y="17.5" class="st4 st30">dentro de la caja.</tspan></text>
	<rect x="276.3" y="64.7" class="st23" width="109" height="26.9"/>
	<text transform="matrix(1 0 0 1 276.2852 70.4745)" class="st24 st32">ACTIVE la Mothbox. </text>
	<text transform="matrix(1 0 0 1 276.2852 79.4847)" class="st4 st32">Desconecte los dos cables de activación para </text>
	<text transform="matrix(1 0 0 1 276.2852 88.4955)" class="st4 st32">poner la Mothbox en modo LISTO.</text>
	<rect x="119.2" y="4.7" class="st23" width="62.2" height="27.3"/>
	<text transform="matrix(1 0 0 1 119.2681 10.6088)" class="st24 st33">Cargue Su Mothbox</text>
	<text transform="matrix(1 0 0 1 119.2681 19.8627)" class="st4 st33">Utilice únicamente el </text>
	<text transform="matrix(1 0 0 1 119.2681 29.1185)" class="st4 st33">cargador de su Mothbox.</text>
	<rect x="84.7" y="74.7" class="st34" width="103.4" height="14.6"/>
	<text transform="matrix(1 0 0 1 86.666 80.3519)" class="st4 st35">El LED del enchufe = ROJO,se está cargando.</text>
	<text transform="matrix(1 0 0 1 86.666 87.7113)" class="st4 st35">El LED del enchufe = VERDE, completamente cargado.</text>
	
		<image style="overflow:visible;enable-background:new    ;" width="618" height="519" xlink:href="FDDCE6A7.png"  transform="matrix(6.334290e-02 0 0 6.334290e-02 119.777 30.075)">
	</image>
	<rect x="207.7" y="119.5" class="st27" width="33.6" height="11.3"/>
	<text transform="matrix(1 0 0 1 207.6598 123.3293)" class="st24 st28">Coloque el Blanco.</text>
	<text transform="matrix(1.2804 0 0 1 207.6592 128.0155)" class="st4 st36">A los brazos.</text>
	<rect id="rect1-7-8_1_" x="427.2" y="182.1" class="st37" width="83" height="90.1"/>
	<rect id="rect1-7-8-3_1_" x="427.2" y="91.6" class="st38" width="83.6" height="90.5"/>
	<rect x="432.7" y="188.3" class="st39" width="72.5" height="76.7"/>
	<text transform="matrix(1 0 0 1 432.7013 194.3322)" class="st24 st40">ADVERTENCIA:</text>
	<text transform="matrix(1 0 0 1 470.3013 194.3322)" class="st4 st41"> </text>
	<text transform="matrix(1 0 0 1 471.6013 194.3322)" class="st4 st40"> No mire </text>
	<text transform="matrix(1 0 0 1 432.7013 203.7322)" class="st4 st40">directamente a la luz </text>
	<text transform="matrix(1 0 0 1 432.7013 213.1322)" class="st4 st40">ultravioleta. La luz </text>
	<text transform="matrix(1 0 0 1 432.7013 222.5322)" class="st4 st40">ultravioleta es muy brillante, </text>
	<text transform="matrix(1 0 0 1 432.7013 231.9322)" class="st4 st40">pero invisible para los ojos. </text>
	<text transform="matrix(1 0 0 1 432.7013 241.3322)" class="st4 st40">Puede causar dolor ocular o </text>
	<text transform="matrix(1 0 0 1 432.7013 250.7322)" class="st4 st40">de cabeza si la exposición es </text>
	<text transform="matrix(1 0 0 1 432.7013 260.1322)" class="st4 st40">prolongada.</text>
	<rect x="432.7" y="99.5" class="st39" width="68.8" height="79.1"/>
	<text transform="matrix(1 0 0 1 432.7013 105.506)" class="st24 st40">Horario predeterminado:</text>
	<text transform="matrix(1 0 0 1 499.3013 105.506)" class="st4 st41"> </text>
	<text transform="matrix(1 0 0 1 500.6013 105.506)" class="st4 st40"> </text>
	<text transform="matrix(1 0 0 1 432.7013 114.906)" class="st4 st40">19:00-20:00, 21:00-22:00, </text>
	<text transform="matrix(1 0 0 1 432.7013 124.306)" class="st4 st40">23:00-00:00, </text>
	<text transform="matrix(1 0 0 1 432.7013 133.706)" class="st4 st40">2:00-3:00,4:00-5:00 </text>
	<text transform="matrix(1 0 0 1 432.7013 152.506)" class="st4 st40">Puedes cambiar la </text>
	<text transform="matrix(1 0 0 1 432.7013 161.906)" class="st4 st40">configuración para </text>
	<text transform="matrix(1 0 0 1 432.7013 171.306)" class="st4 st40">distintos horarios.</text>
	<rect x="320.7" y="203.1" class="st42" width="54.2" height="29.9"/>
	<text transform="matrix(1 0 0 1 320.6978 206.9438)" class="st24 st28">Copia de seguridad y limpieza</text>
	<text transform="matrix(1 0 0 1 320.6978 212.9438)" class="st4 st28">Sube y organiza todas las fotos. </text>
	<text transform="matrix(1 0 0 1 320.6978 218.9438)" class="st4 st28">Elimina todos los archivos </text>
	<text transform="matrix(1 0 0 1 320.6978 224.9438)" class="st4 st28">antiguos para que estén listos </text>
	<text transform="matrix(1 0 0 1 320.6978 230.9438)" class="st4 st28">para la próxima implementación. </text>
	<rect x="243.5" y="248.9" class="st42" width="53.8" height="17.8"/>
	<text transform="matrix(1 0 0 1 243.4694 252.6754)" class="st24 st28">Quita el almacenamiento</text>
	<text transform="matrix(1 0 0 1 243.4694 258.6754)" class="st4 st28">Quita el almacenamiento  USB </text>
	<text transform="matrix(1 0 0 1 243.4694 264.6754)" class="st4 st28">para descargar las fotos.</text>
	<rect x="137.7" y="189.2" class="st42" width="40.3" height="17.8"/>
	<text transform="matrix(1 0 0 1 137.6713 193.0374)" class="st24 st28">Desactive</text>
	<text transform="matrix(1 0 0 1 137.6713 199.0374)" class="st4 st28">Conectar los cables para </text>
	<text transform="matrix(1 0 0 1 137.6713 205.0374)" class="st4 st28">desactivar la Mothbox</text>
	<rect x="60.6" y="200.6" class="st42" width="40.3" height="20"/>
	<text transform="matrix(1 0 0 1 60.6181 204.4142)" class="st24 st28">Recoge la Mothbox</text>
	<text transform="matrix(1 0 0 1 60.6181 210.4142)" class="st4 st28">Observa si hay algún </text>
	<text transform="matrix(1 0 0 1 60.6181 216.4142)" class="st4 st28">daño, agua o suciedad.</text>
	<rect x="351.8" y="153.2" class="st27" width="46" height="19.9"/>
	<text transform="matrix(1 0 0 1 351.8165 157.0329)" class="st24 st28">Registro. Datos</text>
	<text transform="matrix(1 0 0 1 378.0165 157.0329)" class="st4 st28"> </text>
	<text transform="matrix(1 0 0 1 351.8165 163.0329)" class="st4 st28">Registre la ubicación y la </text>
	<text transform="matrix(1 0 0 1 351.8165 169.0329)" class="st4 st28">hora en la ficha de datos.</text>
	<rect x="259.6" y="151.5" class="st27" width="39.8" height="23.7"/>
	<text transform="matrix(1 0 0 1 259.6296 155.368)" class="st24 st28">Inspeccione la lente.</text>
	<text transform="matrix(1 0 0 1 259.6296 161.368)" class="st4 st28"> Verifique que no haya </text>
	<text transform="matrix(1 0 0 1 259.6296 167.368)" class="st4 st28">suciedad en la lente y </text>
	<text transform="matrix(1 0 0 1 259.6296 173.368)" class="st4 st28">límpiela si es necesario.</text>
	<rect x="464.3" y="54.6" class="st23" width="45.7" height="36.3"/>
	<text transform="matrix(1 0 0 1 465.2549 60.4315)" class="st24 st43">Cierre la caja. </text>
	<text transform="matrix(1 0 0 1 465.2549 67.9711)" class="st4 st43">Asegúrese de que las </text>
	<text transform="matrix(1 0 0 1 465.2549 75.5101)" class="st4 st43">puertas estén </text>
	<text transform="matrix(1 0 0 1 465.2549 83.0492)" class="st4 st43">cerradas y que no </text>
	<text transform="matrix(1 0 0 1 465.2549 90.5882)" class="st4 st43">haya cables atrapados.</text>
	<g>
		<g>
			<defs>
				<rect id="SVGID_29_" x="259.6" y="96.7" width="48.3" height="44.6"/>
			</defs>
			<clipPath id="SVGID_30_">
				<use xlink:href="#SVGID_29_"  style="overflow:visible;"/>
			</clipPath>
			<g class="st44">
				
					<image style="overflow:visible;enable-background:new    ;" width="402" height="247" xlink:href="FDDCE6C4.jpg"  transform="matrix(0.1847 0 0 0.1847 247.8452 96.2146)">
				</image>
			</g>
		</g>
	</g>
	<rect x="42.7" y="199.9" class="st45" width="15.1" height="11.9"/>
	<text transform="matrix(1 0 0 1 44.597 210.2047)" class="st46 st47 st48">13</text>
	<rect x="118.9" y="189.2" class="st45" width="15.1" height="11.9"/>
	<text transform="matrix(1 0 0 1 120.5468 199.4748)" class="st46 st47 st48">14</text>
	<rect x="224.7" y="248.9" class="st45" width="15.1" height="11.9"/>
	<text transform="matrix(1 0 0 1 226.6576 259.1127)" class="st46 st47 st48">15</text>
	<rect x="319.5" y="187.1" class="st45" width="15.1" height="11.9"/>
	<text transform="matrix(1 0 0 1 321.1104 197.3182)" class="st46 st47 st48">16</text>
</g>
<g id="Layer_3">
	<rect x="30.3" y="61.6" class="st49" width="15.5" height="21.1"/>
	<g>
		<g class="st50">
			<path class="st51" d="M37.1,76.8v-8h-0.7v-0.6l1.2-0.9H39v9.6L37.1,76.8L37.1,76.8z"/>
		</g>
	</g>
	<rect x="13.1" y="4.1" class="st45" width="6.7" height="11.9"/>
	<text transform="matrix(1 0 0 1 14.2156 14.3926)" class="st46 st47 st48">1</text>
	<rect x="183.1" y="4.4" class="st45" width="8.1" height="11.9"/>
	<text transform="matrix(1 0 0 1 183.7392 14.6532)" class="st46 st47 st48">3</text>
	<rect x="263.2" y="70.6" class="st45" width="8.1" height="11.9"/>
	<text transform="matrix(1 0 0 1 263.6765 80.8316)" class="st46 st47 st48">4</text>
	<rect x="107" y="4.4" class="st45" width="8.3" height="11.9"/>
	<text transform="matrix(1 0 0 1 107.0293 14.6532)" class="st46 st47 st48">2</text>
	<rect x="336.8" y="5.1" class="st45" width="8.1" height="11.9"/>
	<text transform="matrix(1 0 0 1 337.4502 15.3926)" class="st46 st47 st48">5</text>
	<rect x="413.3" y="5.1" class="st45" width="8.1" height="11.9"/>
	<text transform="matrix(1 0 0 1 413.6771 15.3926)" class="st46 st47 st48">6</text>
	<rect x="454.9" y="60.3" class="st45" width="8.1" height="11.9"/>
	<text transform="matrix(1 0 0 1 455.7035 70.6065)" class="st46 st47 st48">7</text>
	<rect x="29.7" y="97.6" class="st45" width="8.1" height="11.9"/>
	<text transform="matrix(1 0 0 1 30.3271 107.8788)" class="st46 st47 st48">8</text>
	<rect x="117.3" y="97.6" class="st45" width="8.1" height="11.9"/>
	<text transform="matrix(1 0 0 1 117.7695 107.8788)" class="st46 st47 st48">9</text>
	<rect x="207.7" y="105.2" class="st45" width="11.4" height="11.9"/>
	<text transform="matrix(1 0 0 1 208.9463 115.4586)" class="st46 st47 st48">11</text>
	<rect x="239.3" y="151.5" class="st45" width="15.1" height="11.9"/>
	<text transform="matrix(1 0 0 1 240.7733 161.7693)" class="st46 st47 st48">12</text>
	<rect x="330.7" y="153.5" class="st45" width="15.1" height="11.9"/>
	<text transform="matrix(1 0 0 1 332.5623 163.7421)" class="st46 st47 st48">13</text>
</g>
</svg>
