<?xml version="1.0" encoding="utf-8"?>
<!-- Generator: Adobe Illustrator 22.0.0, SVG Export Plug-In . SVG Version: 6.00 Build 0)  -->
<svg version="1.1" xmlns="http://www.w3.org/2000/svg" xmlns:xlink="http://www.w3.org/1999/xlink" x="0px" y="0px"
	 viewBox="0 0 510.2 272.1" style="enable-background:new 0 0 510.2 272.1;" xml:space="preserve">
<style type="text/css">
	.st0{opacity:0.6;enable-background:new    ;}
	.st1{opacity:0.47;fill:#FBF6CB;enable-background:new    ;}
	.st2{opacity:0.47;fill:#CBFBCE;enable-background:new    ;}
	.st3{opacity:0.47;fill:#CBD4FB;enable-background:new    ;}
	.st4{display:none;}
	.st5{display:inline;}
	.st6{font-family:'AgencyFB-Reg';}
	.st7{font-size:5.8334px;}
	.st8{clip-path:url(#SVGID_4_);}
	.st9{clip-path:url(#SVGID_6_);}
	.st10{clip-path:url(#SVGID_8_);}
	.st11{clip-path:url(#SVGID_10_);}
	.st12{clip-path:url(#SVGID_14_);}
	.st13{clip-path:url(#SVGID_16_);}
	.st14{clip-path:url(#SVGID_18_);}
	.st15{fill:#EFFFB4;}
	.st16{clip-path:url(#SVGID_20_);}
	.st17{fill:none;stroke:#A3FF4F;stroke-width:3;stroke-miterlimit:10;}
	.st18{clip-path:url(#SVGID_22_);}
	.st19{clip-path:url(#SVGID_24_);}
	.st20{fill:none;stroke:#FF0A0A;stroke-miterlimit:10;}
	.st21{fill:#FF0A0A;}
	.st22{clip-path:url(#SVGID_26_);}
	.st23{clip-path:url(#SVGID_28_);}
	.st24{font-size:12px;}
	.st25{fill:#ADFF0A;}
	.st26{font-family:'AgencyFB-Bold';}
	.st27{font-size:6.6543px;}
	.st28{font-size:8.4698px;}
	.st29{fill:none;}
	.st30{enable-background:new    ;}
	.st31{fill:#0AFFCE;}
	.st32{font-size:7.6847px;}
	.st33{font-size:7.7943px;}
	.st34{font-size:7.2897px;}
	.st35{font-size:7.2841px;}
	.st36{font-size:7.5088px;}
	.st37{font-size:7.7124px;}
	.st38{fill:#E2FFAB;}
	.st39{font-size:6.1323px;}
	.st40{font-size:8.255px;}
	.st41{font-size:7.2561px;}
	.st42{fill:#F7FE39;}
	.st43{fill:#FE39EA;}
	.st44{font-size:7.8334px;}
	.st45{font-size:7px;}
	.st46{opacity:0.85;fill:#E19CFF;enable-background:new    ;}
	.st47{font-size:9.5251px;}
	.st48{font-size:9.7572px;}
	.st49{font-size:9.5359px;}
	.st50{font-size:9.7395px;}
	.st51{font-size:8.9396px;}
	.st52{font-size:7.8875px;}
	.st53{font-size:6.2826px;}
	.st54{clip-path:url(#SVGID_30_);}
	.st55{fill:#FFFFFF;}
	.st56{font-family:'JosefinSans-Bold';}
	.st57{font-size:13px;}
	.st58{display:none;fill:#F07A7A;}
</style>
<g id="Layer_1">
	
		<g id="Background" inkscape:version="1.2.2 (732a01da63, 2022-12-09)" sodipodi:docname="First Example Espanol.svg" xmlns:inkscape="http://www.inkscape.org/namespaces/inkscape" xmlns:sodipodi="http://sodipodi.sourceforge.net/DTD/sodipodi-0.dtd" xmlns:svg="http://www.w3.org/2000/svg">
		<rect y="0" class="st0" width="25.5" height="272.1"/>
		
			<sodipodi:namedview  bordercolor="#000000" borderopacity="0.25" id="namedview1" inkscape:current-layer="layer1" inkscape:cx="374.64043" inkscape:cy="151.8087" inkscape:deskcolor="#d1d1d1" inkscape:document-units="mm" inkscape:pagecheckerboard="0" inkscape:pageopacity="0.0" inkscape:showpageshadow="2" inkscape:window-height="1017" inkscape:window-maximized="1" inkscape:window-width="1920" inkscape:window-x="-8" inkscape:window-y="-8" inkscape:zoom="2.048631" pagecolor="#ffffff" showgrid="false">
			</sodipodi:namedview>
		<rect id="rect1-7_1_" y="0.6" class="st1" width="510.2" height="90.7"/>
		<rect id="rect1-7_2_" y="91.3" class="st2" width="510.2" height="90.7"/>
		<rect id="rect1-7_3_" x="-0.2" y="182.1" class="st3" width="510.2" height="90.7"/>
	</g>
	<g id="Old" class="st4">
		<text transform="matrix(1 0 0 1 405.719 121.4546)" class="st5 st6 st7">. </text>
		<text transform="matrix(1 0 0 1 470.427 108.2524)" class="st5 st6 st7">. </text>
	</g>
</g>
<g id="Layer_6">
	
		<image style="overflow:visible;enable-background:new    ;" width="4513" height="3838" xlink:href="Jasmine Guide/illustration PNGs/Mothbox_part2.png"  transform="matrix(2.668851e-02 0 0 2.668851e-02 16.0587 197.3963)">
	</image>
	
		<image style="overflow:visible;enable-background:new    ;" width="4513" height="3838" xlink:href="Jasmine Guide/illustration PNGs/Glowuploaddata.png"  transform="matrix(4.058688e-02 0 0 4.058688e-02 332.3698 190.75)">
	</image>
	<g>
		<g>
			<defs>
				<rect id="SVGID_3_" x="152.6" y="182.3" width="139.8" height="133"/>
			</defs>
			<clipPath id="SVGID_4_">
				<use xlink:href="#SVGID_3_"  style="overflow:visible;"/>
			</clipPath>
			<g class="st8">
				
					<image style="overflow:visible;enable-background:new    ;" width="5500" height="4122" xlink:href="Jasmine Guide/illustration PNGs/DisconnectUSB.png"  transform="matrix(5.933606e-02 0 0 5.933606e-02 134.0553 103.6305)">
				</image>
			</g>
		</g>
	</g>
	<g>
		<g>
			<defs>
				<rect id="SVGID_5_" x="76.2" y="197.3" width="123.2" height="105.5"/>
			</defs>
			<clipPath id="SVGID_6_">
				<use xlink:href="#SVGID_5_"  style="overflow:visible;"/>
			</clipPath>
			<g class="st9">
				
					<image style="overflow:visible;enable-background:new    ;" width="5500" height="4122" xlink:href="Jasmine Guide/illustration PNGs/Wire_arming1.png"  transform="matrix(4.704586e-02 0 0 4.704586e-02 72.2215 176.996)">
				</image>
			</g>
		</g>
	</g>
</g>
<g id="Layer_4">
	<g>
		<g>
			<defs>
				<rect id="SVGID_7_" x="313.6" y="2.8" width="96.4" height="85.7"/>
			</defs>
			<clipPath id="SVGID_8_">
				<use xlink:href="#SVGID_7_"  style="overflow:visible;"/>
			</clipPath>
			<g class="st10">
				
					<image style="overflow:visible;enable-background:new    ;" width="5500" height="4122" xlink:href="Jasmine Guide/illustration PNGs/Desiccant.png"  transform="matrix(3.505271e-02 0 0 3.505271e-02 313.6426 -10.6422)">
				</image>
			</g>
		</g>
	</g>
	<g>
		<g>
			<defs>
				<rect id="SVGID_9_" x="218.1" y="14.8" width="98.3" height="85.1"/>
			</defs>
			<clipPath id="SVGID_10_">
				<use xlink:href="#SVGID_9_"  style="overflow:visible;"/>
			</clipPath>
			<g class="st11">
				
					<image style="overflow:visible;enable-background:new    ;" width="5500" height="4122" xlink:href="Jasmine Guide/illustration PNGs/Wire_arming1.png"  transform="matrix(3.574750e-02 0 0 3.574750e-02 218.1176 0.6595)">
				</image>
			</g>
		</g>
	</g>
	
		<image style="overflow:visible;enable-background:new    ;" width="566" height="748" xlink:href="F21ABA22.png"  transform="matrix(4.804655e-02 0 0 4.804655e-02 92.1673 23.937)">
	</image>
	
		<image style="overflow:visible;enable-background:new    ;" width="566" height="748" xlink:href="F21ABA26.png"  transform="matrix(4.804655e-02 0 0 4.804655e-02 154.1673 26.937)">
	</image>
	<g>
		<g>
			<defs>
				<rect id="SVGID_12_" x="92.4" y="26.8" width="103.8" height="64.2"/>
			</defs>
			<clipPath id="SVGID_14_">
				<use xlink:href="#SVGID_12_"  style="overflow:visible;"/>
			</clipPath>
			<g transform="matrix(1 0 0 1 0 -1.907349e-06)" class="st12">
				
					<image style="overflow:visible;enable-background:new    ;" width="4122" height="5500" xlink:href="Jasmine Guide/illustration PNGs/MOTHBOX_charging.png"  transform="matrix(-4.592598e-18 2.500094e-02 -2.500094e-02 -4.592598e-18 196.2305 26.7748)">
				</image>
			</g>
		</g>
	</g>
	<g>
		<g>
			<defs>
				<rect id="SVGID_15_" x="5.7" y="-2.8" width="92.1" height="90.2"/>
			</defs>
			<clipPath id="SVGID_16_">
				<use xlink:href="#SVGID_15_"  style="overflow:visible;"/>
			</clipPath>
			<g transform="matrix(1 0 0 1 4.768372e-07 0)" class="st13">
				
					<image style="overflow:visible;enable-background:new    ;" width="5500" height="4122" xlink:href="Jasmine Guide/illustration PNGs/MOTHBOX.png"  transform="matrix(3.985240e-02 0 0 3.985240e-02 -6.6949 -20.8466)">
				</image>
			</g>
		</g>
	</g>
	<g>
		<g>
			<defs>
				<rect id="SVGID_17_" x="120.7" y="30.3" width="137.5" height="61.3"/>
			</defs>
			<clipPath id="SVGID_18_">
				<use xlink:href="#SVGID_17_"  style="overflow:visible;"/>
			</clipPath>
			<g transform="matrix(1 0 0 1 0 0)" class="st14">
				
					<image style="overflow:visible;enable-background:new    ;" width="4122" height="5500" xlink:href="Jasmine Guide/illustration PNGs/MOTHBOXcharge2.png"  transform="matrix(-4.592598e-18 2.500094e-02 -2.500094e-02 -4.592598e-18 258.204 30.2811)">
				</image>
			</g>
		</g>
	</g>
	<g>
		<g>
			<rect id="SVGID_11_" x="196.5" y="45.4" class="st15" width="58.5" height="43.1"/>
		</g>
		<g>
			<defs>
				<rect id="SVGID_19_" x="196.5" y="45.4" width="58.5" height="43.1"/>
			</defs>
			<clipPath id="SVGID_20_">
				<use xlink:href="#SVGID_19_"  style="overflow:visible;"/>
			</clipPath>
			<g transform="matrix(1 0 0 1 0 1.907349e-06)" class="st16">
				
					<image style="overflow:visible;enable-background:new    ;" width="5500" height="4122" xlink:href="Jasmine Guide/illustration PNGs/Usb_charge2.png"  transform="matrix(5.521100e-02 0 0 5.521100e-02 135.299 -29.2797)">
				</image>
			</g>
		</g>
		<g>
			<rect id="SVGID_1_" x="196.5" y="45.4" class="st17" width="58.5" height="43.1"/>
		</g>
	</g>
	<g>
		<g>
			<polygon id="SVGID_13_" class="st15" points="283.7,5.7 334.3,6.4 334.3,65.3 283.7,65.3 			"/>
		</g>
		<g>
			<defs>
				<polygon id="SVGID_21_" points="283.7,5.7 334.3,6.4 334.3,65.3 283.7,65.3 				"/>
			</defs>
			<clipPath id="SVGID_22_">
				<use xlink:href="#SVGID_21_"  style="overflow:visible;"/>
			</clipPath>
			<g class="st18">
				
					<image style="overflow:visible;enable-background:new    ;" width="5500" height="4122" xlink:href="Jasmine Guide/illustration PNGs/Armed_wires2.png"  transform="matrix(5.846739e-02 0 0 5.846739e-02 221.6355 -57.427)">
				</image>
			</g>
		</g>
		<g>
			<polygon id="SVGID_2_" class="st17" points="283.7,5.7 334.3,6.4 334.3,65.3 283.7,65.3 			"/>
		</g>
	</g>
	<g>
		<g>
			<defs>
				<rect id="SVGID_23_" x="424" y="29.1" width="49.3" height="29.7"/>
			</defs>
			<clipPath id="SVGID_24_">
				<use xlink:href="#SVGID_23_"  style="overflow:visible;"/>
			</clipPath>
			<g transform="matrix(1 0 0 1 3.051758e-05 0)" class="st19">
				
					<image style="overflow:visible;enable-background:new    ;" width="698" height="674" xlink:href="FDDCE6A7.jpg"  transform="matrix(7.086661e-02 0 0 7.027614e-02 423.8768 21.4645)">
				</image>
			</g>
		</g>
	</g>
	<g>
		<g>
			<line class="st20" x1="271.3" y1="70.6" x2="291.1" y2="31.2"/>
			<g>
				<path class="st21" d="M293.8,25.8c-0.3,3-0.3,7,0.4,9.8l-3.5-3.7l-5-0.6C288.4,30.2,291.6,27.8,293.8,25.8z"/>
			</g>
		</g>
	</g>
	<g>
		<g>
			<defs>
				<rect id="SVGID_25_" x="411.2" y="52.8" width="43.7" height="37.1"/>
			</defs>
			<clipPath id="SVGID_26_">
				<use xlink:href="#SVGID_25_"  style="overflow:visible;"/>
			</clipPath>
			<g transform="matrix(1 0 0 1 0 1.907349e-06)" class="st22">
				
					<image style="overflow:visible;enable-background:new    ;" width="5500" height="4122" xlink:href="Jasmine Guide/illustration PNGs/Closed.png"  transform="matrix(2.560484e-02 0 0 2.560484e-02 387.0461 21.3873)">
				</image>
			</g>
		</g>
	</g>
</g>
<g id="Layer_5">
	
		<image style="overflow:visible;enable-background:new    ;" width="1740" height="1223" xlink:href="Jasmine Guide/illustration PNGs/IMG_0969.PNG"  transform="matrix(-4.681233e-02 0 0 4.681233e-02 107.2035 130.6545)">
	</image>
	
		<image style="overflow:visible;enable-background:new    ;" width="4513" height="3838" xlink:href="Jasmine Guide/illustration PNGs/On tree.png"  transform="matrix(2.590549e-02 0 0 2.590549e-02 173.4514 87.9746)">
	</image>
	<g>
		<g>
			<defs>
				<rect id="SVGID_27_" x="351.8" y="96.2" width="52.4" height="49.1"/>
			</defs>
			<clipPath id="SVGID_28_">
				<use xlink:href="#SVGID_27_"  style="overflow:visible;"/>
			</clipPath>
			<g class="st23">
				
					<image style="overflow:visible;enable-background:new    ;" width="639" height="691" xlink:href="FDDCE6A1.jpg"  transform="matrix(9.375239e-02 0 0 9.375239e-02 349.7392 94.7401)">
				</image>
			</g>
		</g>
	</g>
	<g>
		<g>
			<line class="st20" x1="127.2" y1="126.9" x2="134.2" y2="132.6"/>
			<g>
				<path class="st21" d="M138.8,136.4c-2.9-1-6.7-1.8-9.6-1.7l4.3-2.6l1.7-4.8C135.7,130.2,137.3,133.8,138.8,136.4z"/>
			</g>
		</g>
	</g>
</g>
<g id="Layer_2">
	<text transform="matrix(0 -1 1 0 17.4325 65.2845)" class="st6 st24">PREPARA</text>
	<text transform="matrix(0 -1 1 0 17.4325 169.5189)" class="st6 st24">USE EN EL CAMPO</text>
	<text transform="matrix(0 -1 1 0 17.4325 241.3754)" class="st6 st24">RECOJE</text>
	<rect x="23.3" y="2.9" class="st25" width="80.6" height="43.2"/>
	<text transform="matrix(1 0 0 1 25.2974 9.7596)" class="st26 st27">La batería principal debe siempre </text>
	<text transform="matrix(1 0 0 1 25.2974 17.7049)" class="st26 st27">estar ENCENDIDA.</text>
	<text transform="matrix(1 0 0 1 25.2974 25.7836)" class="st6 st27">Abre la Mothbox y verifique que el </text>
	<text transform="matrix(1 0 0 1 25.2974 33.7289)" class="st6 st27">interruptor de la batería esté </text>
	<text transform="matrix(1 0 0 1 25.2974 41.6761)" class="st6 st27">encendido (si ya no está encendido).</text>
	<rect x="194.8" y="4.8" class="st25" width="76.5" height="40.3"/>
	<text transform="matrix(1 0 0 1 194.7852 11.2772)" class="st26 st28">Almacenamiento USB. </text>
	<rect x="194.8" y="14" class="st29" width="73.6" height="38.8"/>
	<text transform="matrix(1 0 0 1 194.7852 21.4398)" class="st30"><tspan x="0" y="0" class="st6 st28">Conecte el almacenamiento </tspan><tspan x="0" y="10.2" class="st6 st28">de fotos USB a los puertos </tspan><tspan x="0" y="20.3" class="st6 st28">USB del Pi.</tspan></text>
	<rect x="121" y="109.4" class="st31" width="58.1" height="65.5"/>
	<text transform="matrix(1 0 0 1 121.0439 115.2879)" class="st26 st32">Cuelgue la Mothbox.</text>
	<text transform="matrix(1 0 0 1 121.0439 124.5096)" class="st6 st32"> Sujétela a un árbol o </text>
	<text transform="matrix(1 0 0 1 121.0439 133.7308)" class="st6 st32">un trípode. Asegúrese </text>
	<text transform="matrix(1 0 0 1 121.0439 142.9525)" class="st6 st32">de que no haya </text>
	<text transform="matrix(1 0 0 1 121.0439 152.1742)" class="st6 st32">obstáculos (hojas o </text>
	<text transform="matrix(1 0 0 1 121.0439 161.3959)" class="st6 st32">hierbas altas) entre el </text>
	<text transform="matrix(1 0 0 1 121.0439 170.6175)" class="st6 st32">blanco y la caja.</text>
	<rect x="29.8" y="94" class="st31" width="70.1" height="39.8"/>
	<text transform="matrix(1 0 0 1 29.7676 99.8397)" class="st26 st33">Coloque los brazos. </text>
	<text transform="matrix(1 0 0 1 29.7676 109.1927)" class="st6 st33">Use tornillos y tuercas de </text>
	<text transform="matrix(1 0 0 1 29.7676 118.5462)" class="st6 st33">1/4&quot; para conectarlos a la </text>
	<text transform="matrix(1 0 0 1 29.7676 127.8993)" class="st6 st33">parte inferior de la caja.</text>
	<rect x="424" y="4.7" class="st25" width="82.8" height="25.7"/>
	<text transform="matrix(1 0 0 1 423.9541 10.2367)" class="st26 st34">Compruebe las LEDs. </text>
	<text transform="matrix(1 0 0 1 423.9541 18.9847)" class="st6 st34">Las LEDs de espera deben estar </text>
	<text transform="matrix(1 0 0 1 423.9541 27.7318)" class="st6 st34">siempre encendidas.</text>
	<rect x="349.5" y="4.7" class="st25" width="61.6" height="34.9"/>
	<text transform="matrix(1 0 0 1 349.4502 10.2308)" class="st26 st35">Agregue sílice.</text>
	<text transform="matrix(1 0 0 1 349.4502 18.972)" class="st30"><tspan x="0" y="0" class="st6 st35"> Agregue un paquete</tspan><tspan x="0" y="8.7" class="st6 st35"> de gel de secado de sílice </tspan><tspan x="0" y="17.5" class="st6 st35">dentro de la caja.</tspan></text>
	<rect x="276.3" y="64.7" class="st25" width="109" height="26.9"/>
	<text transform="matrix(1 0 0 1 276.2852 70.4745)" class="st26 st36">ACTIVE la Mothbox. </text>
	<text transform="matrix(1 0 0 1 276.2852 79.4847)" class="st6 st36">Desconecte los dos cables de activación para </text>
	<text transform="matrix(1 0 0 1 276.2852 88.4955)" class="st6 st36">poner la Mothbox en modo LISTO.</text>
	<rect x="119.2" y="4.7" class="st25" width="62.2" height="27.3"/>
	<text transform="matrix(1 0 0 1 119.2681 10.6088)" class="st26 st37">Cargue Su Mothbox</text>
	<text transform="matrix(1 0 0 1 119.2681 19.8627)" class="st6 st37">Utilice únicamente el </text>
	<text transform="matrix(1 0 0 1 119.2681 29.1185)" class="st6 st37">cargador de su Mothbox.</text>
	<rect x="84.7" y="74.7" class="st38" width="103.4" height="14.6"/>
	<text transform="matrix(1 0 0 1 86.666 80.3519)" class="st6 st39">El LED del enchufe = ROJO,se está cargando.</text>
	<text transform="matrix(1 0 0 1 86.666 87.7113)" class="st6 st39">El LED del enchufe = VERDE, completamente cargado.</text>
	
		<image style="overflow:visible;enable-background:new    ;" width="618" height="519" xlink:href="FDDCE6A7.png"  transform="matrix(6.334290e-02 0 0 6.334290e-02 119.777 30.075)">
	</image>
	<rect x="221.9" y="105.3" class="st31" width="52.2" height="16.6"/>
	<text transform="matrix(1 0 0 1 222.8221 112.5848)" class="st26 st40">Coloque el Blanco.</text>
	<text transform="matrix(1.2804 0 0 1 222.8896 120.0023)" class="st6 st41">A los brazos.</text>
	<rect id="rect1-7-8_1_" x="427.2" y="182.1" class="st42" width="83" height="90.1"/>
	<rect id="rect1-7-8-3_1_" x="427.2" y="91.6" class="st43" width="83.6" height="90.5"/>
	<rect x="432.7" y="188.3" class="st29" width="72.5" height="76.7"/>
	<text transform="matrix(1 0 0 1 432.7013 194.3322)" class="st26 st44">ADVERTENCIA:</text>
	<text transform="matrix(1 0 0 1 470.3013 194.3322)" class="st6 st45"> </text>
	<text transform="matrix(1 0 0 1 471.6013 194.3322)" class="st6 st44"> No mire </text>
	<text transform="matrix(1 0 0 1 432.7013 203.7322)" class="st6 st44">directamente a la luz </text>
	<text transform="matrix(1 0 0 1 432.7013 213.1322)" class="st6 st44">ultravioleta. La luz </text>
	<text transform="matrix(1 0 0 1 432.7013 222.5322)" class="st6 st44">ultravioleta es muy brillante, </text>
	<text transform="matrix(1 0 0 1 432.7013 231.9322)" class="st6 st44">pero invisible para los ojos. </text>
	<text transform="matrix(1 0 0 1 432.7013 241.3322)" class="st6 st44">Puede causar dolor ocular o </text>
	<text transform="matrix(1 0 0 1 432.7013 250.7322)" class="st6 st44">de cabeza si la exposición es </text>
	<text transform="matrix(1 0 0 1 432.7013 260.1322)" class="st6 st44">prolongada.</text>
	<rect x="432.7" y="99.5" class="st29" width="68.8" height="79.1"/>
	<text transform="matrix(1 0 0 1 432.7013 105.506)" class="st26 st44">Horario predeterminado:</text>
	<text transform="matrix(1 0 0 1 499.3013 105.506)" class="st6 st45"> </text>
	<text transform="matrix(1 0 0 1 500.6013 105.506)" class="st6 st44"> </text>
	<text transform="matrix(1 0 0 1 432.7013 114.906)" class="st6 st44">19:00-20:00, 21:00-22:00, </text>
	<text transform="matrix(1 0 0 1 432.7013 124.306)" class="st6 st44">23:00-00:00, </text>
	<text transform="matrix(1 0 0 1 432.7013 133.706)" class="st6 st44">2:00-3:00,4:00-5:00 </text>
	<text transform="matrix(1 0 0 1 432.7013 152.506)" class="st6 st44">Puedes cambiar la </text>
	<text transform="matrix(1 0 0 1 432.7013 161.906)" class="st6 st44">configuración para </text>
	<text transform="matrix(1 0 0 1 432.7013 171.306)" class="st6 st44">distintos horarios.</text>
	<rect x="304" y="203.5" class="st46" width="72.6" height="35.4"/>
	<text transform="matrix(1 0 0 1 303.9647 210.8013)" class="st26 st47">Copia de seguridad</text>
	<text transform="matrix(1 0 0 1 304.3779 222.3967)" class="st30"><tspan x="0" y="0" class="st6 st47">Sube y organiza todas</tspan><tspan x="0" y="11.4" class="st6 st47">las fotos. </tspan></text>
	<rect x="196.4" y="231.6" class="st46" width="96" height="34.7"/>
	<text transform="matrix(1 0 0 1 196.334 238.9711)" class="st26 st48">Quita el almacenamiento</text>
	<text transform="matrix(1 0 0 1 196.334 250.6791)" class="st6 st48">Quita el almacenamiento  USB </text>
	<text transform="matrix(1 0 0 1 196.334 262.3871)" class="st6 st48">para descargar las fotos.</text>
	<rect x="128.7" y="182.7" class="st46" width="62.3" height="47.2"/>
	<text transform="matrix(1 0 0 1 130.6719 192.0384)" class="st26 st49">Desactive</text>
	<text transform="matrix(1 0 0 1 130.6719 203.4818)" class="st30"><tspan x="0" y="0" class="st6 st49">Conectar los cables </tspan><tspan x="0" y="11.4" class="st6 st49">para desactivar la </tspan><tspan x="0" y="22.9" class="st6 st49">Mothbox</tspan></text>
	<rect x="31.5" y="186.1" class="st46" width="72.5" height="36.5"/>
	<text transform="matrix(1 0 0 1 32.5361 194.4964)" class="st26 st50">Recoge la Mothbox</text>
	<text transform="matrix(1 0 0 1 32.5361 206.1839)" class="st6 st50">Observa si hay algún </text>
	<text transform="matrix(1 0 0 1 32.5361 217.8705)" class="st6 st50">daño, agua o suciedad.</text>
	<rect x="352.1" y="147.4" class="st31" width="73.3" height="31.2"/>
	<text transform="matrix(1 0 0 1 352.1084 154.2972)" class="st26 st51">Registro. Datos</text>
	<text transform="matrix(1 0 0 1 398.9531 154.2972)" class="st6 st51"> </text>
	<text transform="matrix(1 0 0 1 352.1084 165.0248)" class="st6 st51">Registre la ubicación y la </text>
	<text transform="matrix(1 0 0 1 352.1084 175.7523)" class="st6 st51">hora en la ficha de datos.</text>
	<rect x="282.1" y="140.7" class="st31" width="62.8" height="37.4"/>
	<text transform="matrix(1 0 0 1 282.1118 146.8144)" class="st26 st52">Inspeccione la lente.</text>
	<text transform="matrix(1 0 0 1 282.1118 156.2802)" class="st6 st52"> Verifique que no haya </text>
	<text transform="matrix(1 0 0 1 282.1118 165.7451)" class="st6 st52">suciedad en la lente y </text>
	<text transform="matrix(1 0 0 1 282.1118 175.2099)" class="st6 st52">límpiela si es necesario.</text>
	<rect x="464.3" y="54.6" class="st25" width="45.7" height="36.3"/>
	<text transform="matrix(1 0 0 1 465.2549 60.4315)" class="st26 st53">Cierre la caja. </text>
	<text transform="matrix(1 0 0 1 465.2549 67.9711)" class="st6 st53">Asegúrese de que las </text>
	<text transform="matrix(1 0 0 1 465.2549 75.5101)" class="st6 st53">puertas estén </text>
	<text transform="matrix(1 0 0 1 465.2549 83.0492)" class="st6 st53">cerradas y que no </text>
	<text transform="matrix(1 0 0 1 465.2549 90.5882)" class="st6 st53">haya cables atrapados.</text>
	<g>
		<g>
			<defs>
				<rect id="SVGID_29_" x="286.6" y="93.7" width="48.3" height="44.6"/>
			</defs>
			<clipPath id="SVGID_30_">
				<use xlink:href="#SVGID_29_"  style="overflow:visible;"/>
			</clipPath>
			<g class="st54">
				
					<image style="overflow:visible;enable-background:new    ;" width="402" height="247" xlink:href="FDDCE6C4.jpg"  transform="matrix(0.1847 0 0 0.1847 274.8452 93.2146)">
				</image>
			</g>
		</g>
	</g>
	<rect x="13.6" y="184.8" class="st21" width="15.1" height="11.9"/>
	<text transform="matrix(1 0 0 1 15.497 195.1047)" class="st55 st56 st57">13</text>
	<rect x="111.9" y="184.2" class="st21" width="15.1" height="11.9"/>
	<text transform="matrix(1 0 0 1 113.5468 194.4748)" class="st55 st56 st57">14</text>
	<rect x="197.7" y="212.9" class="st21" width="15.1" height="11.9"/>
	<text transform="matrix(1 0 0 1 199.6576 223.1127)" class="st55 st56 st57">15</text>
	<rect x="302.8" y="187" class="st21" width="15.1" height="11.9"/>
	<text transform="matrix(1 0 0 1 304.3779 197.1827)" class="st55 st56 st57">16</text>
</g>
<g id="Layer_3">
	<rect x="30.3" y="61.6" class="st58" width="15.5" height="21.1"/>
	<g>
		<g class="st4">
			<path class="st5" d="M37.1,76.8v-8h-0.7v-0.6l1.2-0.9H39v9.6L37.1,76.8L37.1,76.8z"/>
		</g>
	</g>
	<rect x="13.1" y="4.1" class="st21" width="6.7" height="11.9"/>
	<text transform="matrix(1 0 0 1 14.2156 14.3926)" class="st55 st56 st57">1</text>
	<rect x="183.1" y="4.4" class="st21" width="8.1" height="11.9"/>
	<text transform="matrix(1 0 0 1 183.7392 14.6532)" class="st55 st56 st57">3</text>
	<rect x="263.2" y="70.6" class="st21" width="8.1" height="11.9"/>
	<text transform="matrix(1 0 0 1 263.6765 80.8316)" class="st55 st56 st57">4</text>
	<rect x="107" y="4.4" class="st21" width="8.3" height="11.9"/>
	<text transform="matrix(1 0 0 1 107.0293 14.6532)" class="st55 st56 st57">2</text>
	<rect x="336.8" y="5.1" class="st21" width="8.1" height="11.9"/>
	<text transform="matrix(1 0 0 1 337.4502 15.3926)" class="st55 st56 st57">5</text>
	<rect x="413.3" y="5.1" class="st21" width="8.1" height="11.9"/>
	<text transform="matrix(1 0 0 1 413.6771 15.3926)" class="st55 st56 st57">6</text>
	<rect x="454.9" y="60.3" class="st21" width="8.1" height="11.9"/>
	<text transform="matrix(1 0 0 1 455.7035 70.6065)" class="st55 st56 st57">7</text>
	<rect x="18.7" y="92.6" class="st21" width="8.1" height="11.9"/>
	<text transform="matrix(1 0 0 1 19.3271 102.8788)" class="st55 st56 st57">8</text>
	<rect x="121.3" y="93.6" class="st21" width="8.1" height="11.9"/>
	<text transform="matrix(1 0 0 1 121.7695 103.8788)" class="st55 st56 st57">9</text>
	<rect x="222.9" y="91.6" class="st21" width="11.4" height="11.9"/>
	<text transform="matrix(1 0 0 1 224.1092 101.8439)" class="st55 st56 st57">11</text>
	<rect x="261.8" y="140.4" class="st21" width="15.1" height="11.9"/>
	<text transform="matrix(1 0 0 1 263.2386 150.6693)" class="st55 st56 st57">12</text>
	<rect x="410" y="119.3" class="st21" width="15.1" height="11.9"/>
	<text transform="matrix(1 0 0 1 411.8623 129.53)" class="st55 st56 st57">13</text>
	<g>
		<g>
			<line class="st20" x1="175.3" y1="116.1" x2="189.3" y2="122.7"/>
			<g>
				<path class="st21" d="M194.8,125.2c-3-0.3-7-0.1-9.8,0.7l3.6-3.6l0.5-5C190.2,119.9,192.7,123.1,194.8,125.2z"/>
			</g>
		</g>
	</g>
	<g>
		<g>
			<line class="st20" x1="267.3" y1="120.7" x2="256.7" y2="128.1"/>
			<g>
				<path class="st21" d="M251.8,131.6c1.7-2.5,3.5-6,4.2-8.8l1.4,4.9l4.2,2.9C258.7,130.3,254.8,130.9,251.8,131.6z"/>
			</g>
		</g>
	</g>
	<g>
		<g>
			<line class="st20" x1="119.3" y1="201.1" x2="128.8" y2="231.1"/>
			<g>
				<path class="st21" d="M130.7,236.9c-1.9-2.4-4.6-5.2-7.1-6.7l5.1,0.2l4-3.1C131.5,230,130.8,233.9,130.7,236.9z"/>
			</g>
		</g>
	</g>
</g>
</svg>
