<?xml version="1.0"?>
<!DOCTYPE svg PUBLIC "-//W3C//DTD SVG 1.1//EN" "http://www.w3.org/Graphics/SVG/1.1/DTD/svg11.dtd">
<svg width="27.29788974mm" height="45.54044874mm" viewBox="0 0 27.29788974 45.54044874" xmlns="http://www.w3.org/2000/svg" version="1.1">
<g id="Mothbeam_v5_0_1_1" transform="translate(6.030263,70.277626) scale(1,-1)">
<path id="Mothbeam_v5_0_1_1_f0000"  d="M 1.4500000000000002 31.099999999999998 L 1.4500000000000002 30.3 L 1.4500000000000002 30.3 L 1.4500000000000002 31.099999999999998 L 1.4500000000000002 31.099999999999998 Z " stroke="#000000" stroke-width="0.35 px" style="stroke-width:0.35;stroke-miterlimit:4;stroke-dasharray:none;stroke-linecap:square;fill:url(#shape color);fill-opacity:1;fill-rule: evenodd"/>
<path id="Mothbeam_v5_0_1_1_f0001"  d="M 1.405 31.099999999999998 M 1.405 31.099999999999998 L 1.45 31.099999999999998 L 1.4500000000000002 31.099999999999998 M 1.4500000000000002 31.099999999999998 L 1.405 31.099999999999998 L 1.195 31.099999999999998 M 1.195 31.099999999999998 L 1.1500000000000001 31.099999999999998 L 1.405 31.099999999999998 L 1.405 31.099999999999998 L 1.15 31.099999999999998 M 1.15 31.099999999999998 L 1.195 31.099999999999998 L 1.4050000000000002 31.099999999999998 Z " stroke="#000000" stroke-width="0.35 px" style="stroke-width:0.35;stroke-miterlimit:4;stroke-dasharray:none;stroke-linecap:square;fill:url(#shape color);fill-opacity:1;fill-rule: evenodd"/>
<path id="Mothbeam_v5_0_1_1_f0002"  d="M 1.4500000000000002 31.099999999999998 L 1.4500000000000002 30.3 M 1.4500000000000002 30.3 L 1.405 30.3 L 1.405 31.099999999999998 M 1.405 31.099999999999998 L 1.45 31.099999999999998 Z " stroke="#000000" stroke-width="0.35 px" style="stroke-width:0.35;stroke-miterlimit:4;stroke-dasharray:none;stroke-linecap:square;fill:url(#shape color);fill-opacity:1;fill-rule: evenodd"/>
<path id="Mothbeam_v5_0_1_1_f0003"  d="M 1.4500000000000002 31.099999999999998 M 1.4500000000000002 31.099999999999998 L 1.405 31.099999999999998 L 1.405 30.3 M 1.405 30.3 L 1.45 30.3 L 1.4500000000000002 31.099999999999998 Z " stroke="#000000" stroke-width="0.35 px" style="stroke-width:0.35;stroke-miterlimit:4;stroke-dasharray:none;stroke-linecap:square;fill:url(#shape color);fill-opacity:1;fill-rule: evenodd"/>
<path id="Mothbeam_v5_0_1_1_f0004"  d="M 1.15 30.3 L 1.405 30.3 L 1.405 30.3 L 1.15 30.3 M 1.15 30.3 L 1.195 30.3 L 1.4050000000000002 30.3 M 1.405 30.3 L 1.45 30.3 L 1.4500000000000002 30.3 M 1.4500000000000002 30.3 L 1.405 30.3 L 1.195 30.3 M 1.195 30.3 L 1.1500000000000001 30.3 Z " stroke="#000000" stroke-width="0.35 px" style="stroke-width:0.35;stroke-miterlimit:4;stroke-dasharray:none;stroke-linecap:square;fill:url(#shape color);fill-opacity:1;fill-rule: evenodd"/>
<path id="Mothbeam_v5_0_1_1_f0005"  d="M 1.405 30.299999999999997 L 1.405 31.099999999999998 L 1.195 31.099999999999998 L 1.195 30.3 L 1.4050000000000002 30.3 Z " stroke="#000000" stroke-width="0.35 px" style="stroke-width:0.35;stroke-miterlimit:4;stroke-dasharray:none;stroke-linecap:square;fill:url(#shape color);fill-opacity:1;fill-rule: evenodd"/>
<path id="Mothbeam_v5_0_1_1_f0006"  d="M 1.15 31.099999999999998 M 1.15 31.099999999999998 L 1.195 31.099999999999998 L 1.195 30.3 M 1.195 30.3 L 1.1500000000000001 30.3 L 1.15 31.099999999999998 Z " stroke="#000000" stroke-width="0.35 px" style="stroke-width:0.35;stroke-miterlimit:4;stroke-dasharray:none;stroke-linecap:square;fill:url(#shape color);fill-opacity:1;fill-rule: evenodd"/>
<path id="Mothbeam_v5_0_1_1_f0007"  d="M 1.15 31.099999999999998 L 0.15000000000000002 31.099999999999998 L -0.10499999999999998 31.099999999999998 L -0.10499999999999998 31.099999999999998 L 0.15000000000000013 31.099999999999998 L 1.15 31.099999999999998 L 1.405 31.099999999999998 L 1.405 31.099999999999998 L 1.15 31.099999999999998 Z " stroke="#000000" stroke-width="0.35 px" style="stroke-width:0.35;stroke-miterlimit:4;stroke-dasharray:none;stroke-linecap:square;fill:url(#shape color);fill-opacity:1;fill-rule: evenodd"/>
<path id="Mothbeam_v5_0_1_1_f0008"  d="M 1.1950000000000003 31.099999999999998 L 1.4050000000000002 31.099999999999998 L 1.405 30.3 L 1.195 30.3 L 1.195 31.099999999999998 Z " stroke="#000000" stroke-width="0.35 px" style="stroke-width:0.35;stroke-miterlimit:4;stroke-dasharray:none;stroke-linecap:square;fill:url(#shape color);fill-opacity:1;fill-rule: evenodd"/>
<path id="Mothbeam_v5_0_1_1_f0009"  d="M 1.15 31.099999999999998 L 1.15 30.3 M 1.15 30.3 L 1.195 30.3 L 1.195 31.099999999999998 M 1.195 31.099999999999998 L 1.1500000000000001 31.099999999999998 Z " stroke="#000000" stroke-width="0.35 px" style="stroke-width:0.35;stroke-miterlimit:4;stroke-dasharray:none;stroke-linecap:square;fill:url(#shape color);fill-opacity:1;fill-rule: evenodd"/>
<path id="Mothbeam_v5_0_1_1_f0010"  d="M 0.15000000000000002 30.3 L -0.10499999999999998 30.3 L -0.10499999999999998 30.3 L 0.15000000000000013 30.3 L 1.15 30.3 L 1.405 30.3 L 1.405 30.3 L 1.15 30.3 L 0.15000000000000002 30.3 Z " stroke="#000000" stroke-width="0.35 px" style="stroke-width:0.35;stroke-miterlimit:4;stroke-dasharray:none;stroke-linecap:square;fill:url(#shape color);fill-opacity:1;fill-rule: evenodd"/>
<path id="Mothbeam_v5_0_1_1_f0011"  d="M 1.15 30.3 L 0.15000000000000002 30.3 L 0.15000000000000002 31.099999999999998 L 1.15 31.099999999999998 L 1.15 30.3 Z " stroke="#000000" stroke-width="0.35 px" style="stroke-width:0.35;stroke-miterlimit:4;stroke-dasharray:none;stroke-linecap:square;fill:url(#shape color);fill-opacity:1;fill-rule: evenodd"/>
<path id="Mothbeam_v5_0_1_1_f0012"  d="M 0.10499999999999998 31.099999999999998 M 0.10499999999999998 31.099999999999998 L 0.14999999999999997 31.099999999999998 L -0.10499999999999998 31.099999999999998 L -0.10499999999999998 31.099999999999998 L 0.15000000000000013 31.099999999999998 M 0.15000000000000002 31.099999999999998 L 0.10499999999999998 31.099999999999998 L -0.10499999999999998 31.099999999999998 M -0.10499999999999998 31.099999999999998 L -0.14999999999999997 31.099999999999998 L -0.15000000000000002 31.099999999999998 M -0.15000000000000002 31.099999999999998 L -0.10499999999999998 31.099999999999998 L 0.10499999999999998 31.099999999999998 Z " stroke="#000000" stroke-width="0.35 px" style="stroke-width:0.35;stroke-miterlimit:4;stroke-dasharray:none;stroke-linecap:square;fill:url(#shape color);fill-opacity:1;fill-rule: evenodd"/>
<path id="Mothbeam_v5_0_1_1_f0013"  d="M 0.15000000000000002 31.099999999999998 L 0.15000000000000002 31.099999999999998 L 1.15 31.099999999999998 L 1.15 31.099999999999998 L 0.15000000000000002 31.099999999999998 Z " stroke="#000000" stroke-width="0.35 px" style="stroke-width:0.35;stroke-miterlimit:4;stroke-dasharray:none;stroke-linecap:square;fill:url(#shape color);fill-opacity:1;fill-rule: evenodd"/>
<path id="Mothbeam_v5_0_1_1_f0014"  d="M 1.15 31.099999999999998 L 1.15 30.3 L 1.15 30.3 L 1.15 31.099999999999998 L 1.15 31.099999999999998 Z " stroke="#000000" stroke-width="0.35 px" style="stroke-width:0.35;stroke-miterlimit:4;stroke-dasharray:none;stroke-linecap:square;fill:url(#shape color);fill-opacity:1;fill-rule: evenodd"/>
<path id="Mothbeam_v5_0_1_1_f0015"  d="M -0.15000000000000002 30.3 L -0.15000000000000002 30.3 M -0.15000000000000002 30.3 L -0.10499999999999998 30.3 L 0.10499999999999998 30.3 M 0.10499999999999998 30.3 L 0.14999999999999997 30.3 L -0.10499999999999998 30.3 L -0.10499999999999998 30.3 L 0.15000000000000013 30.3 M 0.15000000000000002 30.3 L 0.10499999999999998 30.3 L -0.10499999999999998 30.3 M -0.10499999999999998 30.3 L -0.14999999999999997 30.3 Z " stroke="#000000" stroke-width="0.35 px" style="stroke-width:0.35;stroke-miterlimit:4;stroke-dasharray:none;stroke-linecap:square;fill:url(#shape color);fill-opacity:1;fill-rule: evenodd"/>
<path id="Mothbeam_v5_0_1_1_f0016"  d="M 0.1499999999999999 30.3 L 1.15 30.3 L 1.15 30.3 L 0.15000000000000002 30.3 L 0.15000000000000002 30.3 Z " stroke="#000000" stroke-width="0.35 px" style="stroke-width:0.35;stroke-miterlimit:4;stroke-dasharray:none;stroke-linecap:square;fill:url(#shape color);fill-opacity:1;fill-rule: evenodd"/>
<path id="Mothbeam_v5_0_1_1_f0017"  d="M 0.15000000000000002 31.099999999999998 L 0.15000000000000002 30.3 M 0.15000000000000002 30.3 L 0.10499999999999998 30.3 L 0.10499999999999998 31.099999999999998 M 0.10499999999999998 31.099999999999998 L 0.14999999999999997 31.099999999999998 Z " stroke="#000000" stroke-width="0.35 px" style="stroke-width:0.35;stroke-miterlimit:4;stroke-dasharray:none;stroke-linecap:square;fill:url(#shape color);fill-opacity:1;fill-rule: evenodd"/>
<path id="Mothbeam_v5_0_1_1_f0018"  d="M 0.10499999999999998 30.299999999999997 L 0.10499999999999998 31.099999999999998 L -0.10499999999999998 31.099999999999998 L -0.10499999999999998 30.3 L 0.10499999999999998 30.3 Z " stroke="#000000" stroke-width="0.35 px" style="stroke-width:0.35;stroke-miterlimit:4;stroke-dasharray:none;stroke-linecap:square;fill:url(#shape color);fill-opacity:1;fill-rule: evenodd"/>
<path id="Mothbeam_v5_0_1_1_f0019"  d="M -0.15000000000000002 31.099999999999998 M -0.15000000000000002 31.099999999999998 L -0.10499999999999998 31.099999999999998 L -0.10499999999999998 30.3 M -0.10499999999999998 30.3 L -0.14999999999999997 30.3 L -0.15000000000000002 31.099999999999998 Z " stroke="#000000" stroke-width="0.35 px" style="stroke-width:0.35;stroke-miterlimit:4;stroke-dasharray:none;stroke-linecap:square;fill:url(#shape color);fill-opacity:1;fill-rule: evenodd"/>
<path id="Mothbeam_v5_0_1_1_f0020"  d="M -0.15000000000000002 30.3 L -0.15000000000000002 30.3 L -0.15000000000000002 31.099999999999998 L -0.15000000000000002 31.099999999999998 L -0.15000000000000002 30.3 Z " stroke="#000000" stroke-width="0.35 px" style="stroke-width:0.35;stroke-miterlimit:4;stroke-dasharray:none;stroke-linecap:square;fill:url(#shape color);fill-opacity:1;fill-rule: evenodd"/>
<path id="Mothbeam_v5_0_1_1_f0021"  d="M -0.15000000000000002 31.099999999999998 L -0.15000000000000002 30.3 M -0.15000000000000002 30.3 L -0.10499999999999998 30.3 L -0.10499999999999998 31.099999999999998 M -0.10499999999999998 31.099999999999998 L -0.14999999999999997 31.099999999999998 Z " stroke="#000000" stroke-width="0.35 px" style="stroke-width:0.35;stroke-miterlimit:4;stroke-dasharray:none;stroke-linecap:square;fill:url(#shape color);fill-opacity:1;fill-rule: evenodd"/>
<path id="Mothbeam_v5_0_1_1_f0022"  d="M -0.10499999999999998 31.099999999999998 L 0.10499999999999998 31.099999999999998 L 0.10499999999999998 30.3 L -0.10499999999999998 30.3 L -0.10499999999999998 31.099999999999998 Z " stroke="#000000" stroke-width="0.35 px" style="stroke-width:0.35;stroke-miterlimit:4;stroke-dasharray:none;stroke-linecap:square;fill:url(#shape color);fill-opacity:1;fill-rule: evenodd"/>
<path id="Mothbeam_v5_0_1_1_f0023"  d="M 0.15000000000000002 31.099999999999998 M 0.15000000000000002 31.099999999999998 L 0.10499999999999998 31.099999999999998 L 0.10499999999999998 30.3 M 0.10499999999999998 30.3 L 0.14999999999999997 30.3 L 0.15000000000000002 31.099999999999998 Z " stroke="#000000" stroke-width="0.35 px" style="stroke-width:0.35;stroke-miterlimit:4;stroke-dasharray:none;stroke-linecap:square;fill:url(#shape color);fill-opacity:1;fill-rule: evenodd"/>
<path id="Mothbeam_v5_0_1_1_f0024"  d="M 0.15000000000000002 30.3 L 0.15000000000000002 30.3 L 0.15000000000000002 31.099999999999998 L 0.15000000000000002 31.099999999999998 L 0.15000000000000002 30.3 Z " stroke="#000000" stroke-width="0.35 px" style="stroke-width:0.35;stroke-miterlimit:4;stroke-dasharray:none;stroke-linecap:square;fill:url(#shape color);fill-opacity:1;fill-rule: evenodd"/>
<path id="Mothbeam_v5_0_1_1_f0025"  d="M 0.15000000000000002 30.299999999999997 L 0.15000000000000002 31.099999999999998 L 1.15 31.099999999999998 L 1.15 30.3 L 0.15000000000000002 30.3 Z " stroke="#000000" stroke-width="0.35 px" style="stroke-width:0.35;stroke-miterlimit:4;stroke-dasharray:none;stroke-linecap:square;fill:url(#shape color);fill-opacity:1;fill-rule: evenodd"/>
<path id="Mothbeam_v5_0_1_1_f0026"  d="M -0.490893 39.55 L -0.490893 38.75 L -0.490893 38.75 L -0.490893 39.55 L -0.490893 39.55 Z " stroke="#000000" stroke-width="0.35 px" style="stroke-width:0.35;stroke-miterlimit:4;stroke-dasharray:none;stroke-linecap:square;fill:url(#shape color);fill-opacity:1;fill-rule: evenodd"/>
<path id="Mothbeam_v5_0_1_1_f0027"  d="M -0.5358930000000001 39.55 M -0.5358930000000001 39.55 L -0.4908930000000001 39.55 L -0.490893 39.55 M -0.490893 39.55 L -0.5358930000000001 39.55 L -0.745893 39.55 M -0.745893 39.55 L -0.7908930000000001 39.55 L -0.5358930000000001 39.55 L -0.5358930000000001 39.55 L -0.7908930000000001 39.55 M -0.7908930000000001 39.55 L -0.745893 39.55 L -0.5358930000000001 39.55 Z " stroke="#000000" stroke-width="0.35 px" style="stroke-width:0.35;stroke-miterlimit:4;stroke-dasharray:none;stroke-linecap:square;fill:url(#shape color);fill-opacity:1;fill-rule: evenodd"/>
<path id="Mothbeam_v5_0_1_1_f0028"  d="M -0.490893 39.55 L -0.490893 38.75 M -0.490893 38.75 L -0.5358930000000001 38.75 L -0.5358930000000001 39.55 M -0.5358930000000001 39.55 L -0.4908930000000001 39.55 Z " stroke="#000000" stroke-width="0.35 px" style="stroke-width:0.35;stroke-miterlimit:4;stroke-dasharray:none;stroke-linecap:square;fill:url(#shape color);fill-opacity:1;fill-rule: evenodd"/>
<path id="Mothbeam_v5_0_1_1_f0029"  d="M -0.490893 39.55 M -0.490893 39.55 L -0.5358930000000001 39.55 L -0.5358930000000001 38.75 M -0.5358930000000001 38.75 L -0.4908930000000001 38.75 L -0.490893 39.55 Z " stroke="#000000" stroke-width="0.35 px" style="stroke-width:0.35;stroke-miterlimit:4;stroke-dasharray:none;stroke-linecap:square;fill:url(#shape color);fill-opacity:1;fill-rule: evenodd"/>
<path id="Mothbeam_v5_0_1_1_f0030"  d="M -0.7908930000000001 38.75 L -0.5358930000000001 38.75 L -0.5358930000000001 38.75 L -0.7908930000000001 38.75 M -0.7908930000000001 38.75 L -0.745893 38.75 L -0.5358930000000001 38.75 M -0.5358930000000001 38.75 L -0.4908930000000001 38.75 L -0.490893 38.75 M -0.490893 38.75 L -0.5358930000000001 38.75 L -0.745893 38.75 M -0.745893 38.75 L -0.7908930000000001 38.75 Z " stroke="#000000" stroke-width="0.35 px" style="stroke-width:0.35;stroke-miterlimit:4;stroke-dasharray:none;stroke-linecap:square;fill:url(#shape color);fill-opacity:1;fill-rule: evenodd"/>
<path id="Mothbeam_v5_0_1_1_f0031"  d="M -0.5358930000000001 38.75 L -0.5358930000000001 39.55 L -0.745893 39.55 L -0.745893 38.75 L -0.5358930000000001 38.75 Z " stroke="#000000" stroke-width="0.35 px" style="stroke-width:0.35;stroke-miterlimit:4;stroke-dasharray:none;stroke-linecap:square;fill:url(#shape color);fill-opacity:1;fill-rule: evenodd"/>
<path id="Mothbeam_v5_0_1_1_f0032"  d="M -0.7908930000000001 39.55 M -0.7908930000000001 39.55 L -0.745893 39.55 L -0.745893 38.75 M -0.745893 38.75 L -0.7908930000000001 38.75 L -0.7908930000000001 39.55 Z " stroke="#000000" stroke-width="0.35 px" style="stroke-width:0.35;stroke-miterlimit:4;stroke-dasharray:none;stroke-linecap:square;fill:url(#shape color);fill-opacity:1;fill-rule: evenodd"/>
<path id="Mothbeam_v5_0_1_1_f0033"  d="M -0.7908930000000001 39.55 L -1.790893 39.55 L -2.045893 39.55 L -2.045893 39.55 L -1.790893 39.55 L -0.7908930000000001 39.55 L -0.5358930000000001 39.55 L -0.5358930000000001 39.55 L -0.7908930000000001 39.55 Z " stroke="#000000" stroke-width="0.35 px" style="stroke-width:0.35;stroke-miterlimit:4;stroke-dasharray:none;stroke-linecap:square;fill:url(#shape color);fill-opacity:1;fill-rule: evenodd"/>
<path id="Mothbeam_v5_0_1_1_f0034"  d="M -0.745893 39.55 L -0.5358930000000001 39.55 L -0.5358930000000001 38.75 L -0.745893 38.75 L -0.745893 39.55 Z " stroke="#000000" stroke-width="0.35 px" style="stroke-width:0.35;stroke-miterlimit:4;stroke-dasharray:none;stroke-linecap:square;fill:url(#shape color);fill-opacity:1;fill-rule: evenodd"/>
<path id="Mothbeam_v5_0_1_1_f0035"  d="M -0.7908930000000001 39.55 L -0.7908930000000001 38.75 M -0.7908930000000001 38.75 L -0.745893 38.75 L -0.745893 39.55 M -0.745893 39.55 L -0.7908930000000001 39.55 Z " stroke="#000000" stroke-width="0.35 px" style="stroke-width:0.35;stroke-miterlimit:4;stroke-dasharray:none;stroke-linecap:square;fill:url(#shape color);fill-opacity:1;fill-rule: evenodd"/>
<path id="Mothbeam_v5_0_1_1_f0036"  d="M -1.790893 38.75 L -2.045893 38.75 L -2.045893 38.75 L -1.790893 38.75 L -0.7908930000000001 38.75 L -0.5358930000000001 38.75 L -0.5358930000000001 38.75 L -0.7908930000000001 38.75 L -1.790893 38.75 Z " stroke="#000000" stroke-width="0.35 px" style="stroke-width:0.35;stroke-miterlimit:4;stroke-dasharray:none;stroke-linecap:square;fill:url(#shape color);fill-opacity:1;fill-rule: evenodd"/>
<path id="Mothbeam_v5_0_1_1_f0037"  d="M -0.7908930000000001 38.75 L -1.790893 38.75 L -1.790893 39.55 L -0.7908930000000001 39.55 L -0.7908930000000001 38.75 Z " stroke="#000000" stroke-width="0.35 px" style="stroke-width:0.35;stroke-miterlimit:4;stroke-dasharray:none;stroke-linecap:square;fill:url(#shape color);fill-opacity:1;fill-rule: evenodd"/>
<path id="Mothbeam_v5_0_1_1_f0038"  d="M -1.835893 39.55 M -1.835893 39.55 L -1.790893 39.55 L -2.045893 39.55 L -2.045893 39.55 L -1.790893 39.55 M -1.790893 39.55 L -1.835893 39.55 L -2.045893 39.55 M -2.045893 39.55 L -2.090893 39.55 L -2.0908930000000003 39.55 M -2.0908930000000003 39.55 L -2.045893 39.55 L -1.835893 39.55 Z " stroke="#000000" stroke-width="0.35 px" style="stroke-width:0.35;stroke-miterlimit:4;stroke-dasharray:none;stroke-linecap:square;fill:url(#shape color);fill-opacity:1;fill-rule: evenodd"/>
<path id="Mothbeam_v5_0_1_1_f0039"  d="M -1.790893 39.55 L -1.790893 39.55 L -0.7908930000000001 39.55 L -0.7908930000000001 39.55 L -1.790893 39.55 Z " stroke="#000000" stroke-width="0.35 px" style="stroke-width:0.35;stroke-miterlimit:4;stroke-dasharray:none;stroke-linecap:square;fill:url(#shape color);fill-opacity:1;fill-rule: evenodd"/>
<path id="Mothbeam_v5_0_1_1_f0040"  d="M -0.7908930000000001 39.55 L -0.7908930000000001 38.75 L -0.7908930000000001 38.75 L -0.7908930000000001 39.55 L -0.7908930000000001 39.55 Z " stroke="#000000" stroke-width="0.35 px" style="stroke-width:0.35;stroke-miterlimit:4;stroke-dasharray:none;stroke-linecap:square;fill:url(#shape color);fill-opacity:1;fill-rule: evenodd"/>
<path id="Mothbeam_v5_0_1_1_f0041"  d="M -2.0908930000000003 38.75 L -2.0908930000000003 38.75 M -2.0908930000000003 38.75 L -2.045893 38.75 L -1.835893 38.75 M -1.835893 38.75 L -1.790893 38.75 L -2.045893 38.75 L -2.045893 38.75 L -1.790893 38.75 M -1.790893 38.75 L -1.835893 38.75 L -2.045893 38.75 M -2.045893 38.75 L -2.090893 38.75 Z " stroke="#000000" stroke-width="0.35 px" style="stroke-width:0.35;stroke-miterlimit:4;stroke-dasharray:none;stroke-linecap:square;fill:url(#shape color);fill-opacity:1;fill-rule: evenodd"/>
<path id="Mothbeam_v5_0_1_1_f0042"  d="M -1.790893 38.75 L -0.7908930000000001 38.75 L -0.7908930000000001 38.75 L -1.790893 38.75 L -1.790893 38.75 Z " stroke="#000000" stroke-width="0.35 px" style="stroke-width:0.35;stroke-miterlimit:4;stroke-dasharray:none;stroke-linecap:square;fill:url(#shape color);fill-opacity:1;fill-rule: evenodd"/>
<path id="Mothbeam_v5_0_1_1_f0043"  d="M -1.790893 39.55 L -1.790893 38.75 M -1.790893 38.75 L -1.835893 38.75 L -1.835893 39.55 M -1.835893 39.55 L -1.790893 39.55 Z " stroke="#000000" stroke-width="0.35 px" style="stroke-width:0.35;stroke-miterlimit:4;stroke-dasharray:none;stroke-linecap:square;fill:url(#shape color);fill-opacity:1;fill-rule: evenodd"/>
<path id="Mothbeam_v5_0_1_1_f0044"  d="M -1.835893 38.75 L -1.835893 39.55 L -2.045893 39.55 L -2.045893 38.75 L -1.835893 38.75 Z " stroke="#000000" stroke-width="0.35 px" style="stroke-width:0.35;stroke-miterlimit:4;stroke-dasharray:none;stroke-linecap:square;fill:url(#shape color);fill-opacity:1;fill-rule: evenodd"/>
<path id="Mothbeam_v5_0_1_1_f0045"  d="M -2.0908930000000003 39.55 M -2.0908930000000003 39.55 L -2.045893 39.55 L -2.045893 38.75 M -2.045893 38.75 L -2.090893 38.75 L -2.0908930000000003 39.55 Z " stroke="#000000" stroke-width="0.35 px" style="stroke-width:0.35;stroke-miterlimit:4;stroke-dasharray:none;stroke-linecap:square;fill:url(#shape color);fill-opacity:1;fill-rule: evenodd"/>
<path id="Mothbeam_v5_0_1_1_f0046"  d="M -2.0908930000000003 38.75 L -2.0908930000000003 38.75 L -2.0908930000000003 39.55 L -2.0908930000000003 39.55 L -2.0908930000000003 38.75 Z " stroke="#000000" stroke-width="0.35 px" style="stroke-width:0.35;stroke-miterlimit:4;stroke-dasharray:none;stroke-linecap:square;fill:url(#shape color);fill-opacity:1;fill-rule: evenodd"/>
<path id="Mothbeam_v5_0_1_1_f0047"  d="M -2.0908930000000003 39.55 L -2.0908930000000003 38.75 M -2.0908930000000003 38.75 L -2.045893 38.75 L -2.045893 39.55 M -2.045893 39.55 L -2.090893 39.55 Z " stroke="#000000" stroke-width="0.35 px" style="stroke-width:0.35;stroke-miterlimit:4;stroke-dasharray:none;stroke-linecap:square;fill:url(#shape color);fill-opacity:1;fill-rule: evenodd"/>
<path id="Mothbeam_v5_0_1_1_f0048"  d="M -2.045893 39.55 L -1.835893 39.55 L -1.835893 38.75 L -2.045893 38.75 L -2.045893 39.55 Z " stroke="#000000" stroke-width="0.35 px" style="stroke-width:0.35;stroke-miterlimit:4;stroke-dasharray:none;stroke-linecap:square;fill:url(#shape color);fill-opacity:1;fill-rule: evenodd"/>
<path id="Mothbeam_v5_0_1_1_f0049"  d="M -1.790893 39.55 M -1.790893 39.55 L -1.835893 39.55 L -1.835893 38.75 M -1.835893 38.75 L -1.790893 38.75 L -1.790893 39.55 Z " stroke="#000000" stroke-width="0.35 px" style="stroke-width:0.35;stroke-miterlimit:4;stroke-dasharray:none;stroke-linecap:square;fill:url(#shape color);fill-opacity:1;fill-rule: evenodd"/>
<path id="Mothbeam_v5_0_1_1_f0050"  d="M -1.790893 38.75 L -1.790893 38.75 L -1.790893 39.55 L -1.790893 39.55 L -1.790893 38.75 Z " stroke="#000000" stroke-width="0.35 px" style="stroke-width:0.35;stroke-miterlimit:4;stroke-dasharray:none;stroke-linecap:square;fill:url(#shape color);fill-opacity:1;fill-rule: evenodd"/>
<path id="Mothbeam_v5_0_1_1_f0051"  d="M -1.790893 38.75 L -1.790893 39.55 L -0.7908930000000001 39.55 L -0.7908930000000001 38.75 L -1.790893 38.75 Z " stroke="#000000" stroke-width="0.35 px" style="stroke-width:0.35;stroke-miterlimit:4;stroke-dasharray:none;stroke-linecap:square;fill:url(#shape color);fill-opacity:1;fill-rule: evenodd"/>
<path id="Mothbeam_v5_0_1_1_f0052"  d="M 6.937499999999999 38.75 L 6.137499999999999 38.75 L 6.137499999999999 38.75 L 6.937499999999999 38.75 L 6.937499999999999 38.75 Z " stroke="#000000" stroke-width="0.35 px" style="stroke-width:0.35;stroke-miterlimit:4;stroke-dasharray:none;stroke-linecap:square;fill:url(#shape color);fill-opacity:1;fill-rule: evenodd"/>
<path id="Mothbeam_v5_0_1_1_f0053"  d="M 6.937499999999999 38.794999999999995 M 6.937499999999999 38.794999999999995 L 6.937499999999999 38.74999999999999 L 6.937499999999999 38.75 M 6.937499999999999 38.75 L 6.937499999999999 38.794999999999995 L 6.9375 39.004999999999995 M 6.9375 39.004999999999995 L 6.9375 39.05 L 6.937499999999999 38.794999999999995 L 6.937499999999999 38.794999999999995 L 6.9375 39.05 M 6.9375 39.05 L 6.9375 39.004999999999995 L 6.937499999999999 38.795 Z " stroke="#000000" stroke-width="0.35 px" style="stroke-width:0.35;stroke-miterlimit:4;stroke-dasharray:none;stroke-linecap:square;fill:url(#shape color);fill-opacity:1;fill-rule: evenodd"/>
<path id="Mothbeam_v5_0_1_1_f0054"  d="M 6.937499999999999 38.75 L 6.137499999999999 38.75 M 6.137499999999999 38.75 L 6.137499999999999 38.794999999999995 L 6.937499999999999 38.794999999999995 M 6.937499999999999 38.794999999999995 L 6.937499999999999 38.74999999999999 Z " stroke="#000000" stroke-width="0.35 px" style="stroke-width:0.35;stroke-miterlimit:4;stroke-dasharray:none;stroke-linecap:square;fill:url(#shape color);fill-opacity:1;fill-rule: evenodd"/>
<path id="Mothbeam_v5_0_1_1_f0055"  d="M 6.937499999999999 38.75 M 6.937499999999999 38.75 L 6.937499999999999 38.794999999999995 L 6.137499999999999 38.794999999999995 M 6.137499999999999 38.794999999999995 L 6.137499999999999 38.74999999999999 L 6.937499999999999 38.75 Z " stroke="#000000" stroke-width="0.35 px" style="stroke-width:0.35;stroke-miterlimit:4;stroke-dasharray:none;stroke-linecap:square;fill:url(#shape color);fill-opacity:1;fill-rule: evenodd"/>
<path id="Mothbeam_v5_0_1_1_f0056"  d="M 6.137499999999999 39.05 L 6.137499999999999 38.794999999999995 L 6.137499999999999 38.794999999999995 L 6.137499999999999 39.05 M 6.137499999999999 39.05 L 6.137499999999999 39.004999999999995 L 6.137499999999999 38.795 M 6.137499999999999 38.794999999999995 L 6.137499999999999 38.74999999999999 L 6.137499999999999 38.75 M 6.137499999999999 38.75 L 6.137499999999999 38.794999999999995 L 6.137499999999999 39.004999999999995 M 6.137499999999999 39.004999999999995 L 6.137499999999999 39.05 Z " stroke="#000000" stroke-width="0.35 px" style="stroke-width:0.35;stroke-miterlimit:4;stroke-dasharray:none;stroke-linecap:square;fill:url(#shape color);fill-opacity:1;fill-rule: evenodd"/>
<path id="Mothbeam_v5_0_1_1_f0057"  d="M 6.137499999999999 38.794999999999995 L 6.937499999999999 38.794999999999995 L 6.9375 39.004999999999995 L 6.137499999999999 39.004999999999995 L 6.137499999999999 38.795 Z " stroke="#000000" stroke-width="0.35 px" style="stroke-width:0.35;stroke-miterlimit:4;stroke-dasharray:none;stroke-linecap:square;fill:url(#shape color);fill-opacity:1;fill-rule: evenodd"/>
<path id="Mothbeam_v5_0_1_1_f0058"  d="M 6.9375 39.05 M 6.9375 39.05 L 6.9375 39.004999999999995 L 6.137499999999999 39.004999999999995 M 6.137499999999999 39.004999999999995 L 6.137499999999999 39.05 L 6.9375 39.05 Z " stroke="#000000" stroke-width="0.35 px" style="stroke-width:0.35;stroke-miterlimit:4;stroke-dasharray:none;stroke-linecap:square;fill:url(#shape color);fill-opacity:1;fill-rule: evenodd"/>
<path id="Mothbeam_v5_0_1_1_f0059"  d="M 6.9375 39.05 L 6.9375 40.05 L 6.9375 40.305 L 6.9375 40.305 L 6.937499999999999 40.05 L 6.9375 39.05 L 6.937499999999999 38.794999999999995 L 6.937499999999999 38.794999999999995 L 6.9375 39.05 Z " stroke="#000000" stroke-width="0.35 px" style="stroke-width:0.35;stroke-miterlimit:4;stroke-dasharray:none;stroke-linecap:square;fill:url(#shape color);fill-opacity:1;fill-rule: evenodd"/>
<path id="Mothbeam_v5_0_1_1_f0060"  d="M 6.937499999999999 39.005 L 6.937499999999999 38.795 L 6.137499999999999 38.794999999999995 L 6.137499999999999 39.004999999999995 L 6.9375 39.004999999999995 Z " stroke="#000000" stroke-width="0.35 px" style="stroke-width:0.35;stroke-miterlimit:4;stroke-dasharray:none;stroke-linecap:square;fill:url(#shape color);fill-opacity:1;fill-rule: evenodd"/>
<path id="Mothbeam_v5_0_1_1_f0061"  d="M 6.9375 39.05 L 6.137499999999999 39.05 M 6.137499999999999 39.05 L 6.137499999999999 39.004999999999995 L 6.9375 39.004999999999995 M 6.9375 39.004999999999995 L 6.9375 39.05 Z " stroke="#000000" stroke-width="0.35 px" style="stroke-width:0.35;stroke-miterlimit:4;stroke-dasharray:none;stroke-linecap:square;fill:url(#shape color);fill-opacity:1;fill-rule: evenodd"/>
<path id="Mothbeam_v5_0_1_1_f0062"  d="M 6.137499999999999 40.05 L 6.1375 40.305 L 6.1375 40.305 L 6.137499999999999 40.05 L 6.137499999999999 39.05 L 6.137499999999999 38.794999999999995 L 6.137499999999999 38.794999999999995 L 6.137499999999999 39.05 L 6.137499999999999 40.05 Z " stroke="#000000" stroke-width="0.35 px" style="stroke-width:0.35;stroke-miterlimit:4;stroke-dasharray:none;stroke-linecap:square;fill:url(#shape color);fill-opacity:1;fill-rule: evenodd"/>
<path id="Mothbeam_v5_0_1_1_f0063"  d="M 6.137499999999999 39.05 L 6.137499999999999 40.05 L 6.9375 40.05 L 6.937499999999999 39.05 L 6.137499999999999 39.05 Z " stroke="#000000" stroke-width="0.35 px" style="stroke-width:0.35;stroke-miterlimit:4;stroke-dasharray:none;stroke-linecap:square;fill:url(#shape color);fill-opacity:1;fill-rule: evenodd"/>
<path id="Mothbeam_v5_0_1_1_f0064"  d="M 6.9375 40.095 M 6.9375 40.095 L 6.9375 40.05 L 6.9375 40.305 L 6.9375 40.305 L 6.937499999999999 40.05 M 6.9375 40.05 L 6.9375 40.095 L 6.9375 40.305 M 6.9375 40.305 L 6.9375 40.35 L 6.9375 40.349999999999994 M 6.9375 40.349999999999994 L 6.9375 40.305 L 6.9375 40.095 Z " stroke="#000000" stroke-width="0.35 px" style="stroke-width:0.35;stroke-miterlimit:4;stroke-dasharray:none;stroke-linecap:square;fill:url(#shape color);fill-opacity:1;fill-rule: evenodd"/>
<path id="Mothbeam_v5_0_1_1_f0065"  d="M 6.9375 40.05 L 6.9375 40.05 L 6.9375 39.05 L 6.9375 39.05 L 6.9375 40.05 Z " stroke="#000000" stroke-width="0.35 px" style="stroke-width:0.35;stroke-miterlimit:4;stroke-dasharray:none;stroke-linecap:square;fill:url(#shape color);fill-opacity:1;fill-rule: evenodd"/>
<path id="Mothbeam_v5_0_1_1_f0066"  d="M 6.9375 39.05 L 6.137499999999999 39.05 L 6.137499999999999 39.05 L 6.9375 39.05 L 6.9375 39.05 Z " stroke="#000000" stroke-width="0.35 px" style="stroke-width:0.35;stroke-miterlimit:4;stroke-dasharray:none;stroke-linecap:square;fill:url(#shape color);fill-opacity:1;fill-rule: evenodd"/>
<path id="Mothbeam_v5_0_1_1_f0067"  d="M 6.1375 40.349999999999994 L 6.1375 40.349999999999994 M 6.1375 40.349999999999994 L 6.1375 40.305 L 6.137499999999999 40.095 M 6.137499999999999 40.095 L 6.137499999999999 40.05 L 6.1375 40.305 L 6.1375 40.305 L 6.137499999999999 40.05 M 6.137499999999999 40.05 L 6.137499999999999 40.095 L 6.1375 40.305 M 6.1375 40.305 L 6.1375 40.35 Z " stroke="#000000" stroke-width="0.35 px" style="stroke-width:0.35;stroke-miterlimit:4;stroke-dasharray:none;stroke-linecap:square;fill:url(#shape color);fill-opacity:1;fill-rule: evenodd"/>
<path id="Mothbeam_v5_0_1_1_f0068"  d="M 6.137499999999999 40.05 L 6.137499999999999 39.05 L 6.137499999999999 39.05 L 6.137499999999999 40.05 L 6.137499999999999 40.05 Z " stroke="#000000" stroke-width="0.35 px" style="stroke-width:0.35;stroke-miterlimit:4;stroke-dasharray:none;stroke-linecap:square;fill:url(#shape color);fill-opacity:1;fill-rule: evenodd"/>
<path id="Mothbeam_v5_0_1_1_f0069"  d="M 6.9375 40.05 L 6.137499999999999 40.05 M 6.137499999999999 40.05 L 6.137499999999999 40.095 L 6.9375 40.095 M 6.9375 40.095 L 6.9375 40.05 Z " stroke="#000000" stroke-width="0.35 px" style="stroke-width:0.35;stroke-miterlimit:4;stroke-dasharray:none;stroke-linecap:square;fill:url(#shape color);fill-opacity:1;fill-rule: evenodd"/>
<path id="Mothbeam_v5_0_1_1_f0070"  d="M 6.1375 40.095 L 6.9375 40.095 L 6.9375 40.305 L 6.1375 40.305 L 6.137499999999999 40.095 Z " stroke="#000000" stroke-width="0.35 px" style="stroke-width:0.35;stroke-miterlimit:4;stroke-dasharray:none;stroke-linecap:square;fill:url(#shape color);fill-opacity:1;fill-rule: evenodd"/>
<path id="Mothbeam_v5_0_1_1_f0071"  d="M 6.9375 40.349999999999994 M 6.9375 40.349999999999994 L 6.9375 40.305 L 6.1375 40.305 M 6.1375 40.305 L 6.1375 40.35 L 6.9375 40.349999999999994 Z " stroke="#000000" stroke-width="0.35 px" style="stroke-width:0.35;stroke-miterlimit:4;stroke-dasharray:none;stroke-linecap:square;fill:url(#shape color);fill-opacity:1;fill-rule: evenodd"/>
<path id="Mothbeam_v5_0_1_1_f0072"  d="M 6.1375 40.349999999999994 L 6.1375 40.349999999999994 L 6.9375 40.349999999999994 L 6.9375 40.349999999999994 L 6.1375 40.349999999999994 Z " stroke="#000000" stroke-width="0.35 px" style="stroke-width:0.35;stroke-miterlimit:4;stroke-dasharray:none;stroke-linecap:square;fill:url(#shape color);fill-opacity:1;fill-rule: evenodd"/>
<path id="Mothbeam_v5_0_1_1_f0073"  d="M 6.9375 40.349999999999994 L 6.1375 40.349999999999994 M 6.1375 40.349999999999994 L 6.1375 40.305 L 6.9375 40.305 M 6.9375 40.305 L 6.9375 40.35 Z " stroke="#000000" stroke-width="0.35 px" style="stroke-width:0.35;stroke-miterlimit:4;stroke-dasharray:none;stroke-linecap:square;fill:url(#shape color);fill-opacity:1;fill-rule: evenodd"/>
<path id="Mothbeam_v5_0_1_1_f0074"  d="M 6.9375 40.305 L 6.9375 40.095 L 6.137499999999999 40.095 L 6.1375 40.305 L 6.9375 40.305 Z " stroke="#000000" stroke-width="0.35 px" style="stroke-width:0.35;stroke-miterlimit:4;stroke-dasharray:none;stroke-linecap:square;fill:url(#shape color);fill-opacity:1;fill-rule: evenodd"/>
<path id="Mothbeam_v5_0_1_1_f0075"  d="M 6.9375 40.05 M 6.9375 40.05 L 6.9375 40.095 L 6.137499999999999 40.095 M 6.137499999999999 40.095 L 6.137499999999999 40.05 L 6.9375 40.05 Z " stroke="#000000" stroke-width="0.35 px" style="stroke-width:0.35;stroke-miterlimit:4;stroke-dasharray:none;stroke-linecap:square;fill:url(#shape color);fill-opacity:1;fill-rule: evenodd"/>
<path id="Mothbeam_v5_0_1_1_f0076"  d="M 6.137499999999999 40.05 L 6.137499999999999 40.05 L 6.9375 40.05 L 6.9375 40.05 L 6.137499999999999 40.05 Z " stroke="#000000" stroke-width="0.35 px" style="stroke-width:0.35;stroke-miterlimit:4;stroke-dasharray:none;stroke-linecap:square;fill:url(#shape color);fill-opacity:1;fill-rule: evenodd"/>
<path id="Mothbeam_v5_0_1_1_f0077"  d="M 6.1375 40.05 L 6.9375 40.05 L 6.9375 39.05 L 6.137499999999999 39.05 L 6.137499999999999 40.05 Z " stroke="#000000" stroke-width="0.35 px" style="stroke-width:0.35;stroke-miterlimit:4;stroke-dasharray:none;stroke-linecap:square;fill:url(#shape color);fill-opacity:1;fill-rule: evenodd"/>
<path id="Mothbeam_v5_0_1_1_f0078"  d="M -2.3 31.950000000000003 L -2.3 32.75 L -2.3 32.75 L -2.3 31.950000000000003 L -2.3 31.950000000000003 Z " stroke="#000000" stroke-width="0.35 px" style="stroke-width:0.35;stroke-miterlimit:4;stroke-dasharray:none;stroke-linecap:square;fill:url(#shape color);fill-opacity:1;fill-rule: evenodd"/>
<path id="Mothbeam_v5_0_1_1_f0079"  d="M -2.255 31.950000000000003 M -2.255 31.950000000000003 L -2.3 31.950000000000003 L -2.3 31.950000000000003 M -2.3 31.950000000000003 L -2.255 31.950000000000003 L -2.045 31.950000000000003 M -2.045 31.950000000000003 L -2.0 31.950000000000003 L -2.255 31.950000000000003 L -2.255 31.950000000000003 L -2.0 31.950000000000003 M -2.0 31.950000000000003 L -2.045 31.950000000000003 L -2.255 31.950000000000003 Z " stroke="#000000" stroke-width="0.35 px" style="stroke-width:0.35;stroke-miterlimit:4;stroke-dasharray:none;stroke-linecap:square;fill:url(#shape color);fill-opacity:1;fill-rule: evenodd"/>
<path id="Mothbeam_v5_0_1_1_f0080"  d="M -2.3 31.950000000000003 L -2.3 32.75 M -2.3 32.75 L -2.255 32.75 L -2.255 31.950000000000003 M -2.255 31.950000000000003 L -2.3 31.950000000000003 Z " stroke="#000000" stroke-width="0.35 px" style="stroke-width:0.35;stroke-miterlimit:4;stroke-dasharray:none;stroke-linecap:square;fill:url(#shape color);fill-opacity:1;fill-rule: evenodd"/>
<path id="Mothbeam_v5_0_1_1_f0081"  d="M -2.3 31.950000000000003 M -2.3 31.950000000000003 L -2.255 31.950000000000003 L -2.255 32.75 M -2.255 32.75 L -2.3 32.75 L -2.3 31.950000000000003 Z " stroke="#000000" stroke-width="0.35 px" style="stroke-width:0.35;stroke-miterlimit:4;stroke-dasharray:none;stroke-linecap:square;fill:url(#shape color);fill-opacity:1;fill-rule: evenodd"/>
<path id="Mothbeam_v5_0_1_1_f0082"  d="M -2.0 32.75 L -2.255 32.75 L -2.255 32.75 L -2.0 32.75 M -2.0 32.75 L -2.045 32.75 L -2.255 32.75 M -2.255 32.75 L -2.3 32.75 L -2.3 32.75 M -2.3 32.75 L -2.255 32.75 L -2.045 32.75 M -2.045 32.75 L -2.0 32.75 Z " stroke="#000000" stroke-width="0.35 px" style="stroke-width:0.35;stroke-miterlimit:4;stroke-dasharray:none;stroke-linecap:square;fill:url(#shape color);fill-opacity:1;fill-rule: evenodd"/>
<path id="Mothbeam_v5_0_1_1_f0083"  d="M -2.255 32.75 L -2.255 31.950000000000003 L -2.045 31.950000000000003 L -2.045 32.75 L -2.255 32.75 Z " stroke="#000000" stroke-width="0.35 px" style="stroke-width:0.35;stroke-miterlimit:4;stroke-dasharray:none;stroke-linecap:square;fill:url(#shape color);fill-opacity:1;fill-rule: evenodd"/>
<path id="Mothbeam_v5_0_1_1_f0084"  d="M -2.0 31.950000000000003 M -2.0 31.950000000000003 L -2.045 31.950000000000003 L -2.045 32.75 M -2.045 32.75 L -2.0 32.75 L -2.0 31.950000000000003 Z " stroke="#000000" stroke-width="0.35 px" style="stroke-width:0.35;stroke-miterlimit:4;stroke-dasharray:none;stroke-linecap:square;fill:url(#shape color);fill-opacity:1;fill-rule: evenodd"/>
<path id="Mothbeam_v5_0_1_1_f0085"  d="M -2.0 31.950000000000003 L -1.0 31.950000000000003 L -0.745 31.950000000000003 L -0.745 31.950000000000003 L -1.0 31.950000000000003 L -2.0 31.950000000000003 L -2.255 31.950000000000003 L -2.255 31.950000000000003 L -2.0 31.950000000000003 Z " stroke="#000000" stroke-width="0.35 px" style="stroke-width:0.35;stroke-miterlimit:4;stroke-dasharray:none;stroke-linecap:square;fill:url(#shape color);fill-opacity:1;fill-rule: evenodd"/>
<path id="Mothbeam_v5_0_1_1_f0086"  d="M -2.045 31.950000000000003 L -2.255 31.950000000000003 L -2.255 32.75 L -2.045 32.75 L -2.045 31.950000000000003 Z " stroke="#000000" stroke-width="0.35 px" style="stroke-width:0.35;stroke-miterlimit:4;stroke-dasharray:none;stroke-linecap:square;fill:url(#shape color);fill-opacity:1;fill-rule: evenodd"/>
<path id="Mothbeam_v5_0_1_1_f0087"  d="M -2.0 31.950000000000003 L -2.0 32.75 M -2.0 32.75 L -2.045 32.75 L -2.045 31.950000000000003 M -2.045 31.950000000000003 L -2.0 31.950000000000003 Z " stroke="#000000" stroke-width="0.35 px" style="stroke-width:0.35;stroke-miterlimit:4;stroke-dasharray:none;stroke-linecap:square;fill:url(#shape color);fill-opacity:1;fill-rule: evenodd"/>
<path id="Mothbeam_v5_0_1_1_f0088"  d="M -1.0 32.75 L -0.745 32.75 L -0.745 32.75 L -1.0 32.75 L -2.0 32.75 L -2.255 32.75 L -2.255 32.75 L -2.0 32.75 L -1.0 32.75 Z " stroke="#000000" stroke-width="0.35 px" style="stroke-width:0.35;stroke-miterlimit:4;stroke-dasharray:none;stroke-linecap:square;fill:url(#shape color);fill-opacity:1;fill-rule: evenodd"/>
<path id="Mothbeam_v5_0_1_1_f0089"  d="M -2.0 32.75 L -1.0 32.75 L -1.0 31.950000000000003 L -2.0 31.950000000000003 L -2.0 32.75 Z " stroke="#000000" stroke-width="0.35 px" style="stroke-width:0.35;stroke-miterlimit:4;stroke-dasharray:none;stroke-linecap:square;fill:url(#shape color);fill-opacity:1;fill-rule: evenodd"/>
<path id="Mothbeam_v5_0_1_1_f0090"  d="M -0.955 31.950000000000003 M -0.955 31.950000000000003 L -1.0 31.950000000000003 L -0.745 31.950000000000003 L -0.745 31.950000000000003 L -1.0 31.950000000000003 M -1.0 31.950000000000003 L -0.955 31.950000000000003 L -0.745 31.950000000000003 M -0.745 31.950000000000003 L -0.7 31.950000000000003 L -0.7 31.950000000000003 M -0.7 31.950000000000003 L -0.745 31.950000000000003 L -0.955 31.950000000000003 Z " stroke="#000000" stroke-width="0.35 px" style="stroke-width:0.35;stroke-miterlimit:4;stroke-dasharray:none;stroke-linecap:square;fill:url(#shape color);fill-opacity:1;fill-rule: evenodd"/>
<path id="Mothbeam_v5_0_1_1_f0091"  d="M -1.0 31.950000000000003 L -1.0 31.950000000000003 L -2.0 31.950000000000003 L -2.0 31.950000000000003 L -1.0 31.950000000000003 Z " stroke="#000000" stroke-width="0.35 px" style="stroke-width:0.35;stroke-miterlimit:4;stroke-dasharray:none;stroke-linecap:square;fill:url(#shape color);fill-opacity:1;fill-rule: evenodd"/>
<path id="Mothbeam_v5_0_1_1_f0092"  d="M -2.0 31.950000000000003 L -2.0 32.75 L -2.0 32.75 L -2.0 31.950000000000003 L -2.0 31.950000000000003 Z " stroke="#000000" stroke-width="0.35 px" style="stroke-width:0.35;stroke-miterlimit:4;stroke-dasharray:none;stroke-linecap:square;fill:url(#shape color);fill-opacity:1;fill-rule: evenodd"/>
<path id="Mothbeam_v5_0_1_1_f0093"  d="M -0.7 32.75 L -0.7 32.75 M -0.7 32.75 L -0.745 32.75 L -0.955 32.75 M -0.955 32.75 L -1.0 32.75 L -0.745 32.75 L -0.745 32.75 L -1.0 32.75 M -1.0 32.75 L -0.955 32.75 L -0.745 32.75 M -0.745 32.75 L -0.7 32.75 Z " stroke="#000000" stroke-width="0.35 px" style="stroke-width:0.35;stroke-miterlimit:4;stroke-dasharray:none;stroke-linecap:square;fill:url(#shape color);fill-opacity:1;fill-rule: evenodd"/>
<path id="Mothbeam_v5_0_1_1_f0094"  d="M -1.0 32.75 L -2.0 32.75 L -2.0 32.75 L -1.0 32.75 L -1.0 32.75 Z " stroke="#000000" stroke-width="0.35 px" style="stroke-width:0.35;stroke-miterlimit:4;stroke-dasharray:none;stroke-linecap:square;fill:url(#shape color);fill-opacity:1;fill-rule: evenodd"/>
<path id="Mothbeam_v5_0_1_1_f0095"  d="M -1.0 31.950000000000003 L -1.0 32.75 M -1.0 32.75 L -0.955 32.75 L -0.955 31.950000000000003 M -0.955 31.950000000000003 L -1.0 31.950000000000003 Z " stroke="#000000" stroke-width="0.35 px" style="stroke-width:0.35;stroke-miterlimit:4;stroke-dasharray:none;stroke-linecap:square;fill:url(#shape color);fill-opacity:1;fill-rule: evenodd"/>
<path id="Mothbeam_v5_0_1_1_f0096"  d="M -0.955 32.75 L -0.955 31.950000000000003 L -0.745 31.950000000000003 L -0.745 32.75 L -0.955 32.75 Z " stroke="#000000" stroke-width="0.35 px" style="stroke-width:0.35;stroke-miterlimit:4;stroke-dasharray:none;stroke-linecap:square;fill:url(#shape color);fill-opacity:1;fill-rule: evenodd"/>
<path id="Mothbeam_v5_0_1_1_f0097"  d="M -0.7 31.950000000000003 M -0.7 31.950000000000003 L -0.745 31.950000000000003 L -0.745 32.75 M -0.745 32.75 L -0.7 32.75 L -0.7 31.950000000000003 Z " stroke="#000000" stroke-width="0.35 px" style="stroke-width:0.35;stroke-miterlimit:4;stroke-dasharray:none;stroke-linecap:square;fill:url(#shape color);fill-opacity:1;fill-rule: evenodd"/>
<path id="Mothbeam_v5_0_1_1_f0098"  d="M -0.7 32.75 L -0.7 32.75 L -0.7 31.950000000000003 L -0.7 31.950000000000003 L -0.7 32.75 Z " stroke="#000000" stroke-width="0.35 px" style="stroke-width:0.35;stroke-miterlimit:4;stroke-dasharray:none;stroke-linecap:square;fill:url(#shape color);fill-opacity:1;fill-rule: evenodd"/>
<path id="Mothbeam_v5_0_1_1_f0099"  d="M -0.7 31.950000000000003 L -0.7 32.75 M -0.7 32.75 L -0.745 32.75 L -0.745 31.950000000000003 M -0.745 31.950000000000003 L -0.7 31.950000000000003 Z " stroke="#000000" stroke-width="0.35 px" style="stroke-width:0.35;stroke-miterlimit:4;stroke-dasharray:none;stroke-linecap:square;fill:url(#shape color);fill-opacity:1;fill-rule: evenodd"/>
<path id="Mothbeam_v5_0_1_1_f0100"  d="M -0.745 31.950000000000003 L -0.955 31.950000000000003 L -0.955 32.75 L -0.745 32.75 L -0.745 31.950000000000003 Z " stroke="#000000" stroke-width="0.35 px" style="stroke-width:0.35;stroke-miterlimit:4;stroke-dasharray:none;stroke-linecap:square;fill:url(#shape color);fill-opacity:1;fill-rule: evenodd"/>
<path id="Mothbeam_v5_0_1_1_f0101"  d="M -1.0 31.950000000000003 M -1.0 31.950000000000003 L -0.955 31.950000000000003 L -0.955 32.75 M -0.955 32.75 L -1.0 32.75 L -1.0 31.950000000000003 Z " stroke="#000000" stroke-width="0.35 px" style="stroke-width:0.35;stroke-miterlimit:4;stroke-dasharray:none;stroke-linecap:square;fill:url(#shape color);fill-opacity:1;fill-rule: evenodd"/>
<path id="Mothbeam_v5_0_1_1_f0102"  d="M -1.0 32.75 L -1.0 32.75 L -1.0 31.950000000000003 L -1.0 31.950000000000003 L -1.0 32.75 Z " stroke="#000000" stroke-width="0.35 px" style="stroke-width:0.35;stroke-miterlimit:4;stroke-dasharray:none;stroke-linecap:square;fill:url(#shape color);fill-opacity:1;fill-rule: evenodd"/>
<path id="Mothbeam_v5_0_1_1_f0103"  d="M -1.0 32.75 L -1.0 31.950000000000003 L -2.0 31.950000000000003 L -2.0 32.75 L -1.0 32.75 Z " stroke="#000000" stroke-width="0.35 px" style="stroke-width:0.35;stroke-miterlimit:4;stroke-dasharray:none;stroke-linecap:square;fill:url(#shape color);fill-opacity:1;fill-rule: evenodd"/>
<path id="Mothbeam_v5_0_1_1_f0104"  d="M 19.95 39.699999999999996 L 19.95 38.9 L 19.95 38.9 L 19.95 39.699999999999996 L 19.95 39.699999999999996 Z " stroke="#000000" stroke-width="0.35 px" style="stroke-width:0.35;stroke-miterlimit:4;stroke-dasharray:none;stroke-linecap:square;fill:url(#shape color);fill-opacity:1;fill-rule: evenodd"/>
<path id="Mothbeam_v5_0_1_1_f0105"  d="M 19.904999999999998 39.699999999999996 M 19.904999999999998 39.699999999999996 L 19.95 39.699999999999996 L 19.95 39.699999999999996 M 19.95 39.699999999999996 L 19.904999999999998 39.699999999999996 L 19.695 39.699999999999996 M 19.695 39.699999999999996 L 19.65 39.699999999999996 L 19.904999999999998 39.699999999999996 L 19.904999999999998 39.699999999999996 L 19.65 39.699999999999996 M 19.65 39.699999999999996 L 19.695 39.699999999999996 L 19.904999999999998 39.699999999999996 Z " stroke="#000000" stroke-width="0.35 px" style="stroke-width:0.35;stroke-miterlimit:4;stroke-dasharray:none;stroke-linecap:square;fill:url(#shape color);fill-opacity:1;fill-rule: evenodd"/>
<path id="Mothbeam_v5_0_1_1_f0106"  d="M 19.95 39.699999999999996 L 19.95 38.9 M 19.95 38.9 L 19.904999999999998 38.9 L 19.904999999999998 39.699999999999996 M 19.904999999999998 39.699999999999996 L 19.95 39.699999999999996 Z " stroke="#000000" stroke-width="0.35 px" style="stroke-width:0.35;stroke-miterlimit:4;stroke-dasharray:none;stroke-linecap:square;fill:url(#shape color);fill-opacity:1;fill-rule: evenodd"/>
<path id="Mothbeam_v5_0_1_1_f0107"  d="M 19.95 39.699999999999996 M 19.95 39.699999999999996 L 19.904999999999998 39.699999999999996 L 19.904999999999998 38.9 M 19.904999999999998 38.9 L 19.95 38.9 L 19.95 39.699999999999996 Z " stroke="#000000" stroke-width="0.35 px" style="stroke-width:0.35;stroke-miterlimit:4;stroke-dasharray:none;stroke-linecap:square;fill:url(#shape color);fill-opacity:1;fill-rule: evenodd"/>
<path id="Mothbeam_v5_0_1_1_f0108"  d="M 19.65 38.9 L 19.904999999999998 38.9 L 19.904999999999998 38.9 L 19.65 38.9 M 19.65 38.9 L 19.695 38.9 L 19.904999999999998 38.9 M 19.904999999999998 38.9 L 19.95 38.9 L 19.95 38.9 M 19.95 38.9 L 19.904999999999998 38.9 L 19.695 38.9 M 19.695 38.9 L 19.65 38.9 Z " stroke="#000000" stroke-width="0.35 px" style="stroke-width:0.35;stroke-miterlimit:4;stroke-dasharray:none;stroke-linecap:square;fill:url(#shape color);fill-opacity:1;fill-rule: evenodd"/>
<path id="Mothbeam_v5_0_1_1_f0109"  d="M 19.904999999999998 38.9 L 19.904999999999998 39.699999999999996 L 19.695 39.699999999999996 L 19.695 38.9 L 19.904999999999998 38.9 Z " stroke="#000000" stroke-width="0.35 px" style="stroke-width:0.35;stroke-miterlimit:4;stroke-dasharray:none;stroke-linecap:square;fill:url(#shape color);fill-opacity:1;fill-rule: evenodd"/>
<path id="Mothbeam_v5_0_1_1_f0110"  d="M 19.65 39.699999999999996 M 19.65 39.699999999999996 L 19.695 39.699999999999996 L 19.695 38.9 M 19.695 38.9 L 19.65 38.9 L 19.65 39.699999999999996 Z " stroke="#000000" stroke-width="0.35 px" style="stroke-width:0.35;stroke-miterlimit:4;stroke-dasharray:none;stroke-linecap:square;fill:url(#shape color);fill-opacity:1;fill-rule: evenodd"/>
<path id="Mothbeam_v5_0_1_1_f0111"  d="M 19.65 39.699999999999996 L 18.65 39.699999999999996 L 18.395 39.699999999999996 L 18.395 39.699999999999996 L 18.65 39.699999999999996 L 19.65 39.699999999999996 L 19.904999999999998 39.699999999999996 L 19.904999999999998 39.699999999999996 L 19.65 39.699999999999996 Z " stroke="#000000" stroke-width="0.35 px" style="stroke-width:0.35;stroke-miterlimit:4;stroke-dasharray:none;stroke-linecap:square;fill:url(#shape color);fill-opacity:1;fill-rule: evenodd"/>
<path id="Mothbeam_v5_0_1_1_f0112"  d="M 19.695 39.699999999999996 L 19.904999999999998 39.699999999999996 L 19.904999999999998 38.9 L 19.695 38.9 L 19.695 39.699999999999996 Z " stroke="#000000" stroke-width="0.35 px" style="stroke-width:0.35;stroke-miterlimit:4;stroke-dasharray:none;stroke-linecap:square;fill:url(#shape color);fill-opacity:1;fill-rule: evenodd"/>
<path id="Mothbeam_v5_0_1_1_f0113"  d="M 19.65 39.699999999999996 L 19.65 38.9 M 19.65 38.9 L 19.695 38.9 L 19.695 39.699999999999996 M 19.695 39.699999999999996 L 19.65 39.699999999999996 Z " stroke="#000000" stroke-width="0.35 px" style="stroke-width:0.35;stroke-miterlimit:4;stroke-dasharray:none;stroke-linecap:square;fill:url(#shape color);fill-opacity:1;fill-rule: evenodd"/>
<path id="Mothbeam_v5_0_1_1_f0114"  d="M 18.65 38.9 L 18.395 38.9 L 18.395 38.9 L 18.65 38.9 L 19.65 38.9 L 19.904999999999998 38.9 L 19.904999999999998 38.9 L 19.65 38.9 L 18.65 38.9 Z " stroke="#000000" stroke-width="0.35 px" style="stroke-width:0.35;stroke-miterlimit:4;stroke-dasharray:none;stroke-linecap:square;fill:url(#shape color);fill-opacity:1;fill-rule: evenodd"/>
<path id="Mothbeam_v5_0_1_1_f0115"  d="M 19.65 38.9 L 18.65 38.9 L 18.65 39.699999999999996 L 19.65 39.699999999999996 L 19.65 38.9 Z " stroke="#000000" stroke-width="0.35 px" style="stroke-width:0.35;stroke-miterlimit:4;stroke-dasharray:none;stroke-linecap:square;fill:url(#shape color);fill-opacity:1;fill-rule: evenodd"/>
<path id="Mothbeam_v5_0_1_1_f0116"  d="M 18.604999999999997 39.699999999999996 M 18.604999999999997 39.699999999999996 L 18.65 39.699999999999996 L 18.395 39.699999999999996 L 18.395 39.699999999999996 L 18.65 39.699999999999996 M 18.65 39.699999999999996 L 18.604999999999997 39.699999999999996 L 18.395 39.699999999999996 M 18.395 39.699999999999996 L 18.349999999999998 39.699999999999996 L 18.349999999999998 39.699999999999996 M 18.349999999999998 39.699999999999996 L 18.395 39.699999999999996 L 18.604999999999997 39.699999999999996 Z " stroke="#000000" stroke-width="0.35 px" style="stroke-width:0.35;stroke-miterlimit:4;stroke-dasharray:none;stroke-linecap:square;fill:url(#shape color);fill-opacity:1;fill-rule: evenodd"/>
<path id="Mothbeam_v5_0_1_1_f0117"  d="M 18.65 39.699999999999996 L 18.65 39.699999999999996 L 19.65 39.699999999999996 L 19.65 39.699999999999996 L 18.65 39.699999999999996 Z " stroke="#000000" stroke-width="0.35 px" style="stroke-width:0.35;stroke-miterlimit:4;stroke-dasharray:none;stroke-linecap:square;fill:url(#shape color);fill-opacity:1;fill-rule: evenodd"/>
<path id="Mothbeam_v5_0_1_1_f0118"  d="M 19.65 39.699999999999996 L 19.65 38.9 L 19.65 38.9 L 19.65 39.699999999999996 L 19.65 39.699999999999996 Z " stroke="#000000" stroke-width="0.35 px" style="stroke-width:0.35;stroke-miterlimit:4;stroke-dasharray:none;stroke-linecap:square;fill:url(#shape color);fill-opacity:1;fill-rule: evenodd"/>
<path id="Mothbeam_v5_0_1_1_f0119"  d="M 18.349999999999998 38.9 L 18.349999999999998 38.9 M 18.349999999999998 38.9 L 18.395 38.9 L 18.604999999999997 38.9 M 18.604999999999997 38.9 L 18.65 38.9 L 18.395 38.9 L 18.395 38.9 L 18.65 38.9 M 18.65 38.9 L 18.604999999999997 38.9 L 18.395 38.9 M 18.395 38.9 L 18.349999999999998 38.9 Z " stroke="#000000" stroke-width="0.35 px" style="stroke-width:0.35;stroke-miterlimit:4;stroke-dasharray:none;stroke-linecap:square;fill:url(#shape color);fill-opacity:1;fill-rule: evenodd"/>
<path id="Mothbeam_v5_0_1_1_f0120"  d="M 18.65 38.9 L 19.65 38.9 L 19.65 38.9 L 18.65 38.9 L 18.65 38.9 Z " stroke="#000000" stroke-width="0.35 px" style="stroke-width:0.35;stroke-miterlimit:4;stroke-dasharray:none;stroke-linecap:square;fill:url(#shape color);fill-opacity:1;fill-rule: evenodd"/>
<path id="Mothbeam_v5_0_1_1_f0121"  d="M 18.65 39.699999999999996 L 18.65 38.9 M 18.65 38.9 L 18.604999999999997 38.9 L 18.604999999999997 39.699999999999996 M 18.604999999999997 39.699999999999996 L 18.65 39.699999999999996 Z " stroke="#000000" stroke-width="0.35 px" style="stroke-width:0.35;stroke-miterlimit:4;stroke-dasharray:none;stroke-linecap:square;fill:url(#shape color);fill-opacity:1;fill-rule: evenodd"/>
<path id="Mothbeam_v5_0_1_1_f0122"  d="M 18.604999999999997 38.9 L 18.604999999999997 39.699999999999996 L 18.395 39.699999999999996 L 18.395 38.9 L 18.604999999999997 38.9 Z " stroke="#000000" stroke-width="0.35 px" style="stroke-width:0.35;stroke-miterlimit:4;stroke-dasharray:none;stroke-linecap:square;fill:url(#shape color);fill-opacity:1;fill-rule: evenodd"/>
<path id="Mothbeam_v5_0_1_1_f0123"  d="M 18.349999999999998 39.699999999999996 M 18.349999999999998 39.699999999999996 L 18.395 39.699999999999996 L 18.395 38.9 M 18.395 38.9 L 18.349999999999998 38.9 L 18.349999999999998 39.699999999999996 Z " stroke="#000000" stroke-width="0.35 px" style="stroke-width:0.35;stroke-miterlimit:4;stroke-dasharray:none;stroke-linecap:square;fill:url(#shape color);fill-opacity:1;fill-rule: evenodd"/>
<path id="Mothbeam_v5_0_1_1_f0124"  d="M 18.349999999999998 38.9 L 18.349999999999998 38.9 L 18.349999999999998 39.699999999999996 L 18.349999999999998 39.699999999999996 L 18.349999999999998 38.9 Z " stroke="#000000" stroke-width="0.35 px" style="stroke-width:0.35;stroke-miterlimit:4;stroke-dasharray:none;stroke-linecap:square;fill:url(#shape color);fill-opacity:1;fill-rule: evenodd"/>
<path id="Mothbeam_v5_0_1_1_f0125"  d="M 18.349999999999998 39.699999999999996 L 18.349999999999998 38.9 M 18.349999999999998 38.9 L 18.395 38.9 L 18.395 39.699999999999996 M 18.395 39.699999999999996 L 18.349999999999998 39.699999999999996 Z " stroke="#000000" stroke-width="0.35 px" style="stroke-width:0.35;stroke-miterlimit:4;stroke-dasharray:none;stroke-linecap:square;fill:url(#shape color);fill-opacity:1;fill-rule: evenodd"/>
<path id="Mothbeam_v5_0_1_1_f0126"  d="M 18.395 39.699999999999996 L 18.604999999999997 39.699999999999996 L 18.604999999999997 38.9 L 18.395 38.9 L 18.395 39.699999999999996 Z " stroke="#000000" stroke-width="0.35 px" style="stroke-width:0.35;stroke-miterlimit:4;stroke-dasharray:none;stroke-linecap:square;fill:url(#shape color);fill-opacity:1;fill-rule: evenodd"/>
<path id="Mothbeam_v5_0_1_1_f0127"  d="M 18.65 39.699999999999996 M 18.65 39.699999999999996 L 18.604999999999997 39.699999999999996 L 18.604999999999997 38.9 M 18.604999999999997 38.9 L 18.65 38.9 L 18.65 39.699999999999996 Z " stroke="#000000" stroke-width="0.35 px" style="stroke-width:0.35;stroke-miterlimit:4;stroke-dasharray:none;stroke-linecap:square;fill:url(#shape color);fill-opacity:1;fill-rule: evenodd"/>
<path id="Mothbeam_v5_0_1_1_f0128"  d="M 18.65 38.9 L 18.65 38.9 L 18.65 39.699999999999996 L 18.65 39.699999999999996 L 18.65 38.9 Z " stroke="#000000" stroke-width="0.35 px" style="stroke-width:0.35;stroke-miterlimit:4;stroke-dasharray:none;stroke-linecap:square;fill:url(#shape color);fill-opacity:1;fill-rule: evenodd"/>
<path id="Mothbeam_v5_0_1_1_f0129"  d="M 18.65 38.9 L 18.65 39.699999999999996 L 19.65 39.699999999999996 L 19.65 38.9 L 18.65 38.9 Z " stroke="#000000" stroke-width="0.35 px" style="stroke-width:0.35;stroke-miterlimit:4;stroke-dasharray:none;stroke-linecap:square;fill:url(#shape color);fill-opacity:1;fill-rule: evenodd"/>
<path id="Mothbeam_v5_0_1_1_f0130"  d="M -1.9 28.925 L -2.7 28.925 L -2.7 28.925 L -1.9 28.925 L -1.9 28.925 Z " stroke="#000000" stroke-width="0.35 px" style="stroke-width:0.35;stroke-miterlimit:4;stroke-dasharray:none;stroke-linecap:square;fill:url(#shape color);fill-opacity:1;fill-rule: evenodd"/>
<path id="Mothbeam_v5_0_1_1_f0131"  d="M -1.9 28.970000000000002 M -1.9 28.970000000000002 L -1.9 28.925 L -1.9 28.925 M -1.9 28.925 L -1.9 28.970000000000002 L -1.9 29.18 M -1.9 29.18 L -1.9 29.225 L -1.9 28.970000000000002 L -1.9 28.970000000000002 L -1.9 29.225 M -1.9 29.225 L -1.9 29.18 L -1.9 28.970000000000002 Z " stroke="#000000" stroke-width="0.35 px" style="stroke-width:0.35;stroke-miterlimit:4;stroke-dasharray:none;stroke-linecap:square;fill:url(#shape color);fill-opacity:1;fill-rule: evenodd"/>
<path id="Mothbeam_v5_0_1_1_f0132"  d="M -1.9 28.925 L -2.7 28.925 M -2.7 28.925 L -2.7 28.970000000000002 L -1.9 28.970000000000002 M -1.9 28.970000000000002 L -1.9 28.925 Z " stroke="#000000" stroke-width="0.35 px" style="stroke-width:0.35;stroke-miterlimit:4;stroke-dasharray:none;stroke-linecap:square;fill:url(#shape color);fill-opacity:1;fill-rule: evenodd"/>
<path id="Mothbeam_v5_0_1_1_f0133"  d="M -1.9 28.925 M -1.9 28.925 L -1.9 28.970000000000002 L -2.7 28.970000000000002 M -2.7 28.970000000000002 L -2.7 28.925 L -1.9 28.925 Z " stroke="#000000" stroke-width="0.35 px" style="stroke-width:0.35;stroke-miterlimit:4;stroke-dasharray:none;stroke-linecap:square;fill:url(#shape color);fill-opacity:1;fill-rule: evenodd"/>
<path id="Mothbeam_v5_0_1_1_f0134"  d="M -2.7 29.225 L -2.7 28.970000000000002 L -2.7 28.970000000000002 L -2.7 29.225 M -2.7 29.225 L -2.7 29.18 L -2.7 28.970000000000002 M -2.7 28.970000000000002 L -2.7 28.925 L -2.7 28.925 M -2.7 28.925 L -2.7 28.970000000000002 L -2.7 29.18 M -2.7 29.18 L -2.7 29.225 Z " stroke="#000000" stroke-width="0.35 px" style="stroke-width:0.35;stroke-miterlimit:4;stroke-dasharray:none;stroke-linecap:square;fill:url(#shape color);fill-opacity:1;fill-rule: evenodd"/>
<path id="Mothbeam_v5_0_1_1_f0135"  d="M -2.7 28.970000000000002 L -1.9 28.970000000000002 L -1.9 29.18 L -2.7 29.18 L -2.7 28.970000000000002 Z " stroke="#000000" stroke-width="0.35 px" style="stroke-width:0.35;stroke-miterlimit:4;stroke-dasharray:none;stroke-linecap:square;fill:url(#shape color);fill-opacity:1;fill-rule: evenodd"/>
<path id="Mothbeam_v5_0_1_1_f0136"  d="M -1.9 29.225 M -1.9 29.225 L -1.9 29.18 L -2.7 29.18 M -2.7 29.18 L -2.7 29.225 L -1.9 29.225 Z " stroke="#000000" stroke-width="0.35 px" style="stroke-width:0.35;stroke-miterlimit:4;stroke-dasharray:none;stroke-linecap:square;fill:url(#shape color);fill-opacity:1;fill-rule: evenodd"/>
<path id="Mothbeam_v5_0_1_1_f0137"  d="M -1.9 29.225 L -1.8999999999999997 30.225 L -1.8999999999999997 30.48 L -1.8999999999999997 30.48 L -1.8999999999999997 30.225 L -1.9 29.225 L -1.9 28.970000000000002 L -1.9 28.970000000000002 L -1.9 29.225 Z " stroke="#000000" stroke-width="0.35 px" style="stroke-width:0.35;stroke-miterlimit:4;stroke-dasharray:none;stroke-linecap:square;fill:url(#shape color);fill-opacity:1;fill-rule: evenodd"/>
<path id="Mothbeam_v5_0_1_1_f0138"  d="M -1.9 29.18 L -1.9 28.970000000000002 L -2.7 28.970000000000002 L -2.7 29.18 L -1.9 29.18 Z " stroke="#000000" stroke-width="0.35 px" style="stroke-width:0.35;stroke-miterlimit:4;stroke-dasharray:none;stroke-linecap:square;fill:url(#shape color);fill-opacity:1;fill-rule: evenodd"/>
<path id="Mothbeam_v5_0_1_1_f0139"  d="M -1.9 29.225 L -2.7 29.225 M -2.7 29.225 L -2.7 29.18 L -1.9 29.18 M -1.9 29.18 L -1.9 29.225 Z " stroke="#000000" stroke-width="0.35 px" style="stroke-width:0.35;stroke-miterlimit:4;stroke-dasharray:none;stroke-linecap:square;fill:url(#shape color);fill-opacity:1;fill-rule: evenodd"/>
<path id="Mothbeam_v5_0_1_1_f0140"  d="M -2.6999999999999997 30.225 L -2.6999999999999997 30.48 L -2.6999999999999997 30.48 L -2.6999999999999997 30.225 L -2.7 29.225 L -2.7 28.970000000000002 L -2.7 28.970000000000002 L -2.7 29.225 L -2.6999999999999997 30.225 Z " stroke="#000000" stroke-width="0.35 px" style="stroke-width:0.35;stroke-miterlimit:4;stroke-dasharray:none;stroke-linecap:square;fill:url(#shape color);fill-opacity:1;fill-rule: evenodd"/>
<path id="Mothbeam_v5_0_1_1_f0141"  d="M -2.7 29.225 L -2.6999999999999997 30.225 L -1.8999999999999997 30.225 L -1.9 29.225 L -2.7 29.225 Z " stroke="#000000" stroke-width="0.35 px" style="stroke-width:0.35;stroke-miterlimit:4;stroke-dasharray:none;stroke-linecap:square;fill:url(#shape color);fill-opacity:1;fill-rule: evenodd"/>
<path id="Mothbeam_v5_0_1_1_f0142"  d="M -1.8999999999999997 30.270000000000003 M -1.8999999999999997 30.270000000000003 L -1.8999999999999997 30.225 L -1.8999999999999997 30.48 L -1.8999999999999997 30.48 L -1.8999999999999997 30.225 M -1.8999999999999997 30.225 L -1.8999999999999997 30.270000000000003 L -1.8999999999999997 30.48 M -1.8999999999999997 30.48 L -1.8999999999999997 30.525000000000002 L -1.8999999999999997 30.525000000000002 M -1.8999999999999997 30.525000000000002 L -1.8999999999999997 30.48 L -1.8999999999999997 30.270000000000003 Z " stroke="#000000" stroke-width="0.35 px" style="stroke-width:0.35;stroke-miterlimit:4;stroke-dasharray:none;stroke-linecap:square;fill:url(#shape color);fill-opacity:1;fill-rule: evenodd"/>
<path id="Mothbeam_v5_0_1_1_f0143"  d="M -1.8999999999999997 30.225 L -1.8999999999999997 30.225 L -1.9 29.225 L -1.9 29.225 L -1.8999999999999997 30.225 Z " stroke="#000000" stroke-width="0.35 px" style="stroke-width:0.35;stroke-miterlimit:4;stroke-dasharray:none;stroke-linecap:square;fill:url(#shape color);fill-opacity:1;fill-rule: evenodd"/>
<path id="Mothbeam_v5_0_1_1_f0144"  d="M -1.9 29.225 L -2.7 29.225 L -2.7 29.225 L -1.9 29.225 L -1.9 29.225 Z " stroke="#000000" stroke-width="0.35 px" style="stroke-width:0.35;stroke-miterlimit:4;stroke-dasharray:none;stroke-linecap:square;fill:url(#shape color);fill-opacity:1;fill-rule: evenodd"/>
<path id="Mothbeam_v5_0_1_1_f0145"  d="M -2.6999999999999997 30.525000000000002 L -2.6999999999999997 30.525000000000002 M -2.6999999999999997 30.525000000000002 L -2.6999999999999997 30.48 L -2.6999999999999997 30.270000000000003 M -2.6999999999999997 30.270000000000003 L -2.6999999999999997 30.225 L -2.6999999999999997 30.48 L -2.6999999999999997 30.48 L -2.6999999999999997 30.225 M -2.6999999999999997 30.225 L -2.6999999999999997 30.270000000000003 L -2.6999999999999997 30.48 M -2.6999999999999997 30.48 L -2.6999999999999997 30.525000000000002 Z " stroke="#000000" stroke-width="0.35 px" style="stroke-width:0.35;stroke-miterlimit:4;stroke-dasharray:none;stroke-linecap:square;fill:url(#shape color);fill-opacity:1;fill-rule: evenodd"/>
<path id="Mothbeam_v5_0_1_1_f0146"  d="M -2.7 30.225 L -2.7 29.225 L -2.7 29.225 L -2.6999999999999997 30.225 L -2.6999999999999997 30.225 Z " stroke="#000000" stroke-width="0.35 px" style="stroke-width:0.35;stroke-miterlimit:4;stroke-dasharray:none;stroke-linecap:square;fill:url(#shape color);fill-opacity:1;fill-rule: evenodd"/>
<path id="Mothbeam_v5_0_1_1_f0147"  d="M -1.8999999999999997 30.225 L -2.6999999999999997 30.225 M -2.6999999999999997 30.225 L -2.6999999999999997 30.270000000000003 L -1.8999999999999997 30.270000000000003 M -1.8999999999999997 30.270000000000003 L -1.8999999999999997 30.225 Z " stroke="#000000" stroke-width="0.35 px" style="stroke-width:0.35;stroke-miterlimit:4;stroke-dasharray:none;stroke-linecap:square;fill:url(#shape color);fill-opacity:1;fill-rule: evenodd"/>
<path id="Mothbeam_v5_0_1_1_f0148"  d="M -2.6999999999999997 30.270000000000003 L -1.8999999999999997 30.270000000000003 L -1.8999999999999997 30.48 L -2.6999999999999997 30.48 L -2.6999999999999997 30.270000000000003 Z " stroke="#000000" stroke-width="0.35 px" style="stroke-width:0.35;stroke-miterlimit:4;stroke-dasharray:none;stroke-linecap:square;fill:url(#shape color);fill-opacity:1;fill-rule: evenodd"/>
<path id="Mothbeam_v5_0_1_1_f0149"  d="M -1.8999999999999997 30.525000000000002 M -1.8999999999999997 30.525000000000002 L -1.8999999999999997 30.48 L -2.6999999999999997 30.48 M -2.6999999999999997 30.48 L -2.6999999999999997 30.525000000000002 L -1.8999999999999997 30.525000000000002 Z " stroke="#000000" stroke-width="0.35 px" style="stroke-width:0.35;stroke-miterlimit:4;stroke-dasharray:none;stroke-linecap:square;fill:url(#shape color);fill-opacity:1;fill-rule: evenodd"/>
<path id="Mothbeam_v5_0_1_1_f0150"  d="M -2.6999999999999997 30.525000000000002 L -2.6999999999999997 30.525000000000002 L -1.8999999999999997 30.525000000000002 L -1.8999999999999997 30.525000000000002 L -2.6999999999999997 30.525000000000002 Z " stroke="#000000" stroke-width="0.35 px" style="stroke-width:0.35;stroke-miterlimit:4;stroke-dasharray:none;stroke-linecap:square;fill:url(#shape color);fill-opacity:1;fill-rule: evenodd"/>
<path id="Mothbeam_v5_0_1_1_f0151"  d="M -1.8999999999999997 30.525000000000002 L -2.6999999999999997 30.525000000000002 M -2.6999999999999997 30.525000000000002 L -2.6999999999999997 30.48 L -1.8999999999999997 30.48 M -1.8999999999999997 30.48 L -1.8999999999999997 30.525000000000002 Z " stroke="#000000" stroke-width="0.35 px" style="stroke-width:0.35;stroke-miterlimit:4;stroke-dasharray:none;stroke-linecap:square;fill:url(#shape color);fill-opacity:1;fill-rule: evenodd"/>
<path id="Mothbeam_v5_0_1_1_f0152"  d="M -1.8999999999999997 30.48 L -1.8999999999999997 30.270000000000003 L -2.6999999999999997 30.270000000000003 L -2.6999999999999997 30.48 L -1.8999999999999997 30.48 Z " stroke="#000000" stroke-width="0.35 px" style="stroke-width:0.35;stroke-miterlimit:4;stroke-dasharray:none;stroke-linecap:square;fill:url(#shape color);fill-opacity:1;fill-rule: evenodd"/>
<path id="Mothbeam_v5_0_1_1_f0153"  d="M -1.8999999999999997 30.225 M -1.8999999999999997 30.225 L -1.8999999999999997 30.270000000000003 L -2.6999999999999997 30.270000000000003 M -2.6999999999999997 30.270000000000003 L -2.6999999999999997 30.225 L -1.8999999999999997 30.225 Z " stroke="#000000" stroke-width="0.35 px" style="stroke-width:0.35;stroke-miterlimit:4;stroke-dasharray:none;stroke-linecap:square;fill:url(#shape color);fill-opacity:1;fill-rule: evenodd"/>
<path id="Mothbeam_v5_0_1_1_f0154"  d="M -2.6999999999999997 30.225 L -2.6999999999999997 30.225 L -1.8999999999999997 30.225 L -1.8999999999999997 30.225 L -2.6999999999999997 30.225 Z " stroke="#000000" stroke-width="0.35 px" style="stroke-width:0.35;stroke-miterlimit:4;stroke-dasharray:none;stroke-linecap:square;fill:url(#shape color);fill-opacity:1;fill-rule: evenodd"/>
<path id="Mothbeam_v5_0_1_1_f0155"  d="M -2.6999999999999997 30.225 L -1.8999999999999997 30.225 L -1.9 29.225 L -2.7 29.225 L -2.6999999999999997 30.225 Z " stroke="#000000" stroke-width="0.35 px" style="stroke-width:0.35;stroke-miterlimit:4;stroke-dasharray:none;stroke-linecap:square;fill:url(#shape color);fill-opacity:1;fill-rule: evenodd"/>
<path id="Mothbeam_v5_0_1_1_f0156"  d="M -0.15000000000000002 28.5 L -0.15000000000000002 29.299999999999997 L -0.15000000000000002 29.299999999999997 L -0.15000000000000002 28.5 L -0.15000000000000002 28.5 Z " stroke="#000000" stroke-width="0.35 px" style="stroke-width:0.35;stroke-miterlimit:4;stroke-dasharray:none;stroke-linecap:square;fill:url(#shape color);fill-opacity:1;fill-rule: evenodd"/>
<path id="Mothbeam_v5_0_1_1_f0157"  d="M -0.10499999999999998 28.5 M -0.10499999999999998 28.5 L -0.14999999999999997 28.5 L -0.15000000000000002 28.5 M -0.15000000000000002 28.5 L -0.10499999999999998 28.5 L 0.10499999999999998 28.5 M 0.10499999999999998 28.5 L 0.14999999999999997 28.5 L -0.10499999999999998 28.5 L -0.10499999999999998 28.5 L 0.15000000000000002 28.5 M 0.15000000000000002 28.5 L 0.10499999999999998 28.5 L -0.10499999999999998 28.5 Z " stroke="#000000" stroke-width="0.35 px" style="stroke-width:0.35;stroke-miterlimit:4;stroke-dasharray:none;stroke-linecap:square;fill:url(#shape color);fill-opacity:1;fill-rule: evenodd"/>
<path id="Mothbeam_v5_0_1_1_f0158"  d="M -0.15000000000000002 28.5 L -0.15000000000000002 29.299999999999997 M -0.15000000000000002 29.299999999999997 L -0.10499999999999998 29.299999999999997 L -0.10499999999999998 28.5 M -0.10499999999999998 28.5 L -0.14999999999999997 28.5 Z " stroke="#000000" stroke-width="0.35 px" style="stroke-width:0.35;stroke-miterlimit:4;stroke-dasharray:none;stroke-linecap:square;fill:url(#shape color);fill-opacity:1;fill-rule: evenodd"/>
<path id="Mothbeam_v5_0_1_1_f0159"  d="M -0.15000000000000002 28.5 M -0.15000000000000002 28.5 L -0.10499999999999998 28.5 L -0.10499999999999998 29.299999999999997 M -0.10499999999999998 29.299999999999997 L -0.14999999999999997 29.299999999999997 L -0.15000000000000002 28.5 Z " stroke="#000000" stroke-width="0.35 px" style="stroke-width:0.35;stroke-miterlimit:4;stroke-dasharray:none;stroke-linecap:square;fill:url(#shape color);fill-opacity:1;fill-rule: evenodd"/>
<path id="Mothbeam_v5_0_1_1_f0160"  d="M 0.15000000000000002 29.299999999999997 L -0.10499999999999998 29.299999999999997 L -0.10499999999999998 29.299999999999997 L 0.15000000000000002 29.299999999999997 M 0.15000000000000002 29.299999999999997 L 0.10499999999999998 29.299999999999997 L -0.10499999999999998 29.299999999999997 M -0.10499999999999998 29.299999999999997 L -0.14999999999999997 29.299999999999997 L -0.15000000000000002 29.299999999999997 M -0.15000000000000002 29.299999999999997 L -0.10499999999999998 29.299999999999997 L 0.10499999999999998 29.299999999999997 M 0.10499999999999998 29.299999999999997 L 0.14999999999999997 29.299999999999997 Z " stroke="#000000" stroke-width="0.35 px" style="stroke-width:0.35;stroke-miterlimit:4;stroke-dasharray:none;stroke-linecap:square;fill:url(#shape color);fill-opacity:1;fill-rule: evenodd"/>
<path id="Mothbeam_v5_0_1_1_f0161"  d="M -0.10499999999999998 29.3 L -0.10499999999999998 28.5 L 0.10499999999999998 28.5 L 0.10499999999999998 29.299999999999997 L -0.10499999999999998 29.299999999999997 Z " stroke="#000000" stroke-width="0.35 px" style="stroke-width:0.35;stroke-miterlimit:4;stroke-dasharray:none;stroke-linecap:square;fill:url(#shape color);fill-opacity:1;fill-rule: evenodd"/>
<path id="Mothbeam_v5_0_1_1_f0162"  d="M 0.15000000000000002 28.5 M 0.15000000000000002 28.5 L 0.10499999999999998 28.5 L 0.10499999999999998 29.299999999999997 M 0.10499999999999998 29.299999999999997 L 0.14999999999999997 29.299999999999997 L 0.15000000000000002 28.5 Z " stroke="#000000" stroke-width="0.35 px" style="stroke-width:0.35;stroke-miterlimit:4;stroke-dasharray:none;stroke-linecap:square;fill:url(#shape color);fill-opacity:1;fill-rule: evenodd"/>
<path id="Mothbeam_v5_0_1_1_f0163"  d="M 0.15000000000000002 28.5 L 1.15 28.5 L 1.405 28.5 L 1.405 28.5 L 1.15 28.5 L 0.15000000000000002 28.5 L -0.10499999999999998 28.5 L -0.10499999999999998 28.5 L 0.15000000000000002 28.5 Z " stroke="#000000" stroke-width="0.35 px" style="stroke-width:0.35;stroke-miterlimit:4;stroke-dasharray:none;stroke-linecap:square;fill:url(#shape color);fill-opacity:1;fill-rule: evenodd"/>
<path id="Mothbeam_v5_0_1_1_f0164"  d="M 0.10499999999999998 28.5 L -0.10499999999999998 28.5 L -0.10499999999999998 29.299999999999997 L 0.10499999999999998 29.299999999999997 L 0.10499999999999998 28.5 Z " stroke="#000000" stroke-width="0.35 px" style="stroke-width:0.35;stroke-miterlimit:4;stroke-dasharray:none;stroke-linecap:square;fill:url(#shape color);fill-opacity:1;fill-rule: evenodd"/>
<path id="Mothbeam_v5_0_1_1_f0165"  d="M 0.15000000000000002 28.5 L 0.15000000000000002 29.299999999999997 M 0.15000000000000002 29.299999999999997 L 0.10499999999999998 29.299999999999997 L 0.10499999999999998 28.5 M 0.10499999999999998 28.5 L 0.14999999999999997 28.5 Z " stroke="#000000" stroke-width="0.35 px" style="stroke-width:0.35;stroke-miterlimit:4;stroke-dasharray:none;stroke-linecap:square;fill:url(#shape color);fill-opacity:1;fill-rule: evenodd"/>
<path id="Mothbeam_v5_0_1_1_f0166"  d="M 1.15 29.299999999999997 L 1.405 29.299999999999997 L 1.405 29.299999999999997 L 1.15 29.299999999999997 L 0.15000000000000002 29.299999999999997 L -0.10499999999999998 29.299999999999997 L -0.10499999999999998 29.299999999999997 L 0.15000000000000002 29.299999999999997 L 1.15 29.299999999999997 Z " stroke="#000000" stroke-width="0.35 px" style="stroke-width:0.35;stroke-miterlimit:4;stroke-dasharray:none;stroke-linecap:square;fill:url(#shape color);fill-opacity:1;fill-rule: evenodd"/>
<path id="Mothbeam_v5_0_1_1_f0167"  d="M 0.15000000000000002 29.299999999999997 L 1.15 29.299999999999997 L 1.15 28.5 L 0.15000000000000002 28.5 L 0.15000000000000002 29.299999999999997 Z " stroke="#000000" stroke-width="0.35 px" style="stroke-width:0.35;stroke-miterlimit:4;stroke-dasharray:none;stroke-linecap:square;fill:url(#shape color);fill-opacity:1;fill-rule: evenodd"/>
<path id="Mothbeam_v5_0_1_1_f0168"  d="M 1.195 28.5 M 1.195 28.5 L 1.1500000000000001 28.5 L 1.405 28.5 L 1.405 28.5 L 1.15 28.5 M 1.15 28.5 L 1.195 28.5 L 1.405 28.5 M 1.405 28.5 L 1.45 28.5 L 1.4500000000000002 28.5 M 1.4500000000000002 28.5 L 1.405 28.5 L 1.1949999999999998 28.5 Z " stroke="#000000" stroke-width="0.35 px" style="stroke-width:0.35;stroke-miterlimit:4;stroke-dasharray:none;stroke-linecap:square;fill:url(#shape color);fill-opacity:1;fill-rule: evenodd"/>
<path id="Mothbeam_v5_0_1_1_f0169"  d="M 1.15 28.5 L 1.15 28.5 L 0.15000000000000002 28.5 L 0.15000000000000002 28.5 L 1.15 28.5 Z " stroke="#000000" stroke-width="0.35 px" style="stroke-width:0.35;stroke-miterlimit:4;stroke-dasharray:none;stroke-linecap:square;fill:url(#shape color);fill-opacity:1;fill-rule: evenodd"/>
<path id="Mothbeam_v5_0_1_1_f0170"  d="M 0.15000000000000002 28.5 L 0.15000000000000002 29.299999999999997 L 0.15000000000000002 29.299999999999997 L 0.15000000000000002 28.5 L 0.15000000000000002 28.5 Z " stroke="#000000" stroke-width="0.35 px" style="stroke-width:0.35;stroke-miterlimit:4;stroke-dasharray:none;stroke-linecap:square;fill:url(#shape color);fill-opacity:1;fill-rule: evenodd"/>
<path id="Mothbeam_v5_0_1_1_f0171"  d="M 1.4500000000000002 29.299999999999997 L 1.4500000000000002 29.299999999999997 M 1.4500000000000002 29.299999999999997 L 1.405 29.299999999999997 L 1.1949999999999998 29.299999999999997 M 1.195 29.299999999999997 L 1.1500000000000001 29.299999999999997 L 1.405 29.299999999999997 L 1.405 29.299999999999997 L 1.15 29.299999999999997 M 1.15 29.299999999999997 L 1.195 29.299999999999997 L 1.405 29.299999999999997 M 1.405 29.299999999999997 L 1.45 29.299999999999997 Z " stroke="#000000" stroke-width="0.35 px" style="stroke-width:0.35;stroke-miterlimit:4;stroke-dasharray:none;stroke-linecap:square;fill:url(#shape color);fill-opacity:1;fill-rule: evenodd"/>
<path id="Mothbeam_v5_0_1_1_f0172"  d="M 1.15 29.299999999999997 L 0.15000000000000002 29.299999999999997 L 0.15000000000000002 29.299999999999997 L 1.15 29.299999999999997 L 1.15 29.299999999999997 Z " stroke="#000000" stroke-width="0.35 px" style="stroke-width:0.35;stroke-miterlimit:4;stroke-dasharray:none;stroke-linecap:square;fill:url(#shape color);fill-opacity:1;fill-rule: evenodd"/>
<path id="Mothbeam_v5_0_1_1_f0173"  d="M 1.15 28.5 L 1.15 29.299999999999997 M 1.15 29.299999999999997 L 1.195 29.299999999999997 L 1.195 28.5 M 1.195 28.5 L 1.1500000000000001 28.5 Z " stroke="#000000" stroke-width="0.35 px" style="stroke-width:0.35;stroke-miterlimit:4;stroke-dasharray:none;stroke-linecap:square;fill:url(#shape color);fill-opacity:1;fill-rule: evenodd"/>
<path id="Mothbeam_v5_0_1_1_f0174"  d="M 1.195 29.3 L 1.195 28.5 L 1.405 28.5 L 1.405 29.299999999999997 L 1.1949999999999998 29.299999999999997 Z " stroke="#000000" stroke-width="0.35 px" style="stroke-width:0.35;stroke-miterlimit:4;stroke-dasharray:none;stroke-linecap:square;fill:url(#shape color);fill-opacity:1;fill-rule: evenodd"/>
<path id="Mothbeam_v5_0_1_1_f0175"  d="M 1.4500000000000002 28.5 M 1.4500000000000002 28.5 L 1.405 28.5 L 1.405 29.299999999999997 M 1.405 29.299999999999997 L 1.45 29.299999999999997 L 1.4500000000000002 28.5 Z " stroke="#000000" stroke-width="0.35 px" style="stroke-width:0.35;stroke-miterlimit:4;stroke-dasharray:none;stroke-linecap:square;fill:url(#shape color);fill-opacity:1;fill-rule: evenodd"/>
<path id="Mothbeam_v5_0_1_1_f0176"  d="M 1.4500000000000002 29.299999999999997 L 1.4500000000000002 29.299999999999997 L 1.4500000000000002 28.5 L 1.4500000000000002 28.5 L 1.4500000000000002 29.299999999999997 Z " stroke="#000000" stroke-width="0.35 px" style="stroke-width:0.35;stroke-miterlimit:4;stroke-dasharray:none;stroke-linecap:square;fill:url(#shape color);fill-opacity:1;fill-rule: evenodd"/>
<path id="Mothbeam_v5_0_1_1_f0177"  d="M 1.4500000000000002 28.5 L 1.4500000000000002 29.299999999999997 M 1.4500000000000002 29.299999999999997 L 1.405 29.299999999999997 L 1.405 28.5 M 1.405 28.5 L 1.45 28.5 Z " stroke="#000000" stroke-width="0.35 px" style="stroke-width:0.35;stroke-miterlimit:4;stroke-dasharray:none;stroke-linecap:square;fill:url(#shape color);fill-opacity:1;fill-rule: evenodd"/>
<path id="Mothbeam_v5_0_1_1_f0178"  d="M 1.4049999999999998 28.5 L 1.1949999999999998 28.5 L 1.195 29.299999999999997 L 1.405 29.299999999999997 L 1.405 28.5 Z " stroke="#000000" stroke-width="0.35 px" style="stroke-width:0.35;stroke-miterlimit:4;stroke-dasharray:none;stroke-linecap:square;fill:url(#shape color);fill-opacity:1;fill-rule: evenodd"/>
<path id="Mothbeam_v5_0_1_1_f0179"  d="M 1.15 28.5 M 1.15 28.5 L 1.195 28.5 L 1.195 29.299999999999997 M 1.195 29.299999999999997 L 1.1500000000000001 29.299999999999997 L 1.15 28.5 Z " stroke="#000000" stroke-width="0.35 px" style="stroke-width:0.35;stroke-miterlimit:4;stroke-dasharray:none;stroke-linecap:square;fill:url(#shape color);fill-opacity:1;fill-rule: evenodd"/>
<path id="Mothbeam_v5_0_1_1_f0180"  d="M 1.15 29.299999999999997 L 1.15 29.299999999999997 L 1.15 28.5 L 1.15 28.5 L 1.15 29.299999999999997 Z " stroke="#000000" stroke-width="0.35 px" style="stroke-width:0.35;stroke-miterlimit:4;stroke-dasharray:none;stroke-linecap:square;fill:url(#shape color);fill-opacity:1;fill-rule: evenodd"/>
<path id="Mothbeam_v5_0_1_1_f0181"  d="M 1.15 29.3 L 1.15 28.5 L 0.15000000000000002 28.5 L 0.15000000000000002 29.299999999999997 L 1.15 29.299999999999997 Z " stroke="#000000" stroke-width="0.35 px" style="stroke-width:0.35;stroke-miterlimit:4;stroke-dasharray:none;stroke-linecap:square;fill:url(#shape color);fill-opacity:1;fill-rule: evenodd"/>
<path id="Mothbeam_v5_0_1_1_f0182"  d="M 11.89 70.01 L 11.89 70.01 A 0.500002 0.500002 0 0 0 12.39 69.5158L 12.389966 69.515846 A 0.500002 0.500002 0 0 1 11.89 70.01Z " stroke="#000000" stroke-width="0.35 px" style="stroke-width:0.35;stroke-miterlimit:4;stroke-dasharray:none;stroke-linecap:square;fill:url(#shape color);fill-opacity:1;fill-rule: evenodd"/>
<path id="Mothbeam_v5_0_1_1_f0183"  d="M 3.89 70.01 L 3.89 70.01 L 11.89 70.01 L 11.89 70.01 L 3.89 70.01 Z " stroke="#000000" stroke-width="0.35 px" style="stroke-width:0.35;stroke-miterlimit:4;stroke-dasharray:none;stroke-linecap:square;fill:url(#shape color);fill-opacity:1;fill-rule: evenodd"/>
<path id="Mothbeam_v5_0_1_1_f0184"  d="M 12.389966 69.515846 L 12.389966 69.515846 A 1.50005 1.50005 0 1 1 15.39 69.51L 15.390046 69.51 A 1.50005 1.50005 0 1 0 12.39 69.5158Z " stroke="#000000" stroke-width="0.35 px" style="stroke-width:0.35;stroke-miterlimit:4;stroke-dasharray:none;stroke-linecap:square;fill:url(#shape color);fill-opacity:1;fill-rule: evenodd"/>
<circle cx="-2.9" cy="67.3" r="1.1" stroke="#000000" stroke-width="0.35 px" style="stroke-width:0.35;stroke-miterlimit:4;stroke-dasharray:none;stroke-linecap:square;fill:url(#shape color)"/>
<circle cx="-2.9" cy="67.3" r="1.1" stroke="#000000" stroke-width="0.35 px" style="stroke-width:0.35;stroke-miterlimit:4;stroke-dasharray:none;stroke-linecap:square;fill:url(#shape color)"/>
<path id="Mothbeam_v5_0_1_1_f0187"  d="M 3.39 69.51 L 3.39 69.51 A 0.500001 0.500001 0 0 0 3.89 70.01L 3.89 70.01 A 0.500001 0.500001 0 0 1 3.39 69.51Z " stroke="#000000" stroke-width="0.35 px" style="stroke-width:0.35;stroke-miterlimit:4;stroke-dasharray:none;stroke-linecap:square;fill:url(#shape color);fill-opacity:1;fill-rule: evenodd"/>
<path id="Mothbeam_v5_0_1_1_f0188"  d="M 15.390046 69.51 L 15.390046 69.51 A 0.499923 0.499923 0 0 0 15.89 70.01L 15.89 70.01 A 0.499923 0.499923 0 0 1 15.39 69.51Z " stroke="#000000" stroke-width="0.35 px" style="stroke-width:0.35;stroke-miterlimit:4;stroke-dasharray:none;stroke-linecap:square;fill:url(#shape color);fill-opacity:1;fill-rule: evenodd"/>
<path id="Mothbeam_v5_0_1_1_f0189"  d="M 0.39 69.51 L 0.39 69.51 A 1.5 1.5 0 0 1 3.39 69.51L 3.39 69.51 A 1.5 1.5 0 0 0 0.39 69.51Z " stroke="#000000" stroke-width="0.35 px" style="stroke-width:0.35;stroke-miterlimit:4;stroke-dasharray:none;stroke-linecap:square;fill:url(#shape color);fill-opacity:1;fill-rule: evenodd"/>
<path id="Mothbeam_v5_0_1_1_f0190"  d="M 15.89 70.01 L 15.89 70.01 L 19.25 70.0 L 19.25 70.0 L 15.89 70.01 Z " stroke="#000000" stroke-width="0.35 px" style="stroke-width:0.35;stroke-miterlimit:4;stroke-dasharray:none;stroke-linecap:square;fill:url(#shape color);fill-opacity:1;fill-rule: evenodd"/>
<path id="Mothbeam_v5_0_1_1_f0191"  d="M -0.11 70.01 L -0.11 70.01 A 0.500001 0.500001 0 0 0 0.39 69.51L 0.39 69.51 A 0.500001 0.500001 0 0 1 -0.11 70.01Z " stroke="#000000" stroke-width="0.35 px" style="stroke-width:0.35;stroke-miterlimit:4;stroke-dasharray:none;stroke-linecap:square;fill:url(#shape color);fill-opacity:1;fill-rule: evenodd"/>
<path id="Mothbeam_v5_0_1_1_f0192"  d="M 19.25 70.0 L 19.25 70.0 A 1.75 1.75 0 0 0 21 68.25L 21.0 68.25 A 1.75 1.75 0 0 1 19.25 70Z " stroke="#000000" stroke-width="0.35 px" style="stroke-width:0.35;stroke-miterlimit:4;stroke-dasharray:none;stroke-linecap:square;fill:url(#shape color);fill-opacity:1;fill-rule: evenodd"/>
<path id="Mothbeam_v5_0_1_1_f0193"  d="M -4.221912 70.0 L -4.221912 70.0 L -0.11 70.01 L -0.11 70.01 L -4.221912 70.0 Z " stroke="#000000" stroke-width="0.35 px" style="stroke-width:0.35;stroke-miterlimit:4;stroke-dasharray:none;stroke-linecap:square;fill:url(#shape color);fill-opacity:1;fill-rule: evenodd"/>
<path id="Mothbeam_v5_0_1_1_f0194"  d="M 21.0 68.25 L 21.0 68.25 L 21.0 67.25 L 21.0 67.25 L 21.0 68.25 Z " stroke="#000000" stroke-width="0.35 px" style="stroke-width:0.35;stroke-miterlimit:4;stroke-dasharray:none;stroke-linecap:square;fill:url(#shape color);fill-opacity:1;fill-rule: evenodd"/>
<path id="Mothbeam_v5_0_1_1_f0195"  d="M -5.762563 68.2626 L -5.762563 68.2626 A 1.75001 1.75001 0 0 0 -4.22191 70L -4.221912 70.0 A 1.75001 1.75001 0 0 1 -5.76256 68.2626Z " stroke="#000000" stroke-width="0.35 px" style="stroke-width:0.35;stroke-miterlimit:4;stroke-dasharray:none;stroke-linecap:square;fill:url(#shape color);fill-opacity:1;fill-rule: evenodd"/>
<path id="Mothbeam_v5_0_1_1_f0196"  d="M 21.0 67.25 L 21.0 67.25 L 21.0 25.098588 L 21.0 25.098588 L 21.0 67.25 Z " stroke="#000000" stroke-width="0.35 px" style="stroke-width:0.35;stroke-miterlimit:4;stroke-dasharray:none;stroke-linecap:square;fill:url(#shape color);fill-opacity:1;fill-rule: evenodd"/>
<path id="Mothbeam_v5_0_1_1_f0197"  d="M -5.762637 26.2627 L -5.762637 26.2627 L -5.762563 68.2626 L -5.762563 68.2626 L -5.762637 26.2627 Z " stroke="#000000" stroke-width="0.35 px" style="stroke-width:0.35;stroke-miterlimit:4;stroke-dasharray:none;stroke-linecap:square;fill:url(#shape color);fill-opacity:1;fill-rule: evenodd"/>
<path id="Mothbeam_v5_0_1_1_f0198"  d="M 21.0 25.098588 L 21.0 25.098588 L 20.396121 25.09958 L 20.396121 25.09958 L 21.0 25.098588 Z " stroke="#000000" stroke-width="0.35 px" style="stroke-width:0.35;stroke-miterlimit:4;stroke-dasharray:none;stroke-linecap:square;fill:url(#shape color);fill-opacity:1;fill-rule: evenodd"/>
<path id="Mothbeam_v5_0_1_1_f0199"  d="M -4.5125 25.012563 L -4.5125 25.012563 A 1.25014 1.25014 0 0 0 -5.76264 26.2627L -5.762637 26.2627 A 1.25014 1.25014 0 0 1 -4.5125 25.0126Z " stroke="#000000" stroke-width="0.35 px" style="stroke-width:0.35;stroke-miterlimit:4;stroke-dasharray:none;stroke-linecap:square;fill:url(#shape color);fill-opacity:1;fill-rule: evenodd"/>
<path id="Mothbeam_v5_0_1_1_f0200"  d="M 20.396121 25.09958 L 20.396121 25.09958 A 0.500142 0.500142 0 0 0 19.8923 25.5998L 19.89228 25.599783 A 0.500142 0.500142 0 0 1 20.3961 25.0996Z " stroke="#000000" stroke-width="0.35 px" style="stroke-width:0.35;stroke-miterlimit:4;stroke-dasharray:none;stroke-linecap:square;fill:url(#shape color);fill-opacity:1;fill-rule: evenodd"/>
<path id="Mothbeam_v5_0_1_1_f0201"  d="M -4.5125 25.006281 L -4.5125 25.006281 L -4.5125 25.012563 L -4.5125 25.012563 L -4.5125 25.006281 Z " stroke="#000000" stroke-width="0.35 px" style="stroke-width:0.35;stroke-miterlimit:4;stroke-dasharray:none;stroke-linecap:square;fill:url(#shape color);fill-opacity:1;fill-rule: evenodd"/>
<path id="Mothbeam_v5_0_1_1_f0202"  d="M 19.89228 25.599783 L 19.89228 25.599783 L 19.863108 32.044411 L 19.863108 32.044411 L 19.89228 25.599783 Z " stroke="#000000" stroke-width="0.35 px" style="stroke-width:0.35;stroke-miterlimit:4;stroke-dasharray:none;stroke-linecap:square;fill:url(#shape color);fill-opacity:1;fill-rule: evenodd"/>
<path id="Mothbeam_v5_0_1_1_f0203"  d="M 9.595527 25.004804 L 9.595527 25.004804 L -4.5125 25.006281 L -4.5125 25.006281 L 9.595527 25.004804 Z " stroke="#000000" stroke-width="0.35 px" style="stroke-width:0.35;stroke-miterlimit:4;stroke-dasharray:none;stroke-linecap:square;fill:url(#shape color);fill-opacity:1;fill-rule: evenodd"/>
<path id="Mothbeam_v5_0_1_1_f0204"  d="M 19.863108 32.044411 L 19.863108 32.044411 A 1.00012 1.00012 0 0 1 18.8682 33.0497L 18.868189 33.049708 A 1.00012 1.00012 0 0 0 19.8631 32.0444Z " stroke="#000000" stroke-width="0.35 px" style="stroke-width:0.35;stroke-miterlimit:4;stroke-dasharray:none;stroke-linecap:square;fill:url(#shape color);fill-opacity:1;fill-rule: evenodd"/>
<path id="Mothbeam_v5_0_1_1_f0205"  d="M 10.598196 26.002079 L 10.598196 26.002079 A 1 1 0 0 0 9.59553 25.0048L 9.595527 25.004804 A 1 1 0 0 1 10.5982 26.0021Z " stroke="#000000" stroke-width="0.35 px" style="stroke-width:0.35;stroke-miterlimit:4;stroke-dasharray:none;stroke-linecap:square;fill:url(#shape color);fill-opacity:1;fill-rule: evenodd"/>
<path id="Mothbeam_v5_0_1_1_f0206"  d="M 18.868189 33.049708 L 18.868189 33.049708 L 11.617468 33.049744 L 11.617468 33.049744 L 18.868189 33.049708 Z " stroke="#000000" stroke-width="0.35 px" style="stroke-width:0.35;stroke-miterlimit:4;stroke-dasharray:none;stroke-linecap:square;fill:url(#shape color);fill-opacity:1;fill-rule: evenodd"/>
<path id="Mothbeam_v5_0_1_1_f0207"  d="M 10.614656 32.052468 L 10.614656 32.052468 L 10.598196 26.002079 L 10.598196 26.002079 L 10.614656 32.052468 Z " stroke="#000000" stroke-width="0.35 px" style="stroke-width:0.35;stroke-miterlimit:4;stroke-dasharray:none;stroke-linecap:square;fill:url(#shape color);fill-opacity:1;fill-rule: evenodd"/>
<path id="Mothbeam_v5_0_1_1_f0208"  d="M 11.617468 33.049744 L 11.617468 33.049744 A 1.00005 1.00005 0 0 1 10.6147 32.0525L 10.614656 32.052468 A 1.00005 1.00005 0 0 0 11.6175 33.0497Z " stroke="#000000" stroke-width="0.35 px" style="stroke-width:0.35;stroke-miterlimit:4;stroke-dasharray:none;stroke-linecap:square;fill:url(#shape color);fill-opacity:1;fill-rule: evenodd"/>
<circle cx="-2.9" cy="67.3" r="1.1" stroke="#000000" stroke-width="0.35 px" style="stroke-width:0.35;stroke-miterlimit:4;stroke-dasharray:none;stroke-linecap:square;fill:url(#shape color)"/>
<circle cx="18.3" cy="67.35" r="1.1" stroke="#000000" stroke-width="0.35 px" style="stroke-width:0.35;stroke-miterlimit:4;stroke-dasharray:none;stroke-linecap:square;fill:url(#shape color)"/>
<title>b'Mothbeam-v5.0.1 1'</title>
</g>
</svg>