<?xml version="1.0" standalone="no"?>
 <!DOCTYPE svg PUBLIC "-//W3C//DTD SVG 1.1//EN" 
 "http://www.w3.org/Graphics/SVG/1.1/DTD/svg11.dtd"> 
<svg
  xmlns:svg="http://www.w3.org/2000/svg"
  xmlns="http://www.w3.org/2000/svg"
  xmlns:xlink="http://www.w3.org/1999/xlink"
  version="1.1"
  width="297.0022mm" height="210.0072mm" viewBox="0.0000 0.0000 297.0022 210.0072">
<title>SVG Image created as Mothbeam-F_Mask.svg date 2025/07/18 13:00:32 </title>
  <desc>Image generated by PCBNEW </desc>
<g style="fill:#000000; fill-opacity:1.0000;stroke:#000000; stroke-opacity:1.0000;
stroke-linecap:round; stroke-linejoin:round;"
 transform="translate(0 0) scale(1 1)">
</g>
<g style="fill:#000000; fill-opacity:1.0000; stroke:none;">
<circle cx="102.1000" cy="32.7000" r="1.9000" /> 
<path style="fill:#000000; fill-opacity:1.0000; stroke:none;fill-rule:evenodd;"
d="M 113.3018,65.4665
112.5418,65.4665
112.5418,63.9665
113.3018,63.9665
Z" /> 
<path style="fill:#000000; fill-opacity:1.0000; stroke:none;fill-rule:evenodd;"
d="M 112.0318,65.4665
111.2718,65.4665
111.2718,63.9665
112.0318,63.9665
Z" /> 
<path style="fill:#000000; fill-opacity:1.0000; stroke:none;fill-rule:evenodd;"
d="M 110.7618,65.4665
110.0018,65.4665
110.0018,63.9665
110.7618,63.9665
Z" /> 
<path style="fill:#000000; fill-opacity:1.0000; stroke:none;fill-rule:evenodd;"
d="M 109.4818,65.4665
108.7218,65.4665
108.7218,63.9665
109.4818,63.9665
Z" /> 
<path style="fill:#000000; fill-opacity:1.0000; stroke:none;fill-rule:evenodd;"
d="M 109.4818,73.0865
108.7218,73.0865
108.7218,71.5865
109.4818,71.5865
Z" /> 
<path style="fill:#000000; fill-opacity:1.0000; stroke:none;fill-rule:evenodd;"
d="M 110.7618,73.0865
110.0018,73.0865
110.0018,71.5865
110.7618,71.5865
Z" /> 
<path style="fill:#000000; fill-opacity:1.0000; stroke:none;fill-rule:evenodd;"
d="M 112.0318,73.0865
111.2718,73.0865
111.2718,71.5865
112.0318,71.5865
Z" /> 
<path style="fill:#000000; fill-opacity:1.0000; stroke:none;fill-rule:evenodd;"
d="M 113.3018,73.0865
112.5418,73.0865
112.5418,71.5865
113.3018,71.5865
Z" /> 
<path style="fill:#000000; fill-opacity:1.0000; stroke:none;fill-rule:evenodd;"
d="M 106.8750,69.5750
106.8598,69.6515
106.8164,69.7164
106.7515,69.7598
106.6750,69.7750
106.2750,69.7750
106.1985,69.7598
106.1336,69.7164
106.0902,69.6515
106.0750,69.5750
106.0750,69.0250
106.0902,68.9485
106.1336,68.8836
106.1985,68.8402
106.2750,68.8250
106.6750,68.8250
106.7515,68.8402
106.8164,68.8836
106.8598,68.9485
106.8750,69.0250
Z" /> 
<path style="fill:#000000; fill-opacity:1.0000; stroke:none;fill-rule:evenodd;"
d="M 105.2250,69.5750
105.2098,69.6515
105.1664,69.7164
105.1015,69.7598
105.0250,69.7750
104.6250,69.7750
104.5485,69.7598
104.4836,69.7164
104.4402,69.6515
104.4250,69.5750
104.4250,69.0250
104.4402,68.9485
104.4836,68.8836
104.5485,68.8402
104.6250,68.8250
105.0250,68.8250
105.1015,68.8402
105.1664,68.8836
105.2098,68.9485
105.2250,69.0250
Z" /> 
</g>
<g style="fill:#000000; fill-opacity:1.0000; stroke:none;">
<circle cx="123.3000" cy="32.6500" r="1.9000" /> 
<path style="fill:#000000; fill-opacity:1.0000; stroke:none;fill-rule:evenodd;"
d="M 104.9341,61.1250
104.9189,61.2015
104.8755,61.2664
104.8106,61.3098
104.7341,61.3250
104.3341,61.3250
104.2576,61.3098
104.1927,61.2664
104.1493,61.2015
104.1341,61.1250
104.1341,60.5750
104.1493,60.4985
104.1927,60.4336
104.2576,60.3902
104.3341,60.3750
104.7341,60.3750
104.8106,60.3902
104.8755,60.4336
104.9189,60.4985
104.9341,60.5750
Z" /> 
<path style="fill:#000000; fill-opacity:1.0000; stroke:none;fill-rule:evenodd;"
d="M 103.2841,61.1250
103.2689,61.2015
103.2255,61.2664
103.1606,61.3098
103.0841,61.3250
102.6841,61.3250
102.6076,61.3098
102.5427,61.2664
102.4993,61.2015
102.4841,61.1250
102.4841,60.5750
102.4993,60.4985
102.5427,60.4336
102.6076,60.3902
102.6841,60.3750
103.0841,60.3750
103.1606,60.3902
103.2255,60.4336
103.2689,60.4985
103.2841,60.5750
Z" /> 
</g>
<g style="fill:#000000; fill-opacity:1.0000; stroke:none;">
<circle cx="112.7500" cy="49.9500" r="0.7500" /> 
</g>
<g style="fill:#000000; fill-opacity:1.0000; stroke:none;">
<circle cx="108.6100" cy="37.9400" r="0.7500" /> 
</g>
<g style="fill:#000000; fill-opacity:1.0000; stroke:none;">
<circle cx="108.7400" cy="53.9300" r="0.7500" /> 
<path style="fill:#000000; fill-opacity:1.0000; stroke:none;fill-rule:evenodd;"
d="M 104.9241,62.3150
104.9241,63.3850
104.3941,63.3850
104.3941,62.3150
Z" /> 
<path style="fill:#000000; fill-opacity:1.0000; stroke:none;fill-rule:evenodd;"
d="M 103.9741,62.3150
103.9741,63.3850
103.4441,63.3850
103.4441,62.3150
Z" /> 
<path style="fill:#000000; fill-opacity:1.0000; stroke:none;fill-rule:evenodd;"
d="M 103.0241,62.3150
103.0241,63.3850
102.4941,63.3850
102.4941,62.3150
Z" /> 
<path style="fill:#000000; fill-opacity:1.0000; stroke:none;fill-rule:evenodd;"
d="M 103.0241,64.6150
103.0241,65.6850
102.4941,65.6850
102.4941,64.6150
Z" /> 
<path style="fill:#000000; fill-opacity:1.0000; stroke:none;fill-rule:evenodd;"
d="M 103.9741,64.6150
103.9741,65.6850
103.4441,65.6850
103.4441,64.6150
Z" /> 
<path style="fill:#000000; fill-opacity:1.0000; stroke:none;fill-rule:evenodd;"
d="M 104.9241,64.6150
104.9241,65.6850
104.3941,65.6850
104.3941,64.6150
Z" /> 
</g>
<g style="fill:#000000; fill-opacity:1.0000; stroke:none;">
<circle cx="112.7246" cy="41.9500" r="0.7500" /> 
<path style="fill:#000000; fill-opacity:1.0000; stroke:none;fill-rule:evenodd;"
d="M 111.2625,61.6750
111.1860,61.6598
111.1211,61.6164
111.0777,61.5515
111.0625,61.4750
111.0625,61.0750
111.0777,60.9985
111.1211,60.9336
111.1860,60.8902
111.2625,60.8750
111.8125,60.8750
111.8890,60.8902
111.9539,60.9336
111.9973,60.9985
112.0125,61.0750
112.0125,61.4750
111.9973,61.5515
111.9539,61.6164
111.8890,61.6598
111.8125,61.6750
Z" /> 
<path style="fill:#000000; fill-opacity:1.0000; stroke:none;fill-rule:evenodd;"
d="M 111.2625,60.0250
111.1860,60.0098
111.1211,59.9664
111.0777,59.9015
111.0625,59.8250
111.0625,59.4250
111.0777,59.3485
111.1211,59.2836
111.1860,59.2402
111.2625,59.2250
111.8125,59.2250
111.8890,59.2402
111.9539,59.2836
111.9973,59.3485
112.0125,59.4250
112.0125,59.8250
111.9973,59.9015
111.9539,59.9664
111.8890,60.0098
111.8125,60.0250
Z" /> 
<path style="fill:#000000; fill-opacity:1.0000; stroke:none;fill-rule:evenodd;"
d="M 102.2750,67.3750
102.2902,67.2985
102.3336,67.2336
102.3985,67.1902
102.4750,67.1750
102.8750,67.1750
102.9515,67.1902
103.0164,67.2336
103.0598,67.2985
103.0750,67.3750
103.0750,67.9250
103.0598,68.0015
103.0164,68.0664
102.9515,68.1098
102.8750,68.1250
102.4750,68.1250
102.3985,68.1098
102.3336,68.0664
102.2902,68.0015
102.2750,67.9250
Z" /> 
<path style="fill:#000000; fill-opacity:1.0000; stroke:none;fill-rule:evenodd;"
d="M 103.9250,67.3750
103.9402,67.2985
103.9836,67.2336
104.0485,67.1902
104.1250,67.1750
104.5250,67.1750
104.6015,67.1902
104.6664,67.2336
104.7098,67.2985
104.7250,67.3750
104.7250,67.9250
104.7098,68.0015
104.6664,68.0664
104.6015,68.1098
104.5250,68.1250
104.1250,68.1250
104.0485,68.1098
103.9836,68.0664
103.9402,68.0015
103.9250,67.9250
Z" /> 
<path style="fill:#000000; fill-opacity:1.0000; stroke:none;fill-rule:evenodd;"
d="M 116.0400,65.3925
116.0400,62.8525
117.0400,62.8525
117.0400,65.3925
Z" /> 
<path style="fill:#000000; fill-opacity:1.0000; stroke:none;fill-rule:evenodd;"
d="M 118.5800,65.3925
118.5800,62.8525
119.5800,62.8525
119.5800,65.3925
Z" /> 
<path style="fill:#000000; fill-opacity:1.0000; stroke:none;fill-rule:evenodd;"
d="M 121.1200,65.3925
121.1200,62.8525
122.1200,62.8525
122.1200,65.3925
Z" /> 
<path style="fill:#000000; fill-opacity:1.0000; stroke:none;fill-rule:evenodd;"
d="M 123.6600,65.3925
123.6600,62.8525
124.6600,62.8525
124.6600,65.3925
Z" /> 
<path style="fill:#000000; fill-opacity:1.0000; stroke:none;fill-rule:evenodd;"
d="M 125.3750,60.9750
125.3598,61.0515
125.3164,61.1164
125.2515,61.1598
125.1750,61.1750
124.7750,61.1750
124.6985,61.1598
124.6336,61.1164
124.5902,61.0515
124.5750,60.9750
124.5750,60.4250
124.5902,60.3485
124.6336,60.2836
124.6985,60.2402
124.7750,60.2250
125.1750,60.2250
125.2515,60.2402
125.3164,60.2836
125.3598,60.3485
125.3750,60.4250
Z" /> 
<path style="fill:#000000; fill-opacity:1.0000; stroke:none;fill-rule:evenodd;"
d="M 123.7250,60.9750
123.7098,61.0515
123.6664,61.1164
123.6015,61.1598
123.5250,61.1750
123.1250,61.1750
123.0485,61.1598
122.9836,61.1164
122.9402,61.0515
122.9250,60.9750
122.9250,60.4250
122.9402,60.3485
122.9836,60.2836
123.0485,60.2402
123.1250,60.2250
123.5250,60.2250
123.6015,60.2402
123.6664,60.2836
123.7098,60.3485
123.7250,60.4250
Z" /> 
<path style="fill:#000000; fill-opacity:1.0000; stroke:none;fill-rule:evenodd;"
d="M 114.4750,36.9000
111.0250,36.9000
111.0250,36.2000
114.4750,36.2000
Z" /> 
<path style="fill:#000000; fill-opacity:1.0000; stroke:none;fill-rule:evenodd;"
d="M 114.4750,39.7000
111.0250,39.7000
111.0250,39.0000
114.4750,39.0000
Z" /> 
<path style="fill:#000000; fill-opacity:1.0000; stroke:none;fill-rule:evenodd;"
d="M 114.4750,38.6000
111.0250,38.6000
111.0250,37.3000
114.4750,37.3000
Z" /> 
<path style="fill:#000000; fill-opacity:1.0000; stroke:none;fill-rule:evenodd;"
d="M 109.9725,61.6650
108.9025,61.6650
108.9025,61.1350
109.9725,61.1350
Z" /> 
<path style="fill:#000000; fill-opacity:1.0000; stroke:none;fill-rule:evenodd;"
d="M 109.9725,60.7150
108.9025,60.7150
108.9025,60.1850
109.9725,60.1850
Z" /> 
<path style="fill:#000000; fill-opacity:1.0000; stroke:none;fill-rule:evenodd;"
d="M 109.9725,59.7650
108.9025,59.7650
108.9025,59.2350
109.9725,59.2350
Z" /> 
<path style="fill:#000000; fill-opacity:1.0000; stroke:none;fill-rule:evenodd;"
d="M 107.6725,59.7650
106.6025,59.7650
106.6025,59.2350
107.6725,59.2350
Z" /> 
<path style="fill:#000000; fill-opacity:1.0000; stroke:none;fill-rule:evenodd;"
d="M 107.6725,60.7150
106.6025,60.7150
106.6025,60.1850
107.6725,60.1850
Z" /> 
<path style="fill:#000000; fill-opacity:1.0000; stroke:none;fill-rule:evenodd;"
d="M 107.6725,61.6650
106.6025,61.6650
106.6025,61.1350
107.6725,61.1350
Z" /> 
<path style="fill:#000000; fill-opacity:1.0000; stroke:none;fill-rule:evenodd;"
d="M 102.4250,71.5000
102.3485,71.4848
102.2836,71.4414
102.2402,71.3765
102.2250,71.3000
102.2250,70.9000
102.2402,70.8235
102.2836,70.7586
102.3485,70.7152
102.4250,70.7000
102.9750,70.7000
103.0515,70.7152
103.1164,70.7586
103.1598,70.8235
103.1750,70.9000
103.1750,71.3000
103.1598,71.3765
103.1164,71.4414
103.0515,71.4848
102.9750,71.5000
Z" /> 
<path style="fill:#000000; fill-opacity:1.0000; stroke:none;fill-rule:evenodd;"
d="M 102.4250,69.8500
102.3485,69.8348
102.2836,69.7914
102.2402,69.7265
102.2250,69.6500
102.2250,69.2500
102.2402,69.1735
102.2836,69.1086
102.3485,69.0652
102.4250,69.0500
102.9750,69.0500
103.0515,69.0652
103.1164,69.1086
103.1598,69.1735
103.1750,69.2500
103.1750,69.6500
103.1598,69.7265
103.1164,69.7914
103.0515,69.8348
102.9750,69.8500
Z" /> 
<path style="fill:#000000; fill-opacity:1.0000; stroke:none;fill-rule:evenodd;"
d="M 114.4750,44.9000
111.0250,44.9000
111.0250,44.2000
114.4750,44.2000
Z" /> 
<path style="fill:#000000; fill-opacity:1.0000; stroke:none;fill-rule:evenodd;"
d="M 114.4750,47.7000
111.0250,47.7000
111.0250,47.0000
114.4750,47.0000
Z" /> 
<path style="fill:#000000; fill-opacity:1.0000; stroke:none;fill-rule:evenodd;"
d="M 114.4750,46.6000
111.0250,46.6000
111.0250,45.3000
114.4750,45.3000
Z" /> 
</g>
<g style="fill:#000000; fill-opacity:1.0000; stroke:none;">
<circle cx="108.8700" cy="45.9500" r="0.7500" /> 
<path style="fill:#000000; fill-opacity:1.0000; stroke:none;fill-rule:evenodd;"
d="M 114.4750,52.9000
111.0250,52.9000
111.0250,52.2000
114.4750,52.2000
Z" /> 
<path style="fill:#000000; fill-opacity:1.0000; stroke:none;fill-rule:evenodd;"
d="M 114.4750,55.7000
111.0250,55.7000
111.0250,55.0000
114.4750,55.0000
Z" /> 
<path style="fill:#000000; fill-opacity:1.0000; stroke:none;fill-rule:evenodd;"
d="M 114.4750,54.6000
111.0250,54.6000
111.0250,53.3000
114.4750,53.3000
Z" /> 
<path style="fill:#000000; fill-opacity:1.0000; stroke:none;fill-rule:evenodd;"
d="M 104.4250,70.8250
104.4402,70.7485
104.4836,70.6836
104.5485,70.6402
104.6250,70.6250
105.0250,70.6250
105.1015,70.6402
105.1664,70.6836
105.2098,70.7485
105.2250,70.8250
105.2250,71.3750
105.2098,71.4515
105.1664,71.5164
105.1015,71.5598
105.0250,71.5750
104.6250,71.5750
104.5485,71.5598
104.4836,71.5164
104.4402,71.4515
104.4250,71.3750
Z" /> 
<path style="fill:#000000; fill-opacity:1.0000; stroke:none;fill-rule:evenodd;"
d="M 106.0750,70.8250
106.0902,70.7485
106.1336,70.6836
106.1985,70.6402
106.2750,70.6250
106.6750,70.6250
106.7515,70.6402
106.8164,70.6836
106.8598,70.7485
106.8750,70.8250
106.8750,71.3750
106.8598,71.4515
106.8164,71.5164
106.7515,71.5598
106.6750,71.5750
106.2750,71.5750
106.1985,71.5598
106.1336,71.5164
106.0902,71.4515
106.0750,71.3750
Z" /> 
<path style="fill:#000000; fill-opacity:1.0000; stroke:none;fill-rule:evenodd;"
d="M 116.4725,61.6650
115.4025,61.6650
115.4025,61.1350
116.4725,61.1350
Z" /> 
<path style="fill:#000000; fill-opacity:1.0000; stroke:none;fill-rule:evenodd;"
d="M 116.4725,60.7150
115.4025,60.7150
115.4025,60.1850
116.4725,60.1850
Z" /> 
<path style="fill:#000000; fill-opacity:1.0000; stroke:none;fill-rule:evenodd;"
d="M 116.4725,59.7650
115.4025,59.7650
115.4025,59.2350
116.4725,59.2350
Z" /> 
<path style="fill:#000000; fill-opacity:1.0000; stroke:none;fill-rule:evenodd;"
d="M 114.1725,59.7650
113.1025,59.7650
113.1025,59.2350
114.1725,59.2350
Z" /> 
<path style="fill:#000000; fill-opacity:1.0000; stroke:none;fill-rule:evenodd;"
d="M 114.1725,60.7150
113.1025,60.7150
113.1025,60.1850
114.1725,60.1850
Z" /> 
<path style="fill:#000000; fill-opacity:1.0000; stroke:none;fill-rule:evenodd;"
d="M 114.1725,61.6650
113.1025,61.6650
113.1025,61.1350
114.1725,61.1350
Z" /> 
</g> 
</svg>
