0
SECTION
2
HEADER
9
$INSUNITS
70
4
9
$ACADVER
1
AC1014
9
$HANDSEED
5
FFFF
0
ENDSEC
0
SECTION
2
TABLES
0
TABLE
2
VPORT
5
8
100
AcDbSymbolTable
0
ENDTAB
0
TABLE
2
LTYPE
5
5
100
AcDbSymbolTable
70
2
0
LTYPE
5
14
100
AcDbSymbolTableRecord
100
AcDbLinetypeTableRecord
2
BYBLOCK
70
0
0
LTYPE
5
15
100
AcDbSymbolTableRecord
100
AcDbLinetypeTableRecord
2
BYLAYER
70
0
0
ENDTAB
0
TABLE
2
LAYER
5
2
100
AcDbSymbolTable
70
3
0
LAYER
5
50
100
AcDbSymbolTableRecord
100
AcDbLayerTableRecord
2
0
70
0
6
CONTINUOUS
0
LAYER
5
51
100
AcDbSymbolTableRecord
100
AcDbLayerTableRecord
2
CUTOUTS
70
0
62
1
6
CONTINUOUS
0
LAYER
5
52
100
AcDbSymbolTableRecord
100
AcDbLayerTableRecord
2
PERIMETER
70
0
62
5
6
CONTINUOUS
0
ENDTAB
0
TABLE
2
STYLE
5
3
100
AcDbSymbolTable
70
1
0
STYLE
5
11
100
AcDbSymbolTableRecord
100
AcDbTextStyleTableRecord
2
STANDARD
70
0
0
ENDTAB
0
TABLE
2
VIEW
5
6
100
AcDbSymbolTable
0
ENDTAB
0
TABLE
2
UCS
5
7
100
AcDbSymbolTable
0
ENDTAB
0
TABLE
2
APPID
5
9
100
AcDbSymbolTable
70
1
0
APPID
5
12
100
AcDbSymbolTableRecord
100
AcDbRegAppTableRecord
2
ACAD
70
0
0
ENDTAB
0
TABLE
2
DIMSTYLE
5
A
100
AcDbSymbolTable
0
ENDTAB
0
TABLE
2
BLOCK_RECORD
5
1
100
AcDbSymbolTable
70
2
0
BLOCK_RECORD
5
1F
100
AcDbSymbolTableRecord
100
AcDbBlockTableRecord
2
*MODEL_SPACE
0
BLOCK_RECORD
5
1B
100
AcDbSymbolTableRecord
100
AcDbBlockTableRecord
2
*PAPER_SPACE
0
ENDTAB
0
ENDSEC
0
SECTION
2
BLOCKS
0
BLOCK
5
20
100
AcDbEntity
100
AcDbBlockBegin
2
*MODEL_SPACE
0
ENDBLK
5
21
100
AcDbEntity
100
AcDbBlockEnd
0
BLOCK
5
1C
100
AcDbEntity
100
AcDbBlockBegin
2
*PAPER_SPACE
0
ENDBLK
5
1D
100
AcDbEntity
100
AcDbBlockEnd
0
ENDSEC
0
SECTION
2
ENTITIES
0
CIRCLE
5
100
100
AcDbEntity
8
CUTOUTS
100
AcDbCircle
10
-137.00000204145908
20
-50.00000074505806
30
0
40
3.149999999999995
210
0
220
0
230
1
0
CIRCLE
5
101
100
AcDbEntity
8
CUTOUTS
100
AcDbCircle
10
137.00000204145908
20
-50.00000074505806
30
0
40
3.149999999999995
210
0
220
0
230
1
0
CIRCLE
5
102
100
AcDbEntity
8
CUTOUTS
100
AcDbCircle
10
117.00000174343586
20
-45.000001192092896
30
0
40
1.4499999999999957
210
0
220
0
230
1
0
CIRCLE
5
103
100
AcDbEntity
8
CUTOUTS
100
AcDbCircle
10
12.00000174343586
20
-10.000001192092896
30
0
40
1.4500000000000046
210
0
220
0
230
1
0
CIRCLE
5
104
100
AcDbEntity
8
CUTOUTS
100
AcDbCircle
10
38.25000174343586
20
-80.000001192092896
30
0
40
1.4500000000000046
210
0
220
0
230
1
0
CIRCLE
5
105
100
AcDbEntity
8
CUTOUTS
100
AcDbCircle
10
117.00000174343586
20
-80.000001192092896
30
0
40
1.4499999999999957
210
0
220
0
230
1
0
CIRCLE
5
106
100
AcDbEntity
8
CUTOUTS
100
AcDbCircle
10
12.00000174343586
20
-80.000001192092896
30
0
40
1.4500000000000046
210
0
220
0
230
1
0
CIRCLE
5
107
100
AcDbEntity
8
CUTOUTS
100
AcDbCircle
10
38.25000174343586
20
-45.000001192092896
30
0
40
1.4500000000000046
210
0
220
0
230
1
0
CIRCLE
5
108
100
AcDbEntity
8
CUTOUTS
100
AcDbCircle
10
90.75000174343586
20
-45.000001192092896
30
0
40
1.4499999999999957
210
0
220
0
230
1
0
CIRCLE
5
109
100
AcDbEntity
8
CUTOUTS
100
AcDbCircle
10
90.75000174343586
20
-10.000001192092896
30
0
40
1.4499999999999957
210
0
220
0
230
1
0
CIRCLE
5
10A
100
AcDbEntity
8
CUTOUTS
100
AcDbCircle
10
64.50000174343586
20
-80.000001192092896
30
0
40
1.4500000000000046
210
0
220
0
230
1
0
CIRCLE
5
10B
100
AcDbEntity
8
CUTOUTS
100
AcDbCircle
10
90.75000174343586
20
-80.000001192092896
30
0
40
1.4499999999999957
210
0
220
0
230
1
0
CIRCLE
5
10C
100
AcDbEntity
8
CUTOUTS
100
AcDbCircle
10
117.00000174343586
20
-10.000001192092896
30
0
40
1.4499999999999957
210
0
220
0
230
1
0
CIRCLE
5
10D
100
AcDbEntity
8
CUTOUTS
100
AcDbCircle
10
84.000001326203346
20
-33.000000491738319
30
0
40
3.149999999999995
210
0
220
0
230
1
0
CIRCLE
5
10E
100
AcDbEntity
8
CUTOUTS
100
AcDbCircle
10
64.000001326203346
20
-45.000000491738319
30
0
40
3.1500000000000039
210
0
220
0
230
1
0
CIRCLE
5
10F
100
AcDbEntity
8
CUTOUTS
100
AcDbCircle
10
-64.000001326203346
20
-45.000000491738319
30
0
40
3.1500000000000039
210
0
220
0
230
1
0
CIRCLE
5
110
100
AcDbEntity
8
CUTOUTS
100
AcDbCircle
10
-84.000001326203346
20
-33.000000491738319
30
0
40
3.149999999999995
210
0
220
0
230
1
0
CIRCLE
5
111
100
AcDbEntity
8
CUTOUTS
100
AcDbCircle
10
-117.00000174343586
20
-10.000001192092896
30
0
40
1.4499999999999957
210
0
220
0
230
1
0
CIRCLE
5
112
100
AcDbEntity
8
CUTOUTS
100
AcDbCircle
10
-90.75000174343586
20
-80.000001192092896
30
0
40
1.4499999999999957
210
0
220
0
230
1
0
CIRCLE
5
113
100
AcDbEntity
8
CUTOUTS
100
AcDbCircle
10
-64.50000174343586
20
-80.000001192092896
30
0
40
1.4500000000000046
210
0
220
0
230
1
0
CIRCLE
5
114
100
AcDbEntity
8
CUTOUTS
100
AcDbCircle
10
-90.75000174343586
20
-10.000001192092896
30
0
40
1.4499999999999957
210
0
220
0
230
1
0
CIRCLE
5
115
100
AcDbEntity
8
CUTOUTS
100
AcDbCircle
10
-90.75000174343586
20
-45.000001192092896
30
0
40
1.4499999999999957
210
0
220
0
230
1
0
CIRCLE
5
116
100
AcDbEntity
8
CUTOUTS
100
AcDbCircle
10
-38.25000174343586
20
-45.000001192092896
30
0
40
1.4500000000000046
210
0
220
0
230
1
0
CIRCLE
5
117
100
AcDbEntity
8
CUTOUTS
100
AcDbCircle
10
-12.00000174343586
20
-80.000001192092896
30
0
40
1.4500000000000046
210
0
220
0
230
1
0
CIRCLE
5
118
100
AcDbEntity
8
CUTOUTS
100
AcDbCircle
10
-117.00000174343586
20
-80.000001192092896
30
0
40
1.4499999999999957
210
0
220
0
230
1
0
CIRCLE
5
119
100
AcDbEntity
8
CUTOUTS
100
AcDbCircle
10
-38.25000174343586
20
-80.000001192092896
30
0
40
1.4500000000000046
210
0
220
0
230
1
0
CIRCLE
5
11A
100
AcDbEntity
8
CUTOUTS
100
AcDbCircle
10
-12.00000174343586
20
-10.000001192092896
30
0
40
1.4500000000000046
210
0
220
0
230
1
0
CIRCLE
5
11B
100
AcDbEntity
8
CUTOUTS
100
AcDbCircle
10
-117.00000174343586
20
-45.000001192092896
30
0
40
1.4499999999999957
210
0
220
0
230
1
0
CIRCLE
5
11C
100
AcDbEntity
8
CUTOUTS
100
AcDbCircle
10
0
20
-45.673162316986449
30
-1.7763568394002505e-14
40
3.71
210
0
220
0
230
1
0
LWPOLYLINE
5
11D
100
AcDbEntity
8
CUTOUTS
100
AcDbPolyline
90
2
70
1
43
0.0
10
9.6257500000000054
20
-46.197125042282828
42
0.027196591116171186
10
9.6257500000000018
20
-45.149199591690078
42
-6.9169996738794097
0
LWPOLYLINE
5
11E
100
AcDbEntity
8
CUTOUTS
100
AcDbPolyline
90
2
70
1
43
0.0
10
-0.52396272529638432
20
-55.29891231698646
42
0.0271965911161717
10
0.52396272529638122
20
-55.29891231698646
42
-6.9169996738793014
0
LWPOLYLINE
5
11F
100
AcDbEntity
8
CUTOUTS
100
AcDbPolyline
90
4
70
1
43
0.0
10
131.10851251573771
20
-27.73319748624127
10
132.20851251573771
20
-27.73319748624127
10
132.20851251573771
20
-30.133197486241254
10
131.10851251573771
20
-30.133197486241254
0
LWPOLYLINE
5
120
100
AcDbEntity
8
CUTOUTS
100
AcDbPolyline
90
4
70
1
43
0.0
10
131.10851251573774
20
-42.233197486241274
10
132.20851251573774
20
-42.233197486241274
10
132.20851251573774
20
-44.633197486241258
10
131.10851251573774
20
-44.633197486241258
0
LWPOLYLINE
5
121
100
AcDbEntity
8
CUTOUTS
100
AcDbPolyline
90
4
70
1
43
0.0
10
131.10851251573774
20
-56.733197486241274
10
132.20851251573774
20
-56.733197486241274
10
132.20851251573774
20
-59.133197486241258
10
131.10851251573774
20
-59.133197486241258
0
LWPOLYLINE
5
122
100
AcDbEntity
8
CUTOUTS
100
AcDbPolyline
90
4
70
1
43
0.0
10
-131.10851251573771
20
-30.133197486241254
10
-132.20851251573771
20
-30.133197486241254
10
-132.20851251573771
20
-27.73319748624127
10
-131.10851251573771
20
-27.73319748624127
0
LWPOLYLINE
5
123
100
AcDbEntity
8
CUTOUTS
100
AcDbPolyline
90
4
70
1
43
0.0
10
-131.10851251573774
20
-44.633197486241258
10
-132.20851251573774
20
-44.633197486241258
10
-132.20851251573774
20
-42.233197486241274
10
-131.10851251573774
20
-42.233197486241274
0
LWPOLYLINE
5
124
100
AcDbEntity
8
CUTOUTS
100
AcDbPolyline
90
4
70
1
43
0.0
10
-132.20851251573774
20
-56.733197486241274
10
-131.10851251573774
20
-56.733197486241274
10
-131.10851251573774
20
-59.133197486241258
10
-132.20851251573774
20
-59.133197486241258
0
LWPOLYLINE
5
125
100
AcDbEntity
8
CUTOUTS
100
AcDbPolyline
90
3
70
1
43
0.0
10
-8.7315250735352752
20
-41.829717262061777
10
-4.9093832773442303
20
-48.449861046797231
10
-8.2867688783940245
20
-50.399795532720489
42
-0.23757826866928861
0
LWPOLYLINE
5
126
100
AcDbEntity
8
CUTOUTS
100
AcDbPolyline
90
3
70
1
43
0.0
10
0.050000000000000114
20
-40.033162316986449
10
0.049999999999996714
20
-36.133293345139919
42
-0.23757826866928872
10
7.6942835923820798
20
-40.033162316986449
0
LWPOLYLINE
5
127
100
AcDbEntity
8
CUTOUTS
100
AcDbPolyline
90
3
70
1
43
0.0
10
4.8593832773442411
20
-48.536463587175675
10
8.2367688783940292
20
-50.486398073098933
42
-0.23757826866928872
10
1.0372414811531996
20
-55.156607371911122
0
LWPOLYLINE
5
128
100
AcDbEntity
8
PERIMETER
100
AcDbPolyline
90
16
70
1
43
0.0
10
145.04999999999998
20
-63.310185742599998
10
145.05000000000001
20
-25
42
0.41421356237309764
10
140.50000000000006
20
-20.450000000000031
10
125.05000000000001
20
-20.449999999999999
10
125.05000000000001
20
-5.4499999999999993
10
-125.05000000000001
20
-5.4500000000000011
10
-125.04999999999998
20
-20.449999999999999
10
-140.50000000000006
20
-20.449999999999999
42
0.4142135623730962
10
-145.05000000000001
20
-25
10
-145.05000000000001
20
-63.310185742599998
42
0.4142135623730962
10
-140.50000000000003
20
-67.860185742599995
10
-125.05000000000001
20
-67.860185742599995
10
-125.05000000000001
20
-86.650000000000006
10
125.05000000000001
20
-86.650000000000006
10
125.05000000000001
20
-67.860185742599995
10
140.5
20
-67.860185742599995
42
0.4142135623730962
0
ENDSEC
0
SECTION
2
OBJECTS
0
DICTIONARY
5
C
100
AcDbDictionary
3
ACAD_GROUP
350
D
3
ACAD_MLINESTYLE
350
17
0
DICTIONARY
5
D
100
AcDbDictionary
0
DICTIONARY
5
1A
330
C
100
AcDbDictionary
0
DICTIONARY
5
17
100
AcDbDictionary
0
ENDSEC
0
EOF
