%TF.GenerationSoftware,KiCad,Pcbnew,9.0.2*%
%TF.CreationDate,2025-09-02T22:44:25-05:00*%
%TF.ProjectId,MothBox,4d6f7468-426f-4782-9e6b-696361645f70,5.0.1*%
%TF.SameCoordinates,Original*%
%TF.FileFunction,Soldermask,Bot*%
%TF.FilePolarity,Negative*%
%FSLAX46Y46*%
G04 Gerber Fmt 4.6, Leading zero omitted, Abs format (unit mm)*
G04 Created by KiCad (PCBNEW 9.0.2) date 2025-09-02 22:44:25*
%MOMM*%
%LPD*%
G01*
G04 APERTURE LIST*
G04 Aperture macros list*
%AMRoundRect*
0 Rectangle with rounded corners*
0 $1 Rounding radius*
0 $2 $3 $4 $5 $6 $7 $8 $9 X,Y pos of 4 corners*
0 Add a 4 corners polygon primitive as box body*
4,1,4,$2,$3,$4,$5,$6,$7,$8,$9,$2,$3,0*
0 Add four circle primitives for the rounded corners*
1,1,$1+$1,$2,$3*
1,1,$1+$1,$4,$5*
1,1,$1+$1,$6,$7*
1,1,$1+$1,$8,$9*
0 Add four rect primitives between the rounded corners*
20,1,$1+$1,$2,$3,$4,$5,0*
20,1,$1+$1,$4,$5,$6,$7,0*
20,1,$1+$1,$6,$7,$8,$9,0*
20,1,$1+$1,$8,$9,$2,$3,0*%
G04 Aperture macros list end*
%ADD10C,1.800000*%
%ADD11R,1.800000X1.780000*%
%ADD12C,2.700000*%
%ADD13R,1.700000X1.700000*%
%ADD14C,1.700000*%
%ADD15C,1.000000*%
%ADD16C,12.800000*%
%ADD17RoundRect,0.225000X-0.225000X-0.250000X0.225000X-0.250000X0.225000X0.250000X-0.225000X0.250000X0*%
%ADD18R,0.400000X0.450000*%
%ADD19R,0.400000X0.910000*%
%ADD20R,0.810000X0.910000*%
%ADD21RoundRect,0.225000X0.250000X-0.225000X0.250000X0.225000X-0.250000X0.225000X-0.250000X-0.225000X0*%
%ADD22R,0.450000X0.400000*%
%ADD23R,0.910000X0.400000*%
%ADD24R,0.910000X0.810000*%
%ADD25R,1.100000X2.200000*%
%ADD26RoundRect,0.200000X-0.200000X-0.275000X0.200000X-0.275000X0.200000X0.275000X-0.200000X0.275000X0*%
%ADD27RoundRect,0.225000X0.225000X0.250000X-0.225000X0.250000X-0.225000X-0.250000X0.225000X-0.250000X0*%
%ADD28RoundRect,0.200000X0.275000X-0.200000X0.275000X0.200000X-0.275000X0.200000X-0.275000X-0.200000X0*%
%ADD29RoundRect,0.200000X-0.275000X0.200000X-0.275000X-0.200000X0.275000X-0.200000X0.275000X0.200000X0*%
%ADD30RoundRect,0.250000X1.000000X-1.950000X1.000000X1.950000X-1.000000X1.950000X-1.000000X-1.950000X0*%
%ADD31RoundRect,0.125000X-0.537500X-0.125000X0.537500X-0.125000X0.537500X0.125000X-0.537500X0.125000X0*%
%ADD32RoundRect,0.200000X0.200000X0.275000X-0.200000X0.275000X-0.200000X-0.275000X0.200000X-0.275000X0*%
%ADD33RoundRect,0.112500X0.187500X0.112500X-0.187500X0.112500X-0.187500X-0.112500X0.187500X-0.112500X0*%
%ADD34RoundRect,0.225000X-0.250000X0.225000X-0.250000X-0.225000X0.250000X-0.225000X0.250000X0.225000X0*%
%ADD35RoundRect,0.100000X-0.100000X0.637500X-0.100000X-0.637500X0.100000X-0.637500X0.100000X0.637500X0*%
%ADD36RoundRect,0.112500X-0.187500X-0.112500X0.187500X-0.112500X0.187500X0.112500X-0.187500X0.112500X0*%
%ADD37RoundRect,0.250000X-1.425000X0.362500X-1.425000X-0.362500X1.425000X-0.362500X1.425000X0.362500X0*%
%ADD38RoundRect,0.250000X0.300000X-2.050000X0.300000X2.050000X-0.300000X2.050000X-0.300000X-2.050000X0*%
%ADD39RoundRect,0.250002X5.149998X-4.449998X5.149998X4.449998X-5.149998X4.449998X-5.149998X-4.449998X0*%
%ADD40RoundRect,0.250000X1.950000X1.000000X-1.950000X1.000000X-1.950000X-1.000000X1.950000X-1.000000X0*%
%ADD41C,4.204000*%
%ADD42RoundRect,0.250000X2.500000X-1.750000X2.500000X1.750000X-2.500000X1.750000X-2.500000X-1.750000X0*%
%ADD43RoundRect,0.100000X0.637500X0.100000X-0.637500X0.100000X-0.637500X-0.100000X0.637500X-0.100000X0*%
%ADD44RoundRect,0.250000X-0.312500X-1.450000X0.312500X-1.450000X0.312500X1.450000X-0.312500X1.450000X0*%
%ADD45R,2.700000X3.300000*%
%ADD46RoundRect,0.150000X-0.150000X0.587500X-0.150000X-0.587500X0.150000X-0.587500X0.150000X0.587500X0*%
%ADD47RoundRect,0.112500X-0.112500X0.187500X-0.112500X-0.187500X0.112500X-0.187500X0.112500X0.187500X0*%
G04 APERTURE END LIST*
D10*
%TO.C,H10*%
X90652741Y23341259D03*
X88112741Y23341259D03*
X90652741Y25881259D03*
X88112741Y25881259D03*
X90652741Y28421259D03*
X88112741Y28421259D03*
X90652741Y30961259D03*
D11*
X88112741Y30961259D03*
%TD*%
D12*
%TO.C,H11*%
X97950000Y30434329D03*
%TD*%
%TO.C,H12*%
X41312246Y30390888D03*
%TD*%
D10*
%TO.C,H9*%
X-1328653Y23708822D03*
X-3868653Y23708822D03*
X-1328653Y26248822D03*
X-3868653Y26248822D03*
X-1328653Y28788822D03*
X-3868653Y28788822D03*
X-1328653Y31328822D03*
D11*
X-3868653Y31328822D03*
%TD*%
D12*
%TO.C,H13*%
X-50491416Y30695323D03*
%TD*%
D11*
%TO.C,H8*%
X144905704Y31194664D03*
D10*
X147445704Y31194664D03*
X144905704Y28654664D03*
X147445704Y28654664D03*
X144905704Y26114664D03*
X147445704Y26114664D03*
X144905704Y23574664D03*
X147445704Y23574664D03*
%TD*%
D13*
%TO.C,U5*%
X-50718039Y-6264401D03*
D14*
X-50718039Y-3724401D03*
X-48178039Y-6264401D03*
X-48178039Y-3724401D03*
X-45638040Y-6264401D03*
X-45638039Y-3724401D03*
X-43098039Y-6264401D03*
X-43098039Y-3724401D03*
X-40558039Y-6264401D03*
X-40558039Y-3724401D03*
X-38018039Y-6264401D03*
X-38018039Y-3724401D03*
X-35478039Y-6264401D03*
X-35478039Y-3724401D03*
X-32938038Y-6264401D03*
X-32938039Y-3724401D03*
X-30398039Y-6264401D03*
X-30398039Y-3724401D03*
X-27858039Y-6264401D03*
X-27858039Y-3724401D03*
X-25318039Y-6264401D03*
X-25318039Y-3724401D03*
X-22778040Y-6264401D03*
X-22778039Y-3724401D03*
X-20238039Y-6264401D03*
X-20238039Y-3724401D03*
X-17698039Y-6264401D03*
X-17698039Y-3724401D03*
X-15158039Y-6264401D03*
X-15158039Y-3724401D03*
X-12618040Y-6264401D03*
X-12618039Y-3724401D03*
X-10078038Y-6264401D03*
X-10078039Y-3724401D03*
X-7538039Y-6264401D03*
X-7538039Y-3724401D03*
X-4998039Y-6264401D03*
X-4998039Y-3724401D03*
X-2458039Y-6264401D03*
X-2458039Y-3724401D03*
%TD*%
D15*
%TO.C,TP9*%
X-68464146Y-23412198D03*
%TD*%
D16*
%TO.C,H3*%
X31500000Y28234329D03*
%TD*%
D15*
%TO.C,TP4*%
X106050000Y-7315671D03*
%TD*%
D16*
%TO.C,H6*%
X-63500000Y-87765671D03*
%TD*%
D15*
%TO.C,TP6*%
X127553023Y-20717506D03*
%TD*%
D16*
%TO.C,H7*%
X153000000Y-92265671D03*
%TD*%
D15*
%TO.C,TP3*%
X126650000Y-12465671D03*
%TD*%
D16*
%TO.C,H4*%
X-64650000Y26484329D03*
%TD*%
D15*
%TO.C,TP2*%
X148255896Y-72855265D03*
%TD*%
D16*
%TO.C,H5*%
X-64500000Y-34765671D03*
%TD*%
D15*
%TO.C,TP8*%
X17493355Y34028628D03*
%TD*%
%TO.C,TP7*%
X99936231Y-41660628D03*
%TD*%
D16*
%TO.C,H2*%
X155000000Y20234329D03*
%TD*%
D15*
%TO.C,TP10*%
X145900974Y-100408922D03*
%TD*%
%TO.C,TP5*%
X135601460Y-65346231D03*
%TD*%
D17*
%TO.C,C3*%
X127357488Y-57502279D03*
X128907488Y-57502279D03*
%TD*%
D18*
%TO.C,Q8*%
X142247388Y-72618816D03*
X142907388Y-72618816D03*
X143557388Y-72618816D03*
X143557388Y-74518816D03*
X142907388Y-74518816D03*
X142247388Y-74518816D03*
D19*
X143607388Y-73568816D03*
D20*
X142577388Y-73568816D03*
%TD*%
D14*
%TO.C,J4*%
X156346928Y-87434D03*
X151266928Y-87434D03*
X156346928Y-2627434D03*
X151266928Y-2627434D03*
X156346928Y-5167434D03*
X151266928Y-5167434D03*
X156346928Y-7707434D03*
X151266928Y-7707434D03*
%TD*%
D21*
%TO.C,C7*%
X60878043Y13039262D03*
X60878043Y14589262D03*
%TD*%
D22*
%TO.C,Q5*%
X145935345Y21845836D03*
X145935345Y21185837D03*
X145935345Y20535836D03*
X144035345Y20535836D03*
X144035345Y21185837D03*
X144035345Y21845836D03*
D23*
X144985345Y20485835D03*
D24*
X144985345Y21515835D03*
%TD*%
D25*
%TO.C,U10*%
X67620269Y31661347D03*
X70160269Y31661347D03*
X72700269Y31661347D03*
X75240269Y31661347D03*
X77780269Y31661347D03*
X80320269Y31661347D03*
X82860269Y31661347D03*
X85400269Y31661347D03*
X85400269Y22861347D03*
X82860269Y22861347D03*
X80320269Y22861347D03*
X77780269Y22861347D03*
X75240269Y22861347D03*
X72700269Y22861347D03*
X70160269Y22861347D03*
X67620269Y22861347D03*
%TD*%
D17*
%TO.C,C8*%
X147436785Y-76230587D03*
X148986785Y-76230587D03*
%TD*%
D26*
%TO.C,R1*%
X144172236Y-66907640D03*
X145822236Y-66907640D03*
%TD*%
D13*
%TO.C,U7*%
X-50630000Y3786829D03*
D14*
X-50630000Y1246829D03*
X-48090000Y3786829D03*
X-48090000Y1246829D03*
X-45550000Y3786829D03*
X-45550000Y1246829D03*
X-43010000Y3786829D03*
X-43010000Y1246829D03*
X-40470000Y3786829D03*
X-40470000Y1246829D03*
X-37930000Y3786829D03*
X-37930000Y1246829D03*
X-35390000Y3786829D03*
X-35390000Y1246829D03*
X-32850000Y3786829D03*
X-32850000Y1246829D03*
X-30310000Y3786829D03*
X-30310000Y1246829D03*
X-27770000Y3786829D03*
X-27770000Y1246829D03*
X-25230000Y3786829D03*
X-25230000Y1246829D03*
X-22690000Y3786829D03*
X-22690000Y1246829D03*
X-20150000Y3786829D03*
X-20150000Y1246829D03*
X-17610000Y3786829D03*
X-17610000Y1246829D03*
X-15070000Y3786829D03*
X-15070000Y1246829D03*
X-12530000Y3786829D03*
X-12530000Y1246829D03*
X-9990000Y3786829D03*
X-9990000Y1246829D03*
X-7450000Y3786829D03*
X-7450000Y1246829D03*
X-4910000Y3786829D03*
X-4910000Y1246829D03*
X-2370000Y3786829D03*
X-2370000Y1246829D03*
%TD*%
D25*
%TO.C,U11*%
X45114196Y31717094D03*
X47654196Y31717094D03*
X50194196Y31717094D03*
X52734196Y31717094D03*
X55274196Y31717094D03*
X57814196Y31717094D03*
X60354196Y31717094D03*
X62894196Y31717094D03*
X62894196Y22917094D03*
X60354196Y22917094D03*
X57814196Y22917094D03*
X55274196Y22917094D03*
X52734196Y22917094D03*
X50194196Y22917094D03*
X47654196Y22917094D03*
X45114196Y22917094D03*
%TD*%
D27*
%TO.C,C5*%
X113669692Y-39385151D03*
X112119692Y-39385151D03*
%TD*%
D28*
%TO.C,R30*%
X144990804Y-74407782D03*
X144990804Y-72757782D03*
%TD*%
D14*
%TO.C,J3*%
X156365063Y-53772549D03*
X151285063Y-53772549D03*
X156365063Y-56312549D03*
X151285063Y-56312549D03*
X156365063Y-58852549D03*
X151285063Y-58852549D03*
X156365063Y-61392549D03*
X151285063Y-61392549D03*
%TD*%
D29*
%TO.C,R3*%
X138281560Y-51278023D03*
X138281560Y-52928023D03*
%TD*%
D30*
%TO.C,C4*%
X117376024Y-35669855D03*
X117376024Y-27269857D03*
%TD*%
D31*
%TO.C,U3*%
X147849285Y-81334964D03*
X147849285Y-80684964D03*
X147849285Y-80034964D03*
X147849285Y-79384964D03*
X150124285Y-79384964D03*
X150124285Y-80034964D03*
X150124285Y-80684964D03*
X150124285Y-81334964D03*
%TD*%
D25*
%TO.C,U13*%
X124149407Y31827904D03*
X126689407Y31827904D03*
X129229407Y31827904D03*
X131769407Y31827904D03*
X134309407Y31827904D03*
X136849407Y31827904D03*
X139389407Y31827904D03*
X141929407Y31827904D03*
X141929407Y23027904D03*
X139389407Y23027904D03*
X136849407Y23027904D03*
X134309407Y23027904D03*
X131769407Y23027904D03*
X129229407Y23027904D03*
X126689407Y23027904D03*
X124149407Y23027904D03*
%TD*%
D22*
%TO.C,Q6*%
X1316975Y27136442D03*
X1316975Y27796441D03*
X1316975Y28446442D03*
X3216975Y28446442D03*
X3216975Y27796441D03*
X3216975Y27136442D03*
D23*
X2266975Y28496443D03*
D24*
X2266975Y27466443D03*
%TD*%
D14*
%TO.C,U8*%
X118449183Y-8635751D03*
X115909183Y-8635751D03*
X113369183Y-8635751D03*
X110829183Y-8635751D03*
D13*
X108289183Y-8635751D03*
%TD*%
D25*
%TO.C,U12*%
X34960000Y11934329D03*
X37500000Y11934329D03*
X40040000Y11934329D03*
X42580000Y11934329D03*
X45120000Y11934329D03*
X47660000Y11934329D03*
X50200000Y11934329D03*
X52740000Y11934329D03*
X52740000Y3134329D03*
X50200000Y3134329D03*
X47660000Y3134329D03*
X45120000Y3134329D03*
X42580000Y3134329D03*
X40040000Y3134329D03*
X37500000Y3134329D03*
X34960000Y3134329D03*
%TD*%
D32*
%TO.C,R6*%
X152148549Y-76252891D03*
X150498549Y-76252891D03*
%TD*%
D17*
%TO.C,C6*%
X147452793Y-77824792D03*
X149002793Y-77824792D03*
%TD*%
D22*
%TO.C,Q1*%
X135507039Y-86744580D03*
X135507039Y-86084581D03*
X135507039Y-85434580D03*
X137407039Y-85434580D03*
X137407039Y-86084581D03*
X137407039Y-86744580D03*
D23*
X136457039Y-85384579D03*
D24*
X136457039Y-86414579D03*
%TD*%
D33*
%TO.C,D2*%
X95290631Y15315408D03*
X93190631Y15315408D03*
%TD*%
D17*
%TO.C,C12*%
X37825000Y-6565671D03*
X39375000Y-6565671D03*
%TD*%
D28*
%TO.C,R19*%
X147451743Y-17402589D03*
X147451743Y-15752589D03*
%TD*%
D26*
%TO.C,R31*%
X1502486Y29887631D03*
X3152486Y29887631D03*
%TD*%
D34*
%TO.C,C2*%
X140089962Y-77656207D03*
X140089962Y-79206207D03*
%TD*%
D14*
%TO.C,J2*%
X137399926Y-97842457D03*
X137399926Y-92762457D03*
X134859926Y-97842457D03*
X134859926Y-92762457D03*
X132319926Y-97842457D03*
X132319926Y-92762457D03*
X129779926Y-97842457D03*
X129779926Y-92762457D03*
%TD*%
D35*
%TO.C,U9*%
X40875000Y-803171D03*
X41525000Y-803171D03*
X42175000Y-803171D03*
X42825000Y-803171D03*
X43475000Y-803171D03*
X44125000Y-803171D03*
X44775000Y-803171D03*
X45425000Y-803171D03*
X46075000Y-803171D03*
X46725000Y-803171D03*
X47375000Y-803171D03*
X48025000Y-803171D03*
X48025000Y-6528171D03*
X47375000Y-6528171D03*
X46725000Y-6528171D03*
X46075000Y-6528171D03*
X45425000Y-6528171D03*
X44775000Y-6528171D03*
X44125000Y-6528171D03*
X43475000Y-6528171D03*
X42825000Y-6528171D03*
X42175000Y-6528171D03*
X41525000Y-6528171D03*
X40875000Y-6528171D03*
%TD*%
D32*
%TO.C,R5*%
X152113358Y-77836522D03*
X150463358Y-77836522D03*
%TD*%
D36*
%TO.C,D7*%
X1271999Y31795411D03*
X3371999Y31795411D03*
%TD*%
D37*
%TO.C,R4*%
X144486785Y-77897464D03*
X144486785Y-83822464D03*
%TD*%
D38*
%TO.C,U2*%
X134068823Y-54096765D03*
X132368823Y-54096764D03*
X130668823Y-54096765D03*
D39*
X130668823Y-44946765D03*
D38*
X128968823Y-54096764D03*
X127268823Y-54096765D03*
%TD*%
D25*
%TO.C,U14*%
X102791331Y31808325D03*
X105331331Y31808325D03*
X107871331Y31808325D03*
X110411331Y31808325D03*
X112951331Y31808325D03*
X115491331Y31808325D03*
X118031331Y31808325D03*
X120571331Y31808325D03*
X120571331Y23008325D03*
X118031331Y23008325D03*
X115491331Y23008325D03*
X112951331Y23008325D03*
X110411331Y23008325D03*
X107871331Y23008325D03*
X105331331Y23008325D03*
X102791331Y23008325D03*
%TD*%
D21*
%TO.C,C9*%
X114900894Y12436737D03*
X114900894Y13986737D03*
%TD*%
D40*
%TO.C,C1*%
X135426553Y-74816187D03*
X127026555Y-74816187D03*
%TD*%
D41*
%TO.C,U6*%
X-55000000Y8734329D03*
X2500000Y8734329D03*
X-55000000Y23734329D03*
X2500000Y23734329D03*
%TD*%
D33*
%TO.C,D6*%
X146068131Y17305572D03*
X143968131Y17305572D03*
%TD*%
D32*
%TO.C,R21*%
X95042779Y17234749D03*
X93392779Y17234749D03*
%TD*%
D14*
%TO.C,J1*%
X156199512Y-37008831D03*
X151119512Y-37008831D03*
X156199512Y-39548831D03*
X151119512Y-39548831D03*
X156199512Y-42088831D03*
X151119512Y-42088831D03*
X156199512Y-44628831D03*
X151119512Y-44628831D03*
%TD*%
D21*
%TO.C,C10*%
X126004478Y-36896806D03*
X126004478Y-35346806D03*
%TD*%
D42*
%TO.C,L1*%
X117500000Y-54515671D03*
X117500000Y-44015671D03*
%TD*%
D43*
%TO.C,U15*%
X68944400Y14545847D03*
X68944400Y13895847D03*
X68944400Y13245847D03*
X68944400Y12595847D03*
X68944400Y11945847D03*
X68944400Y11295847D03*
X68944400Y10645847D03*
X68944400Y9995847D03*
X68944400Y9345847D03*
X68944400Y8695847D03*
X68944400Y8045847D03*
X68944400Y7395847D03*
X63219400Y7395847D03*
X63219400Y8045847D03*
X63219400Y8695847D03*
X63219400Y9345847D03*
X63219400Y9995847D03*
X63219400Y10645847D03*
X63219400Y11295847D03*
X63219400Y11945847D03*
X63219400Y12595847D03*
X63219400Y13245847D03*
X63219400Y13895847D03*
X63219400Y14545847D03*
%TD*%
D14*
%TO.C,H1*%
X117180000Y-17915671D03*
X114639999Y-17915671D03*
X112100000Y-17915671D03*
D13*
X109560000Y-17915671D03*
%TD*%
D15*
%TO.C,TP1*%
X107553901Y-53721293D03*
%TD*%
D44*
%TO.C,F2*%
X135930240Y-82525135D03*
X140205240Y-82525135D03*
%TD*%
D45*
%TO.C,E1*%
X120960000Y-61815671D03*
X128340000Y-61815671D03*
%TD*%
D29*
%TO.C,R2*%
X138286900Y-47879206D03*
X138286900Y-49529206D03*
%TD*%
D18*
%TO.C,Q4*%
X150111304Y-17552329D03*
X149451305Y-17552329D03*
X148801304Y-17552329D03*
X148801304Y-15652329D03*
X149451305Y-15652329D03*
X150111304Y-15652329D03*
D19*
X148751303Y-16602329D03*
D20*
X149781303Y-16602329D03*
%TD*%
D33*
%TO.C,D5*%
X149615542Y-13922949D03*
X147515542Y-13922949D03*
%TD*%
D32*
%TO.C,R27*%
X145826837Y19157061D03*
X144176837Y19157061D03*
%TD*%
D29*
%TO.C,R29*%
X133559738Y-85310805D03*
X133559738Y-86960805D03*
%TD*%
D21*
%TO.C,C11*%
X124268479Y-36911037D03*
X124268479Y-35361037D03*
%TD*%
D43*
%TO.C,U16*%
X122887844Y14218757D03*
X122887844Y13568757D03*
X122887844Y12918757D03*
X122887844Y12268757D03*
X122887844Y11618757D03*
X122887844Y10968757D03*
X122887844Y10318757D03*
X122887844Y9668757D03*
X122887844Y9018757D03*
X122887844Y8368757D03*
X122887844Y7718757D03*
X122887844Y7068757D03*
X117162844Y7068757D03*
X117162844Y7718757D03*
X117162844Y8368757D03*
X117162844Y9018757D03*
X117162844Y9668757D03*
X117162844Y10318757D03*
X117162844Y10968757D03*
X117162844Y11618757D03*
X117162844Y12268757D03*
X117162844Y12918757D03*
X117162844Y13568757D03*
X117162844Y14218757D03*
%TD*%
D46*
%TO.C,Q2*%
X144022070Y-68772097D03*
X145922070Y-68772097D03*
X144972070Y-70647098D03*
%TD*%
D47*
%TO.C,D1*%
X133854845Y-81819132D03*
X133854845Y-83919132D03*
%TD*%
D22*
%TO.C,Q9*%
X95155957Y20048514D03*
X95155957Y19388515D03*
X95155957Y18738514D03*
X93255957Y18738514D03*
X93255957Y19388515D03*
X93255957Y20048514D03*
D23*
X94205957Y18688513D03*
D24*
X94205957Y19718513D03*
%TD*%
M02*
