%TF.GenerationSoftware,KiCad,Pcbnew,9.0.2*%
%TF.CreationDate,2025-10-05T23:40:01-05:00*%
%TF.ProjectId,MothBox5.0.2,4d6f7468-426f-4783-952e-302e322e6b69,5.0.2*%
%TF.SameCoordinates,Original*%
%TF.FileFunction,Profile,NP*%
%FSLAX46Y46*%
G04 Gerber Fmt 4.6, Leading zero omitted, Abs format (unit mm)*
G04 Created by KiCad (PCBNEW 9.0.2) date 2025-10-05 23:40:01*
%MOMM*%
%LPD*%
G01*
G04 APERTURE LIST*
%ADD10C,0.200000*%
%TA.AperFunction,Profile*%
%ADD11C,0.050000*%
%TD*%
%TA.AperFunction,Profile*%
%ADD12C,0.200000*%
%TD*%
G04 APERTURE END LIST*
D10*
X-63140788Y-56121070D02*
X-63107318Y-56137671D01*
X-63073812Y-56154201D01*
X-63040272Y-56170659D01*
X-63006696Y-56187045D01*
X-62973085Y-56203358D01*
X-62939439Y-56219600D01*
X-62905759Y-56235770D01*
X-62872044Y-56251868D01*
X-62838295Y-56267893D01*
X-62804512Y-56283846D01*
X-62770694Y-56299727D01*
X-62736843Y-56315535D01*
X-62702958Y-56331271D01*
X-62669039Y-56346934D01*
X-62635087Y-56362525D01*
X-62601102Y-56378042D01*
X-62567083Y-56393487D01*
X-62533032Y-56408859D01*
X-62498947Y-56424159D01*
X-62464830Y-56439385D01*
X-62430680Y-56454538D01*
X-62396498Y-56469618D01*
X-62362284Y-56484624D01*
X-62328038Y-56499558D01*
X-62293760Y-56514418D01*
X-62259449Y-56529205D01*
X-62225108Y-56543918D01*
X-62190735Y-56558557D01*
X-62156330Y-56573123D01*
X-62121895Y-56587616D01*
X-62087428Y-56602034D01*
X-62052930Y-56616379D01*
X-62018402Y-56630650D01*
X-61983844Y-56644847D01*
X-61949255Y-56658970D01*
X-61914635Y-56673019D01*
X-61879986Y-56686994D01*
X-61845307Y-56700894D01*
X-61810598Y-56714721D01*
X-61775859Y-56728473D01*
X-61741091Y-56742150D01*
X-61706294Y-56755754D01*
X-61671468Y-56769282D01*
X-61636612Y-56782736D01*
X-61601728Y-56796116D01*
X-61566815Y-56809421D01*
X-61531874Y-56822651D01*
X-61496905Y-56835806D01*
X-61461907Y-56848886D01*
X-61426881Y-56861891D01*
X-61391828Y-56874822D01*
X-61356747Y-56887677D01*
X-61321638Y-56900457D01*
X-61286502Y-56913162D01*
X-61251339Y-56925792D01*
X-61216148Y-56938347D01*
X-61180931Y-56950826D01*
X-61145687Y-56963230D01*
X-61110417Y-56975558D01*
X-61075120Y-56987811D01*
X-61039797Y-56999988D01*
X-61004448Y-57012089D01*
X-60969073Y-57024115D01*
X-60933672Y-57036065D01*
X-60898246Y-57047940D01*
X-60862794Y-57059738D01*
X-60827317Y-57071461D01*
X-60791815Y-57083107D01*
X-60756288Y-57094678D01*
X-60720737Y-57106172D01*
X-60685160Y-57117591D01*
X-60649560Y-57128933D01*
X-60613935Y-57140199D01*
X-60578286Y-57151389D01*
X-60542613Y-57162502D01*
X-60506916Y-57173539D01*
X-60471196Y-57184499D01*
X-60435452Y-57195383D01*
X-60399685Y-57206191D01*
X-60363895Y-57216922D01*
X-60328082Y-57227576D01*
X-60292246Y-57238154D01*
X-60256388Y-57248654D01*
X-60220507Y-57259078D01*
X-60184604Y-57269426D01*
X-60148678Y-57279696D01*
X-60112731Y-57289889D01*
X-60076762Y-57300006D01*
X-60040772Y-57310045D01*
X-60004760Y-57320007D01*
X-59968726Y-57329893D01*
X-59932672Y-57339701D01*
X-59914637Y-57344576D01*
X-59896597Y-57349431D01*
X-59878551Y-57354268D01*
X-59860501Y-57359085D01*
X-59842445Y-57363883D01*
X-59824384Y-57368661D01*
X-59806318Y-57373420D01*
X-59788247Y-57378160D01*
X-59770171Y-57382880D01*
X-59752089Y-57387582D01*
X-59734003Y-57392263D01*
X-59715912Y-57396926D01*
X-59697816Y-57401569D01*
X-59679715Y-57406192D01*
X-59661608Y-57410796D01*
X-59643497Y-57415381D01*
X-59625381Y-57419947D01*
X-59607261Y-57424493D01*
X-59589135Y-57429019D01*
X-59571004Y-57433527D01*
X-59552869Y-57438015D01*
X-59534729Y-57442483D01*
X-59516584Y-57446932D01*
X-59498434Y-57451362D01*
X-59480280Y-57455772D01*
X-59462121Y-57460162D01*
X-59443957Y-57464534D01*
X-59425789Y-57468885D01*
X-59407616Y-57473218D01*
X-59389438Y-57477531D01*
X-59371255Y-57481824D01*
X-59353068Y-57486098D01*
X-59334877Y-57490353D01*
X-59316681Y-57494588D01*
X-59298481Y-57498803D01*
X-59280275Y-57502999D01*
X-59262066Y-57507176D01*
X-59243852Y-57511333D01*
X-59225634Y-57515470D01*
X-59207411Y-57519588D01*
X-59189183Y-57523687D01*
X-59170952Y-57527766D01*
X-59152716Y-57531825D01*
X-59134476Y-57535865D01*
X-59116231Y-57539886D01*
X-59097982Y-57543887D01*
X-59079729Y-57547868D01*
X-59061471Y-57551830D01*
X-59043210Y-57555772D01*
X-59024944Y-57559695D01*
X-59006674Y-57563598D01*
X-58988400Y-57567482D01*
X-58970122Y-57571346D01*
X-58951839Y-57575190D01*
X-58933553Y-57579015D01*
X-58915262Y-57582820D01*
X-58896967Y-57586606D01*
X-58878668Y-57590372D01*
X-58860366Y-57594119D01*
X-58842059Y-57597846D01*
X-58823749Y-57601553D01*
X-58805434Y-57605241D01*
X-58787115Y-57608909D01*
X-58768793Y-57612558D01*
X-58750466Y-57616186D01*
X-58732136Y-57619796D01*
X-58713802Y-57623385D01*
X-58695464Y-57626955D01*
X-58677122Y-57630506D01*
X-58658777Y-57634036D01*
X-58640428Y-57637547D01*
X-58622075Y-57641039D01*
X-58603718Y-57644511D01*
X-58585357Y-57647963D01*
X-58566993Y-57651395D01*
X-58548626Y-57654808D01*
X-58530254Y-57658201D01*
X-58511879Y-57661575D01*
X-58493501Y-57664928D01*
X-58475118Y-57668263D01*
X-58456733Y-57671577D01*
X-58438343Y-57674872D01*
X-58419951Y-57678147D01*
X-58401554Y-57681402D01*
X-58383155Y-57684638D01*
X-58364752Y-57687854D01*
X-58346345Y-57691050D01*
X-58327935Y-57694227D01*
X-58309522Y-57697383D01*
X-58291105Y-57700521D01*
X-58272685Y-57703638D01*
X-58254261Y-57706736D01*
X-58235835Y-57709813D01*
X-58217405Y-57712872D01*
X-58198972Y-57715910D01*
X-58180535Y-57718929D01*
X-58162096Y-57721928D01*
X-58143653Y-57724907D01*
X-58125207Y-57727867D01*
X-58106757Y-57730806D01*
X-58088305Y-57733726D01*
X-58069850Y-57736627D01*
X-58051391Y-57739507D01*
X-58032929Y-57742368D01*
X-58014465Y-57745209D01*
X-57995997Y-57748030D01*
X-57977527Y-57750831D01*
X-57959053Y-57753613D01*
X-57940577Y-57756375D01*
X-57922097Y-57759117D01*
X-57903615Y-57761839D01*
X-57885129Y-57764542D01*
X-57866641Y-57767224D01*
X-57848150Y-57769887D01*
X-57829656Y-57772530D01*
X-57811159Y-57775154D01*
X-57792660Y-57777757D01*
X-57774157Y-57780341D01*
X-57755653Y-57782905D01*
X-57737144Y-57785449D01*
X-57718634Y-57787973D01*
X-57700121Y-57790477D01*
X-57681605Y-57792962D01*
X-57663086Y-57795427D01*
X-57644566Y-57797872D01*
X-57626042Y-57800297D01*
X-57607516Y-57802702D01*
X-57588986Y-57805087D01*
X-57570455Y-57807453D01*
X-57551921Y-57809799D01*
X-57533385Y-57812125D01*
X-57514846Y-57814431D01*
X-57496305Y-57816717D01*
X-57477761Y-57818983D01*
X-57459215Y-57821230D01*
X-57440666Y-57823456D01*
X-57422115Y-57825663D01*
X-57403561Y-57827850D01*
X-57385006Y-57830017D01*
X-57366448Y-57832164D01*
X-57347888Y-57834292D01*
X-57329325Y-57836399D01*
X-57310761Y-57838487D01*
X-57292193Y-57840554D01*
X-57273624Y-57842602D01*
X-57255053Y-57844630D01*
X-57236479Y-57846638D01*
X-57217903Y-57848626D01*
X-57199326Y-57850595D01*
X-57180745Y-57852543D01*
X-57162164Y-57854471D01*
X-57143579Y-57856380D01*
X-57124994Y-57858269D01*
X-57106405Y-57860138D01*
X-57087815Y-57861986D01*
X-57069223Y-57863816D01*
X-57050629Y-57865625D01*
X-57032032Y-57867414D01*
X-57013435Y-57869183D01*
X-56994835Y-57870932D01*
X-56976233Y-57872662D01*
X-56957629Y-57874371D01*
X-56939024Y-57876061D01*
X-56920417Y-57877731D01*
X-56901808Y-57879380D01*
X-56883197Y-57881010D01*
X-56864585Y-57882620D01*
X-56845970Y-57884210D01*
X-56827354Y-57885780D01*
X-56808736Y-57887330D01*
X-56790117Y-57888861D01*
X-56771496Y-57890371D01*
X-56752874Y-57891861D01*
X-56734249Y-57893332D01*
X-56715624Y-57894782D01*
X-56696996Y-57896213D01*
X-56678367Y-57897623D01*
X-56659736Y-57899014D01*
X-56641105Y-57900385D01*
X-56622471Y-57901735D01*
X-56603837Y-57903066D01*
X-56585200Y-57904377D01*
X-56552537Y-57906626D01*
X154228980Y79274932D02*
X154245268Y79266583D01*
X154261545Y79258217D01*
X154277587Y79249949D01*
X154293620Y79241664D01*
X154309431Y79233470D01*
X154325233Y79225258D01*
X154340826Y79217132D01*
X154356410Y79208988D01*
X154371797Y79200924D01*
X154387175Y79192842D01*
X154402366Y79184835D01*
X154417550Y79176810D01*
X154432555Y79168855D01*
X154447554Y79160882D01*
X154462383Y79152976D01*
X154477206Y79145051D01*
X154491868Y79137188D01*
X154506523Y79129307D01*
X154521025Y79121485D01*
X154535521Y79113643D01*
X154549870Y79105857D01*
X154564214Y79098052D01*
X154578418Y79090300D01*
X154592616Y79082528D01*
X154606680Y79074807D01*
X154620739Y79067065D01*
X154634670Y79059371D01*
X154648596Y79051657D01*
X154662399Y79043987D01*
X154676197Y79036298D01*
X154689878Y79028651D01*
X154703554Y79020983D01*
X154717117Y79013356D01*
X154730675Y79005708D01*
X154744125Y78998099D01*
X154757570Y78990468D01*
X154770911Y78982874D01*
X154784248Y78975259D01*
X154797485Y78967678D01*
X154810717Y78960077D01*
X154823853Y78952507D01*
X154836985Y78944917D01*
X154850024Y78937357D01*
X154863059Y78929776D01*
X154876004Y78922225D01*
X154888946Y78914652D01*
X154901801Y78907106D01*
X154914653Y78899539D01*
X154927422Y78891998D01*
X154940187Y78884435D01*
X154952871Y78876897D01*
X154965552Y78869337D01*
X154978155Y78861801D01*
X154990756Y78854243D01*
X155003281Y78846706D01*
X155015803Y78839148D01*
X155028252Y78831610D01*
X155040699Y78824051D01*
X155053075Y78816511D01*
X155065449Y78808948D01*
X155077754Y78801404D01*
X155090057Y78793838D01*
X155102294Y78786289D01*
X155114529Y78778717D01*
X155126699Y78771162D01*
X155138868Y78763584D01*
X155150974Y78756022D01*
X155163079Y78748437D01*
X155175124Y78740865D01*
X155187166Y78733272D01*
X155199151Y78725691D01*
X155211133Y78718087D01*
X155223059Y78710496D01*
X155234984Y78702882D01*
X155246854Y78695279D01*
X155258722Y78687653D01*
X155270537Y78680037D01*
X155282351Y78672399D01*
X155294113Y78664770D01*
X155305875Y78657117D01*
X155317585Y78649474D01*
X155329295Y78641807D01*
X155340956Y78634148D01*
X155352617Y78626465D01*
X155364230Y78618790D01*
X155375842Y78611091D01*
X155387408Y78603399D01*
X155398974Y78595683D01*
X155410494Y78587972D01*
X155422015Y78580238D01*
X155433492Y78572509D01*
X155444968Y78564755D01*
X155456403Y78557007D01*
X155467837Y78549234D01*
X155479230Y78541464D01*
X155490623Y78533671D01*
X155501976Y78525880D01*
X155513329Y78518065D01*
X155524643Y78510253D01*
X155535957Y78502416D01*
X155547234Y78494581D01*
X155558511Y78486721D01*
X155569751Y78478862D01*
X155580991Y78470979D01*
X155592196Y78463096D01*
X155603401Y78455188D01*
X155614572Y78447281D01*
X155625743Y78439348D01*
X155636880Y78431415D01*
X155648018Y78423456D01*
X155659123Y78415496D01*
X155670229Y78407512D01*
X155681303Y78399525D01*
X155692378Y78391513D01*
X155703422Y78383499D01*
X155714467Y78375459D01*
X155725482Y78367416D01*
X155736497Y78359348D01*
X155747484Y78351277D01*
X155758471Y78343180D01*
X155769430Y78335078D01*
X155780390Y78326951D01*
X155791323Y78318820D01*
X155802256Y78310663D01*
X155813163Y78302500D01*
X155824071Y78294312D01*
X155834953Y78286118D01*
X155845837Y78277898D01*
X155856695Y78269672D01*
X155867555Y78261420D01*
X155878390Y78253161D01*
X155889226Y78244876D01*
X155900039Y78236584D01*
X155910853Y78228266D01*
X155921644Y78219940D01*
X155932437Y78211587D01*
X155943207Y78203227D01*
X155953979Y78194839D01*
X155964729Y78186444D01*
X155975481Y78178021D01*
X155986212Y78169590D01*
X155996945Y78161131D01*
X156007657Y78152664D01*
X156018371Y78144169D01*
X156029065Y78135664D01*
X156039762Y78127132D01*
X156050439Y78118590D01*
X156061118Y78110021D01*
X156071778Y78101441D01*
X156082440Y78092833D01*
X156093085Y78084214D01*
X156103731Y78075568D01*
X156114361Y78066910D01*
X156124992Y78058225D01*
X156135606Y78049527D01*
X156146223Y78040801D01*
X156156824Y78032063D01*
X156167426Y78023298D01*
X156178013Y78014519D01*
X156188603Y78005712D01*
X156199177Y77996892D01*
X156209753Y77988043D01*
X156220315Y77979181D01*
X156230880Y77970290D01*
X156241430Y77961386D01*
X156251983Y77952453D01*
X156262522Y77943505D01*
X156273064Y77934528D01*
X156283592Y77925537D01*
X156294124Y77916517D01*
X156304642Y77907481D01*
X156315164Y77898417D01*
X156325673Y77889336D01*
X156336185Y77880227D01*
X156346685Y77871102D01*
X156357188Y77861947D01*
X156367680Y77852776D01*
X156378175Y77843575D01*
X156388659Y77834357D01*
X156399146Y77825110D01*
X156409623Y77815845D01*
X156420103Y77806551D01*
X156430573Y77797239D01*
X156441045Y77787898D01*
X156451509Y77778537D01*
X156461976Y77769148D01*
X156472433Y77759739D01*
X156482894Y77750301D01*
X156493346Y77740843D01*
X156503802Y77731355D01*
X156514249Y77721848D01*
X156524700Y77712310D01*
X156535143Y77702753D01*
X156545589Y77693165D01*
X156556028Y77683557D01*
X156566470Y77673919D01*
X156576906Y77664259D01*
X156587345Y77654569D01*
X156597777Y77644858D01*
X156608213Y77635116D01*
X156618643Y77625353D01*
X156629076Y77615559D01*
X156639504Y77605742D01*
X156649935Y77595895D01*
X156660361Y77586025D01*
X156670791Y77576124D01*
X156681215Y77566201D01*
X156691643Y77556246D01*
X156702067Y77546268D01*
X156712495Y77536258D01*
X156722918Y77526225D01*
X156733345Y77516160D01*
X156743768Y77506071D01*
X156754195Y77495951D01*
X156764619Y77485806D01*
X156775046Y77475629D01*
X156785471Y77465427D01*
X156795899Y77455193D01*
X156806325Y77444935D01*
X156816754Y77434643D01*
X156827182Y77424327D01*
X156837613Y77413978D01*
X156848042Y77403603D01*
X156858475Y77393195D01*
X156868907Y77382761D01*
X156879343Y77372295D01*
X156889777Y77361801D01*
X156900216Y77351275D01*
X156910653Y77340722D01*
X156921095Y77330135D01*
X156931536Y77319522D01*
X156941981Y77308874D01*
X156952426Y77298199D01*
X156962875Y77287491D01*
X156973325Y77276754D01*
X156983778Y77265984D01*
X156994232Y77255185D01*
X157004691Y77244352D01*
X157015149Y77233491D01*
X157025613Y77222595D01*
X157036077Y77211670D01*
X157046546Y77200710D01*
X157057016Y77189721D01*
X157067491Y77178698D01*
X157077967Y77167644D01*
X157088448Y77156556D01*
X157098931Y77145437D01*
X157109418Y77134284D01*
X157119908Y77123100D01*
X157130402Y77111881D01*
X157140899Y77100630D01*
X157151401Y77089344D01*
X157161905Y77078027D01*
X157172414Y77066674D01*
X157182926Y77055289D01*
X157193443Y77043869D01*
X157203964Y77032416D01*
X157214489Y77020928D01*
X157225018Y77009406D01*
X157235552Y76997849D01*
X157246090Y76986259D01*
X157256633Y76974632D01*
X157267180Y76962972D01*
X157277733Y76951275D01*
X157288289Y76939544D01*
X157298851Y76927777D01*
X157309418Y76915976D01*
X157319990Y76904138D01*
X157330567Y76892264D01*
X157341149Y76880354D01*
X157351737Y76868409D01*
X157362330Y76856427D01*
X157372928Y76844409D01*
X157383532Y76832354D01*
X157394142Y76820262D01*
X157404757Y76808133D01*
X157415378Y76795968D01*
X157426006Y76783765D01*
X157436639Y76771525D01*
X157447278Y76759247D01*
X157457923Y76746932D01*
X157468574Y76734579D01*
X157479232Y76722188D01*
X157489896Y76709759D01*
X157500567Y76697291D01*
X157511244Y76684786D01*
X157521928Y76672241D01*
X157532618Y76659658D01*
X157543315Y76647036D01*
X157554019Y76634375D01*
X157564730Y76621675D01*
X157575448Y76608935D01*
X157586173Y76596156D01*
X157596905Y76583337D01*
X157607645Y76570478D01*
X157618392Y76557580D01*
X157629146Y76544641D01*
X157639908Y76531662D01*
X157650677Y76518642D01*
X157661454Y76505582D01*
X157672239Y76492480D01*
X157683031Y76479339D01*
X157693832Y76466155D01*
X157704639Y76452931D01*
X157715456Y76439665D01*
X157726280Y76426358D01*
X157737113Y76413008D01*
X157747953Y76399617D01*
X157758803Y76386183D01*
X157769660Y76372708D01*
X157780527Y76359189D01*
X157791401Y76345629D01*
X157802285Y76332025D01*
X157813176Y76318379D01*
X157824078Y76304688D01*
X157834987Y76290957D01*
X157845906Y76277179D01*
X157856833Y76263360D01*
X157867771Y76249496D01*
X157878716Y76235589D01*
X157889672Y76221636D01*
X157900636Y76207641D01*
X157911610Y76193599D01*
X157922593Y76179515D01*
X157933587Y76165384D01*
X157944589Y76151210D01*
X157955602Y76136989D01*
X157966623Y76122725D01*
X157977656Y76108412D01*
X157988697Y76094057D01*
X157999750Y76079653D01*
X158010811Y76065206D01*
X158021885Y76050709D01*
X158032966Y76036170D01*
X158044060Y76021580D01*
X158055162Y76006947D01*
X158066277Y75992264D01*
X158077400Y75977538D01*
X158088536Y75962760D01*
X158099681Y75947939D01*
X158110838Y75933066D01*
X158122004Y75918149D01*
X158133184Y75903181D01*
X158144371Y75888168D01*
X158155573Y75873102D01*
X158166783Y75857993D01*
X158178007Y75842830D01*
X158189239Y75827623D01*
X158200486Y75812362D01*
X158211741Y75797057D01*
X158234289Y75766293D01*
X158256884Y75735329D01*
X158279526Y75704165D01*
X158302216Y75672799D01*
X158324955Y75641228D01*
X158347743Y75609452D01*
X158370580Y75577470D01*
X158393468Y75545279D01*
X158416407Y75512878D01*
X158439397Y75480265D01*
X158462439Y75447440D01*
X158485534Y75414400D01*
X158508683Y75381143D01*
X158531886Y75347669D01*
X158555143Y75313975D01*
X158578455Y75280060D01*
X158601823Y75245923D01*
X158625248Y75211561D01*
X158648729Y75176973D01*
X158672268Y75142157D01*
X158695866Y75107113D01*
X158719522Y75071837D01*
X158743238Y75036329D01*
X158767014Y75000587D01*
X158790850Y74964608D01*
X158814748Y74928392D01*
X158838708Y74891936D01*
X158862731Y74855239D01*
X158886817Y74818300D01*
X158910966Y74781115D01*
X158935180Y74743684D01*
X158959459Y74706005D01*
X158983804Y74668076D01*
X159008216Y74629896D01*
X159032694Y74591461D01*
X159057240Y74552772D01*
X159081854Y74513825D01*
X159106537Y74474619D01*
X159131290Y74435152D01*
X159156113Y74395422D01*
X159181006Y74355428D01*
X159205971Y74315167D01*
X159231009Y74274638D01*
X159256119Y74233838D01*
X159281302Y74192766D01*
X159306560Y74151420D01*
X159331892Y74109798D01*
X159357300Y74067897D01*
X159382784Y74025717D01*
X159408345Y73983254D01*
X159433983Y73940508D01*
X159459699Y73897476D01*
X159485494Y73854155D01*
X159511369Y73810544D01*
X159537324Y73766642D01*
X159563359Y73722445D01*
X159589476Y73677951D01*
X159615675Y73633160D01*
X159641957Y73588068D01*
X159668323Y73542674D01*
X159694772Y73496974D01*
X159721307Y73450969D01*
X159747927Y73404654D01*
X159774634Y73358028D01*
X159801428Y73311089D01*
X159828310Y73263834D01*
X159855280Y73216262D01*
X159882339Y73168369D01*
X159909489Y73120155D01*
X159936729Y73071616D01*
X159964060Y73022751D01*
X159991483Y72973557D01*
X160019000Y72924032D01*
X160046610Y72874173D01*
X160074314Y72823978D01*
X160102113Y72773446D01*
X160130008Y72722573D01*
X160158000Y72671357D01*
X160186089Y72619796D01*
X160214276Y72567887D01*
X160242562Y72515628D01*
X160270948Y72463017D01*
X160299434Y72410051D01*
X160328021Y72356728D01*
X160356710Y72303045D01*
X160364815Y72287849D01*
D11*
X124868759Y-57831156D02*
X119376394Y-56276742D01*
D12*
X125413415Y-57906741D02*
X147777495Y-57906741D01*
D11*
X163214815Y32937849D02*
X163529459Y59881783D01*
D12*
X112380004Y-19221729D02*
G75*
G02*
X114379320Y-21042278I7396J-1999971D01*
G01*
D11*
X117981950Y-54842072D02*
X117153460Y-51561445D01*
D12*
X-72820174Y-35068721D02*
X-72820174Y-38018721D01*
X163529459Y60962793D02*
X163529459Y59902494D01*
X96598327Y-51463245D02*
G75*
G02*
X96305429Y-52170339I-999827J-55D01*
G01*
X-51755269Y1078492D02*
G75*
G02*
X-55555269Y1078492I-1900000J0D01*
G01*
X-55555269Y1078492D02*
G75*
G02*
X-51755269Y1078492I1900000J0D01*
G01*
X164046824Y-40048610D02*
X164046824Y-40496730D01*
X17563325Y81114780D02*
X-55484670Y81114780D01*
X147793001Y-57905683D02*
X147779187Y-57906626D01*
X83244731Y1078492D02*
G75*
G02*
X79444731Y1078492I-1900000J0D01*
G01*
X79444731Y1078492D02*
G75*
G02*
X83244731Y1078492I1900000J0D01*
G01*
D11*
X101004848Y-19263880D02*
X112380004Y-19221729D01*
D12*
X-6755269Y-49921508D02*
G75*
G02*
X-10555269Y-49921508I-1900000J0D01*
G01*
X-10555269Y-49921508D02*
G75*
G02*
X-6755269Y-49921508I1900000J0D01*
G01*
X90861907Y-57613873D02*
X96305435Y-52170345D01*
X-51755269Y-49921508D02*
G75*
G02*
X-55555269Y-49921508I-1900000J0D01*
G01*
X-55555269Y-49921508D02*
G75*
G02*
X-51755269Y-49921508I1900000J0D01*
G01*
X125413415Y-57906741D02*
G75*
G02*
X124868760Y-57831152I-15J1999941D01*
G01*
D10*
X-72631265Y-43057375D02*
X-72634274Y-43037024D01*
X-72637260Y-43016691D01*
X-72640201Y-42996526D01*
X-72643119Y-42976377D01*
X-72645994Y-42956388D01*
X-72648847Y-42936413D01*
X-72651657Y-42916589D01*
X-72654446Y-42896779D01*
X-72657194Y-42877112D01*
X-72659920Y-42857457D01*
X-72662607Y-42837938D01*
X-72665272Y-42818430D01*
X-72667899Y-42799051D01*
X-72670505Y-42779681D01*
X-72673074Y-42760433D01*
X-72675621Y-42741194D01*
X-72678133Y-42722070D01*
X-72680624Y-42702953D01*
X-72683081Y-42683947D01*
X-72685516Y-42664946D01*
X-72687918Y-42646049D01*
X-72690299Y-42627157D01*
X-72692647Y-42608363D01*
X-72694974Y-42589573D01*
X-72697270Y-42570876D01*
X-72699546Y-42552181D01*
X-72701790Y-42533575D01*
X-72704014Y-42514969D01*
X-72706208Y-42496447D01*
X-72708382Y-42477924D01*
X-72710526Y-42459481D01*
X-72712650Y-42441036D01*
X-72714745Y-42422666D01*
X-72716821Y-42404293D01*
X-72718868Y-42385991D01*
X-72720896Y-42367684D01*
X-72722896Y-42349444D01*
X-72724876Y-42331199D01*
X-72726830Y-42313016D01*
X-72728764Y-42294827D01*
X-72730672Y-42276697D01*
X-72732560Y-42258559D01*
X-72734422Y-42240476D01*
X-72736265Y-42222385D01*
X-72738083Y-42204344D01*
X-72739881Y-42186295D01*
X-72741655Y-42168293D01*
X-72743409Y-42150281D01*
X-72745140Y-42132312D01*
X-72746850Y-42114333D01*
X-72748537Y-42096393D01*
X-72750205Y-42078443D01*
X-72751850Y-42060528D01*
X-72753475Y-42042601D01*
X-72755078Y-42024708D01*
X-72756661Y-42006801D01*
X-72758222Y-41988924D01*
X-72759763Y-41971033D01*
X-72761283Y-41953169D01*
X-72762783Y-41935290D01*
X-72764261Y-41917434D01*
X-72765721Y-41899563D01*
X-72767159Y-41881712D01*
X-72768578Y-41863844D01*
X-72769975Y-41845995D01*
X-72771354Y-41828127D01*
X-72772712Y-41810274D01*
X-72774051Y-41792403D01*
X-72775368Y-41774544D01*
X-72776668Y-41756665D01*
X-72777946Y-41738796D01*
X-72779206Y-41720906D01*
X-72780445Y-41703023D01*
X-72781666Y-41685118D01*
X-72782866Y-41667217D01*
X-72784048Y-41649294D01*
X-72785210Y-41631372D01*
X-72786353Y-41613427D01*
X-72787476Y-41595481D01*
X-72788580Y-41577510D01*
X-72789665Y-41559535D01*
X-72790731Y-41541536D01*
X-72791778Y-41523529D01*
X-72792806Y-41505497D01*
X-72793814Y-41487456D01*
X-72794804Y-41469388D01*
X-72795774Y-41451307D01*
X-72796726Y-41433200D01*
X-72797659Y-41415078D01*
X-72798573Y-41396928D01*
X-72799467Y-41378760D01*
X-72800344Y-41360563D01*
X-72801201Y-41342347D01*
X-72802039Y-41324101D01*
X-72802859Y-41305832D01*
X-72803659Y-41287532D01*
X-72804441Y-41269208D01*
X-72805204Y-41250852D01*
X-72805948Y-41232468D01*
X-72806674Y-41214053D01*
X-72807381Y-41195606D01*
X-72808068Y-41177127D01*
X-72808738Y-41158615D01*
X-72809388Y-41140070D01*
X-72810019Y-41121488D01*
X-72810632Y-41102872D01*
X-72811226Y-41084218D01*
X-72811801Y-41065529D01*
X-72812357Y-41046799D01*
X-72812894Y-41028032D01*
X-72813413Y-41009222D01*
X-72813912Y-40990376D01*
X-72814393Y-40971483D01*
X-72814854Y-40952552D01*
X-72815721Y-40914554D01*
X-72816511Y-40876376D01*
X-72817225Y-40838009D01*
X-72817863Y-40799448D01*
X-72818424Y-40760684D01*
X-72818908Y-40721711D01*
X-72819314Y-40682521D01*
X-72819642Y-40643108D01*
X-72819892Y-40603462D01*
X-72820064Y-40563578D01*
X-72820157Y-40523447D01*
X-72820174Y-40496730D01*
D12*
X-6755269Y1078492D02*
G75*
G02*
X-10555269Y1078492I-1900000J0D01*
G01*
X-10555269Y1078492D02*
G75*
G02*
X-6755269Y1078492I1900000J0D01*
G01*
D10*
X143233360Y81114780D02*
X143859672Y81114768D01*
X144147626Y81114738D01*
X144419557Y81114680D01*
X144676052Y81114585D01*
X144917694Y81114444D01*
X145145069Y81114246D01*
X145253589Y81114123D01*
X145358762Y81113983D01*
X145460660Y81113824D01*
X145559357Y81113645D01*
X145654925Y81113445D01*
X145747439Y81113223D01*
X145836970Y81112977D01*
X145923593Y81112707D01*
X146007380Y81112411D01*
X146088405Y81112089D01*
X146166740Y81111738D01*
X146242458Y81111358D01*
X146315634Y81110948D01*
X146386339Y81110506D01*
X146454647Y81110032D01*
X146520631Y81109524D01*
X146584364Y81108980D01*
X146645919Y81108401D01*
X146705370Y81107784D01*
X146762789Y81107128D01*
X146818250Y81106433D01*
X146871826Y81105697D01*
X146923589Y81104919D01*
X146973613Y81104098D01*
X147021972Y81103232D01*
X147068737Y81102321D01*
X147113983Y81101363D01*
X147136058Y81100866D01*
X147157782Y81100357D01*
X147179161Y81099836D01*
X147200207Y81099302D01*
X147220928Y81098756D01*
X147241332Y81098197D01*
X147261430Y81097625D01*
X147281230Y81097040D01*
X147300741Y81096442D01*
X147319973Y81095831D01*
X147338935Y81095206D01*
X147357636Y81094568D01*
X147376084Y81093916D01*
X147394290Y81093250D01*
X147412262Y81092571D01*
X147430010Y81091877D01*
X147447542Y81091168D01*
X147464867Y81090446D01*
X147481996Y81089708D01*
X147498936Y81088956D01*
X147515698Y81088189D01*
X147532290Y81087407D01*
X147548721Y81086610D01*
X147565001Y81085797D01*
X147581138Y81084969D01*
X147597143Y81084126D01*
X147613023Y81083266D01*
X147628788Y81082391D01*
X147644448Y81081499D01*
X147660011Y81080592D01*
X147675486Y81079668D01*
X147690883Y81078727D01*
X147706211Y81077770D01*
X147721479Y81076796D01*
X147751870Y81074798D01*
X147782131Y81072730D01*
X147812335Y81070592D01*
X147842554Y81068383D01*
X147872862Y81066102D01*
X147903331Y81063747D01*
D12*
X90861907Y-57613873D02*
G75*
G02*
X90160814Y-57906700I-707107J707273D01*
G01*
X68014107Y81114851D02*
X101080984Y81114780D01*
D10*
X-72205327Y-45087971D02*
X-72215225Y-45051526D01*
X-72225035Y-45015102D01*
X-72234756Y-44978699D01*
X-72244389Y-44942316D01*
X-72253935Y-44905952D01*
X-72263394Y-44869605D01*
X-72272766Y-44833276D01*
X-72282051Y-44796962D01*
X-72291251Y-44760663D01*
X-72300364Y-44724378D01*
X-72309393Y-44688105D01*
X-72318336Y-44651844D01*
X-72327194Y-44615593D01*
X-72335968Y-44579351D01*
X-72344658Y-44543118D01*
X-72353265Y-44506891D01*
X-72361788Y-44470670D01*
X-72370228Y-44434453D01*
X-72378586Y-44398239D01*
X-72386861Y-44362027D01*
X-72395054Y-44325816D01*
X-72403166Y-44289603D01*
X-72411197Y-44253387D01*
X-72419147Y-44217168D01*
X-72427017Y-44180943D01*
X-72434806Y-44144712D01*
X-72442516Y-44108472D01*
X-72450146Y-44072221D01*
X-72457698Y-44035959D01*
X-72465171Y-43999683D01*
X-72472565Y-43963392D01*
X-72479882Y-43927083D01*
X-72487121Y-43890756D01*
X-72494283Y-43854408D01*
X-72501369Y-43818036D01*
X-72508378Y-43781640D01*
X-72515311Y-43745217D01*
X-72522168Y-43708764D01*
X-72528951Y-43672280D01*
X-72535658Y-43635763D01*
X-72542291Y-43599209D01*
X-72548851Y-43562616D01*
X-72555336Y-43525982D01*
X-72561749Y-43489304D01*
X-72568088Y-43452579D01*
X-72574356Y-43415805D01*
X-72580551Y-43378979D01*
X-72586676Y-43342097D01*
X-72592729Y-43305156D01*
X-72598711Y-43268152D01*
X-72604624Y-43231084D01*
X-72610467Y-43193946D01*
X-72616241Y-43156735D01*
X-72621946Y-43119447D01*
X-72627583Y-43082079D01*
X-72631265Y-43057375D01*
D12*
X106264815Y-15812151D02*
G75*
G02*
X102464815Y-15812151I-1900000J0D01*
G01*
X102464815Y-15812151D02*
G75*
G02*
X106264815Y-15812151I1900000J0D01*
G01*
D10*
X-67385649Y-53151010D02*
X-67358529Y-53176706D01*
X-67331354Y-53202344D01*
X-67304124Y-53227924D01*
X-67276839Y-53253445D01*
X-67249499Y-53278908D01*
X-67222105Y-53304313D01*
X-67194657Y-53329659D01*
X-67167154Y-53354946D01*
X-67139597Y-53380174D01*
X-67111987Y-53405343D01*
X-67084322Y-53430453D01*
X-67056603Y-53455504D01*
X-67028831Y-53480496D01*
X-67001006Y-53505428D01*
X-66973127Y-53530300D01*
X-66945194Y-53555113D01*
X-66917209Y-53579866D01*
X-66889171Y-53604559D01*
X-66861079Y-53629192D01*
X-66832935Y-53653764D01*
X-66804739Y-53678277D01*
X-66776490Y-53702729D01*
X-66748188Y-53727121D01*
X-66719835Y-53751452D01*
X-66691429Y-53775722D01*
X-66662971Y-53799932D01*
X-66634462Y-53824080D01*
X-66605901Y-53848168D01*
X-66577288Y-53872194D01*
X-66548624Y-53896159D01*
X-66519908Y-53920063D01*
X-66491142Y-53943905D01*
X-66462324Y-53967686D01*
X-66433455Y-53991405D01*
X-66404536Y-54015062D01*
X-66375566Y-54038657D01*
X-66346546Y-54062190D01*
X-66317475Y-54085661D01*
X-66288354Y-54109070D01*
X-66259182Y-54132416D01*
X-66229961Y-54155700D01*
X-66200690Y-54178921D01*
X-66171370Y-54202079D01*
X-66142000Y-54225175D01*
X-66112580Y-54248208D01*
X-66083111Y-54271178D01*
X-66053593Y-54294084D01*
X-66024026Y-54316928D01*
X-65994410Y-54339708D01*
X-65979584Y-54351074D01*
X-65964745Y-54362425D01*
X-65949895Y-54373759D01*
X-65935032Y-54385078D01*
X-65920157Y-54396380D01*
X-65905270Y-54407667D01*
X-65890371Y-54418938D01*
X-65875460Y-54430193D01*
X-65860537Y-54441432D01*
X-65845602Y-54452655D01*
X-65830655Y-54463862D01*
X-65815696Y-54475052D01*
X-65800725Y-54486227D01*
X-65785742Y-54497386D01*
X-65770747Y-54508529D01*
X-65755740Y-54519656D01*
X-65740721Y-54530767D01*
X-65725690Y-54541861D01*
X-65710648Y-54552940D01*
X-65695593Y-54564002D01*
X-65680527Y-54575048D01*
X-65665449Y-54586079D01*
X-65650359Y-54597093D01*
X-65635257Y-54608091D01*
X-65620144Y-54619072D01*
X-65605018Y-54630038D01*
X-65589881Y-54640987D01*
X-65574733Y-54651920D01*
X-65559572Y-54662837D01*
X-65544400Y-54673738D01*
X-65529217Y-54684622D01*
X-65514021Y-54695490D01*
X-65498814Y-54706342D01*
X-65483596Y-54717178D01*
X-65468366Y-54727997D01*
X-65453124Y-54738800D01*
X-65437870Y-54749587D01*
X-65422606Y-54760357D01*
X-65407329Y-54771111D01*
X-65392041Y-54781849D01*
X-65376742Y-54792570D01*
X-65361431Y-54803275D01*
X-65346109Y-54813963D01*
X-65330775Y-54824635D01*
X-65315430Y-54835291D01*
X-65300073Y-54845930D01*
X-65284705Y-54856553D01*
X-65269326Y-54867159D01*
X-65253936Y-54877749D01*
X-65238533Y-54888322D01*
X-65223120Y-54898879D01*
X-65207696Y-54909419D01*
X-65192260Y-54919943D01*
X-65176813Y-54930450D01*
X-65161354Y-54940941D01*
X-65145885Y-54951415D01*
X-65130404Y-54961873D01*
X-65114912Y-54972314D01*
X-65099409Y-54982738D01*
X-65083895Y-54993146D01*
X-65068369Y-55003537D01*
X-65052833Y-55013912D01*
X-65037285Y-55024270D01*
X-65021726Y-55034611D01*
X-65006157Y-55044936D01*
X-64990576Y-55055244D01*
X-64974984Y-55065535D01*
X-64959381Y-55075809D01*
X-64943768Y-55086067D01*
X-64928143Y-55096308D01*
X-64912507Y-55106533D01*
X-64896860Y-55116740D01*
X-64881203Y-55126931D01*
X-64865534Y-55137105D01*
X-64849855Y-55147263D01*
X-64834165Y-55157403D01*
X-64818464Y-55167527D01*
X-64802752Y-55177634D01*
X-64787029Y-55187724D01*
X-64771296Y-55197797D01*
X-64755551Y-55207854D01*
X-64739796Y-55217893D01*
X-64724031Y-55227916D01*
X-64708254Y-55237922D01*
X-64692467Y-55247910D01*
X-64676669Y-55257882D01*
X-64660861Y-55267837D01*
X-64645041Y-55277776D01*
X-64629212Y-55287697D01*
X-64613371Y-55297601D01*
X-64597520Y-55307488D01*
X-64581658Y-55317358D01*
X-64565787Y-55327212D01*
X-64549904Y-55337048D01*
X-64534011Y-55346867D01*
X-64518107Y-55356669D01*
X-64502193Y-55366454D01*
X-64486268Y-55376223D01*
X-64470333Y-55385974D01*
X-64454387Y-55395708D01*
X-64438432Y-55405425D01*
X-64422465Y-55415125D01*
X-64406489Y-55424807D01*
X-64390501Y-55434473D01*
X-64374504Y-55444122D01*
X-64358496Y-55453753D01*
X-64342479Y-55463367D01*
X-64326450Y-55472964D01*
X-64310412Y-55482544D01*
X-64294363Y-55492107D01*
X-64278304Y-55501653D01*
X-64262234Y-55511181D01*
X-64246155Y-55520692D01*
X-64230065Y-55530186D01*
X-64213966Y-55539663D01*
X-64197856Y-55549122D01*
X-64181736Y-55558564D01*
X-64165606Y-55567990D01*
X-64149466Y-55577397D01*
X-64133315Y-55586788D01*
X-64117155Y-55596161D01*
X-64100984Y-55605517D01*
X-64084804Y-55614855D01*
X-64068614Y-55624176D01*
X-64052414Y-55633480D01*
X-64036203Y-55642766D01*
X-64019983Y-55652035D01*
X-64003753Y-55661287D01*
X-63987513Y-55670521D01*
X-63971263Y-55679739D01*
X-63955003Y-55688938D01*
X-63938734Y-55698120D01*
X-63922454Y-55707285D01*
X-63906165Y-55716432D01*
X-63889866Y-55725562D01*
X-63873557Y-55734675D01*
X-63857239Y-55743769D01*
X-63840910Y-55752847D01*
X-63824572Y-55761907D01*
X-63808224Y-55770950D01*
X-63791867Y-55779974D01*
X-63775500Y-55788982D01*
X-63759124Y-55797972D01*
X-63742737Y-55806944D01*
X-63726341Y-55815899D01*
X-63709936Y-55824837D01*
X-63693521Y-55833756D01*
X-63677096Y-55842659D01*
X-63660662Y-55851543D01*
X-63644218Y-55860410D01*
X-63627765Y-55869259D01*
X-63611302Y-55878091D01*
X-63594830Y-55886905D01*
X-63578348Y-55895702D01*
X-63561858Y-55904481D01*
X-63545357Y-55913242D01*
X-63528848Y-55921986D01*
X-63512328Y-55930712D01*
X-63495800Y-55939420D01*
X-63479262Y-55948110D01*
X-63462715Y-55956783D01*
X-63446158Y-55965438D01*
X-63429593Y-55974076D01*
X-63413018Y-55982695D01*
X-63396434Y-55991297D01*
X-63379840Y-55999882D01*
X-63363238Y-56008448D01*
X-63346625Y-56016997D01*
X-63330005Y-56025527D01*
X-63313374Y-56034041D01*
X-63296736Y-56042536D01*
X-63280087Y-56051013D01*
X-63263430Y-56059473D01*
X-63246763Y-56067915D01*
X-63230088Y-56076339D01*
X-63213403Y-56084745D01*
X-63196709Y-56093133D01*
X-63180006Y-56101504D01*
X-63163295Y-56109856D01*
X-63146574Y-56118191D01*
X-63140788Y-56121070D01*
D12*
X68014107Y81114851D02*
X17563325Y81114780D01*
X96598327Y-51463245D02*
X99018584Y-21104942D01*
X-56550845Y-57906741D02*
X90160814Y-57906741D01*
D10*
X157316836Y-54265675D02*
X157287651Y-54288347D01*
X157258411Y-54310960D01*
X157229116Y-54333514D01*
X157199767Y-54356010D01*
X157170362Y-54378447D01*
X157140903Y-54400825D01*
X157111390Y-54423144D01*
X157081822Y-54445403D01*
X157052201Y-54467603D01*
X157022525Y-54489744D01*
X156992796Y-54511825D01*
X156963013Y-54533846D01*
X156933177Y-54555807D01*
X156903287Y-54577708D01*
X156873344Y-54599549D01*
X156843348Y-54621329D01*
X156813299Y-54643049D01*
X156783198Y-54664709D01*
X156753044Y-54686307D01*
X156722838Y-54707845D01*
X156692579Y-54729322D01*
X156662269Y-54750737D01*
X156631906Y-54772092D01*
X156601492Y-54793384D01*
X156571026Y-54814616D01*
X156540509Y-54835786D01*
X156509941Y-54856893D01*
X156479322Y-54877939D01*
X156448651Y-54898923D01*
X156417930Y-54919845D01*
X156387158Y-54940704D01*
X156356336Y-54961501D01*
X156325464Y-54982235D01*
X156294542Y-55002907D01*
X156263569Y-55023516D01*
X156232547Y-55044061D01*
X156201476Y-55064544D01*
X156170355Y-55084963D01*
X156139185Y-55105319D01*
X156107965Y-55125612D01*
X156076697Y-55145841D01*
X156045381Y-55166006D01*
X156014015Y-55186107D01*
X155982602Y-55206144D01*
X155951140Y-55226117D01*
X155919630Y-55246025D01*
X155888073Y-55265870D01*
X155856467Y-55285649D01*
X155824815Y-55305364D01*
X155793115Y-55325015D01*
X155761368Y-55344600D01*
X155729574Y-55364120D01*
X155697733Y-55383575D01*
X155665846Y-55402965D01*
X155633913Y-55422289D01*
X155601933Y-55441548D01*
X155569907Y-55460741D01*
X155537836Y-55479869D01*
X155505719Y-55498930D01*
X155473556Y-55517925D01*
X155441349Y-55536854D01*
X155409096Y-55555717D01*
X155376798Y-55574513D01*
X155344456Y-55593243D01*
X155312069Y-55611906D01*
X155279638Y-55630503D01*
X155247163Y-55649032D01*
X155214644Y-55667494D01*
X155182082Y-55685889D01*
X155149475Y-55704217D01*
X155116826Y-55722478D01*
X155084133Y-55740671D01*
X155051398Y-55758796D01*
X155018620Y-55776853D01*
X154985799Y-55794843D01*
X154952936Y-55812764D01*
X154920030Y-55830618D01*
X154887083Y-55848403D01*
X154854094Y-55866120D01*
X154821064Y-55883768D01*
X154787992Y-55901347D01*
X154754879Y-55918858D01*
X154721726Y-55936300D01*
X154688531Y-55953673D01*
X154655296Y-55970977D01*
X154622021Y-55988212D01*
X154588705Y-56005378D01*
X154555350Y-56022474D01*
X154521955Y-56039500D01*
X154488520Y-56056457D01*
X154455047Y-56073344D01*
X154421534Y-56090161D01*
X154387982Y-56106909D01*
X154354391Y-56123586D01*
X154320763Y-56140193D01*
X154287095Y-56156729D01*
X154253390Y-56173195D01*
X154219647Y-56189591D01*
X154185867Y-56205916D01*
X154152049Y-56222170D01*
X154118194Y-56238353D01*
X154084302Y-56254465D01*
X154050373Y-56270506D01*
X154016407Y-56286476D01*
X153982405Y-56302375D01*
X153948368Y-56318202D01*
X153914294Y-56333958D01*
X153880184Y-56349642D01*
X153846040Y-56365254D01*
X153811859Y-56380795D01*
X153777644Y-56396263D01*
X153743394Y-56411660D01*
X153709110Y-56426984D01*
X153674791Y-56442236D01*
X153640437Y-56457416D01*
X153606050Y-56472523D01*
X153571630Y-56487557D01*
X153537175Y-56502519D01*
X153502688Y-56517409D01*
X153468167Y-56532225D01*
X153433613Y-56546968D01*
X153399027Y-56561639D01*
X153364409Y-56576236D01*
X153329758Y-56590760D01*
X153295076Y-56605210D01*
X153260361Y-56619588D01*
X153225615Y-56633891D01*
X153190838Y-56648121D01*
X153156030Y-56662277D01*
X153121191Y-56676360D01*
X153086322Y-56690368D01*
X153051422Y-56704303D01*
X153016492Y-56718163D01*
X152981532Y-56731949D01*
X152946542Y-56745661D01*
X152911523Y-56759299D01*
X152876474Y-56772862D01*
X152841397Y-56786350D01*
X152806291Y-56799764D01*
X152771156Y-56813103D01*
X152735993Y-56826368D01*
X152700802Y-56839557D01*
X152665582Y-56852672D01*
X152630336Y-56865711D01*
X152595062Y-56878675D01*
X152559760Y-56891564D01*
X152542099Y-56897980D01*
X152524432Y-56904378D01*
X152506758Y-56910756D01*
X152489077Y-56917116D01*
X152471390Y-56923457D01*
X152453695Y-56929779D01*
X152435995Y-56936082D01*
X152418288Y-56942366D01*
X152400574Y-56948631D01*
X152382854Y-56954878D01*
X152365127Y-56961105D01*
X152347394Y-56967313D01*
X152329655Y-56973503D01*
X152311909Y-56979673D01*
X152294157Y-56985825D01*
X152276399Y-56991958D01*
X152258634Y-56998071D01*
X152240863Y-57004166D01*
X152223086Y-57010241D01*
X152205303Y-57016298D01*
X152187513Y-57022335D01*
X152169718Y-57028354D01*
X152151916Y-57034353D01*
X152134108Y-57040334D01*
X152116294Y-57046295D01*
X152098474Y-57052237D01*
X152080649Y-57058160D01*
X152062817Y-57064064D01*
X152044979Y-57069949D01*
X152027135Y-57075815D01*
X152009286Y-57081662D01*
X151991431Y-57087489D01*
X151973570Y-57093298D01*
X151955702Y-57099087D01*
X151937830Y-57104857D01*
X151919951Y-57110608D01*
X151902067Y-57116340D01*
X151884178Y-57122052D01*
X151866282Y-57127746D01*
X151848381Y-57133420D01*
X151830475Y-57139075D01*
X151812562Y-57144711D01*
X151794645Y-57150327D01*
X151776722Y-57155924D01*
X151758793Y-57161502D01*
X151740859Y-57167061D01*
X151722920Y-57172601D01*
X151704975Y-57178121D01*
X151687025Y-57183622D01*
X151669069Y-57189103D01*
X151651109Y-57194566D01*
X151633142Y-57200009D01*
X151615171Y-57205432D01*
X151597195Y-57210837D01*
X151579213Y-57216222D01*
X151561226Y-57221588D01*
X151543235Y-57226934D01*
X151525238Y-57232261D01*
X151507236Y-57237569D01*
X151489229Y-57242857D01*
X151471217Y-57248126D01*
X151453200Y-57253376D01*
X151435178Y-57258606D01*
X151417151Y-57263816D01*
X151399120Y-57269008D01*
X151381083Y-57274180D01*
X151363042Y-57279332D01*
X151344995Y-57284465D01*
X151326945Y-57289579D01*
X151308889Y-57294673D01*
X151290829Y-57299748D01*
X151272764Y-57304803D01*
X151254694Y-57309839D01*
X151236620Y-57314855D01*
X151218541Y-57319852D01*
X151200458Y-57324829D01*
X151182370Y-57329787D01*
X151164278Y-57334725D01*
X151146181Y-57339644D01*
X151128079Y-57344543D01*
X151109974Y-57349423D01*
X151091864Y-57354283D01*
X151073750Y-57359124D01*
X151055631Y-57363945D01*
X151037508Y-57368746D01*
X151019380Y-57373528D01*
X151001249Y-57378291D01*
X150983113Y-57383034D01*
X150964974Y-57387757D01*
X150946829Y-57392461D01*
X150928682Y-57397145D01*
X150910529Y-57401809D01*
X150892373Y-57406454D01*
X150874212Y-57411079D01*
X150856049Y-57415685D01*
X150837880Y-57420271D01*
X150819708Y-57424837D01*
X150801532Y-57429384D01*
X150783352Y-57433911D01*
X150765168Y-57438418D01*
X150746981Y-57442906D01*
X150728789Y-57447374D01*
X150710594Y-57451823D01*
X150692395Y-57456251D01*
X150674193Y-57460660D01*
X150655986Y-57465050D01*
X150637776Y-57469419D01*
X150619562Y-57473770D01*
X150601346Y-57478100D01*
X150583125Y-57482410D01*
X150564901Y-57486701D01*
X150546673Y-57490972D01*
X150528442Y-57495224D01*
X150510207Y-57499455D01*
X150491969Y-57503667D01*
X150473727Y-57507859D01*
X150455483Y-57512032D01*
X150437235Y-57516184D01*
X150418984Y-57520317D01*
X150400729Y-57524430D01*
X150382471Y-57528524D01*
X150364210Y-57532597D01*
X150345946Y-57536651D01*
X150327678Y-57540685D01*
X150309408Y-57544699D01*
X150291134Y-57548694D01*
X150272858Y-57552668D01*
X150254577Y-57556623D01*
X150236295Y-57560558D01*
X150218009Y-57564473D01*
X150199721Y-57568368D01*
X150181429Y-57572244D01*
X150163135Y-57576099D01*
X150144837Y-57579935D01*
X150126537Y-57583751D01*
X150108234Y-57587547D01*
X150089929Y-57591323D01*
X150071620Y-57595080D01*
X150053309Y-57598816D01*
X150034995Y-57602533D01*
X150016679Y-57606230D01*
X149998359Y-57609907D01*
X149980038Y-57613564D01*
X149961713Y-57617201D01*
X149943387Y-57620818D01*
X149925057Y-57624416D01*
X149906726Y-57627993D01*
X149888391Y-57631551D01*
X149870055Y-57635088D01*
X149851715Y-57638606D01*
X149833374Y-57642104D01*
X149815030Y-57645582D01*
X149796684Y-57649040D01*
X149778335Y-57652478D01*
X149759985Y-57655896D01*
X149741632Y-57659295D01*
X149723277Y-57662673D01*
X149704919Y-57666031D01*
X149686561Y-57669370D01*
X149668198Y-57672688D01*
X149649836Y-57675987D01*
X149631469Y-57679265D01*
X149613102Y-57682524D01*
X149594732Y-57685762D01*
X149576361Y-57688981D01*
X149557987Y-57692180D01*
X149539612Y-57695359D01*
X149521234Y-57698517D01*
X149502855Y-57701656D01*
X149484474Y-57704775D01*
X149466092Y-57707874D01*
X149447706Y-57710953D01*
X149429321Y-57714011D01*
X149410932Y-57717050D01*
X149392543Y-57720069D01*
X149374151Y-57723068D01*
X149355759Y-57726047D01*
X149337363Y-57729006D01*
X149318968Y-57731945D01*
X149300569Y-57734864D01*
X149282171Y-57737762D01*
X149263770Y-57740641D01*
X149245368Y-57743500D01*
X149226964Y-57746339D01*
X149208560Y-57749157D01*
X149190152Y-57751956D01*
X149171746Y-57754735D01*
X149153336Y-57757494D01*
X149134926Y-57760232D01*
X149116514Y-57762951D01*
X149098102Y-57765649D01*
X149079687Y-57768328D01*
X149061273Y-57770986D01*
X149042856Y-57773625D01*
X149024439Y-57776243D01*
X149006020Y-57778842D01*
X148987601Y-57781420D01*
X148969179Y-57783978D01*
X148950759Y-57786516D01*
X148932335Y-57789034D01*
X148913912Y-57791532D01*
X148895487Y-57794011D01*
X148877062Y-57796468D01*
X148858635Y-57798906D01*
X148840209Y-57801324D01*
X148821780Y-57803722D01*
X148803352Y-57806099D01*
X148784922Y-57808457D01*
X148766493Y-57810795D01*
X148748061Y-57813112D01*
X148729630Y-57815409D01*
X148711197Y-57817687D01*
X148692765Y-57819944D01*
X148674331Y-57822181D01*
X148655898Y-57824398D01*
X148637462Y-57826595D01*
X148619028Y-57828772D01*
X148600591Y-57830929D01*
X148582156Y-57833066D01*
X148563719Y-57835182D01*
X148545283Y-57837279D01*
X148526845Y-57839355D01*
X148508408Y-57841412D01*
X148489969Y-57843448D01*
X148471532Y-57845464D01*
X148453093Y-57847460D01*
X148434655Y-57849436D01*
X148416215Y-57851392D01*
X148397777Y-57853328D01*
X148379337Y-57855244D01*
X148360898Y-57857139D01*
X148342458Y-57859015D01*
X148324019Y-57860870D01*
X148305579Y-57862706D01*
X148287140Y-57864521D01*
X148268699Y-57866316D01*
X148250261Y-57868091D01*
X148231820Y-57869846D01*
X148213382Y-57871581D01*
X148194941Y-57873295D01*
X148176503Y-57874990D01*
X148158063Y-57876665D01*
X148139625Y-57878319D01*
X148121185Y-57879953D01*
X148102748Y-57881567D01*
X148084309Y-57883162D01*
X148065872Y-57884735D01*
X148047433Y-57886289D01*
X148028997Y-57887823D01*
X148010559Y-57889337D01*
X147992124Y-57890830D01*
X147973687Y-57892304D01*
X147955253Y-57893757D01*
X147936816Y-57895191D01*
X147918383Y-57896604D01*
X147899948Y-57897997D01*
X147881515Y-57899370D01*
X147863081Y-57900723D01*
X147844650Y-57902055D01*
X147826217Y-57903368D01*
X147793001Y-57905683D01*
X163797194Y-43437712D02*
X163791227Y-43472369D01*
X163785134Y-43507291D01*
X163778915Y-43542467D01*
X163772572Y-43577884D01*
X163766106Y-43613533D01*
X163759519Y-43649399D01*
X163752812Y-43685471D01*
X163745989Y-43721737D01*
X163739049Y-43758183D01*
X163731997Y-43794798D01*
X163724832Y-43831568D01*
X163721208Y-43850009D01*
X163717558Y-43868481D01*
X163713881Y-43886987D01*
X163710177Y-43905523D01*
X163706447Y-43924089D01*
X163702691Y-43942682D01*
X163698910Y-43961300D01*
X163695103Y-43979945D01*
X163691271Y-43998609D01*
X163687414Y-44017298D01*
X163683533Y-44036002D01*
X163679627Y-44054728D01*
X163675699Y-44073466D01*
X163671745Y-44092224D01*
X163667770Y-44110988D01*
X163663771Y-44129771D01*
X163659750Y-44148555D01*
X163655706Y-44167357D01*
X163651641Y-44186155D01*
X163647553Y-44204969D01*
X163643446Y-44223774D01*
X163639316Y-44242594D01*
X163635168Y-44261401D01*
X163630996Y-44280221D01*
X163626808Y-44299023D01*
X163622597Y-44317836D01*
X163618370Y-44336627D01*
X163614121Y-44355428D01*
X163609857Y-44374202D01*
X163605571Y-44392984D01*
X163601271Y-44411735D01*
X163596950Y-44430492D01*
X163592615Y-44449214D01*
X163588259Y-44467942D01*
X163583892Y-44486629D01*
X163579504Y-44505320D01*
X163575104Y-44523968D01*
X163570684Y-44542617D01*
X163566255Y-44561219D01*
X163561805Y-44579821D01*
X163557347Y-44598372D01*
X163552868Y-44616921D01*
X163548382Y-44635416D01*
X163543876Y-44653907D01*
X163539364Y-44672340D01*
X163534832Y-44690769D01*
X163530294Y-44709136D01*
X163525738Y-44727496D01*
X163521177Y-44745791D01*
X163516597Y-44764079D01*
X163512014Y-44782298D01*
X163507413Y-44800508D01*
X163502809Y-44818646D01*
X163498187Y-44836775D01*
X163493563Y-44854827D01*
X163488921Y-44872869D01*
X163484279Y-44890832D01*
X163479620Y-44908783D01*
X163474961Y-44926652D01*
X163470285Y-44944507D01*
X163465610Y-44962279D01*
X163460918Y-44980035D01*
X163456228Y-44997705D01*
X163451522Y-45015358D01*
X163446819Y-45032922D01*
X163442100Y-45050469D01*
X163437385Y-45067924D01*
X163432654Y-45085360D01*
X163427928Y-45102702D01*
X163423187Y-45120024D01*
X163418451Y-45137251D01*
X163413700Y-45154456D01*
X163405059Y-45185554D01*
D12*
X-55484670Y81114780D02*
X-58729215Y81114780D01*
D10*
X164046824Y-40496730D02*
X164046814Y-40520185D01*
X164046784Y-40543524D01*
X164046734Y-40566600D01*
X164046665Y-40589564D01*
X164046576Y-40612277D01*
X164046467Y-40634881D01*
X164046340Y-40657245D01*
X164046193Y-40679504D01*
X164046028Y-40701533D01*
X164045844Y-40723460D01*
X164045641Y-40745166D01*
X164045419Y-40766775D01*
X164045179Y-40788173D01*
X164044921Y-40809475D01*
X164044644Y-40830576D01*
X164044349Y-40851585D01*
X164044037Y-40872401D01*
X164043706Y-40893128D01*
X164043357Y-40913671D01*
X164042991Y-40934127D01*
X164042607Y-40954408D01*
X164042205Y-40974605D01*
X164041786Y-40994634D01*
X164041349Y-41014582D01*
X164040895Y-41034370D01*
X164040423Y-41054080D01*
X164039935Y-41073637D01*
X164039429Y-41093118D01*
X164038906Y-41112454D01*
X164038366Y-41131717D01*
X164037809Y-41150841D01*
X164037234Y-41169895D01*
X164036643Y-41188816D01*
X164036034Y-41207670D01*
X164035410Y-41226398D01*
X164034767Y-41245061D01*
X164034109Y-41263605D01*
X164033433Y-41282086D01*
X164032740Y-41300453D01*
X164032031Y-41318760D01*
X164031305Y-41336961D01*
X164030562Y-41355102D01*
X164029802Y-41373143D01*
X164029025Y-41391128D01*
X164028232Y-41409017D01*
X164027422Y-41426852D01*
X164026595Y-41444599D01*
X164025751Y-41462293D01*
X164024891Y-41479904D01*
X164024014Y-41497464D01*
X164023120Y-41514947D01*
X164022208Y-41532382D01*
X164021281Y-41549744D01*
X164020336Y-41567060D01*
X164019374Y-41584310D01*
X164018395Y-41601515D01*
X164017399Y-41618659D01*
X164016386Y-41635760D01*
X164015356Y-41652806D01*
X164014309Y-41669811D01*
X164013244Y-41686765D01*
X164012163Y-41703681D01*
X164011063Y-41720551D01*
X164009947Y-41737385D01*
X164008813Y-41754178D01*
X164007661Y-41770937D01*
X164006491Y-41787661D01*
X164005304Y-41804351D01*
X164004099Y-41821012D01*
X164002876Y-41837642D01*
X164001635Y-41854247D01*
X164000377Y-41870822D01*
X163999099Y-41887379D01*
X163997804Y-41903908D01*
X163995157Y-41936912D01*
X163992436Y-41969848D01*
X163989639Y-42002732D01*
X163986765Y-42035578D01*
X163983814Y-42068399D01*
X163980782Y-42101211D01*
X163977670Y-42134030D01*
X163974476Y-42166869D01*
X163971198Y-42199744D01*
X163967835Y-42232672D01*
X163964385Y-42265669D01*
X163960845Y-42298750D01*
X163957214Y-42331933D01*
X163953490Y-42365236D01*
X163949669Y-42398677D01*
X163945751Y-42432274D01*
X163941732Y-42466047D01*
X163937609Y-42500015D01*
X163933380Y-42534200D01*
X163929041Y-42568624D01*
X163924588Y-42603309D01*
X163920018Y-42638279D01*
X163915327Y-42673560D01*
X163910510Y-42709179D01*
X163905564Y-42745162D01*
X163900483Y-42781541D01*
X163895262Y-42818347D01*
X163889895Y-42855614D01*
X163884375Y-42893377D01*
X163878697Y-42931675D01*
X163872853Y-42970551D01*
X163866834Y-43010050D01*
X163860633Y-43050219D01*
X163854239Y-43091113D01*
X163847642Y-43132789D01*
X163840830Y-43175311D01*
X163833791Y-43218751D01*
X163826510Y-43263184D01*
X163818971Y-43308700D01*
X163811157Y-43355395D01*
X163803045Y-43403379D01*
X163797194Y-43437712D01*
X163405059Y-45185554D02*
X163395139Y-45220965D01*
X163385139Y-45256364D01*
X163375060Y-45291752D01*
X163364901Y-45327128D01*
X163354661Y-45362492D01*
X163344343Y-45397844D01*
X163333944Y-45433183D01*
X163323466Y-45468510D01*
X163312908Y-45503824D01*
X163302271Y-45539124D01*
X163291554Y-45574412D01*
X163280757Y-45609686D01*
X163269882Y-45644946D01*
X163258926Y-45680192D01*
X163247892Y-45715424D01*
X163236778Y-45750642D01*
X163225585Y-45785845D01*
X163214312Y-45821033D01*
X163202960Y-45856207D01*
X163191530Y-45891365D01*
X163180020Y-45926507D01*
X163168431Y-45961635D01*
X163156763Y-45996746D01*
X163145016Y-46031841D01*
X163133190Y-46066920D01*
X163121286Y-46101982D01*
X163109302Y-46137028D01*
X163097240Y-46172057D01*
X163085099Y-46207068D01*
X163072880Y-46242062D01*
X163060581Y-46277039D01*
X163048205Y-46311997D01*
X163035750Y-46346938D01*
X163023216Y-46381861D01*
X163010605Y-46416764D01*
X162997914Y-46451650D01*
X162985146Y-46486516D01*
X162972300Y-46521363D01*
X162959375Y-46556191D01*
X162946372Y-46590999D01*
X162933292Y-46625788D01*
X162920133Y-46660556D01*
X162906896Y-46695304D01*
X162893582Y-46730032D01*
X162880190Y-46764738D01*
X162866721Y-46799424D01*
X162853173Y-46834089D01*
X162839549Y-46868733D01*
X162825846Y-46903354D01*
X162812067Y-46937954D01*
X162798210Y-46972532D01*
X162784276Y-47007088D01*
X162770264Y-47041621D01*
X162756176Y-47076131D01*
X162742010Y-47110619D01*
X162727768Y-47145083D01*
X162713449Y-47179524D01*
X162699053Y-47213941D01*
X162684580Y-47248334D01*
X162670030Y-47282703D01*
X162655404Y-47317048D01*
X162640702Y-47351369D01*
X162625923Y-47385664D01*
X162611068Y-47419935D01*
X162596136Y-47454180D01*
X162581128Y-47488400D01*
X162566045Y-47522594D01*
X162550885Y-47556762D01*
X162535649Y-47590904D01*
X162520338Y-47625019D01*
X162504951Y-47659108D01*
X162489488Y-47693170D01*
X162473950Y-47727205D01*
X162458336Y-47761213D01*
X162442646Y-47795193D01*
X162426882Y-47829146D01*
X162411042Y-47863070D01*
X162395127Y-47896966D01*
X162379138Y-47930834D01*
X162363073Y-47964673D01*
X162346933Y-47998483D01*
X162330719Y-48032264D01*
X162314430Y-48066016D01*
X162298067Y-48099738D01*
X162281629Y-48133430D01*
X162265117Y-48167092D01*
X162248530Y-48200723D01*
X162231870Y-48234325D01*
X162215135Y-48267895D01*
X162198327Y-48301434D01*
X162181444Y-48334943D01*
X162164488Y-48368419D01*
X162147459Y-48401864D01*
X162130355Y-48435277D01*
X162113179Y-48468658D01*
X162095929Y-48502007D01*
X162078606Y-48535323D01*
X162061210Y-48568606D01*
X162043740Y-48601856D01*
X162026198Y-48635073D01*
X162008584Y-48668256D01*
X161990896Y-48701405D01*
X161973136Y-48734520D01*
X161955304Y-48767602D01*
X161937399Y-48800648D01*
X161919422Y-48833660D01*
X161901374Y-48866637D01*
X161883253Y-48899579D01*
X161865060Y-48932486D01*
X161846795Y-48965357D01*
X161828459Y-48998192D01*
X161810052Y-49030991D01*
X161791573Y-49063754D01*
X161773023Y-49096480D01*
X161754402Y-49129169D01*
X161735709Y-49161822D01*
X161716946Y-49194437D01*
X161698112Y-49227015D01*
X161679208Y-49259555D01*
X161660233Y-49292057D01*
X161641187Y-49324521D01*
X161622072Y-49356947D01*
X161602886Y-49389334D01*
X161583630Y-49421683D01*
X161564305Y-49453992D01*
X161544909Y-49486262D01*
X161525444Y-49518493D01*
X161505910Y-49550684D01*
X161486306Y-49582835D01*
X161466633Y-49614946D01*
X161446891Y-49647016D01*
X161427080Y-49679046D01*
X161407200Y-49711035D01*
X161387252Y-49742983D01*
X161367235Y-49774890D01*
X161347149Y-49806755D01*
X161326996Y-49838578D01*
X161306774Y-49870360D01*
X161286484Y-49902099D01*
X161266126Y-49933796D01*
X161245701Y-49965450D01*
X161225208Y-49997062D01*
X161204648Y-50028630D01*
X161184020Y-50060156D01*
X161163325Y-50091637D01*
X161142563Y-50123075D01*
X161132157Y-50138778D01*
X161121735Y-50154469D01*
X161111295Y-50170150D01*
X161100839Y-50185819D01*
X161090367Y-50201477D01*
X161079877Y-50217125D01*
X161069371Y-50232761D01*
X161058849Y-50248386D01*
X161048310Y-50263999D01*
X161037754Y-50279602D01*
X161027182Y-50295193D01*
X161016593Y-50310773D01*
X161005988Y-50326341D01*
X160995367Y-50341899D01*
X160984729Y-50357444D01*
X160974074Y-50372979D01*
X160963403Y-50388502D01*
X160952716Y-50404014D01*
X160942012Y-50419514D01*
X160931292Y-50435003D01*
X160920556Y-50450480D01*
X160909803Y-50465945D01*
X160899034Y-50481399D01*
X160888248Y-50496842D01*
X160877447Y-50512272D01*
X160866629Y-50527692D01*
X160855795Y-50543099D01*
X160844944Y-50558495D01*
X160834078Y-50573879D01*
X160823195Y-50589251D01*
X160812296Y-50604611D01*
X160801381Y-50619960D01*
X160790450Y-50635297D01*
X160779503Y-50650622D01*
X160768540Y-50665935D01*
X160757560Y-50681236D01*
X160746565Y-50696525D01*
X160735553Y-50711802D01*
X160724526Y-50727067D01*
X160713483Y-50742320D01*
X160702423Y-50757561D01*
X160691348Y-50772790D01*
X160680257Y-50788007D01*
X160669149Y-50803212D01*
X160658027Y-50818404D01*
X160646888Y-50833585D01*
X160635733Y-50848753D01*
X160624562Y-50863909D01*
X160613376Y-50879052D01*
X160602174Y-50894184D01*
X160590956Y-50909303D01*
X160579722Y-50924410D01*
X160568473Y-50939504D01*
X160557207Y-50954586D01*
X160545927Y-50969655D01*
X160534630Y-50984713D01*
X160523318Y-50999757D01*
X160511990Y-51014790D01*
X160500647Y-51029809D01*
X160489288Y-51044816D01*
X160477914Y-51059810D01*
X160466523Y-51074793D01*
X160455118Y-51089762D01*
X160443697Y-51104718D01*
X160432260Y-51119662D01*
X160420808Y-51134594D01*
X160409341Y-51149512D01*
X160397858Y-51164418D01*
X160386359Y-51179311D01*
X160374845Y-51194191D01*
X160363317Y-51209058D01*
X160351772Y-51223913D01*
X160340212Y-51238754D01*
X160328637Y-51253584D01*
X160317047Y-51268399D01*
X160305441Y-51283202D01*
X160293820Y-51297992D01*
X160282184Y-51312769D01*
X160270533Y-51327533D01*
X160258866Y-51342284D01*
X160247185Y-51357021D01*
X160235488Y-51371746D01*
X160223776Y-51386457D01*
X160212049Y-51401156D01*
X160200307Y-51415841D01*
X160188550Y-51430513D01*
X160176778Y-51445172D01*
X160164991Y-51459818D01*
X160153189Y-51474450D01*
X160141371Y-51489069D01*
X160129539Y-51503674D01*
X160117692Y-51518267D01*
X160105830Y-51532845D01*
X160093953Y-51547411D01*
X160082062Y-51561963D01*
X160070155Y-51576502D01*
X160058234Y-51591027D01*
X160046298Y-51605539D01*
X160034347Y-51620037D01*
X160022381Y-51634522D01*
X160010401Y-51648993D01*
X159998405Y-51663451D01*
X159986396Y-51677894D01*
X159974371Y-51692325D01*
X159962332Y-51706741D01*
X159950278Y-51721145D01*
X159938210Y-51735534D01*
X159926126Y-51749910D01*
X159914029Y-51764271D01*
X159901916Y-51778619D01*
X159889790Y-51792953D01*
X159877648Y-51807274D01*
X159865493Y-51821580D01*
X159853322Y-51835873D01*
X159841138Y-51850152D01*
X159828939Y-51864417D01*
X159816726Y-51878668D01*
X159804497Y-51892905D01*
X159792256Y-51907128D01*
X159779999Y-51921337D01*
X159767728Y-51935532D01*
X159755443Y-51949713D01*
X159743144Y-51963879D01*
X159730830Y-51978033D01*
X159718502Y-51992171D01*
X159706160Y-52006296D01*
X159693804Y-52020406D01*
X159681433Y-52034502D01*
X159669049Y-52048584D01*
X159656650Y-52062652D01*
X159644238Y-52076705D01*
X159631810Y-52090745D01*
X159619370Y-52104769D01*
X159606914Y-52118780D01*
X159594446Y-52132776D01*
X159581962Y-52146758D01*
X159569466Y-52160725D01*
X159556955Y-52174679D01*
X159544430Y-52188617D01*
X159531891Y-52202541D01*
X159519339Y-52216451D01*
X159506772Y-52230346D01*
X159494192Y-52244226D01*
X159481598Y-52258093D01*
X159468990Y-52271944D01*
X159456368Y-52285781D01*
X159443733Y-52299603D01*
X159431084Y-52313412D01*
X159418422Y-52327204D01*
X159405745Y-52340983D01*
X159393055Y-52354746D01*
X159380351Y-52368496D01*
X159367634Y-52382229D01*
X159354902Y-52395949D01*
X159342158Y-52409653D01*
X159329400Y-52423344D01*
X159316628Y-52437018D01*
X159303843Y-52450679D01*
X159291045Y-52464324D01*
X159278232Y-52477955D01*
X159265407Y-52491570D01*
X159252568Y-52505171D01*
X159239716Y-52518756D01*
X159226850Y-52532327D01*
X159213971Y-52545882D01*
X159201078Y-52559424D01*
X159188173Y-52572949D01*
X159175253Y-52586460D01*
X159162322Y-52599955D01*
X159149376Y-52613436D01*
X159136418Y-52626901D01*
X159123445Y-52640351D01*
X159110461Y-52653786D01*
X159097462Y-52667206D01*
X159084451Y-52680610D01*
X159071426Y-52694000D01*
X159058389Y-52707374D01*
X159045338Y-52720733D01*
X159032275Y-52734076D01*
X159019198Y-52747405D01*
X159006109Y-52760718D01*
X158993006Y-52774016D01*
X158979891Y-52787298D01*
X158966762Y-52800565D01*
X158953621Y-52813816D01*
X158940466Y-52827053D01*
X158927300Y-52840273D01*
X158914119Y-52853479D01*
X158900927Y-52866668D01*
X158887721Y-52879843D01*
X158874503Y-52893001D01*
X158861272Y-52906145D01*
X158848029Y-52919271D01*
X158834771Y-52932384D01*
X158821503Y-52945480D01*
X158808221Y-52958561D01*
X158794927Y-52971626D01*
X158781619Y-52984676D01*
X158768300Y-52997709D01*
X158754967Y-53010728D01*
X158741623Y-53023730D01*
X158728265Y-53036717D01*
X158714896Y-53049688D01*
X158701513Y-53062644D01*
X158688119Y-53075582D01*
X158674712Y-53088507D01*
X158661293Y-53101414D01*
X158647860Y-53114306D01*
X158634417Y-53127182D01*
X158620959Y-53140043D01*
X158607491Y-53152886D01*
X158594009Y-53165716D01*
X158580517Y-53178527D01*
X158567010Y-53191325D01*
X158553493Y-53204104D01*
X158539962Y-53216870D01*
X158526420Y-53229617D01*
X158512865Y-53242351D01*
X158499299Y-53255066D01*
X158485720Y-53267768D01*
X158472130Y-53280451D01*
X158458526Y-53293120D01*
X158444912Y-53305772D01*
X158431284Y-53318408D01*
X158417646Y-53331027D01*
X158403994Y-53343632D01*
X158390332Y-53356219D01*
X158376656Y-53368791D01*
X158362970Y-53381345D01*
X158349271Y-53393885D01*
X158335561Y-53406406D01*
X158321838Y-53418913D01*
X158308104Y-53431403D01*
X158294358Y-53443877D01*
X158280601Y-53456334D01*
X158266830Y-53468776D01*
X158253050Y-53481199D01*
X158239256Y-53493608D01*
X158225452Y-53506000D01*
X158211635Y-53518376D01*
X158197808Y-53530734D01*
X158183968Y-53543078D01*
X158170117Y-53555403D01*
X158156254Y-53567713D01*
X158142380Y-53580006D01*
X158128493Y-53592283D01*
X158114597Y-53604543D01*
X158100687Y-53616787D01*
X158086768Y-53629013D01*
X158072835Y-53641224D01*
X158058893Y-53653418D01*
X158044938Y-53665596D01*
X158030973Y-53677755D01*
X158016994Y-53689900D01*
X158003007Y-53702027D01*
X157989006Y-53714138D01*
X157974996Y-53726231D01*
X157960972Y-53738309D01*
X157946940Y-53750369D01*
X157932894Y-53762414D01*
X157918839Y-53774440D01*
X157904771Y-53786451D01*
X157890693Y-53798444D01*
X157876603Y-53810421D01*
X157862503Y-53822380D01*
X157848390Y-53834324D01*
X157834269Y-53846249D01*
X157820134Y-53858160D01*
X157805990Y-53870051D01*
X157791833Y-53881928D01*
X157777667Y-53893785D01*
X157763489Y-53905628D01*
X157749301Y-53917452D01*
X157735100Y-53929261D01*
X157720891Y-53941051D01*
X157706669Y-53952825D01*
X157692438Y-53964581D01*
X157678194Y-53976322D01*
X157663941Y-53988044D01*
X157649676Y-53999751D01*
X157635401Y-54011438D01*
X157621114Y-54023111D01*
X157606819Y-54034765D01*
X157592510Y-54046403D01*
X157578193Y-54058022D01*
X157563864Y-54069627D01*
X157549526Y-54081212D01*
X157535175Y-54092781D01*
X157520815Y-54104332D01*
X157506443Y-54115868D01*
X157492063Y-54127384D01*
X157477670Y-54138885D01*
X157463268Y-54150367D01*
X157448854Y-54161834D01*
X157434432Y-54173281D01*
X157419997Y-54184713D01*
X157405554Y-54196126D01*
X157391099Y-54207523D01*
X157376635Y-54218902D01*
X157362159Y-54230265D01*
X157347674Y-54241608D01*
X157333177Y-54252936D01*
X157316836Y-54265675D01*
D12*
X164046824Y-37401429D02*
X164046824Y-40048610D01*
X-72820174Y-40496730D02*
X-72820174Y-38541877D01*
D11*
X-72820174Y-35068721D02*
X-72931975Y66912100D01*
D12*
X-57885185Y-20912151D02*
G75*
G02*
X-61685185Y-20912151I-1900000J0D01*
G01*
X-61685185Y-20912151D02*
G75*
G02*
X-57885185Y-20912151I1900000J0D01*
G01*
X-56550845Y-57906741D02*
X-56552537Y-57906626D01*
X164046824Y-37401429D02*
X163214815Y32937849D01*
X101080984Y81114780D02*
X101131556Y81114780D01*
D10*
X-67385649Y-53151010D02*
X-67412542Y-53125419D01*
X-67439386Y-53099765D01*
X-67466181Y-53074047D01*
X-67492926Y-53048266D01*
X-67519622Y-53022421D01*
X-67546267Y-52996513D01*
X-67572863Y-52970542D01*
X-67599409Y-52944509D01*
X-67625904Y-52918413D01*
X-67652349Y-52892254D01*
X-67678742Y-52866033D01*
X-67705085Y-52839751D01*
X-67731376Y-52813406D01*
X-67757616Y-52787000D01*
X-67783805Y-52760532D01*
X-67809941Y-52734002D01*
X-67836026Y-52707412D01*
X-67862058Y-52680760D01*
X-67888038Y-52654048D01*
X-67913965Y-52627275D01*
X-67939840Y-52600442D01*
X-67965661Y-52573549D01*
X-67991429Y-52546595D01*
X-68017144Y-52519582D01*
X-68042805Y-52492508D01*
X-68068412Y-52465376D01*
X-68093966Y-52438184D01*
X-68119465Y-52410933D01*
X-68144909Y-52383623D01*
X-68170299Y-52356254D01*
X-68195635Y-52328826D01*
X-68220915Y-52301341D01*
X-68246140Y-52273797D01*
X-68271310Y-52246195D01*
X-68296424Y-52218536D01*
X-68321482Y-52190819D01*
X-68346484Y-52163044D01*
X-68371430Y-52135212D01*
X-68396320Y-52107324D01*
X-68421153Y-52079378D01*
X-68445930Y-52051376D01*
X-68470649Y-52023318D01*
X-68495312Y-51995204D01*
X-68519917Y-51967033D01*
X-68544464Y-51938807D01*
X-68568954Y-51910525D01*
X-68593386Y-51882188D01*
X-68617760Y-51853796D01*
X-68642076Y-51825349D01*
X-68666333Y-51796847D01*
X-68690531Y-51768290D01*
X-68714671Y-51739680D01*
X-68738752Y-51711015D01*
X-68762773Y-51682296D01*
X-68786735Y-51653524D01*
X-68810637Y-51624698D01*
X-68834480Y-51595819D01*
X-68858263Y-51566887D01*
X-68881985Y-51537902D01*
X-68905648Y-51508865D01*
X-68929249Y-51479775D01*
X-68952790Y-51450633D01*
X-68976270Y-51421439D01*
X-68999689Y-51392193D01*
X-69023047Y-51362896D01*
X-69046344Y-51333547D01*
X-69069579Y-51304148D01*
X-69092752Y-51274697D01*
X-69115863Y-51245196D01*
X-69138912Y-51215645D01*
X-69161898Y-51186043D01*
X-69184822Y-51156392D01*
X-69207684Y-51126690D01*
X-69230483Y-51096940D01*
X-69253218Y-51067139D01*
X-69275891Y-51037290D01*
X-69298500Y-51007392D01*
X-69321045Y-50977446D01*
X-69343527Y-50947451D01*
X-69365945Y-50917407D01*
X-69388299Y-50887316D01*
X-69410588Y-50857178D01*
X-69432814Y-50826991D01*
X-69454974Y-50796758D01*
X-69466030Y-50781624D01*
X-69477070Y-50766478D01*
X-69488094Y-50751320D01*
X-69499101Y-50736150D01*
X-69510092Y-50720969D01*
X-69521067Y-50705777D01*
X-69532026Y-50690572D01*
X-69542968Y-50675356D01*
X-69553894Y-50660129D01*
X-69564803Y-50644890D01*
X-69575696Y-50629640D01*
X-69586573Y-50614378D01*
X-69597433Y-50599105D01*
X-69608277Y-50583821D01*
X-69619104Y-50568525D01*
X-69629915Y-50553218D01*
X-69640709Y-50537899D01*
X-69651487Y-50522570D01*
X-69662248Y-50507229D01*
X-69672993Y-50491877D01*
X-69683721Y-50476514D01*
X-69694432Y-50461139D01*
X-69705127Y-50445754D01*
X-69715805Y-50430357D01*
X-69726466Y-50414949D01*
X-69737111Y-50399531D01*
X-69747739Y-50384101D01*
X-69758351Y-50368660D01*
X-69768945Y-50353209D01*
X-69779523Y-50337746D01*
X-69790084Y-50322273D01*
X-69800628Y-50306789D01*
X-69811155Y-50291294D01*
X-69821666Y-50275788D01*
X-69832159Y-50260272D01*
X-69842636Y-50244745D01*
X-69853096Y-50229207D01*
X-69863538Y-50213658D01*
X-69873964Y-50198099D01*
X-69884373Y-50182529D01*
X-69894765Y-50166949D01*
X-69905140Y-50151358D01*
X-69915498Y-50135757D01*
X-69925839Y-50120145D01*
X-69936162Y-50104522D01*
X-69946469Y-50088889D01*
X-69956759Y-50073247D01*
X-69967031Y-50057593D01*
X-69977286Y-50041929D01*
X-69987525Y-50026255D01*
X-69997745Y-50010571D01*
X-70007949Y-49994876D01*
X-70018136Y-49979171D01*
X-70028305Y-49963456D01*
X-70038457Y-49947731D01*
X-70048592Y-49931995D01*
X-70058709Y-49916250D01*
X-70068810Y-49900494D01*
X-70078892Y-49884729D01*
X-70088958Y-49868953D01*
X-70099006Y-49853168D01*
X-70109037Y-49837372D01*
X-70119050Y-49821567D01*
X-70129046Y-49805752D01*
X-70139024Y-49789927D01*
X-70148986Y-49774092D01*
X-70158929Y-49758247D01*
X-70168855Y-49742393D01*
X-70178764Y-49726529D01*
X-70188655Y-49710655D01*
X-70198528Y-49694772D01*
X-70208384Y-49678878D01*
X-70218222Y-49662976D01*
X-70228043Y-49647063D01*
X-70237846Y-49631142D01*
X-70247632Y-49615210D01*
X-70257400Y-49599269D01*
X-70267150Y-49583319D01*
X-70276882Y-49567359D01*
X-70286597Y-49551390D01*
X-70296294Y-49535412D01*
X-70305974Y-49519424D01*
X-70315635Y-49503427D01*
X-70325279Y-49487420D01*
X-70334905Y-49471405D01*
X-70344514Y-49455380D01*
X-70354104Y-49439346D01*
X-70363677Y-49423303D01*
X-70373231Y-49407251D01*
X-70382768Y-49391189D01*
X-70392287Y-49375119D01*
X-70401788Y-49359040D01*
X-70411271Y-49342952D01*
X-70420736Y-49326854D01*
X-70430183Y-49310748D01*
X-70439613Y-49294632D01*
X-70449024Y-49278509D01*
X-70458418Y-49262376D01*
X-70467793Y-49246234D01*
X-70477150Y-49230084D01*
X-70486489Y-49213925D01*
X-70495810Y-49197756D01*
X-70505113Y-49181580D01*
X-70514398Y-49165395D01*
X-70523665Y-49149201D01*
X-70532914Y-49132998D01*
X-70542144Y-49116788D01*
X-70551357Y-49100568D01*
X-70560551Y-49084340D01*
X-70569727Y-49068103D01*
X-70578885Y-49051859D01*
X-70588025Y-49035605D01*
X-70597146Y-49019344D01*
X-70606249Y-49003073D01*
X-70615333Y-48986796D01*
X-70624400Y-48970508D01*
X-70633448Y-48954214D01*
X-70642478Y-48937910D01*
X-70651490Y-48921600D01*
X-70660483Y-48905280D01*
X-70669458Y-48888953D01*
X-70678415Y-48872616D01*
X-70687353Y-48856273D01*
X-70696273Y-48839921D01*
X-70705174Y-48823562D01*
X-70714057Y-48807193D01*
X-70722921Y-48790818D01*
X-70731767Y-48774434D01*
X-70740594Y-48758043D01*
X-70749404Y-48741643D01*
X-70758194Y-48725237D01*
X-70766966Y-48708821D01*
X-70775719Y-48692399D01*
X-70784454Y-48675968D01*
X-70793170Y-48659531D01*
X-70801868Y-48643084D01*
X-70810547Y-48626632D01*
X-70819208Y-48610170D01*
X-70827850Y-48593702D01*
X-70836473Y-48577225D01*
X-70845078Y-48560742D01*
X-70853664Y-48544250D01*
X-70862231Y-48527753D01*
X-70870780Y-48511246D01*
X-70879310Y-48494733D01*
X-70887821Y-48478212D01*
X-70896313Y-48461685D01*
X-70904787Y-48445149D01*
X-70913242Y-48428607D01*
X-70921679Y-48412056D01*
X-70930096Y-48395500D01*
X-70938495Y-48378935D01*
X-70946874Y-48362364D01*
X-70955235Y-48345785D01*
X-70970253Y-48315896D01*
D11*
X119376394Y-56276742D02*
G75*
G02*
X117981949Y-54842072I544706J1924442D01*
G01*
D12*
X-72820174Y-38541877D02*
X-72820174Y-38018721D01*
X163529459Y59902494D02*
X163529459Y59881783D01*
D10*
X160364815Y72287849D02*
X160381240Y72263444D01*
X160397646Y72238925D01*
X160414032Y72214290D01*
X160430400Y72189540D01*
X160446748Y72164674D01*
X160463077Y72139693D01*
X160479387Y72114594D01*
X160495676Y72089379D01*
X160511947Y72064048D01*
X160528197Y72038598D01*
X160544428Y72013032D01*
X160560639Y71987348D01*
X160576830Y71961545D01*
X160593000Y71935625D01*
X160609151Y71909585D01*
X160625281Y71883427D01*
X160641391Y71857150D01*
X160657480Y71830753D01*
X160673548Y71804237D01*
X160689596Y71777600D01*
X160705623Y71750843D01*
X160721629Y71723966D01*
X160737614Y71696967D01*
X160753578Y71669848D01*
X160769521Y71642607D01*
X160785442Y71615244D01*
X160801342Y71587760D01*
X160817220Y71560153D01*
X160833076Y71532424D01*
X160848911Y71504572D01*
X160864723Y71476596D01*
X160880514Y71448498D01*
X160896282Y71420276D01*
X160912028Y71391930D01*
X160927751Y71363459D01*
X160943452Y71334865D01*
X160959130Y71306146D01*
X160974785Y71277301D01*
X160990418Y71248332D01*
X161006027Y71219237D01*
X161021613Y71190016D01*
X161037175Y71160670D01*
X161052714Y71131197D01*
X161068230Y71101597D01*
X161083721Y71071871D01*
X161099189Y71042018D01*
X161114633Y71012037D01*
X161130052Y70981929D01*
X161145447Y70951693D01*
X161160818Y70921329D01*
X161176164Y70890837D01*
X161191485Y70860216D01*
X161206782Y70829467D01*
X161222053Y70798588D01*
X161237299Y70767580D01*
X161252520Y70736443D01*
X161267715Y70705176D01*
X161282884Y70673779D01*
X161298028Y70642252D01*
X161313145Y70610594D01*
X161328237Y70578806D01*
X161343302Y70546886D01*
X161358341Y70514836D01*
X161373353Y70482654D01*
X161388338Y70450341D01*
X161403296Y70417896D01*
X161418227Y70385319D01*
X161433131Y70352609D01*
X161448008Y70319768D01*
X161462856Y70286793D01*
X161477677Y70253686D01*
X161492470Y70220446D01*
X161507235Y70187073D01*
X161521971Y70153566D01*
X161536679Y70119925D01*
X161551358Y70086151D01*
X161566009Y70052243D01*
X161580630Y70018200D01*
X161595222Y69984024D01*
X161609784Y69949712D01*
X161624317Y69915266D01*
X161638820Y69880685D01*
X161653294Y69845969D01*
X161667737Y69811118D01*
X161682149Y69776132D01*
X161696531Y69741009D01*
X161710882Y69705752D01*
X161725203Y69670358D01*
X161739492Y69634829D01*
X161753750Y69599163D01*
X161767976Y69563361D01*
X161782170Y69527423D01*
X161796333Y69491348D01*
X161810463Y69455136D01*
X161824561Y69418788D01*
X161838626Y69382303D01*
X161852658Y69345681D01*
X161866658Y69308922D01*
X161880624Y69272026D01*
X161894557Y69234992D01*
X161908456Y69197822D01*
X161922321Y69160513D01*
X161936152Y69123068D01*
X161949949Y69085484D01*
X161963711Y69047764D01*
X161977438Y69009905D01*
X161991131Y68971909D01*
X162004788Y68933775D01*
X162018409Y68895503D01*
X162031995Y68857093D01*
X162045545Y68818545D01*
X162059059Y68779860D01*
X162072537Y68741036D01*
X162085977Y68702075D01*
X162099381Y68662975D01*
X162112748Y68623738D01*
X162126077Y68584363D01*
X162139369Y68544850D01*
X162152623Y68505199D01*
X162165838Y68465411D01*
X162179015Y68425484D01*
X162192154Y68385420D01*
X162205254Y68345219D01*
X162218314Y68304880D01*
X162231335Y68264403D01*
X162244317Y68223789D01*
X162257258Y68183038D01*
X162270159Y68142149D01*
X162283020Y68101124D01*
X162295840Y68059962D01*
X162308619Y68018663D01*
X162321357Y67977227D01*
X162334053Y67935655D01*
X162346707Y67893947D01*
X162359319Y67852103D01*
X162371889Y67810123D01*
X162384415Y67768007D01*
X162396899Y67725756D01*
X162409340Y67683369D01*
X162421737Y67640848D01*
X162434090Y67598192D01*
X162446399Y67555402D01*
X162458663Y67512477D01*
X162470883Y67469419D01*
X162483058Y67426228D01*
X162495187Y67382903D01*
X162507270Y67339445D01*
X162519308Y67295855D01*
X162531299Y67252133D01*
X162543243Y67208280D01*
X162555141Y67164295D01*
X162566991Y67120180D01*
X162578793Y67075934D01*
X162590548Y67031558D01*
X162602254Y66987053D01*
X162613912Y66942419D01*
X162625520Y66897657D01*
X162637080Y66852767D01*
X162648590Y66807750D01*
X162660049Y66762606D01*
X162671459Y66717337D01*
X162682818Y66671942D01*
X162694125Y66626422D01*
X162705382Y66580778D01*
X162716586Y66535011D01*
X162727739Y66489122D01*
X162738839Y66443110D01*
X162749886Y66396978D01*
X162760880Y66350725D01*
X162771820Y66304353D01*
X162782706Y66257863D01*
X162793538Y66211255D01*
X162804315Y66164530D01*
X162815037Y66117690D01*
X162825704Y66070735D01*
X162836314Y66023666D01*
X162846868Y65976485D01*
X162857366Y65929192D01*
X162867806Y65881789D01*
X162878188Y65834276D01*
X162888513Y65786656D01*
X162898779Y65738928D01*
X162908986Y65691096D01*
X162919134Y65643159D01*
X162929223Y65595120D01*
X162939251Y65546979D01*
X162949218Y65498738D01*
X162959124Y65450399D01*
X162968969Y65401964D01*
X162978752Y65353433D01*
X162988472Y65304808D01*
X162998130Y65256092D01*
X163007724Y65207286D01*
X163017254Y65158392D01*
X163026720Y65109412D01*
X163036121Y65060347D01*
X163045456Y65011200D01*
X163054726Y64961973D01*
X163063930Y64912668D01*
X163073066Y64863287D01*
X163082135Y64813833D01*
X163091136Y64764308D01*
X163100069Y64714714D01*
X163108932Y64665054D01*
X163117726Y64615331D01*
X163126450Y64565547D01*
X163135103Y64515706D01*
X163143685Y64465809D01*
X163152195Y64415860D01*
X163160633Y64365862D01*
X163168997Y64315819D01*
X163177288Y64265734D01*
X163185505Y64215609D01*
X163193647Y64165450D01*
X163201713Y64115259D01*
X163209704Y64065040D01*
X163217617Y64014797D01*
X163225453Y63964534D01*
X163233211Y63914256D01*
X163240890Y63863967D01*
X163248490Y63813671D01*
X163256010Y63763374D01*
X163263448Y63713079D01*
X163270806Y63662793D01*
X163278080Y63612520D01*
X163285272Y63562266D01*
X163292380Y63512036D01*
X163299404Y63461837D01*
X163306342Y63411675D01*
X163313193Y63361556D01*
X163319958Y63311486D01*
X163326635Y63261473D01*
X163333224Y63211523D01*
X163339723Y63161644D01*
X163346131Y63111844D01*
X163352449Y63062131D01*
X163358674Y63012513D01*
X163364806Y62962999D01*
X163370845Y62913599D01*
X163376788Y62864321D01*
X163382635Y62815175D01*
X163388386Y62766172D01*
X163394039Y62717323D01*
X163399592Y62668639D01*
X163405046Y62620131D01*
X163410399Y62571813D01*
X163415649Y62523696D01*
X163420797Y62475795D01*
X163425840Y62428123D01*
X163430778Y62380695D01*
X163435609Y62333527D01*
X163440332Y62286635D01*
X163444946Y62240035D01*
X163449450Y62193746D01*
X163453842Y62147786D01*
X163458121Y62102174D01*
X163462287Y62056931D01*
X163466337Y62012079D01*
X163470271Y61967639D01*
X163474086Y61923636D01*
X163477782Y61880094D01*
X163481358Y61837039D01*
X163484812Y61794498D01*
X163488142Y61752500D01*
X163491348Y61711074D01*
X163494429Y61670252D01*
X163497382Y61630066D01*
X163500207Y61590550D01*
X163501572Y61571025D01*
X163502902Y61551739D01*
X163504203Y61532583D01*
X163505467Y61513670D01*
X163506702Y61494902D01*
X163507900Y61476382D01*
X163509069Y61458020D01*
X163510201Y61439913D01*
X163511303Y61421979D01*
X163512369Y61404304D01*
X163513404Y61386818D01*
X163514404Y61369597D01*
X163515371Y61352581D01*
X163516304Y61335834D01*
X163517204Y61319310D01*
X163518070Y61303058D01*
X163518903Y61287048D01*
X163519702Y61271313D01*
X163520467Y61255838D01*
X163521199Y61240643D01*
X163521898Y61225724D01*
X163522564Y61211089D01*
X163523197Y61196748D01*
X163523797Y61182693D01*
X163524364Y61168952D01*
X163524899Y61155496D01*
X163525401Y61142373D01*
X163525872Y61129536D01*
X163526311Y61117048D01*
X163526720Y61104846D01*
X163527097Y61093009D01*
X163527444Y61081458D01*
X163527761Y61070285D01*
X163528049Y61059396D01*
X163528307Y61048898D01*
X163528539Y61038681D01*
X163528741Y61028865D01*
X163528918Y61019325D01*
X163529067Y61010195D01*
X163529192Y61001335D01*
X163529291Y60992889D01*
X163529367Y60984706D01*
X163529420Y60976940D01*
X163529450Y60969429D01*
X163529459Y60962793D01*
D12*
X147779187Y-57906626D02*
X147777495Y-57906741D01*
X-72931975Y66912100D02*
G75*
G02*
X-58729215Y81114775I14202755J-80D01*
G01*
D10*
X147903331Y81063747D02*
X147939820Y81060852D01*
X147976303Y81057877D01*
X148012779Y81054823D01*
X148049249Y81051688D01*
X148085711Y81048475D01*
X148122166Y81045181D01*
X148158614Y81041808D01*
X148195054Y81038355D01*
X148231487Y81034822D01*
X148267912Y81031210D01*
X148304329Y81027519D01*
X148340737Y81023747D01*
X148377138Y81019897D01*
X148413530Y81015966D01*
X148449913Y81011956D01*
X148486287Y81007867D01*
X148522652Y81003698D01*
X148559008Y80999450D01*
X148595355Y80995122D01*
X148631692Y80990715D01*
X148668020Y80986228D01*
X148704337Y80981662D01*
X148740645Y80977017D01*
X148776942Y80972292D01*
X148813229Y80967488D01*
X148849506Y80962605D01*
X148885772Y80957643D01*
X148922027Y80952601D01*
X148958270Y80947480D01*
X148994503Y80942280D01*
X149030724Y80937000D01*
X149066934Y80931642D01*
X149103132Y80926204D01*
X149139318Y80920687D01*
X149175492Y80915091D01*
X149211653Y80909416D01*
X149247803Y80903662D01*
X149283939Y80897829D01*
X149320063Y80891917D01*
X149356174Y80885927D01*
X149392272Y80879857D01*
X149428356Y80873708D01*
X149464427Y80867481D01*
X149500485Y80861174D01*
X149536529Y80854789D01*
X149572558Y80848325D01*
X149608574Y80841783D01*
X149644575Y80835161D01*
X149680562Y80828461D01*
X149716534Y80821683D01*
X149752491Y80814825D01*
X149788434Y80807889D01*
X149824361Y80800875D01*
X149860272Y80793782D01*
X149896169Y80786611D01*
X149932049Y80779361D01*
X149967914Y80772033D01*
X150003763Y80764626D01*
X150039595Y80757141D01*
X150075411Y80749578D01*
X150111211Y80741936D01*
X150146994Y80734217D01*
X150182760Y80726419D01*
X150218509Y80718543D01*
X150254241Y80710588D01*
X150289955Y80702556D01*
X150325652Y80694446D01*
X150361330Y80686257D01*
X150396992Y80677991D01*
X150432635Y80669647D01*
X150468259Y80661225D01*
X150503865Y80652725D01*
X150539453Y80644147D01*
X150575022Y80635491D01*
X150610572Y80626758D01*
X150646103Y80617947D01*
X150681614Y80609058D01*
X150717106Y80600092D01*
X150752579Y80591049D01*
X150788031Y80581927D01*
X150823464Y80572729D01*
X150858877Y80563453D01*
X150894269Y80554099D01*
X150929640Y80544668D01*
X150964991Y80535160D01*
X151000322Y80525575D01*
X151035631Y80515912D01*
X151070919Y80506172D01*
X151106186Y80496356D01*
X151141431Y80486462D01*
X151176654Y80476491D01*
X151194258Y80471477D01*
X151211856Y80466443D01*
X151229448Y80461390D01*
X151247035Y80456318D01*
X151264617Y80451227D01*
X151282193Y80446117D01*
X151299763Y80440987D01*
X151317328Y80435838D01*
X151334887Y80430670D01*
X151352440Y80425483D01*
X151369988Y80420277D01*
X151387530Y80415051D01*
X151405067Y80409807D01*
X151422597Y80404543D01*
X151440122Y80399260D01*
X151457641Y80393958D01*
X151475154Y80388636D01*
X151492662Y80383296D01*
X151510163Y80377937D01*
X151527659Y80372558D01*
X151545149Y80367160D01*
X151562633Y80361743D01*
X151580111Y80356307D01*
X151597583Y80350852D01*
X151615049Y80345378D01*
X151632509Y80339885D01*
X151649963Y80334372D01*
X151667411Y80328841D01*
X151684853Y80323291D01*
X151702289Y80317721D01*
X151719719Y80312132D01*
X151737142Y80306525D01*
X151754560Y80300898D01*
X151771971Y80295253D01*
X151789377Y80289588D01*
X151806776Y80283904D01*
X151824168Y80278202D01*
X151841555Y80272480D01*
X151858935Y80266739D01*
X151876309Y80260979D01*
X151893677Y80255201D01*
X151911038Y80249403D01*
X151928393Y80243587D01*
X151945742Y80237751D01*
X151963084Y80231896D01*
X151980420Y80226023D01*
X151997749Y80220131D01*
X152015072Y80214219D01*
X152032388Y80208289D01*
X152049699Y80202340D01*
X152067002Y80196372D01*
X152084299Y80190385D01*
X152101589Y80184379D01*
X152118873Y80178354D01*
X152136150Y80172311D01*
X152153421Y80166248D01*
X152170684Y80160167D01*
X152187942Y80154066D01*
X152205192Y80147947D01*
X152222436Y80141809D01*
X152239673Y80135653D01*
X152256904Y80129477D01*
X152274127Y80123283D01*
X152291344Y80117069D01*
X152308554Y80110837D01*
X152325757Y80104586D01*
X152342954Y80098317D01*
X152360143Y80092028D01*
X152377326Y80085721D01*
X152394502Y80079395D01*
X152411670Y80073051D01*
X152428832Y80066687D01*
X152445987Y80060305D01*
X152463135Y80053904D01*
X152480276Y80047484D01*
X152497410Y80041046D01*
X152514536Y80034589D01*
X152531656Y80028113D01*
X152548768Y80021618D01*
X152565874Y80015105D01*
X152582972Y80008573D01*
X152600063Y80002022D01*
X152617147Y79995453D01*
X152634224Y79988865D01*
X152651294Y79982259D01*
X152668356Y79975633D01*
X152685411Y79968990D01*
X152702459Y79962327D01*
X152719499Y79955646D01*
X152736533Y79948946D01*
X152753558Y79942228D01*
X152770577Y79935491D01*
X152787588Y79928735D01*
X152804592Y79921961D01*
X152821588Y79915169D01*
X152838577Y79908357D01*
X152855558Y79901528D01*
X152872532Y79894679D01*
X152889499Y79887812D01*
X152906458Y79880927D01*
X152923409Y79874023D01*
X152940353Y79867100D01*
X152957289Y79860159D01*
X152974218Y79853200D01*
X152991139Y79846222D01*
X153008052Y79839225D01*
X153024958Y79832211D01*
X153041856Y79825177D01*
X153058746Y79818125D01*
X153075629Y79811055D01*
X153092503Y79803966D01*
X153109371Y79796859D01*
X153126230Y79789733D01*
X153143081Y79782589D01*
X153159925Y79775427D01*
X153176761Y79768246D01*
X153193589Y79761047D01*
X153210409Y79753829D01*
X153227221Y79746593D01*
X153244026Y79739339D01*
X153260822Y79732066D01*
X153277610Y79724775D01*
X153294390Y79717466D01*
X153311163Y79710138D01*
X153327927Y79702792D01*
X153344684Y79695427D01*
X153361432Y79688045D01*
X153378172Y79680644D01*
X153394904Y79673225D01*
X153411628Y79665787D01*
X153428344Y79658331D01*
X153445052Y79650857D01*
X153461751Y79643365D01*
X153478443Y79635854D01*
X153495125Y79628325D01*
X153511801Y79620778D01*
X153528467Y79613213D01*
X153545126Y79605629D01*
X153561775Y79598028D01*
X153578417Y79590408D01*
X153595050Y79582770D01*
X153611676Y79575114D01*
X153628292Y79567439D01*
X153644901Y79559747D01*
X153661500Y79552036D01*
X153678092Y79544307D01*
X153694675Y79536560D01*
X153711250Y79528795D01*
X153727815Y79521012D01*
X153744373Y79513210D01*
X153760922Y79505391D01*
X153777463Y79497554D01*
X153793994Y79489698D01*
X153810518Y79481824D01*
X153827032Y79473933D01*
X153843539Y79466023D01*
X153860036Y79458095D01*
X153876525Y79450149D01*
X153893005Y79442186D01*
X153909477Y79434204D01*
X153925939Y79426204D01*
X153942393Y79418186D01*
X153958838Y79410150D01*
X153975275Y79402096D01*
X153991702Y79394025D01*
X154008121Y79385935D01*
X154024531Y79377828D01*
X154040932Y79369702D01*
X154057324Y79361558D01*
X154073708Y79353397D01*
X154090082Y79345218D01*
X154106448Y79337020D01*
X154122804Y79328805D01*
X154139152Y79320572D01*
X154155491Y79312321D01*
X154171821Y79304052D01*
X154188141Y79295766D01*
X154204453Y79287461D01*
X154228980Y79274932D01*
D12*
X117153460Y-51561445D02*
G75*
G02*
X117100646Y-51251204I1939240J489745D01*
G01*
X114379342Y-21042276D02*
X117100652Y-51251203D01*
X99018584Y-21104942D02*
G75*
G02*
X101004848Y-19263871I1993716J-158958D01*
G01*
X83244731Y-49921508D02*
G75*
G02*
X79444731Y-49921508I-1900000J0D01*
G01*
X79444731Y-49921508D02*
G75*
G02*
X83244731Y-49921508I1900000J0D01*
G01*
X101131556Y81114780D02*
X143233360Y81114780D01*
D10*
X-70970253Y-48315896D02*
X-70986959Y-48282476D01*
X-71003594Y-48249020D01*
X-71020157Y-48215529D01*
X-71036648Y-48182002D01*
X-71053067Y-48148440D01*
X-71069415Y-48114843D01*
X-71085690Y-48081211D01*
X-71101894Y-48047544D01*
X-71118025Y-48013843D01*
X-71134084Y-47980107D01*
X-71142087Y-47963226D01*
X-71150071Y-47946336D01*
X-71158038Y-47929438D01*
X-71165986Y-47912531D01*
X-71173916Y-47895616D01*
X-71181828Y-47878693D01*
X-71189722Y-47861761D01*
X-71197598Y-47844820D01*
X-71205456Y-47827871D01*
X-71213296Y-47810914D01*
X-71221117Y-47793948D01*
X-71228920Y-47776974D01*
X-71236705Y-47759991D01*
X-71244472Y-47743000D01*
X-71252221Y-47726001D01*
X-71259951Y-47708994D01*
X-71267664Y-47691978D01*
X-71275358Y-47674954D01*
X-71283034Y-47657922D01*
X-71290691Y-47640882D01*
X-71298331Y-47623833D01*
X-71305952Y-47606776D01*
X-71313555Y-47589711D01*
X-71321139Y-47572638D01*
X-71328706Y-47555557D01*
X-71336254Y-47538468D01*
X-71343783Y-47521370D01*
X-71351295Y-47504265D01*
X-71358788Y-47487151D01*
X-71366263Y-47470030D01*
X-71373719Y-47452900D01*
X-71381157Y-47435763D01*
X-71388577Y-47418617D01*
X-71395979Y-47401464D01*
X-71403362Y-47384303D01*
X-71410726Y-47367133D01*
X-71418073Y-47349956D01*
X-71425400Y-47332771D01*
X-71432710Y-47315579D01*
X-71440001Y-47298378D01*
X-71447274Y-47281170D01*
X-71454528Y-47263953D01*
X-71461764Y-47246730D01*
X-71468981Y-47229498D01*
X-71476180Y-47212259D01*
X-71483361Y-47195011D01*
X-71490523Y-47177757D01*
X-71497666Y-47160494D01*
X-71504791Y-47143224D01*
X-71511898Y-47125946D01*
X-71518986Y-47108661D01*
X-71526055Y-47091368D01*
X-71533106Y-47074068D01*
X-71540139Y-47056760D01*
X-71547153Y-47039444D01*
X-71554148Y-47022121D01*
X-71561125Y-47004791D01*
X-71568084Y-46987453D01*
X-71575023Y-46970107D01*
X-71581945Y-46952754D01*
X-71588847Y-46935394D01*
X-71595731Y-46918027D01*
X-71602597Y-46900652D01*
X-71609443Y-46883269D01*
X-71616272Y-46865880D01*
X-71623081Y-46848483D01*
X-71629872Y-46831079D01*
X-71636645Y-46813667D01*
X-71643398Y-46796248D01*
X-71650133Y-46778822D01*
X-71656850Y-46761389D01*
X-71663547Y-46743949D01*
X-71670226Y-46726501D01*
X-71676887Y-46709047D01*
X-71683528Y-46691585D01*
X-71690151Y-46674116D01*
X-71696756Y-46656640D01*
X-71703341Y-46639157D01*
X-71709908Y-46621667D01*
X-71716456Y-46604170D01*
X-71722985Y-46586666D01*
X-71729496Y-46569155D01*
X-71735988Y-46551637D01*
X-71742461Y-46534112D01*
X-71748915Y-46516580D01*
X-71755351Y-46499041D01*
X-71761768Y-46481496D01*
X-71768166Y-46463943D01*
X-71774545Y-46446384D01*
X-71780906Y-46428818D01*
X-71787247Y-46411245D01*
X-71793570Y-46393665D01*
X-71799874Y-46376078D01*
X-71806159Y-46358485D01*
X-71812425Y-46340885D01*
X-71818673Y-46323278D01*
X-71824901Y-46305665D01*
X-71831111Y-46288045D01*
X-71837302Y-46270418D01*
X-71843474Y-46252785D01*
X-71849627Y-46235145D01*
X-71855761Y-46217499D01*
X-71861877Y-46199846D01*
X-71867973Y-46182186D01*
X-71874050Y-46164520D01*
X-71880109Y-46146847D01*
X-71886149Y-46129168D01*
X-71892170Y-46111483D01*
X-71898171Y-46093791D01*
X-71904154Y-46076092D01*
X-71910118Y-46058388D01*
X-71916063Y-46040676D01*
X-71921989Y-46022959D01*
X-71927896Y-46005235D01*
X-71933784Y-45987505D01*
X-71939653Y-45969768D01*
X-71945503Y-45952026D01*
X-71951335Y-45934277D01*
X-71957147Y-45916522D01*
X-71962940Y-45898760D01*
X-71968714Y-45880992D01*
X-71974469Y-45863218D01*
X-71980205Y-45845439D01*
X-71985922Y-45827652D01*
X-71991620Y-45809860D01*
X-71997299Y-45792061D01*
X-72002958Y-45774257D01*
X-72008599Y-45756447D01*
X-72014221Y-45738630D01*
X-72019823Y-45720807D01*
X-72025407Y-45702979D01*
X-72030971Y-45685144D01*
X-72036517Y-45667304D01*
X-72042043Y-45649457D01*
X-72047550Y-45631605D01*
X-72053038Y-45613747D01*
X-72058507Y-45595883D01*
X-72063957Y-45578013D01*
X-72069387Y-45560137D01*
X-72074799Y-45542255D01*
X-72080191Y-45524368D01*
X-72085565Y-45506475D01*
X-72090919Y-45488576D01*
X-72096254Y-45470671D01*
X-72101569Y-45452761D01*
X-72106866Y-45434845D01*
X-72112143Y-45416923D01*
X-72117402Y-45398995D01*
X-72122640Y-45381063D01*
X-72127860Y-45363124D01*
X-72133061Y-45345180D01*
X-72138242Y-45327229D01*
X-72143405Y-45309274D01*
X-72148548Y-45291313D01*
X-72153671Y-45273347D01*
X-72158776Y-45255375D01*
X-72163861Y-45237398D01*
X-72168927Y-45219414D01*
X-72173974Y-45201426D01*
X-72179001Y-45183432D01*
X-72184010Y-45165434D01*
X-72188999Y-45147429D01*
X-72193968Y-45129419D01*
X-72198919Y-45111404D01*
X-72205327Y-45087971D01*
D12*
%TO.C,U19*%
X33448666Y21687849D02*
X33448666Y26187849D01*
X34448666Y27187849D02*
X56348666Y27187849D01*
X56348666Y20687849D02*
X34448666Y20687849D01*
X57348666Y26187849D02*
X57348666Y21687849D01*
X33448666Y26187849D02*
G75*
G02*
X34448666Y27187848I999999J0D01*
G01*
X34448666Y20687849D02*
G75*
G02*
X33448665Y21687849I-1J1000000D01*
G01*
X56348666Y27187849D02*
G75*
G02*
X57348666Y26187849I1J-999999D01*
G01*
X57348666Y21687849D02*
G75*
G02*
X56348666Y20687849I-999999J-1D01*
G01*
X29861671Y28975399D02*
G75*
G02*
X26461671Y28975399I-1700000J0D01*
G01*
X26461671Y28975399D02*
G75*
G02*
X29861671Y28975399I1700000J0D01*
G01*
X30098666Y-851573D02*
G75*
G02*
X26698666Y-851573I-1700000J0D01*
G01*
X26698666Y-851573D02*
G75*
G02*
X30098666Y-851573I1700000J0D01*
G01*
X37098666Y12198427D02*
G75*
G02*
X33098666Y12198427I-2000000J0D01*
G01*
X33098666Y12198427D02*
G75*
G02*
X37098666Y12198427I2000000J0D01*
G01*
X36898666Y144657D02*
G75*
G02*
X33298666Y144657I-1800000J0D01*
G01*
X33298666Y144657D02*
G75*
G02*
X36898666Y144657I1800000J0D01*
G01*
X57198666Y12198427D02*
G75*
G02*
X53598666Y12198427I-1800000J0D01*
G01*
X53598666Y12198427D02*
G75*
G02*
X57198666Y12198427I1800000J0D01*
G01*
X57198666Y148427D02*
G75*
G02*
X53598666Y148427I-1800000J0D01*
G01*
X53598666Y148427D02*
G75*
G02*
X57198666Y148427I1800000J0D01*
G01*
X63079955Y28795839D02*
G75*
G02*
X59679955Y28795839I-1700000J0D01*
G01*
X59679955Y28795839D02*
G75*
G02*
X63079955Y28795839I1700000J0D01*
G01*
X63967958Y-1099700D02*
G75*
G02*
X60567958Y-1099700I-1700000J0D01*
G01*
X60567958Y-1099700D02*
G75*
G02*
X63967958Y-1099700I1700000J0D01*
G01*
D11*
%TO.C,U6*%
X-58285185Y64437849D02*
X-58278077Y60944956D01*
X26207708Y65430742D02*
X-57285100Y65437849D01*
X26207708Y59944957D02*
X-57278078Y59944957D01*
X27214815Y64430749D02*
X27207708Y60944956D01*
X-58285185Y64437849D02*
G75*
G02*
X-57285185Y65437849I999999J1D01*
G01*
X-57278078Y59944956D02*
G75*
G02*
X-58278078Y60944956I-1J999999D01*
G01*
X26214815Y65430742D02*
G75*
G02*
X27214808Y64430742I0J-999993D01*
G01*
X27207708Y60944956D02*
G75*
G02*
X26207708Y59944956I-999993J-7D01*
G01*
%TD*%
M02*
