M48
; DRILL file {KiCad 9.0.2} date 2025-10-09T09:29:39-0500
; FORMAT={-:-/ absolute / inch / decimal}
; #@! TF.CreationDate,2025-10-09T09:29:39-05:00
; #@! TF.GenerationSoftware,Kicad,Pcbnew,9.0.2
; #@! TF.FileFunction,Plated,1,2,PTH
FMAT,2
INCH
; #@! TA.AperFunction,Plated,PTH,ViaDrill
T1C0.0118
; #@! TA.AperFunction,Plated,PTH,ComponentDrill
T2C0.0197
; #@! TA.AperFunction,Plated,PTH,ComponentDrill
T3C0.0394
; #@! TA.AperFunction,Plated,PTH,ComponentDrill
T4C0.0433
; #@! TA.AperFunction,Plated,PTH,ComponentDrill
T5C0.0472
; #@! TA.AperFunction,Plated,PTH,ComponentDrill
T6C0.1083
; #@! TA.AperFunction,Plated,PTH,ComponentDrill
T7C0.2520
%
G90
G05
T1
X-2.831Y2.4071
X-2.8076Y2.806
X-2.7376Y1.4485
X-2.7323Y0.6411
X-2.7275Y1.0306
X-2.7198Y1.3211
X-2.6884Y-0.2859
X-2.6786Y-2.0024
X-2.6766Y0.0763
X-2.6569Y-0.845
X-2.6569Y-1.3548
X-2.5053Y-0.0812
X-2.4904Y3.1329
X-2.4858Y0.1343
X-2.41Y2.5612
X-2.4099Y2.3813
X-2.4094Y1.1332
X-2.401Y-0.4355
X-2.3878Y-2.1994
X-2.3642Y1.6903
X-2.3583Y0.0368
X-2.3514Y1.4317
X-2.2984Y2.269
X-2.2947Y-1.9906
X-2.2894Y1.5643
X-2.2642Y2.1134
X-2.2453Y-0.2888
X-2.2409Y1.8622
X-2.2264Y0.6195
X-2.2144Y1.0534
X-2.1969Y1.6411
X-2.1845Y2.9011
X-2.1772Y1.6903
X-2.1654Y1.7317
X-2.1648Y-0.8922
X-2.1608Y-1.3312
X-2.1569Y2.2928
X-2.151Y3.0783
X-2.143Y1.2257
X-2.1411Y0.7653
X-2.1215Y-1.1324
X-2.1102Y0.2238
X-2.1057Y-1.6363
X-2.0955Y-0.4457
X-2.0918Y1.0775
X-2.0839Y2.033
X-2.0545Y1.4188
X-2.0355Y-0.3329
X-2.0034Y-0.1717
X-2.0014Y-2.0969
X-1.9968Y0.6218
X-1.9915Y1.3598
X-1.9766Y-1.9405
X-1.9747Y1.1873
X-1.972Y-0.8538
X-1.9644Y-1.0816
X-1.9632Y2.033
X-1.9571Y2.1749
X-1.9523Y2.2813
X-1.9491Y-0.4239
X-1.9155Y0.7198
X-1.901Y1.4542
X-1.8833Y0.0979
X-1.8695Y2.6826
X-1.8695Y1.7495
X-1.8635Y0.5784
X-1.854Y-0.8953
X-1.851Y-1.084
X-1.8498Y3.1096
X-1.8361Y2.0311
X-1.8276Y0.8124
X-1.8262Y1.3834
X-1.8118Y-2.0578
X-1.8065Y-0.3568
X-1.7848Y-1.719
X-1.7829Y1.0212
X-1.7642Y2.1048
X-1.7632Y1.7495
X-1.7435Y2.8913
X-1.74Y2.2808
X-1.7343Y0.7298
X-1.7099Y0.0085
X-1.7087Y1.2197
X-1.7061Y-0.5458
X-1.6987Y2.66
X-1.6763Y0.4232
X-1.6746Y3.1078
X-1.6611Y0.2448
X-1.6514Y2.0669
X-1.6473Y2.3269
X-1.6372Y-1.2347
X-1.636Y2.1904
X-1.6175Y-0.9946
X-1.6175Y-1.5044
X-1.6173Y1.75
X-1.6068Y1.9913
X-1.6048Y1.4158
X-1.5876Y0.6615
X-1.5821Y-0.6757
X-1.5742Y2.9424
X-1.5627Y2.0824
X-1.5546Y1.3598
X-1.5344Y2.2213
X-1.5317Y1.0436
X-1.5184Y0.9118
X-1.5088Y2.1331
X-1.5074Y0.7339
X-1.4837Y-0.2918
X-1.4647Y1.7621
X-1.4364Y3.1275
X-1.4132Y2.2236
X-1.4095Y-1.6085
X-1.405Y-1.4877
X-1.3997Y0.9279
X-1.3892Y0.2362
X-1.3833Y2.8105
X-1.3734Y-0.5005
X-1.3642Y2.3181
X-1.3303Y1.3027
X-1.3233Y0.1749
X-1.3183Y2.1157
X-1.3183Y-2.0733
X-1.3156Y1.4795
X-1.3124Y0.6982
X-1.2886Y0.8548
X-1.2663Y2.9179
X-1.255Y-0.8883
X-1.2208Y-1.0114
X-1.2199Y-0.0143
X-1.212Y1.0409
X-1.1987Y-1.4702
X-1.1869Y0.5643
X-1.1589Y-0.0969
X-1.1507Y-0.2853
X-1.1372Y-0.4434
X-1.1328Y1.3183
X-1.1254Y2.97
X-1.1248Y-1.6337
X-1.1233Y-0.9281
X-1.1157Y1.4847
X-1.1116Y1.7515
X-1.0978Y2.2102
X-1.093Y-1.468
X-1.0447Y1.2806
X-1.0348Y1.0605
X-1.0348Y-0.0162
X-0.9915Y2.1117
X-0.9817Y3.1117
X-0.9402Y0.5709
X-0.9314Y-1.0865
X-0.9167Y-1.6087
X-0.9089Y2.2062
X-0.8931Y-2.0418
X-0.8735Y1.7493
X-0.8525Y0.2337
X-0.8498Y0.7141
X-0.8395Y-0.4393
X-0.838Y2.1117
X-0.8107Y0.0232
X-0.8104Y2.033
X-0.8065Y2.9227
X-0.775Y-1.3332
X-0.7625Y2.3133
X-0.7593Y0.5842
X-0.7593Y-0.282
X-0.7408Y2.6561
X-0.7356Y-0.1107
X-0.7317Y1.7515
X-0.7224Y0.9093
X-0.7219Y-0.7367
X-0.716Y3.0172
X-0.7158Y0.2405
X-0.712Y2.2062
X-0.7037Y1.2823
X-0.6977Y1.0421
X-0.6926Y2.0772
X-0.6851Y0.0639
X-0.6728Y-0.9082
X-0.6691Y2.1247
X-0.6309Y0.628
X-0.6187Y2.0328
X-0.6163Y1.4834
X-0.6156Y-0.1166
X-0.6098Y0.5641
X-0.6002Y1.7713
X-0.59Y0.1846
X-0.5746Y0.6582
X-0.5547Y-0.9377
X-0.5464Y-1.4696
X-0.5421Y0.6269
X-0.5324Y1.7646
X-0.5307Y0.7223
X-0.5211Y0.3046
X-0.4807Y2.036
X-0.4679Y-0.3213
X-0.4364Y0.6314
X-0.4305Y2.1275
X-0.4188Y1.7843
X-0.4094Y0.5621
X-0.3813Y1.4323
X-0.3754Y2.2062
X-0.3734Y2.6511
X-0.3569Y0.2675
X-0.3509Y-1.663
X-0.3504Y1.6962
X-0.3301Y-0.5753
X-0.327Y0.7682
X-0.3244Y0.5785
X-0.3226Y1.0526
X-0.2906Y1.2806
X-0.2877Y0.2504
X-0.2747Y2.3218
X-0.2593Y-0.8509
X-0.2396Y-0.0654
X-0.2278Y3.1373
X-0.2238Y2.9127
X-0.2182Y0.6623
X-0.1929Y2.0432
X-0.1923Y-0.1914
X-0.1728Y2.1256
X-0.1706Y-0.3534
X-0.1692Y0.0788
X-0.1618Y0.2493
X-0.1549Y2.6668
X-0.1526Y-2.1238
X-0.1358Y1.2769
X-0.1293Y0.5861
X-0.0743Y0.0819
X-0.0695Y-1.6621
X-0.0671Y1.7733
X-0.0596Y-0.3012
X-0.0549Y1.0627
X-0.0545Y2.1708
X-0.0475Y-2.0822
X-0.0472Y1.1113
X-0.0204Y1.1411
X-0.0151Y1.8672
X-0.0112Y-0.1875
X-0.0053Y-0.5241
X0.0012Y0.25
X0.0124Y1.8519
X0.0206Y1.4289
X0.0464Y2.6531
X0.0478Y2.0054
X0.0512Y2.8219
X0.0534Y0.9557
X0.0568Y2.9462
X0.0587Y1.4568
X0.0675Y1.8048
X0.0754Y-1.0064
X0.0811Y1.5007
X0.0872Y0.7416
X0.0948Y1.2821
X0.0962Y1.9661
X0.1018Y-0.2844
X0.1035Y-0.1948
X0.1073Y-1.2593
X0.1148Y1.6413
X0.1278Y2.9454
X0.1326Y1.9323
X0.1384Y-1.971
X0.1414Y1.8213
X0.1531Y1.1908
X0.1659Y0.1117
X0.1662Y0.9659
X0.1738Y-0.6835
X0.1793Y-1.1722
X0.1797Y2.9285
X0.1835Y1.3439
X0.1852Y1.2821
X0.1974Y-0.1245
X0.198Y2.8674
X0.1981Y1.4168
X0.1994Y2.9582
X0.2008Y1.8614
X0.2014Y0.7298
X0.2124Y2.6112
X0.2178Y-0.4653
X0.2262Y0.5701
X0.2264Y1.6785
X0.2341Y1.3217
X0.2398Y1.8231
X0.2433Y1.3547
X0.2447Y1.8676
X0.2472Y1.9341
X0.2662Y1.6466
X0.2709Y1.4497
X0.2742Y1.299
X0.278Y0.1716
X0.2959Y2.1472
X0.3131Y1.2951
X0.3139Y1.8552
X0.3154Y-0.0221
X0.3413Y1.6809
X0.3413Y1.6091
X0.3413Y1.5008
X0.3413Y1.4509
X0.3504Y1.3222
X0.3764Y1.3431
X0.3974Y1.9335
X0.4022Y1.4784
X0.4023Y0.9113
X0.4043Y0.1707
X0.4092Y1.6436
X0.4094Y-1.6612
X0.4199Y1.3588
X0.4202Y0.5684
X0.4228Y-1.5605
X0.4285Y-1.207
X0.4317Y2.7594
X0.4432Y0.2574
X0.4584Y-1.0512
X0.4632Y3.0783
X0.4773Y1.2138
X0.4897Y0.7827
X0.497Y0.745
X0.5091Y0.2574
X0.5124Y1.8322
X0.5185Y1.4511
X0.542Y1.3183
X0.5575Y1.5062
X0.5645Y-0.6158
X0.5649Y-1.0317
X0.5731Y-1.4834
X0.5754Y2.6196
X0.5775Y1.3159
X0.5812Y0.5646
X0.6148Y0.1314
X0.6592Y1.2314
X0.662Y1.8322
X0.6674Y-1.4379
X0.6679Y-0.0221
X0.6726Y1.6057
X0.6788Y1.448
X0.719Y0.9848
X0.7268Y-0.6936
X0.7362Y1.4996
X0.7423Y-1.654
X0.7441Y1.6855
X0.7585Y2.7476
X0.7611Y1.9555
X0.7745Y2.0657
X0.7959Y1.9267
X0.7959Y1.8562
X0.7959Y1.8283
X0.8077Y0.8598
X0.8175Y2.1688
X0.8422Y1.6002
X0.8478Y1.9586
X0.8483Y0.9354
X0.8628Y-0.4276
X0.8825Y1.2259
X0.91Y3.159
X0.9267Y1.9329
X0.9268Y1.6831
X0.9286Y1.8347
X0.9317Y2.0657
X0.9351Y0.3475
X0.9473Y-1.3225
X0.9484Y2.3216
X0.9553Y2.9443
X0.9618Y0.2313
X0.9721Y1.8566
X0.9789Y1.4655
X0.9953Y-0.1454
X1.0055Y1.8321
X1.0085Y2.7357
X1.0157Y2.169
X1.0172Y0.2865
X1.0187Y2.0325
X1.0215Y1.9281
X1.0476Y1.7889
X1.0522Y1.6853
X1.0557Y0.9661
X1.0589Y1.6021
X1.0636Y0.5172
X1.0754Y0.1432
X1.0861Y2.104
X1.0911Y1.8539
X1.107Y2.4912
X1.1171Y3.1605
X1.1463Y-1.9946
X1.1642Y1.9299
X1.1874Y1.7747
X1.1876Y0.409
X1.1935Y0.9227
X1.206Y2.0983
X1.2063Y1.1829
X1.2325Y2.4684
X1.2391Y2.3647
X1.2421Y1.517
X1.2447Y-1.7741
X1.251Y-0.7965
X1.2562Y-1.2476
X1.2604Y-1.5424
X1.2604Y-0.3961
X1.2617Y2.2987
X1.2754Y1.6883
X1.2762Y1.0999
X1.2955Y2.403
X1.309Y1.8781
X1.332Y1.5144
X1.3373Y2.3869
X1.341Y-1.6299
X1.347Y1.3873
X1.3769Y1.6517
X1.4029Y2.386
X1.4122Y3.1631
X1.4222Y-1.3011
X1.4238Y-1.0583
X1.4246Y-0.8333
X1.4366Y1.6884
X1.4587Y2.4772
X1.4611Y0.1041
X1.4834Y1.5399
X1.4871Y-0.6108
X1.5163Y1.1472
X1.5223Y-1.5718
X1.5537Y2.8499
X1.5655Y3.1235
X1.5887Y-0.7029
X1.5937Y1.4092
X1.5951Y0.5015
X1.6024Y1.6943
X1.6145Y-1.025
X1.6158Y-1.9375
X1.6574Y1.4841
X1.6707Y-0.1933
X1.6869Y1.4835
X1.6929Y-1.7621
X1.7014Y1.7013
X1.7041Y2.7127
X1.7132Y1.6019
X1.7243Y1.4825
X1.7526Y3.1314
X1.7939Y-0.032
X1.8036Y1.1461
X1.8043Y1.3748
X1.811Y-1.7654
X1.8543Y2.7538
X1.8549Y1.4582
X1.9253Y2.4727
X1.9337Y-0.6599
X1.936Y-1.7668
X1.9376Y0.4897
X1.9475Y1.7824
X1.9592Y2.604
X2.0066Y-2.0858
X2.0321Y-1.0773
X2.036Y1.4621
X2.0537Y1.5763
X2.056Y2.2885
X2.0677Y1.1789
X2.0692Y2.5191
X2.0851Y1.6953
X2.1105Y0.1053
X2.1463Y-1.0773
X2.1611Y2.4653
X2.1819Y2.1569
X2.1974Y1.783
X2.2005Y1.4793
X2.2078Y2.018
X2.225Y-0.6521
X2.2573Y2.4659
X2.2668Y2.386
X2.2672Y2.0992
X2.2919Y-0.341
X2.3218Y1.8463
X2.3399Y1.1834
X2.3496Y-1.7668
X2.3515Y2.4718
X2.3569Y1.3893
X2.3667Y-1.9138
X2.3961Y2.312
X2.3992Y1.5833
X2.4317Y0.3991
X2.4345Y1.8472
X2.4513Y2.3922
X2.4717Y2.3445
X2.4727Y2.4691
X2.5006Y3.1413
X2.5107Y-1.0104
X2.5157Y1.5624
X2.5281Y-0.598
X2.5328Y-0.4674
X2.5521Y-0.1896
X2.5571Y1.6706
X2.5577Y0.1514
X2.5638Y2.4241
X2.5676Y1.7864
X2.5709Y1.3524
X2.5784Y1.1033
X2.5858Y1.603
X2.5904Y0.3538
X2.5911Y2.6885
X2.5947Y3.0474
X2.599Y-1.7544
X2.5994Y2.9143
X2.6089Y-0.3115
X2.6266Y1.9761
X2.6289Y2.3342
X2.6309Y2.1673
X2.6442Y2.493
X2.6725Y1.2538
X2.6732Y1.7552
X2.6772Y0.9915
X2.6777Y-1.2505
X2.6797Y0.0743
X2.6801Y1.5449
X2.6973Y2.3275
X2.6974Y2.3555
X2.7021Y-0.8545
X2.7033Y0.3362
X2.7303Y-0.4572
X2.7303Y1.6569
X2.7403Y2.4791
X2.7447Y1.3105
X2.7485Y1.8729
X2.7539Y0.9521
X2.7638Y0.7907
X2.7644Y-1.6363
X2.7683Y0.3991
X2.7685Y0.5165
X2.7857Y2.0891
X2.7875Y1.1122
X2.8195Y-1.9788
X2.8293Y0.2574
X2.8307Y0.9423
X2.8352Y-0.2768
X2.8428Y2.4785
X2.8489Y-0.5345
X2.849Y0.1078
X2.8628Y-1.5576
X2.8679Y0.6213
X2.8687Y1.5665
X2.8923Y-0.0694
X2.905Y2.1719
X2.912Y-1.7702
X2.935Y1.6136
X2.9396Y0.3637
X2.9447Y2.4761
X2.9739Y0.7178
X2.9743Y1.7819
X2.9809Y1.9267
X2.9834Y0.4971
X2.9909Y2.2732
X2.9941Y1.5722
X2.9992Y1.122
X3.0026Y0.9385
X3.0183Y-0.4158
X3.0237Y0.7811
X3.0279Y2.1554
X3.0288Y2.4772
X3.042Y2.9158
X3.0681Y0.5715
X3.0701Y-0.2735
X3.0886Y1.8183
X3.1056Y2.279
X3.1203Y0.8671
X3.1266Y1.7987
X3.1284Y0.351
X3.1341Y2.5747
X3.1346Y1.1229
X3.1459Y0.1289
X3.1486Y1.6909
X3.1551Y0.6617
X3.162Y0.9444
X3.1777Y1.3775
X3.1896Y-0.8528
X3.1902Y2.1639
X3.2047Y2.483
X3.2191Y0.4255
X3.2355Y1.5995
X3.2388Y-1.3745
X3.2447Y0.746
X3.2552Y1.6946
X3.2693Y0.2109
X3.2701Y-0.2823
X3.2889Y2.8648
X3.289Y-1.6225
X3.2953Y-0.4198
X3.3044Y1.1751
X3.3053Y2.284
X3.3064Y2.4783
X3.3105Y1.479
X3.3263Y-1.7562
X3.3431Y-0.6875
X3.347Y1.6039
X3.3518Y1.9827
X3.3532Y0.8314
X3.3536Y0.1301
X3.381Y1.7047
X3.3841Y-1.4085
X3.3904Y3.0459
X3.3908Y2.8728
X3.3944Y1.1196
X3.3992Y0.2385
X3.4061Y2.5251
X3.4175Y-0.2835
X3.422Y1.8095
X3.4277Y3.1649
X3.433Y0.0759
X3.4394Y-1.0448
X3.4422Y1.3917
X3.4485Y-1.7923
X3.4508Y-2.1243
X3.4546Y1.6018
X3.4547Y-1.5844
X3.475Y-0.0773
X3.4843Y2.1608
X3.4859Y1.4614
X3.4999Y-0.5453
X3.5211Y1.718
X3.526Y-0.9662
X3.5518Y-1.4442
X3.5525Y0.2288
X3.5536Y1.1137
X3.558Y-1.7911
X3.5734Y3.1078
X3.5872Y-0.7229
X3.5973Y1.8065
X3.6047Y-0.476
X3.6118Y0.8241
X3.6142Y1.6293
X3.6232Y1.581
X3.626Y1.067
X3.6266Y-2.1599
X3.6326Y-0.2014
X3.6446Y-1.9153
X3.6594Y1.4384
X3.6654Y1.8222
X3.6679Y2.8972
X3.6726Y2.5174
X3.6738Y3.1078
X3.6744Y1.2743
X3.6766Y2.4784
X3.6804Y1.1005
X3.6885Y0.7002
X3.6896Y1.2062
X3.6953Y2.2948
X3.7144Y0.4326
X3.7289Y-0.0499
X3.73Y0.2877
X3.7364Y0.7005
X3.7452Y2.7093
X3.7454Y1.4588
X3.7666Y0.8436
X3.7683Y3.1176
X3.7821Y1.2911
X3.784Y-0.0118
X3.786Y1.0881
X3.788Y1.2062
X3.7919Y2.6379
X3.7983Y2.2475
X3.7985Y2.2104
X3.8063Y-0.2784
X3.8091Y2.0945
X3.8101Y0.0761
X3.8136Y-0.6935
X3.8141Y0.5158
X3.825Y0.7296
X3.8313Y-1.0418
X3.8398Y1.6562
X3.8399Y0.4305
X3.8485Y2.6379
X3.8515Y-0.0201
X3.8627Y0.6403
X3.8703Y1.5711
X3.8848Y-0.1953
X3.888Y-0.5441
X3.8937Y0.084
X3.949Y1.8418
X3.9553Y2.535
X3.9625Y-0.1225
X3.9629Y0.5434
X3.9639Y0.5028
X3.9641Y0.3879
X3.9659Y1.4582
X3.9671Y2.6432
X3.9691Y-0.6501
X3.9711Y-0.5024
X3.9771Y0.2588
X3.9809Y2.8991
X3.9927Y3.1216
X3.9994Y1.3367
X4.0116Y0.4436
X4.0125Y2.7288
X4.0285Y-0.0537
X4.0315Y0.843
X4.034Y2.5507
X4.038Y2.1767
X4.0398Y0.5434
X4.0419Y1.1491
X4.0609Y-0.3682
X4.0665Y0.0272
X4.068Y0.407
X4.0736Y0.1484
X4.1184Y0.0271
X4.1194Y0.1506
X4.1367Y2.4849
X4.1438Y2.2787
X4.1471Y1.4916
X4.1512Y0.2888
X4.1522Y1.1039
X4.1761Y1.8171
X4.1818Y0.8418
X4.1827Y0.9334
X4.186Y-0.3249
X4.1929Y0.1025
X4.2007Y-0.2326
X4.225Y2.6235
X4.2329Y2.4789
X4.2368Y1.3165
X4.2378Y-0.195
X4.2401Y0.9334
X4.2409Y2.2975
X4.2583Y0.177
X4.2841Y-0.1456
X4.2943Y-0.5781
X4.3194Y1.7622
X4.3196Y-0.3095
X4.3246Y0.4064
X4.3277Y1.6528
X4.3724Y1.7052
X4.3816Y-0.0481
X4.394Y0.2988
X4.4417Y-0.2342
X4.4421Y-0.4355
X4.4573Y-0.0536
X4.4648Y0.5474
X4.4664Y0.375
X4.4679Y0.7292
X4.4736Y0.0447
X4.4766Y1.7585
X4.4889Y1.8626
X4.5183Y2.5487
X4.5199Y1.1945
X4.5249Y2.2892
X4.53Y0.1973
X4.5347Y1.2383
X4.5434Y2.378
X4.5789Y-0.23
X4.5926Y0.67
X4.5939Y0.506
X4.5959Y0.3442
X4.602Y2.3316
X4.6246Y3.0704
X4.6258Y0.3798
X4.6267Y0.2841
X4.6278Y2.483
X4.6305Y1.6865
X4.6377Y-0.6217
X4.6617Y0.3185
X4.662Y1.3165
X4.6624Y0.8203
X4.6699Y-1.1993
X4.6913Y2.2909
X4.7042Y2.3387
X4.7077Y-2.0167
X4.7082Y-1.6327
X4.7322Y1.1151
X4.7355Y1.1594
X4.7469Y-1.0453
X4.7544Y0.1848
X4.7544Y-0.2295
X4.7601Y2.1502
X4.7648Y0.3528
X4.7666Y1.1894
X4.7671Y-0.7686
X4.7754Y0.7285
X4.7799Y0.856
X4.7959Y1.7298
X4.8005Y0.8206
X4.8015Y-1.2902
X4.8153Y0.9465
X4.8175Y2.5369
X4.8223Y2.3409
X4.8231Y2.3148
X4.8424Y2.7451
X4.8567Y1.2541
X4.8657Y1.1075
X4.867Y2.0605
X4.887Y-1.1732
X4.8904Y-1.0668
X4.892Y1.0114
X4.8947Y0.1135
X4.8993Y-0.4872
X4.9023Y-0.0826
X4.904Y1.1379
X4.9041Y-0.5838
X4.9041Y-0.7222
X4.9179Y-1.5654
X4.9186Y1.8723
X4.9204Y0.6761
X4.9233Y-2.2367
X4.9254Y-0.936
X4.9264Y0.3756
X4.9406Y1.3325
X4.9636Y2.7138
X4.9825Y-0.3098
X4.9846Y-1.058
X4.9914Y-1.3734
X4.9982Y-1.2785
X5.0077Y-2.0682
X5.0091Y-0.8686
X5.0173Y2.0076
X5.0205Y0.2463
X5.0262Y0.4376
X5.0276Y-0.5242
X5.0285Y1.4602
X5.0312Y1.08
X5.0524Y-0.5416
X5.0636Y2.7127
X5.0674Y1.8536
X5.0714Y1.7377
X5.0745Y-1.9501
X5.0748Y-0.7152
X5.0795Y2.1365
X5.0904Y1.2535
X5.0949Y0.4379
X5.1029Y-1.0662
X5.1042Y-1.1708
X5.1115Y-0.7292
X5.115Y-0.9231
X5.1275Y1.4651
X5.1281Y-1.2823
X5.1306Y-1.3753
X5.1395Y1.0291
X5.1434Y-0.5072
X5.155Y-0.6645
X5.1569Y1.5823
X5.1648Y0.6791
X5.1675Y2.7127
X5.1723Y-0.5552
X5.1737Y-1.7803
X5.1737Y2.0315
X5.2008Y1.2517
X5.2091Y0.2476
X5.2313Y-0.4961
X5.232Y-0.834
X5.2653Y2.7105
X5.2663Y2.2889
X5.2813Y-1.6428
X5.2866Y-1.2804
X5.2901Y-1.3742
X5.2908Y-0.4366
X5.2997Y-1.1193
X5.3195Y2.3696
X5.3468Y-0.398
X5.3508Y0.311
X5.3522Y-0.2879
X5.3703Y0.5045
X5.3705Y-0.3311
X5.3999Y2.0621
X5.4005Y-0.331
X5.4115Y-1.0563
X5.4121Y-0.7508
X5.4143Y-0.167
X5.4238Y1.092
X5.4263Y1.4913
X5.427Y0.1833
X5.4278Y-0.0142
X5.4301Y-0.9436
X5.4431Y-1.2449
X5.4508Y-1.0956
X5.4843Y-1.1529
X5.4902Y-0.8766
X5.492Y1.7685
X5.4923Y1.2455
X5.4952Y1.5893
X5.4961Y-0.9416
X5.4973Y1.4912
X5.4978Y2.2653
X5.4991Y0.8518
X5.5008Y2.5612
X5.5028Y-1.4486
X5.5068Y2.0966
X5.5142Y-1.3208
X5.5236Y-0.664
X5.5262Y0.2653
X5.5359Y0.6787
X5.5634Y-0.437
X5.5646Y2.705
X5.5781Y-1.3522
X5.5813Y0.0231
X5.5862Y-2.218
X5.5947Y2.622
X5.5997Y2.4436
X5.6098Y-1.2546
X5.6125Y2.0893
X5.6146Y3.1687
X5.6225Y-0.8676
X5.623Y-1.0033
X5.6575Y1.2865
X5.66Y2.9759
X5.664Y2.7751
X5.6679Y1.3919
X5.67Y0.8024
X5.6711Y1.8509
X5.6764Y2.6019
X5.677Y2.5536
X5.6796Y-1.3982
X5.682Y-0.1358
X5.6831Y-0.7053
X5.6841Y-0.7358
X5.6908Y-1.02
X5.6966Y-0.8688
X5.7053Y1.0015
X5.7077Y2.2326
X5.716Y0.4694
X5.7163Y0.552
X5.7228Y2.0982
X5.727Y2.035
X5.7299Y1.6384
X5.7299Y2.5669
X5.7374Y-1.5746
X5.7419Y1.9194
X5.7427Y0.2633
X5.7466Y0.1176
X5.7512Y1.1617
X5.752Y-0.542
X5.7565Y2.0645
X5.7602Y-1.4423
X5.7633Y1.8711
X5.7766Y1.9658
X5.7774Y-1.0252
X5.784Y-1.9788
X5.7863Y-1.1507
X5.7874Y-1.32
X5.7884Y2.0313
X5.7894Y2.0973
X5.7913Y-0.2883
X5.7992Y-0.6935
X5.8014Y1.1791
X5.805Y1.2218
X5.8092Y-1.2003
X5.8137Y-0.8285
X5.816Y-1.6589
X5.8294Y2.0079
X5.8352Y2.5546
X5.8603Y-2.2411
X5.862Y1.4067
X5.8686Y3.1504
X5.8692Y1.622
X5.8696Y1.2687
X5.8823Y0.4767
X5.894Y-1.2342
X5.8967Y-1.4074
X5.8982Y2.7928
X5.8983Y2.1664
X5.9041Y2.3027
X5.9072Y0.5829
X5.9073Y1.067
X5.914Y0.472
X5.9258Y1.8676
X5.9392Y-1.1247
X5.9404Y0.5356
X5.9494Y0.8105
X5.9741Y-0.9917
X5.9756Y1.201
X5.9786Y-0.0773
X5.9794Y1.4094
X5.9801Y1.3025
X5.9961Y1.2215
X6.0004Y2.0157
X6.0031Y2.8577
X6.0217Y2.958
X6.0286Y-1.1349
X6.0457Y-1.4404
X6.0509Y-0.8991
X6.0797Y0.7489
X6.0812Y-1.2043
X6.0846Y-0.4985
X6.0851Y1.7699
X6.0861Y-1.3273
X6.1266Y-2.129
X6.1349Y2.0137
X6.1367Y-0.9776
X6.1384Y-1.1402
X6.1717Y0.5087
X6.1747Y-1.3217
X6.1757Y-0.0773
X6.1896Y1.1983
X6.1974Y2.2672
X6.2048Y-0.6891
X6.23Y-0.8941
X6.2427Y2.8853
X6.2455Y1.3676
X6.2466Y0.8457
X6.2509Y1.0392
X6.2537Y0.4614
X6.2654Y-1.1125
X6.2756Y-1.5715
X6.2894Y-1.006
X6.3095Y-0.8143
X6.3096Y2.2062
X6.3099Y-0.7626
X6.3459Y-1.8745
X6.3608Y2.3637
X6.3802Y1.943
X6.3881Y1.2346
X6.3882Y-0.7245
X6.3883Y-0.3025
X6.3892Y0.7383
X6.3892Y0.3447
X6.3896Y-0.0886
X6.3986Y2.4887
X6.4129Y-1.1631
X6.4159Y-0.9219
T2
X-2.6673Y0.8776
X0.7169Y3.1391
X3.9072Y-0.6225
X3.9624Y0.0908
X4.2033Y1.5113
X5.0144Y1.3086
X5.0499Y0.9837
X5.3668Y-0.7733
X5.7723Y-2.1538
X5.865Y-1.069
T3
X-1.969Y1.6531
X-1.969Y1.5531
X-1.869Y1.6531
X-1.869Y1.5531
X-1.769Y1.5531
X-1.769Y1.6531
X-1.669Y1.6531
X-1.669Y1.5531
X-1.569Y1.6531
X-1.569Y1.5531
X-1.469Y1.6531
X-1.469Y1.5531
X-1.369Y1.6531
X-1.369Y1.5531
X-1.269Y1.6531
X-1.269Y1.5531
X-1.169Y1.6531
X-1.169Y1.5531
X-1.069Y1.6531
X-1.069Y1.5531
X-0.969Y1.6531
X-0.969Y1.5531
X-0.869Y1.5531
X-0.869Y1.6531
X-0.769Y1.6531
X-0.769Y1.5531
X-0.669Y1.6531
X-0.669Y1.5531
X-0.569Y1.6531
X-0.569Y1.5531
X-0.469Y1.5531
X-0.469Y1.6531
X-0.369Y1.6531
X-0.369Y1.5531
X-0.269Y1.6531
X-0.269Y1.5531
X-0.169Y1.6531
X-0.169Y1.5531
X-0.069Y1.6531
X-0.069Y1.5531
X4.2915Y1.4594
X4.3415Y1.094
X4.3915Y1.4594
X4.4415Y1.094
X4.4915Y1.4594
X4.5415Y1.094
X4.5915Y1.4594
X4.6415Y1.094
X4.6915Y1.4594
T4
X-1.9652Y1.9484
X-1.9652Y1.8484
X-1.8652Y1.9484
X-1.8652Y1.8484
X-1.7652Y1.9484
X-1.7652Y1.8484
X-1.6652Y1.9484
X-1.6652Y1.8484
X-1.5652Y1.9484
X-1.5652Y1.8484
X-1.4652Y1.9484
X-1.4652Y1.8484
X-1.3652Y1.9484
X-1.3652Y1.8484
X-1.2652Y1.9484
X-1.2652Y1.8484
X-1.1652Y1.9484
X-1.1652Y1.8484
X-1.0652Y1.9484
X-1.0652Y1.8484
X-0.9652Y1.9484
X-0.9652Y1.8484
X-0.8652Y1.9484
X-0.8652Y1.8484
X-0.7652Y1.9484
X-0.7652Y1.8484
X-0.6652Y1.9484
X-0.6652Y1.8484
X-0.5652Y1.9484
X-0.5652Y1.8484
X-0.4652Y1.9484
X-0.4652Y1.8484
X-0.3652Y1.9484
X-0.3652Y1.8484
X-0.2652Y1.9484
X-0.2652Y1.8484
X-0.1652Y1.9484
X-0.1652Y1.8484
X-0.1242Y3.0328
X-0.1242Y2.9328
X-0.1242Y2.8328
X-0.1242Y2.7328
X-0.0652Y1.9484
X-0.0652Y1.8484
X-0.0242Y3.0328
X-0.0242Y2.9328
X-0.0242Y2.8328
X-0.0242Y2.7328
X3.4971Y3.0183
X3.4971Y2.9183
X3.4971Y2.8183
X3.4971Y2.7183
X3.5971Y3.0183
X3.5971Y2.9183
X3.5971Y2.8183
X3.5971Y2.7183
X5.7331Y3.0275
X5.7331Y2.9275
X5.7331Y2.8275
X5.7331Y2.7275
X5.8331Y3.0275
X5.8331Y2.9275
X5.8331Y2.8275
X5.8331Y2.7275
T5
X-2.4665Y2.0171
X-2.4665Y1.7218
X4.6723Y0.6712
X4.6723Y0.3759
X4.9406Y-1.1626
X5.1376Y-1.8527
X5.1376Y-2.0527
X5.2359Y-1.1626
X5.2376Y-1.8527
X5.2376Y-2.0527
X5.3376Y-1.8527
X5.3376Y-2.0527
X5.4376Y-1.8527
X5.4376Y-2.0527
X5.9777Y0.3423
X5.9777Y0.2423
X5.9777Y0.1423
X5.9777Y0.0423
X5.9835Y1.7959
X5.9835Y1.6959
X5.9835Y1.5959
X5.9835Y1.4959
X5.9842Y-0.3177
X5.9842Y-0.4177
X5.9842Y-0.5177
X5.9842Y-0.6177
X6.1777Y0.3423
X6.1777Y0.2423
X6.1777Y0.1423
X6.1777Y0.0423
X6.1835Y1.7959
X6.1835Y1.6959
X6.1835Y1.5959
X6.1835Y1.4959
X6.1842Y-0.3177
X6.1842Y-0.4177
X6.1842Y-0.5177
X6.1842Y-0.6177
T6
X-2.1372Y2.7338
X-2.1372Y2.1432
X0.1266Y2.7338
X0.1266Y2.1432
T7
X-2.5171Y2.842
X-2.4921Y0.4285
X-2.4719Y-1.656
X1.2683Y2.9109
X6.0518Y-1.8332
X6.1305Y2.596
M30
