%TF.GenerationSoftware,KiCad,Pcbnew,7.0.8-7.0.8~ubuntu22.04.1*%
%TF.CreationDate,2023-12-07T10:59:45+01:00*%
%TF.ProjectId,mothbeam_panel,6d6f7468-6265-4616-9d5f-70616e656c2e,rev?*%
%TF.SameCoordinates,Original*%
%TF.FileFunction,Other,Comment*%
%FSLAX46Y46*%
G04 Gerber Fmt 4.6, Leading zero omitted, Abs format (unit mm)*
G04 Created by KiCad (PCBNEW 7.0.8-7.0.8~ubuntu22.04.1) date 2023-12-07 10:59:45*
%MOMM*%
%LPD*%
G01*
G04 APERTURE LIST*
%ADD10C,0.400000*%
%ADD11C,0.150000*%
G04 APERTURE END LIST*
D10*
X109500000Y-102000000D02*
X187500000Y-102000000D01*
X159500000Y-17000000D02*
X159500000Y-184000000D01*
X134500000Y-17000000D02*
X134500000Y-184000000D01*
X109500000Y-172000000D02*
X187500000Y-172000000D01*
X137500000Y-17000000D02*
X137500000Y-184000000D01*
X109500000Y-99000000D02*
X187500000Y-99000000D01*
X109500000Y-29000000D02*
X187500000Y-29000000D01*
X162500000Y-17000000D02*
X162500000Y-184000000D01*
X190953633Y-170904438D02*
X191620299Y-172904438D01*
X191620299Y-172904438D02*
X192286966Y-170904438D01*
X192953633Y-172142533D02*
X194477443Y-172142533D01*
X196572680Y-172713961D02*
X196477442Y-172809200D01*
X196477442Y-172809200D02*
X196191728Y-172904438D01*
X196191728Y-172904438D02*
X196001252Y-172904438D01*
X196001252Y-172904438D02*
X195715537Y-172809200D01*
X195715537Y-172809200D02*
X195525061Y-172618723D01*
X195525061Y-172618723D02*
X195429823Y-172428247D01*
X195429823Y-172428247D02*
X195334585Y-172047295D01*
X195334585Y-172047295D02*
X195334585Y-171761580D01*
X195334585Y-171761580D02*
X195429823Y-171380628D01*
X195429823Y-171380628D02*
X195525061Y-171190152D01*
X195525061Y-171190152D02*
X195715537Y-170999676D01*
X195715537Y-170999676D02*
X196001252Y-170904438D01*
X196001252Y-170904438D02*
X196191728Y-170904438D01*
X196191728Y-170904438D02*
X196477442Y-170999676D01*
X196477442Y-170999676D02*
X196572680Y-171094914D01*
X197429823Y-170904438D02*
X197429823Y-172523485D01*
X197429823Y-172523485D02*
X197525061Y-172713961D01*
X197525061Y-172713961D02*
X197620299Y-172809200D01*
X197620299Y-172809200D02*
X197810775Y-172904438D01*
X197810775Y-172904438D02*
X198191728Y-172904438D01*
X198191728Y-172904438D02*
X198382204Y-172809200D01*
X198382204Y-172809200D02*
X198477442Y-172713961D01*
X198477442Y-172713961D02*
X198572680Y-172523485D01*
X198572680Y-172523485D02*
X198572680Y-170904438D01*
X199239347Y-170904438D02*
X200382204Y-170904438D01*
X199810775Y-172904438D02*
X199810775Y-170904438D01*
X161404438Y-13546366D02*
X163404438Y-12879700D01*
X163404438Y-12879700D02*
X161404438Y-12213033D01*
X162642533Y-11546366D02*
X162642533Y-10022557D01*
X163213961Y-7927319D02*
X163309200Y-8022557D01*
X163309200Y-8022557D02*
X163404438Y-8308271D01*
X163404438Y-8308271D02*
X163404438Y-8498747D01*
X163404438Y-8498747D02*
X163309200Y-8784462D01*
X163309200Y-8784462D02*
X163118723Y-8974938D01*
X163118723Y-8974938D02*
X162928247Y-9070176D01*
X162928247Y-9070176D02*
X162547295Y-9165414D01*
X162547295Y-9165414D02*
X162261580Y-9165414D01*
X162261580Y-9165414D02*
X161880628Y-9070176D01*
X161880628Y-9070176D02*
X161690152Y-8974938D01*
X161690152Y-8974938D02*
X161499676Y-8784462D01*
X161499676Y-8784462D02*
X161404438Y-8498747D01*
X161404438Y-8498747D02*
X161404438Y-8308271D01*
X161404438Y-8308271D02*
X161499676Y-8022557D01*
X161499676Y-8022557D02*
X161594914Y-7927319D01*
X161404438Y-7070176D02*
X163023485Y-7070176D01*
X163023485Y-7070176D02*
X163213961Y-6974938D01*
X163213961Y-6974938D02*
X163309200Y-6879700D01*
X163309200Y-6879700D02*
X163404438Y-6689224D01*
X163404438Y-6689224D02*
X163404438Y-6308271D01*
X163404438Y-6308271D02*
X163309200Y-6117795D01*
X163309200Y-6117795D02*
X163213961Y-6022557D01*
X163213961Y-6022557D02*
X163023485Y-5927319D01*
X163023485Y-5927319D02*
X161404438Y-5927319D01*
X161404438Y-5260652D02*
X161404438Y-4117795D01*
X163404438Y-4689224D02*
X161404438Y-4689224D01*
X190953633Y-100904438D02*
X191620299Y-102904438D01*
X191620299Y-102904438D02*
X192286966Y-100904438D01*
X192953633Y-102142533D02*
X194477443Y-102142533D01*
X196572680Y-102713961D02*
X196477442Y-102809200D01*
X196477442Y-102809200D02*
X196191728Y-102904438D01*
X196191728Y-102904438D02*
X196001252Y-102904438D01*
X196001252Y-102904438D02*
X195715537Y-102809200D01*
X195715537Y-102809200D02*
X195525061Y-102618723D01*
X195525061Y-102618723D02*
X195429823Y-102428247D01*
X195429823Y-102428247D02*
X195334585Y-102047295D01*
X195334585Y-102047295D02*
X195334585Y-101761580D01*
X195334585Y-101761580D02*
X195429823Y-101380628D01*
X195429823Y-101380628D02*
X195525061Y-101190152D01*
X195525061Y-101190152D02*
X195715537Y-100999676D01*
X195715537Y-100999676D02*
X196001252Y-100904438D01*
X196001252Y-100904438D02*
X196191728Y-100904438D01*
X196191728Y-100904438D02*
X196477442Y-100999676D01*
X196477442Y-100999676D02*
X196572680Y-101094914D01*
X197429823Y-100904438D02*
X197429823Y-102523485D01*
X197429823Y-102523485D02*
X197525061Y-102713961D01*
X197525061Y-102713961D02*
X197620299Y-102809200D01*
X197620299Y-102809200D02*
X197810775Y-102904438D01*
X197810775Y-102904438D02*
X198191728Y-102904438D01*
X198191728Y-102904438D02*
X198382204Y-102809200D01*
X198382204Y-102809200D02*
X198477442Y-102713961D01*
X198477442Y-102713961D02*
X198572680Y-102523485D01*
X198572680Y-102523485D02*
X198572680Y-100904438D01*
X199239347Y-100904438D02*
X200382204Y-100904438D01*
X199810775Y-102904438D02*
X199810775Y-100904438D01*
X133404438Y-13546366D02*
X135404438Y-12879700D01*
X135404438Y-12879700D02*
X133404438Y-12213033D01*
X134642533Y-11546366D02*
X134642533Y-10022557D01*
X135213961Y-7927319D02*
X135309200Y-8022557D01*
X135309200Y-8022557D02*
X135404438Y-8308271D01*
X135404438Y-8308271D02*
X135404438Y-8498747D01*
X135404438Y-8498747D02*
X135309200Y-8784462D01*
X135309200Y-8784462D02*
X135118723Y-8974938D01*
X135118723Y-8974938D02*
X134928247Y-9070176D01*
X134928247Y-9070176D02*
X134547295Y-9165414D01*
X134547295Y-9165414D02*
X134261580Y-9165414D01*
X134261580Y-9165414D02*
X133880628Y-9070176D01*
X133880628Y-9070176D02*
X133690152Y-8974938D01*
X133690152Y-8974938D02*
X133499676Y-8784462D01*
X133499676Y-8784462D02*
X133404438Y-8498747D01*
X133404438Y-8498747D02*
X133404438Y-8308271D01*
X133404438Y-8308271D02*
X133499676Y-8022557D01*
X133499676Y-8022557D02*
X133594914Y-7927319D01*
X133404438Y-7070176D02*
X135023485Y-7070176D01*
X135023485Y-7070176D02*
X135213961Y-6974938D01*
X135213961Y-6974938D02*
X135309200Y-6879700D01*
X135309200Y-6879700D02*
X135404438Y-6689224D01*
X135404438Y-6689224D02*
X135404438Y-6308271D01*
X135404438Y-6308271D02*
X135309200Y-6117795D01*
X135309200Y-6117795D02*
X135213961Y-6022557D01*
X135213961Y-6022557D02*
X135023485Y-5927319D01*
X135023485Y-5927319D02*
X133404438Y-5927319D01*
X133404438Y-5260652D02*
X133404438Y-4117795D01*
X135404438Y-4689224D02*
X133404438Y-4689224D01*
X190953633Y-97904438D02*
X191620299Y-99904438D01*
X191620299Y-99904438D02*
X192286966Y-97904438D01*
X192953633Y-99142533D02*
X194477443Y-99142533D01*
X196572680Y-99713961D02*
X196477442Y-99809200D01*
X196477442Y-99809200D02*
X196191728Y-99904438D01*
X196191728Y-99904438D02*
X196001252Y-99904438D01*
X196001252Y-99904438D02*
X195715537Y-99809200D01*
X195715537Y-99809200D02*
X195525061Y-99618723D01*
X195525061Y-99618723D02*
X195429823Y-99428247D01*
X195429823Y-99428247D02*
X195334585Y-99047295D01*
X195334585Y-99047295D02*
X195334585Y-98761580D01*
X195334585Y-98761580D02*
X195429823Y-98380628D01*
X195429823Y-98380628D02*
X195525061Y-98190152D01*
X195525061Y-98190152D02*
X195715537Y-97999676D01*
X195715537Y-97999676D02*
X196001252Y-97904438D01*
X196001252Y-97904438D02*
X196191728Y-97904438D01*
X196191728Y-97904438D02*
X196477442Y-97999676D01*
X196477442Y-97999676D02*
X196572680Y-98094914D01*
X197429823Y-97904438D02*
X197429823Y-99523485D01*
X197429823Y-99523485D02*
X197525061Y-99713961D01*
X197525061Y-99713961D02*
X197620299Y-99809200D01*
X197620299Y-99809200D02*
X197810775Y-99904438D01*
X197810775Y-99904438D02*
X198191728Y-99904438D01*
X198191728Y-99904438D02*
X198382204Y-99809200D01*
X198382204Y-99809200D02*
X198477442Y-99713961D01*
X198477442Y-99713961D02*
X198572680Y-99523485D01*
X198572680Y-99523485D02*
X198572680Y-97904438D01*
X199239347Y-97904438D02*
X200382204Y-97904438D01*
X199810775Y-99904438D02*
X199810775Y-97904438D01*
X190953633Y-27904438D02*
X191620299Y-29904438D01*
X191620299Y-29904438D02*
X192286966Y-27904438D01*
X192953633Y-29142533D02*
X194477443Y-29142533D01*
X196572680Y-29713961D02*
X196477442Y-29809200D01*
X196477442Y-29809200D02*
X196191728Y-29904438D01*
X196191728Y-29904438D02*
X196001252Y-29904438D01*
X196001252Y-29904438D02*
X195715537Y-29809200D01*
X195715537Y-29809200D02*
X195525061Y-29618723D01*
X195525061Y-29618723D02*
X195429823Y-29428247D01*
X195429823Y-29428247D02*
X195334585Y-29047295D01*
X195334585Y-29047295D02*
X195334585Y-28761580D01*
X195334585Y-28761580D02*
X195429823Y-28380628D01*
X195429823Y-28380628D02*
X195525061Y-28190152D01*
X195525061Y-28190152D02*
X195715537Y-27999676D01*
X195715537Y-27999676D02*
X196001252Y-27904438D01*
X196001252Y-27904438D02*
X196191728Y-27904438D01*
X196191728Y-27904438D02*
X196477442Y-27999676D01*
X196477442Y-27999676D02*
X196572680Y-28094914D01*
X197429823Y-27904438D02*
X197429823Y-29523485D01*
X197429823Y-29523485D02*
X197525061Y-29713961D01*
X197525061Y-29713961D02*
X197620299Y-29809200D01*
X197620299Y-29809200D02*
X197810775Y-29904438D01*
X197810775Y-29904438D02*
X198191728Y-29904438D01*
X198191728Y-29904438D02*
X198382204Y-29809200D01*
X198382204Y-29809200D02*
X198477442Y-29713961D01*
X198477442Y-29713961D02*
X198572680Y-29523485D01*
X198572680Y-29523485D02*
X198572680Y-27904438D01*
X199239347Y-27904438D02*
X200382204Y-27904438D01*
X199810775Y-29904438D02*
X199810775Y-27904438D01*
X136404438Y-13546366D02*
X138404438Y-12879700D01*
X138404438Y-12879700D02*
X136404438Y-12213033D01*
X137642533Y-11546366D02*
X137642533Y-10022557D01*
X138213961Y-7927319D02*
X138309200Y-8022557D01*
X138309200Y-8022557D02*
X138404438Y-8308271D01*
X138404438Y-8308271D02*
X138404438Y-8498747D01*
X138404438Y-8498747D02*
X138309200Y-8784462D01*
X138309200Y-8784462D02*
X138118723Y-8974938D01*
X138118723Y-8974938D02*
X137928247Y-9070176D01*
X137928247Y-9070176D02*
X137547295Y-9165414D01*
X137547295Y-9165414D02*
X137261580Y-9165414D01*
X137261580Y-9165414D02*
X136880628Y-9070176D01*
X136880628Y-9070176D02*
X136690152Y-8974938D01*
X136690152Y-8974938D02*
X136499676Y-8784462D01*
X136499676Y-8784462D02*
X136404438Y-8498747D01*
X136404438Y-8498747D02*
X136404438Y-8308271D01*
X136404438Y-8308271D02*
X136499676Y-8022557D01*
X136499676Y-8022557D02*
X136594914Y-7927319D01*
X136404438Y-7070176D02*
X138023485Y-7070176D01*
X138023485Y-7070176D02*
X138213961Y-6974938D01*
X138213961Y-6974938D02*
X138309200Y-6879700D01*
X138309200Y-6879700D02*
X138404438Y-6689224D01*
X138404438Y-6689224D02*
X138404438Y-6308271D01*
X138404438Y-6308271D02*
X138309200Y-6117795D01*
X138309200Y-6117795D02*
X138213961Y-6022557D01*
X138213961Y-6022557D02*
X138023485Y-5927319D01*
X138023485Y-5927319D02*
X136404438Y-5927319D01*
X136404438Y-5260652D02*
X136404438Y-4117795D01*
X138404438Y-4689224D02*
X136404438Y-4689224D01*
X158404438Y-13546366D02*
X160404438Y-12879700D01*
X160404438Y-12879700D02*
X158404438Y-12213033D01*
X159642533Y-11546366D02*
X159642533Y-10022557D01*
X160213961Y-7927319D02*
X160309200Y-8022557D01*
X160309200Y-8022557D02*
X160404438Y-8308271D01*
X160404438Y-8308271D02*
X160404438Y-8498747D01*
X160404438Y-8498747D02*
X160309200Y-8784462D01*
X160309200Y-8784462D02*
X160118723Y-8974938D01*
X160118723Y-8974938D02*
X159928247Y-9070176D01*
X159928247Y-9070176D02*
X159547295Y-9165414D01*
X159547295Y-9165414D02*
X159261580Y-9165414D01*
X159261580Y-9165414D02*
X158880628Y-9070176D01*
X158880628Y-9070176D02*
X158690152Y-8974938D01*
X158690152Y-8974938D02*
X158499676Y-8784462D01*
X158499676Y-8784462D02*
X158404438Y-8498747D01*
X158404438Y-8498747D02*
X158404438Y-8308271D01*
X158404438Y-8308271D02*
X158499676Y-8022557D01*
X158499676Y-8022557D02*
X158594914Y-7927319D01*
X158404438Y-7070176D02*
X160023485Y-7070176D01*
X160023485Y-7070176D02*
X160213961Y-6974938D01*
X160213961Y-6974938D02*
X160309200Y-6879700D01*
X160309200Y-6879700D02*
X160404438Y-6689224D01*
X160404438Y-6689224D02*
X160404438Y-6308271D01*
X160404438Y-6308271D02*
X160309200Y-6117795D01*
X160309200Y-6117795D02*
X160213961Y-6022557D01*
X160213961Y-6022557D02*
X160023485Y-5927319D01*
X160023485Y-5927319D02*
X158404438Y-5927319D01*
X158404438Y-5260652D02*
X158404438Y-4117795D01*
X160404438Y-4689224D02*
X158404438Y-4689224D01*
D11*
%TO.C,H3*%
X130001400Y-87138000D02*
G75*
G03*
X130001400Y-87138000I-2350000J0D01*
G01*
%TO.C,H2*%
X168520600Y-104664400D02*
G75*
G03*
X168520600Y-104664400I-2350000J0D01*
G01*
X168520600Y-31664400D02*
G75*
G03*
X168520600Y-31664400I-2350000J0D01*
G01*
%TO.C,H3*%
X155001400Y-160138000D02*
G75*
G03*
X155001400Y-160138000I-2350000J0D01*
G01*
%TO.C,H2*%
X143520600Y-31664400D02*
G75*
G03*
X143520600Y-31664400I-2350000J0D01*
G01*
%TO.C,H3*%
X155001400Y-87138000D02*
G75*
G03*
X155001400Y-87138000I-2350000J0D01*
G01*
%TO.C,H1*%
X133201800Y-31664400D02*
G75*
G03*
X133201800Y-31664400I-2350000J0D01*
G01*
%TO.C,H3*%
X180001400Y-87138000D02*
G75*
G03*
X180001400Y-87138000I-2350000J0D01*
G01*
%TO.C,H1*%
X183201800Y-31664400D02*
G75*
G03*
X183201800Y-31664400I-2350000J0D01*
G01*
%TO.C,H2*%
X118520600Y-31664400D02*
G75*
G03*
X118520600Y-31664400I-2350000J0D01*
G01*
%TO.C,H1*%
X158201800Y-104664400D02*
G75*
G03*
X158201800Y-104664400I-2350000J0D01*
G01*
%TO.C,H2*%
X143520600Y-104664400D02*
G75*
G03*
X143520600Y-104664400I-2350000J0D01*
G01*
%TO.C,H1*%
X158201800Y-31664400D02*
G75*
G03*
X158201800Y-31664400I-2350000J0D01*
G01*
X183201800Y-104664400D02*
G75*
G03*
X183201800Y-104664400I-2350000J0D01*
G01*
X133201800Y-104664400D02*
G75*
G03*
X133201800Y-104664400I-2350000J0D01*
G01*
%TO.C,H3*%
X130001400Y-160138000D02*
G75*
G03*
X130001400Y-160138000I-2350000J0D01*
G01*
%TO.C,H2*%
X118520600Y-104664400D02*
G75*
G03*
X118520600Y-104664400I-2350000J0D01*
G01*
%TO.C,H3*%
X180001400Y-160138000D02*
G75*
G03*
X180001400Y-160138000I-2350000J0D01*
G01*
%TD*%
M02*
