%TF.GenerationSoftware,KiCad,Pcbnew,9.0.2*%
%TF.CreationDate,2025-12-28T15:35:21-05:00*%
%TF.ProjectId,Mothbeam,4d6f7468-6265-4616-9d2e-6b696361645f,rev?*%
%TF.SameCoordinates,Original*%
%TF.FileFunction,Copper,L1,Top*%
%TF.FilePolarity,Positive*%
%FSLAX46Y46*%
G04 Gerber Fmt 4.6, Leading zero omitted, Abs format (unit mm)*
G04 Created by KiCad (PCBNEW 9.0.2) date 2025-12-28 15:35:21*
%MOMM*%
%LPD*%
G01*
G04 APERTURE LIST*
G04 Aperture macros list*
%AMRoundRect*
0 Rectangle with rounded corners*
0 $1 Rounding radius*
0 $2 $3 $4 $5 $6 $7 $8 $9 X,Y pos of 4 corners*
0 Add a 4 corners polygon primitive as box body*
4,1,4,$2,$3,$4,$5,$6,$7,$8,$9,$2,$3,0*
0 Add four circle primitives for the rounded corners*
1,1,$1+$1,$2,$3*
1,1,$1+$1,$4,$5*
1,1,$1+$1,$6,$7*
1,1,$1+$1,$8,$9*
0 Add four rect primitives between the rounded corners*
20,1,$1+$1,$2,$3,$4,$5,0*
20,1,$1+$1,$4,$5,$6,$7,0*
20,1,$1+$1,$6,$7,$8,$9,0*
20,1,$1+$1,$8,$9,$2,$3,0*%
G04 Aperture macros list end*
%TA.AperFunction,Conductor*%
%ADD10C,0.200000*%
%TD*%
%TA.AperFunction,SMDPad,CuDef*%
%ADD11R,0.760000X1.500000*%
%TD*%
%TA.AperFunction,SMDPad,CuDef*%
%ADD12RoundRect,0.200000X0.200000X0.275000X-0.200000X0.275000X-0.200000X-0.275000X0.200000X-0.275000X0*%
%TD*%
%TA.AperFunction,SMDPad,CuDef*%
%ADD13C,1.500000*%
%TD*%
%TA.AperFunction,SMDPad,CuDef*%
%ADD14R,0.530000X1.070000*%
%TD*%
%TA.AperFunction,SMDPad,CuDef*%
%ADD15RoundRect,0.200000X0.275000X-0.200000X0.275000X0.200000X-0.275000X0.200000X-0.275000X-0.200000X0*%
%TD*%
%TA.AperFunction,SMDPad,CuDef*%
%ADD16RoundRect,0.200000X-0.200000X-0.275000X0.200000X-0.275000X0.200000X0.275000X-0.200000X0.275000X0*%
%TD*%
%TA.AperFunction,SMDPad,CuDef*%
%ADD17R,1.000000X2.540000*%
%TD*%
%TA.AperFunction,SMDPad,CuDef*%
%ADD18R,3.450000X0.700000*%
%TD*%
%TA.AperFunction,SMDPad,CuDef*%
%ADD19R,3.450000X1.300000*%
%TD*%
%TA.AperFunction,SMDPad,CuDef*%
%ADD20R,1.070000X0.530000*%
%TD*%
%TA.AperFunction,Conductor*%
%ADD21C,0.203200*%
%TD*%
%TA.AperFunction,Conductor*%
%ADD22C,0.500000*%
%TD*%
%TA.AperFunction,Conductor*%
%ADD23C,0.304800*%
%TD*%
%TA.AperFunction,Conductor*%
%ADD24C,0.400000*%
%TD*%
%TA.AperFunction,Conductor*%
%ADD25C,1.000000*%
%TD*%
%TA.AperFunction,Conductor*%
%ADD26C,2.032000*%
%TD*%
%TA.AperFunction,Conductor*%
%ADD27C,0.800000*%
%TD*%
%TA.AperFunction,Conductor*%
%ADD28C,0.250000*%
%TD*%
G04 APERTURE END LIST*
D10*
%TO.N,/LED-*%
X7850000Y44650000D02*
X7800000Y44600000D01*
%TD*%
D11*
%TO.P,SW2,1,1*%
%TO.N,Net-(U3-EN)*%
X7921776Y35283463D03*
%TO.P,SW2,2,2*%
%TO.N,Net-(U2-EN)*%
X6651776Y35283463D03*
%TO.P,SW2,3,3*%
%TO.N,Net-(R6-Pad2)*%
X5381776Y35283463D03*
%TO.P,SW2,4,4*%
%TO.N,Net-(R4-Pad2)*%
X4101776Y35283463D03*
%TO.P,SW2,5,5*%
%TO.N,GND*%
X4101776Y27663463D03*
%TO.P,SW2,6,6*%
X5381776Y27663463D03*
%TO.P,SW2,7,7*%
%TO.N,EN*%
X6651776Y27663463D03*
%TO.P,SW2,8,8*%
X7921776Y27663463D03*
%TD*%
D12*
%TO.P,R6,1*%
%TO.N,Net-(R2-Pad2)*%
X1475000Y30700000D03*
%TO.P,R6,2*%
%TO.N,Net-(R6-Pad2)*%
X-175000Y30700000D03*
%TD*%
%TO.P,R9,1*%
%TO.N,Net-(U2-REXT)*%
X-465893Y39150000D03*
%TO.P,R9,2*%
%TO.N,GND*%
X-2115893Y39150000D03*
%TD*%
D13*
%TO.P,TP1,1,1*%
%TO.N,Net-(D2-A)*%
X7750000Y50050000D03*
%TD*%
%TO.P,TP2,1,1*%
%TO.N,/T1*%
X3610000Y62060000D03*
%TD*%
%TO.P,TP5,1,1*%
%TO.N,/T3*%
X3740000Y46070000D03*
%TD*%
D14*
%TO.P,U1,1,EN*%
%TO.N,EN*%
X-340893Y37150000D03*
%TO.P,U1,2,OUT*%
%TO.N,/LED-*%
X-1290893Y37150000D03*
%TO.P,U1,3,OUT*%
X-2240893Y37150000D03*
%TO.P,U1,4,GND*%
%TO.N,GND*%
X-2240893Y34850000D03*
%TO.P,U1,5,OUT*%
%TO.N,/LED-*%
X-1290893Y34850000D03*
%TO.P,U1,6,REXT*%
X-340893Y34850000D03*
%TD*%
D13*
%TO.P,TP3,1,1*%
%TO.N,Net-(D1--)*%
X7724600Y58050000D03*
%TD*%
D15*
%TO.P,R1,1*%
%TO.N,Net-(U3-REXT)*%
X6537500Y38725000D03*
%TO.P,R1,2*%
%TO.N,GND*%
X6537500Y40375000D03*
%TD*%
D16*
%TO.P,R4,1*%
%TO.N,Net-(R3-Pad2)*%
X-2325000Y32350000D03*
%TO.P,R4,2*%
%TO.N,Net-(R4-Pad2)*%
X-675000Y32350000D03*
%TD*%
D17*
%TO.P,CN1,1,1*%
%TO.N,GND*%
X11540000Y35877500D03*
%TO.P,CN1,2,2*%
X14080000Y35877500D03*
%TO.P,CN1,3,3*%
%TO.N,/LED+*%
X16620000Y35877500D03*
%TO.P,CN1,4,4*%
X19160000Y35877500D03*
%TD*%
D12*
%TO.P,R5,1*%
%TO.N,/LED+*%
X19975000Y39300000D03*
%TO.P,R5,2*%
%TO.N,EN*%
X18325000Y39300000D03*
%TD*%
D18*
%TO.P,D1,1,+*%
%TO.N,/LED+*%
X7750000Y63450000D03*
%TO.P,D1,2,-*%
%TO.N,Net-(D1--)*%
X7750000Y60650000D03*
D19*
%TO.P,D1,3,nc*%
%TO.N,/T1*%
X7750000Y62050000D03*
%TD*%
D20*
%TO.P,U2,1,EN*%
%TO.N,Net-(U2-EN)*%
X4437500Y38600000D03*
%TO.P,U2,2,OUT*%
%TO.N,/LED-*%
X4437500Y39550000D03*
%TO.P,U2,3,OUT*%
X4437500Y40500000D03*
%TO.P,U2,4,GND*%
%TO.N,GND*%
X2137500Y40500000D03*
%TO.P,U2,5,OUT*%
%TO.N,/LED-*%
X2137500Y39550000D03*
%TO.P,U2,6,REXT*%
%TO.N,Net-(U2-REXT)*%
X2137500Y38600000D03*
%TD*%
D15*
%TO.P,R3,1*%
%TO.N,/LED-*%
X-2300000Y28900000D03*
%TO.P,R3,2*%
%TO.N,Net-(R3-Pad2)*%
X-2300000Y30550000D03*
%TD*%
D18*
%TO.P,D2,1,A*%
%TO.N,Net-(D1--)*%
X7750000Y55450000D03*
%TO.P,D2,2,K*%
%TO.N,Net-(D2-A)*%
X7750000Y52650000D03*
D19*
%TO.P,D2,3,3*%
%TO.N,/T2*%
X7750000Y54050000D03*
%TD*%
D13*
%TO.P,TP4,1,1*%
%TO.N,/T2*%
X3870000Y54050000D03*
%TD*%
D18*
%TO.P,D3,1,+*%
%TO.N,Net-(D2-A)*%
X7750000Y47450000D03*
%TO.P,D3,2,-*%
%TO.N,/LED-*%
X7750000Y44650000D03*
D19*
%TO.P,D3,3,nc*%
%TO.N,/T3*%
X7750000Y46050000D03*
%TD*%
D16*
%TO.P,R2,1*%
%TO.N,/LED-*%
X-175000Y28900000D03*
%TO.P,R2,2*%
%TO.N,Net-(R2-Pad2)*%
X1475000Y28900000D03*
%TD*%
D20*
%TO.P,U3,1,EN*%
%TO.N,Net-(U3-EN)*%
X10937500Y38600000D03*
%TO.P,U3,2,OUT*%
%TO.N,/LED-*%
X10937500Y39550000D03*
%TO.P,U3,3,OUT*%
X10937500Y40500000D03*
%TO.P,U3,4,GND*%
%TO.N,GND*%
X8637500Y40500000D03*
%TO.P,U3,5,OUT*%
%TO.N,/LED-*%
X8637500Y39550000D03*
%TO.P,U3,6,REXT*%
%TO.N,Net-(U3-REXT)*%
X8637500Y38600000D03*
%TD*%
D21*
%TO.N,/LED-*%
X-2225121Y33678933D02*
X-711961Y33678933D01*
D22*
X-175000Y28900000D02*
X-2300000Y28900000D01*
D23*
X-1250000Y39750000D02*
X-900000Y40100000D01*
D21*
X-2300000Y28900000D02*
X-3400000Y30000000D01*
D24*
X4437500Y39550000D02*
X4437500Y40500000D01*
D23*
X-1250000Y37190893D02*
X-1250000Y39750000D01*
D24*
X4437500Y39550000D02*
X8637500Y39550000D01*
D21*
X-3400000Y32504054D02*
X-2225121Y33678933D01*
D25*
X10937500Y40500000D02*
X10937500Y40712500D01*
X7750000Y43900000D02*
X7750000Y44650000D01*
D22*
X-1290893Y34850000D02*
X-1290893Y37150000D01*
X1000000Y40100000D02*
X1550000Y39550000D01*
X-1290893Y34850000D02*
X-340893Y34850000D01*
D21*
X-711961Y33678933D02*
X-340893Y34050001D01*
D23*
X-900000Y40100000D02*
X1000000Y40100000D01*
D25*
X10937500Y40712500D02*
X7750000Y43900000D01*
D22*
X-2240893Y37150000D02*
X-1290893Y37150000D01*
D21*
X-340893Y34050001D02*
X-340893Y34850000D01*
D24*
X8637500Y39550000D02*
X10937500Y39550000D01*
X10937500Y39550000D02*
X10937500Y40500000D01*
D21*
X-3400000Y30000000D02*
X-3400000Y32504054D01*
D22*
X1550000Y39550000D02*
X2137500Y39550000D01*
D24*
X2137500Y39550000D02*
X4437500Y39550000D01*
D22*
%TO.N,Net-(U3-REXT)*%
X6537500Y38725000D02*
X8512500Y38725000D01*
D25*
%TO.N,/LED+*%
X19972500Y35877500D02*
X19160000Y35877500D01*
D26*
X19160000Y35877500D02*
X16620000Y35877500D01*
D25*
X8500000Y64400000D02*
X19800000Y64400000D01*
X19800000Y36050000D02*
X19972500Y35877500D01*
X19800000Y64400000D02*
X19800000Y36050000D01*
X7750000Y63650000D02*
X8500000Y64400000D01*
D23*
%TO.N,EN*%
X6646776Y28203224D02*
X6000000Y28850000D01*
X1000000Y27850000D02*
X650000Y28200000D01*
X-1350000Y30863168D02*
X-1500000Y31013168D01*
X2050000Y27850000D02*
X1000000Y27850000D01*
X-1350000Y30350000D02*
X-1350000Y30863168D01*
X1000000Y34050000D02*
X1000000Y35809107D01*
D22*
X8435109Y33859254D02*
X9600000Y35024145D01*
D27*
X7916776Y27663463D02*
X6646776Y27663463D01*
D22*
X8435109Y28181796D02*
X8435109Y33859254D01*
X9600000Y36500000D02*
X10900000Y37800000D01*
D23*
X150000Y33200000D02*
X1000000Y34050000D01*
D22*
X7916776Y27663463D02*
X8435109Y28181796D01*
D23*
X-1500000Y32900000D02*
X-1200000Y33200000D01*
X-1500000Y31013168D02*
X-1500000Y32900000D01*
D22*
X16825000Y37800000D02*
X18325000Y39300000D01*
D23*
X650000Y29450000D02*
X280199Y29819801D01*
X3050000Y28850000D02*
X2050000Y27850000D01*
X-1200000Y33200000D02*
X150000Y33200000D01*
X-819801Y29819801D02*
X-1350000Y30350000D01*
X1000000Y35809107D02*
X-340893Y37150000D01*
X280199Y29819801D02*
X-819801Y29819801D01*
X650000Y28200000D02*
X650000Y29450000D01*
X6646776Y27663463D02*
X6646776Y28203224D01*
D22*
X10900000Y37800000D02*
X16825000Y37800000D01*
X9600000Y35024145D02*
X9600000Y36500000D01*
D23*
X6000000Y28850000D02*
X3050000Y28850000D01*
D25*
%TO.N,GND*%
X9480126Y32920822D02*
X9480126Y27046576D01*
X11540000Y34990000D02*
X9475474Y32925474D01*
X2250000Y26400000D02*
X-4250000Y26400000D01*
X-4550000Y32540893D02*
X-2600000Y34490893D01*
X5376776Y26373224D02*
X5380999Y26373224D01*
X-1350000Y41100000D02*
X1537500Y41100000D01*
X5918187Y41481813D02*
X5800000Y41600000D01*
X9480126Y27046576D02*
X8908381Y26474832D01*
X-4250000Y26400000D02*
X-4450000Y26600000D01*
D26*
X14080000Y35877500D02*
X11540000Y35877500D01*
D25*
X9475474Y32925474D02*
X9480126Y32920822D01*
X-2115893Y40334107D02*
X-1350000Y41100000D01*
X-4450000Y26700000D02*
X-4550000Y26800000D01*
X4106776Y27663463D02*
X3513463Y27663463D01*
X3513463Y27663463D02*
X2250000Y26400000D01*
X-4500000Y37850000D02*
X-4500000Y32590893D01*
X-4500000Y32590893D02*
X-4550000Y32540893D01*
X-4450000Y26600000D02*
X-4450000Y26700000D01*
X8450237Y26006471D02*
X5746273Y26007950D01*
X5376776Y26373224D02*
X5376776Y27408463D01*
X-2115893Y39150000D02*
X-2115893Y40334107D01*
X-3200000Y39150000D02*
X-4500000Y37850000D01*
X8908381Y26474832D02*
X8908381Y26464615D01*
X-4550000Y26800000D02*
X-4550000Y32540893D01*
X2650000Y41600000D02*
X2200000Y41150000D01*
X5380999Y26373224D02*
X5746273Y26007950D01*
X2200000Y41150000D02*
X2200000Y40850000D01*
X4106776Y27663463D02*
X5376776Y27663463D01*
X-2115893Y39150000D02*
X-3200000Y39150000D01*
X11540000Y35877500D02*
X11540000Y34990000D01*
X-2600000Y34490893D02*
X-2600000Y35000000D01*
X6180687Y41481813D02*
X5918187Y41481813D01*
X8908381Y26464615D02*
X8450237Y26006471D01*
D27*
X6912500Y40750000D02*
X8387500Y40750000D01*
D25*
X6912500Y40750000D02*
X6180687Y41481813D01*
X5800000Y41600000D02*
X2650000Y41600000D01*
D23*
%TO.N,Net-(R4-Pad2)*%
X-675000Y32350000D02*
X600000Y32350000D01*
X600000Y32350000D02*
X3533463Y35283463D01*
X3533463Y35283463D02*
X4106776Y35283463D01*
D22*
%TO.N,Net-(U2-REXT)*%
X84107Y38600000D02*
X-465893Y39150000D01*
X2137500Y38600000D02*
X84107Y38600000D01*
D24*
%TO.N,/T1*%
X11250000Y62050000D02*
X7750000Y62050000D01*
X7750000Y62050000D02*
X3500000Y62050000D01*
%TO.N,/T2*%
X11250000Y54050000D02*
X7750000Y54050000D01*
X7750000Y54050000D02*
X4500000Y54050000D01*
%TO.N,/T3*%
X11250000Y46050000D02*
X7750000Y46050000D01*
X7750000Y46050000D02*
X4250000Y46050000D01*
D23*
%TO.N,Net-(R6-Pad2)*%
X5376776Y34826776D02*
X2400000Y31850000D01*
X975000Y31850000D02*
X-175000Y30700000D01*
X5376776Y35028463D02*
X5376776Y34826776D01*
X2400000Y31850000D02*
X975000Y31850000D01*
D24*
%TO.N,Net-(R2-Pad2)*%
X1475000Y28900000D02*
X1475000Y30500000D01*
D22*
%TO.N,Net-(R3-Pad2)*%
X-2325000Y32350000D02*
X-2325000Y30575000D01*
X-2325000Y30575000D02*
X-2300000Y30550000D01*
D25*
%TO.N,Net-(U2-EN)*%
X6646776Y35283463D02*
X6646776Y36390724D01*
X6646776Y36390724D02*
X4488500Y38549000D01*
X4488500Y38549000D02*
X4437500Y38549000D01*
D22*
%TO.N,Net-(U3-EN)*%
X7954276Y36204276D02*
X7954276Y35320963D01*
X7954276Y36204276D02*
X10350000Y38600000D01*
X7954276Y35320963D02*
X7916776Y35283463D01*
X10350000Y38600000D02*
X10650000Y38600000D01*
%TO.N,Net-(D1--)*%
X7750000Y60665000D02*
X7750000Y58075400D01*
D25*
X7724600Y58050000D02*
X7724600Y55475400D01*
D28*
%TO.N,Net-(D2-A)*%
X7608800Y50596200D02*
X7724600Y50712000D01*
D25*
X7750000Y52650000D02*
X7750000Y50050000D01*
X7750000Y50050000D02*
X7750000Y47450000D01*
%TD*%
%TA.AperFunction,Conductor*%
%TO.N,/T2*%
G36*
X8944723Y57694500D02*
G01*
X8944724Y57694500D01*
X18825500Y57694500D01*
X18892539Y57674815D01*
X18938294Y57622011D01*
X18949500Y57570500D01*
X18949500Y50529500D01*
X18929815Y50462461D01*
X18877011Y50416706D01*
X18825500Y50405500D01*
X8970123Y50405500D01*
X8922858Y50402290D01*
X8854640Y50417385D01*
X8805412Y50466967D01*
X8792331Y50504521D01*
X8602375Y51584384D01*
X8600500Y51605867D01*
X8600500Y51825500D01*
X8620185Y51892539D01*
X8672989Y51938294D01*
X8724500Y51949500D01*
X9508261Y51949500D01*
X9530971Y51952809D01*
X9576393Y51959427D01*
X9681483Y52010802D01*
X9764198Y52093517D01*
X9815573Y52198607D01*
X9825500Y52266740D01*
X9825500Y52992605D01*
X9845185Y53059643D01*
X9850233Y53066915D01*
X9918353Y53157912D01*
X9918354Y53157914D01*
X9968596Y53292621D01*
X9968598Y53292628D01*
X9974999Y53352156D01*
X9975000Y53352173D01*
X9975000Y53800000D01*
X5525000Y53800000D01*
X5525000Y53352156D01*
X5531401Y53292628D01*
X5531403Y53292621D01*
X5581645Y53157914D01*
X5581647Y53157911D01*
X5649766Y53066917D01*
X5674184Y53001453D01*
X5674500Y52992605D01*
X5674500Y52266740D01*
X5684426Y52198609D01*
X5735803Y52093515D01*
X5818514Y52010804D01*
X5818515Y52010804D01*
X5818517Y52010802D01*
X5923607Y51959427D01*
X5957673Y51954464D01*
X5991739Y51949500D01*
X5991740Y51949500D01*
X6775500Y51949500D01*
X6784185Y51946950D01*
X6793147Y51948238D01*
X6817187Y51937260D01*
X6842539Y51929815D01*
X6848466Y51922975D01*
X6856703Y51919213D01*
X6870992Y51896979D01*
X6888294Y51877011D01*
X6890581Y51866497D01*
X6894477Y51860435D01*
X6899500Y51825500D01*
X6899500Y51605867D01*
X6897625Y51584384D01*
X6707112Y50501369D01*
X6676110Y50438754D01*
X6616178Y50402839D01*
X6567342Y50400114D01*
X6529879Y50405500D01*
X6529876Y50405500D01*
X-5138063Y50405500D01*
X-5205102Y50425185D01*
X-5250857Y50477989D01*
X-5262063Y50529500D01*
X-5262063Y53006323D01*
X3179873Y53006323D01*
X3179873Y53006322D01*
X3214858Y52980904D01*
X3390164Y52891582D01*
X3577294Y52830779D01*
X3771618Y52800000D01*
X3968382Y52800000D01*
X4162705Y52830779D01*
X4349835Y52891582D01*
X4525143Y52980905D01*
X4560125Y53006322D01*
X4560126Y53006322D01*
X3870001Y53696447D01*
X3870000Y53696447D01*
X3179873Y53006323D01*
X-5262063Y53006323D01*
X-5262063Y54148383D01*
X2620000Y54148383D01*
X2620000Y53951618D01*
X2650778Y53757295D01*
X2711581Y53570165D01*
X2800905Y53394855D01*
X2826319Y53359875D01*
X2826320Y53359875D01*
X3516446Y54050000D01*
X3516446Y54050001D01*
X4223553Y54050001D01*
X4223553Y54050000D01*
X4913678Y53359874D01*
X4913678Y53359875D01*
X4939095Y53394857D01*
X5028418Y53570165D01*
X5089221Y53757295D01*
X5120000Y53951618D01*
X5120000Y54148383D01*
X5089221Y54342706D01*
X5028418Y54529836D01*
X4939096Y54705142D01*
X4913678Y54740127D01*
X4913677Y54740127D01*
X4223553Y54050001D01*
X3516446Y54050001D01*
X2826320Y54740128D01*
X2826320Y54740127D01*
X2800902Y54705141D01*
X2800899Y54705137D01*
X2711582Y54529839D01*
X2650778Y54342706D01*
X2620000Y54148383D01*
X-5262063Y54148383D01*
X-5262063Y55093680D01*
X3179872Y55093680D01*
X3870000Y54403554D01*
X3870001Y54403554D01*
X4560125Y55093680D01*
X4560125Y55093681D01*
X4525145Y55119095D01*
X4349835Y55208419D01*
X4162705Y55269222D01*
X3968382Y55300000D01*
X3771618Y55300000D01*
X3577294Y55269222D01*
X3390161Y55208418D01*
X3214863Y55119101D01*
X3214859Y55119098D01*
X3179873Y55093680D01*
X3179872Y55093680D01*
X-5262063Y55093680D01*
X-5262063Y57570500D01*
X-5242378Y57637539D01*
X-5189574Y57683294D01*
X-5138063Y57694500D01*
X6504466Y57694500D01*
X6504476Y57694500D01*
X6551741Y57697711D01*
X6619955Y57682617D01*
X6669185Y57633037D01*
X6682267Y57595480D01*
X6872225Y56515615D01*
X6874100Y56494133D01*
X6874100Y56274500D01*
X6854415Y56207461D01*
X6801611Y56161706D01*
X6750100Y56150500D01*
X5991739Y56150500D01*
X5923608Y56140574D01*
X5818514Y56089197D01*
X5735803Y56006486D01*
X5684426Y55901392D01*
X5674500Y55833261D01*
X5674500Y55107396D01*
X5654815Y55040357D01*
X5649767Y55033085D01*
X5581646Y54942089D01*
X5581645Y54942087D01*
X5531403Y54807380D01*
X5531401Y54807373D01*
X5525000Y54747845D01*
X5525000Y54300000D01*
X9975000Y54300000D01*
X9975000Y54747828D01*
X9974999Y54747845D01*
X9968598Y54807373D01*
X9968596Y54807380D01*
X9918354Y54942087D01*
X9918353Y54942089D01*
X9850233Y55033085D01*
X9825816Y55098549D01*
X9825500Y55107396D01*
X9825500Y55833261D01*
X9815573Y55901392D01*
X9815573Y55901393D01*
X9764198Y56006483D01*
X9764196Y56006485D01*
X9764196Y56006486D01*
X9681485Y56089197D01*
X9576391Y56140574D01*
X9508261Y56150500D01*
X9508260Y56150500D01*
X8699100Y56150500D01*
X8690414Y56153051D01*
X8681453Y56151762D01*
X8657412Y56162741D01*
X8632061Y56170185D01*
X8626133Y56177026D01*
X8617897Y56180787D01*
X8603607Y56203022D01*
X8586306Y56222989D01*
X8584018Y56233504D01*
X8580123Y56239565D01*
X8575100Y56274500D01*
X8575100Y56494133D01*
X8576975Y56515616D01*
X8767486Y57598636D01*
X8798486Y57661248D01*
X8858419Y57697163D01*
X8907257Y57699887D01*
X8944723Y57694500D01*
G37*
%TD.AperFunction*%
%TD*%
%TA.AperFunction,Conductor*%
%TO.N,/T1*%
G36*
X-3906372Y69504949D02*
G01*
X-3903457Y69504523D01*
X-3901196Y69504682D01*
X-3889611Y69503840D01*
X-3876417Y69500339D01*
X-3842578Y69500422D01*
X-3837946Y69500085D01*
X-3832739Y69499595D01*
X-3803732Y69496243D01*
X-3783216Y69499277D01*
X-3765389Y69500610D01*
X-234802Y69509196D01*
X-167714Y69489674D01*
X-121831Y69436982D01*
X-110500Y69385196D01*
X-110500Y69373161D01*
X-73235Y69102036D01*
X-73234Y69102030D01*
X602Y68838507D01*
X109633Y68587491D01*
X251829Y68353659D01*
X251831Y68353657D01*
X251832Y68353655D01*
X274373Y68325949D01*
X424542Y68141366D01*
X424545Y68141364D01*
X424546Y68141362D01*
X439988Y68126940D01*
X624560Y67954561D01*
X848135Y67796745D01*
X848141Y67796741D01*
X850773Y67795377D01*
X1091136Y67670831D01*
X1091139Y67670830D01*
X1349004Y67579184D01*
X1349020Y67579179D01*
X1539255Y67539649D01*
X1616960Y67523502D01*
X1616961Y67523501D01*
X1634441Y67522306D01*
X1890000Y67504825D01*
X2163038Y67523501D01*
X2283620Y67548559D01*
X2430979Y67579179D01*
X2430985Y67579182D01*
X2430990Y67579182D01*
X2688864Y67670831D01*
X2931857Y67796740D01*
X3155442Y67954563D01*
X3355454Y68141362D01*
X3528168Y68353655D01*
X3670365Y68587489D01*
X3672914Y68593356D01*
X3745562Y68760610D01*
X3779398Y68838508D01*
X3853235Y69102035D01*
X3890476Y69372989D01*
X3890500Y69373161D01*
X3890500Y69385500D01*
X3910185Y69452539D01*
X3962989Y69498294D01*
X4014500Y69509500D01*
X11764964Y69509500D01*
X11832003Y69489815D01*
X11877758Y69437011D01*
X11888963Y69385032D01*
X11888946Y69380793D01*
X11888948Y69380775D01*
X11925248Y69109179D01*
X11925248Y69109178D01*
X11998238Y68845059D01*
X11998240Y68845053D01*
X12055334Y68712382D01*
X12106556Y68593356D01*
X12248179Y68358770D01*
X12420461Y68145682D01*
X12420463Y68145680D01*
X12420464Y68145679D01*
X12440413Y68126940D01*
X12620186Y67958072D01*
X12843624Y67799443D01*
X13086602Y67672758D01*
X13344583Y67580382D01*
X13612749Y67524040D01*
X13886093Y67504784D01*
X14159509Y67522974D01*
X14427893Y67578271D01*
X14449334Y67585855D01*
X14449337Y67585855D01*
X14526176Y67613033D01*
X14686232Y67669641D01*
X14929702Y67795378D01*
X15153756Y67953135D01*
X15354211Y68139966D01*
X15527322Y68352380D01*
X15669858Y68586413D01*
X15779156Y68837692D01*
X15779472Y68838815D01*
X15834238Y69034028D01*
X15853175Y69101527D01*
X15890534Y69372989D01*
X15890535Y69385135D01*
X15910224Y69452173D01*
X15963030Y69497925D01*
X16014903Y69509126D01*
X19183376Y69499696D01*
X19184108Y69499500D01*
X19249213Y69499500D01*
X19249548Y69499500D01*
X19249549Y69499499D01*
X19320526Y69499287D01*
X19323853Y69499500D01*
X20234108Y69499500D01*
X20295125Y69499500D01*
X20304853Y69499118D01*
X20341385Y69496243D01*
X20485736Y69484883D01*
X20504952Y69481840D01*
X20628520Y69452173D01*
X20676629Y69440623D01*
X20695134Y69434610D01*
X20858246Y69367047D01*
X20875583Y69358213D01*
X21026115Y69265967D01*
X21041857Y69254530D01*
X21176109Y69139868D01*
X21189867Y69126110D01*
X21304529Y68991858D01*
X21315966Y68976116D01*
X21408212Y68825584D01*
X21417046Y68808247D01*
X21484609Y68645135D01*
X21490622Y68626630D01*
X21531838Y68454955D01*
X21534882Y68435736D01*
X21549118Y68254854D01*
X21549500Y68245125D01*
X21549500Y58174000D01*
X21529815Y58106961D01*
X21477011Y58061206D01*
X21425500Y58050000D01*
X20774500Y58050000D01*
X20707461Y58069685D01*
X20661706Y58122489D01*
X20650500Y58174000D01*
X20650500Y64483768D01*
X20650499Y64483772D01*
X20617817Y64648075D01*
X20617816Y64648082D01*
X20553703Y64802863D01*
X20522537Y64849506D01*
X20460626Y64942163D01*
X20342162Y65060627D01*
X20202860Y65153705D01*
X20048082Y65217816D01*
X20048074Y65217818D01*
X19883771Y65250500D01*
X19883767Y65250500D01*
X8416233Y65250500D01*
X8416228Y65250500D01*
X8251925Y65217818D01*
X8251913Y65217815D01*
X8206583Y65199038D01*
X8097143Y65153708D01*
X8097137Y65153705D01*
X8097137Y65153704D01*
X7957840Y65060627D01*
X7957831Y65060621D01*
X7085065Y64187855D01*
X7083282Y64189638D01*
X7034657Y64156506D01*
X6996534Y64150500D01*
X5991739Y64150500D01*
X5923608Y64140574D01*
X5818514Y64089197D01*
X5735803Y64006486D01*
X5684426Y63901392D01*
X5674500Y63833261D01*
X5674500Y63107396D01*
X5654815Y63040357D01*
X5649767Y63033085D01*
X5581646Y62942089D01*
X5581645Y62942087D01*
X5531403Y62807380D01*
X5531401Y62807373D01*
X5525000Y62747845D01*
X5525000Y62300000D01*
X9975000Y62300000D01*
X9975000Y62747828D01*
X9974999Y62747845D01*
X9968598Y62807373D01*
X9968596Y62807380D01*
X9918354Y62942087D01*
X9918353Y62942089D01*
X9850233Y63033085D01*
X9825816Y63098549D01*
X9825500Y63107396D01*
X9825500Y63425500D01*
X9845185Y63492539D01*
X9897989Y63538294D01*
X9949500Y63549500D01*
X18825500Y63549500D01*
X18892539Y63529815D01*
X18938294Y63477011D01*
X18949500Y63425500D01*
X18949500Y58174000D01*
X18929815Y58106961D01*
X18877011Y58061206D01*
X18825500Y58050000D01*
X8944723Y58050000D01*
X8877684Y58069685D01*
X8831929Y58122489D01*
X8822250Y58154603D01*
X8798003Y58307697D01*
X8798002Y58307698D01*
X8798002Y58307699D01*
X8798002Y58307701D01*
X8744473Y58472445D01*
X8738405Y58484354D01*
X8731619Y58500355D01*
X8357230Y59589929D01*
X8356619Y59593583D01*
X8355523Y59595289D01*
X8350500Y59630224D01*
X8350500Y59825500D01*
X8370185Y59892539D01*
X8422989Y59938294D01*
X8474500Y59949500D01*
X9508261Y59949500D01*
X9530971Y59952809D01*
X9576393Y59959427D01*
X9681483Y60010802D01*
X9764198Y60093517D01*
X9815573Y60198607D01*
X9825500Y60266740D01*
X9825500Y60992605D01*
X9845185Y61059643D01*
X9850233Y61066915D01*
X9918353Y61157912D01*
X9918354Y61157914D01*
X9968596Y61292621D01*
X9968598Y61292628D01*
X9974999Y61352156D01*
X9975000Y61352173D01*
X9975000Y61800000D01*
X5525000Y61800000D01*
X5525000Y61352156D01*
X5531401Y61292628D01*
X5531403Y61292621D01*
X5581645Y61157914D01*
X5581647Y61157911D01*
X5649766Y61066917D01*
X5674184Y61001453D01*
X5674500Y60992605D01*
X5674500Y60266740D01*
X5684426Y60198609D01*
X5735803Y60093515D01*
X5818514Y60010804D01*
X5818515Y60010804D01*
X5818517Y60010802D01*
X5923607Y59959427D01*
X5957673Y59954464D01*
X5991739Y59949500D01*
X5991740Y59949500D01*
X7025500Y59949500D01*
X7034185Y59946950D01*
X7043147Y59948238D01*
X7067187Y59937260D01*
X7092539Y59929815D01*
X7098466Y59922975D01*
X7106703Y59919213D01*
X7120992Y59896979D01*
X7138294Y59877011D01*
X7140581Y59866497D01*
X7144477Y59860435D01*
X7149500Y59825500D01*
X7149500Y59637065D01*
X7141354Y59592862D01*
X6743478Y58550056D01*
X6738110Y58537967D01*
X6704726Y58472446D01*
X6704726Y58472444D01*
X6651198Y58307702D01*
X6651197Y58307699D01*
X6648666Y58291725D01*
X6648170Y58288587D01*
X6641170Y58255468D01*
X6641446Y58246134D01*
X6639630Y58234669D01*
X6639629Y58234667D01*
X6626949Y58154603D01*
X6597020Y58091468D01*
X6537709Y58054536D01*
X6504476Y58050000D01*
X-5138063Y58050000D01*
X-5205102Y58069685D01*
X-5250857Y58122489D01*
X-5262063Y58174000D01*
X-5262063Y61016323D01*
X2919873Y61016323D01*
X2919873Y61016322D01*
X2954858Y60990904D01*
X3130164Y60901582D01*
X3317294Y60840779D01*
X3511618Y60810000D01*
X3708382Y60810000D01*
X3902705Y60840779D01*
X4089835Y60901582D01*
X4265143Y60990905D01*
X4300125Y61016322D01*
X4300126Y61016322D01*
X3610001Y61706447D01*
X3610000Y61706447D01*
X2919873Y61016323D01*
X-5262063Y61016323D01*
X-5262063Y62158383D01*
X2360000Y62158383D01*
X2360000Y61961618D01*
X2390778Y61767295D01*
X2451581Y61580165D01*
X2540905Y61404855D01*
X2566319Y61369875D01*
X2566320Y61369875D01*
X3256446Y62060000D01*
X3256446Y62060001D01*
X3963553Y62060001D01*
X3963553Y62059999D01*
X4653678Y61369874D01*
X4653678Y61369875D01*
X4679095Y61404857D01*
X4768418Y61580165D01*
X4829221Y61767295D01*
X4860000Y61961618D01*
X4860000Y62158383D01*
X4829221Y62352706D01*
X4768418Y62539836D01*
X4679096Y62715142D01*
X4653678Y62750127D01*
X4653677Y62750127D01*
X3963553Y62060001D01*
X3256446Y62060001D01*
X2566320Y62750128D01*
X2566320Y62750127D01*
X2540902Y62715141D01*
X2540899Y62715137D01*
X2451582Y62539839D01*
X2390778Y62352706D01*
X2360000Y62158383D01*
X-5262063Y62158383D01*
X-5262063Y63103680D01*
X2919872Y63103680D01*
X3610000Y62413554D01*
X3610001Y62413554D01*
X4300125Y63103680D01*
X4300125Y63103681D01*
X4265145Y63129095D01*
X4089835Y63218419D01*
X3902705Y63279222D01*
X3708382Y63310000D01*
X3511618Y63310000D01*
X3317294Y63279222D01*
X3130161Y63218418D01*
X2954863Y63129101D01*
X2954859Y63129098D01*
X2919873Y63103680D01*
X2919872Y63103680D01*
X-5262063Y63103680D01*
X-5262063Y67414899D01*
X-4652900Y67414899D01*
X-4652900Y67185102D01*
X-4622908Y66957295D01*
X-4563435Y66735340D01*
X-4475507Y66523061D01*
X-4475500Y66523046D01*
X-4360611Y66324052D01*
X-4220730Y66141755D01*
X-4220724Y66141748D01*
X-4058253Y65979277D01*
X-4058246Y65979271D01*
X-3875949Y65839390D01*
X-3676955Y65724501D01*
X-3676940Y65724494D01*
X-3585457Y65686601D01*
X-3464660Y65636565D01*
X-3242708Y65577093D01*
X-3014891Y65547100D01*
X-3014884Y65547100D01*
X-2785116Y65547100D01*
X-2785109Y65547100D01*
X-2557292Y65577093D01*
X-2335340Y65636565D01*
X-2123049Y65724499D01*
X-1924051Y65839390D01*
X-1741753Y65979272D01*
X-1579272Y66141753D01*
X-1439390Y66324051D01*
X-1324499Y66523049D01*
X-1236565Y66735340D01*
X-1177093Y66957292D01*
X-1147100Y67185109D01*
X-1147100Y67414891D01*
X-1153684Y67464899D01*
X16547100Y67464899D01*
X16547100Y67235102D01*
X16577092Y67007295D01*
X16636565Y66785340D01*
X16724493Y66573061D01*
X16724500Y66573046D01*
X16839389Y66374052D01*
X16979270Y66191755D01*
X16979276Y66191748D01*
X17141747Y66029277D01*
X17141754Y66029271D01*
X17324051Y65889390D01*
X17523045Y65774501D01*
X17523060Y65774494D01*
X17614543Y65736601D01*
X17735340Y65686565D01*
X17957292Y65627093D01*
X18185109Y65597100D01*
X18185116Y65597100D01*
X18414884Y65597100D01*
X18414891Y65597100D01*
X18642708Y65627093D01*
X18864660Y65686565D01*
X19076951Y65774499D01*
X19275949Y65889390D01*
X19458247Y66029272D01*
X19620728Y66191753D01*
X19760610Y66374051D01*
X19875501Y66573049D01*
X19963435Y66785340D01*
X20022907Y67007292D01*
X20052900Y67235109D01*
X20052900Y67464891D01*
X20022907Y67692708D01*
X19963435Y67914660D01*
X19875501Y68126951D01*
X19864688Y68145679D01*
X19760610Y68325949D01*
X19620729Y68508246D01*
X19620723Y68508253D01*
X19458252Y68670724D01*
X19458245Y68670730D01*
X19275948Y68810611D01*
X19076954Y68925500D01*
X19076939Y68925507D01*
X18864660Y69013435D01*
X18642705Y69072908D01*
X18414898Y69102900D01*
X18414891Y69102900D01*
X18185109Y69102900D01*
X18185101Y69102900D01*
X17957294Y69072908D01*
X17735339Y69013435D01*
X17523060Y68925507D01*
X17523045Y68925500D01*
X17324051Y68810611D01*
X17141754Y68670730D01*
X17141747Y68670724D01*
X16979276Y68508253D01*
X16979270Y68508246D01*
X16839389Y68325949D01*
X16724500Y68126955D01*
X16724493Y68126940D01*
X16636565Y67914661D01*
X16577092Y67692706D01*
X16547100Y67464899D01*
X-1153684Y67464899D01*
X-1177093Y67642708D01*
X-1236565Y67864660D01*
X-1324499Y68076951D01*
X-1353369Y68126955D01*
X-1439390Y68275949D01*
X-1579271Y68458246D01*
X-1579277Y68458253D01*
X-1741748Y68620724D01*
X-1741755Y68620730D01*
X-1924052Y68760611D01*
X-2123046Y68875500D01*
X-2123061Y68875507D01*
X-2335340Y68963435D01*
X-2557295Y69022908D01*
X-2785102Y69052900D01*
X-2785109Y69052900D01*
X-3014891Y69052900D01*
X-3014899Y69052900D01*
X-3242706Y69022908D01*
X-3464661Y68963435D01*
X-3676940Y68875507D01*
X-3676955Y68875500D01*
X-3875949Y68760611D01*
X-4058246Y68620730D01*
X-4058253Y68620724D01*
X-4220724Y68458253D01*
X-4220730Y68458246D01*
X-4360611Y68275949D01*
X-4475500Y68076955D01*
X-4475507Y68076940D01*
X-4563435Y67864661D01*
X-4622908Y67642706D01*
X-4652900Y67414899D01*
X-5262063Y67414899D01*
X-5262063Y68257368D01*
X-5261623Y68267808D01*
X-5254369Y68353659D01*
X-5245232Y68461809D01*
X-5241728Y68482390D01*
X-5235046Y68508246D01*
X-5194334Y68665800D01*
X-5187427Y68685500D01*
X-5109927Y68858368D01*
X-5099825Y68876611D01*
X-4994414Y69034031D01*
X-4981379Y69050337D01*
X-4887921Y69148939D01*
X-4851058Y69187832D01*
X-4835482Y69201711D01*
X-4683931Y69315398D01*
X-4666252Y69326465D01*
X-4497767Y69413113D01*
X-4478481Y69421057D01*
X-4297853Y69478205D01*
X-4277500Y69482802D01*
X-4089851Y69508834D01*
X-4069005Y69509950D01*
X-3906372Y69504949D01*
G37*
%TD.AperFunction*%
%TD*%
%TA.AperFunction,Conductor*%
%TO.N,/T3*%
G36*
X6596915Y50030315D02*
G01*
X6642670Y49977511D01*
X6652349Y49945398D01*
X6664576Y49868200D01*
X6666098Y49849894D01*
X6666265Y49830844D01*
X6897625Y48515615D01*
X6899500Y48494133D01*
X6899500Y48274500D01*
X6879815Y48207461D01*
X6827011Y48161706D01*
X6775500Y48150500D01*
X5991739Y48150500D01*
X5923608Y48140574D01*
X5818514Y48089197D01*
X5735803Y48006486D01*
X5684426Y47901392D01*
X5674500Y47833261D01*
X5674500Y47107396D01*
X5654815Y47040357D01*
X5649767Y47033085D01*
X5581646Y46942089D01*
X5581645Y46942087D01*
X5531403Y46807380D01*
X5531401Y46807373D01*
X5525000Y46747845D01*
X5525000Y46300000D01*
X9975000Y46300000D01*
X9975000Y46747828D01*
X9974999Y46747845D01*
X9968598Y46807373D01*
X9968596Y46807380D01*
X9918354Y46942087D01*
X9918353Y46942089D01*
X9850233Y47033085D01*
X9825816Y47098549D01*
X9825500Y47107396D01*
X9825500Y47833261D01*
X9815573Y47901392D01*
X9815573Y47901393D01*
X9764198Y48006483D01*
X9764196Y48006485D01*
X9764196Y48006486D01*
X9681485Y48089197D01*
X9576391Y48140574D01*
X9508261Y48150500D01*
X9508260Y48150500D01*
X8724500Y48150500D01*
X8715814Y48153051D01*
X8706853Y48151762D01*
X8682812Y48162741D01*
X8657461Y48170185D01*
X8651533Y48177026D01*
X8643297Y48180787D01*
X8629007Y48203022D01*
X8611706Y48222989D01*
X8609418Y48233504D01*
X8605523Y48239565D01*
X8600500Y48274500D01*
X8600500Y48494133D01*
X8602375Y48515616D01*
X8833733Y49830838D01*
X8836383Y49848487D01*
X8836047Y49856584D01*
X8837468Y49881112D01*
X8847650Y49945398D01*
X8877579Y50008533D01*
X8936891Y50045464D01*
X8970123Y50050000D01*
X18825500Y50050000D01*
X18892539Y50030315D01*
X18938294Y49977511D01*
X18949500Y49926000D01*
X18949500Y42724000D01*
X18929815Y42656961D01*
X18877011Y42611206D01*
X18825500Y42600000D01*
X10304151Y42600000D01*
X10237112Y42619685D01*
X10216470Y42636319D01*
X9114970Y43737819D01*
X9081485Y43799142D01*
X9086469Y43868834D01*
X9128341Y43924767D01*
X9193805Y43949184D01*
X9202651Y43949500D01*
X9508261Y43949500D01*
X9530971Y43952809D01*
X9576393Y43959427D01*
X9681483Y44010802D01*
X9764198Y44093517D01*
X9815573Y44198607D01*
X9825500Y44266740D01*
X9825500Y44992605D01*
X9845185Y45059643D01*
X9850233Y45066915D01*
X9918353Y45157912D01*
X9918354Y45157914D01*
X9968596Y45292621D01*
X9968598Y45292628D01*
X9974999Y45352156D01*
X9975000Y45352173D01*
X9975000Y45800000D01*
X5525000Y45800000D01*
X5525000Y45352156D01*
X5531401Y45292628D01*
X5531403Y45292621D01*
X5581645Y45157914D01*
X5581647Y45157911D01*
X5649766Y45066917D01*
X5674184Y45001453D01*
X5674500Y44992605D01*
X5674500Y44266740D01*
X5684426Y44198609D01*
X5735803Y44093515D01*
X5818514Y44010804D01*
X5818515Y44010804D01*
X5818517Y44010802D01*
X5923607Y43959427D01*
X5957673Y43954464D01*
X5991739Y43949500D01*
X5991740Y43949500D01*
X6775500Y43949500D01*
X6842539Y43929815D01*
X6888294Y43877011D01*
X6899500Y43825500D01*
X6899500Y43816229D01*
X6932181Y43651927D01*
X6932184Y43651918D01*
X6996296Y43497137D01*
X6996297Y43497134D01*
X7089372Y43357839D01*
X7089375Y43357835D01*
X7635530Y42811681D01*
X7669015Y42750358D01*
X7664031Y42680667D01*
X7622160Y42624733D01*
X7556695Y42600316D01*
X7547849Y42600000D01*
X-5138063Y42600000D01*
X-5205102Y42619685D01*
X-5250857Y42672489D01*
X-5262063Y42724000D01*
X-5262063Y45026323D01*
X3049873Y45026323D01*
X3049873Y45026322D01*
X3084858Y45000904D01*
X3260164Y44911582D01*
X3447294Y44850779D01*
X3641618Y44820000D01*
X3838382Y44820000D01*
X4032705Y44850779D01*
X4219835Y44911582D01*
X4395143Y45000905D01*
X4430125Y45026322D01*
X4430126Y45026322D01*
X3740001Y45716447D01*
X3740000Y45716447D01*
X3049873Y45026323D01*
X-5262063Y45026323D01*
X-5262063Y46168383D01*
X2490000Y46168383D01*
X2490000Y45971618D01*
X2520778Y45777295D01*
X2581581Y45590165D01*
X2670905Y45414855D01*
X2696319Y45379875D01*
X2696320Y45379875D01*
X3386446Y46070000D01*
X3386446Y46070001D01*
X4093553Y46070001D01*
X4093553Y46070000D01*
X4783678Y45379874D01*
X4783678Y45379875D01*
X4809095Y45414857D01*
X4898418Y45590165D01*
X4959221Y45777295D01*
X4990000Y45971618D01*
X4990000Y46168383D01*
X4959221Y46362706D01*
X4898418Y46549836D01*
X4809096Y46725142D01*
X4783678Y46760127D01*
X4783677Y46760127D01*
X4093553Y46070001D01*
X3386446Y46070001D01*
X2696320Y46760128D01*
X2696320Y46760127D01*
X2670902Y46725141D01*
X2670899Y46725137D01*
X2581582Y46549839D01*
X2520778Y46362706D01*
X2490000Y46168383D01*
X-5262063Y46168383D01*
X-5262063Y47113680D01*
X3049872Y47113680D01*
X3740000Y46423554D01*
X3740001Y46423554D01*
X4430125Y47113680D01*
X4430125Y47113681D01*
X4395145Y47139095D01*
X4219835Y47228419D01*
X4032705Y47289222D01*
X3838382Y47320000D01*
X3641618Y47320000D01*
X3447294Y47289222D01*
X3260161Y47228418D01*
X3084863Y47139101D01*
X3084859Y47139098D01*
X3049873Y47113680D01*
X3049872Y47113680D01*
X-5262063Y47113680D01*
X-5262063Y49926000D01*
X-5242378Y49993039D01*
X-5189574Y50038794D01*
X-5138063Y50050000D01*
X6529876Y50050000D01*
X6596915Y50030315D01*
G37*
%TD.AperFunction*%
%TD*%
%TA.AperFunction,Conductor*%
%TO.N,Net-(D1--)*%
G36*
X7999922Y59532162D02*
G01*
X8002714Y59527691D01*
X8455843Y58208966D01*
X8455291Y58200028D01*
X8448580Y58194099D01*
X8447076Y58193692D01*
X7726898Y58049461D01*
X7722302Y58049461D01*
X7002575Y58193602D01*
X6995136Y58198587D01*
X6993401Y58207372D01*
X6993938Y58209233D01*
X7497127Y59528061D01*
X7503278Y59534568D01*
X7508058Y59535589D01*
X7991649Y59535589D01*
X7999922Y59532162D01*
G37*
%TD.AperFunction*%
%TD*%
%TA.AperFunction,Conductor*%
%TO.N,Net-(D1--)*%
G36*
X8448986Y57905926D02*
G01*
X8456423Y57900942D01*
X8458209Y57892428D01*
X8226302Y56574084D01*
X8221494Y56566530D01*
X8214779Y56564411D01*
X7234421Y56564411D01*
X7226148Y56567838D01*
X7222898Y56574084D01*
X6990990Y57892430D01*
X6992932Y57901170D01*
X7000212Y57905926D01*
X7722303Y58050540D01*
X7726897Y58050540D01*
X8448986Y57905926D01*
G37*
%TD.AperFunction*%
%TD*%
%TA.AperFunction,Conductor*%
%TO.N,Net-(D2-A)*%
G36*
X8248452Y51532162D02*
G01*
X8251702Y51525916D01*
X8483609Y50207573D01*
X8481667Y50198831D01*
X8474384Y50194074D01*
X7752298Y50049461D01*
X7747702Y50049461D01*
X7143214Y50170523D01*
X7025614Y50194075D01*
X7018176Y50199059D01*
X7016390Y50207571D01*
X7248298Y51525917D01*
X7253106Y51533470D01*
X7259821Y51535589D01*
X8240179Y51535589D01*
X8248452Y51532162D01*
G37*
%TD.AperFunction*%
%TD*%
%TA.AperFunction,Conductor*%
%TO.N,Net-(D2-A)*%
G36*
X8474386Y49905926D02*
G01*
X8481823Y49900942D01*
X8483609Y49892428D01*
X8251702Y48574084D01*
X8246894Y48566530D01*
X8240179Y48564411D01*
X7259821Y48564411D01*
X7251548Y48567838D01*
X7248298Y48574084D01*
X7016390Y49892430D01*
X7018332Y49901170D01*
X7025612Y49905926D01*
X7747703Y50050540D01*
X7752297Y50050540D01*
X8474386Y49905926D01*
G37*
%TD.AperFunction*%
%TD*%
M02*
