0
SECTION
2
HEADER
9
$INSUNITS
70
4
9
$ACADVER
1
AC1014
9
$HANDSEED
5
FFFF
0
ENDSEC
0
SECTION
2
TABLES
0
TABLE
2
VPORT
5
8
100
AcDbSymbolTable
0
ENDTAB
0
TABLE
2
LTYPE
5
5
100
AcDbSymbolTable
70
2
0
LTYPE
5
14
100
AcDbSymbolTableRecord
100
AcDbLinetypeTableRecord
2
BYBLOCK
70
0
0
LTYPE
5
15
100
AcDbSymbolTableRecord
100
AcDbLinetypeTableRecord
2
BYLAYER
70
0
0
ENDTAB
0
TABLE
2
LAYER
5
2
100
AcDbSymbolTable
70
3
0
LAYER
5
50
100
AcDbSymbolTableRecord
100
AcDbLayerTableRecord
2
0
70
0
6
CONTINUOUS
0
LAYER
5
51
100
AcDbSymbolTableRecord
100
AcDbLayerTableRecord
2
CUTOUTS
70
0
62
1
6
CONTINUOUS
0
LAYER
5
52
100
AcDbSymbolTableRecord
100
AcDbLayerTableRecord
2
PERIMETER
70
0
62
5
6
CONTINUOUS
0
ENDTAB
0
TABLE
2
STYLE
5
3
100
AcDbSymbolTable
70
1
0
STYLE
5
11
100
AcDbSymbolTableRecord
100
AcDbTextStyleTableRecord
2
STANDARD
70
0
0
ENDTAB
0
TABLE
2
VIEW
5
6
100
AcDbSymbolTable
0
ENDTAB
0
TABLE
2
UCS
5
7
100
AcDbSymbolTable
0
ENDTAB
0
TABLE
2
APPID
5
9
100
AcDbSymbolTable
70
1
0
APPID
5
12
100
AcDbSymbolTableRecord
100
AcDbRegAppTableRecord
2
ACAD
70
0
0
ENDTAB
0
TABLE
2
DIMSTYLE
5
A
100
AcDbSymbolTable
0
ENDTAB
0
TABLE
2
BLOCK_RECORD
5
1
100
AcDbSymbolTable
70
2
0
BLOCK_RECORD
5
1F
100
AcDbSymbolTableRecord
100
AcDbBlockTableRecord
2
*MODEL_SPACE
0
BLOCK_RECORD
5
1B
100
AcDbSymbolTableRecord
100
AcDbBlockTableRecord
2
*PAPER_SPACE
0
ENDTAB
0
ENDSEC
0
SECTION
2
BLOCKS
0
BLOCK
5
20
100
AcDbEntity
100
AcDbBlockBegin
2
*MODEL_SPACE
0
ENDBLK
5
21
100
AcDbEntity
100
AcDbBlockEnd
0
BLOCK
5
1C
100
AcDbEntity
100
AcDbBlockBegin
2
*PAPER_SPACE
0
ENDBLK
5
1D
100
AcDbEntity
100
AcDbBlockEnd
0
ENDSEC
0
SECTION
2
ENTITIES
0
CIRCLE
5
100
100
AcDbEntity
8
CUTOUTS
100
AcDbCircle
10
108.52217782766239
20
-331.76788410907903
30
-7.1054273576010019e-14
40
3.149999999999995
210
0
220
0
230
1
0
CIRCLE
5
101
100
AcDbEntity
8
CUTOUTS
100
AcDbCircle
10
83.326383369596101
20
-381.48121141365579
30
-7.1054273576010019e-14
40
3.149999999999995
210
0
220
0
230
1
0
CIRCLE
5
102
100
AcDbEntity
8
CUTOUTS
100
AcDbCircle
10
108.52217782766239
20
-113.76788410907891
30
0
40
3.149999999999995
210
0
220
0
230
1
0
CIRCLE
5
103
100
AcDbEntity
8
CUTOUTS
100
AcDbCircle
10
82.000001221895218
20
-61.000000968575478
30
0
40
3.3249999999999957
210
0
220
0
230
1
0
CIRCLE
5
104
100
AcDbEntity
8
CUTOUTS
100
AcDbCircle
10
84.083192626779322
20
-31.713361644960003
30
0
40
3.3249999999999957
210
0
220
0
230
1
0
LINE
5
105
100
AcDbEntity
8
PERIMETER
100
AcDbLine
10
120.1721778276624
20
-5.4501857425999791
30
0
11
114.2721778276624
21
-5.4501857425999791
31
0
0
LINE
5
106
100
AcDbEntity
8
PERIMETER
100
AcDbLine
10
114.2721778276624
20
-5.4501857425999791
30
0
11
114.2721778276624
21
-5.4499999999999851
31
0
0
LINE
5
107
100
AcDbEntity
8
PERIMETER
100
AcDbLine
10
114.2721778276624
20
-5.4499999999999851
30
0
11
104.17217782766242
21
-5.4499999999999584
31
0
0
LINE
5
108
100
AcDbEntity
8
PERIMETER
100
AcDbLine
10
104.17217782766242
20
-5.4499999999999584
30
0
11
104.17217782766242
21
-5.4501857425999791
31
0
0
LINE
5
109
100
AcDbEntity
8
PERIMETER
100
AcDbLine
10
104.17217782766242
20
-5.4501857425999791
30
0
11
101.27217782766243
21
-5.4501857425999791
31
0
0
LINE
5
10A
100
AcDbEntity
8
PERIMETER
100
AcDbLine
10
101.27217782766243
20
-5.4501857425999791
30
0
11
101.27217782766243
21
-5.4499999999999584
31
0
0
LINE
5
10B
100
AcDbEntity
8
PERIMETER
100
AcDbLine
10
101.27217782766243
20
-5.4499999999999584
30
0
11
75.124599479856641
21
-5.4499999999999726
31
0
0
LINE
5
10C
100
AcDbEntity
8
PERIMETER
100
AcDbLine
10
75.124599479856641
20
-5.4499999999999726
30
0
11
71.715907770108188
21
-87.096282381118058
31
0
0
SPLINE
5
10D
100
AcDbEntity
8
PERIMETER
100
AcDbSpline
70
0
71
3
72
11
73
7
74
0
42
0.000000001
43
0.0000000001
44
0.0000000001
40
0
40
0
40
0
40
0
40
0.90529166138556172
40
0.90529166138556172
40
0.90529166138556172
40
1.8105833227711257
40
1.8105833227711257
40
1.8105833227711257
40
1.8105833227711257
10
76.290377920375136
20
-104.32886825351019
30
0
10
74.68307228231248
20
-101.76896746388692
30
0
10
73.471170226821044
20
-98.981143330886283
30
0
10
72.695647803465434
20
-96.059655963510806
30
0
10
71.920125380109823
20
-93.138168596135316
30
0
10
71.589822708794486
20
-90.11631980210754
30
0
10
71.71590777010816
20
-87.0962823811183
30
0
0
SPLINE
5
10E
100
AcDbEntity
8
PERIMETER
100
AcDbSpline
70
0
71
3
72
23
73
19
74
0
42
0.000000001
43
0.0000000001
44
0.0000000001
40
-1
40
-1
40
-1
40
-1
40
-0.8571428571428571
40
-0.8571428571428571
40
-0.8571428571428571
40
-0.7142857142857143
40
-0.7142857142857143
40
-0.7142857142857143
40
-0.5714285714285714
40
-0.5714285714285714
40
-0.5714285714285714
40
-0.42857142857142855
40
-0.42857142857142855
40
-0.42857142857142855
40
-0.2857142857142857
40
-0.2857142857142857
40
-0.2857142857142857
40
-0.24675588832778611
40
-0.24675588832778611
40
-0.24675588832778611
40
-0.24675588832778611
10
83.172177827662438
20
-128.23105731018839
30
0
10
83.172177827662438
20
-126.63782670864754
30
0
10
83.08739071826767
20
-125.04459306698095
30
0
10
82.918295915728905
20
-123.46036261679031
30
0
10
82.749201113190125
20
-121.87613216659966
30
0
10
82.495797554140168
20
-120.30089494882526
30
0
10
82.159518078165021
20
-118.74355860338666
30
0
10
81.823238602189875
20
-117.18622225794806
30
0
10
81.404081094289126
20
-115.64677698963791
30
0
10
80.90441561577228
20
-114.13392719802557
30
0
10
80.404750137255419
20
-112.62107740641319
30
0
10
79.824573546056968
20
-111.1348135782918
30
0
10
79.167166405913775
20
-109.68353967771623
30
0
10
78.509759265770597
20
-108.23226577714068
30
0
10
77.775117428180849
20
-106.81597264583928
30
0
10
76.967397452917666
20
-105.44266635670172
30
0
10
76.747125122504471
20
-105.06815367168252
30
0
10
76.521417555692054
20
-104.69683718914766
30
0
10
76.29037792037515
20
-104.32886825351019
30
0
0
LINE
5
10F
100
AcDbEntity
8
PERIMETER
100
AcDbLine
10
83.172177827662438
20
-128.23105731018839
30
0
11
83.172177827662381
21
-366.76788410907886
31
0
0
ARC
5
110
100
AcDbEntity
8
PERIMETER
100
AcDbCircle
10
84.222177827662506
20
-366.76788410907875
30
0
40
1.0500000000001108
210
0
220
0
230
1
100
AcDbArc
50
180
51
269.99999999999307
0
LINE
5
111
100
AcDbEntity
8
PERIMETER
100
AcDbLine
10
84.222177827662378
20
-367.81788410907888
30
0
11
95.222177827662392
21
-367.81788410907893
31
0
0
ARC
5
112
100
AcDbEntity
8
PERIMETER
100
AcDbCircle
10
95.222177827662392
20
-368.76788410907892
30
0
40
0.94999999999998863
210
0
220
-0
230
1
100
AcDbArc
50
0
51
90
0
LINE
5
113
100
AcDbEntity
8
PERIMETER
100
AcDbLine
10
96.172177827662381
20
-368.76788410907892
30
0
11
96.172177827662381
21
-369.81788410907893
31
0
0
ARC
5
114
100
AcDbEntity
8
PERIMETER
100
AcDbCircle
10
95.222177827662392
20
-369.81788410907893
30
0
40
0.94999999999998863
210
0
220
0
230
1
100
AcDbArc
50
-90
51
0
0
LINE
5
115
100
AcDbEntity
8
PERIMETER
100
AcDbLine
10
95.222177827662392
20
-370.76788410907898
30
0
11
60.172177827662381
21
-370.76788410907898
31
0
0
LINE
5
116
100
AcDbEntity
8
PERIMETER
100
AcDbLine
10
60.172177827662381
20
-370.76788410907898
30
0
11
60.172177827662381
21
-387.76800000000003
31
0
0
ARC
5
117
100
AcDbEntity
8
PERIMETER
100
AcDbCircle
10
66.222177827662406
20
-387.76800000000003
30
0
40
6.0500000000000309
210
0
220
0
230
1
100
AcDbArc
50
180
51
270
0
LINE
5
118
100
AcDbEntity
8
PERIMETER
100
AcDbLine
10
66.222177827662406
20
-393.81800000000004
30
0
11
124.22217782766239
21
-393.81800000000004
31
0
0
ARC
5
119
100
AcDbEntity
8
PERIMETER
100
AcDbCircle
10
124.22217782766241
20
-387.76800000000009
30
0
40
6.0499999999999687
210
0
220
0
230
1
100
AcDbArc
50
-90.000000000000142
51
0
0
LINE
5
11A
100
AcDbEntity
8
PERIMETER
100
AcDbLine
10
130.27217782766238
20
-387.76800000000003
30
0
11
130.2721778276624
21
-12.999999999999972
31
0
0
ARC
5
11B
100
AcDbEntity
8
PERIMETER
100
AcDbCircle
10
122.72217782766242
20
-12.999999999999956
30
0
40
7.5499999999999901
210
-0
220
0
230
1
100
AcDbArc
50
0
51
90.000000000000114
0
LINE
5
11C
100
AcDbEntity
8
PERIMETER
100
AcDbLine
10
122.72217782766241
20
-5.4499999999999673
30
0
11
120.1721778276624
21
-5.4499999999999851
31
0
0
LINE
5
11D
100
AcDbEntity
8
PERIMETER
100
AcDbLine
10
120.1721778276624
20
-5.4499999999999851
30
0
11
120.1721778276624
21
-5.4501857425999791
31
0
0
ENDSEC
0
SECTION
2
OBJECTS
0
DICTIONARY
5
C
100
AcDbDictionary
3
ACAD_GROUP
350
D
3
ACAD_MLINESTYLE
350
17
0
DICTIONARY
5
D
100
AcDbDictionary
0
DICTIONARY
5
1A
330
C
100
AcDbDictionary
0
DICTIONARY
5
17
100
AcDbDictionary
0
ENDSEC
0
EOF
