M48
; DRILL file {KiCad 9.0.2} date 2025-05-13T16:07:57+0800
; FORMAT={-:-/ absolute / metric / decimal}
; #@! TF.CreationDate,2025-05-13T16:07:57+08:00
; #@! TF.GenerationSoftware,Kicad,Pcbnew,9.0.2
; #@! TF.FileFunction,Plated,1,2,PTH
FMAT,2
METRIC
; #@! TA.AperFunction,Plated,PTH,ViaDrill
T1C0.300
; #@! TA.AperFunction,Plated,PTH,ComponentDrill
T2C0.400
; #@! TA.AperFunction,Plated,PTH,ComponentDrill
T3C1.000
; #@! TA.AperFunction,Plated,PTH,ComponentDrill
T4C1.100
; #@! TA.AperFunction,Plated,PTH,ComponentDrill
T5C1.300
; #@! TA.AperFunction,Plated,PTH,ComponentDrill
T6C1.700
; #@! TA.AperFunction,Plated,PTH,ComponentDrill
T7C2.750
%
G90
G05
T1
X32.3Y-102.776
X32.47Y-91.276
X32.47Y-97.626
X32.67Y-100.776
X32.68Y-94.086
X32.79Y-171.556
X33.93Y-173.316
X34.08Y-87.076
X36.25Y-119.086
X36.54Y-109.766
X36.93Y-112.136
X36.93Y-135.946
X37.03Y-105.406
X37.37Y-116.376
X37.37Y-122.396
X37.86Y-171.176
X38.12Y-86.496
X38.88Y-110.776
X39.39Y-119.236
X39.81Y-145.226
X39.88Y-114.646
X40.61Y-130.056
X40.65Y-135.046
X40.68Y-122.536
X41.4Y-150.646
X43.28Y-125.256
X44.29Y-87.206
X46.29Y-162.596
X46.4Y-115.496
X46.4Y-130.526
X46.42Y-120.576
X46.43Y-90.766
X46.43Y-93.306
X46.46Y-103.466
X46.46Y-118.036
X46.47Y-95.846
X46.47Y-98.386
X46.47Y-127.986
X46.52Y-123.116
X46.52Y-133.066
X46.53Y-106.006
X46.55Y-100.926
X46.57Y-110.416
X46.57Y-112.956
X46.59Y-135.606
X46.6Y-125.936
X50.3Y-83.526
X50.97Y-88.476
X51.59Y-122.066
X52.11Y-110.216
X52.62Y-200.886
X52.78Y-133.346
X52.87Y-119.086
X52.99Y-94.986
X54.82Y-120.576
X56.69Y-110.226
X56.78Y-193.226
X57.25Y-99.863
X57.96Y-81.466
X57.99Y-130.336
X58.13Y-119.396
X58.52Y-111.836
X58.53Y-100.566
X58.68Y-121.976
X59.78Y-97.146
X59.78Y-101.171
X59.79Y-111.836
X60.6Y-201.416
X60.84Y-73.386
X60.95Y-110.126
X61.06Y-111.866
X61.07Y-101.873
X61.08Y-133.996
X61.27Y-82.026
X61.45Y-169.646
X61.5Y-122.016
X61.71Y-93.296
X62.32Y-102.576
X62.325Y-115.328
X62.36Y-100.496
X62.57Y-67.606
X63.59Y-102.596
X63.595Y-114.626
X63.81Y-82.056
X63.98Y-110.116
X64.26Y-73.576
X64.81Y-193.826
X64.86Y-102.606
X64.87Y-111.866
X65.01Y-147.586
X65.43Y-117.776
X66.14Y-111.666
X66.35Y-82.076
X66.68Y-172.496
X66.69Y-201.756
X66.75Y-165.186
X67.31Y-73.136
X67.62Y-128.266
X68.34Y-118.876
X68.89Y-82.126
X69.03Y-120.306
X70.34Y-101.826
X70.51Y-104.016
X70.53Y-73.656
X70.96Y-119.046
X70.99Y-133.886
X71.01Y-113.136
X71.43Y-82.076
X73.29Y-73.426
X73.97Y-82.076
X74.37Y-129.656
X74.52Y-197.036
X75.57Y-73.496
X76.51Y-82.086
X77.11Y-175.476
X79.03Y-73.376
X79.31Y-71.066
X80.46Y-135.746
X80.67Y-103.556
X81.61Y-82.056
X81.61Y-188.036
X81.74Y-73.416
X83.5Y-118.116
X84.15Y-82.096
X84.68Y-73.096
X85.75Y-113.066
X85.76Y-97.176
X85.84Y-152.056
X86.02Y-104.136
X86.55Y-166.836
X86.69Y-82.086
X87.24Y-73.296
X88.19Y-71.066
X88.7Y-135.856
X90.44Y-157.606
X90.5Y-198.636
X91.33Y-163.676
X92.69Y-96.306
X93.0Y-153.496
X93.95Y-162.636
X94.32Y-171.396
X94.53Y-90.497
X94.64Y-169.326
X94.65Y-107.323
X94.66Y-105.216
X94.736Y-91.903
X95.02Y-89.786
X95.02Y-164.836
X95.223Y-91.207
X95.53Y-188.806
X95.63Y-155.676
X95.84Y-169.686
X95.92Y-114.506
X96.24Y-135.656
X96.37Y-182.836
X96.43Y-77.096
X97.05Y-166.426
X97.05Y-176.956
X97.19Y-114.526
X97.43Y-162.636
X97.78Y-131.666
X98.06Y-72.726
X98.45Y-114.536
X98.46Y-153.706
X99.16Y-155.496
X99.39Y-75.546
X99.46Y-173.726
X99.59Y-169.496
X99.59Y-171.886
X99.702Y-174.746
X99.74Y-114.556
X100.12Y-123.836
X100.83Y-176.176
X100.92Y-166.216
X100.94Y-163.776
X101.77Y-196.046
X101.8Y-170.286
X101.894Y-171.08
X102.11Y-179.206
X102.26Y-102.476
X102.27Y-111.686
X102.4Y-89.406
X102.49Y-155.426
X102.49Y-185.986
X103.41Y-153.316
X103.54Y-111.646
X103.55Y-102.436
X103.66Y-172.716
X103.93Y-181.986
X104.02Y-135.216
X104.57Y-178.376
X104.59Y-188.306
X104.76Y-79.476
X104.8Y-102.406
X104.81Y-111.676
X104.81Y-131.186
X105.39Y-77.756
X105.49Y-144.656
X105.53Y-194.446
X105.66Y-155.936
X105.77Y-122.016
X106.08Y-106.616
X106.09Y-105.216
X106.09Y-111.706
X106.21Y-182.566
X106.4Y-93.646
X106.6Y-170.036
X106.78Y-173.046
X106.95Y-153.596
X107.345Y-114.546
X107.7Y-186.876
X108.09Y-181.286
X108.615Y-114.556
X108.81Y-176.616
X108.94Y-108.623
X109.16Y-192.596
X109.87Y-109.298
X110.16Y-171.886
X110.822Y-118.398
X111.05Y-98.426
X111.74Y-155.666
X112.53Y-151.446
X112.64Y-168.546
X112.64Y-177.636
X112.99Y-77.506
X112.99Y-100.676
X113.95Y-120.776
X114.01Y-90.976
X114.16Y-68.306
X114.17Y-97.436
X114.54Y-132.786
X115.36Y-180.896
X115.39Y-155.686
X115.62Y-78.676
X115.68Y-168.396
X115.68Y-178.426
X116.242Y-67.923
X116.275Y-76.274
X116.39Y-65.916
X116.39Y-169.666
X116.42Y-144.626
X116.42Y-176.386
X116.45Y-193.156
X117.02Y-172.936
X117.6Y-114.826
X117.69Y-152.096
X117.9Y-80.836
X118.11Y-172.786
X118.215Y-92.596
X118.39Y-171.316
X118.52Y-174.566
X118.918Y-91.532
X119.26Y-159.836
X119.618Y-90.866
X119.82Y-157.236
X119.84Y-162.086
X119.95Y-180.716
X120.04Y-164.826
X120.318Y-89.846
X120.48Y-79.306
X121.02Y-89.336
X121.15Y-66.796
X121.16Y-168.446
X121.75Y-89.876
X121.78Y-126.896
X122.48Y-89.236
X122.71Y-159.006
X122.96Y-168.006
X123.154Y-89.772
X123.81Y-88.426
X124.87Y-171.306
X125.25Y-138.856
X125.29Y-166.776
X125.87Y-66.336
X126.94Y-160.176
X126.94Y-162.076
X128.03Y-158.266
X128.51Y-66.496
X128.98Y-70.396
X130.37Y-159.736
X130.57Y-93.216
X131.92Y-170.686
X132.08Y-188.716
X133.69Y-97.846
X134.13Y-106.586
X134.69Y-71.396
X136.97Y-70.386
X137.43Y-167.286
X141.4Y-90.546
X141.65Y-175.436
X142.58Y-106.766
X147.72Y-168.026
X149.66Y-158.316
X151.324Y-91.773
X151.324Y-92.423
X151.324Y-93.063
X151.964Y-91.763
X151.964Y-92.413
X151.964Y-93.053
X152.29Y-174.876
X152.604Y-91.773
X152.604Y-92.423
X152.604Y-93.063
X153.254Y-91.753
X153.254Y-92.403
X153.254Y-93.043
X153.894Y-91.763
X153.894Y-92.413
X153.894Y-93.053
X156.97Y-106.636
X157.07Y-111.136
X157.18Y-99.826
X157.68Y-166.836
X158.36Y-92.076
X161.07Y-86.176
X162.75Y-189.726
X164.16Y-174.776
X166.66Y-98.616
X166.81Y-157.496
X166.94Y-168.456
X167.47Y-85.376
X168.05Y-81.466
X168.65Y-91.606
X170.54Y-103.136
X170.91Y-119.376
X171.3Y-106.046
X171.41Y-94.726
X173.01Y-154.506
X173.66Y-72.096
X174.35Y-142.856
X174.64Y-198.076
X174.86Y-131.906
X180.64Y-173.906
X181.73Y-71.956
X182.6Y-163.076
X182.88Y-159.586
X183.57Y-116.266
X185.25Y-64.866
X185.45Y-107.476
X185.64Y-121.396
X185.81Y-72.106
X186.19Y-128.506
X187.62Y-186.876
X189.22Y-140.116
X189.38Y-121.886
X189.53Y-192.896
X189.98Y-160.836
X190.14Y-152.336
X190.37Y-125.026
X191.37Y-77.806
X191.7Y-103.726
X191.92Y-106.586
X191.95Y-164.296
X192.24Y-71.636
X192.4Y-104.396
X193.36Y-138.986
X193.56Y-199.566
X193.64Y-140.916
X194.51Y-64.706
X195.07Y-135.176
X195.68Y-80.596
X196.19Y-171.176
X196.47Y-161.596
X196.94Y-195.506
X197.02Y-188.996
X197.91Y-182.636
X199.14Y-104.906
X199.24Y-132.866
X199.57Y-144.526
X200.73Y-152.436
X201.36Y-159.996
X203.49Y-132.186
X204.0Y-152.726
X204.49Y-140.136
X205.36Y-144.896
X205.99Y-108.646
X207.27Y-118.276
X209.42Y-153.436
X209.55Y-122.646
X210.13Y-98.116
X210.24Y-64.876
X210.42Y-81.136
X210.45Y-137.806
X211.01Y-99.878
X211.26Y-129.446
X211.662Y-99.226
X212.24Y-129.656
X212.48Y-128.786
X212.95Y-106.506
X212.95Y-107.146
X212.95Y-107.796
X213.59Y-106.516
X213.59Y-107.156
X213.59Y-107.806
X214.12Y-80.506
X214.24Y-106.496
X214.24Y-107.136
X214.24Y-107.786
X214.51Y-125.766
X214.88Y-106.506
X214.88Y-107.146
X214.88Y-107.796
X214.93Y-88.868
X215.05Y-137.106
X215.26Y-153.636
X215.4Y-87.563
X215.52Y-106.496
X215.52Y-107.136
X215.52Y-107.786
X215.86Y-64.456
X216.052Y-86.936
X217.69Y-147.766
X217.95Y-129.616
X218.16Y-132.026
X218.44Y-147.766
X218.66Y-135.636
X218.732Y-73.596
X219.44Y-138.426
X219.53Y-74.256
X219.62Y-109.116
X219.64Y-72.943
X220.23Y-90.516
X220.51Y-87.086
X221.21Y-118.336
X221.56Y-153.456
X224.28Y-157.456
X224.4Y-117.676
X224.67Y-161.066
X224.81Y-141.976
X224.9Y-146.086
X225.3Y-79.346
X225.81Y-135.226
X225.83Y-141.126
X226.36Y-189.086
X226.39Y-195.496
X227.05Y-90.486
X227.35Y-138.436
X227.67Y-132.396
X228.12Y-122.506
X228.44Y-83.556
X228.64Y-106.516
X228.73Y-132.396
X228.83Y-144.866
X228.83Y-145.526
X228.83Y-146.176
X228.83Y-146.836
X228.83Y-147.486
X229.44Y-144.876
X229.44Y-145.536
X229.44Y-146.186
X229.44Y-146.846
X229.44Y-147.496
X229.5Y-137.916
X229.56Y-139.496
X229.67Y-135.936
X230.06Y-144.886
X230.06Y-145.546
X230.06Y-146.196
X230.06Y-146.856
X230.06Y-147.506
X230.61Y-151.006
X231.04Y-155.896
X231.14Y-89.996
X231.62Y-135.746
X231.64Y-121.266
X231.67Y-116.266
X231.76Y-159.166
X232.08Y-110.646
X232.72Y-65.526
X232.95Y-189.986
X233.23Y-76.936
X233.48Y-162.196
X233.49Y-162.856
X233.5Y-163.526
X233.51Y-164.186
X233.52Y-157.876
X234.05Y-120.756
X234.05Y-121.436
X234.15Y-162.196
X234.16Y-162.856
X234.17Y-163.526
X234.18Y-164.186
X234.82Y-162.196
X234.83Y-162.856
X234.84Y-163.526
X234.85Y-164.186
X234.88Y-187.106
X235.49Y-162.196
X235.5Y-162.856
X235.51Y-163.526
X235.52Y-164.186
X235.54Y-152.336
X236.37Y-133.006
X236.5Y-170.286
X236.752Y-134.026
X236.86Y-86.226
X236.98Y-157.666
X237.21Y-173.346
X237.4Y-153.386
X237.48Y-193.766
X237.62Y-176.766
X238.02Y-135.376
X238.23Y-83.036
X238.57Y-77.276
X238.66Y-168.586
X238.66Y-201.216
X239.06Y-173.236
X239.6Y-152.856
X239.77Y-188.286
X240.44Y-100.896
X241.17Y-172.396
X242.37Y-168.916
X242.41Y-170.866
X242.71Y-93.946
X243.8Y-135.826
X244.11Y-200.456
X244.2Y-195.066
X244.58Y-65.686
X245.01Y-113.056
X245.97Y-67.186
X245.97Y-169.536
X245.98Y-120.546
X246.11Y-198.066
X247.68Y-81.906
X247.79Y-100.346
X247.89Y-187.736
X247.97Y-87.136
X248.6Y-115.886
X248.91Y-94.776
X249.78Y-185.936
X250.61Y-96.976
X251.28Y-187.896
X251.6Y-73.756
X251.87Y-87.546
X255.38Y-73.996
X255.51Y-126.986
X256.0Y-80.106
X256.01Y-185.906
X256.09Y-170.936
X257.11Y-133.686
X257.58Y-118.246
X257.71Y-151.986
X257.79Y-76.466
X257.83Y-153.786
X257.99Y-169.436
X258.2Y-70.116
X259.74Y-85.976
X260.64Y-126.456
X261.19Y-185.106
X263.49Y-118.296
X263.57Y-140.066
X263.83Y-128.106
X264.8Y-122.746
X266.76Y-137.656
T2
X207.88Y-152.116
X207.88Y-155.916
X216.48Y-155.916
X216.5Y-152.116
T3
X52.5Y-74.226
X52.5Y-76.766
X52.5Y-79.306
X52.5Y-81.846
X52.5Y-84.386
X73.949Y-110.538
X73.949Y-112.98
X73.949Y-115.423
X73.949Y-117.865
X73.949Y-120.308
X89.134Y-110.705
X89.134Y-113.119
X89.134Y-115.534
X89.134Y-117.948
X89.134Y-120.362
X93.367Y-85.271
X93.5Y-67.248
X93.5Y-70.766
X95.855Y-85.269
X96.0Y-67.248
X96.0Y-70.766
X139.928Y-85.259
X140.061Y-67.236
X140.061Y-70.754
X142.416Y-85.257
X142.561Y-67.236
X142.561Y-70.754
X174.355Y-82.269
X174.355Y-85.787
X174.5Y-67.766
X176.855Y-82.269
X176.855Y-85.787
X176.988Y-67.763
X206.6Y-68.766
X206.6Y-71.306
X209.14Y-68.766
X209.14Y-71.306
X211.68Y-68.766
X211.68Y-71.306
X214.22Y-68.766
X214.22Y-71.306
X216.76Y-68.766
X216.76Y-71.306
X219.3Y-68.766
X219.3Y-71.306
X221.84Y-68.766
X221.84Y-71.306
X224.38Y-68.766
X224.38Y-71.306
X226.92Y-68.766
X226.92Y-71.306
X229.46Y-68.766
X229.46Y-71.306
X232.0Y-68.766
X232.0Y-71.306
X234.54Y-68.766
X234.54Y-71.306
X237.08Y-68.766
X237.08Y-71.306
X239.62Y-68.766
X239.62Y-71.306
X242.16Y-68.766
X242.16Y-71.306
X244.7Y-68.766
X244.7Y-71.306
X247.24Y-68.766
X247.24Y-71.306
X249.78Y-68.766
X249.78Y-71.306
X252.32Y-68.766
X252.32Y-71.306
X254.86Y-68.766
X254.86Y-71.306
T4
X237.42Y-191.766
X239.96Y-191.766
X242.5Y-191.766
T5
X263.5Y-170.766
X263.5Y-180.766
X263.6Y-148.266
X263.6Y-153.266
X263.6Y-158.266
X263.6Y-163.266
T6
X226.53Y-182.516
X233.29Y-182.516
X240.57Y-182.516
X247.33Y-182.516
T7
X205.237Y-78.263
X205.237Y-127.263
X263.238Y-78.263
T3
G00X197.7Y-140.466
M15
G01X197.7Y-138.266
M16
G05
G00X203.8Y-136.466
M15
G01X201.2Y-136.466
M16
G05
G00X203.6Y-142.766
M15
G01X201.4Y-142.766
M16
G05
M30
