M48
; DRILL file {KiCad 9.0.2} date 2025-05-13T16:07:57+0800
; FORMAT={-:-/ absolute / metric / decimal}
; #@! TF.CreationDate,2025-05-13T16:07:57+08:00
; #@! TF.GenerationSoftware,Kicad,Pcbnew,9.0.2
; #@! TF.FileFunction,NonPlated,1,2,NPTH
FMAT,2
METRIC
; #@! TA.AperFunction,NonPlated,NPTH,ComponentDrill
T1C0.400
%
G90
G05
T1
X207.86Y-151.766
X207.86Y-151.866
X207.86Y-151.916
X207.86Y-152.016
X207.86Y-152.316
X207.86Y-152.416
X207.86Y-152.466
X207.86Y-155.616
X207.86Y-155.666
X207.86Y-155.716
X207.86Y-155.816
X207.86Y-156.016
X207.86Y-156.116
X207.86Y-156.166
X207.86Y-156.266
X216.5Y-151.766
X216.5Y-151.866
X216.5Y-151.916
X216.5Y-152.016
X216.5Y-152.216
X216.5Y-152.316
X216.5Y-152.366
X216.5Y-152.466
X216.5Y-155.566
X216.5Y-155.666
X216.5Y-155.716
X216.5Y-155.816
X216.5Y-156.016
X216.5Y-156.116
X216.5Y-156.166
X216.5Y-156.266
M30
