%TF.GenerationSoftware,KiCad,Pcbnew,9.0.2*%
%TF.CreationDate,2025-05-13T16:07:20+08:00*%
%TF.ProjectId,MothBo,4d6f7468-426f-42e6-9b69-6361645f7063,5.0.0*%
%TF.SameCoordinates,Original*%
%TF.FileFunction,Soldermask,Top*%
%TF.FilePolarity,Negative*%
%FSLAX46Y46*%
G04 Gerber Fmt 4.6, Leading zero omitted, Abs format (unit mm)*
G04 Created by KiCad (PCBNEW 9.0.2) date 2025-05-13 16:07:20*
%MOMM*%
%LPD*%
G01*
G04 APERTURE LIST*
G04 Aperture macros list*
%AMRoundRect*
0 Rectangle with rounded corners*
0 $1 Rounding radius*
0 $2 $3 $4 $5 $6 $7 $8 $9 X,Y pos of 4 corners*
0 Add a 4 corners polygon primitive as box body*
4,1,4,$2,$3,$4,$5,$6,$7,$8,$9,$2,$3,0*
0 Add four circle primitives for the rounded corners*
1,1,$1+$1,$2,$3*
1,1,$1+$1,$4,$5*
1,1,$1+$1,$6,$7*
1,1,$1+$1,$8,$9*
0 Add four rect primitives between the rounded corners*
20,1,$1+$1,$2,$3,$4,$5,0*
20,1,$1+$1,$4,$5,$6,$7,0*
20,1,$1+$1,$6,$7,$8,$9,0*
20,1,$1+$1,$8,$9,$2,$3,0*%
%AMFreePoly0*
4,1,23,0.500000,-0.750000,0.000000,-0.750000,0.000000,-0.745722,-0.065263,-0.745722,-0.191342,-0.711940,-0.304381,-0.646677,-0.396677,-0.554381,-0.461940,-0.441342,-0.495722,-0.315263,-0.495722,-0.250000,-0.500000,-0.250000,-0.500000,0.250000,-0.495722,0.250000,-0.495722,0.315263,-0.461940,0.441342,-0.396677,0.554381,-0.304381,0.646677,-0.191342,0.711940,-0.065263,0.745722,0.000000,0.745722,
0.000000,0.750000,0.500000,0.750000,0.500000,-0.750000,0.500000,-0.750000,$1*%
%AMFreePoly1*
4,1,23,0.000000,0.745722,0.065263,0.745722,0.191342,0.711940,0.304381,0.646677,0.396677,0.554381,0.461940,0.441342,0.495722,0.315263,0.495722,0.250000,0.500000,0.250000,0.500000,-0.250000,0.495722,-0.250000,0.495722,-0.315263,0.461940,-0.441342,0.396677,-0.554381,0.304381,-0.646677,0.191342,-0.711940,0.065263,-0.745722,0.000000,-0.745722,0.000000,-0.750000,-0.500000,-0.750000,
-0.500000,0.750000,0.000000,0.750000,0.000000,0.745722,0.000000,0.745722,$1*%
G04 Aperture macros list end*
%ADD10C,0.010000*%
%ADD11RoundRect,0.250000X-0.450000X0.262500X-0.450000X-0.262500X0.450000X-0.262500X0.450000X0.262500X0*%
%ADD12RoundRect,0.250000X0.450000X-0.262500X0.450000X0.262500X-0.450000X0.262500X-0.450000X-0.262500X0*%
%ADD13RoundRect,0.250000X0.475000X-0.337500X0.475000X0.337500X-0.475000X0.337500X-0.475000X-0.337500X0*%
%ADD14RoundRect,0.250000X-0.362500X-1.425000X0.362500X-1.425000X0.362500X1.425000X-0.362500X1.425000X0*%
%ADD15RoundRect,0.250000X0.250000X0.475000X-0.250000X0.475000X-0.250000X-0.475000X0.250000X-0.475000X0*%
%ADD16RoundRect,0.102000X-1.150000X-0.535000X1.150000X-0.535000X1.150000X0.535000X-1.150000X0.535000X0*%
%ADD17RoundRect,0.250000X-1.425000X0.362500X-1.425000X-0.362500X1.425000X-0.362500X1.425000X0.362500X0*%
%ADD18RoundRect,0.125000X0.625000X0.125000X-0.625000X0.125000X-0.625000X-0.125000X0.625000X-0.125000X0*%
%ADD19RoundRect,0.125000X0.125000X0.625000X-0.125000X0.625000X-0.125000X-0.625000X0.125000X-0.625000X0*%
%ADD20RoundRect,0.250000X1.425000X-0.362500X1.425000X0.362500X-1.425000X0.362500X-1.425000X-0.362500X0*%
%ADD21RoundRect,0.165000X0.385000X0.885000X-0.385000X0.885000X-0.385000X-0.885000X0.385000X-0.885000X0*%
%ADD22RoundRect,0.315000X0.735000X0.735000X-0.735000X0.735000X-0.735000X-0.735000X0.735000X-0.735000X0*%
%ADD23RoundRect,0.243750X-0.456250X0.243750X-0.456250X-0.243750X0.456250X-0.243750X0.456250X0.243750X0*%
%ADD24RoundRect,0.250000X-0.475000X0.250000X-0.475000X-0.250000X0.475000X-0.250000X0.475000X0.250000X0*%
%ADD25RoundRect,0.102000X1.800000X-1.000000X1.800000X1.000000X-1.800000X1.000000X-1.800000X-1.000000X0*%
%ADD26RoundRect,0.165000X-0.385000X-0.885000X0.385000X-0.885000X0.385000X0.885000X-0.385000X0.885000X0*%
%ADD27RoundRect,0.315000X-0.735000X-0.735000X0.735000X-0.735000X0.735000X0.735000X-0.735000X0.735000X0*%
%ADD28RoundRect,0.250000X0.362500X1.425000X-0.362500X1.425000X-0.362500X-1.425000X0.362500X-1.425000X0*%
%ADD29RoundRect,0.102000X0.650000X0.450000X-0.650000X0.450000X-0.650000X-0.450000X0.650000X-0.450000X0*%
%ADD30RoundRect,0.165000X0.885000X-0.385000X0.885000X0.385000X-0.885000X0.385000X-0.885000X-0.385000X0*%
%ADD31RoundRect,0.315000X0.735000X-0.735000X0.735000X0.735000X-0.735000X0.735000X-0.735000X-0.735000X0*%
%ADD32RoundRect,0.249997X2.950003X2.650003X-2.950003X2.650003X-2.950003X-2.650003X2.950003X-2.650003X0*%
%ADD33RoundRect,0.250000X0.850000X0.350000X-0.850000X0.350000X-0.850000X-0.350000X0.850000X-0.350000X0*%
%ADD34RoundRect,0.165000X-0.885000X0.385000X-0.885000X-0.385000X0.885000X-0.385000X0.885000X0.385000X0*%
%ADD35RoundRect,0.315000X-0.735000X0.735000X-0.735000X-0.735000X0.735000X-0.735000X0.735000X0.735000X0*%
%ADD36RoundRect,0.102000X-0.500000X-0.375000X0.500000X-0.375000X0.500000X0.375000X-0.500000X0.375000X0*%
%ADD37RoundRect,0.198500X0.508500X0.198500X-0.508500X0.198500X-0.508500X-0.198500X0.508500X-0.198500X0*%
%ADD38C,1.905000*%
%ADD39RoundRect,0.250000X-0.250000X-0.475000X0.250000X-0.475000X0.250000X0.475000X-0.250000X0.475000X0*%
%ADD40RoundRect,0.250000X-0.900000X1.000000X-0.900000X-1.000000X0.900000X-1.000000X0.900000X1.000000X0*%
%ADD41RoundRect,0.150000X-0.587500X-0.150000X0.587500X-0.150000X0.587500X0.150000X-0.587500X0.150000X0*%
%ADD42RoundRect,0.250000X1.750000X2.500000X-1.750000X2.500000X-1.750000X-2.500000X1.750000X-2.500000X0*%
%ADD43R,1.800000X1.000000*%
%ADD44RoundRect,0.250000X-0.475000X0.337500X-0.475000X-0.337500X0.475000X-0.337500X0.475000X0.337500X0*%
%ADD45RoundRect,0.150000X0.587500X0.150000X-0.587500X0.150000X-0.587500X-0.150000X0.587500X-0.150000X0*%
%ADD46FreePoly0,180.000000*%
%ADD47FreePoly1,180.000000*%
%ADD48RoundRect,0.249997X-2.950003X-2.650003X2.950003X-2.650003X2.950003X2.650003X-2.950003X2.650003X0*%
%ADD49RoundRect,0.250000X-0.850000X-0.350000X0.850000X-0.350000X0.850000X0.350000X-0.850000X0.350000X0*%
%ADD50R,1.700000X1.700000*%
%ADD51C,1.700000*%
%ADD52RoundRect,0.250001X1.149999X-1.149999X1.149999X1.149999X-1.149999X1.149999X-1.149999X-1.149999X0*%
%ADD53C,2.800000*%
%ADD54C,6.404000*%
%ADD55R,4.600000X2.000000*%
%ADD56O,4.200000X2.000000*%
%ADD57O,2.000000X4.200000*%
%ADD58RoundRect,0.675000X0.675000X0.675000X-0.675000X0.675000X-0.675000X-0.675000X0.675000X-0.675000X0*%
%ADD59C,2.700000*%
%ADD60R,1.905000X2.000000*%
%ADD61O,1.905000X2.000000*%
%ADD62C,0.400000*%
%ADD63O,1.204000X2.204000*%
%ADD64RoundRect,0.250000X-1.000000X1.000000X-1.000000X-1.000000X1.000000X-1.000000X1.000000X1.000000X0*%
%ADD65C,2.500000*%
G04 APERTURE END LIST*
D10*
%TO.C,U1*%
X253770000Y-163311342D02*
X252100000Y-163311342D01*
X252100000Y-162261342D01*
X245900000Y-162261342D01*
X245900000Y-153361342D01*
X252100000Y-153361342D01*
X252100000Y-152311342D01*
X253770000Y-152311342D01*
X253770000Y-163311342D01*
G36*
X253770000Y-163311342D02*
G01*
X252100000Y-163311342D01*
X252100000Y-162261342D01*
X245900000Y-162261342D01*
X245900000Y-153361342D01*
X252100000Y-153361342D01*
X252100000Y-152311342D01*
X253770000Y-152311342D01*
X253770000Y-163311342D01*
G37*
%TO.C,JP1*%
G36*
X66940000Y-111045671D02*
G01*
X66640000Y-111045671D01*
X66640000Y-109545671D01*
X66940000Y-109545671D01*
X66940000Y-111045671D01*
G37*
%TD*%
D11*
%TO.C,R52*%
X212490000Y-103563171D03*
X212490000Y-105388171D03*
%TD*%
D12*
%TO.C,R12*%
X110108571Y-161758171D03*
X110108571Y-159933171D03*
%TD*%
D13*
%TO.C,C3*%
X235670000Y-161213171D03*
X235670000Y-159138171D03*
%TD*%
D14*
%TO.C,R64*%
X217337497Y-114015672D03*
X223262501Y-114015670D03*
%TD*%
D15*
%TO.C,C16*%
X114500000Y-169650671D03*
X112600000Y-169650671D03*
%TD*%
D16*
%TO.C,U1*%
X239500000Y-154411342D03*
X239500000Y-156111342D03*
X239500000Y-157811342D03*
X239500000Y-159511342D03*
X239500000Y-161211342D03*
%TD*%
D17*
%TO.C,R56*%
X35300000Y-156578172D03*
X35300000Y-162503170D03*
%TD*%
D12*
%TO.C,R8*%
X93950000Y-161758171D03*
X93950000Y-159933171D03*
%TD*%
D18*
%TO.C,U5*%
X109025000Y-174285671D03*
X109025000Y-173485671D03*
X109025000Y-172685671D03*
X109025000Y-171885671D03*
X109025000Y-171085671D03*
X109025000Y-170285671D03*
X109025000Y-169485671D03*
X109025000Y-168685671D03*
D19*
X107650000Y-167310671D03*
X106850000Y-167310671D03*
X106050000Y-167310671D03*
X105250000Y-167310671D03*
X104450000Y-167310671D03*
X103650000Y-167310671D03*
X102850000Y-167310671D03*
X102050000Y-167310671D03*
D18*
X100675000Y-168685671D03*
X100675000Y-169485671D03*
X100675000Y-170285671D03*
X100675000Y-171085671D03*
X100675000Y-171885671D03*
X100675000Y-172685671D03*
X100675000Y-173485671D03*
X100675000Y-174285671D03*
D19*
X102050000Y-175660671D03*
X102850000Y-175660671D03*
X103650000Y-175660671D03*
X104450000Y-175660671D03*
X105250000Y-175660671D03*
X106050000Y-175660671D03*
X106850000Y-175660671D03*
X107650000Y-175660671D03*
%TD*%
D14*
%TO.C,R67*%
X150444997Y-81720671D03*
X156369999Y-81720671D03*
%TD*%
D20*
%TO.C,R55*%
X37950001Y-103118171D03*
X37950001Y-97193171D03*
%TD*%
D14*
%TO.C,R65*%
X234575164Y-97442548D03*
X240500164Y-97442548D03*
%TD*%
D21*
%TO.C,D18*%
X262649999Y-122765671D03*
D22*
X260500000Y-122765671D03*
%TD*%
D23*
%TO.C,D21*%
X97432857Y-155750671D03*
X97432857Y-157625671D03*
%TD*%
D21*
%TO.C,D3*%
X187777500Y-124765671D03*
D22*
X185627500Y-124765671D03*
%TD*%
D21*
%TO.C,D17*%
X94719999Y-131736097D03*
D22*
X92569999Y-131736097D03*
%TD*%
D24*
%TO.C,C6*%
X128500000Y-160175671D03*
X128500000Y-162075671D03*
%TD*%
D25*
%TO.C,E4*%
X251980000Y-137593171D03*
X251980000Y-144393171D03*
%TD*%
D26*
%TO.C,D20*%
X192312501Y-92765670D03*
D27*
X194462501Y-92765671D03*
%TD*%
D12*
%TO.C,R14*%
X103950953Y-161758171D03*
X103950953Y-159933171D03*
%TD*%
D28*
%TO.C,R59*%
X116412500Y-198565670D03*
X110487502Y-198565672D03*
%TD*%
D29*
%TO.C,D33*%
X97532500Y-176005671D03*
X97532500Y-173865671D03*
X94352500Y-173865671D03*
X94352500Y-176005671D03*
%TD*%
D13*
%TO.C,R5*%
X235590000Y-156093171D03*
X235590000Y-154018171D03*
%TD*%
D28*
%TO.C,R74*%
X206425000Y-92765669D03*
X200500000Y-92765671D03*
%TD*%
D26*
%TO.C,D8*%
X62396793Y-97565671D03*
D27*
X64546791Y-97565673D03*
%TD*%
D15*
%TO.C,C15*%
X114550000Y-176610671D03*
X112650000Y-176610671D03*
%TD*%
D30*
%TO.C,D19*%
X193372006Y-196915670D03*
D31*
X193372006Y-194765671D03*
%TD*%
D12*
%TO.C,R51*%
X154470000Y-96040671D03*
X154470000Y-94215671D03*
%TD*%
D26*
%TO.C,D5*%
X102160003Y-198665671D03*
D27*
X104310000Y-198665671D03*
%TD*%
D21*
%TO.C,D13*%
X164710000Y-81720671D03*
D22*
X162560000Y-81720674D03*
%TD*%
D23*
%TO.C,D23*%
X116572857Y-155730671D03*
X116572857Y-157605671D03*
%TD*%
D28*
%TO.C,R63*%
X81675000Y-170415670D03*
X75750002Y-170415674D03*
%TD*%
D11*
%TO.C,R54*%
X211130000Y-96290671D03*
X211130000Y-98115671D03*
%TD*%
D21*
%TO.C,D15*%
X255719999Y-77075671D03*
D22*
X253570000Y-77075671D03*
%TD*%
D13*
%TO.C,C2*%
X233470000Y-161163171D03*
X233470000Y-159088171D03*
%TD*%
D12*
%TO.C,R7*%
X97430000Y-161758171D03*
X97430000Y-159933171D03*
%TD*%
D32*
%TO.C,Q4*%
X144960000Y-96483171D03*
D33*
X151260000Y-98763171D03*
X151260000Y-94203171D03*
%TD*%
D28*
%TO.C,R68*%
X161425000Y-171765671D03*
X155500000Y-171765671D03*
%TD*%
D14*
%TO.C,R70*%
X186575000Y-155765671D03*
X192500000Y-155765671D03*
%TD*%
D26*
%TO.C,D14*%
X147312500Y-171859733D03*
D27*
X149462499Y-171859733D03*
%TD*%
D11*
%TO.C,R11*%
X106850671Y-178113171D03*
X106850671Y-179938171D03*
%TD*%
D34*
%TO.C,D1*%
X38500000Y-88615672D03*
D35*
X38500000Y-90765671D03*
%TD*%
D36*
%TO.C,SW1*%
X125680000Y-164820671D03*
X131680000Y-164820671D03*
X125680000Y-168570671D03*
X131680000Y-168570671D03*
%TD*%
D12*
%TO.C,R13*%
X107064762Y-161758171D03*
X107064762Y-159933171D03*
%TD*%
D14*
%TO.C,R69*%
X241417499Y-77075671D03*
X247342499Y-77075671D03*
%TD*%
D37*
%TO.C,U6*%
X125915000Y-162075671D03*
X125915000Y-161125671D03*
X125915000Y-160175671D03*
X123405000Y-160175671D03*
X123405000Y-162075671D03*
%TD*%
D21*
%TO.C,D11*%
X248725164Y-97442548D03*
D22*
X246575164Y-97442548D03*
%TD*%
D23*
%TO.C,D27*%
X103962857Y-155750671D03*
X103962857Y-157625671D03*
%TD*%
D38*
%TO.C,A1*%
X140061497Y-70753645D03*
X142561331Y-70753645D03*
X140061497Y-67235671D03*
X142561331Y-67235671D03*
X139928203Y-85258853D03*
X142416361Y-85256585D03*
%TD*%
D39*
%TO.C,C14*%
X95920000Y-168720671D03*
X97820000Y-168720671D03*
%TD*%
D26*
%TO.C,D6*%
X56249521Y-198315672D03*
D27*
X58399521Y-198315671D03*
%TD*%
D40*
%TO.C,E2*%
X252820000Y-181845671D03*
X252820000Y-186145671D03*
%TD*%
D14*
%TO.C,R66*%
X229447499Y-197740671D03*
X235372499Y-197740671D03*
%TD*%
D26*
%TO.C,D9*%
X67172504Y-169765672D03*
D27*
X69322501Y-169765671D03*
%TD*%
D34*
%TO.C,D4*%
X37500000Y-124615672D03*
D35*
X37500000Y-126765671D03*
%TD*%
D28*
%TO.C,R60*%
X70402023Y-198565671D03*
X64477021Y-198565671D03*
%TD*%
D12*
%TO.C,R9*%
X116592381Y-161758171D03*
X116592381Y-159933171D03*
%TD*%
D21*
%TO.C,D12*%
X243749999Y-197741982D03*
D22*
X241600000Y-197741981D03*
%TD*%
D39*
%TO.C,C17*%
X95900000Y-170720671D03*
X97800000Y-170720671D03*
%TD*%
D41*
%TO.C,Q7*%
X213792500Y-96293171D03*
X213792500Y-98193171D03*
X215667500Y-97243171D03*
%TD*%
D15*
%TO.C,C10*%
X117030671Y-174295671D03*
X115130671Y-174295671D03*
%TD*%
D14*
%TO.C,R72*%
X248537499Y-122765671D03*
X254462499Y-122765671D03*
%TD*%
D15*
%TO.C,C11*%
X116990671Y-171715671D03*
X115090671Y-171715671D03*
%TD*%
D30*
%TO.C,D2*%
X35350002Y-171080670D03*
D31*
X35350001Y-168930670D03*
%TD*%
D17*
%TO.C,R73*%
X193500000Y-182803171D03*
X193500000Y-188728171D03*
%TD*%
D42*
%TO.C,L1*%
X244550000Y-144423171D03*
X234050000Y-144423171D03*
%TD*%
D21*
%TO.C,D16*%
X200877500Y-155765671D03*
D22*
X198727501Y-155765671D03*
%TD*%
D12*
%TO.C,R53*%
X161450000Y-96210671D03*
X161450000Y-94385671D03*
%TD*%
D43*
%TO.C,Y1*%
X113020671Y-171785671D03*
X113020671Y-174285671D03*
%TD*%
D26*
%TO.C,D7*%
X113472498Y-103765671D03*
D27*
X115622498Y-103765671D03*
%TD*%
D23*
%TO.C,D22*%
X93942857Y-155760671D03*
X93942857Y-157635671D03*
%TD*%
D21*
%TO.C,D10*%
X231840001Y-113765671D03*
D22*
X229690000Y-113765672D03*
%TD*%
D44*
%TO.C,R4*%
X233430000Y-154028171D03*
X233430000Y-156103171D03*
%TD*%
D20*
%TO.C,R58*%
X37150001Y-139218171D03*
X37150001Y-133293171D03*
%TD*%
D15*
%TO.C,C9*%
X114540000Y-178700671D03*
X112640000Y-178700671D03*
%TD*%
D14*
%TO.C,R57*%
X173575000Y-124765671D03*
X179500000Y-124765671D03*
%TD*%
D28*
%TO.C,R61*%
X127674999Y-103515672D03*
X121749999Y-103515672D03*
%TD*%
D45*
%TO.C,Q6*%
X158807500Y-96198171D03*
X158807500Y-94298171D03*
X156932500Y-95248171D03*
%TD*%
D46*
%TO.C,JP1*%
X67440000Y-110295671D03*
D47*
X66140000Y-110295671D03*
%TD*%
D38*
%TO.C,A2*%
X176854864Y-82268611D03*
X174355030Y-82268611D03*
X176854864Y-85786585D03*
X174355030Y-85786585D03*
X176988158Y-67763403D03*
X174500000Y-67765671D03*
%TD*%
D12*
%TO.C,R10*%
X113360000Y-161758171D03*
X113360000Y-159933171D03*
%TD*%
D24*
%TO.C,C7*%
X121050000Y-160185671D03*
X121050000Y-162085671D03*
%TD*%
D23*
%TO.C,D24*%
X113332857Y-155750671D03*
X113332857Y-157625671D03*
%TD*%
D14*
%TO.C,R71*%
X80417499Y-131730671D03*
X86342499Y-131730671D03*
%TD*%
D23*
%TO.C,D28*%
X100932857Y-155750671D03*
X100932857Y-157625671D03*
%TD*%
D28*
%TO.C,R62*%
X76449292Y-97965669D03*
X70524292Y-97965673D03*
%TD*%
D12*
%TO.C,R6*%
X121070000Y-166648171D03*
X121070000Y-164823171D03*
%TD*%
D38*
%TO.C,A3*%
X93500000Y-70765671D03*
X95999834Y-70765671D03*
X93500000Y-67247697D03*
X95999834Y-67247697D03*
X93366706Y-85270879D03*
X95854864Y-85268611D03*
%TD*%
D12*
%TO.C,R15*%
X100936190Y-161758171D03*
X100936190Y-159933171D03*
%TD*%
D48*
%TO.C,Q5*%
X221960000Y-103108171D03*
D49*
X215660000Y-100828171D03*
X215660000Y-105388171D03*
%TD*%
D24*
%TO.C,C8*%
X123170000Y-164825671D03*
X123170000Y-166725671D03*
%TD*%
D23*
%TO.C,D25*%
X110072857Y-155750671D03*
X110072857Y-157625671D03*
%TD*%
%TO.C,D26*%
X107052857Y-155750671D03*
X107052857Y-157625671D03*
%TD*%
D50*
%TO.C,J5*%
X52500000Y-84385671D03*
D51*
X52500000Y-81845671D03*
X52500000Y-79305671D03*
X52500000Y-76765671D03*
X52500000Y-74225671D03*
%TD*%
D52*
%TO.C,U2*%
X263600000Y-163265671D03*
D53*
X263600000Y-158265671D03*
X263600000Y-153265671D03*
X263600000Y-148265671D03*
%TD*%
D54*
%TO.C,U4*%
X263237500Y-78263171D03*
X205237500Y-78263171D03*
X205237500Y-127263171D03*
%TD*%
D55*
%TO.C,J7*%
X202500000Y-136465671D03*
D56*
X202500000Y-142765671D03*
D57*
X197700000Y-139365671D03*
%TD*%
D58*
%TO.C,F1*%
X247330000Y-182515671D03*
X240570000Y-182515671D03*
D59*
X233290000Y-182515671D03*
X226530000Y-182515671D03*
%TD*%
D50*
%TO.C,U3*%
X206600000Y-68765671D03*
D51*
X206600000Y-71305671D03*
X209140000Y-68765671D03*
X209140000Y-71305671D03*
X211680000Y-68765671D03*
X211680000Y-71305671D03*
X214220000Y-68765671D03*
X214220000Y-71305671D03*
X216760000Y-68765671D03*
X216760000Y-71305671D03*
X219300000Y-68765671D03*
X219300000Y-71305671D03*
X221840000Y-68765671D03*
X221840000Y-71305671D03*
X224380000Y-68765671D03*
X224380000Y-71305671D03*
X226920000Y-68765671D03*
X226920000Y-71305671D03*
X229460000Y-68765671D03*
X229460000Y-71305671D03*
X232000000Y-68765671D03*
X232000000Y-71305671D03*
X234540000Y-68765671D03*
X234540000Y-71305671D03*
X237080000Y-68765671D03*
X237080000Y-71305671D03*
X239620000Y-68765671D03*
X239620000Y-71305671D03*
X242160000Y-68765671D03*
X242160000Y-71305671D03*
X244700000Y-68765671D03*
X244700000Y-71305671D03*
X247240000Y-68765671D03*
X247240000Y-71305671D03*
X249780000Y-68765671D03*
X249780000Y-71305671D03*
X252320000Y-68765671D03*
X252320000Y-71305671D03*
X254860000Y-68765671D03*
X254860000Y-71305671D03*
%TD*%
D60*
%TO.C,Q1*%
X242500000Y-191765671D03*
D61*
X239960000Y-191765671D03*
X237420000Y-191765671D03*
%TD*%
D62*
%TO.C,J2*%
X216500000Y-156265671D03*
X216500000Y-156165671D03*
X216500000Y-156115671D03*
X216500000Y-156015671D03*
X216500000Y-155815671D03*
X216500000Y-155715671D03*
X216500000Y-155665671D03*
X216500000Y-155565671D03*
X216500000Y-152465671D03*
X216500000Y-152365671D03*
X216500000Y-152315671D03*
X216500000Y-152215671D03*
X216500000Y-152015671D03*
X216500000Y-151915671D03*
X216500000Y-151865671D03*
X216500000Y-151765671D03*
X207860000Y-156265671D03*
X207860000Y-156165671D03*
X207860000Y-156115671D03*
X207860000Y-156015671D03*
X207860000Y-155815671D03*
X207860000Y-155715671D03*
X207860000Y-155665671D03*
X207860000Y-155615671D03*
X207860000Y-152465671D03*
X207860000Y-152415671D03*
X207860000Y-152315671D03*
X207860000Y-152015671D03*
X207860000Y-151915671D03*
X207860000Y-151865671D03*
X207860000Y-151765671D03*
D63*
X216480000Y-155915671D03*
X207880000Y-155915671D03*
X207880000Y-152115671D03*
X216500000Y-152115671D03*
%TD*%
D38*
%TO.C,J4*%
X73949320Y-110538019D03*
X89133849Y-113119451D03*
X73949320Y-120307866D03*
X89133849Y-110705332D03*
X73949320Y-115422942D03*
X89133849Y-115533570D03*
X89133849Y-117947689D03*
X89133849Y-120361808D03*
X73949320Y-117865404D03*
X73949320Y-112980481D03*
%TD*%
D64*
%TO.C,J1*%
X263500000Y-170765671D03*
D65*
X263500000Y-180765671D03*
%TD*%
M02*
