  0
SECTION
  2
HEADER
  9
$ACADVER
  1
AC1009
  0
ENDSEC
  0
SECTION
  2
ENTITIES
  0
CIRCLE
  5
90
  8
Layer_0
  62
1
  10
449.76105
  20
210.92065
  30
0
  40
3.325
  0
CIRCLE
  5
90
  8
Layer_0
  62
1
  10
447.67786
  20
181.63397
  30
0
  40
3.325
  0
CIRCLE
  5
90
  8
Layer_0
  62
1
  10
469.67786
  20
111.63397
  30
0
  40
3.325
  0
CIRCLE
  5
90
  8
Layer_0
  62
1
  10
471.76105
  20
140.92065
  30
0
  40
3.325
  0
CIRCLE
  5
90
  8
Layer_0
  62
1
  10
457.67786
  20
296.634
  30
0
  40
3.325
  0
CIRCLE
  5
90
  8
Layer_0
  62
1
  10
459.76105
  20
325.92065
  30
0
  40
3.325
  0
CIRCLE
  5
90
  8
Layer_0
  62
1
  10
437.76105
  20
395.92065
  30
0
  40
3.325
  0
CIRCLE
  5
90
  8
Layer_0
  62
1
  10
435.67786
  20
366.634
  30
0
  40
3.325
  0
CIRCLE
  5
90
  8
Layer_0
  62
1
  10
437.00421
  20
46.152771
  30
0
  40
3.1500001
  0
POLYLINE
  5
90
  8
Layer_0
  62
1
  66
1
  10
0
  20
0
  30
0
  0
VERTEX
  5
90
  8
Layer_0
  10
449.85002
  20
57.816132
  0
VERTEX
  5
91
  8
Layer_0
  10
449.85002
  20
58.866119
  42
0.4142093
  0
VERTEX
  5
92
  8
Layer_0
  10
448.90002
  20
59.816132
  0
VERTEX
  5
93
  8
Layer_0
  10
437.90002
  20
59.816132
  42
-0.41421356
  0
VERTEX
  5
94
  8
Layer_0
  10
436.85001
  20
60.866119
  0
VERTEX
  5
95
  8
Layer_0
  10
436.85002
  20
299.40294
  42
0.14109001
  0
VERTEX
  5
96
  8
Layer_0
  10
429.96822
  20
323.30513
  42
-0.14623993
  0
VERTEX
  5
97
  8
Layer_0
  10
425.37372
  20
339.89058
  0
VERTEX
  5
98
  8
Layer_0
  10
425.39374
  20
340.53772
  0
VERTEX
  5
99
  8
Layer_0
  10
428.80244
  20
422.18401
  0
SEQEND
  0
POLYLINE
  5
9b
  8
Layer_0
  62
1
  66
1
  10
0
  20
0
  30
0
  0
VERTEX
  5
9b
  8
Layer_0
  10
428.80244
  20
422.18401
  0
VERTEX
  5
9c
  8
Layer_0
  10
454.95001
  20
422.18401
  0
SEQEND
  0
POLYLINE
  5
9e
  8
Layer_0
  62
1
  66
1
  10
0
  20
0
  30
0
  0
VERTEX
  5
9e
  8
Layer_0
  10
454.95001
  20
422.18401
  0
VERTEX
  5
9f
  8
Layer_0
  10
454.95001
  20
422.18382
  0
VERTEX
  5
a0
  8
Layer_0
  10
457.85002
  20
422.18382
  0
VERTEX
  5
a1
  8
Layer_0
  10
457.85002
  20
422.18401
  0
VERTEX
  5
a2
  8
Layer_0
  10
467.95001
  20
422.18401
  0
VERTEX
  5
a3
  8
Layer_0
  10
467.95001
  20
422.18382
  0
VERTEX
  5
a4
  8
Layer_0
  10
473.85002
  20
422.18382
  0
VERTEX
  5
a5
  8
Layer_0
  10
473.85002
  20
422.18401
  0
VERTEX
  5
a6
  8
Layer_0
  10
476.40002
  20
422.18401
  42
-0.41421356
  0
VERTEX
  5
a7
  8
Layer_0
  10
483.95001
  20
414.634
  0
VERTEX
  5
a8
  8
Layer_0
  10
483.95001
  20
39.865997
  42
-0.41421356
  0
VERTEX
  5
a9
  8
Layer_0
  10
477.90002
  20
33.81601
  0
VERTEX
  5
aa
  8
Layer_0
  10
419.90002
  20
33.81601
  42
-0.41421356
  0
VERTEX
  5
ab
  8
Layer_0
  10
413.85002
  20
39.865997
  0
VERTEX
  5
ac
  8
Layer_0
  10
413.85002
  20
56.866119
  0
VERTEX
  5
ad
  8
Layer_0
  10
448.90002
  20
56.866119
  42
0.41421356
  0
VERTEX
  5
ae
  8
Layer_0
  10
449.85001
  20
57.816132
  0
SEQEND
  0
POLYLINE
  5
b0
  8
Layer_0
  62
1
  66
1
  10
0
  20
0
  30
0
  0
VERTEX
  5
b0
  8
Layer_0
  10
434.26103
  20
396.42064
  0
VERTEX
  5
b1
  8
Layer_0
  10
441.26103
  20
396.42064
  42
-0.41421356
  0
VERTEX
  5
b2
  8
Layer_0
  10
441.56104
  20
396.12064
  0
VERTEX
  5
b3
  8
Layer_0
  10
441.56104
  20
395.72064
  42
-0.41421356
  0
VERTEX
  5
b4
  8
Layer_0
  10
441.26103
  20
395.42064
  0
VERTEX
  5
b5
  8
Layer_0
  10
434.26103
  20
395.42064
  42
-0.41421356
  0
VERTEX
  5
b6
  8
Layer_0
  10
433.96103
  20
395.72064
  0
VERTEX
  5
b7
  8
Layer_0
  10
433.96103
  20
396.12064
  42
-0.41421356
  0
VERTEX
  5
b8
  8
Layer_0
  10
434.26103
  20
396.42064
  0
SEQEND
  0
POLYLINE
  5
ba
  8
Layer_0
  62
1
  66
1
  10
0
  20
0
  30
0
  0
VERTEX
  5
ba
  8
Layer_0
  10
432.16905
  20
367.22911
  0
VERTEX
  5
bb
  8
Layer_0
  10
439.16905
  20
367.22911
  42
-0.41421356
  0
VERTEX
  5
bc
  8
Layer_0
  10
439.46906
  20
366.92911
  0
VERTEX
  5
bd
  8
Layer_0
  10
439.46906
  20
366.52911
  42
-0.41421356
  0
VERTEX
  5
be
  8
Layer_0
  10
439.16905
  20
366.22911
  0
VERTEX
  5
bf
  8
Layer_0
  10
432.16905
  20
366.22911
  42
-0.41421356
  0
VERTEX
  5
c0
  8
Layer_0
  10
431.86905
  20
366.52911
  0
VERTEX
  5
c1
  8
Layer_0
  10
431.86905
  20
366.92911
  42
-0.41421356
  0
VERTEX
  5
c2
  8
Layer_0
  10
432.16905
  20
367.22911
  0
SEQEND
  0
POLYLINE
  5
c4
  8
Layer_0
  62
1
  66
1
  10
0
  20
0
  30
0
  0
VERTEX
  5
c4
  8
Layer_0
  10
454.05365
  20
297.30324
  0
VERTEX
  5
c5
  8
Layer_0
  10
461.05365
  20
297.30324
  42
-0.41421356
  0
VERTEX
  5
c6
  8
Layer_0
  10
461.35365
  20
297.00323
  0
VERTEX
  5
c7
  8
Layer_0
  10
461.35365
  20
296.60324
  42
-0.41421356
  0
VERTEX
  5
c8
  8
Layer_0
  10
461.05365
  20
296.30324
  0
VERTEX
  5
c9
  8
Layer_0
  10
454.05365
  20
296.30324
  42
-0.41421356
  0
VERTEX
  5
ca
  8
Layer_0
  10
453.75365
  20
296.60324
  0
VERTEX
  5
cb
  8
Layer_0
  10
453.75365
  20
297.00323
  42
-0.41421356
  0
VERTEX
  5
cc
  8
Layer_0
  10
454.05365
  20
297.30324
  0
SEQEND
  0
POLYLINE
  5
ce
  8
Layer_0
  62
1
  66
1
  10
0
  20
0
  30
0
  0
VERTEX
  5
ce
  8
Layer_0
  10
456.14563
  20
326.49477
  0
VERTEX
  5
cf
  8
Layer_0
  10
463.14563
  20
326.49477
  42
-0.41421356
  0
VERTEX
  5
d0
  8
Layer_0
  10
463.44563
  20
326.19476
  0
VERTEX
  5
d1
  8
Layer_0
  10
463.44563
  20
325.79477
  42
-0.41421356
  0
VERTEX
  5
d2
  8
Layer_0
  10
463.14563
  20
325.49477
  0
VERTEX
  5
d3
  8
Layer_0
  10
456.14563
  20
325.49477
  42
-0.41421356
  0
VERTEX
  5
d4
  8
Layer_0
  10
455.84563
  20
325.79477
  0
VERTEX
  5
d5
  8
Layer_0
  10
455.84563
  20
326.19476
  42
-0.41421356
  0
VERTEX
  5
d6
  8
Layer_0
  10
456.14563
  20
326.49477
  0
SEQEND
  0
POLYLINE
  5
d8
  8
Layer_0
  62
1
  66
1
  10
0
  20
0
  30
0
  0
VERTEX
  5
d8
  8
Layer_0
  10
444.23309
  20
182.21332
  0
VERTEX
  5
d9
  8
Layer_0
  10
451.23309
  20
182.21332
  42
-0.41421356
  0
VERTEX
  5
da
  8
Layer_0
  10
451.5331
  20
181.91333
  0
VERTEX
  5
db
  8
Layer_0
  10
451.5331
  20
181.51331
  42
-0.41421356
  0
VERTEX
  5
dc
  8
Layer_0
  10
451.23309
  20
181.21332
  0
VERTEX
  5
dd
  8
Layer_0
  10
444.23309
  20
181.21332
  42
-0.41421356
  0
VERTEX
  5
de
  8
Layer_0
  10
443.93309
  20
181.51331
  0
VERTEX
  5
df
  8
Layer_0
  10
443.93309
  20
181.91333
  42
-0.41421356
  0
VERTEX
  5
e0
  8
Layer_0
  10
444.23309
  20
182.21332
  0
SEQEND
  0
POLYLINE
  5
e2
  8
Layer_0
  62
1
  66
1
  10
0
  20
0
  30
0
  0
VERTEX
  5
e2
  8
Layer_0
  10
446.32507
  20
211.40485
  0
VERTEX
  5
e3
  8
Layer_0
  10
453.32507
  20
211.40485
  42
-0.41421356
  0
VERTEX
  5
e4
  8
Layer_0
  10
453.62508
  20
211.10486
  0
VERTEX
  5
e5
  8
Layer_0
  10
453.62508
  20
210.70483
  42
-0.41421356
  0
VERTEX
  5
e6
  8
Layer_0
  10
453.32507
  20
210.40485
  0
VERTEX
  5
e7
  8
Layer_0
  10
446.32507
  20
210.40485
  42
-0.41421356
  0
VERTEX
  5
e8
  8
Layer_0
  10
446.02507
  20
210.70483
  0
VERTEX
  5
e9
  8
Layer_0
  10
446.02507
  20
211.10486
  42
-0.41421356
  0
VERTEX
  5
ea
  8
Layer_0
  10
446.32507
  20
211.40485
  0
SEQEND
  0
POLYLINE
  5
ec
  8
Layer_0
  62
1
  66
1
  10
0
  20
0
  30
0
  0
VERTEX
  5
ec
  8
Layer_0
  10
468.20967
  20
141.47894
  0
VERTEX
  5
ed
  8
Layer_0
  10
475.20967
  20
141.47894
  42
-0.41421356
  0
VERTEX
  5
ee
  8
Layer_0
  10
475.50967
  20
141.17896
  0
VERTEX
  5
ef
  8
Layer_0
  10
475.50967
  20
140.77893
  42
-0.41421356
  0
VERTEX
  5
f0
  8
Layer_0
  10
475.20967
  20
140.47894
  0
VERTEX
  5
f1
  8
Layer_0
  10
468.20967
  20
140.47894
  42
-0.41421356
  0
VERTEX
  5
f2
  8
Layer_0
  10
467.90967
  20
140.77893
  0
VERTEX
  5
f3
  8
Layer_0
  10
467.90967
  20
141.17896
  42
-0.41421356
  0
VERTEX
  5
f4
  8
Layer_0
  10
468.20967
  20
141.47894
  0
SEQEND
  0
POLYLINE
  5
f6
  8
Layer_0
  62
1
  66
1
  10
0
  20
0
  30
0
  0
VERTEX
  5
f6
  8
Layer_0
  10
466.11769
  20
112.28741
  0
VERTEX
  5
f7
  8
Layer_0
  10
473.11769
  20
112.28741
  42
-0.41421356
  0
VERTEX
  5
f8
  8
Layer_0
  10
473.41769
  20
111.98743
  0
VERTEX
  5
f9
  8
Layer_0
  10
473.41769
  20
111.5874
  42
-0.41421356
  0
VERTEX
  5
fa
  8
Layer_0
  10
473.11769
  20
111.28741
  0
VERTEX
  5
fb
  8
Layer_0
  10
466.11769
  20
111.28741
  42
-0.41421356
  0
VERTEX
  5
fc
  8
Layer_0
  10
465.81769
  20
111.5874
  0
VERTEX
  5
fd
  8
Layer_0
  10
465.81769
  20
111.98743
  42
-0.41421356
  0
VERTEX
  5
fe
  8
Layer_0
  10
466.11769
  20
112.28741
  0
SEQEND
  0
POLYLINE
  5
100
  8
Layer_0
  62
1
  66
1
  10
0
  20
0
  30
0
  0
VERTEX
  5
100
  8
Layer_0
  10
433.50423
  20
46.652771
  0
VERTEX
  5
101
  8
Layer_0
  10
440.50423
  20
46.652771
  42
-0.41421356
  0
VERTEX
  5
102
  8
Layer_0
  10
440.80423
  20
46.352783
  0
VERTEX
  5
103
  8
Layer_0
  10
440.80423
  20
45.952759
  42
-0.41421356
  0
VERTEX
  5
104
  8
Layer_0
  10
440.50423
  20
45.652771
  0
VERTEX
  5
105
  8
Layer_0
  10
433.50423
  20
45.652771
  42
-0.41421356
  0
VERTEX
  5
106
  8
Layer_0
  10
433.20422
  20
45.952759
  0
VERTEX
  5
107
  8
Layer_0
  10
433.20422
  20
46.352783
  42
-0.41421356
  0
VERTEX
  5
108
  8
Layer_0
  10
433.50423
  20
46.652771
  0
SEQEND
  0
CIRCLE
  5
10a
  8
Layer_0
  62
1
  10
518.13904
  20
210.92065
  30
0
  40
3.325
  0
CIRCLE
  5
10a
  8
Layer_0
  62
1
  10
520.22217
  20
181.63397
  30
0
  40
3.325
  0
CIRCLE
  5
10a
  8
Layer_0
  62
1
  10
498.2222
  20
111.63397
  30
0
  40
3.325
  0
CIRCLE
  5
10a
  8
Layer_0
  62
1
  10
496.13901
  20
140.92065
  30
0
  40
3.325
  0
CIRCLE
  5
10a
  8
Layer_0
  62
1
  10
510.2222
  20
296.634
  30
0
  40
3.325
  0
CIRCLE
  5
10a
  8
Layer_0
  62
1
  10
508.13901
  20
325.92065
  30
0
  40
3.325
  0
CIRCLE
  5
10a
  8
Layer_0
  62
1
  10
530.13904
  20
395.92065
  30
0
  40
3.325
  0
CIRCLE
  5
10a
  8
Layer_0
  62
1
  10
532.22217
  20
366.634
  30
0
  40
3.325
  0
CIRCLE
  5
10a
  8
Layer_0
  62
1
  10
530.89581
  20
46.152771
  30
0
  40
3.1500001
  0
POLYLINE
  5
10a
  8
Layer_0
  62
1
  66
1
  10
0
  20
0
  30
0
  0
VERTEX
  5
10a
  8
Layer_0
  10
518.05002
  20
57.816132
  0
VERTEX
  5
10b
  8
Layer_0
  10
518.05002
  20
58.866119
  42
-0.4142093
  0
VERTEX
  5
10c
  8
Layer_0
  10
519.00002
  20
59.816132
  0
VERTEX
  5
10d
  8
Layer_0
  10
530.00002
  20
59.816132
  42
0.41421356
  0
VERTEX
  5
10e
  8
Layer_0
  10
531.05003
  20
60.866119
  0
VERTEX
  5
10f
  8
Layer_0
  10
531.05002
  20
299.40294
  42
-0.14109001
  0
VERTEX
  5
110
  8
Layer_0
  10
537.93182
  20
323.30513
  42
0.14623993
  0
VERTEX
  5
111
  8
Layer_0
  10
542.52633
  20
339.89058
  0
VERTEX
  5
112
  8
Layer_0
  10
542.50629
  20
340.53772
  0
VERTEX
  5
113
  8
Layer_0
  10
539.0976
  20
422.18401
  0
SEQEND
  0
POLYLINE
  5
115
  8
Layer_0
  62
1
  66
1
  10
0
  20
0
  30
0
  0
VERTEX
  5
115
  8
Layer_0
  10
539.0976
  20
422.18401
  0
VERTEX
  5
116
  8
Layer_0
  10
512.95002
  20
422.18401
  0
SEQEND
  0
POLYLINE
  5
118
  8
Layer_0
  62
1
  66
1
  10
0
  20
0
  30
0
  0
VERTEX
  5
118
  8
Layer_0
  10
512.95002
  20
422.18401
  0
VERTEX
  5
119
  8
Layer_0
  10
512.95002
  20
422.18382
  0
VERTEX
  5
11a
  8
Layer_0
  10
510.05002
  20
422.18382
  0
VERTEX
  5
11b
  8
Layer_0
  10
510.05002
  20
422.18401
  0
VERTEX
  5
11c
  8
Layer_0
  10
499.95002
  20
422.18401
  0
VERTEX
  5
11d
  8
Layer_0
  10
499.95002
  20
422.18382
  0
VERTEX
  5
11e
  8
Layer_0
  10
494.05002
  20
422.18382
  0
VERTEX
  5
11f
  8
Layer_0
  10
494.05002
  20
422.18401
  0
VERTEX
  5
120
  8
Layer_0
  10
491.50002
  20
422.18401
  42
0.41421356
  0
VERTEX
  5
121
  8
Layer_0
  10
483.95003
  20
414.634
  0
VERTEX
  5
122
  8
Layer_0
  10
483.95003
  20
39.865997
  42
0.41421356
  0
VERTEX
  5
123
  8
Layer_0
  10
490.00002
  20
33.81601
  0
VERTEX
  5
124
  8
Layer_0
  10
548.00002
  20
33.81601
  42
0.41421356
  0
VERTEX
  5
125
  8
Layer_0
  10
554.05002
  20
39.865997
  0
VERTEX
  5
126
  8
Layer_0
  10
554.05002
  20
56.866119
  0
VERTEX
  5
127
  8
Layer_0
  10
519.00002
  20
56.866119
  42
-0.41421356
  0
VERTEX
  5
128
  8
Layer_0
  10
518.05003
  20
57.816132
  0
SEQEND
  0
POLYLINE
  5
12a
  8
Layer_0
  62
1
  66
1
  10
0
  20
0
  30
0
  0
VERTEX
  5
12a
  8
Layer_0
  10
533.63901
  20
396.42064
  0
VERTEX
  5
12b
  8
Layer_0
  10
526.63901
  20
396.42064
  42
0.41421356
  0
VERTEX
  5
12c
  8
Layer_0
  10
526.339
  20
396.12064
  0
VERTEX
  5
12d
  8
Layer_0
  10
526.339
  20
395.72064
  42
0.41421356
  0
VERTEX
  5
12e
  8
Layer_0
  10
526.63901
  20
395.42064
  0
VERTEX
  5
12f
  8
Layer_0
  10
533.63901
  20
395.42064
  42
0.41421356
  0
VERTEX
  5
130
  8
Layer_0
  10
533.93901
  20
395.72064
  0
VERTEX
  5
131
  8
Layer_0
  10
533.93901
  20
396.12064
  42
0.41421356
  0
VERTEX
  5
132
  8
Layer_0
  10
533.63901
  20
396.42064
  0
SEQEND
  0
POLYLINE
  5
134
  8
Layer_0
  62
1
  66
1
  10
0
  20
0
  30
0
  0
VERTEX
  5
134
  8
Layer_0
  10
535.73099
  20
367.22911
  0
VERTEX
  5
135
  8
Layer_0
  10
528.73099
  20
367.22911
  42
0.41421356
  0
VERTEX
  5
136
  8
Layer_0
  10
528.43098
  20
366.92911
  0
VERTEX
  5
137
  8
Layer_0
  10
528.43098
  20
366.52911
  42
0.41421356
  0
VERTEX
  5
138
  8
Layer_0
  10
528.73099
  20
366.22911
  0
VERTEX
  5
139
  8
Layer_0
  10
535.73099
  20
366.22911
  42
0.41421356
  0
VERTEX
  5
13a
  8
Layer_0
  10
536.03099
  20
366.52911
  0
VERTEX
  5
13b
  8
Layer_0
  10
536.03099
  20
366.92911
  42
0.41421356
  0
VERTEX
  5
13c
  8
Layer_0
  10
535.73099
  20
367.22911
  0
SEQEND
  0
POLYLINE
  5
13e
  8
Layer_0
  62
1
  66
1
  10
0
  20
0
  30
0
  0
VERTEX
  5
13e
  8
Layer_0
  10
513.84639
  20
297.30324
  0
VERTEX
  5
13f
  8
Layer_0
  10
506.84639
  20
297.30324
  42
0.41421356
  0
VERTEX
  5
140
  8
Layer_0
  10
506.54639
  20
297.00323
  0
VERTEX
  5
141
  8
Layer_0
  10
506.54639
  20
296.60324
  42
0.41421356
  0
VERTEX
  5
142
  8
Layer_0
  10
506.84639
  20
296.30324
  0
VERTEX
  5
143
  8
Layer_0
  10
513.84639
  20
296.30324
  42
0.41421356
  0
VERTEX
  5
144
  8
Layer_0
  10
514.14639
  20
296.60324
  0
VERTEX
  5
145
  8
Layer_0
  10
514.14639
  20
297.00323
  42
0.41421356
  0
VERTEX
  5
146
  8
Layer_0
  10
513.84639
  20
297.30324
  0
SEQEND
  0
POLYLINE
  5
148
  8
Layer_0
  62
1
  66
1
  10
0
  20
0
  30
0
  0
VERTEX
  5
148
  8
Layer_0
  10
511.75441
  20
326.49477
  0
VERTEX
  5
149
  8
Layer_0
  10
504.75441
  20
326.49477
  42
0.41421356
  0
VERTEX
  5
14a
  8
Layer_0
  10
504.45441
  20
326.19476
  0
VERTEX
  5
14b
  8
Layer_0
  10
504.45441
  20
325.79477
  42
0.41421356
  0
VERTEX
  5
14c
  8
Layer_0
  10
504.75441
  20
325.49477
  0
VERTEX
  5
14d
  8
Layer_0
  10
511.75441
  20
325.49477
  42
0.41421356
  0
VERTEX
  5
14e
  8
Layer_0
  10
512.05441
  20
325.79477
  0
VERTEX
  5
14f
  8
Layer_0
  10
512.05441
  20
326.19476
  42
0.41421356
  0
VERTEX
  5
150
  8
Layer_0
  10
511.75441
  20
326.49477
  0
SEQEND
  0
POLYLINE
  5
152
  8
Layer_0
  62
1
  66
1
  10
0
  20
0
  30
0
  0
VERTEX
  5
152
  8
Layer_0
  10
523.66695
  20
182.21332
  0
VERTEX
  5
153
  8
Layer_0
  10
516.66695
  20
182.21332
  42
0.41421356
  0
VERTEX
  5
154
  8
Layer_0
  10
516.36694
  20
181.91333
  0
VERTEX
  5
155
  8
Layer_0
  10
516.36694
  20
181.51331
  42
0.41421356
  0
VERTEX
  5
156
  8
Layer_0
  10
516.66695
  20
181.21332
  0
VERTEX
  5
157
  8
Layer_0
  10
523.66695
  20
181.21332
  42
0.41421356
  0
VERTEX
  5
158
  8
Layer_0
  10
523.96695
  20
181.51331
  0
VERTEX
  5
159
  8
Layer_0
  10
523.96695
  20
181.91333
  42
0.41421356
  0
VERTEX
  5
15a
  8
Layer_0
  10
523.66695
  20
182.21332
  0
SEQEND
  0
POLYLINE
  5
15c
  8
Layer_0
  62
1
  66
1
  10
0
  20
0
  30
0
  0
VERTEX
  5
15c
  8
Layer_0
  10
521.57497
  20
211.40485
  0
VERTEX
  5
15d
  8
Layer_0
  10
514.57497
  20
211.40485
  42
0.41421356
  0
VERTEX
  5
15e
  8
Layer_0
  10
514.27496
  20
211.10486
  0
VERTEX
  5
15f
  8
Layer_0
  10
514.27496
  20
210.70483
  42
0.41421356
  0
VERTEX
  5
160
  8
Layer_0
  10
514.57497
  20
210.40485
  0
VERTEX
  5
161
  8
Layer_0
  10
521.57497
  20
210.40485
  42
0.41421356
  0
VERTEX
  5
162
  8
Layer_0
  10
521.87497
  20
210.70483
  0
VERTEX
  5
163
  8
Layer_0
  10
521.87497
  20
211.10486
  42
0.41421356
  0
VERTEX
  5
164
  8
Layer_0
  10
521.57497
  20
211.40485
  0
SEQEND
  0
POLYLINE
  5
166
  8
Layer_0
  62
1
  66
1
  10
0
  20
0
  30
0
  0
VERTEX
  5
166
  8
Layer_0
  10
499.69037
  20
141.47894
  0
VERTEX
  5
167
  8
Layer_0
  10
492.69037
  20
141.47894
  42
0.41421356
  0
VERTEX
  5
168
  8
Layer_0
  10
492.39037
  20
141.17896
  0
VERTEX
  5
169
  8
Layer_0
  10
492.39037
  20
140.77893
  42
0.41421356
  0
VERTEX
  5
16a
  8
Layer_0
  10
492.69037
  20
140.47894
  0
VERTEX
  5
16b
  8
Layer_0
  10
499.69037
  20
140.47894
  42
0.41421356
  0
VERTEX
  5
16c
  8
Layer_0
  10
499.99037
  20
140.77893
  0
VERTEX
  5
16d
  8
Layer_0
  10
499.99037
  20
141.17896
  42
0.41421356
  0
VERTEX
  5
16e
  8
Layer_0
  10
499.69037
  20
141.47894
  0
SEQEND
  0
POLYLINE
  5
170
  8
Layer_0
  62
1
  66
1
  10
0
  20
0
  30
0
  0
VERTEX
  5
170
  8
Layer_0
  10
501.78235
  20
112.28741
  0
VERTEX
  5
171
  8
Layer_0
  10
494.78235
  20
112.28741
  42
0.41421356
  0
VERTEX
  5
172
  8
Layer_0
  10
494.48235
  20
111.98743
  0
VERTEX
  5
173
  8
Layer_0
  10
494.48235
  20
111.5874
  42
0.41421356
  0
VERTEX
  5
174
  8
Layer_0
  10
494.78235
  20
111.28741
  0
VERTEX
  5
175
  8
Layer_0
  10
501.78235
  20
111.28741
  42
0.41421356
  0
VERTEX
  5
176
  8
Layer_0
  10
502.08235
  20
111.5874
  0
VERTEX
  5
177
  8
Layer_0
  10
502.08235
  20
111.98743
  42
0.41421356
  0
VERTEX
  5
178
  8
Layer_0
  10
501.78235
  20
112.28741
  0
SEQEND
  0
POLYLINE
  5
17a
  8
Layer_0
  62
1
  66
1
  10
0
  20
0
  30
0
  0
VERTEX
  5
17a
  8
Layer_0
  10
534.39581
  20
46.652771
  0
VERTEX
  5
17b
  8
Layer_0
  10
527.39581
  20
46.652771
  42
0.41421356
  0
VERTEX
  5
17c
  8
Layer_0
  10
527.09581
  20
46.352783
  0
VERTEX
  5
17d
  8
Layer_0
  10
527.09581
  20
45.952759
  42
0.41421356
  0
VERTEX
  5
17e
  8
Layer_0
  10
527.39581
  20
45.652771
  0
VERTEX
  5
17f
  8
Layer_0
  10
534.39581
  20
45.652771
  42
0.41421356
  0
VERTEX
  5
180
  8
Layer_0
  10
534.69582
  20
45.952759
  0
VERTEX
  5
181
  8
Layer_0
  10
534.69582
  20
46.352783
  42
0.41421356
  0
VERTEX
  5
182
  8
Layer_0
  10
534.39581
  20
46.652771
  0
SEQEND
  0
ENDSEC
  0
EOF
