<?xml version="1.0" encoding="UTF-8" standalone="no"?>
<!-- Created with Inkscape (http://www.inkscape.org/) -->

<svg
   xmlns:dc="http://purl.org/dc/elements/1.1/"
   xmlns:cc="http://creativecommons.org/ns#"
   xmlns:rdf="http://www.w3.org/1999/02/22-rdf-syntax-ns#"
   xmlns:svg="http://www.w3.org/2000/svg"
   xmlns="http://www.w3.org/2000/svg"
   xmlns:sodipodi="http://sodipodi.sourceforge.net/DTD/sodipodi-0.dtd"
   xmlns:inkscape="http://www.inkscape.org/namespaces/inkscape"
   width="147.36238mm"
   height="58.340618mm"
   viewBox="0 0 147.36238 58.340618"
   version="1.1"
   id="svg8"
   inkscape:version="0.92.5 (2060ec1f9f, 2020-04-08)"
   sodipodi:docname="HAT+ Logo.svg">
  <defs
     id="defs2" />
  <sodipodi:namedview
     id="base"
     pagecolor="#ffffff"
     bordercolor="#666666"
     borderopacity="1.0"
     inkscape:pageopacity="0.0"
     inkscape:pageshadow="2"
     inkscape:zoom="1.3689145"
     inkscape:cx="264.4255"
     inkscape:cy="40.718693"
     inkscape:document-units="mm"
     inkscape:current-layer="layer1"
     showgrid="false"
     fit-margin-top="0"
     fit-margin-left="0"
     fit-margin-right="0"
     fit-margin-bottom="0"
     inkscape:window-width="1600"
     inkscape:window-height="838"
     inkscape:window-x="-8"
     inkscape:window-y="-8"
     inkscape:window-maximized="1" />
  <metadata
     id="metadata5">
    <rdf:RDF>
      <cc:Work
         rdf:about="">
        <dc:format>image/svg+xml</dc:format>
        <dc:type
           rdf:resource="http://purl.org/dc/dcmitype/StillImage" />
        <dc:title></dc:title>
      </cc:Work>
    </rdf:RDF>
  </metadata>
  <g
     inkscape:label="Layer 1"
     inkscape:groupmode="layer"
     id="layer1"
     transform="translate(-22.251781,-217.43954)">
    <path
       style="fill:#000000;stroke-width:0.26458335"
       d="m 95.851629,275.76855 c -56.034531,-0.01 -67.562221,-0.0721 -68.39863,-0.37043 -0.553271,-0.19735 -1.466441,-0.67794 -2.029266,-1.06797 -0.562825,-0.39004 -1.34244,-1.16966 -1.732478,-1.73248 -0.390038,-0.56283 -0.870627,-1.476 -1.067974,-2.02927 -0.291102,-0.81611 -0.361006,-5.30337 -0.370428,-23.77824 -0.01,-19.56164 0.04471,-22.96195 0.387878,-24.11752 0.25229,-0.84955 0.836168,-1.83092 1.584593,-2.66335 0.651805,-0.72497 1.751956,-1.59974 2.444779,-1.94394 l 1.259678,-0.62581 h 67.997918 67.997921 l 1.25968,0.62581 c 0.69282,0.3442 1.79297,1.21897 2.44478,1.94394 0.74842,0.83243 1.3323,1.8138 1.58459,2.66335 0.3427,1.15402 0.39949,4.57133 0.39949,24.04145 0,22.29576 -0.01,22.72202 -0.54706,24.15835 -0.3383,0.90421 -0.99569,1.91078 -1.72279,2.63787 -0.72709,0.7271 -1.73366,1.38449 -2.63787,1.7228 l -1.46213,0.54705 z m 0.07607,-3.69338 c 63.207011,0 66.990171,-0.0258 67.846821,-0.46261 0.49898,-0.25443 1.15382,-0.79872 1.45521,-1.20952 0.5429,-0.74001 0.54861,-0.95771 0.61749,-23.54792 0.0666,-21.82568 0.0484,-22.84061 -0.42442,-23.72704 -0.27166,-0.50933 -0.95779,-1.19198 -1.52473,-1.51701 l -1.03079,-0.59095 -66.939581,0.008 c -62.486821,0.008 -67.000556,0.0383 -67.856192,0.45867 -0.504135,0.24767 -1.297464,0.40791 -1.919994,1.65133 l -0.206107,0.86279 v 22.54244 22.8082 l 0.600587,0.89903 c 0.330322,0.49446 1.014932,1.1072 1.521354,1.36163 0.869354,0.43678 4.658501,0.46261 67.860352,0.46261 z m -56.460235,-7.14293 c -1.9015,0 -2.581877,-0.0256 -2.581877,-0.0256 0.05393,-0.24057 -0.09226,-8.65009 -0.09226,-18.23066 0,-9.58057 0.08812,-18.24845 0.08812,-18.24845 0,0 0.684522,-0.008 2.586022,-0.008 h 2.352942 v 7.80869 7.80868 l 9.06198,-0.0696 9.061979,-0.0696 0.07016,-7.74894 0.07016,-7.74894 2.554426,0.0162 2.315257,-0.018 0.01708,18.2777 v 18.12396 l -2.447396,0.0761 -2.447396,0.0761 v -8.19886 c 0,-6.82612 -0.06321,-8.23429 -0.37755,-8.41045 -0.20765,-0.11638 -4.315307,-0.17868 -9.128125,-0.13845 l -8.750576,0.0731 v 8.32738 8.32738 z m 33.293577,0 c -2.076053,0 -2.560337,-0.004 -2.560337,-0.004 -7.94e-4,-0.25466 0.539791,-1.81503 0.965045,-2.90643 0.425252,-1.09141 1.386036,-3.59172 2.135074,-5.55625 0.749041,-1.96453 1.699694,-4.46485 2.112566,-5.55625 0.412872,-1.09141 1.369467,-3.59172 2.125768,-5.55625 0.756301,-1.96453 1.731883,-4.52438 2.167964,-5.68854 0.436079,-1.16417 0.889246,-2.3548 1.007036,-2.64584 0.11779,-0.29104 0.594527,-1.5412 1.059413,-2.77812 0.464886,-1.23693 1.09101,-2.90381 1.391386,-3.70417 0.300373,-0.80036 0.75091,-1.9302 0.890456,-2.1121 0,0 0.881292,-0.005 2.19543,-0.005 h 2.032306 l 1.129909,2.97657 c 0.621448,1.63711 1.489612,3.92906 1.929254,5.09323 0.439643,1.16416 0.907069,2.38455 1.038723,2.71197 0.131656,0.32743 0.347091,0.86321 0.478747,1.19063 0.131654,0.32742 0.61925,1.60734 1.083543,2.84427 0.464294,1.23693 0.940705,2.48708 1.058696,2.77813 0.117988,0.29104 0.713801,1.83885 1.324025,3.43958 0.610225,1.60073 1.466189,3.86292 1.90214,5.02708 0.435954,1.16417 0.889178,2.35479 1.007169,2.64584 0.117988,0.29104 0.711033,1.83885 1.317876,3.43958 0.48901,1.48765 1.09544,2.80123 1.67088,4.25113 0,0 -0.82653,0.0387 -2.487846,0.0238 l -2.71665,-0.0415 -0.436436,-1.19062 c -0.240043,-0.65485 -0.527129,-1.42875 -0.637974,-1.71979 -0.110844,-0.29105 -0.379725,-1.00542 -0.597514,-1.5875 -0.217789,-0.58209 -0.572547,-1.59412 -0.788357,-2.24896 -0.215808,-0.65485 -0.531292,-1.51805 -0.701072,-1.91823 l -0.308695,-0.72761 h -7.31135 c -5.534306,0 -7.374414,0.0804 -7.570817,0.33073 -0.142711,0.1819 -0.566603,1.2237 -0.941988,2.31511 -0.375383,1.0914 -1.041067,2.96823 -1.479294,4.17073 -0.438226,1.20249 -0.966016,2.4971 -1.054749,2.64067 -0.08873,0.14358 -1.129227,0.0678 -2.430327,0.0678 z M 86.1225,251.43849 c 3.655264,0 5.733635,-0.0982 5.843612,-0.27617 0.09388,-0.1519 0.06282,-0.41979 -0.06902,-0.59531 -0.131837,-0.17553 -0.401659,-0.85492 -0.599604,-1.50977 -0.197945,-0.65484 -0.432684,-1.30968 -0.521639,-1.4552 -0.08896,-0.14553 -0.313508,-0.74084 -0.498999,-1.32292 -0.185492,-0.58208 -0.437375,-1.29646 -0.559742,-1.5875 -0.122367,-0.29104 -0.423392,-1.06495 -0.668944,-1.71979 -0.245549,-0.65485 -0.62068,-1.72641 -0.833622,-2.38125 -0.212942,-0.65485 -0.459272,-1.36922 -0.547399,-1.5875 -0.08813,-0.21828 -0.41674,-1.10402 -0.730248,-1.9683 -0.31351,-0.86428 -0.710784,-1.61834 -0.882838,-1.67569 -0.500104,0.69007 -0.823365,2.00481 -1.164479,2.91557 -0.275283,0.76443 -0.678524,1.92566 -0.896088,2.5805 -0.217564,0.65484 -0.500642,1.42875 -0.629065,1.71979 -0.128421,0.29104 -0.606669,1.60073 -1.062771,2.91042 -0.456102,1.30969 -0.92552,2.61937 -1.043151,2.91042 -0.117634,0.29104 -0.347766,0.86219 -0.511405,1.26921 -0.16364,0.40703 -0.297527,0.97258 -0.297527,1.25678 0,0.4965 0.221948,0.51671 5.672926,0.51671 z m 28.59091,13.51002 -2.51384,0.004 V 248.80775 232.6634 l -5.85132,0.0133 -5.67306,-0.0471 0.015,-2.0931 v -1.98437 h 14.02292 14.02291 v 1.98437 1.98438 l -5.75264,0.0713 -5.75264,0.0713 -0.0682,16.06828 0.11868,16.17907 z m 29.50075,-3.72043 h -2.37073 l -0.0714,-5.6224 -0.0714,-5.62239 -4.96094,-0.072 -4.96094,-0.072 v -2.23728 -2.23729 l 4.96094,-0.072 4.96094,-0.072 0.0717,-5.22553 0.0717,-5.22552 h 2.37006 2.37006 l 0.0717,5.22552 0.0717,5.22553 4.96094,0.072 4.96094,0.072 v 2.23729 2.23728 l -4.96094,0.072 -4.96094,0.072 -0.0714,5.62239 -0.0714,5.6224 z"
       id="path843"
       inkscape:connector-curvature="0"
       sodipodi:nodetypes="ccccccsccccccccsccccccccccccccccccccccssscscccccccccccccscccccscccccscscccscscccscsscccccscccscsccccccscccccsccccccscsccssscccccccccccccccccccccccccccccccccccccccccc" />
  </g>
</svg>
