0
SECTION
2
HEADER
9
$INSUNITS
70
4
9
$ACADVER
1
AC1014
9
$HANDSEED
5
FFFF
0
ENDSEC
0
SECTION
2
TABLES
0
TABLE
2
VPORT
5
8
100
AcDbSymbolTable
0
ENDTAB
0
TABLE
2
LTYPE
5
5
100
AcDbSymbolTable
70
2
0
LTYPE
5
14
100
AcDbSymbolTableRecord
100
AcDbLinetypeTableRecord
2
BYBLOCK
70
0
0
LTYPE
5
15
100
AcDbSymbolTableRecord
100
AcDbLinetypeTableRecord
2
BYLAYER
70
0
0
ENDTAB
0
TABLE
2
LAYER
5
2
100
AcDbSymbolTable
70
3
0
LAYER
5
50
100
AcDbSymbolTableRecord
100
AcDbLayerTableRecord
2
0
70
0
6
CONTINUOUS
0
LAYER
5
51
100
AcDbSymbolTableRecord
100
AcDbLayerTableRecord
2
CUTOUTS
70
0
62
1
6
CONTINUOUS
0
LAYER
5
52
100
AcDbSymbolTableRecord
100
AcDbLayerTableRecord
2
PERIMETER
70
0
62
5
6
CONTINUOUS
0
ENDTAB
0
TABLE
2
STYLE
5
3
100
AcDbSymbolTable
70
1
0
STYLE
5
11
100
AcDbSymbolTableRecord
100
AcDbTextStyleTableRecord
2
STANDARD
70
0
0
ENDTAB
0
TABLE
2
VIEW
5
6
100
AcDbSymbolTable
0
ENDTAB
0
TABLE
2
UCS
5
7
100
AcDbSymbolTable
0
ENDTAB
0
TABLE
2
APPID
5
9
100
AcDbSymbolTable
70
1
0
APPID
5
12
100
AcDbSymbolTableRecord
100
AcDbRegAppTableRecord
2
ACAD
70
0
0
ENDTAB
0
TABLE
2
DIMSTYLE
5
A
100
AcDbSymbolTable
0
ENDTAB
0
TABLE
2
BLOCK_RECORD
5
1
100
AcDbSymbolTable
70
2
0
BLOCK_RECORD
5
1F
100
AcDbSymbolTableRecord
100
AcDbBlockTableRecord
2
*MODEL_SPACE
0
BLOCK_RECORD
5
1B
100
AcDbSymbolTableRecord
100
AcDbBlockTableRecord
2
*PAPER_SPACE
0
ENDTAB
0
ENDSEC
0
SECTION
2
BLOCKS
0
BLOCK
5
20
100
AcDbEntity
100
AcDbBlockBegin
2
*MODEL_SPACE
0
ENDBLK
5
21
100
AcDbEntity
100
AcDbBlockEnd
0
BLOCK
5
1C
100
AcDbEntity
100
AcDbBlockBegin
2
*PAPER_SPACE
0
ENDBLK
5
1D
100
AcDbEntity
100
AcDbBlockEnd
0
ENDSEC
0
SECTION
2
ENTITIES
0
CIRCLE
5
100
100
AcDbEntity
8
CUTOUTS
100
AcDbCircle
10
-94.583407111135358
20
97
30
0
40
1.4499999999999957
210
0
220
0
230
1
0
CIRCLE
5
101
100
AcDbEntity
8
CUTOUTS
100
AcDbCircle
10
47.291703555567608
20
97
30
0
40
1.4499999999999957
210
0
220
0
230
1
0
CIRCLE
5
102
100
AcDbEntity
8
CUTOUTS
100
AcDbCircle
10
94.583407111135358
20
97
30
0
40
1.4499999999999957
210
0
220
0
230
1
0
CIRCLE
5
103
100
AcDbEntity
8
CUTOUTS
100
AcDbCircle
10
-47.291703555567679
20
97
30
0
40
1.4499999999999957
210
0
220
0
230
1
0
CIRCLE
5
104
100
AcDbEntity
8
CUTOUTS
100
AcDbCircle
10
0
20
97
30
0
40
1.4500000000000002
210
0
220
0
230
1
0
CIRCLE
5
105
100
AcDbEntity
8
CUTOUTS
100
AcDbCircle
10
108.99999804794781
20
86.422177827662466
30
-7.1054273576010019e-14
40
3.149999999999995
210
0
220
0
230
1
0
CIRCLE
5
106
100
AcDbEntity
8
CUTOUTS
100
AcDbCircle
10
-108.99999804794781
20
86.422177827662466
30
-7.1054273576010019e-14
40
3.149999999999995
210
0
220
0
230
1
0
CIRCLE
5
107
100
AcDbEntity
8
CUTOUTS
100
AcDbCircle
10
-145.63473684175517
20
89.895675624240283
30
-7.1054273576010019e-14
40
1.4499999999999957
210
0
220
0
230
1
0
CIRCLE
5
108
100
AcDbEntity
8
CUTOUTS
100
AcDbCircle
10
145.6347368417554
20
89.895675624240127
30
-7.1054273576010019e-14
40
1.4499999999999957
210
0
220
0
230
1
0
CIRCLE
5
109
100
AcDbEntity
8
CUTOUTS
100
AcDbCircle
10
-146.77799999999991
20
44.824683777892851
30
-7.1054273576010019e-14
40
1.4499999999999957
210
0
220
0
230
1
0
CIRCLE
5
10A
100
AcDbEntity
8
CUTOUTS
100
AcDbCircle
10
146.77800000000008
20
44.824683777892687
30
-7.1054273576010019e-14
40
1.4499999999999957
210
0
220
0
230
1
0
CIRCLE
5
10B
100
AcDbEntity
8
CUTOUTS
100
AcDbCircle
10
-146.77799999999991
20
-2.4670197776747571
30
-7.1054273576010019e-14
40
1.4499999999999957
210
0
220
0
230
1
0
CIRCLE
5
10C
100
AcDbEntity
8
CUTOUTS
100
AcDbCircle
10
146.77800000000008
20
-2.467019777674917
30
-7.1054273576010019e-14
40
1.4499999999999957
210
0
220
0
230
1
0
CIRCLE
5
10D
100
AcDbEntity
8
CUTOUTS
100
AcDbCircle
10
-146.77799999999991
20
-49.758723333242507
30
-7.1054273576010019e-14
40
1.4499999999999957
210
0
220
0
230
1
0
CIRCLE
5
10E
100
AcDbEntity
8
CUTOUTS
100
AcDbCircle
10
146.77800000000008
20
-49.758723333242671
30
-7.1054273576010019e-14
40
1.4499999999999957
210
0
220
0
230
1
0
CIRCLE
5
10F
100
AcDbEntity
8
CUTOUTS
100
AcDbCircle
10
-139.66104638252148
20
-88.862596224505268
30
-7.1054273576010019e-14
40
1.4499999999999957
210
0
220
0
230
1
0
CIRCLE
5
110
100
AcDbEntity
8
CUTOUTS
100
AcDbCircle
10
139.6610463825215
20
-88.862596224505353
30
-7.1054273576010019e-14
40
1.4499999999999957
210
0
220
0
230
1
0
CIRCLE
5
111
100
AcDbEntity
8
CUTOUTS
100
AcDbCircle
10
-94.583407111135358
20
-90
30
0
40
1.4499999999999957
210
0
220
0
230
1
0
CIRCLE
5
112
100
AcDbEntity
8
CUTOUTS
100
AcDbCircle
10
94.583407111135358
20
-90
30
0
40
1.4499999999999957
210
0
220
0
230
1
0
CIRCLE
5
113
100
AcDbEntity
8
CUTOUTS
100
AcDbCircle
10
-47.291703555567679
20
-90
30
0
40
1.4499999999999957
210
0
220
0
230
1
0
CIRCLE
5
114
100
AcDbEntity
8
CUTOUTS
100
AcDbCircle
10
47.291703555567608
20
-90
30
0
40
1.4499999999999957
210
0
220
0
230
1
0
CIRCLE
5
115
100
AcDbEntity
8
CUTOUTS
100
AcDbCircle
10
0
20
-90
30
0
40
1.4500000000000002
210
0
220
0
230
1
0
LWPOLYLINE
5
116
100
AcDbEntity
8
PERIMETER
100
AcDbPolyline
90
16
70
1
43
0.0
10
-151.55000000000004
20
87.72199999999998
10
-151.55000000000004
20
-83.721999999999994
42
0.41421356237309476
10
-134.5
20
-100.77200000000002
10
134.5
20
-100.77200000000002
42
0.41421356237309503
10
151.54999999999998
20
-83.722000000000008
10
151.54999999999998
20
87.722000000000037
42
0.41421356237309503
10
134.5
20
104.77199999999999
10
133.94999999999993
20
104.77199999999999
10
133.94999999999993
20
49.272177827662425
10
125.04999999999997
20
49.272177827662425
10
125.04999999999997
20
104.77199999999999
10
-125.04999999999997
20
104.77199999999999
10
-125.04999999999997
20
49.272177827662425
10
-133.94999999999993
20
49.272177827662425
10
-133.94999999999999
20
104.77199999999999
10
-134.50000000000003
20
104.77199999999999
42
0.41421356237309503
0
ENDSEC
0
SECTION
2
OBJECTS
0
DICTIONARY
5
C
100
AcDbDictionary
3
ACAD_GROUP
350
D
3
ACAD_MLINESTYLE
350
17
0
DICTIONARY
5
D
100
AcDbDictionary
0
DICTIONARY
5
1A
330
C
100
AcDbDictionary
0
DICTIONARY
5
17
100
AcDbDictionary
0
ENDSEC
0
EOF
