M48
; DRILL file {KiCad 9.0.2} date 2025-09-02T22:44:25-0500
; FORMAT={-:-/ absolute / inch / decimal}
; #@! TF.CreationDate,2025-09-02T22:44:25-05:00
; #@! TF.GenerationSoftware,Kicad,Pcbnew,9.0.2
; #@! TF.FileFunction,Plated,1,2,PTH
FMAT,2
INCH
; #@! TA.AperFunction,Plated,PTH,ViaDrill
T1C0.0118
; #@! TA.AperFunction,Plated,PTH,ComponentDrill
T2C0.0197
; #@! TA.AperFunction,Plated,PTH,ComponentDrill
T3C0.0394
; #@! TA.AperFunction,Plated,PTH,ComponentDrill
T4C0.0433
; #@! TA.AperFunction,Plated,PTH,ComponentDrill
T5C0.0472
; #@! TA.AperFunction,Plated,PTH,ComponentDrill
T6C0.1083
; #@! TA.AperFunction,Plated,PTH,ComponentDrill
T7C0.2520
%
G90
G05
T1
X-2.862Y0.4379
X-2.8307Y0.9167
X-2.8189Y0.6943
X-2.764Y-1.1879
X-2.7556Y-0.7688
X-2.7504Y0.2955
X-2.748Y-0.4782
X-2.7461Y-0.1488
X-2.7165Y-2.0853
X-2.7067Y-3.8018
X-2.7047Y-1.7231
X-2.689Y0.6864
X-2.685Y-2.6443
X-2.685Y-3.1542
X-2.5891Y0.5392
X-2.5709Y0.0998
X-2.561Y-0.3786
X-2.5335Y-1.8805
X-2.514Y-1.665
X-2.5111Y-3.9738
X-2.491Y0.3753
X-2.4606Y0.7258
X-2.4376Y-0.6662
X-2.4303Y-1.7487
X-2.4291Y-2.2349
X-2.3976Y1.334
X-2.3883Y0.1037
X-2.3795Y-0.3677
X-2.3228Y-3.79
X-2.2735Y-2.0882
X-2.2695Y-1.2253
X-2.2513Y-1.5557
X-2.2425Y-0.746
X-2.2126Y1.1017
X-2.2125Y-0.017
X-2.2123Y0.0419
X-2.2028Y0.2317
X-2.1929Y-2.6916
X-2.189Y-3.1305
X-2.185Y0.4935
X-2.1838Y-0.2682
X-2.1791Y1.2789
X-2.1711Y-0.5737
X-2.1693Y-1.0341
X-2.1496Y-2.9317
X-2.1339Y-3.4357
X-2.1236Y-2.245
X-2.1199Y-0.7219
X-2.0827Y-0.3805
X-2.0636Y-2.1323
X-2.0315Y-1.9711
X-2.0295Y-3.8963
X-2.025Y-1.1775
X-2.0197Y-0.4396
X-2.0048Y-3.7398
X-2.0029Y-0.612
X-2.0001Y-2.6531
X-1.9925Y-2.881
X-1.9862Y-0.0459
X-1.9772Y-2.2233
X-1.9488Y0.4029
X-1.9436Y-1.0795
X-1.9331Y0.3537
X-1.9291Y-0.3451
X-1.9114Y-1.7014
X-1.8976Y0.8832
X-1.8976Y-0.0498
X-1.8917Y-1.2209
X-1.8821Y-2.6946
X-1.8791Y-2.8834
X-1.8701Y0.3439
X-1.8558Y-0.9869
X-1.8543Y-0.416
X-1.8399Y-3.8572
X-1.8346Y1.21
X-1.8346Y-2.1561
X-1.8305Y0.2039
X-1.813Y-3.5183
X-1.811Y0.4226
X-1.811Y-0.7782
X-1.7913Y-0.0498
X-1.7717Y1.0919
X-1.7625Y-1.0695
X-1.738Y-1.7909
X-1.7343Y-2.3451
X-1.7269Y0.8607
X-1.7044Y-1.3761
X-1.7028Y1.3084
X-1.6893Y-1.5546
X-1.6754Y0.5276
X-1.6654Y-3.0341
X-1.6642Y0.3911
X-1.6457Y-2.7939
X-1.6457Y-3.3038
X-1.6349Y0.1919
X-1.6157Y-1.1379
X-1.6102Y-2.475
X-1.6024Y1.1431
X-1.5625Y0.4219
X-1.5472Y-0.4317
X-1.5465Y-0.8876
X-1.5355Y-1.0654
X-1.5118Y-2.0912
X-1.4646Y1.3281
X-1.4377Y-3.4078
X-1.4331Y-3.287
X-1.4278Y-0.8714
X-1.4174Y-1.5632
X-1.4114Y1.0112
X-1.4035Y-0.0498
X-1.4016Y-2.2998
X-1.3924Y0.5187
X-1.3514Y-1.6244
X-1.3465Y0.3163
X-1.3465Y-3.8727
X-1.3437Y-0.3198
X-1.3405Y-1.1012
X-1.3308Y-0.4499
X-1.3189Y-0.6994
X-1.3168Y-0.9445
X-1.2945Y1.1185
X-1.2832Y-2.6877
X-1.249Y-2.8107
X-1.248Y-1.8136
X-1.2402Y-0.7585
X-1.2269Y-3.2696
X-1.215Y-1.235
X-1.187Y-1.8963
X-1.1788Y-2.0847
X-1.1654Y-2.2427
X-1.1535Y1.1706
X-1.1529Y-3.433
X-1.1515Y-2.7274
X-1.1438Y-0.3147
X-1.1398Y-0.0479
X-1.126Y0.4108
X-1.1211Y-3.2673
X-1.063Y-0.7388
X-1.063Y-1.8156
X-1.0197Y0.3124
X-1.0098Y1.3124
X-0.9684Y-1.2284
X-0.9596Y-2.8859
X-0.9449Y-3.4081
X-0.937Y0.4069
X-0.9213Y-3.8412
X-0.9035Y0.2395
X-0.8806Y-1.5657
X-0.878Y-1.0853
X-0.8677Y-2.2387
X-0.8661Y0.3124
X-0.8388Y-1.7762
X-0.8386Y0.2336
X-0.8346Y1.1234
X-0.8031Y-3.1325
X-0.7894Y0.5053
X-0.7874Y-1.2152
X-0.7874Y-2.0813
X-0.7689Y0.8568
X-0.7638Y-1.9101
X-0.7598Y-0.0479
X-0.7506Y-0.8901
X-0.75Y-2.5361
X-0.7441Y1.2179
X-0.7439Y-1.5588
X-0.7402Y0.4069
X-0.7303Y-0.725
X-0.7202Y-0.452
X-0.7133Y-1.7354
X-0.705Y-2.8007
X-0.6973Y0.3253
X-0.6591Y-1.1714
X-0.6444Y-0.3159
X-0.6437Y-1.916
X-0.6379Y-1.2353
X-0.6181Y-1.6148
X-0.6027Y-1.1412
X-0.5925Y-0.0361
X-0.5702Y-1.1725
X-0.5656Y-2.803
X-0.5589Y-1.0771
X-0.5492Y-1.4947
X-0.512Y-0.4495
X-0.4961Y-2.1207
X-0.4646Y-1.1679
X-0.4587Y0.3281
X-0.4464Y-0.3153
X-0.4375Y-1.2373
X-0.4035Y0.4069
X-0.4016Y0.8517
X-0.3851Y-1.5318
X-0.3583Y-2.3746
X-0.3552Y-0.7145
X-0.3552Y-1.0312
X-0.3525Y-1.2208
X-0.3159Y-1.5489
X-0.2874Y-2.6502
X-0.2677Y-1.8648
X-0.2559Y1.338
X-0.2519Y1.1133
X-0.2463Y-1.1371
X-0.2224Y0.2415
X-0.2205Y-1.9908
X-0.2126Y0.5053
X-0.2123Y-0.6108
X-0.1987Y-2.1528
X-0.1974Y-1.7206
X-0.1961Y-3.4491
X-0.1899Y-1.55
X-0.1831Y0.8675
X-0.1808Y-3.9232
X-0.1574Y-1.2133
X-0.1409Y-0.3699
X-0.1026Y-3.4479
X-0.1024Y-1.7174
X-0.1007Y-3.3506
X-0.0877Y-2.1006
X-0.083Y-0.7367
X-0.0827Y0.3714
X-0.0757Y-3.8815
X-0.0754Y-0.6881
X-0.0485Y-0.6583
X-0.0433Y0.0678
X-0.0394Y-1.9868
X-0.0335Y-2.3235
X-0.0269Y-1.5493
X-0.0157Y0.0525
X0.0081Y-1.6364
X0.0081Y-1.6708
X0.0183Y0.8537
X0.0197Y0.2061
X0.0219Y-0.4483
X0.0231Y1.0225
X0.0253Y-0.8437
X0.0287Y1.1469
X0.0315Y-0.3175
X0.0394Y0.0054
X0.0472Y-2.8057
X0.0591Y-1.0577
X0.068Y0.1667
X0.0737Y-2.0838
X0.0753Y-1.9942
X0.0792Y-3.0586
X0.0866Y-0.1581
X0.0996Y1.146
X0.1102Y-3.7703
X0.1133Y0.0219
X0.1181Y-3.412
X0.1249Y-0.6085
X0.1378Y-1.6876
X0.1381Y-0.8334
X0.1457Y-2.4829
X0.1512Y-2.9716
X0.1515Y1.1291
X0.1693Y-1.9238
X0.1698Y1.068
X0.1713Y1.1588
X0.1732Y-1.0695
X0.1842Y0.8119
X0.1896Y-2.2646
X0.198Y-1.2292
X0.2117Y0.0237
X0.2165Y0.0683
X0.238Y-0.1527
X0.2387Y-0.4238
X0.2421Y0.1962
X0.2427Y-0.363
X0.246Y-0.5004
X0.2499Y-1.6278
X0.2677Y0.3478
X0.285Y-0.5341
X0.2872Y-1.8215
X0.3287Y0.1588
X0.3361Y-0.4903
X0.3661Y0.0328
X0.3762Y-1.6287
X0.381Y-0.1558
X0.3921Y-1.231
X0.3946Y-3.3599
X0.3958Y-0.4485
X0.3976Y-0.7526
X0.4004Y-3.0064
X0.4035Y0.96
X0.4114Y0.2966
X0.4151Y-1.542
X0.4298Y-0.5765
X0.4303Y-2.8505
X0.435Y1.2789
X0.4615Y-1.0166
X0.4809Y-1.542
X0.4843Y0.0328
X0.5213Y-0.4943
X0.5363Y-2.4151
X0.5368Y-2.831
X0.5449Y-3.2828
X0.5472Y0.8202
X0.5515Y-0.2949
X0.5531Y-1.2347
X0.5866Y-1.6679
X0.5898Y-0.5464
X0.6212Y-0.3878
X0.6339Y0.0328
X0.6392Y-3.2373
X0.6398Y-1.8215
X0.6445Y-0.1937
X0.6909Y-0.8145
X0.6987Y-2.493
X0.708Y-0.2998
X0.7142Y-3.4533
X0.7303Y0.9482
X0.733Y0.1562
X0.7677Y0.1273
X0.7677Y0.0568
X0.7677Y0.0289
X0.7795Y-0.9396
X0.7894Y0.3695
X0.814Y-0.1992
X0.8346Y-2.227
X0.8543Y-0.5735
X0.8774Y0.1333
X0.8819Y1.3596
X0.8986Y-0.1162
X0.9004Y0.0354
X0.907Y-1.4519
X0.9094Y1.2021
X0.9162Y0.2685
X0.9191Y-3.1219
X0.9416Y-1.9623
X0.944Y0.0573
X0.9508Y-0.3338
X0.9773Y0.0327
X0.9803Y0.9364
X0.9933Y0.1287
X1.0194Y-0.0105
X1.0241Y-0.114
X1.0276Y-0.8333
X1.0307Y-0.1973
X1.0354Y-1.2821
X1.0472Y-1.6561
X1.0579Y0.3047
X1.063Y0.0545
X1.1181Y-3.7939
X1.136Y0.1305
X1.1535Y-0.2467
X1.1594Y-1.3904
X1.1654Y-0.8766
X1.1779Y0.2989
X1.2008Y-0.1266
X1.2043Y0.669
X1.211Y0.5653
X1.2126Y-0.0046
X1.2165Y-3.5735
X1.2229Y-2.5958
X1.2281Y-3.047
X1.2322Y-3.3417
X1.2323Y-2.1955
X1.2336Y0.4994
X1.2461Y-0.2703
X1.248Y-0.6994
X1.2673Y0.6037
X1.2861Y0.04
X1.3091Y0.5875
X1.3129Y-3.4292
X1.3189Y-0.412
X1.3747Y0.5866
X1.3941Y-3.1005
X1.3957Y-2.8577
X1.3964Y-2.6327
X1.3992Y-0.5947
X1.4232Y-0.2644
X1.4329Y-1.6952
X1.4567Y1.3321
X1.4589Y-2.4101
X1.4882Y-0.6522
X1.4941Y-3.3712
X1.5256Y1.0506
X1.5374Y1.3242
X1.5492Y-0.4584
X1.5605Y-2.5022
X1.5655Y-0.3901
X1.5669Y-1.2979
X1.5863Y-2.8244
X1.5877Y-3.7368
X1.6122Y0.7573
X1.6351Y-0.3154
X1.6426Y-1.9926
X1.6648Y-3.5615
X1.6654Y1.334
X1.6732Y-0.0981
X1.682Y-0.319
X1.685Y-0.1975
X1.6929Y0.836
X1.7008Y-0.3845
X1.7087Y-0.6679
X1.7244Y1.3321
X1.7657Y-1.8313
X1.7829Y-3.5648
X1.8261Y0.9544
X1.8268Y-0.3412
X1.861Y0.6656
X1.9055Y-2.4593
X1.9078Y-3.5662
X1.9094Y-1.3097
X1.931Y0.8046
X1.937Y-0.6798
X1.9785Y-3.8852
X2.0039Y-2.8766
X2.0079Y-0.3372
X2.0256Y-0.2231
X2.0411Y0.7197
X2.0591Y-0.1089
X2.063Y-0.6798
X2.0823Y-1.6941
X2.1139Y-0.4638
X2.1181Y-2.8766
X2.1329Y0.666
X2.1693Y-0.0164
X2.1723Y-0.3201
X2.1969Y-2.4514
X2.2292Y0.6665
X2.2387Y0.5866
X2.2638Y-2.1404
X2.3214Y-3.5662
X2.3234Y0.6724
X2.3287Y-0.4101
X2.3385Y-3.7131
X2.368Y0.5126
X2.4035Y-1.4002
X2.4049Y-0.3093
X2.4223Y0.6646
X2.4232Y0.5929
X2.437Y-0.227
X2.4409Y1.3104
X2.4436Y0.5451
X2.4724Y1.3419
X2.4724Y1.3104
X2.4724Y1.3104
X2.4826Y-2.8098
X2.4999Y-2.3973
X2.5047Y-2.2668
X2.524Y-1.989
X2.5295Y-1.6479
X2.5357Y0.6248
X2.5374Y-0.4238
X2.5492Y1.2435
X2.5622Y-1.4456
X2.563Y0.8891
X2.5709Y-3.5538
X2.5712Y1.115
X2.5807Y-2.1109
X2.6007Y0.5349
X2.6027Y0.368
X2.6161Y0.6937
X2.6181Y1.2376
X2.628Y-0.1089
X2.6437Y0.0053
X2.6496Y-3.0498
X2.6516Y-1.725
X2.6691Y0.5282
X2.6692Y0.5562
X2.674Y-2.6539
X2.6752Y-1.4632
X2.6772Y-0.3254
X2.7022Y-2.2566
X2.7121Y0.6797
X2.7165Y-0.3254
X2.7165Y-0.4888
X2.7362Y-3.4357
X2.7402Y-1.4002
X2.75Y-0.8569
X2.7575Y0.2897
X2.7618Y-0.6994
X2.7913Y-3.7782
X2.8012Y-1.542
X2.8146Y0.6792
X2.8207Y-2.3339
X2.8209Y-1.6916
X2.8346Y-3.3569
X2.8397Y-1.178
X2.8406Y-0.2329
X2.8642Y-1.8687
X2.8769Y0.3726
X2.8839Y-3.5695
X2.8937Y0.1273
X2.9062Y0.2334
X2.9114Y-1.4357
X2.9114Y-1.975
X2.9166Y0.6767
X2.9458Y-1.0815
X2.9528Y0.1273
X2.9552Y-1.3023
X2.9606Y-0.0046
X2.9628Y0.4738
X2.9744Y-0.8609
X2.9755Y-0.695
X2.9902Y-2.2152
X2.9956Y-1.0182
X2.9997Y0.356
X3.0006Y0.6778
X3.0138Y1.1165
X3.0399Y-1.2279
X3.0481Y0.0524
X3.0725Y-1.8267
X3.0775Y0.4796
X3.0841Y-1.975
X3.0984Y-0.0006
X3.1042Y-0.9178
X3.1221Y-0.112
X3.124Y-0.7073
X3.1269Y-1.1377
X3.1339Y-0.8549
X3.1496Y-0.4219
X3.1614Y-2.6522
X3.162Y0.3646
X3.1765Y0.6836
X3.2074Y-0.1998
X3.2106Y-3.1738
X3.214Y-2.0971
X3.2294Y-0.1089
X3.2379Y-1.0285
X3.2608Y-3.4218
X3.2638Y1.0309
X3.2672Y-2.2192
X3.2762Y-0.6242
X3.2772Y0.4846
X3.2783Y0.6789
X3.2824Y-0.3204
X3.2982Y-3.5555
X3.3048Y-1.9929
X3.315Y-2.4868
X3.3189Y-0.1955
X3.3461Y-0.9516
X3.3559Y-3.2078
X3.3597Y-0.7094
X3.3622Y1.2465
X3.363Y-0.5931
X3.3642Y0.9974
X3.378Y0.7258
X3.3893Y-2.0829
X3.3917Y0.1746
X3.3996Y1.3655
X3.4113Y-2.8442
X3.413Y-0.9573
X3.414Y-0.4076
X3.4204Y-3.5917
X3.4214Y-0.2998
X3.4227Y-3.9237
X3.4265Y-3.3838
X3.4469Y-1.8766
X3.4718Y-2.3446
X3.4877Y-1.5187
X3.4978Y-2.7655
X3.5237Y-3.2435
X3.5254Y-0.6856
X3.5299Y-3.5904
X3.5453Y1.3084
X3.5591Y-2.5223
X3.5766Y-2.2754
X3.5866Y-0.2585
X3.5984Y-3.9593
X3.6035Y0.3644
X3.6165Y-3.7147
X3.6398Y1.0978
X3.6445Y0.718
X3.6457Y1.3084
X3.6462Y-0.525
X3.6484Y0.6791
X3.6523Y-0.6989
X3.6614Y-0.5931
X3.6672Y0.4954
X3.6969Y-0.2664
X3.7008Y-1.8492
X3.7047Y0.9559
X3.7402Y1.3183
X3.7482Y-1.4676
X3.7538Y-1.1448
X3.754Y-0.5083
X3.7579Y-0.7112
X3.7598Y-0.5931
X3.7638Y0.8386
X3.7782Y-2.0777
X3.7854Y-2.4928
X3.8031Y-2.8412
X3.8117Y-0.1431
X3.8204Y0.8386
X3.8566Y-1.9946
X3.8598Y-2.3434
X3.8858Y-0.2703
X3.9272Y0.7356
X3.937Y-1.8156
X3.939Y0.8439
X3.9409Y-2.4494
X3.9423Y0.0147
X3.9429Y-2.3018
X3.9528Y1.0998
X3.9646Y1.3222
X3.9712Y-0.4626
X3.9823Y-0.9545
X3.9844Y0.9294
X3.9882Y0.151
X4.0059Y0.7514
X4.0098Y0.3773
X4.0138Y-0.6502
X4.0328Y-2.1676
X4.0335Y-1.3845
X4.1071Y-1.7498
X4.1086Y0.6856
X4.1121Y-0.1568
X4.1157Y0.4793
X4.119Y-0.3077
X4.124Y-0.6955
X4.148Y0.0177
X4.1516Y-1.1475
X4.1536Y-0.9575
X4.1546Y-0.8659
X4.1575Y-1.4908
X4.1807Y-1.6773
X4.189Y-2.0636
X4.1969Y0.8242
X4.2047Y0.7435
X4.2087Y-0.4829
X4.2097Y-1.9943
X4.2119Y-0.8659
X4.2677Y-1.9711
X4.2912Y-0.0372
X4.2996Y-0.1465
X4.3443Y-0.0941
X4.3534Y-1.8475
X4.3658Y-1.5006
X4.4135Y-2.0335
X4.414Y-2.2349
X4.4291Y-1.853
X4.4455Y-1.7546
X4.4485Y-0.0408
X4.4607Y0.0633
X4.4902Y0.7494
X4.4967Y0.4899
X4.5118Y-0.5754
X4.5139Y-0.6049
X4.5153Y0.5787
X4.5507Y-2.0293
X4.5609Y-1.1136
X4.5658Y-1.5662
X4.5658Y-1.2933
X4.5738Y0.5322
X4.5965Y1.271
X4.5997Y0.6837
X4.6024Y-0.1128
X4.6252Y-1.2089
X4.6256Y-1.5274
X4.626Y-1.5656
X4.626Y-1.621
X4.6267Y-1.0205
X4.6339Y-0.4829
X4.6417Y-2.9986
X4.6631Y0.4916
X4.676Y0.5393
X4.6796Y-3.8161
X4.6801Y-3.4321
X4.683Y-2.3402
X4.6837Y-1.5668
X4.6865Y-1.1121
X4.6963Y-1.3227
X4.7255Y-1.6146
X4.7319Y0.3508
X4.7414Y-1.46
X4.7512Y-2.0379
X4.7675Y-1.2438
X4.7677Y-0.0695
X4.7871Y-0.8529
X4.7894Y0.7376
X4.7942Y0.5415
X4.795Y0.5155
X4.8143Y0.9458
X4.8375Y-0.6918
X4.8386Y-0.477
X4.8389Y0.2611
X4.8524Y-2.3018
X4.8639Y-0.788
X4.8644Y-0.6508
X4.8666Y-1.6858
X4.8741Y-1.882
X4.8799Y-2.9101
X4.8898Y-3.3648
X4.8904Y0.0729
X4.892Y-1.3639
X4.8947Y-2.9466
X4.8951Y-4.0361
X4.9333Y-1.1266
X4.9355Y0.9144
X4.9406Y-2.6365
X4.9516Y-2.0896
X4.9607Y-1.3637
X4.9778Y-2.8722
X4.9796Y-3.8676
X4.9924Y-1.5531
X5.0355Y0.9133
X5.0392Y0.0542
X5.0433Y-0.0616
X5.0453Y0.6962
X5.0837Y-3.0136
X5.0868Y-2.7224
X5.098Y-0.5531
X5.1053Y-2.8878
X5.1152Y-2.3066
X5.1288Y-0.217
X5.1367Y-1.1202
X5.1393Y0.9133
X5.1417Y0.7159
X5.1418Y-0.1522
X5.143Y0.394
X5.1441Y-2.3545
X5.1809Y-1.5517
X5.184Y0.2164
X5.2032Y-2.2955
X5.2039Y-2.6334
X5.2073Y-2.9454
X5.2096Y-3.2069
X5.2238Y-3.1181
X5.2303Y-3.4234
X5.2371Y0.9111
X5.2382Y0.4895
X5.2402Y0.7632
X5.2627Y-2.236
X5.2913Y0.5702
X5.3012Y0.158
X5.3133Y0.2972
X5.3186Y-2.1973
X5.3226Y-1.4883
X5.3241Y-2.0872
X5.3423Y-2.1304
X5.3442Y0.0592
X5.3538Y-2.8562
X5.3746Y-0.1334
X5.3851Y-2.737
X5.3865Y-2.0872
X5.3957Y-0.7073
X5.3989Y-1.616
X5.3996Y-1.8136
X5.415Y-3.0443
X5.4211Y-1.4112
X5.4379Y-3.2052
X5.4474Y0.1637
X5.4642Y-0.3576
X5.4642Y-0.5538
X5.4649Y0.0427
X5.4667Y-0.2393
X5.4696Y0.466
X5.471Y-0.9475
X5.4767Y-3.6861
X5.4786Y0.2972
X5.482Y-3.872
X5.4861Y-3.1201
X5.498Y-1.5341
X5.502Y0.5624
X5.5077Y-1.1206
X5.5365Y0.9056
X5.5386Y-2.6339
X5.5394Y1.3577
X5.5531Y-1.7762
X5.5581Y-4.0174
X5.5666Y0.8227
X5.5816Y-3.054
X5.5843Y-3.1859
X5.5843Y0.2899
X5.6102Y0.5624
X5.6319Y1.1765
X5.6358Y0.9758
X5.6398Y-0.4074
X5.6419Y-0.9969
X5.6429Y0.0515
X5.6483Y0.8026
X5.6488Y0.7543
X5.6515Y-3.1975
X5.6525Y-2.3351
X5.6539Y-1.9351
X5.6624Y-2.7806
X5.6772Y-0.7979
X5.6775Y-0.5659
X5.6796Y0.4332
X5.6882Y-1.2473
X5.6902Y-1.4115
X5.6947Y0.2988
X5.6988Y0.2356
X5.7018Y0.7675
X5.7093Y-3.374
X5.7122Y-0.0436
X5.7137Y0.12
X5.7146Y-1.5361
X5.7185Y-1.6817
X5.7231Y-0.6376
X5.7283Y0.2651
X5.7321Y-3.2417
X5.7484Y0.1664
X5.7492Y-2.8245
X5.7559Y-3.7782
X5.7581Y-2.95
X5.7593Y-3.1194
X5.7602Y0.232
X5.7612Y0.2979
X5.7631Y-2.0877
X5.7687Y-2.4766
X5.7718Y-1.1638
X5.7718Y-1.2675
X5.7733Y-0.6202
X5.7769Y-0.5775
X5.781Y-2.9997
X5.7856Y-2.6279
X5.7879Y-3.4583
X5.8071Y0.7553
X5.8322Y-4.0405
X5.8411Y-0.1773
X5.8415Y-0.5307
X5.8542Y-1.3226
X5.8552Y-1.2036
X5.8659Y-3.0336
X5.8686Y-3.2068
X5.8701Y1.3025
X5.8701Y0.9935
X5.8702Y0.367
X5.876Y0.5033
X5.8791Y-0.7324
X5.8858Y-1.3274
X5.8976Y0.0683
X5.9094Y1.151
X5.9111Y-2.9241
X5.9213Y-0.9888
X5.946Y-2.7911
X5.9474Y-0.5984
X5.9679Y-0.5778
X5.9722Y0.2163
X6.0005Y-2.9342
X6.0176Y-3.2398
X6.0227Y-2.6985
X6.0256Y1.1431
X6.0276Y-1.2657
X6.0531Y-3.0037
X6.0564Y-2.2979
X6.057Y-0.0294
X6.0578Y-1.8077
X6.0579Y-3.1266
X6.0588Y-1.934
X6.0745Y-2.7459
X6.0985Y-3.9283
X6.1067Y0.2143
X6.1102Y-2.9395
X6.1436Y-1.2907
X6.1465Y-3.1211
X6.1614Y-0.601
X6.1693Y0.4679
X6.2146Y1.086
X6.2174Y-0.4318
X6.2373Y-2.9118
X6.2421Y0.2238
X6.2717Y-2.6066
X6.2815Y0.4069
X6.3178Y-3.6739
X6.3327Y0.5643
X6.3705Y0.6894
X6.3848Y-2.9625
T2
X-2.6954Y-0.9217
X0.6887Y1.3397
X3.9345Y-1.6402
X4.1752Y-0.288
X4.2344Y-2.115
X4.9862Y-0.4908
X5.0218Y-0.8156
X5.3386Y-2.5727
X5.7441Y-3.9531
X5.8368Y-2.8683
T3
X-1.9968Y-0.1466
X-1.9968Y-0.2466
X-1.8968Y-0.1466
X-1.8968Y-0.2466
X-1.7968Y-0.2466
X-1.7968Y-0.1466
X-1.6968Y-0.1466
X-1.6968Y-0.2466
X-1.5968Y-0.1466
X-1.5968Y-0.2466
X-1.4968Y-0.1466
X-1.4968Y-0.2466
X-1.3968Y-0.1466
X-1.3968Y-0.2466
X-1.2968Y-0.1466
X-1.2968Y-0.2466
X-1.1968Y-0.1466
X-1.1968Y-0.2466
X-1.0968Y-0.1466
X-1.0968Y-0.2466
X-0.9968Y-0.1466
X-0.9968Y-0.2466
X-0.8968Y-0.2466
X-0.8968Y-0.1466
X-0.7968Y-0.1466
X-0.7968Y-0.2466
X-0.6968Y-0.1466
X-0.6968Y-0.2466
X-0.5968Y-0.1466
X-0.5968Y-0.2466
X-0.4968Y-0.2466
X-0.4968Y-0.1466
X-0.3968Y-0.1466
X-0.3968Y-0.2466
X-0.2968Y-0.1466
X-0.2968Y-0.2466
X-0.1968Y-0.1466
X-0.1968Y-0.2466
X-0.0968Y-0.1466
X-0.0968Y-0.2466
X4.2634Y-0.34
X4.3134Y-0.7053
X4.3634Y-0.34
X4.4134Y-0.7053
X4.4634Y-0.34
X4.5134Y-0.7053
X4.5634Y-0.34
X4.6134Y-0.7053
X4.6634Y-0.34
T4
X-1.9933Y0.1491
X-1.9933Y0.0491
X-1.8933Y0.1491
X-1.8933Y0.0491
X-1.7933Y0.1491
X-1.7933Y0.0491
X-1.6933Y0.1491
X-1.6933Y0.0491
X-1.5933Y0.1491
X-1.5933Y0.0491
X-1.4933Y0.1491
X-1.4933Y0.0491
X-1.3933Y0.1491
X-1.3933Y0.0491
X-1.2933Y0.1491
X-1.2933Y0.0491
X-1.1933Y0.1491
X-1.1933Y0.0491
X-1.0933Y0.1491
X-1.0933Y0.0491
X-0.9933Y0.1491
X-0.9933Y0.0491
X-0.8933Y0.1491
X-0.8933Y0.0491
X-0.7933Y0.1491
X-0.7933Y0.0491
X-0.6933Y0.1491
X-0.6933Y0.0491
X-0.5933Y0.1491
X-0.5933Y0.0491
X-0.4933Y0.1491
X-0.4933Y0.0491
X-0.3933Y0.1491
X-0.3933Y0.0491
X-0.2933Y0.1491
X-0.2933Y0.0491
X-0.1933Y0.1491
X-0.1933Y0.0491
X-0.1523Y1.2334
X-0.1523Y1.1334
X-0.1523Y1.0334
X-0.1523Y0.9334
X-0.0933Y0.1491
X-0.0933Y0.0491
X-0.0523Y1.2334
X-0.0523Y1.1334
X-0.0523Y1.0334
X-0.0523Y0.9334
X3.469Y1.2189
X3.469Y1.1189
X3.469Y1.0189
X3.469Y0.9189
X3.569Y1.2189
X3.569Y1.1189
X3.569Y1.0189
X3.569Y0.9189
X5.7049Y1.2281
X5.7049Y1.1281
X5.7049Y1.0281
X5.7049Y0.9281
X5.8049Y1.2281
X5.8049Y1.1281
X5.8049Y1.0281
X5.8049Y0.9281
T5
X5.1094Y-3.6521
X5.1094Y-3.8521
X5.2094Y-3.6521
X5.2094Y-3.8521
X5.3094Y-3.6521
X5.3094Y-3.8521
X5.4094Y-3.6521
X5.4094Y-3.8521
X5.9496Y-1.457
X5.9496Y-1.557
X5.9496Y-1.657
X5.9496Y-1.757
X5.9554Y-0.0034
X5.9554Y-0.1034
X5.9554Y-0.2034
X5.9554Y-0.3034
X5.9561Y-2.117
X5.9561Y-2.217
X5.9561Y-2.317
X5.9561Y-2.417
X6.1496Y-1.457
X6.1496Y-1.557
X6.1496Y-1.657
X6.1496Y-1.757
X6.1554Y-0.0034
X6.1554Y-0.1034
X6.1554Y-0.2034
X6.1554Y-0.3034
X6.1561Y-2.117
X6.1561Y-2.217
X6.1561Y-2.317
X6.1561Y-2.417
T6
X-2.1654Y0.9344
X-2.1654Y0.3439
X0.0984Y0.9344
X0.0984Y0.3439
T7
X-2.5453Y1.0427
X-2.5394Y-1.3687
X-2.5Y-3.4553
X1.2402Y1.1116
X6.0236Y-3.6325
X6.1024Y0.7966
M30
