%TF.GenerationSoftware,KiCad,Pcbnew,9.0.2*%
%TF.CreationDate,2025-09-02T22:16:45-05:00*%
%TF.ProjectId,MothBox,4d6f7468-426f-4782-9e6b-696361645f70,5.0.1*%
%TF.SameCoordinates,Original*%
%TF.FileFunction,Soldermask,Top*%
%TF.FilePolarity,Negative*%
%FSLAX46Y46*%
G04 Gerber Fmt 4.6, Leading zero omitted, Abs format (unit mm)*
G04 Created by KiCad (PCBNEW 9.0.2) date 2025-09-02 22:16:45*
%MOMM*%
%LPD*%
G01*
G04 APERTURE LIST*
G04 Aperture macros list*
%AMRoundRect*
0 Rectangle with rounded corners*
0 $1 Rounding radius*
0 $2 $3 $4 $5 $6 $7 $8 $9 X,Y pos of 4 corners*
0 Add a 4 corners polygon primitive as box body*
4,1,4,$2,$3,$4,$5,$6,$7,$8,$9,$2,$3,0*
0 Add four circle primitives for the rounded corners*
1,1,$1+$1,$2,$3*
1,1,$1+$1,$4,$5*
1,1,$1+$1,$6,$7*
1,1,$1+$1,$8,$9*
0 Add four rect primitives between the rounded corners*
20,1,$1+$1,$2,$3,$4,$5,0*
20,1,$1+$1,$4,$5,$6,$7,0*
20,1,$1+$1,$6,$7,$8,$9,0*
20,1,$1+$1,$8,$9,$2,$3,0*%
G04 Aperture macros list end*
%ADD10R,0.510000X0.280000*%
%ADD11R,1.500000X1.200000*%
%ADD12RoundRect,0.225000X-0.225000X-0.250000X0.225000X-0.250000X0.225000X0.250000X-0.225000X0.250000X0*%
%ADD13R,2.630000X1.520000*%
%ADD14R,0.800000X2.400000*%
%ADD15C,1.800000*%
%ADD16R,1.800000X1.780000*%
%ADD17RoundRect,0.250000X-1.075000X0.312500X-1.075000X-0.312500X1.075000X-0.312500X1.075000X0.312500X0*%
%ADD18R,1.700000X1.700000*%
%ADD19C,1.700000*%
%ADD20R,2.400000X0.800000*%
%ADD21R,1.520000X2.630000*%
%ADD22C,1.000000*%
%ADD23RoundRect,0.250000X-0.539169X0.981111X-0.981111X0.539169X0.539169X-0.981111X0.981111X-0.539169X0*%
%ADD24R,0.450000X0.400000*%
%ADD25R,0.910000X0.400000*%
%ADD26R,0.910000X0.810000*%
%ADD27C,12.800000*%
%ADD28RoundRect,0.250000X-0.312500X-1.075000X0.312500X-1.075000X0.312500X1.075000X-0.312500X1.075000X0*%
%ADD29RoundRect,0.250000X0.312500X1.075000X-0.312500X1.075000X-0.312500X-1.075000X0.312500X-1.075000X0*%
%ADD30RoundRect,0.250000X1.075000X-0.312500X1.075000X0.312500X-1.075000X0.312500X-1.075000X-0.312500X0*%
%ADD31RoundRect,0.200000X0.200000X0.275000X-0.200000X0.275000X-0.200000X-0.275000X0.200000X-0.275000X0*%
%ADD32C,4.204000*%
G04 APERTURE END LIST*
D10*
%TO.C,U17*%
X32270000Y-4715671D03*
X32270000Y-5215671D03*
X32270000Y-5715671D03*
X35130000Y-5715671D03*
X35130000Y-5215671D03*
X35130000Y-4715671D03*
D11*
X33700000Y-5215671D03*
%TD*%
D12*
%TO.C,C13*%
X27675000Y-4965671D03*
X29225000Y-4965671D03*
%TD*%
D13*
%TO.C,LED47*%
X-19300000Y-67215671D03*
D14*
X-21640000Y-67215671D03*
X-16360000Y-67215671D03*
%TD*%
D15*
%TO.C,H10*%
X90652741Y23341259D03*
X88112741Y23341259D03*
X90652741Y25881259D03*
X88112741Y25881259D03*
X90652741Y28421259D03*
X88112741Y28421259D03*
X90652741Y30961259D03*
D16*
X88112741Y30961259D03*
%TD*%
D15*
%TO.C,H9*%
X-1328653Y23708822D03*
X-3868653Y23708822D03*
X-1328653Y26248822D03*
X-3868653Y26248822D03*
X-1328653Y28788822D03*
X-3868653Y28788822D03*
X-1328653Y31328822D03*
D16*
X-3868653Y31328822D03*
%TD*%
%TO.C,H8*%
X144905704Y31194664D03*
D15*
X147445704Y31194664D03*
X144905704Y28654664D03*
X147445704Y28654664D03*
X144905704Y26114664D03*
X147445704Y26114664D03*
X144905704Y23574664D03*
X147445704Y23574664D03*
%TD*%
D17*
%TO.C,R15*%
X-14400000Y-49253171D03*
X-14400000Y-52178171D03*
%TD*%
D14*
%TO.C,LED13*%
X12450000Y8084329D03*
X17730000Y8084329D03*
D13*
X15390000Y8084329D03*
%TD*%
D17*
%TO.C,R17*%
X-26959493Y-71736149D03*
X-26959493Y-74661149D03*
%TD*%
%TO.C,R22*%
X132811406Y10431357D03*
X132811406Y7506357D03*
%TD*%
%TO.C,R13*%
X34447683Y-61223559D03*
X34447683Y-64148559D03*
%TD*%
D18*
%TO.C,U5*%
X-50718039Y-6264401D03*
D19*
X-50718039Y-3724401D03*
X-48178039Y-6264401D03*
X-48178039Y-3724401D03*
X-45638040Y-6264401D03*
X-45638039Y-3724401D03*
X-43098039Y-6264401D03*
X-43098039Y-3724401D03*
X-40558039Y-6264401D03*
X-40558039Y-3724401D03*
X-38018039Y-6264401D03*
X-38018039Y-3724401D03*
X-35478039Y-6264401D03*
X-35478039Y-3724401D03*
X-32938038Y-6264401D03*
X-32938039Y-3724401D03*
X-30398039Y-6264401D03*
X-30398039Y-3724401D03*
X-27858039Y-6264401D03*
X-27858039Y-3724401D03*
X-25318039Y-6264401D03*
X-25318039Y-3724401D03*
X-22778040Y-6264401D03*
X-22778039Y-3724401D03*
X-20238039Y-6264401D03*
X-20238039Y-3724401D03*
X-17698039Y-6264401D03*
X-17698039Y-3724401D03*
X-15158039Y-6264401D03*
X-15158039Y-3724401D03*
X-12618040Y-6264401D03*
X-12618039Y-3724401D03*
X-10078038Y-6264401D03*
X-10078039Y-3724401D03*
X-7538039Y-6264401D03*
X-7538039Y-3724401D03*
X-4998039Y-6264401D03*
X-4998039Y-3724401D03*
X-2458039Y-6264401D03*
X-2458039Y-3724401D03*
%TD*%
D20*
%TO.C,LED9*%
X73242490Y-13236671D03*
X73242490Y-18516671D03*
D21*
X73242490Y-16176671D03*
%TD*%
D14*
%TO.C,LED44*%
X12109473Y-74456061D03*
X6829473Y-74456061D03*
D13*
X9169473Y-74456061D03*
%TD*%
D20*
%TO.C,LED23*%
X-67425310Y-938859D03*
X-67425310Y-6218859D03*
D21*
X-67425310Y-3878859D03*
%TD*%
D14*
%TO.C,LED37*%
X72640000Y-63715671D03*
X67360000Y-63715671D03*
D13*
X69700000Y-63715671D03*
%TD*%
D22*
%TO.C,TP9*%
X-68464146Y-23412198D03*
%TD*%
D14*
%TO.C,LED12*%
X109247713Y-5905671D03*
X114527713Y-5905671D03*
D13*
X112187713Y-5905671D03*
%TD*%
D14*
%TO.C,LED35*%
X73940000Y-93765671D03*
X68660000Y-93765671D03*
D13*
X71000000Y-93765671D03*
%TD*%
D20*
%TO.C,LED40*%
X38699426Y-70371916D03*
X38699426Y-65091916D03*
D21*
X38699426Y-67431916D03*
%TD*%
D23*
%TO.C,R8*%
X132800197Y-68975955D03*
X130731909Y-71044243D03*
%TD*%
D20*
%TO.C,LED28*%
X148634174Y-58598209D03*
X148634174Y-53318209D03*
D21*
X148634174Y-55658209D03*
%TD*%
D24*
%TO.C,Q3*%
X536067Y-20246984D03*
X536067Y-19586985D03*
X536067Y-18936984D03*
X-1363933Y-18936984D03*
X-1363933Y-19586985D03*
X-1363933Y-20246984D03*
D25*
X-413933Y-18886983D03*
D26*
X-413933Y-19916983D03*
%TD*%
D27*
%TO.C,H3*%
X31500000Y28234329D03*
%TD*%
D20*
%TO.C,LED33*%
X122550000Y-99455671D03*
X122550000Y-94175671D03*
D21*
X122550000Y-96515671D03*
%TD*%
D14*
%TO.C,LED41*%
X43835741Y-78681944D03*
X38555741Y-78681944D03*
D13*
X40895741Y-78681944D03*
%TD*%
D14*
%TO.C,LED22*%
X-68369860Y-14799765D03*
X-63089860Y-14799765D03*
D13*
X-65429860Y-14799765D03*
%TD*%
D14*
%TO.C,LED42*%
X41731449Y-93184907D03*
X47011449Y-93184907D03*
D13*
X44671449Y-93184907D03*
%TD*%
D17*
%TO.C,R23*%
X28986295Y12215960D03*
X28986295Y9290960D03*
%TD*%
D22*
%TO.C,TP4*%
X106050000Y-7315671D03*
%TD*%
D27*
%TO.C,H6*%
X-63500000Y-87765671D03*
%TD*%
D14*
%TO.C,LED21*%
X-46440351Y-51158000D03*
X-41160351Y-51158000D03*
D13*
X-43500351Y-51158000D03*
%TD*%
D14*
%TO.C,LED38*%
X60810000Y-73615671D03*
X66090000Y-73615671D03*
D13*
X63750000Y-73615671D03*
%TD*%
D14*
%TO.C,LED20*%
X-22935337Y-42765671D03*
X-28215337Y-42765671D03*
D13*
X-25875337Y-42765671D03*
%TD*%
D14*
%TO.C,LED16*%
X-66590000Y-75215671D03*
X-61310000Y-75215671D03*
D13*
X-63650000Y-75215671D03*
%TD*%
D28*
%TO.C,R16*%
X151647691Y-32099585D03*
X154572691Y-32099585D03*
%TD*%
D29*
%TO.C,R24*%
X-47962469Y-70671321D03*
X-50887469Y-70671321D03*
%TD*%
D20*
%TO.C,LED7*%
X98039159Y-35828882D03*
X98039159Y-30548882D03*
D21*
X98039159Y-32888882D03*
%TD*%
D24*
%TO.C,Q7*%
X122171089Y-18949701D03*
X122171089Y-18289702D03*
X122171089Y-17639701D03*
X120271089Y-17639701D03*
X120271089Y-18289702D03*
X120271089Y-18949701D03*
D25*
X121221089Y-17589700D03*
D26*
X121221089Y-18619700D03*
%TD*%
D14*
%TO.C,LED2*%
X-35093438Y-84977207D03*
X-29813438Y-84977207D03*
D13*
X-32153438Y-84977207D03*
%TD*%
D30*
%TO.C,R18*%
X12306939Y-36658439D03*
X12306939Y-33733439D03*
%TD*%
D20*
%TO.C,LED34*%
X88938753Y-77771126D03*
X88938753Y-72491126D03*
D21*
X88938753Y-74831126D03*
%TD*%
D22*
%TO.C,TP6*%
X127553023Y-20717506D03*
%TD*%
D14*
%TO.C,LED15*%
X62690000Y1184329D03*
X57410000Y1184329D03*
D13*
X59750000Y1184329D03*
%TD*%
D14*
%TO.C,LED8*%
X85704781Y-41841748D03*
X90984781Y-41841748D03*
D13*
X88644781Y-41841748D03*
%TD*%
D20*
%TO.C,LED25*%
X155719221Y-23880031D03*
X155719221Y-29160031D03*
D21*
X155719221Y-26820031D03*
%TD*%
D31*
%TO.C,R9*%
X122016548Y-16253781D03*
X120366548Y-16253781D03*
%TD*%
D14*
%TO.C,LED18*%
X-67526846Y-49755903D03*
X-62246846Y-49755903D03*
D13*
X-64586846Y-49755903D03*
%TD*%
D14*
%TO.C,LED10*%
X127957945Y3388614D03*
X133237945Y3388614D03*
D13*
X130897945Y3388614D03*
%TD*%
D14*
%TO.C,LED36*%
X90555019Y-93254749D03*
X85275019Y-93254749D03*
D13*
X87615019Y-93254749D03*
%TD*%
D20*
%TO.C,LED1*%
X-44683288Y-83525346D03*
X-44683288Y-78245346D03*
D21*
X-44683288Y-80585346D03*
%TD*%
D20*
%TO.C,LED30*%
X157966000Y-80810685D03*
X157966000Y-75530685D03*
D21*
X157966000Y-77870685D03*
%TD*%
D20*
%TO.C,LED46*%
X-24166936Y-58346855D03*
X-24166936Y-53066855D03*
D21*
X-24166936Y-55406855D03*
%TD*%
D27*
%TO.C,H7*%
X153000000Y-92265671D03*
%TD*%
D20*
%TO.C,LED39*%
X61020936Y-90405839D03*
X61020936Y-85125839D03*
D21*
X61020936Y-87465839D03*
%TD*%
D22*
%TO.C,TP3*%
X126650000Y-12465671D03*
%TD*%
D20*
%TO.C,LED27*%
X153445299Y11925205D03*
X153445299Y6645205D03*
D21*
X153445299Y8985205D03*
%TD*%
D14*
%TO.C,LED31*%
X104410000Y-55615671D03*
X109690000Y-55615671D03*
D13*
X107350000Y-55615671D03*
%TD*%
D17*
%TO.C,R10*%
X85687219Y-56519038D03*
X85687219Y-59444038D03*
%TD*%
D20*
%TO.C,LED32*%
X118800000Y-83655671D03*
X118800000Y-78375671D03*
D21*
X118800000Y-80715671D03*
%TD*%
D27*
%TO.C,H4*%
X-64650000Y26484329D03*
%TD*%
D14*
%TO.C,LED48*%
X-16372528Y-95817392D03*
X-21652528Y-95817392D03*
D13*
X-19312528Y-95817392D03*
%TD*%
D22*
%TO.C,TP2*%
X148255896Y-72855265D03*
%TD*%
D14*
%TO.C,LED6*%
X-8367174Y-33073045D03*
X-3087174Y-33073045D03*
D13*
X-5427174Y-33073045D03*
%TD*%
D27*
%TO.C,H5*%
X-64500000Y-34765671D03*
%TD*%
D17*
%TO.C,R14*%
X2324249Y-55908521D03*
X2324249Y-58833521D03*
%TD*%
D22*
%TO.C,TP8*%
X17493355Y34028628D03*
%TD*%
D14*
%TO.C,LED3*%
X-44990000Y-97115671D03*
X-39710000Y-97115671D03*
D13*
X-42050000Y-97115671D03*
%TD*%
D14*
%TO.C,LED4*%
X14868399Y-19188658D03*
X20148399Y-19188658D03*
D13*
X17808399Y-19188658D03*
%TD*%
D29*
%TO.C,R26*%
X-57353808Y-16741259D03*
X-60278808Y-16741259D03*
%TD*%
D20*
%TO.C,LED45*%
X15734975Y-62060518D03*
X15734975Y-67340518D03*
D21*
X15734975Y-65000518D03*
%TD*%
D20*
%TO.C,LED5*%
X9130274Y-49205671D03*
X9130274Y-43925671D03*
D21*
X9130274Y-46265671D03*
%TD*%
D17*
%TO.C,R12*%
X65742215Y-57790372D03*
X65742215Y-60715372D03*
%TD*%
%TO.C,R25*%
X-36270875Y-24050671D03*
X-36270875Y-26975671D03*
%TD*%
D14*
%TO.C,LED14*%
X35347473Y4570310D03*
X30067473Y4570310D03*
D13*
X32407473Y4570310D03*
%TD*%
D22*
%TO.C,TP7*%
X99936231Y-41660628D03*
%TD*%
D21*
%TO.C,LED17*%
X-66750000Y-59965671D03*
D20*
X-66750000Y-62305671D03*
X-66750000Y-57025671D03*
%TD*%
D27*
%TO.C,H2*%
X155000000Y20234329D03*
%TD*%
D14*
%TO.C,LED11*%
X116495133Y304470D03*
X121775133Y304470D03*
D13*
X119435133Y304470D03*
%TD*%
D22*
%TO.C,TP10*%
X145900974Y-100408922D03*
%TD*%
D28*
%TO.C,R7*%
X142192935Y-51517909D03*
X145117935Y-51517909D03*
%TD*%
D22*
%TO.C,TP5*%
X135601460Y-65346231D03*
%TD*%
D31*
%TO.C,R11*%
X394753Y-17482047D03*
X-1255247Y-17482047D03*
%TD*%
D14*
%TO.C,LED29*%
X150280000Y-68765671D03*
X145000000Y-68765671D03*
D13*
X147340000Y-68765671D03*
%TD*%
D14*
%TO.C,LED43*%
X16442707Y-85217654D03*
X11162707Y-85217654D03*
D13*
X13502707Y-85217654D03*
%TD*%
D14*
%TO.C,LED24*%
X-62540457Y7527421D03*
X-67820457Y7527421D03*
D13*
X-65480457Y7527421D03*
%TD*%
D17*
%TO.C,R20*%
X103135446Y-27584293D03*
X103135446Y-30509293D03*
%TD*%
D14*
%TO.C,LED26*%
X154481087Y-12940597D03*
X159761087Y-12940597D03*
D13*
X157421087Y-12940597D03*
%TD*%
D14*
%TO.C,LED19*%
X-45843540Y-33087825D03*
X-40563540Y-33087825D03*
D13*
X-42903540Y-33087825D03*
%TD*%
D19*
%TO.C,J4*%
X156346928Y-87434D03*
X151266928Y-87434D03*
X156346928Y-2627434D03*
X151266928Y-2627434D03*
X156346928Y-5167434D03*
X151266928Y-5167434D03*
X156346928Y-7707434D03*
X151266928Y-7707434D03*
%TD*%
D18*
%TO.C,U7*%
X-50630000Y3786829D03*
D19*
X-50630000Y1246829D03*
X-48090000Y3786829D03*
X-48090000Y1246829D03*
X-45550000Y3786829D03*
X-45550000Y1246829D03*
X-43010000Y3786829D03*
X-43010000Y1246829D03*
X-40470000Y3786829D03*
X-40470000Y1246829D03*
X-37930000Y3786829D03*
X-37930000Y1246829D03*
X-35390000Y3786829D03*
X-35390000Y1246829D03*
X-32850000Y3786829D03*
X-32850000Y1246829D03*
X-30310000Y3786829D03*
X-30310000Y1246829D03*
X-27770000Y3786829D03*
X-27770000Y1246829D03*
X-25230000Y3786829D03*
X-25230000Y1246829D03*
X-22690000Y3786829D03*
X-22690000Y1246829D03*
X-20150000Y3786829D03*
X-20150000Y1246829D03*
X-17610000Y3786829D03*
X-17610000Y1246829D03*
X-15070000Y3786829D03*
X-15070000Y1246829D03*
X-12530000Y3786829D03*
X-12530000Y1246829D03*
X-9990000Y3786829D03*
X-9990000Y1246829D03*
X-7450000Y3786829D03*
X-7450000Y1246829D03*
X-4910000Y3786829D03*
X-4910000Y1246829D03*
X-2370000Y3786829D03*
X-2370000Y1246829D03*
%TD*%
%TO.C,J3*%
X156365063Y-53772549D03*
X151285063Y-53772549D03*
X156365063Y-56312549D03*
X151285063Y-56312549D03*
X156365063Y-58852549D03*
X151285063Y-58852549D03*
X156365063Y-61392549D03*
X151285063Y-61392549D03*
%TD*%
%TO.C,U8*%
X118449183Y-8635751D03*
X115909183Y-8635751D03*
X113369183Y-8635751D03*
X110829183Y-8635751D03*
D18*
X108289183Y-8635751D03*
%TD*%
D19*
%TO.C,J2*%
X137399926Y-97842457D03*
X137399926Y-92762457D03*
X134859926Y-97842457D03*
X134859926Y-92762457D03*
X132319926Y-97842457D03*
X132319926Y-92762457D03*
X129779926Y-97842457D03*
X129779926Y-92762457D03*
%TD*%
D32*
%TO.C,U6*%
X-55000000Y8734329D03*
X2500000Y8734329D03*
X-55000000Y23734329D03*
X2500000Y23734329D03*
%TD*%
D19*
%TO.C,J1*%
X156199512Y-37008831D03*
X151119512Y-37008831D03*
X156199512Y-39548831D03*
X151119512Y-39548831D03*
X156199512Y-42088831D03*
X151119512Y-42088831D03*
X156199512Y-44628831D03*
X151119512Y-44628831D03*
%TD*%
%TO.C,H1*%
X117180000Y-17915671D03*
X114639999Y-17915671D03*
X112100000Y-17915671D03*
D18*
X109560000Y-17915671D03*
%TD*%
D22*
%TO.C,TP1*%
X107553901Y-53721293D03*
%TD*%
M02*
