<?xml version="1.0" encoding="UTF-8" standalone="no"?>
<!-- Created with Inkscape (http://www.inkscape.org/) -->

<svg
   width="210mm"
   height="297mm"
   viewBox="0 0 793.70081 1122.5197"
   version="1.1"
   id="svg5"
   inkscape:version="1.2.2 (732a01da63, 2022-12-09)"
   sodipodi:docname="MB_lid.svg"
   xmlns:inkscape="http://www.inkscape.org/namespaces/inkscape"
   xmlns:sodipodi="http://sodipodi.sourceforge.net/DTD/sodipodi-0.dtd"
   xmlns="http://www.w3.org/2000/svg"
   xmlns:svg="http://www.w3.org/2000/svg">
  <sodipodi:namedview
     id="namedview7"
     pagecolor="#ffffff"
     bordercolor="#000000"
     borderopacity="0.25"
     inkscape:showpageshadow="2"
     inkscape:pageopacity="0.0"
     inkscape:pagecheckerboard="0"
     inkscape:deskcolor="#d1d1d1"
     inkscape:document-units="mm"
     showgrid="false"
     inkscape:zoom="2.9825758"
     inkscape:cx="259.00432"
     inkscape:cy="540.47244"
     inkscape:window-width="2560"
     inkscape:window-height="1017"
     inkscape:window-x="-8"
     inkscape:window-y="-8"
     inkscape:window-maximized="1"
     inkscape:current-layer="layer1" />
  <defs
     id="defs2" />
  <g
     inkscape:label="Layer 1"
     inkscape:groupmode="layer"
     id="layer1">
    <circle
       style="fill:none;stroke-width:1.01165;stroke:#ff0000"
       id="path234"
       cx="375.02582"
       cy="541.32587"
       r="132.28346" />
    <path
       id="path662"
       style="fill:none;stroke:#ff0000;stroke-width:0.548032;stroke-linecap:round;stroke-dasharray:none"
       d="m 384.47463,505.42035 a 1.889764,1.889764 0 0 1 1.88977,-1.88976 m -3.6e-4,4.1e-4 h 19.843 m -1.2e-4,-4.1e-4 a 6.614173,6.614173 0 0 1 6.61417,6.61417 m -5e-5,2.4e-4 v 19.842 m 5e-5,2.8e-4 a 1.889764,1.889764 0 0 1 -1.88976,1.88976 m -2.9e-4,-4e-5 h -4.064 m -1.4e-4,4e-5 a 1.889764,1.889764 0 0 1 -1.88976,-1.88976 m -1e-4,-2.8e-4 v -8.504 m -3.22593,-1.33592 a 1.889764,1.889764 0 0 1 3.22603,1.33626 m -3.2261,-1.33634 -9.798,9.798 m -3.32093,8.01767 a 11.338583,11.338583 0 0 1 3.321,-8.01759 m -3.32107,8.01792 v 6.726 m -5.48024,-3.36314 a 8.125985,8.125985 0 0 1 -16.25197,0 8.125985,8.125985 0 0 1 16.25197,0 z M 371.66304,527.72 h 6.726 m 8.01756,-3.32143 a 11.338583,11.338583 0 0 1 -8.01759,3.32099 m 8.01803,-3.32056 9.798,-9.798 m -1.33671,-3.22646 a 1.889764,1.889764 0 0 1 1.33627,3.22603 m -1.33656,-3.22557 h -8.504 m 3.6e-4,-4.6e-4 a 1.889764,1.889764 0 0 1 -1.88977,-1.88977 m 4.1e-4,2.3e-4 v -4.065 m 7.47807,47.28664 a 11.338583,11.338583 0 0 1 -3.321,-8.01758 m 13.11893,17.81594 -9.798,-9.798 m 13.0241,8.46138 a 1.889764,1.889764 0 0 1 -3.22603,1.33627 m 3.22593,-9.84065 v 8.504 m 1e-4,-8.50356 a 1.889764,1.889764 0 0 1 1.88976,-1.88976 m 4.06414,3.2e-4 h -4.064 m 4.06429,-3.2e-4 a 1.889764,1.889764 0 0 1 1.88976,1.88976 m -5e-5,19.84256 v -19.843 m 5e-5,19.84296 a 6.614173,6.614173 0 0 1 -6.61417,6.61418 m -19.84288,-1.4e-4 h 19.843 m -19.84264,1.4e-4 a 1.889764,1.889764 0 0 1 -1.88977,-1.88977 m 4.1e-4,-4.06437 v 4.064 m -4.1e-4,-4.06405 a 1.889764,1.889764 0 0 1 1.88977,-1.88976 m 8.50364,-1.9e-4 h -8.504 m 9.84056,-3.22584 a 1.889764,1.889764 0 0 1 -1.33627,3.22603 m -8.46129,-13.02419 9.798,9.798 m -17.81603,-13.11884 a 11.338583,11.338583 0 0 1 8.01759,3.321 M 371.66304,554.932 h 6.726 m -14.74401,3.32116 a 11.338583,11.338583 0 0 1 8.01759,-3.321 m -8.01758,3.32084 -9.798,9.798 m 1.33625,3.22619 a 1.889764,1.889764 0 0 1 -1.33626,-3.22603 m 1.33601,3.22584 h 8.504 m 1.9e-4,1.9e-4 a 1.889764,1.889764 0 0 1 1.88977,1.88976 m 4e-5,5e-5 v 4.064 m -4e-5,3.7e-4 a 1.889764,1.889764 0 0 1 -1.88977,1.88977 m -1.9e-4,-1.4e-4 h -19.8423 m -3e-5,1.4e-4 a 6.614173,6.614173 0 0 1 -6.61417,-6.61418 m 0,4e-5 v -19.843 m 0,4.4e-4 a 1.889764,1.889764 0 0 1 1.88976,-1.88976 m 4e-5,3.2e-4 h 4.0644 m -10e-6,-3.2e-4 a 1.889764,1.889764 0 0 1 1.88976,1.88976 m -4.5e-4,-4.4e-4 v 8.504 m 3.22648,1.33665 a 1.889764,1.889764 0 0 1 -3.22603,-1.33627 m 3.22555,1.33662 9.798,-9.798 m 3.32147,-8.01794 a 11.338583,11.338583 0 0 1 -3.32099,8.01758 m 3.32052,-14.74364 v 6.726 m -3.32052,-14.74392 a 11.338583,11.338583 0 0 1 3.32099,8.01759 m -13.11947,-17.81567 9.798,9.798 m -13.02355,-8.46166 a 1.889764,1.889764 0 0 1 3.22603,-1.33626 m -3.22648,9.83992 v -8.504 m 4.5e-4,8.50428 a 1.889764,1.889764 0 0 1 -1.88976,1.88976 m -4.06439,-4e-5 h 4.0644 m -4.06444,4e-5 a 1.889764,1.889764 0 0 1 -1.88976,-1.88976 m 0,-19.84228 v 19.842 m 0,-19.84224 a 6.614173,6.614173 0 0 1 6.61417,-6.61417 m 19.84233,4.1e-4 h -19.8423 m 19.84249,-4.1e-4 a 1.889764,1.889764 0 0 1 1.88977,1.88976 m 4e-5,4.06465 v -4.065 m -4e-5,4.06477 a 1.889764,1.889764 0 0 1 -1.88977,1.88977 m -8.50419,4.6e-4 h 8.504 m -9.84001,3.22557 a 1.889764,1.889764 0 0 1 1.33626,-3.22603 m 8.46175,13.02446 -9.798,-9.798 m 17.81558,13.11856 a 11.338583,11.338583 0 0 1 -8.01759,-3.32099"
       inkscape:label="2020" />
    <path
       id="path662-2"
       style="fill:none;stroke:#ff0000;stroke-width:0.548032;stroke-linecap:round;stroke-dasharray:none"
       d="m 737.75624,322.55829 a 1.889764,1.889764 0 0 1 1.88977,-1.88976 m -3.6e-4,4.1e-4 h 19.843 m -1.2e-4,-4.1e-4 a 6.614173,6.614173 0 0 1 6.61417,6.61417 m -5e-5,2.4e-4 v 19.84201 m 5e-5,2.8e-4 a 1.889764,1.889764 0 0 1 -1.88976,1.88976 m -2.9e-4,-4e-5 h -4.064 m -1.4e-4,4e-5 a 1.889764,1.889764 0 0 1 -1.88976,-1.88976 m -10e-5,-2.8e-4 v -8.504 m -3.22593,-1.33592 a 1.889764,1.889764 0 0 1 3.22603,1.33626 m -3.2261,-1.33634 -9.798,9.798 m -3.32093,8.01767 a 11.338583,11.338583 0 0 1 3.321,-8.01759 m -3.32107,8.01792 v 6.726 m -5.48024,-3.36315 a 8.125985,8.125985 0 0 1 -16.25197,0 8.125985,8.125985 0 0 1 16.25197,0 z m -11.48876,-13.60586 h 6.726 m 8.01756,-3.32142 a 11.338583,11.338583 0 0 1 -8.01759,3.32099 m 8.01803,-3.32056 9.798,-9.798 m -1.33671,-3.22646 a 1.889764,1.889764 0 0 1 1.33627,3.22603 m -1.33656,-3.22557 h -8.504 m 3.6e-4,-4.6e-4 a 1.889764,1.889764 0 0 1 -1.88977,-1.88977 m 4.1e-4,2.3e-4 v -4.065 m 7.47807,47.28664 a 11.338583,11.338583 0 0 1 -3.321,-8.01758 m 13.11893,17.81594 -9.798,-9.798 m 13.0241,8.46138 a 1.889764,1.889764 0 0 1 -3.22603,1.33627 m 3.22593,-9.84065 v 8.504 m 10e-5,-8.50356 a 1.889764,1.889764 0 0 1 1.88976,-1.88976 m 4.06414,3.2e-4 h -4.064 m 4.06429,-3.2e-4 a 1.889764,1.889764 0 0 1 1.88976,1.88976 m -5e-5,19.84256 v -19.843 m 5e-5,19.84296 a 6.614173,6.614173 0 0 1 -6.61417,6.61418 m -19.84288,-1.4e-4 h 19.843 m -19.84264,1.4e-4 a 1.889764,1.889764 0 0 1 -1.88977,-1.88977 m 4.1e-4,-4.06437 v 4.064 m -4.1e-4,-4.06405 a 1.889764,1.889764 0 0 1 1.88977,-1.88976 m 8.50364,-1.9e-4 h -8.504 m 9.84056,-3.22584 a 1.889764,1.889764 0 0 1 -1.33627,3.22603 m -8.46129,-13.02419 9.798,9.798 m -17.81603,-13.11884 a 11.338583,11.338583 0 0 1 8.01759,3.321 m -14.74356,-3.32116 h 6.726 m -14.74401,3.32116 a 11.338583,11.338583 0 0 1 8.01759,-3.321 m -8.01758,3.32084 -9.798,9.798 m 1.33625,3.22619 a 1.889764,1.889764 0 0 1 -1.33626,-3.22603 m 1.33601,3.22584 h 8.504 m 1.9e-4,1.9e-4 a 1.889764,1.889764 0 0 1 1.88977,1.88976 m 4e-5,5e-5 v 4.064 m -4e-5,3.7e-4 a 1.889764,1.889764 0 0 1 -1.88977,1.88977 m -1.9e-4,-1.4e-4 h -19.8423 m -3e-5,1.4e-4 a 6.614173,6.614173 0 0 1 -6.61417,-6.61418 m 0,4e-5 v -19.843 m 0,4.4e-4 a 1.889764,1.889764 0 0 1 1.88976,-1.88976 m 4e-5,3.2e-4 h 4.0644 m -1e-5,-3.2e-4 a 1.889764,1.889764 0 0 1 1.88976,1.88976 m -4.5e-4,-4.4e-4 v 8.504 m 3.22648,1.33665 a 1.889764,1.889764 0 0 1 -3.22603,-1.33627 m 3.22555,1.33662 9.798,-9.798 m 3.32147,-8.01794 a 11.338583,11.338583 0 0 1 -3.32099,8.01758 m 3.32052,-14.74364 v 6.726 m -3.32052,-14.74392 a 11.338583,11.338583 0 0 1 3.32099,8.01759 m -13.11947,-17.81567 9.798,9.798 m -13.02355,-8.46166 a 1.889764,1.889764 0 0 1 3.22603,-1.33626 m -3.22648,9.83992 v -8.504 m 4.5e-4,8.50428 a 1.889764,1.889764 0 0 1 -1.88976,1.88976 m -4.06439,-4e-5 h 4.0644 m -4.06444,4e-5 a 1.889764,1.889764 0 0 1 -1.88976,-1.88976 m 0,-19.84228 v 19.842 m 0,-19.84224 a 6.614173,6.614173 0 0 1 6.61417,-6.61417 m 19.84233,4.1e-4 h -19.8423 m 19.84249,-4.1e-4 a 1.889764,1.889764 0 0 1 1.88977,1.88976 m 4e-5,4.06465 v -4.065 m -4e-5,4.06477 a 1.889764,1.889764 0 0 1 -1.88977,1.88977 m -8.50419,4.6e-4 h 8.504 m -9.84001,3.22557 a 1.889764,1.889764 0 0 1 1.33626,-3.22603 m 8.46175,13.02446 -9.798,-9.798 m 17.81558,13.11856 a 11.338583,11.338583 0 0 1 -8.01759,-3.32099"
       inkscape:label="2020" />
    <g
       id="g2370"
       transform="matrix(0.18631981,0,0,0.18631981,335.45006,591.712)">
	<path
   d="m 377.8,188.7 c -1.9,1.1 -3.8,2 -5.5,3.3 -3.7,2.8 -7.2,6.1 -11.1,8.6 -2.4,1.6 -5.4,2.4 -8.2,3.2 -3.3,0.9 -6.6,1.6 -10,2.2 -3.3,0.5 -6.7,0.6 -10.1,1 -0.6,0.1 -1.3,0.2 -1.8,0.6 -0.4,0.3 -0.8,0.9 -1,1.4 -0.7,2.6 -1.2,5.3 -2.1,7.9 -0.9,2.7 -2,5.3 -3.3,7.8 -1.9,3.4 -3.9,6.7 -6.2,9.8 -1.9,2.5 -4.5,4.5 -6.8,6.7 -3.4,3.2 -7.4,5.5 -11.9,7 -3.1,1 -6.2,1.8 -9.4,2.4 -3.1,0.6 -6.3,1.1 -9.5,1.3 -1.9,0.1 -3.9,-0.3 -5.8,-0.7 -3.4,-0.7 -6.9,-1.2 -10,-2.5 -4.8,-1.9 -9.2,-4.8 -13.1,-8.3 -2.7,-2.4 -5.4,-4.9 -8.3,-7.5 -0.1,0.5 -0.2,0.7 -0.2,0.9 0.2,9.4 -0.4,18.7 -2.4,28 -0.9,4.1 -2,8 -3.5,11.9 -1.8,4.5 -3.5,9.1 -6.5,13 -3.8,5 -7.6,10.1 -13.9,12.3 -2.3,0.8 -4.6,0.9 -6.9,0.1 -4.2,-1.4 -7.4,-4.3 -10.3,-7.5 -3.7,-4.1 -6.7,-8.7 -8.9,-13.8 -2,-4.6 -3.9,-9.3 -4.5,-14.4 -0.2,-1.5 -0.6,-3 -0.9,-4.4 -0.5,-2.3 -1.4,-4.5 -1.6,-6.8 -0.4,-4.9 -0.6,-9.9 -0.7,-14.8 0,-1.7 0.3,-3.4 0.4,-5.5 -0.9,0.8 -1.6,1.2 -2.2,1.8 -1.6,1.6 -3.1,3.3 -4.8,4.9 -2.1,2 -4.2,4.2 -6.6,5.8 -4.5,2.9 -9.2,5.7 -14.7,6.4 -3,0.4 -6.1,1.3 -9.1,1.3 -3.5,0 -7,-0.7 -10.5,-1.4 -3.3,-0.7 -6.7,-1.3 -9.8,-2.6 -9.3,-3.9 -16.5,-10.5 -22,-18.9 -2.9,-4.4 -4.7,-9.3 -6.4,-14.2 -0.5,-1.4 -1,-2.9 -1,-4.4 -0.1,-2.5 -0.8,-3.4 -3.3,-3.5 -1.5,-0.1 -3,0.1 -4.5,-0.2 -3.9,-0.6 -7.7,-1.4 -11.5,-2 -4.1,-0.6 -7.9,-2 -11.3,-4.2 -3.5,-2.3 -6.5,-5.2 -9.9,-7.6 -2.9,-2 -6.1,-3.7 -9.2,-5.5 -1.6,-0.9 -3.2,-1.8 -5.2,-2.9 0,2.4 0,4.4 0,6.4 0,35.3 0,70.7 0,106 0,1.6 0,3.1 0.1,4.7 0,0.5 0.3,1.2 0.7,1.3 1.4,0.6 2.8,1.1 4.2,1.5 5.3,1.7 10.6,3.3 15.8,5.1 4,1.3 7.9,2.7 11.8,4 4.2,1.4 8.5,2.6 12.7,4 5,1.6 9.9,3.4 14.8,5 5.6,1.9 11.3,3.6 16.9,5.4 6.3,2.1 12.6,4.4 18.9,6.5 7.3,2.4 14.5,4.7 21.8,7.1 6.5,2.1 13.1,4.4 19.6,6.5 6.5,2.1 13,4.1 19.5,6.3 4.1,1.3 8.1,2.9 12.2,4.2 1.1,0.3 2.4,0.5 3.4,0.3 3.5,-0.9 7,-2.1 10.4,-3.2 2.5,-0.8 5,-1.6 7.5,-2.4 3.6,-1.2 7.2,-2.4 10.8,-3.6 2.6,-0.8 5.2,-1.6 7.8,-2.5 2.8,-0.9 5.5,-1.9 8.3,-2.8 3.3,-1.1 6.7,-2.1 10.1,-3.2 3.9,-1.3 7.7,-2.8 11.6,-4.1 4.9,-1.6 10,-3.1 14.9,-4.7 3.5,-1.2 7,-2.5 10.6,-3.7 4,-1.3 8,-2.6 12,-3.9 3.6,-1.2 7.2,-2.4 10.8,-3.6 3.4,-1.1 6.9,-2.3 10.3,-3.4 3.7,-1.2 7.4,-2.5 11.2,-3.7 3,-1 6,-1.8 9,-2.8 5,-1.6 9.9,-3.4 14.9,-5 2.6,-0.8 5.2,-1.5 7.8,-2.4 1.4,-0.5 2.3,-1.2 2.3,-3 0,-36.9 0,-73.9 0,-110.8 0,-1.5 0,-3.1 0,-4.9 -2.6,1 -4.7,2.2 -6.7,3.4 z"
   id="path2316" />

	<path
   d="m 413.8,106.3 c -0.1,-0.3 -0.4,-0.7 -0.7,-0.9 -2.8,-3 -6.6,-3.3 -10.3,-3.7 -4.1,-0.5 -8.2,-0.4 -12.3,-0.4 -1.2,0 -2.3,0.3 -3.5,0.4 -3.6,0.3 -7.3,0.4 -10.9,0.9 -3.8,0.5 -7.5,1.3 -11.2,2.1 -4.4,0.9 -8.9,1.9 -13.3,3 -4.3,1.1 -8.5,2.4 -12.7,3.9 -5.3,1.8 -10.5,3.6 -15.7,5.8 -7.6,3.1 -15.1,6.4 -22.6,9.8 -6.9,3.1 -13.7,6.4 -20.5,9.8 -7.2,3.6 -14.3,7.3 -21.4,11.1 -7.6,4.1 -15.2,8.4 -22.8,12.6 -0.9,0.5 -1.3,1.2 -0.4,2.2 1.5,1.8 3,3.6 4.3,5.5 0.6,0.9 1.1,1.2 2.1,1 2.6,-0.6 5.2,-1.1 7.8,-1.6 2,-0.4 4,-0.9 6,-1.4 2.5,-0.7 5,-1.5 7.6,-2.1 3.6,-0.9 7.3,-1.5 10.9,-2.5 4.2,-1.1 8.5,-2.2 12.6,-3.6 5.8,-2 11.5,-4.2 17.2,-6.5 4.5,-1.8 8.9,-4 13.5,-5.4 4.7,-1.4 9.6,-2.4 14.5,-3 4,-0.6 8,-0.7 12,-0.6 3.8,0.1 7.7,0.5 11.4,1.2 4.6,0.9 9.2,1.9 13.6,3.4 6.9,2.4 13.6,5.5 20.9,6.8 2.8,0.5 5.7,0.8 8.5,1.1 0.4,0 1.1,0 1.3,-0.3 1,-1.2 2,-2.5 2.7,-3.9 2.5,-4.9 5.1,-9.8 7.2,-14.8 1.7,-3.8 3,-7.9 4,-11.9 0.8,-3.1 0.9,-6.4 1.3,-10.1 -0.2,-2.6 -0.6,-5.3 -1.1,-7.9 z"
   id="path2318" />

	<path
   d="m 60.6,146 c 3.8,-1.1 7.6,-2 11.5,-2.5 5.6,-0.7 11.2,-1.2 16.8,-1.1 7.3,0.1 14.4,1.5 21.3,4.1 5.5,2.1 11,4.4 16.5,6.6 3.7,1.4 7.3,2.8 11,4.1 2.9,1 5.8,1.9 8.8,2.7 2.1,0.6 4.3,1.1 6.5,1.7 2.6,0.6 5.1,1.2 7.7,1.8 3.5,0.9 6.9,1.8 10.4,2.7 2.9,0.7 5.7,1.5 8.6,2.1 2,0.4 4,0.7 6.1,0.9 0.5,0.1 1.2,-0.3 1.6,-0.7 1.4,-1.7 2.6,-3.5 4.1,-5.2 0.7,-0.8 0.6,-1.2 -0.2,-1.7 -1.6,-1.1 -3,-2.5 -4.7,-3.5 -6.1,-3.5 -12.3,-7 -18.6,-10.3 -7.5,-4 -15,-7.8 -22.7,-11.5 -9.1,-4.4 -18.3,-8.7 -27.6,-12.9 -5.8,-2.6 -11.7,-5 -17.6,-7.4 -3.9,-1.6 -7.9,-3.1 -11.9,-4.5 -3.8,-1.3 -7.6,-2.4 -11.4,-3.5 -3.1,-0.9 -6.2,-1.8 -9.4,-2.5 -2.9,-0.7 -5.9,-1 -8.8,-1.6 -2.7,-0.5 -5.3,-1.1 -8,-1.4 -4.9,-0.6 -9.8,-1 -14.7,-1.3 -2.3,-0.2 -4.6,-0.1 -6.9,0.1 -3,0.3 -6,0.7 -9,1.2 -1.8,0.3 -3.6,0.8 -5.1,1.8 -1,0.7 -1.9,2.3 -2,3.6 -0.3,2.7 -0.1,5.4 -0.1,8.1 0,0 0.1,0 0.1,0 0,2.1 -0.3,4.2 0.1,6.2 0.6,3 1.5,5.9 2.4,8.8 0.8,2.6 1.6,5.4 2.8,7.8 2.4,4.8 5,9.5 7.7,14.1 0.6,1 1.8,2 2.9,2.4 0.9,0.3 2.1,-0.2 3.2,-0.5 5.8,-1.5 11.6,-3 17.3,-4.7 3.9,-1.2 7.5,-2.9 11.3,-4 z"
   id="path2320" />

	<path
   d="m 66.7,189.1 c 5,4.3 10.5,7.3 17.2,7.8 1.9,0.1 3.7,0.1 5.6,0.1 0.3,0 0.7,0.1 1,0.1 1.2,0.2 2.3,0.5 3.5,0.6 6.3,0.2 12.6,0.3 18.8,0.5 1.8,0 3.7,0.1 5.5,0.3 4.2,0.4 8.4,1.2 12.6,1.3 5.2,0.2 10.3,0 15.5,-0.3 3.2,-0.2 6.4,-0.7 9.5,-1.2 2.9,-0.5 5.8,-1.3 8.6,-2.1 2.8,-0.7 5.5,-1.5 8.2,-2.4 3.6,-1.2 7.1,-2.4 10.6,-3.7 0.8,-0.3 2,-0.7 1.3,-1.7 -1.7,-2.6 -1.7,-5.5 -1.8,-8.4 0,-1.4 -0.7,-2.1 -1.8,-2.4 -1.3,-0.4 -2.6,-0.6 -3.9,-1 -3.6,-0.9 -7.2,-1.9 -10.9,-2.8 -3.4,-0.9 -6.8,-1.6 -10.2,-2.5 -2.6,-0.6 -5.3,-1.3 -7.9,-2 -2.7,-0.7 -5.4,-1.2 -8.1,-1.9 -2.8,-0.8 -5.7,-1.6 -8.5,-2.6 -3.2,-1.1 -6.3,-2.2 -9.4,-3.5 -5,-2.1 -9.9,-4.5 -15,-6.4 -3.5,-1.3 -7.1,-2.2 -10.8,-3 -3.5,-0.7 -7.1,-1.2 -10.6,-1.3 -2.8,-0.1 -5.6,0.3 -8.4,0.7 -3.1,0.4 -6.2,0.8 -9.2,1.7 -3.8,1.2 -7.5,2.8 -11.3,4.3 -6.9,2.6 -13.9,4.9 -21.6,6.4 0.5,0.8 0.7,1.7 1.3,2.3 6.1,6.4 13.1,11.5 20.6,16.2 3.4,1.9 6.6,4.3 9.6,6.9 z"
   id="path2322" />

	<path
   d="m 390.2,163.3 c -2.7,-0.5 -5.4,-0.9 -8,-1.7 -5.6,-1.9 -11.1,-4.3 -16.7,-6.2 -4.4,-1.5 -8.8,-3 -13.3,-4 -3.3,-0.7 -6.8,-0.7 -10.6,-1 -3.1,0.4 -6.6,0.5 -10,1.2 -3.4,0.6 -6.9,1.5 -10.1,2.7 -4.4,1.6 -8.7,3.5 -13,5.4 -2.9,1.2 -5.6,2.6 -8.5,3.6 -3.3,1.2 -6.8,2.2 -10.2,3.2 -3.4,1 -6.7,2 -10.1,2.8 -2.6,0.6 -5.3,0.9 -7.9,1.6 -4.5,1.1 -9,2.4 -13.5,3.6 -4.1,1 -8.1,2.1 -12.2,3 -1.6,0.4 -2.1,1.6 -1.8,2.8 0.6,2.5 -0.4,4.7 -1.1,6.8 -0.6,2.1 -0.8,2.3 1.4,3.1 0.5,0.2 1,0.5 1.6,0.7 5.1,1.6 10.2,3.4 15.3,4.8 4.5,1.3 9,2.5 13.5,3.2 4.5,0.7 9.1,0.8 13.7,1 2.3,0.1 4.6,-0.1 6.9,-0.2 3.8,-0.2 7.6,-0.4 11.4,-0.7 4,-0.3 7.9,-1.1 11.9,-1.3 6.5,-0.3 13,-0.3 19.6,-0.6 3,-0.1 6,-0.5 9,-0.9 3.7,-0.6 7,-2.3 10,-4.5 4.1,-3.1 8,-6.4 12.1,-9.5 2.3,-1.7 4.8,-3.1 7.1,-4.8 3.5,-2.7 6.8,-5.7 10.1,-8.5 1.4,-1.2 2.9,-2.4 4.2,-3.8 0.6,-0.8 0.7,-1.6 -0.8,-1.8 z"
   id="path2324" />

	<path
   d="m 231.3,175.7 c -0.7,-3.9 -3,-6.8 -5.8,-9.3 -3,-2.7 -6.9,-3.6 -10.8,-3.8 -5.5,-0.3 -10.5,1.2 -14.5,5.2 -2.5,2.5 -4.1,5.6 -4.6,9 -0.5,3.5 -0.6,7.1 0.7,10.7 0.9,2.6 1.3,5.4 2,8.1 0.4,1.3 1,2.4 2.7,2.3 0.4,0 0.8,0.2 1.2,0.3 3,0.6 6,1.5 9.1,1.7 3.1,0.2 6.2,-0.2 9.2,-0.7 2.3,-0.3 4.6,-1.2 6.9,-1.8 1.8,-0.5 2.1,-1.8 2.2,-3.4 0.1,-1.6 0.5,-3.2 0.8,-4.8 0.6,-2.7 1.4,-5.4 2.1,-8.1 -0.4,-2 -0.9,-3.7 -1.2,-5.4 z"
   id="path2326" />

	<path
   d="m 127.4,221 c -2.1,-3.2 -3.4,-6.8 -3.8,-10.6 -0.2,-1.9 -0.9,-2.6 -2.9,-2.7 -3.6,-0.2 -7.1,-0.4 -10.7,-0.7 -1.5,-0.1 -2,0.2 -2.1,1.8 -0.2,3.5 1,6.6 2.2,9.8 1.9,5.1 5.3,9.2 9,13 3.8,4.1 8.4,7.1 13.6,8.9 3,1 6.1,2.1 9.2,2.3 3.3,0.2 6.6,0.4 10,-0.5 3.9,-1.1 7.6,-2.5 10.8,-4.9 5.8,-4.4 11.1,-9.3 16,-15.2 -1.8,-0.9 -3.5,-1.7 -5.2,-2.4 -0.4,-0.2 -1.2,0 -1.6,0.3 -1.6,1.4 -3,3 -4.6,4.5 -3.9,3.6 -8.3,6.2 -13.6,7.4 -5.2,1.2 -10,0.4 -14.8,-1.2 -4.8,-1.9 -8.6,-5.5 -11.5,-9.8 z"
   id="path2328" />

	<path
   d="m 289.5,91.8 c -1.1,1 -1.7,2.2 -1.1,3.7 0.7,1.6 2.7,3.1 4.3,3.4 1.1,-0.6 2.4,-0.9 3.3,-1.8 2.4,-2.1 4.6,-4.4 6.9,-6.6 6.3,-5.7 12.7,-11.3 19,-17.1 4.9,-4.5 9.7,-9.2 14.5,-13.8 5.1,-4.8 10.3,-9.4 15.3,-14.2 0.6,-0.5 1,-1.6 0.9,-2.4 -0.2,-3 -3.9,-5 -6.4,-3.3 -2.4,1.6 -4.6,3.7 -6.8,5.7 -4.7,4.3 -9.3,8.6 -14,12.9 -6.6,6 -13.3,12 -19.9,18 -5.3,5.2 -10.6,10.4 -16,15.5 z"
   id="path2330" />

	<path
   d="m 89.3,58.3 c 6.4,5.9 12.8,11.8 19.2,17.7 5.7,5.3 11.3,10.6 17,16 0.9,0.9 1.7,1.8 2.7,2.7 1.2,1.2 2.5,2.4 3.8,3.4 1.7,1.2 4.7,0.2 6.3,-1.9 0.8,-1 0.3,-3.1 -1,-4.4 C 133.6,88.2 130,84.6 126.3,81 119.6,74.6 112.8,68.3 106,62 98.9,55.5 92,48.9 85,42.4 c -1.6,-1.5 -3.3,-3.3 -5.7,-3.1 -1.8,-0.1 -3.8,0.8 -4.3,1.9 -0.7,1.5 -0.3,3.5 1.1,4.8 4.4,4.1 8.8,8.2 13.2,12.3 z"
   id="path2332" />

	<path
   d="m 330,94.7 c -1.6,0.8 -3.3,1.5 -4.8,2.5 -1.4,0.8 -1.9,2.7 -1.2,4.3 0.6,1.4 1.7,2.4 3.5,2.5 0.8,-0.1 1.8,-0.1 2.6,-0.4 5,-2.2 9.9,-4.5 14.8,-6.8 4,-1.9 8,-3.9 12,-5.7 6.9,-3.2 13.9,-6.3 20.8,-9.4 7.7,-3.6 15.4,-7.2 23.1,-10.8 1.4,-0.6 2.8,-3.1 2.4,-4.2 -0.6,-1.7 -4.1,-3.8 -5.6,-3.2 -3,1.3 -5.9,2.5 -8.9,3.9 -6.1,2.9 -12.2,5.8 -18.3,8.7 -8.2,3.8 -16.3,7.6 -24.5,11.4 -5.3,2.3 -10.6,4.8 -15.9,7.2 z"
   id="path2334" />

	<path
   d="m 209.5,79 c 0,3.1 1.2,4.6 4.2,5.2 1.9,0.4 4.3,-1 4.5,-2.9 0.3,-2.4 0.2,-4.8 0.2,-7.2 0,-15 0,-29.9 0.1,-44.9 0,-5.1 -0.1,-10.2 0.4,-15.2 0.4,-3.6 -2.2,-7.2 -6.3,-6.4 -1.2,0.2 -3.1,2 -3.1,3.2 0,1.4 0,2.8 0,4.1 0,10.2 0,20.5 0,30.7 0,0 0,0 0,0 0,11.2 0,22.3 0,33.4 z"
   id="path2336" />

	<path
   d="m 28,71.4 c 3.1,1.4 6.2,2.9 9.3,4.3 5.7,2.6 11.5,5.2 17.2,7.9 7.4,3.5 14.8,7 22.2,10.5 5.1,2.4 10.1,5 15.2,7.3 2.2,1 4.5,1.9 6.9,2.4 2.5,0.6 4.8,-1.2 4.8,-2.6 0.2,-2.9 -1.5,-3.8 -3.1,-4.6 C 94.4,93.6 88.2,90.7 82.1,87.8 75.4,84.6 68.6,81.4 61.9,78.2 54.4,74.7 46.9,71.3 39.4,67.9 36,66.4 32.5,65 29.1,63.5 c -1.5,-0.6 -2.5,0.1 -3.3,1.1 -0.6,0.8 -1.2,1.9 -1.1,2.8 0.3,1.9 1.5,3.2 3.3,4 z"
   id="path2338" />

	<path
   d="m 242.1,86.4 c 1.9,0 3,-0.6 4,-2.4 0.5,-1 0.8,-2.1 1.2,-3.2 0.5,-1.4 1,-2.9 1.4,-4.3 0.4,-1.6 0.7,-3.2 1.1,-4.8 0.3,-1.1 0.6,-2.1 1,-3.2 0.5,-1.5 1.1,-3 1.5,-4.6 0.7,-2.5 1.3,-5.1 2,-7.7 0.7,-2.6 1.6,-5.3 2.4,-7.9 0.4,-1.3 0.7,-2.5 1.1,-3.8 0.5,-1.4 1.1,-2.8 1.5,-4.2 0.8,-3 1.6,-6.1 2.4,-9.1 0.4,-1.6 0.9,-3.3 1.2,-5 0.5,-2.6 0,-3.6 -1.9,-4.5 -2.2,-1.1 -4,-0.9 -5.6,0.8 -1.4,1.5 -1.8,3.4 -2.3,5.4 -0.9,3.7 -2.2,7.2 -3.3,10.9 -1.3,4.5 -2.4,9 -3.7,13.4 -1.3,4.6 -2.7,9.1 -4.1,13.6 -0.3,1.1 -0.6,2.2 -0.9,3.3 -0.8,2.9 -1.7,5.8 -2.4,8.7 -0.4,1.6 -0.9,3.2 -1,4.8 -0.2,1.7 2.5,3.8 4.4,3.8 z"
   id="path2340" />

	<path
   d="m 165.8,31.2 c 0.7,2.6 1.2,5.2 1.9,7.7 0.4,1.5 1,2.8 1.5,4.3 0.4,1.2 0.7,2.4 1,3.6 0.6,2.3 1.2,4.7 1.9,7 1,3.5 2.2,7 3.2,10.5 0.7,2.4 1.3,4.9 2,7.3 0.8,2.8 1.7,5.6 2.5,8.4 0.7,2.4 1.3,4.9 4,6 2.5,1.1 5.6,-0.6 5.5,-3.3 -0.1,-2.2 -0.7,-4.5 -1.2,-6.7 -0.6,-2.4 -1.6,-4.8 -2.3,-7.2 -1,-3.6 -1.8,-7.2 -2.8,-10.8 -1,-3.5 -2.3,-6.9 -3.3,-10.3 -1,-3.5 -1.9,-7.1 -2.8,-10.6 -0.3,-1.1 -0.7,-2.3 -1,-3.4 -0.5,-1.8 -0.9,-3.5 -1.5,-5.3 -0.6,-1.8 -1.1,-3.7 -1.9,-5.4 -0.8,-1.7 -3.5,-2.4 -5.5,-2 -1.4,0.3 -2.8,2.2 -3.1,4 0.2,0.8 0.5,1.6 0.7,2.4 0.4,1.4 0.9,2.6 1.2,3.8 z"
   id="path2342" />

	<path
   d="m 232,234.5 c -0.2,-1.5 -0.5,-2.9 -0.7,-4.4 -0.3,-2 -0.4,-4.1 -0.7,-6.1 -0.1,-0.4 -0.6,-1 -0.9,-1 -1.2,0.1 -2.4,0.3 -3.6,0.5 -2.5,0.4 -4.9,1.1 -7.4,1.2 -3.5,0.2 -7,0.1 -10.5,0 -0.6,0 -1.3,0 -1.9,-0.1 -2.6,-0.4 -5.3,-0.8 -7.9,-1.4 -1.1,-0.2 -1.5,0.3 -1.6,1.2 -0.2,1.7 -0.3,3.3 -0.4,5 -0.1,1.8 0.2,3.6 -0.2,5.3 -0.5,1.8 0.3,2.3 1.7,2.5 1.7,0.3 3.5,0.7 5.2,1 3.6,0.6 7.2,1.2 10.8,1.7 0,-0.1 0,-0.1 0,-0.2 1.3,-0.1 2.5,0 3.8,-0.2 4,-0.7 7.9,-1.4 11.9,-2.1 2.2,-0.2 2.6,-0.6 2.4,-2.9 z"
   id="path2344" />

	<path
   d="m 226.8,264 c -2.9,0.6 -5.8,1 -8.7,1.4 -1.5,0.2 -3,0.4 -4.6,0.6 -0.4,0.1 -0.9,0.1 -1.4,0 -4.2,-0.6 -8.4,-1.3 -12.7,-1.8 -0.4,0 -1.2,0.5 -1.2,0.7 0.2,1.4 0.4,2.9 1,4.3 1.2,3.1 2.5,6.1 3.9,9.1 2.3,4.6 5.4,8.6 9.7,11.4 0.4,0.3 1.3,0.2 1.8,-0.1 3.3,-2.1 5.5,-5.3 7.7,-8.4 2.5,-3.5 3.8,-7.6 5.2,-11.6 0.5,-1.3 0.8,-2.7 1.1,-3.7 0.1,-2 -0.3,-2.1 -1.8,-1.9 z"
   id="path2346" />

	<path
   d="m 278.7,72.9 c 2,0.4 3.3,-0.8 4.3,-2.1 2.7,-3.5 5.3,-7.1 7.9,-10.7 1.6,-2.2 3,-4.4 4.6,-6.6 2.5,-3.4 5,-6.8 7.5,-10.1 1.9,-2.6 3.9,-5.1 6,-7.6 1.4,-1.7 1.5,-3.9 0,-5.4 -1.6,-1.6 -5.6,-2 -6.7,-0.6 -2.3,2.9 -4.6,5.9 -6.8,8.8 -4.3,5.9 -8.6,11.8 -13,17.7 -2.5,3.4 -5,6.7 -7.4,10 -0.9,1.2 -1.5,2.7 -0.6,3.8 1,1.5 1.9,3.4 4.2,2.8 z"
   id="path2348" />

	<path
   d="m 120.6,38.2 c 2.9,4.1 5.9,8 8.8,12.1 4.6,6.3 9,12.7 13.6,19 1.2,1.7 2.4,3.7 5.4,3.6 2.7,0.1 4.8,-2.3 4,-5.2 -0.2,-0.8 -0.7,-1.5 -1.2,-2.2 -2.6,-3.6 -5.3,-7.1 -7.8,-10.7 C 137.9,47 132.5,39.2 127,31.4 c -1.7,-2.4 -5.2,-4.1 -8.2,-1.1 -1.2,1.2 -1.4,2.5 -0.6,4 0.8,1.3 1.6,2.6 2.4,3.9 z"
   id="path2350" />

	<path
   d="m 231.1,254.1 c 0.1,-3.1 0,-6.3 0,-9.9 -2.5,0.4 -4.8,0.9 -7,1.2 -2.1,0.4 -4.2,1 -6.2,1 -4.5,-0.1 -9,0.5 -13.5,-0.5 -2.1,-0.5 -4.2,-0.7 -6.3,-1.3 -1.4,-0.4 -1.9,-0.2 -1.9,1.4 0.1,2.9 0.2,5.9 0.4,8.8 0,0.5 0.4,1.3 0.8,1.5 1.9,0.6 3.9,1.2 5.9,1.6 2.1,0.4 4.2,0.5 6.2,1.1 4.5,1.3 8.9,0 13.4,-0.6 1.8,-0.2 3.6,-0.9 5.5,-1.2 1.9,-0.5 2.7,-1 2.7,-3.1 z"
   id="path2352" />

	<path
   d="m 219.7,155.5 c 0.6,0.1 1.1,0.1 1.7,0.2 2.1,0.5 2.6,0.1 3.7,-1.7 1.9,-2.9 3.6,-6 6,-8.5 1.8,-1.9 4.4,-3.1 6.8,-4.2 3.1,-1.3 6.3,-2.1 9.5,-3.1 2.5,-0.8 5,-1.5 7.5,-2.2 3.1,-0.8 6.2,-1.4 9.2,-2.4 1.2,-0.4 2.3,-1.4 2.1,-3 0,-1.9 -2.7,-4 -4.5,-3.5 -3.9,1 -7.8,2 -11.8,3.1 -4.5,1.2 -9.1,2.2 -13.5,3.7 -3.2,1.1 -6.5,2.6 -9.2,4.6 -4.7,3.5 -8.5,7.8 -9.2,14.1 -0.1,1.8 0.1,2.6 1.7,2.9 z"
   id="path2354" />

	<path
   d="m 162.9,133.8 c 3.6,1.1 7.2,2 10.8,3 4.4,1.2 8.9,2.4 13.3,3.8 6.6,2 11.3,6.4 14.5,12.5 2,3.7 1.3,3.8 5.4,2.6 1.4,-0.4 2,-1.4 2,-2.7 0,-1.3 -0.2,-2.7 -0.8,-3.8 -3.8,-7.7 -10,-12.7 -18.1,-15.3 -3.1,-1 -6.2,-1.7 -9.3,-2.5 -2.6,-0.7 -5.3,-1.3 -7.9,-2 -2.3,-0.6 -4.6,-1.2 -6.9,-1.8 -0.6,-0.2 -1.3,-0.4 -1.9,-0.5 -1.6,0.2 -3.3,1.2 -3.5,2.3 -0.2,1.9 0.7,3.9 2.4,4.4 z"
   id="path2356" />

	<path
   d="m 206.7,217.9 c 3.5,0.3 7,-0.1 10.5,0.1 4,0.2 7.6,-1.2 11.4,-1.8 1.9,-0.3 2,-0.8 1.3,-2.6 -0.8,-2.2 -1.5,-4.4 -2.1,-6.7 -0.5,-2 -1.1,-2.3 -3.1,-2 -3.5,0.6 -7.1,1.2 -10.7,1.2 -4.6,0 -9.2,-0.6 -14.1,-1 -0.7,3.2 -1.5,6.7 -2.3,10.2 1,0.4 1.9,0.7 2.7,1 2.2,0.6 4.3,1.4 6.4,1.6 z"
   id="path2358" />

	<path
   d="m 151.4,223 c 2.1,-0.6 4.1,-1.5 5.6,-3.1 0.8,-0.9 1.3,-3.8 0.6,-4.6 -1.6,-2 -3,-4.4 -6.2,-4.1 -1.3,0.2 -2.9,0.1 -4,0.7 -3.3,1.8 -4.2,4.6 -2.6,7.9 0.9,1.7 5.3,3.6 6.6,3.2 z"
   id="path2360" />

	<path
   d="m 281.6,220.2 c 1.2,-1.4 1.5,-3.1 0.9,-4.6 -1.2,-2.8 -3.5,-4.4 -6.8,-4.6 -1.2,0.4 -2.6,0.5 -3.7,1.1 -3.1,1.6 -4,4.7 -2.5,7.1 2.4,4 8.4,5.3 12.1,1 z"
   id="path2362" />

	<path
   d="m 187.5,206.4 c -0.2,-0.1 -0.3,-0.3 -0.5,-0.4 -2.7,2.5 -5.4,5.1 -8.3,7.8 2,0.9 3.6,1.7 5.4,2.5 1,-3.2 2.2,-6.5 3.4,-9.9 z"
   id="path2364" />

	<path
   d="m 254.4,219.9 c -0.3,-0.3 -1.1,-0.5 -1.6,-0.3 -1.7,0.7 -3.4,1.6 -5.2,2.4 4.9,5.9 10.2,10.8 16,15.2 3.2,2.4 6.9,3.8 10.8,4.9 3.4,0.9 6.7,0.7 10,0.5 3.1,-0.2 6.2,-1.3 9.2,-2.3 5.2,-1.8 9.8,-4.8 13.6,-8.9 3.6,-3.9 7.1,-8 9,-13 1.1,-3.1 2.4,-6.2 2.2,-9.8 -0.1,-1.6 -0.6,-1.9 -2.1,-1.8 -3.5,0.3 -7.1,0.5 -10.7,0.7 -1.9,0.1 -2.7,0.8 -2.9,2.7 -0.4,3.8 -1.7,7.4 -3.8,10.6 -2.9,4.4 -6.7,8 -11.7,9.6 -4.7,1.6 -9.6,2.4 -14.8,1.2 -5.4,-1.2 -9.7,-3.8 -13.6,-7.4 -1.4,-1.2 -2.9,-2.8 -4.4,-4.3 z"
   id="path2366" />

	<path
   d="m 239.1,206.4 c 1.2,3.3 2.3,6.7 3.4,9.9 1.8,-0.8 3.4,-1.6 5.4,-2.5 -2.9,-2.8 -5.6,-5.3 -8.3,-7.8 -0.2,0.1 -0.4,0.3 -0.5,0.4 z"
   id="path2368" />

</g>
    <text
       xml:space="preserve"
       style="font-size:32px;text-align:center;text-anchor:middle;fill:#000000;stroke:#0000ff;stroke-width:0.548032;stroke-dasharray:none"
       x="375.02582"
       y="465.6236"
       id="text2739"><tspan
         sodipodi:role="line"
         id="tspan2737"
         x="375.02582"
         y="465.6236"
         style="font-style:normal;font-variant:normal;font-weight:800;font-stretch:normal;font-size:32px;font-family:'Big Shoulders Stencil 36pt';-inkscape-font-specification:'Big Shoulders Stencil 36pt Ultra-Bold';text-align:center;text-anchor:middle;fill:#000000;stroke:#0000ff">MOTHBEAM</tspan></text>
    <text
       xml:space="preserve"
       style="font-style:normal;font-variant:normal;font-weight:800;font-stretch:normal;font-size:14.6667px;line-height:13.9572px;font-family:'Big Shoulders Stencil 36pt';-inkscape-font-specification:'Big Shoulders Stencil 36pt Ultra-Bold';text-align:center;text-anchor:middle;fill:#000000;stroke:#0000ff;stroke-width:0.548032;stroke-dasharray:none"
       x="292.05515"
       y="516.02972"
       id="text2895"><tspan
         sodipodi:role="line"
         x="292.05515"
         y="516.02972"
         id="tspan2897">12 VOLTS </tspan><tspan
         sodipodi:role="line"
         x="292.05515"
         y="529.98694"
         id="tspan2903">OPTIMAL</tspan><tspan
         sodipodi:role="line"
         x="292.05515"
         y="543.94415"
         id="tspan2901" /></text>
    <text
       xml:space="preserve"
       style="font-style:normal;font-variant:normal;font-weight:800;font-stretch:normal;font-size:13.3333px;line-height:12.6884px;font-family:'Big Shoulders Stencil 36pt';-inkscape-font-specification:'Big Shoulders Stencil 36pt Ultra-Bold';text-align:center;text-anchor:middle;fill:#000000;stroke:#0000ff;stroke-width:0.548032;stroke-dasharray:none"
       x="290.00134"
       y="563.62354"
       id="text2895-9"><tspan
         sodipodi:role="line"
         x="290.00134"
         y="563.62354"
         id="tspan2897-5">12-24</tspan><tspan
         sodipodi:role="line"
         x="290.00134"
         y="576.31195"
         id="tspan2903-4">VOLTS - OK</tspan><tspan
         sodipodi:role="line"
         x="290.00134"
         y="589.00037"
         id="tspan2901-2" /></text>
    <circle
       style="fill:none;stroke:#ff0000;stroke-width:0.494589;stroke-dasharray:none;fill-opacity:0.16470589"
       id="path3039"
       cx="461.48077"
       cy="541.1394"
       r="20.540108" />
  </g>
</svg>
