%TF.GenerationSoftware,KiCad,Pcbnew,9.0.2*%
%TF.CreationDate,2025-08-09T09:48:53-05:00*%
%TF.ProjectId,Mothbeam,4d6f7468-6265-4616-9d2e-6b696361645f,rev?*%
%TF.SameCoordinates,Original*%
%TF.FileFunction,Soldermask,Top*%
%TF.FilePolarity,Negative*%
%FSLAX46Y46*%
G04 Gerber Fmt 4.6, Leading zero omitted, Abs format (unit mm)*
G04 Created by KiCad (PCBNEW 9.0.2) date 2025-08-09 09:48:53*
%MOMM*%
%LPD*%
G01*
G04 APERTURE LIST*
G04 Aperture macros list*
%AMRoundRect*
0 Rectangle with rounded corners*
0 $1 Rounding radius*
0 $2 $3 $4 $5 $6 $7 $8 $9 X,Y pos of 4 corners*
0 Add a 4 corners polygon primitive as box body*
4,1,4,$2,$3,$4,$5,$6,$7,$8,$9,$2,$3,0*
0 Add four circle primitives for the rounded corners*
1,1,$1+$1,$2,$3*
1,1,$1+$1,$4,$5*
1,1,$1+$1,$6,$7*
1,1,$1+$1,$8,$9*
0 Add four rect primitives between the rounded corners*
20,1,$1+$1,$2,$3,$4,$5,0*
20,1,$1+$1,$4,$5,$6,$7,0*
20,1,$1+$1,$6,$7,$8,$9,0*
20,1,$1+$1,$8,$9,$2,$3,0*%
G04 Aperture macros list end*
%ADD10R,3.450000X0.700000*%
%ADD11R,3.450000X1.300000*%
%ADD12R,3.300000X0.600000*%
%ADD13R,3.300000X1.400000*%
%ADD14R,0.760000X1.500000*%
%ADD15RoundRect,0.200000X0.200000X0.275000X-0.200000X0.275000X-0.200000X-0.275000X0.200000X-0.275000X0*%
%ADD16C,1.500000*%
%ADD17R,0.530000X1.070000*%
%ADD18RoundRect,0.200000X0.275000X-0.200000X0.275000X0.200000X-0.275000X0.200000X-0.275000X-0.200000X0*%
%ADD19RoundRect,0.200000X-0.200000X-0.275000X0.200000X-0.275000X0.200000X0.275000X-0.200000X0.275000X0*%
%ADD20R,1.000000X2.540000*%
%ADD21R,1.070000X0.530000*%
G04 APERTURE END LIST*
D10*
%TO.C,U6*%
X7700000Y55500000D03*
D11*
X7700000Y54100000D03*
D10*
X7700000Y52700000D03*
%TD*%
%TO.C,LED3*%
X7800000Y47450000D03*
D11*
X7800000Y46050000D03*
D10*
X7800000Y44650000D03*
%TD*%
D12*
%TO.C,LED2*%
X7750000Y60950000D03*
D13*
X7750000Y62250000D03*
D12*
X7750000Y63550000D03*
%TD*%
D14*
%TO.C,SW2*%
X7921776Y35283463D03*
X6651776Y35283463D03*
X5381776Y35283463D03*
X4101776Y35283463D03*
X4101776Y27663463D03*
X5381776Y27663463D03*
X6651776Y27663463D03*
X7921776Y27663463D03*
%TD*%
D15*
%TO.C,R6*%
X1475000Y30700000D03*
X-175000Y30700000D03*
%TD*%
%TO.C,R9*%
X-465893Y39150000D03*
X-2115893Y39150000D03*
%TD*%
D16*
%TO.C,TP1*%
X7750000Y50050000D03*
%TD*%
%TO.C,TP2*%
X3610000Y62060000D03*
%TD*%
%TO.C,TP5*%
X3740000Y46070000D03*
%TD*%
D17*
%TO.C,U1*%
X-340893Y37150000D03*
X-1290893Y37150000D03*
X-2240893Y37150000D03*
X-2240893Y34850000D03*
X-1290893Y34850000D03*
X-340893Y34850000D03*
%TD*%
D16*
%TO.C,TP3*%
X7724600Y58050000D03*
%TD*%
D18*
%TO.C,R1*%
X6537500Y38725000D03*
X6537500Y40375000D03*
%TD*%
D19*
%TO.C,R4*%
X-2325000Y32350000D03*
X-675000Y32350000D03*
%TD*%
D20*
%TO.C,CN1*%
X11540000Y35877500D03*
X14080000Y35877500D03*
X16620000Y35877500D03*
X19160000Y35877500D03*
%TD*%
D15*
%TO.C,R5*%
X19975000Y39300000D03*
X18325000Y39300000D03*
%TD*%
D21*
%TO.C,U2*%
X4437500Y38600000D03*
X4437500Y39550000D03*
X4437500Y40500000D03*
X2137500Y40500000D03*
X2137500Y39550000D03*
X2137500Y38600000D03*
%TD*%
D18*
%TO.C,R3*%
X-2300000Y28900000D03*
X-2300000Y30550000D03*
%TD*%
D16*
%TO.C,TP4*%
X3870000Y54050000D03*
%TD*%
D19*
%TO.C,R2*%
X-175000Y28900000D03*
X1475000Y28900000D03*
%TD*%
D21*
%TO.C,U3*%
X10937500Y38600000D03*
X10937500Y39550000D03*
X10937500Y40500000D03*
X8637500Y40500000D03*
X8637500Y39550000D03*
X8637500Y38600000D03*
%TD*%
M02*
