%TF.GenerationSoftware,KiCad,Pcbnew,9.0.2*%
%TF.CreationDate,2025-12-29T01:29:32-05:00*%
%TF.ProjectId,Mothbox_5.0.4,4d6f7468-626f-4785-9f35-2e302e342e6b,5.0.4*%
%TF.SameCoordinates,Original*%
%TF.FileFunction,Soldermask,Bot*%
%TF.FilePolarity,Negative*%
%FSLAX46Y46*%
G04 Gerber Fmt 4.6, Leading zero omitted, Abs format (unit mm)*
G04 Created by KiCad (PCBNEW 9.0.2) date 2025-12-29 01:29:32*
%MOMM*%
%LPD*%
G01*
G04 APERTURE LIST*
G04 Aperture macros list*
%AMRoundRect*
0 Rectangle with rounded corners*
0 $1 Rounding radius*
0 $2 $3 $4 $5 $6 $7 $8 $9 X,Y pos of 4 corners*
0 Add a 4 corners polygon primitive as box body*
4,1,4,$2,$3,$4,$5,$6,$7,$8,$9,$2,$3,0*
0 Add four circle primitives for the rounded corners*
1,1,$1+$1,$2,$3*
1,1,$1+$1,$4,$5*
1,1,$1+$1,$6,$7*
1,1,$1+$1,$8,$9*
0 Add four rect primitives between the rounded corners*
20,1,$1+$1,$2,$3,$4,$5,0*
20,1,$1+$1,$4,$5,$6,$7,0*
20,1,$1+$1,$6,$7,$8,$9,0*
20,1,$1+$1,$8,$9,$2,$3,0*%
%AMFreePoly0*
4,1,23,0.500000,-0.750000,0.000000,-0.750000,0.000000,-0.745722,-0.065263,-0.745722,-0.191342,-0.711940,-0.304381,-0.646677,-0.396677,-0.554381,-0.461940,-0.441342,-0.495722,-0.315263,-0.495722,-0.250000,-0.500000,-0.250000,-0.500000,0.250000,-0.495722,0.250000,-0.495722,0.315263,-0.461940,0.441342,-0.396677,0.554381,-0.304381,0.646677,-0.191342,0.711940,-0.065263,0.745722,0.000000,0.745722,
0.000000,0.750000,0.500000,0.750000,0.500000,-0.750000,0.500000,-0.750000,$1*%
%AMFreePoly1*
4,1,23,0.000000,0.745722,0.065263,0.745722,0.191342,0.711940,0.304381,0.646677,0.396677,0.554381,0.461940,0.441342,0.495722,0.315263,0.495722,0.250000,0.500000,0.250000,0.500000,-0.250000,0.495722,-0.250000,0.495722,-0.315263,0.461940,-0.441342,0.396677,-0.554381,0.304381,-0.646677,0.191342,-0.711940,0.065263,-0.745722,0.000000,-0.745722,0.000000,-0.750000,-0.500000,-0.750000,
-0.500000,0.750000,0.000000,0.750000,0.000000,0.745722,0.000000,0.745722,$1*%
G04 Aperture macros list end*
%ADD10RoundRect,0.225000X0.225000X0.375000X-0.225000X0.375000X-0.225000X-0.375000X0.225000X-0.375000X0*%
%ADD11C,3.200000*%
%ADD12C,1.000000*%
%ADD13C,12.800000*%
%ADD14R,1.700000X1.700000*%
%ADD15C,1.700000*%
%ADD16R,1.800000X1.780000*%
%ADD17C,1.800000*%
%ADD18RoundRect,0.225000X0.225000X0.250000X-0.225000X0.250000X-0.225000X-0.250000X0.225000X-0.250000X0*%
%ADD19RoundRect,0.225000X-0.225000X-0.250000X0.225000X-0.250000X0.225000X0.250000X-0.225000X0.250000X0*%
%ADD20RoundRect,0.200000X-0.200000X-0.275000X0.200000X-0.275000X0.200000X0.275000X-0.200000X0.275000X0*%
%ADD21RoundRect,0.225000X0.250000X-0.225000X0.250000X0.225000X-0.250000X0.225000X-0.250000X-0.225000X0*%
%ADD22R,0.450000X0.400000*%
%ADD23R,0.910000X0.400000*%
%ADD24R,0.910000X0.810000*%
%ADD25R,1.100000X2.200000*%
%ADD26RoundRect,0.218750X-0.218750X-0.256250X0.218750X-0.256250X0.218750X0.256250X-0.218750X0.256250X0*%
%ADD27R,1.600000X5.000000*%
%ADD28RoundRect,0.200000X0.275000X-0.200000X0.275000X0.200000X-0.275000X0.200000X-0.275000X-0.200000X0*%
%ADD29RoundRect,0.200000X-0.275000X0.200000X-0.275000X-0.200000X0.275000X-0.200000X0.275000X0.200000X0*%
%ADD30RoundRect,0.100000X0.637500X0.100000X-0.637500X0.100000X-0.637500X-0.100000X0.637500X-0.100000X0*%
%ADD31FreePoly0,90.000000*%
%ADD32FreePoly1,90.000000*%
%ADD33RoundRect,0.225000X-0.250000X0.225000X-0.250000X-0.225000X0.250000X-0.225000X0.250000X0.225000X0*%
%ADD34RoundRect,0.125000X-0.537500X-0.125000X0.537500X-0.125000X0.537500X0.125000X-0.537500X0.125000X0*%
%ADD35R,0.700000X2.000000*%
%ADD36R,2.000000X2.400000*%
%ADD37R,2.080000X0.980000*%
%ADD38RoundRect,0.200000X0.200000X0.275000X-0.200000X0.275000X-0.200000X-0.275000X0.200000X-0.275000X0*%
%ADD39R,0.400000X0.750000*%
%ADD40R,0.400000X0.800000*%
%ADD41R,2.600000X2.000000*%
%ADD42RoundRect,0.250000X-1.425000X0.362500X-1.425000X-0.362500X1.425000X-0.362500X1.425000X0.362500X0*%
%ADD43RoundRect,0.250000X0.300000X-2.050000X0.300000X2.050000X-0.300000X2.050000X-0.300000X-2.050000X0*%
%ADD44RoundRect,0.250002X5.149998X-4.449998X5.149998X4.449998X-5.149998X4.449998X-5.149998X-4.449998X0*%
%ADD45C,4.204000*%
%ADD46RoundRect,0.100000X-0.100000X0.637500X-0.100000X-0.637500X0.100000X-0.637500X0.100000X0.637500X0*%
%ADD47RoundRect,0.250000X2.500000X-1.750000X2.500000X1.750000X-2.500000X1.750000X-2.500000X-1.750000X0*%
%ADD48R,5.000000X1.600000*%
%ADD49RoundRect,0.250000X-0.712500X-2.475000X0.712500X-2.475000X0.712500X2.475000X-0.712500X2.475000X0*%
%ADD50R,2.700000X3.300000*%
%ADD51R,0.400000X0.450000*%
%ADD52R,0.400000X0.910000*%
%ADD53R,0.810000X0.910000*%
%ADD54RoundRect,0.150000X-0.150000X0.587500X-0.150000X-0.587500X0.150000X-0.587500X0.150000X0.587500X0*%
%ADD55R,1.400000X0.410000*%
%ADD56RoundRect,0.225000X-0.225000X-0.375000X0.225000X-0.375000X0.225000X0.375000X-0.225000X0.375000X0*%
G04 APERTURE END LIST*
%TO.C,JP1*%
G36*
X140510000Y-32955671D02*
G01*
X139010000Y-32955671D01*
X139010000Y-32655671D01*
X140510000Y-32655671D01*
X140510000Y-32955671D01*
G37*
%TD*%
D10*
%TO.C,D1*%
X126550000Y-39125671D03*
X123250000Y-39125671D03*
%TD*%
%TO.C,D4*%
X151057500Y16414329D03*
X147757500Y16414329D03*
%TD*%
D11*
%TO.C,H11*%
X98664815Y76137849D03*
%TD*%
D12*
%TO.C,TP9*%
X-67749331Y22291322D03*
%TD*%
D13*
%TO.C,H3*%
X31810000Y73964329D03*
%TD*%
D11*
%TO.C,H12*%
X42027061Y76094408D03*
%TD*%
%TO.C,H13*%
X-49776601Y76398843D03*
%TD*%
D12*
%TO.C,TP4*%
X106088922Y38593494D03*
%TD*%
%TO.C,TP7*%
X100644448Y2305791D03*
%TD*%
D13*
%TO.C,H6*%
X-62785185Y-42062151D03*
%TD*%
D14*
%TO.C,U5*%
X-50012001Y39448894D03*
D15*
X-50012001Y41988894D03*
X-47472001Y39448894D03*
X-47472001Y41988894D03*
X-44932002Y39448894D03*
X-44932001Y41988894D03*
X-42392001Y39448894D03*
X-42392001Y41988894D03*
X-39852001Y39448894D03*
X-39852001Y41988894D03*
X-37312001Y39448894D03*
X-37312001Y41988894D03*
X-34772001Y39448894D03*
X-34772001Y41988894D03*
X-32232000Y39448894D03*
X-32232001Y41988894D03*
X-29692001Y39448894D03*
X-29692001Y41988894D03*
X-27152001Y39448894D03*
X-27152001Y41988894D03*
X-24612001Y39448894D03*
X-24612001Y41988894D03*
X-22072002Y39448894D03*
X-22072001Y41988894D03*
X-19532001Y39448894D03*
X-19532001Y41988894D03*
X-16992001Y39448894D03*
X-16992001Y41988894D03*
X-14452001Y39448894D03*
X-14452001Y41988894D03*
X-11912002Y39448894D03*
X-11912001Y41988894D03*
X-9372000Y39448894D03*
X-9372001Y41988894D03*
X-6832001Y39448894D03*
X-6832001Y41988894D03*
X-4292001Y39448894D03*
X-4292001Y41988894D03*
X-1752001Y39448894D03*
X-1752001Y41988894D03*
%TD*%
D16*
%TO.C,H10*%
X88827556Y76664779D03*
D17*
X91367556Y76664779D03*
X88827556Y74124779D03*
X91367556Y74124779D03*
X88827556Y71584779D03*
X91367556Y71584779D03*
X88827556Y69044779D03*
X91367556Y69044779D03*
%TD*%
D12*
%TO.C,TP6*%
X128267838Y24986014D03*
%TD*%
D13*
%TO.C,H7*%
X153714815Y-46562151D03*
%TD*%
D12*
%TO.C,TP3*%
X127364815Y33237849D03*
%TD*%
D13*
%TO.C,H4*%
X-63935185Y72187849D03*
%TD*%
D12*
%TO.C,TP2*%
X147247758Y-27774716D03*
%TD*%
D13*
%TO.C,H5*%
X-63300000Y10884329D03*
%TD*%
D12*
%TO.C,TP8*%
X18208170Y79732148D03*
%TD*%
D16*
%TO.C,H9*%
X-3153838Y77032342D03*
D17*
X-613838Y77032342D03*
X-3153838Y74492342D03*
X-613838Y74492342D03*
X-3153838Y71952342D03*
X-613838Y71952342D03*
X-3153838Y69412342D03*
X-613838Y69412342D03*
%TD*%
D16*
%TO.C,H8*%
X145620519Y76898184D03*
D17*
X148160519Y76898184D03*
X145620519Y74358184D03*
X148160519Y74358184D03*
X145620519Y71818184D03*
X148160519Y71818184D03*
X145620519Y69278184D03*
X148160519Y69278184D03*
%TD*%
D13*
%TO.C,H2*%
X155714815Y65937849D03*
%TD*%
D12*
%TO.C,TP10*%
X146615789Y-54705402D03*
%TD*%
%TO.C,TP5*%
X136756166Y-16792685D03*
%TD*%
D18*
%TO.C,C17*%
X-52225000Y44584329D03*
X-53775000Y44584329D03*
%TD*%
D19*
%TO.C,C3*%
X128072303Y-11798759D03*
X129622303Y-11798759D03*
%TD*%
D20*
%TO.C,R38*%
X121675000Y-37065671D03*
X123325000Y-37065671D03*
%TD*%
D15*
%TO.C,J4*%
X157061743Y45616086D03*
X151981743Y45616086D03*
X157061743Y43076086D03*
X151981743Y43076086D03*
X157061743Y40536086D03*
X151981743Y40536086D03*
X157061743Y37996086D03*
X151981743Y37996086D03*
%TD*%
D21*
%TO.C,C7*%
X61592858Y58742782D03*
X61592858Y60292782D03*
%TD*%
D22*
%TO.C,Q5*%
X146650160Y67549356D03*
X146650160Y66889357D03*
X146650160Y66239356D03*
X144750160Y66239356D03*
X144750160Y66889357D03*
X144750160Y67549356D03*
D23*
X145700160Y66189355D03*
D24*
X145700160Y67219355D03*
%TD*%
D25*
%TO.C,U10*%
X68335084Y77364867D03*
X70875084Y77364867D03*
X73415084Y77364867D03*
X75955084Y77364867D03*
X78495084Y77364867D03*
X81035084Y77364867D03*
X83575084Y77364867D03*
X86115084Y77364867D03*
X86115084Y68564867D03*
X83575084Y68564867D03*
X81035084Y68564867D03*
X78495084Y68564867D03*
X75955084Y68564867D03*
X73415084Y68564867D03*
X70875084Y68564867D03*
X68335084Y68564867D03*
%TD*%
D26*
%TO.C,D3*%
X86963088Y47278041D03*
X88538090Y47278041D03*
%TD*%
D19*
%TO.C,C8*%
X148151600Y-30527067D03*
X149701600Y-30527067D03*
%TD*%
D27*
%TO.C,C16*%
X118675583Y7498297D03*
X118675583Y19098297D03*
%TD*%
D20*
%TO.C,R1*%
X139062677Y-18372672D03*
X140712677Y-18372672D03*
%TD*%
D14*
%TO.C,U7*%
X-49915185Y49490349D03*
D15*
X-49915185Y46950349D03*
X-47375185Y49490349D03*
X-47375185Y46950349D03*
X-44835185Y49490349D03*
X-44835185Y46950349D03*
X-42295185Y49490349D03*
X-42295185Y46950349D03*
X-39755185Y49490349D03*
X-39755185Y46950349D03*
X-37215185Y49490349D03*
X-37215185Y46950349D03*
X-34675185Y49490349D03*
X-34675185Y46950349D03*
X-32135185Y49490349D03*
X-32135185Y46950349D03*
X-29595185Y49490349D03*
X-29595185Y46950349D03*
X-27055185Y49490349D03*
X-27055185Y46950349D03*
X-24515185Y49490349D03*
X-24515185Y46950349D03*
X-21975185Y49490349D03*
X-21975185Y46950349D03*
X-19435185Y49490349D03*
X-19435185Y46950349D03*
X-16895185Y49490349D03*
X-16895185Y46950349D03*
X-14355185Y49490349D03*
X-14355185Y46950349D03*
X-11815185Y49490349D03*
X-11815185Y46950349D03*
X-9275185Y49490349D03*
X-9275185Y46950349D03*
X-6735185Y49490349D03*
X-6735185Y46950349D03*
X-4195185Y49490349D03*
X-4195185Y46950349D03*
X-1655185Y49490349D03*
X-1655185Y46950349D03*
%TD*%
D25*
%TO.C,U11*%
X45829011Y77420614D03*
X48369011Y77420614D03*
X50909011Y77420614D03*
X53449011Y77420614D03*
X55989011Y77420614D03*
X58529011Y77420614D03*
X61069011Y77420614D03*
X63609011Y77420614D03*
X63609011Y68620614D03*
X61069011Y68620614D03*
X58529011Y68620614D03*
X55989011Y68620614D03*
X53449011Y68620614D03*
X50909011Y68620614D03*
X48369011Y68620614D03*
X45829011Y68620614D03*
%TD*%
D18*
%TO.C,C5*%
X114427649Y5011284D03*
X112877649Y5011284D03*
%TD*%
D28*
%TO.C,R30*%
X137310970Y-21503359D03*
X137310970Y-19853359D03*
%TD*%
D15*
%TO.C,J3*%
X157079878Y-8069029D03*
X151999878Y-8069029D03*
X157079878Y-10609029D03*
X151999878Y-10609029D03*
X157079878Y-13149029D03*
X151999878Y-13149029D03*
X157079878Y-15689029D03*
X151999878Y-15689029D03*
%TD*%
D29*
%TO.C,R3*%
X138996943Y-5185970D03*
X138996943Y-6835970D03*
%TD*%
D18*
%TO.C,C18*%
X-52231879Y42850432D03*
X-53781879Y42850432D03*
%TD*%
D30*
%TO.C,U9*%
X123602659Y59922277D03*
X123602659Y59272277D03*
X123602659Y58622277D03*
X123602659Y57972277D03*
X123602659Y57322277D03*
X123602659Y56672277D03*
X123602659Y56022277D03*
X123602659Y55372277D03*
X123602659Y54722277D03*
X123602659Y54072277D03*
X123602659Y53422277D03*
X123602659Y52772277D03*
X117877659Y52772277D03*
X117877659Y53422277D03*
X117877659Y54072277D03*
X117877659Y54722277D03*
X117877659Y55372277D03*
X117877659Y56022277D03*
X117877659Y56672277D03*
X117877659Y57322277D03*
X117877659Y57972277D03*
X117877659Y58622277D03*
X117877659Y59272277D03*
X117877659Y59922277D03*
%TD*%
D31*
%TO.C,JP1*%
X139760000Y-33455671D03*
D32*
X139760000Y-32155671D03*
%TD*%
D33*
%TO.C,C15*%
X84116199Y53173938D03*
X84116199Y51623938D03*
%TD*%
D34*
%TO.C,U3*%
X148564100Y-35631444D03*
X148564100Y-34981444D03*
X148564100Y-34331444D03*
X148564100Y-33681444D03*
X150839100Y-33681444D03*
X150839100Y-34331444D03*
X150839100Y-34981444D03*
X150839100Y-35631444D03*
%TD*%
D33*
%TO.C,C4*%
X109824516Y9487413D03*
X109824516Y7937413D03*
%TD*%
D35*
%TO.C,J5*%
X105000000Y15634329D03*
X106250000Y15634329D03*
X107500000Y15634329D03*
D36*
X110250000Y18334329D03*
X102250000Y18334329D03*
%TD*%
D25*
%TO.C,U13*%
X124864222Y77531424D03*
X127404222Y77531424D03*
X129944222Y77531424D03*
X132484222Y77531424D03*
X135024222Y77531424D03*
X137564222Y77531424D03*
X140104222Y77531424D03*
X142644222Y77531424D03*
X142644222Y68731424D03*
X140104222Y68731424D03*
X137564222Y68731424D03*
X135024222Y68731424D03*
X132484222Y68731424D03*
X129944222Y68731424D03*
X127404222Y68731424D03*
X124864222Y68731424D03*
%TD*%
D22*
%TO.C,Q6*%
X2031790Y72839962D03*
X2031790Y73499961D03*
X2031790Y74149962D03*
X3931790Y74149962D03*
X3931790Y73499961D03*
X3931790Y72839962D03*
D23*
X2981790Y74199963D03*
D24*
X2981790Y73169963D03*
%TD*%
D37*
%TO.C,SW2*%
X93790000Y54684329D03*
X84910000Y54684329D03*
X93790000Y50184329D03*
X84910000Y50184329D03*
%TD*%
D38*
%TO.C,R34*%
X91625000Y47284329D03*
X89975000Y47284329D03*
%TD*%
D14*
%TO.C,U8*%
X109003998Y37067769D03*
D15*
X111543998Y37067769D03*
X114083998Y37067769D03*
X116623998Y37067769D03*
X119163998Y37067769D03*
%TD*%
D25*
%TO.C,U12*%
X35674815Y57637849D03*
X38214815Y57637849D03*
X40754815Y57637849D03*
X43294815Y57637849D03*
X45834815Y57637849D03*
X48374815Y57637849D03*
X50914815Y57637849D03*
X53454815Y57637849D03*
X53454815Y48837849D03*
X50914815Y48837849D03*
X48374815Y48837849D03*
X45834815Y48837849D03*
X43294815Y48837849D03*
X40754815Y48837849D03*
X38214815Y48837849D03*
X35674815Y48837849D03*
%TD*%
D38*
%TO.C,R6*%
X152863364Y-30549371D03*
X151213364Y-30549371D03*
%TD*%
D19*
%TO.C,C6*%
X148167608Y-32121272D03*
X149717608Y-32121272D03*
%TD*%
%TO.C,C12*%
X38539815Y39137849D03*
X40089815Y39137849D03*
%TD*%
D28*
%TO.C,R19*%
X148166558Y28300931D03*
X148166558Y29950931D03*
%TD*%
D20*
%TO.C,R31*%
X2217301Y75591151D03*
X3867301Y75591151D03*
%TD*%
D33*
%TO.C,C2*%
X137480000Y-32300671D03*
X137480000Y-33850671D03*
%TD*%
D15*
%TO.C,J2*%
X140302098Y-44704396D03*
X135222098Y-44704396D03*
X140302098Y-47244396D03*
X135222098Y-47244396D03*
X140302098Y-49784396D03*
X135222098Y-49784396D03*
X140302098Y-52324396D03*
X135222098Y-52324396D03*
%TD*%
D39*
%TO.C,Q10*%
X144643937Y16869101D03*
X145303937Y16869101D03*
X145953937Y16869101D03*
X146603937Y16869101D03*
D40*
X146603937Y13809101D03*
X145953937Y13809101D03*
X145303937Y13809101D03*
X144643937Y13809101D03*
D41*
X145623937Y15009101D03*
%TD*%
D38*
%TO.C,R5*%
X152828173Y-32133002D03*
X151178173Y-32133002D03*
%TD*%
D42*
%TO.C,R4*%
X145201600Y-32193944D03*
X145201600Y-38118944D03*
%TD*%
D43*
%TO.C,U2*%
X134783638Y-8393245D03*
X133083638Y-8393244D03*
X131383638Y-8393245D03*
D44*
X131383638Y756755D03*
D43*
X129683638Y-8393244D03*
X127983638Y-8393245D03*
%TD*%
D39*
%TO.C,Q1*%
X128136835Y-39932735D03*
X128796835Y-39932735D03*
X129446835Y-39932735D03*
X130096835Y-39932735D03*
D40*
X130096835Y-42992735D03*
X129446835Y-42992735D03*
X128796835Y-42992735D03*
X128136835Y-42992735D03*
D41*
X129116835Y-41792735D03*
%TD*%
D25*
%TO.C,U14*%
X103506146Y77511845D03*
X106046146Y77511845D03*
X108586146Y77511845D03*
X111126146Y77511845D03*
X113666146Y77511845D03*
X116206146Y77511845D03*
X118746146Y77511845D03*
X121286146Y77511845D03*
X121286146Y68711845D03*
X118746146Y68711845D03*
X116206146Y68711845D03*
X113666146Y68711845D03*
X111126146Y68711845D03*
X108586146Y68711845D03*
X106046146Y68711845D03*
X103506146Y68711845D03*
%TD*%
D21*
%TO.C,C9*%
X115615709Y58140257D03*
X115615709Y59690257D03*
%TD*%
D28*
%TO.C,R35*%
X82462843Y51573397D03*
X82462843Y53223397D03*
%TD*%
D45*
%TO.C,U6*%
X-54285185Y54437849D03*
X3214815Y54437849D03*
X-54285185Y69437849D03*
X3214815Y69437849D03*
%TD*%
D20*
%TO.C,R39*%
X150225000Y14244329D03*
X151875000Y14244329D03*
%TD*%
D38*
%TO.C,R21*%
X95757594Y62938269D03*
X94107594Y62938269D03*
%TD*%
D15*
%TO.C,J1*%
X156914327Y8694689D03*
X151834327Y8694689D03*
X156914327Y6154689D03*
X151834327Y6154689D03*
X156914327Y3614689D03*
X151834327Y3614689D03*
X156914327Y1074689D03*
X151834327Y1074689D03*
%TD*%
D29*
%TO.C,R41*%
X135787421Y-19875281D03*
X135787421Y-21525281D03*
%TD*%
D21*
%TO.C,C10*%
X129413334Y8862282D03*
X129413334Y10412282D03*
%TD*%
D46*
%TO.C,U16*%
X41586203Y44900349D03*
X42236203Y44900349D03*
X42886203Y44900349D03*
X43536203Y44900349D03*
X44186203Y44900349D03*
X44836203Y44900349D03*
X45486203Y44900349D03*
X46136203Y44900349D03*
X46786203Y44900349D03*
X47436203Y44900349D03*
X48086203Y44900349D03*
X48736203Y44900349D03*
X48736203Y39175349D03*
X48086203Y39175349D03*
X47436203Y39175349D03*
X46786203Y39175349D03*
X46136203Y39175349D03*
X45486203Y39175349D03*
X44836203Y39175349D03*
X44186203Y39175349D03*
X43536203Y39175349D03*
X42886203Y39175349D03*
X42236203Y39175349D03*
X41586203Y39175349D03*
%TD*%
D47*
%TO.C,L1*%
X118214815Y-8812151D03*
X118214815Y1687849D03*
%TD*%
D30*
%TO.C,U15*%
X69659215Y60249367D03*
X69659215Y59599367D03*
X69659215Y58949367D03*
X69659215Y58299367D03*
X69659215Y57649367D03*
X69659215Y56999367D03*
X69659215Y56349367D03*
X69659215Y55699367D03*
X69659215Y55049367D03*
X69659215Y54399367D03*
X69659215Y53749367D03*
X69659215Y53099367D03*
X63934215Y53099367D03*
X63934215Y53749367D03*
X63934215Y54399367D03*
X63934215Y55049367D03*
X63934215Y55699367D03*
X63934215Y56349367D03*
X63934215Y56999367D03*
X63934215Y57649367D03*
X63934215Y58299367D03*
X63934215Y58949367D03*
X63934215Y59599367D03*
X63934215Y60249367D03*
%TD*%
D48*
%TO.C,C14*%
X132684092Y-27527159D03*
X121084092Y-27527159D03*
%TD*%
D14*
%TO.C,H1*%
X110274815Y27787849D03*
D15*
X112814815Y27787849D03*
X115354814Y27787849D03*
X117894815Y27787849D03*
%TD*%
D38*
%TO.C,R36*%
X-52335000Y40854329D03*
X-53985000Y40854329D03*
%TD*%
D12*
%TO.C,TP1*%
X99243003Y-15812151D03*
%TD*%
D38*
%TO.C,R32*%
X139434478Y-8259677D03*
X137784478Y-8259677D03*
%TD*%
D49*
%TO.C,F2*%
X133732786Y-37887455D03*
X140507786Y-37887455D03*
%TD*%
D39*
%TO.C,Q13*%
X-55945000Y39793136D03*
X-55285000Y39793136D03*
X-54635000Y39793136D03*
X-53985000Y39793136D03*
D40*
X-53985000Y36733136D03*
X-54635000Y36733136D03*
X-55285000Y36733136D03*
X-55945000Y36733136D03*
D41*
X-54965000Y37933136D03*
%TD*%
D20*
%TO.C,R42*%
X148125000Y18374329D03*
X149775000Y18374329D03*
%TD*%
D50*
%TO.C,E1*%
X121674815Y-16112151D03*
X129054815Y-16112151D03*
%TD*%
D29*
%TO.C,R2*%
X139001715Y-2175686D03*
X139001715Y-3825686D03*
%TD*%
D51*
%TO.C,Q4*%
X150826119Y28151191D03*
X150166120Y28151191D03*
X149516119Y28151191D03*
X149516119Y30051191D03*
X150166120Y30051191D03*
X150826119Y30051191D03*
D52*
X149466118Y29101191D03*
D53*
X150496118Y29101191D03*
%TD*%
D38*
%TO.C,R33*%
X106265345Y6213720D03*
X104615345Y6213720D03*
%TD*%
%TO.C,R27*%
X146541652Y64860581D03*
X144891652Y64860581D03*
%TD*%
D29*
%TO.C,R29*%
X125927272Y-41053014D03*
X125927272Y-42703014D03*
%TD*%
D21*
%TO.C,C11*%
X127677335Y8848051D03*
X127677335Y10398051D03*
%TD*%
D39*
%TO.C,Q8*%
X145242502Y-29022569D03*
X144582502Y-29022569D03*
X143932502Y-29022569D03*
X143282502Y-29022569D03*
D40*
X143282502Y-25962569D03*
X143932502Y-25962569D03*
X144582502Y-25962569D03*
X145242502Y-25962569D03*
D41*
X144262502Y-27162569D03*
%TD*%
D54*
%TO.C,Q2*%
X138912511Y-20237129D03*
X140812511Y-20237129D03*
X139862511Y-22112130D03*
%TD*%
D55*
%TO.C,U17*%
X103224474Y7792982D03*
X103224474Y8442982D03*
X103224474Y9102982D03*
X103224474Y9752982D03*
X107824474Y9752982D03*
X107824474Y9102982D03*
X107824474Y8442982D03*
X107824474Y7792982D03*
%TD*%
D22*
%TO.C,Q9*%
X95870772Y65752034D03*
X95870772Y65092035D03*
X95870772Y64442034D03*
X93970772Y64442034D03*
X93970772Y65092035D03*
X93970772Y65752034D03*
D23*
X94920772Y64392033D03*
D24*
X94920772Y65422033D03*
%TD*%
D56*
%TO.C,D2*%
X139020000Y-24335671D03*
X135720000Y-24335671D03*
%TD*%
M02*
