%TF.GenerationSoftware,KiCad,Pcbnew,7.0.8-7.0.8~ubuntu22.04.1*%
%TF.CreationDate,2023-12-07T10:59:45+01:00*%
%TF.ProjectId,mothbeam_panel,6d6f7468-6265-4616-9d5f-70616e656c2e,rev?*%
%TF.SameCoordinates,Original*%
%TF.FileFunction,Paste,Top*%
%TF.FilePolarity,Positive*%
%FSLAX46Y46*%
G04 Gerber Fmt 4.6, Leading zero omitted, Abs format (unit mm)*
G04 Created by KiCad (PCBNEW 7.0.8-7.0.8~ubuntu22.04.1) date 2023-12-07 10:59:45*
%MOMM*%
%LPD*%
G01*
G04 APERTURE LIST*
G04 Aperture macros list*
%AMRoundRect*
0 Rectangle with rounded corners*
0 $1 Rounding radius*
0 $2 $3 $4 $5 $6 $7 $8 $9 X,Y pos of 4 corners*
0 Add a 4 corners polygon primitive as box body*
4,1,4,$2,$3,$4,$5,$6,$7,$8,$9,$2,$3,0*
0 Add four circle primitives for the rounded corners*
1,1,$1+$1,$2,$3*
1,1,$1+$1,$4,$5*
1,1,$1+$1,$6,$7*
1,1,$1+$1,$8,$9*
0 Add four rect primitives between the rounded corners*
20,1,$1+$1,$2,$3,$4,$5,0*
20,1,$1+$1,$4,$5,$6,$7,0*
20,1,$1+$1,$6,$7,$8,$9,0*
20,1,$1+$1,$8,$9,$2,$3,0*%
%AMFreePoly0*
4,1,5,0.192000,-1.577000,-0.192000,-1.577000,-0.192000,1.577000,0.192000,1.577000,0.192000,-1.577000,0.192000,-1.577000,$1*%
G04 Aperture macros list end*
%ADD10C,0.100000*%
%ADD11R,0.712000X2.448000*%
%ADD12RoundRect,0.135000X0.325000X0.945000X-0.325000X0.945000X-0.325000X-0.945000X0.325000X-0.945000X0*%
%ADD13RoundRect,0.335000X0.625000X0.585000X-0.625000X0.585000X-0.625000X-0.585000X0.625000X-0.585000X0*%
%ADD14RoundRect,0.300000X0.500000X0.620000X-0.500000X0.620000X-0.500000X-0.620000X0.500000X-0.620000X0*%
%ADD15RoundRect,0.335000X-0.625000X-0.585000X0.625000X-0.585000X0.625000X0.585000X-0.625000X0.585000X0*%
%ADD16RoundRect,0.300000X-0.500000X-0.620000X0.500000X-0.620000X0.500000X0.620000X-0.500000X0.620000X0*%
%ADD17FreePoly0,90.000000*%
%ADD18RoundRect,0.130000X1.007500X-0.325000X1.007500X0.325000X-1.007500X0.325000X-1.007500X-0.325000X0*%
%ADD19RoundRect,0.135000X-0.945000X0.325000X-0.945000X-0.325000X0.945000X-0.325000X0.945000X0.325000X0*%
%ADD20RoundRect,0.335000X0.585000X-0.625000X0.585000X0.625000X-0.585000X0.625000X-0.585000X-0.625000X0*%
%ADD21RoundRect,0.300000X0.620000X-0.500000X0.620000X0.500000X-0.620000X0.500000X-0.620000X-0.500000X0*%
%ADD22RoundRect,0.137500X-0.312500X-0.562500X0.312500X-0.562500X0.312500X0.562500X-0.312500X0.562500X0*%
%ADD23RoundRect,0.147500X0.262500X0.412500X-0.262500X0.412500X-0.262500X-0.412500X0.262500X-0.412500X0*%
%ADD24RoundRect,0.150000X0.430000X-0.250000X0.430000X0.250000X-0.430000X0.250000X-0.430000X-0.250000X0*%
%ADD25RoundRect,0.140000X-0.300000X0.300000X-0.300000X-0.300000X0.300000X-0.300000X0.300000X0.300000X0*%
%ADD26RoundRect,0.081000X-0.135000X-0.175000X0.135000X-0.175000X0.135000X0.175000X-0.135000X0.175000X0*%
%ADD27RoundRect,0.125000X-0.375000X-0.575000X0.375000X-0.575000X0.375000X0.575000X-0.375000X0.575000X0*%
G04 APERTURE END LIST*
%TO.C,U1*%
D10*
X169129700Y-85271100D02*
X166716700Y-85271100D01*
X166724320Y-82629500D01*
X169137320Y-82629500D01*
X169129700Y-85271100D01*
G36*
X169129700Y-85271100D02*
G01*
X166716700Y-85271100D01*
X166724320Y-82629500D01*
X169137320Y-82629500D01*
X169129700Y-85271100D01*
G37*
X171776380Y-85296500D02*
X169363380Y-85296500D01*
X169371000Y-82654900D01*
X171784000Y-82654900D01*
X171776380Y-85296500D01*
G36*
X171776380Y-85296500D02*
G01*
X169363380Y-85296500D01*
X169371000Y-82654900D01*
X171784000Y-82654900D01*
X171776380Y-85296500D01*
G37*
X171763680Y-88115900D02*
X169350680Y-88115900D01*
X169358300Y-85474300D01*
X171771300Y-85474300D01*
X171763680Y-88115900D01*
G36*
X171763680Y-88115900D02*
G01*
X169350680Y-88115900D01*
X169358300Y-85474300D01*
X171771300Y-85474300D01*
X171763680Y-88115900D01*
G37*
X169122080Y-88128600D02*
X166709080Y-88128600D01*
X166716700Y-85487000D01*
X169129700Y-85487000D01*
X169122080Y-88128600D01*
G36*
X169122080Y-88128600D02*
G01*
X166709080Y-88128600D01*
X166716700Y-85487000D01*
X169129700Y-85487000D01*
X169122080Y-88128600D01*
G37*
X169122080Y-90935300D02*
X166709080Y-90935300D01*
X166716700Y-88293700D01*
X169129700Y-88293700D01*
X169122080Y-90935300D01*
G36*
X169122080Y-90935300D02*
G01*
X166709080Y-90935300D01*
X166716700Y-88293700D01*
X169129700Y-88293700D01*
X169122080Y-90935300D01*
G37*
X171750980Y-90948000D02*
X169337980Y-90948000D01*
X169345600Y-88306400D01*
X171758600Y-88306400D01*
X171750980Y-90948000D01*
G36*
X171750980Y-90948000D02*
G01*
X169337980Y-90948000D01*
X169345600Y-88306400D01*
X171758600Y-88306400D01*
X171750980Y-90948000D01*
G37*
X119129700Y-158271100D02*
X116716700Y-158271100D01*
X116724320Y-155629500D01*
X119137320Y-155629500D01*
X119129700Y-158271100D01*
G36*
X119129700Y-158271100D02*
G01*
X116716700Y-158271100D01*
X116724320Y-155629500D01*
X119137320Y-155629500D01*
X119129700Y-158271100D01*
G37*
X121776380Y-158296500D02*
X119363380Y-158296500D01*
X119371000Y-155654900D01*
X121784000Y-155654900D01*
X121776380Y-158296500D01*
G36*
X121776380Y-158296500D02*
G01*
X119363380Y-158296500D01*
X119371000Y-155654900D01*
X121784000Y-155654900D01*
X121776380Y-158296500D01*
G37*
X121763680Y-161115900D02*
X119350680Y-161115900D01*
X119358300Y-158474300D01*
X121771300Y-158474300D01*
X121763680Y-161115900D01*
G36*
X121763680Y-161115900D02*
G01*
X119350680Y-161115900D01*
X119358300Y-158474300D01*
X121771300Y-158474300D01*
X121763680Y-161115900D01*
G37*
X119122080Y-161128600D02*
X116709080Y-161128600D01*
X116716700Y-158487000D01*
X119129700Y-158487000D01*
X119122080Y-161128600D01*
G36*
X119122080Y-161128600D02*
G01*
X116709080Y-161128600D01*
X116716700Y-158487000D01*
X119129700Y-158487000D01*
X119122080Y-161128600D01*
G37*
X119122080Y-163935300D02*
X116709080Y-163935300D01*
X116716700Y-161293700D01*
X119129700Y-161293700D01*
X119122080Y-163935300D01*
G36*
X119122080Y-163935300D02*
G01*
X116709080Y-163935300D01*
X116716700Y-161293700D01*
X119129700Y-161293700D01*
X119122080Y-163935300D01*
G37*
X121750980Y-163948000D02*
X119337980Y-163948000D01*
X119345600Y-161306400D01*
X121758600Y-161306400D01*
X121750980Y-163948000D01*
G36*
X121750980Y-163948000D02*
G01*
X119337980Y-163948000D01*
X119345600Y-161306400D01*
X121758600Y-161306400D01*
X121750980Y-163948000D01*
G37*
X144129700Y-158271100D02*
X141716700Y-158271100D01*
X141724320Y-155629500D01*
X144137320Y-155629500D01*
X144129700Y-158271100D01*
G36*
X144129700Y-158271100D02*
G01*
X141716700Y-158271100D01*
X141724320Y-155629500D01*
X144137320Y-155629500D01*
X144129700Y-158271100D01*
G37*
X146776380Y-158296500D02*
X144363380Y-158296500D01*
X144371000Y-155654900D01*
X146784000Y-155654900D01*
X146776380Y-158296500D01*
G36*
X146776380Y-158296500D02*
G01*
X144363380Y-158296500D01*
X144371000Y-155654900D01*
X146784000Y-155654900D01*
X146776380Y-158296500D01*
G37*
X146763680Y-161115900D02*
X144350680Y-161115900D01*
X144358300Y-158474300D01*
X146771300Y-158474300D01*
X146763680Y-161115900D01*
G36*
X146763680Y-161115900D02*
G01*
X144350680Y-161115900D01*
X144358300Y-158474300D01*
X146771300Y-158474300D01*
X146763680Y-161115900D01*
G37*
X144122080Y-161128600D02*
X141709080Y-161128600D01*
X141716700Y-158487000D01*
X144129700Y-158487000D01*
X144122080Y-161128600D01*
G36*
X144122080Y-161128600D02*
G01*
X141709080Y-161128600D01*
X141716700Y-158487000D01*
X144129700Y-158487000D01*
X144122080Y-161128600D01*
G37*
X144122080Y-163935300D02*
X141709080Y-163935300D01*
X141716700Y-161293700D01*
X144129700Y-161293700D01*
X144122080Y-163935300D01*
G36*
X144122080Y-163935300D02*
G01*
X141709080Y-163935300D01*
X141716700Y-161293700D01*
X144129700Y-161293700D01*
X144122080Y-163935300D01*
G37*
X146750980Y-163948000D02*
X144337980Y-163948000D01*
X144345600Y-161306400D01*
X146758600Y-161306400D01*
X146750980Y-163948000D01*
G36*
X146750980Y-163948000D02*
G01*
X144337980Y-163948000D01*
X144345600Y-161306400D01*
X146758600Y-161306400D01*
X146750980Y-163948000D01*
G37*
X144129700Y-85271100D02*
X141716700Y-85271100D01*
X141724320Y-82629500D01*
X144137320Y-82629500D01*
X144129700Y-85271100D01*
G36*
X144129700Y-85271100D02*
G01*
X141716700Y-85271100D01*
X141724320Y-82629500D01*
X144137320Y-82629500D01*
X144129700Y-85271100D01*
G37*
X146776380Y-85296500D02*
X144363380Y-85296500D01*
X144371000Y-82654900D01*
X146784000Y-82654900D01*
X146776380Y-85296500D01*
G36*
X146776380Y-85296500D02*
G01*
X144363380Y-85296500D01*
X144371000Y-82654900D01*
X146784000Y-82654900D01*
X146776380Y-85296500D01*
G37*
X146763680Y-88115900D02*
X144350680Y-88115900D01*
X144358300Y-85474300D01*
X146771300Y-85474300D01*
X146763680Y-88115900D01*
G36*
X146763680Y-88115900D02*
G01*
X144350680Y-88115900D01*
X144358300Y-85474300D01*
X146771300Y-85474300D01*
X146763680Y-88115900D01*
G37*
X144122080Y-88128600D02*
X141709080Y-88128600D01*
X141716700Y-85487000D01*
X144129700Y-85487000D01*
X144122080Y-88128600D01*
G36*
X144122080Y-88128600D02*
G01*
X141709080Y-88128600D01*
X141716700Y-85487000D01*
X144129700Y-85487000D01*
X144122080Y-88128600D01*
G37*
X144122080Y-90935300D02*
X141709080Y-90935300D01*
X141716700Y-88293700D01*
X144129700Y-88293700D01*
X144122080Y-90935300D01*
G36*
X144122080Y-90935300D02*
G01*
X141709080Y-90935300D01*
X141716700Y-88293700D01*
X144129700Y-88293700D01*
X144122080Y-90935300D01*
G37*
X146750980Y-90948000D02*
X144337980Y-90948000D01*
X144345600Y-88306400D01*
X146758600Y-88306400D01*
X146750980Y-90948000D01*
G36*
X146750980Y-90948000D02*
G01*
X144337980Y-90948000D01*
X144345600Y-88306400D01*
X146758600Y-88306400D01*
X146750980Y-90948000D01*
G37*
X169129700Y-158271100D02*
X166716700Y-158271100D01*
X166724320Y-155629500D01*
X169137320Y-155629500D01*
X169129700Y-158271100D01*
G36*
X169129700Y-158271100D02*
G01*
X166716700Y-158271100D01*
X166724320Y-155629500D01*
X169137320Y-155629500D01*
X169129700Y-158271100D01*
G37*
X171776380Y-158296500D02*
X169363380Y-158296500D01*
X169371000Y-155654900D01*
X171784000Y-155654900D01*
X171776380Y-158296500D01*
G36*
X171776380Y-158296500D02*
G01*
X169363380Y-158296500D01*
X169371000Y-155654900D01*
X171784000Y-155654900D01*
X171776380Y-158296500D01*
G37*
X171763680Y-161115900D02*
X169350680Y-161115900D01*
X169358300Y-158474300D01*
X171771300Y-158474300D01*
X171763680Y-161115900D01*
G36*
X171763680Y-161115900D02*
G01*
X169350680Y-161115900D01*
X169358300Y-158474300D01*
X171771300Y-158474300D01*
X171763680Y-161115900D01*
G37*
X169122080Y-161128600D02*
X166709080Y-161128600D01*
X166716700Y-158487000D01*
X169129700Y-158487000D01*
X169122080Y-161128600D01*
G36*
X169122080Y-161128600D02*
G01*
X166709080Y-161128600D01*
X166716700Y-158487000D01*
X169129700Y-158487000D01*
X169122080Y-161128600D01*
G37*
X169122080Y-163935300D02*
X166709080Y-163935300D01*
X166716700Y-161293700D01*
X169129700Y-161293700D01*
X169122080Y-163935300D01*
G36*
X169122080Y-163935300D02*
G01*
X166709080Y-163935300D01*
X166716700Y-161293700D01*
X169129700Y-161293700D01*
X169122080Y-163935300D01*
G37*
X171750980Y-163948000D02*
X169337980Y-163948000D01*
X169345600Y-161306400D01*
X171758600Y-161306400D01*
X171750980Y-163948000D01*
G36*
X171750980Y-163948000D02*
G01*
X169337980Y-163948000D01*
X169345600Y-161306400D01*
X171758600Y-161306400D01*
X171750980Y-163948000D01*
G37*
X119129700Y-85271100D02*
X116716700Y-85271100D01*
X116724320Y-82629500D01*
X119137320Y-82629500D01*
X119129700Y-85271100D01*
G36*
X119129700Y-85271100D02*
G01*
X116716700Y-85271100D01*
X116724320Y-82629500D01*
X119137320Y-82629500D01*
X119129700Y-85271100D01*
G37*
X121776380Y-85296500D02*
X119363380Y-85296500D01*
X119371000Y-82654900D01*
X121784000Y-82654900D01*
X121776380Y-85296500D01*
G36*
X121776380Y-85296500D02*
G01*
X119363380Y-85296500D01*
X119371000Y-82654900D01*
X121784000Y-82654900D01*
X121776380Y-85296500D01*
G37*
X121763680Y-88115900D02*
X119350680Y-88115900D01*
X119358300Y-85474300D01*
X121771300Y-85474300D01*
X121763680Y-88115900D01*
G36*
X121763680Y-88115900D02*
G01*
X119350680Y-88115900D01*
X119358300Y-85474300D01*
X121771300Y-85474300D01*
X121763680Y-88115900D01*
G37*
X119122080Y-88128600D02*
X116709080Y-88128600D01*
X116716700Y-85487000D01*
X119129700Y-85487000D01*
X119122080Y-88128600D01*
G36*
X119122080Y-88128600D02*
G01*
X116709080Y-88128600D01*
X116716700Y-85487000D01*
X119129700Y-85487000D01*
X119122080Y-88128600D01*
G37*
X119122080Y-90935300D02*
X116709080Y-90935300D01*
X116716700Y-88293700D01*
X119129700Y-88293700D01*
X119122080Y-90935300D01*
G36*
X119122080Y-90935300D02*
G01*
X116709080Y-90935300D01*
X116716700Y-88293700D01*
X119129700Y-88293700D01*
X119122080Y-90935300D01*
G37*
X121750980Y-90948000D02*
X119337980Y-90948000D01*
X119345600Y-88306400D01*
X121758600Y-88306400D01*
X121750980Y-90948000D01*
G36*
X121750980Y-90948000D02*
G01*
X119337980Y-90948000D01*
X119345600Y-88306400D01*
X121758600Y-88306400D01*
X121750980Y-90948000D01*
G37*
%TD*%
D11*
%TO.C,U1*%
X173054000Y-79455000D03*
X171784000Y-79455000D03*
X170514000Y-79455000D03*
X169244000Y-79455000D03*
X167974000Y-79455000D03*
X166704000Y-79455000D03*
X165434000Y-79455000D03*
%TD*%
D12*
%TO.C,C3*%
X119957000Y-70247000D03*
X117007000Y-70247000D03*
%TD*%
D13*
%TO.C,J4*%
X129809400Y-68469000D03*
D14*
X126709400Y-68469000D03*
%TD*%
D15*
%TO.C,J5*%
X122951200Y-107255200D03*
D16*
X126051200Y-107255200D03*
%TD*%
D17*
%TO.C,D4*%
X173500000Y-136489400D03*
X173500000Y-133719400D03*
D18*
X173500000Y-135104400D03*
%TD*%
D17*
%TO.C,D4*%
X173500000Y-63489400D03*
X173500000Y-60719400D03*
D18*
X173500000Y-62104400D03*
%TD*%
D19*
%TO.C,C2*%
X129912000Y-152313000D03*
X129912000Y-155263000D03*
%TD*%
D15*
%TO.C,J5*%
X172951200Y-34255200D03*
D16*
X176051200Y-34255200D03*
%TD*%
D19*
%TO.C,C2*%
X154912000Y-79313000D03*
X154912000Y-82263000D03*
%TD*%
D20*
%TO.C,J2*%
X174019200Y-96850000D03*
D21*
X174019200Y-93750000D03*
%TD*%
D17*
%TO.C,D1*%
X123474600Y-39489400D03*
X123474600Y-36719400D03*
D18*
X123474600Y-38104400D03*
%TD*%
D17*
%TO.C,D3*%
X123500000Y-128489400D03*
X123500000Y-125719400D03*
D18*
X123500000Y-127104400D03*
%TD*%
D17*
%TO.C,D2*%
X123474600Y-47489400D03*
X123474600Y-44719400D03*
D18*
X123474600Y-46104400D03*
%TD*%
D20*
%TO.C,J1*%
X130928000Y-96850000D03*
D21*
X130928000Y-93750000D03*
%TD*%
D22*
%TO.C,R1*%
X164352500Y-76343000D03*
X167277500Y-76343000D03*
%TD*%
D23*
%TO.C,FB1*%
X168835700Y-140478400D03*
X167010700Y-140478400D03*
%TD*%
D13*
%TO.C,J4*%
X154809400Y-68469000D03*
D14*
X151709400Y-68469000D03*
%TD*%
D11*
%TO.C,U1*%
X123054000Y-152455000D03*
X121784000Y-152455000D03*
X120514000Y-152455000D03*
X119244000Y-152455000D03*
X117974000Y-152455000D03*
X116704000Y-152455000D03*
X115434000Y-152455000D03*
%TD*%
D17*
%TO.C,D1*%
X173474600Y-39489400D03*
X173474600Y-36719400D03*
D18*
X173474600Y-38104400D03*
%TD*%
D23*
%TO.C,FB1*%
X143835700Y-67478400D03*
X142010700Y-67478400D03*
%TD*%
D20*
%TO.C,J2*%
X149019200Y-169850000D03*
D21*
X149019200Y-166750000D03*
%TD*%
D13*
%TO.C,J6*%
X179834800Y-144339200D03*
D14*
X176734800Y-144339200D03*
%TD*%
D20*
%TO.C,J3*%
X114976800Y-169850000D03*
D21*
X114976800Y-166750000D03*
%TD*%
D11*
%TO.C,U1*%
X148054000Y-152455000D03*
X146784000Y-152455000D03*
X145514000Y-152455000D03*
X144244000Y-152455000D03*
X142974000Y-152455000D03*
X141704000Y-152455000D03*
X140434000Y-152455000D03*
%TD*%
D12*
%TO.C,C3*%
X169957000Y-143247000D03*
X167007000Y-143247000D03*
%TD*%
D24*
%TO.C,C5*%
X173435000Y-70308000D03*
X173435000Y-68408000D03*
%TD*%
D15*
%TO.C,J5*%
X147951200Y-34255200D03*
D16*
X151051200Y-34255200D03*
%TD*%
D13*
%TO.C,J4*%
X129809400Y-141469000D03*
D14*
X126709400Y-141469000D03*
%TD*%
D20*
%TO.C,J7*%
X153311800Y-96850000D03*
D21*
X153311800Y-93750000D03*
%TD*%
D17*
%TO.C,D3*%
X173500000Y-128489400D03*
X173500000Y-125719400D03*
D18*
X173500000Y-127104400D03*
%TD*%
D13*
%TO.C,J4*%
X179809400Y-68469000D03*
D14*
X176709400Y-68469000D03*
%TD*%
D17*
%TO.C,D1*%
X148474600Y-112489400D03*
X148474600Y-109719400D03*
D18*
X148474600Y-111104400D03*
%TD*%
D13*
%TO.C,J6*%
X129834800Y-144339200D03*
D14*
X126734800Y-144339200D03*
%TD*%
D20*
%TO.C,J2*%
X124019200Y-169850000D03*
D21*
X124019200Y-166750000D03*
%TD*%
D17*
%TO.C,D1*%
X123474600Y-112489400D03*
X123474600Y-109719400D03*
D18*
X123474600Y-111104400D03*
%TD*%
D24*
%TO.C,C5*%
X173435000Y-143308000D03*
X173435000Y-141408000D03*
%TD*%
D12*
%TO.C,C3*%
X119957000Y-143247000D03*
X117007000Y-143247000D03*
%TD*%
D20*
%TO.C,J8*%
X171326800Y-96850000D03*
D21*
X171326800Y-93750000D03*
%TD*%
D20*
%TO.C,J2*%
X149019200Y-96850000D03*
D21*
X149019200Y-93750000D03*
%TD*%
D13*
%TO.C,J4*%
X179809400Y-141469000D03*
D14*
X176709400Y-141469000D03*
%TD*%
D25*
%TO.C,D5*%
X131944000Y-157090000D03*
X131944000Y-159890000D03*
%TD*%
D24*
%TO.C,C5*%
X123435000Y-143308000D03*
X123435000Y-141408000D03*
%TD*%
%TO.C,C5*%
X123435000Y-70308000D03*
X123435000Y-68408000D03*
%TD*%
D20*
%TO.C,J7*%
X128311800Y-169850000D03*
D21*
X128311800Y-166750000D03*
%TD*%
D20*
%TO.C,J7*%
X153311800Y-169850000D03*
D21*
X153311800Y-166750000D03*
%TD*%
D17*
%TO.C,D3*%
X148500000Y-55489400D03*
X148500000Y-52719400D03*
D18*
X148500000Y-54104400D03*
%TD*%
D13*
%TO.C,J4*%
X154809400Y-141469000D03*
D14*
X151709400Y-141469000D03*
%TD*%
D20*
%TO.C,J1*%
X180928000Y-96850000D03*
D21*
X180928000Y-93750000D03*
%TD*%
D26*
%TO.C,R2*%
X118607000Y-76724000D03*
X119627000Y-76724000D03*
%TD*%
D20*
%TO.C,J1*%
X130928000Y-169850000D03*
D21*
X130928000Y-166750000D03*
%TD*%
D27*
%TO.C,F1*%
X129705800Y-163668600D03*
X132505800Y-163668600D03*
%TD*%
D20*
%TO.C,J2*%
X174019200Y-169850000D03*
D21*
X174019200Y-166750000D03*
%TD*%
D13*
%TO.C,J6*%
X154834800Y-144339200D03*
D14*
X151734800Y-144339200D03*
%TD*%
D12*
%TO.C,C3*%
X144957000Y-70247000D03*
X142007000Y-70247000D03*
%TD*%
D22*
%TO.C,R1*%
X164352500Y-149343000D03*
X167277500Y-149343000D03*
%TD*%
D20*
%TO.C,J8*%
X146326800Y-169850000D03*
D21*
X146326800Y-166750000D03*
%TD*%
D17*
%TO.C,D3*%
X148500000Y-128489400D03*
X148500000Y-125719400D03*
D18*
X148500000Y-127104400D03*
%TD*%
D19*
%TO.C,C1*%
X176584600Y-152340200D03*
X176584600Y-155290200D03*
%TD*%
D11*
%TO.C,U1*%
X148054000Y-79455000D03*
X146784000Y-79455000D03*
X145514000Y-79455000D03*
X144244000Y-79455000D03*
X142974000Y-79455000D03*
X141704000Y-79455000D03*
X140434000Y-79455000D03*
%TD*%
D20*
%TO.C,J1*%
X155928000Y-96850000D03*
D21*
X155928000Y-93750000D03*
%TD*%
D20*
%TO.C,J2*%
X124019200Y-96850000D03*
D21*
X124019200Y-93750000D03*
%TD*%
D20*
%TO.C,J7*%
X178311800Y-96850000D03*
D21*
X178311800Y-93750000D03*
%TD*%
D19*
%TO.C,C1*%
X151584600Y-79340200D03*
X151584600Y-82290200D03*
%TD*%
%TO.C,C2*%
X154912000Y-152313000D03*
X154912000Y-155263000D03*
%TD*%
D15*
%TO.C,J5*%
X172951200Y-107255200D03*
D16*
X176051200Y-107255200D03*
%TD*%
D19*
%TO.C,C1*%
X126584600Y-152340200D03*
X126584600Y-155290200D03*
%TD*%
D20*
%TO.C,J7*%
X128311800Y-96850000D03*
D21*
X128311800Y-93750000D03*
%TD*%
D17*
%TO.C,D2*%
X148474600Y-47489400D03*
X148474600Y-44719400D03*
D18*
X148474600Y-46104400D03*
%TD*%
D20*
%TO.C,J8*%
X121326800Y-169850000D03*
D21*
X121326800Y-166750000D03*
%TD*%
D17*
%TO.C,D2*%
X123474600Y-120489400D03*
X123474600Y-117719400D03*
D18*
X123474600Y-119104400D03*
%TD*%
D17*
%TO.C,D2*%
X148474600Y-120489400D03*
X148474600Y-117719400D03*
D18*
X148474600Y-119104400D03*
%TD*%
D13*
%TO.C,J6*%
X129834800Y-71339200D03*
D14*
X126734800Y-71339200D03*
%TD*%
D12*
%TO.C,C4*%
X144931600Y-146549000D03*
X141981600Y-146549000D03*
%TD*%
D13*
%TO.C,J6*%
X179834800Y-71339200D03*
D14*
X176734800Y-71339200D03*
%TD*%
D23*
%TO.C,FB1*%
X143835700Y-140478400D03*
X142010700Y-140478400D03*
%TD*%
D20*
%TO.C,J8*%
X171326800Y-169850000D03*
D21*
X171326800Y-166750000D03*
%TD*%
D26*
%TO.C,R2*%
X143607000Y-149724000D03*
X144627000Y-149724000D03*
%TD*%
D20*
%TO.C,J1*%
X180928000Y-169850000D03*
D21*
X180928000Y-166750000D03*
%TD*%
D17*
%TO.C,D3*%
X173500000Y-55489400D03*
X173500000Y-52719400D03*
D18*
X173500000Y-54104400D03*
%TD*%
D26*
%TO.C,R2*%
X143607000Y-76724000D03*
X144627000Y-76724000D03*
%TD*%
D27*
%TO.C,F1*%
X129705800Y-90668600D03*
X132505800Y-90668600D03*
%TD*%
D22*
%TO.C,R1*%
X139352500Y-76343000D03*
X142277500Y-76343000D03*
%TD*%
D13*
%TO.C,J6*%
X154834800Y-71339200D03*
D14*
X151734800Y-71339200D03*
%TD*%
D20*
%TO.C,J3*%
X139976800Y-169850000D03*
D21*
X139976800Y-166750000D03*
%TD*%
D12*
%TO.C,C4*%
X169931600Y-73549000D03*
X166981600Y-73549000D03*
%TD*%
%TO.C,C4*%
X144931600Y-73549000D03*
X141981600Y-73549000D03*
%TD*%
D25*
%TO.C,D5*%
X156944000Y-157090000D03*
X156944000Y-159890000D03*
%TD*%
D17*
%TO.C,D3*%
X123500000Y-55489400D03*
X123500000Y-52719400D03*
D18*
X123500000Y-54104400D03*
%TD*%
D12*
%TO.C,C4*%
X119931600Y-146549000D03*
X116981600Y-146549000D03*
%TD*%
D20*
%TO.C,J1*%
X155928000Y-169850000D03*
D21*
X155928000Y-166750000D03*
%TD*%
D17*
%TO.C,D2*%
X173474600Y-120489400D03*
X173474600Y-117719400D03*
D18*
X173474600Y-119104400D03*
%TD*%
D19*
%TO.C,C2*%
X129912000Y-79313000D03*
X129912000Y-82263000D03*
%TD*%
D12*
%TO.C,C4*%
X119931600Y-73549000D03*
X116981600Y-73549000D03*
%TD*%
D20*
%TO.C,J3*%
X164976800Y-169850000D03*
D21*
X164976800Y-166750000D03*
%TD*%
D27*
%TO.C,F1*%
X154705800Y-90668600D03*
X157505800Y-90668600D03*
%TD*%
D19*
%TO.C,C2*%
X179912000Y-79313000D03*
X179912000Y-82263000D03*
%TD*%
D17*
%TO.C,D4*%
X123500000Y-136489400D03*
X123500000Y-133719400D03*
D18*
X123500000Y-135104400D03*
%TD*%
D23*
%TO.C,FB1*%
X118835700Y-67478400D03*
X117010700Y-67478400D03*
%TD*%
D25*
%TO.C,D5*%
X156944000Y-84090000D03*
X156944000Y-86890000D03*
%TD*%
D19*
%TO.C,C1*%
X151584600Y-152340200D03*
X151584600Y-155290200D03*
%TD*%
D20*
%TO.C,J3*%
X139976800Y-96850000D03*
D21*
X139976800Y-93750000D03*
%TD*%
D23*
%TO.C,FB1*%
X168835700Y-67478400D03*
X167010700Y-67478400D03*
%TD*%
D20*
%TO.C,J8*%
X146326800Y-96850000D03*
D21*
X146326800Y-93750000D03*
%TD*%
D11*
%TO.C,U1*%
X173054000Y-152455000D03*
X171784000Y-152455000D03*
X170514000Y-152455000D03*
X169244000Y-152455000D03*
X167974000Y-152455000D03*
X166704000Y-152455000D03*
X165434000Y-152455000D03*
%TD*%
D19*
%TO.C,C1*%
X176584600Y-79340200D03*
X176584600Y-82290200D03*
%TD*%
D20*
%TO.C,J3*%
X164976800Y-96850000D03*
D21*
X164976800Y-93750000D03*
%TD*%
D17*
%TO.C,D4*%
X148500000Y-63489400D03*
X148500000Y-60719400D03*
D18*
X148500000Y-62104400D03*
%TD*%
D12*
%TO.C,C3*%
X144957000Y-143247000D03*
X142007000Y-143247000D03*
%TD*%
D11*
%TO.C,U1*%
X123054000Y-79455000D03*
X121784000Y-79455000D03*
X120514000Y-79455000D03*
X119244000Y-79455000D03*
X117974000Y-79455000D03*
X116704000Y-79455000D03*
X115434000Y-79455000D03*
%TD*%
D25*
%TO.C,D5*%
X131944000Y-84090000D03*
X131944000Y-86890000D03*
%TD*%
D12*
%TO.C,C4*%
X169931600Y-146549000D03*
X166981600Y-146549000D03*
%TD*%
D17*
%TO.C,D1*%
X173474600Y-112489400D03*
X173474600Y-109719400D03*
D18*
X173474600Y-111104400D03*
%TD*%
D27*
%TO.C,F1*%
X179705800Y-163668600D03*
X182505800Y-163668600D03*
%TD*%
D15*
%TO.C,J5*%
X122951200Y-34255200D03*
D16*
X126051200Y-34255200D03*
%TD*%
D26*
%TO.C,R2*%
X118607000Y-149724000D03*
X119627000Y-149724000D03*
%TD*%
D17*
%TO.C,D4*%
X148500000Y-136489400D03*
X148500000Y-133719400D03*
D18*
X148500000Y-135104400D03*
%TD*%
D12*
%TO.C,C3*%
X169957000Y-70247000D03*
X167007000Y-70247000D03*
%TD*%
D17*
%TO.C,D4*%
X123500000Y-63489400D03*
X123500000Y-60719400D03*
D18*
X123500000Y-62104400D03*
%TD*%
D22*
%TO.C,R1*%
X114352500Y-76343000D03*
X117277500Y-76343000D03*
%TD*%
D24*
%TO.C,C5*%
X148435000Y-143308000D03*
X148435000Y-141408000D03*
%TD*%
%TO.C,C5*%
X148435000Y-70308000D03*
X148435000Y-68408000D03*
%TD*%
D25*
%TO.C,D5*%
X181944000Y-157090000D03*
X181944000Y-159890000D03*
%TD*%
D20*
%TO.C,J3*%
X114976800Y-96850000D03*
D21*
X114976800Y-93750000D03*
%TD*%
D19*
%TO.C,C2*%
X179912000Y-152313000D03*
X179912000Y-155263000D03*
%TD*%
D25*
%TO.C,D5*%
X181944000Y-84090000D03*
X181944000Y-86890000D03*
%TD*%
D22*
%TO.C,R1*%
X139352500Y-149343000D03*
X142277500Y-149343000D03*
%TD*%
D23*
%TO.C,FB1*%
X118835700Y-140478400D03*
X117010700Y-140478400D03*
%TD*%
D27*
%TO.C,F1*%
X154705800Y-163668600D03*
X157505800Y-163668600D03*
%TD*%
D22*
%TO.C,R1*%
X114352500Y-149343000D03*
X117277500Y-149343000D03*
%TD*%
D20*
%TO.C,J8*%
X121326800Y-96850000D03*
D21*
X121326800Y-93750000D03*
%TD*%
D26*
%TO.C,R2*%
X168607000Y-149724000D03*
X169627000Y-149724000D03*
%TD*%
D19*
%TO.C,C1*%
X126584600Y-79340200D03*
X126584600Y-82290200D03*
%TD*%
D27*
%TO.C,F1*%
X179705800Y-90668600D03*
X182505800Y-90668600D03*
%TD*%
D15*
%TO.C,J5*%
X147951200Y-107255200D03*
D16*
X151051200Y-107255200D03*
%TD*%
D17*
%TO.C,D1*%
X148474600Y-39489400D03*
X148474600Y-36719400D03*
D18*
X148474600Y-38104400D03*
%TD*%
D20*
%TO.C,J7*%
X178311800Y-169850000D03*
D21*
X178311800Y-166750000D03*
%TD*%
D17*
%TO.C,D2*%
X173474600Y-47489400D03*
X173474600Y-44719400D03*
D18*
X173474600Y-46104400D03*
%TD*%
D26*
%TO.C,R2*%
X168607000Y-76724000D03*
X169627000Y-76724000D03*
%TD*%
M02*
