%TF.GenerationSoftware,KiCad,Pcbnew,7.0.8-7.0.8~ubuntu22.04.1*%
%TF.CreationDate,2023-12-07T10:59:45+01:00*%
%TF.ProjectId,mothbeam_panel,6d6f7468-6265-4616-9d5f-70616e656c2e,rev?*%
%TF.SameCoordinates,Original*%
%TF.FileFunction,Profile,NP*%
%FSLAX46Y46*%
G04 Gerber Fmt 4.6, Leading zero omitted, Abs format (unit mm)*
G04 Created by KiCad (PCBNEW 7.0.8-7.0.8~ubuntu22.04.1) date 2023-12-07 10:59:45*
%MOMM*%
%LPD*%
G01*
G04 APERTURE LIST*
%TA.AperFunction,Profile*%
%ADD10C,0.100000*%
%TD*%
G04 APERTURE END LIST*
D10*
X162512272Y-102000000D02*
X162512027Y-102000003D01*
X150439987Y-26166847D02*
X150481039Y-26140851D01*
X125566721Y-101904946D02*
X125523318Y-101883099D01*
X125844737Y-174989281D02*
X125796861Y-174980974D01*
X146970328Y-174250549D02*
X146957368Y-174297380D01*
X159557874Y-146510186D02*
X159542631Y-146464047D01*
X137500129Y-98991169D02*
X137500201Y-98991655D01*
X135249450Y-50803661D02*
X135202619Y-50790701D01*
X134756460Y-127158491D02*
X134789966Y-127123299D01*
X112502170Y-20003902D02*
X112501878Y-20004296D01*
X184493997Y-102000912D02*
X184493544Y-102000724D01*
X137506455Y-171999275D02*
X137506917Y-171999440D01*
X112500416Y-180992612D02*
X112500559Y-180993082D01*
X125019025Y-26796861D02*
X125029671Y-26749450D01*
X150166847Y-28560012D02*
X150140851Y-28518960D01*
X121805173Y-101599740D02*
X121775278Y-101638047D01*
X137275278Y-123471380D02*
X137243539Y-123508174D01*
X159616900Y-123310014D02*
X159595053Y-123266611D01*
X159519025Y-146369805D02*
X159510718Y-146321929D01*
X112504704Y-20001605D02*
X112504296Y-20001878D01*
X175400259Y-28805173D02*
X175361952Y-28775278D01*
X160344737Y-74155948D02*
X160296861Y-74147641D01*
X136843519Y-53891207D02*
X136888855Y-53908695D01*
X137500912Y-29006002D02*
X137500724Y-29006455D01*
X112506917Y-20000559D02*
X112506455Y-20000724D01*
X159498646Y-29005125D02*
X159498394Y-29004704D01*
X146970328Y-28250549D02*
X146957368Y-28297380D01*
X134496477Y-29002482D02*
X134496097Y-29002170D01*
X161509877Y-74166666D02*
X160490122Y-74166666D01*
X137060012Y-77333514D02*
X137099740Y-77361493D01*
X162333152Y-54273320D02*
X162359148Y-54314373D01*
X175004770Y-172892963D02*
X175010718Y-172844737D01*
X159640851Y-146685626D02*
X159616900Y-146643348D01*
X162500000Y-127823456D02*
X162500000Y-146176543D01*
X159501195Y-73225243D02*
X159500000Y-73176543D01*
X159529671Y-50083882D02*
X159519025Y-50036472D01*
X134494874Y-171998646D02*
X134495295Y-171998394D01*
X125481039Y-99140851D02*
X125523318Y-99116900D01*
X146924637Y-99611144D02*
X146942125Y-99656480D01*
X161976681Y-147049766D02*
X161933278Y-147071613D01*
X136607036Y-77171436D02*
X136655262Y-77177384D01*
X150844737Y-26010718D02*
X150892963Y-26004770D01*
X159499870Y-171991169D02*
X159499918Y-171990681D01*
X135490122Y-126833333D02*
X136509877Y-126833333D01*
X162506455Y-102000724D02*
X162506002Y-102000912D01*
X171107036Y-172004770D02*
X171155262Y-172010718D01*
X146980974Y-28203138D02*
X146970328Y-28250549D01*
X175075362Y-99611144D02*
X175095053Y-99566721D01*
X137138047Y-77391388D02*
X137174841Y-77423127D01*
X121989281Y-101155262D02*
X121980974Y-101203138D01*
X175057874Y-28343519D02*
X175042631Y-28297380D01*
X150042631Y-99702619D02*
X150057874Y-99656480D01*
X112500003Y-102012027D02*
X112500000Y-102012272D01*
X112500416Y-98992612D02*
X112500559Y-98993082D01*
X112502170Y-180996097D02*
X112502482Y-180996477D01*
X159510718Y-122988596D02*
X159504770Y-122940370D01*
X159487727Y-29000000D02*
X150990122Y-29000000D01*
X159575362Y-73555522D02*
X159557874Y-73510186D01*
X125439987Y-28833152D02*
X125400259Y-28805173D01*
X175796861Y-172019025D02*
X175844737Y-172010718D01*
X162480974Y-54630194D02*
X162489281Y-54678070D01*
X134981039Y-53974184D02*
X135023318Y-53950233D01*
X171009877Y-29000000D02*
X162512272Y-29000000D01*
X171859148Y-28518960D02*
X171833152Y-28560012D01*
X125361952Y-174775278D02*
X125325158Y-174743539D01*
X112512272Y-26000000D02*
X121009877Y-26000000D01*
X112508344Y-175000201D02*
X112507863Y-175000297D01*
X137210033Y-73876700D02*
X137174841Y-73910206D01*
X135441423Y-74165471D02*
X135392963Y-74161896D01*
X171674841Y-26256460D02*
X171710033Y-26289966D01*
X160156480Y-53891207D02*
X160202619Y-53875965D01*
X112503902Y-180997829D02*
X112504296Y-180998121D01*
X171970328Y-101250549D02*
X171957368Y-101297380D01*
X125004770Y-174107036D02*
X125001195Y-174058576D01*
X134939987Y-77333514D02*
X134981039Y-77307517D01*
X137500912Y-98993997D02*
X137501122Y-98994441D01*
X161797380Y-74124034D02*
X161750549Y-74136994D01*
X121433278Y-174904946D02*
X121388855Y-174924637D01*
X184499996Y-98987972D02*
X184500000Y-98987727D01*
X121518960Y-26140851D02*
X121560012Y-26166847D01*
X134492612Y-102000416D02*
X134492136Y-102000297D01*
X159789966Y-50543366D02*
X159756460Y-50508174D01*
X137495229Y-49940370D02*
X137489281Y-49988596D01*
X150140851Y-101518960D02*
X150116900Y-101476681D01*
X137500003Y-102012027D02*
X137500000Y-102012272D01*
X175075362Y-28388855D02*
X175057874Y-28343519D01*
X184493997Y-20000912D02*
X184493544Y-20000724D01*
X112506455Y-25999275D02*
X112506917Y-25999440D01*
X121674841Y-28743539D02*
X121638047Y-28775278D01*
X134499996Y-102012027D02*
X134499942Y-102009809D01*
X162501878Y-102004296D02*
X162501605Y-102004704D01*
X134519025Y-73369805D02*
X134510718Y-73321929D01*
X160344737Y-50822615D02*
X160296861Y-50814307D01*
X184500000Y-20012272D02*
X184499996Y-20012027D01*
X112503522Y-175002482D02*
X112503159Y-175002811D01*
X112502170Y-171996097D02*
X112502482Y-171996477D01*
X184487727Y-181000000D02*
X184487972Y-180999996D01*
X159981039Y-50692482D02*
X159939987Y-50666485D01*
X150523318Y-172116900D02*
X150566721Y-172095053D01*
X171518960Y-26140851D02*
X171560012Y-26166847D01*
X160490122Y-150166666D02*
X161509877Y-150166666D01*
X161607036Y-150171436D02*
X161655262Y-150177384D01*
X162500081Y-29009318D02*
X162500057Y-29009809D01*
X125702619Y-99042631D02*
X125749450Y-99029671D01*
X150361952Y-101775278D02*
X150325158Y-101743539D01*
X121560012Y-174833152D02*
X121518960Y-174859148D01*
X134694826Y-123433073D02*
X134666847Y-123393346D01*
X134495703Y-171998121D02*
X134496097Y-171997829D01*
X112506455Y-180999275D02*
X112506917Y-180999440D01*
X146560012Y-26166847D02*
X146599740Y-26194826D01*
X125001195Y-99941423D02*
X125004770Y-99892963D01*
X159500000Y-151156789D02*
X159501195Y-151108089D01*
X112500559Y-180993082D02*
X112500724Y-180993544D01*
X146710033Y-26289966D02*
X146743539Y-26325158D01*
X162457368Y-50130714D02*
X162442125Y-50176853D01*
X112501122Y-175005558D02*
X112500912Y-175006002D01*
X175325158Y-99256460D02*
X175361952Y-99224721D01*
X134498394Y-102004704D02*
X134498121Y-102004296D01*
X146924637Y-101388855D02*
X146904946Y-101433278D01*
X159499275Y-171993544D02*
X159499440Y-171993082D01*
X136558576Y-150167862D02*
X136607036Y-150171436D01*
X134756460Y-50508174D02*
X134724721Y-50471380D01*
X162018960Y-147025815D02*
X161976681Y-147049766D01*
X159666847Y-150606653D02*
X159694826Y-150566926D01*
X137500057Y-29009809D02*
X137500003Y-29012027D01*
X150057874Y-101343519D02*
X150042631Y-101297380D01*
X162060012Y-54000180D02*
X162099740Y-54028160D01*
X121710033Y-99289966D02*
X121743539Y-99325158D01*
X134694826Y-127233592D02*
X134724721Y-127195285D01*
X150325158Y-99256460D02*
X150361952Y-99224721D01*
X125523318Y-26116900D02*
X125566721Y-26095053D01*
X125224721Y-28638047D02*
X125194826Y-28599740D01*
X135249450Y-147136994D02*
X135202619Y-147124034D01*
X171250549Y-99029671D02*
X171297380Y-99042631D01*
X162501605Y-171995295D02*
X162501878Y-171995703D01*
X184492136Y-29000297D02*
X184491655Y-29000201D01*
X121970328Y-174250549D02*
X121957368Y-174297380D01*
X159542631Y-54535952D02*
X159557874Y-54489813D01*
X175010718Y-174155262D02*
X175004770Y-174107036D01*
X184498646Y-171994874D02*
X184498877Y-171994441D01*
X137404946Y-127400055D02*
X137424637Y-127444477D01*
X112512027Y-98999996D02*
X112512272Y-99000000D01*
X134694826Y-146766407D02*
X134666847Y-146726679D01*
X184491169Y-20000129D02*
X184490681Y-20000081D01*
X171775278Y-26361952D02*
X171805173Y-26400259D01*
X162424637Y-127444477D02*
X162442125Y-127489813D01*
X184492612Y-102000416D02*
X184492136Y-102000297D01*
X121989281Y-26844737D02*
X121995229Y-26892963D01*
X175029671Y-28250549D02*
X175019025Y-28203138D01*
X159595053Y-150733388D02*
X159616900Y-150689985D01*
X137503159Y-102002811D02*
X137502811Y-102003159D01*
X137305173Y-54233592D02*
X137333152Y-54273320D01*
X134724721Y-123471380D02*
X134694826Y-123433073D01*
X171674841Y-174743539D02*
X171638047Y-174775278D01*
X137500416Y-102007387D02*
X137500297Y-102007863D01*
X159498877Y-102005558D02*
X159498646Y-102005125D01*
X184492612Y-175000416D02*
X184492136Y-175000297D01*
X171980974Y-101203138D02*
X171970328Y-101250549D01*
X184490190Y-29000057D02*
X184487972Y-29000003D01*
X134666847Y-77606653D02*
X134694826Y-77566926D01*
X171805173Y-174599740D02*
X171775278Y-174638047D01*
X121924637Y-172611144D02*
X121942125Y-172656480D01*
X136750549Y-74136994D02*
X136703138Y-74147641D01*
X184499798Y-102008344D02*
X184499702Y-102007863D01*
X134616900Y-77689985D02*
X134640851Y-77647706D01*
X134519025Y-146369805D02*
X134510718Y-146321929D01*
X159789966Y-54123299D02*
X159825158Y-54089793D01*
X175116900Y-101476681D02*
X175095053Y-101433278D01*
X112508830Y-20000129D02*
X112508344Y-20000201D01*
X112504296Y-25998121D02*
X112504704Y-25998394D01*
X121297380Y-101957368D02*
X121250549Y-101970328D01*
X134495295Y-98998394D02*
X134495703Y-98998121D01*
X136655262Y-147155948D02*
X136607036Y-147161896D01*
X134504770Y-146273703D02*
X134501195Y-146225243D01*
X184490681Y-25999918D02*
X184491169Y-25999870D01*
X162500000Y-171987727D02*
X162500003Y-171987972D01*
X125166847Y-172439987D02*
X125194826Y-172400259D01*
X159529671Y-73417216D02*
X159519025Y-73369805D01*
X134557874Y-123176853D02*
X134542631Y-123130714D01*
X159499918Y-29009318D02*
X159499870Y-29008830D01*
X112501122Y-20005558D02*
X112500912Y-20006002D01*
X125361952Y-172224721D02*
X125400259Y-172194826D01*
X112506455Y-98999275D02*
X112506917Y-98999440D01*
X136655262Y-50822615D02*
X136607036Y-50828563D01*
X162500129Y-102008830D02*
X162500081Y-102009318D01*
X146674841Y-28743539D02*
X146638047Y-28775278D01*
X184491169Y-98999870D02*
X184491655Y-98999798D01*
X134498646Y-171994874D02*
X134498877Y-171994441D01*
X159575362Y-54444477D02*
X159595053Y-54400055D01*
X184490681Y-102000081D02*
X184490190Y-102000057D01*
X121518960Y-101859148D02*
X121476681Y-101883099D01*
X112500201Y-20008344D02*
X112500129Y-20008830D01*
X159500000Y-78156789D02*
X159501195Y-78108089D01*
X134500000Y-146176543D02*
X134500000Y-127823456D01*
X125656480Y-172057874D02*
X125702619Y-172042631D01*
X175325158Y-174743539D02*
X175289966Y-174710033D01*
X112500201Y-25991655D02*
X112500297Y-25992136D01*
X112507387Y-29000416D02*
X112506917Y-29000559D01*
X137457368Y-77869285D02*
X137470328Y-77916117D01*
X134492612Y-98999583D02*
X134493082Y-98999440D01*
X171904946Y-172566721D02*
X171924637Y-172611144D01*
X134981039Y-123692482D02*
X134939987Y-123666485D01*
X160066721Y-123738280D02*
X160023318Y-123716432D01*
X137489281Y-146321929D02*
X137480974Y-146369805D01*
X137480974Y-50036472D02*
X137470328Y-50083882D01*
X161797380Y-123790701D02*
X161750549Y-123803661D01*
X146433278Y-174904946D02*
X146388855Y-174924637D01*
X137502811Y-29003159D02*
X137502482Y-29003522D01*
X150611144Y-28924637D02*
X150566721Y-28904946D01*
X134640851Y-77647706D02*
X134666847Y-77606653D01*
X150042631Y-174297380D02*
X150029671Y-174250549D01*
X137500000Y-73176543D02*
X137498804Y-73225243D01*
X137500057Y-98990190D02*
X137500081Y-98990681D01*
X146743539Y-28674841D02*
X146710033Y-28710033D01*
X112509318Y-180999918D02*
X112509809Y-180999942D01*
X162501878Y-171995703D02*
X162502170Y-171996097D01*
X134789966Y-150456633D02*
X134825158Y-150423127D01*
X159498121Y-29004296D02*
X159497829Y-29003902D01*
X184499440Y-20006917D02*
X184499275Y-20006455D01*
X184496840Y-20002811D02*
X184496477Y-20002482D01*
X150029671Y-172749450D02*
X150042631Y-172702619D01*
X112501353Y-171994874D02*
X112501605Y-171995295D01*
X121107036Y-99004770D02*
X121155262Y-99010718D01*
X150325158Y-172256460D02*
X150361952Y-172224721D01*
X137442125Y-50176853D02*
X137424637Y-50222188D01*
X162275278Y-73804714D02*
X162243539Y-73841508D01*
X171805173Y-101599740D02*
X171775278Y-101638047D01*
X150749450Y-172029671D02*
X150796861Y-172019025D01*
X137442125Y-127489813D02*
X137457368Y-127535952D01*
X125439987Y-26166847D02*
X125481039Y-26140851D01*
X162305173Y-73766407D02*
X162275278Y-73804714D01*
X112500000Y-102012272D02*
X112500000Y-171987727D01*
X162500912Y-102006002D02*
X162500724Y-102006455D01*
X134981039Y-150307517D02*
X135023318Y-150283567D01*
X146924637Y-26611144D02*
X146942125Y-26656480D01*
X171638047Y-99224721D02*
X171674841Y-99256460D01*
X159981039Y-147025815D02*
X159939987Y-146999819D01*
X184498877Y-171994441D02*
X184499087Y-171993997D01*
X121388855Y-28924637D02*
X121343519Y-28942125D01*
X175000000Y-99990122D02*
X175001195Y-99941423D01*
X121638047Y-172224721D02*
X121674841Y-172256460D01*
X159498646Y-98994874D02*
X159498877Y-98994441D01*
X112500057Y-25990190D02*
X112500081Y-25990681D01*
X160296861Y-74147641D02*
X160249450Y-74136994D01*
X112500000Y-29012272D02*
X112500000Y-98987727D01*
X112507387Y-102000416D02*
X112506917Y-102000559D01*
X175095053Y-99566721D02*
X175116900Y-99523318D01*
X184496097Y-29002170D02*
X184495703Y-29001878D01*
X175042631Y-174297380D02*
X175029671Y-174250549D01*
X121674841Y-101743539D02*
X121638047Y-101775278D01*
X146833152Y-28560012D02*
X146805173Y-28599740D01*
X184499870Y-171991169D02*
X184499918Y-171990681D01*
X171805173Y-26400259D02*
X171833152Y-26439987D01*
X137457368Y-73464047D02*
X137442125Y-73510186D01*
X134666847Y-150606653D02*
X134694826Y-150566926D01*
X171674841Y-28743539D02*
X171638047Y-28775278D01*
X159499798Y-98991655D02*
X159499870Y-98991169D01*
X121883099Y-101476681D02*
X121859148Y-101518960D01*
X184494441Y-180998877D02*
X184494874Y-180998646D01*
X146998804Y-99941423D02*
X147000000Y-99990122D01*
X137243539Y-77491825D02*
X137275278Y-77528619D01*
X184498646Y-175005125D02*
X184498394Y-175004704D01*
X112508830Y-171999870D02*
X112509318Y-171999918D01*
X184498877Y-20005558D02*
X184498646Y-20005125D01*
X125095053Y-99566721D02*
X125116900Y-99523318D01*
X162210033Y-146876700D02*
X162174841Y-146910206D01*
X150566721Y-101904946D02*
X150523318Y-101883099D01*
X146250549Y-174970328D02*
X146203138Y-174980974D01*
X184499918Y-20009318D02*
X184499870Y-20008830D01*
X112506002Y-180999087D02*
X112506455Y-180999275D01*
X146989281Y-28155262D02*
X146980974Y-28203138D01*
X184499702Y-102007863D02*
X184499583Y-102007387D01*
X159825158Y-73910206D02*
X159789966Y-73876700D01*
X134519025Y-123036472D02*
X134510718Y-122988596D01*
X112501353Y-180994874D02*
X112501605Y-180995295D01*
X159666847Y-123393346D02*
X159640851Y-123352293D01*
X112509809Y-175000057D02*
X112509318Y-175000081D01*
X175029671Y-172749450D02*
X175042631Y-172702619D01*
X172000000Y-101009877D02*
X171998804Y-101058576D01*
X184497188Y-180996840D02*
X184497517Y-180996477D01*
X137333152Y-50393346D02*
X137305173Y-50433073D01*
X171009877Y-26000000D02*
X171058576Y-26001195D01*
X134640851Y-73685626D02*
X134616900Y-73643348D01*
X184493544Y-20000724D02*
X184493082Y-20000559D01*
X146775278Y-28638047D02*
X146743539Y-28674841D01*
X112500000Y-25987727D02*
X112500003Y-25987972D01*
X159724721Y-50471380D02*
X159694826Y-50433073D01*
X125194826Y-26400259D02*
X125224721Y-26361952D01*
X125796861Y-101980974D02*
X125749450Y-101970328D01*
X160441423Y-147165471D02*
X160392963Y-147161896D01*
X134496097Y-102002170D02*
X134495703Y-102001878D01*
X159495703Y-29001878D02*
X159495295Y-29001605D01*
X161607036Y-74161896D02*
X161558576Y-74165471D01*
X171710033Y-101710033D02*
X171674841Y-101743539D01*
X150941423Y-26001195D02*
X150990122Y-26000000D01*
X125256460Y-174674841D02*
X125224721Y-174638047D01*
X184496097Y-171997829D02*
X184496477Y-171997517D01*
X146343519Y-101942125D02*
X146297380Y-101957368D01*
X175656480Y-172057874D02*
X175702619Y-172042631D01*
X175256460Y-26325158D02*
X175289966Y-26289966D01*
X125481039Y-101859148D02*
X125439987Y-101833152D01*
X137500559Y-102006917D02*
X137500416Y-102007387D01*
X137305173Y-146766407D02*
X137275278Y-146804714D01*
X125042631Y-28297380D02*
X125029671Y-28250549D01*
X160490122Y-147166666D02*
X160441423Y-147165471D01*
X134493544Y-171999275D02*
X134493997Y-171999087D01*
X184496840Y-180997188D02*
X184497188Y-180996840D01*
X162457368Y-146464047D02*
X162442125Y-146510186D01*
X146638047Y-28775278D02*
X146599740Y-28805173D01*
X121250549Y-172029671D02*
X121297380Y-172042631D01*
X137424637Y-146555522D02*
X137404946Y-146599944D01*
X112502482Y-175003522D02*
X112502170Y-175003902D01*
X134724721Y-150528619D02*
X134756460Y-150491825D01*
X125566721Y-174904946D02*
X125523318Y-174883099D01*
X137501878Y-171995703D02*
X137502170Y-171996097D01*
X137500000Y-127823456D02*
X137500000Y-146176543D01*
X175194826Y-101599740D02*
X175166847Y-101560012D01*
X146203138Y-174980974D02*
X146155262Y-174989281D01*
X184498121Y-180995703D02*
X184498394Y-180995295D01*
X134499870Y-102008830D02*
X134499798Y-102008344D01*
X150439987Y-99166847D02*
X150481039Y-99140851D01*
X136509877Y-123833333D02*
X135490122Y-123833333D01*
X150166847Y-101560012D02*
X150140851Y-101518960D01*
X112500559Y-25993082D02*
X112500724Y-25993544D01*
X112502811Y-25996840D02*
X112503159Y-25997188D01*
X125990122Y-29000000D02*
X125941423Y-28998804D01*
X160202619Y-126875965D02*
X160249450Y-126863005D01*
X134575362Y-123222188D02*
X134557874Y-123176853D01*
X134498394Y-171995295D02*
X134498646Y-171994874D01*
X159640851Y-54314373D02*
X159666847Y-54273320D01*
X184499702Y-25992136D02*
X184499798Y-25991655D01*
X175523318Y-99116900D02*
X175566721Y-99095053D01*
X137503159Y-171997188D02*
X137503522Y-171997517D01*
X150116900Y-99523318D02*
X150140851Y-99481039D01*
X134487972Y-29000003D02*
X134487727Y-29000000D01*
X125256460Y-101674841D02*
X125224721Y-101638047D01*
X175042631Y-99702619D02*
X175057874Y-99656480D01*
X162501122Y-171994441D02*
X162501353Y-171994874D01*
X159861952Y-50608611D02*
X159825158Y-50576872D01*
X184495703Y-25998121D02*
X184496097Y-25997829D01*
X184498394Y-180995295D02*
X184498646Y-180994874D01*
X137099740Y-73971839D02*
X137060012Y-73999819D01*
X112507387Y-175000416D02*
X112506917Y-175000559D01*
X121957368Y-101297380D02*
X121942125Y-101343519D01*
X162099740Y-146971839D02*
X162060012Y-146999819D01*
X171674841Y-172256460D02*
X171710033Y-172289966D01*
X147000000Y-28009877D02*
X146998804Y-28058576D01*
X184496477Y-29002482D02*
X184496097Y-29002170D01*
X184492612Y-98999583D02*
X184493082Y-98999440D01*
X184493082Y-98999440D02*
X184493544Y-98999275D01*
X112500057Y-180990190D02*
X112500081Y-180990681D01*
X184499798Y-180991655D02*
X184499870Y-180991169D01*
X162470328Y-127582783D02*
X162480974Y-127630194D01*
X134498121Y-171995703D02*
X134498394Y-171995295D01*
X146775278Y-174638047D02*
X146743539Y-174674841D01*
X159825158Y-146910206D02*
X159789966Y-146876700D01*
X162210033Y-123543366D02*
X162174841Y-123576872D01*
X125075362Y-99611144D02*
X125095053Y-99566721D01*
X146833152Y-99439987D02*
X146859148Y-99481039D01*
X112507863Y-180999702D02*
X112508344Y-180999798D01*
X171805173Y-172400259D02*
X171833152Y-172439987D01*
X125116900Y-28476681D02*
X125095053Y-28433278D01*
X175140851Y-99481039D02*
X175166847Y-99439987D01*
X175019025Y-101203138D02*
X175010718Y-101155262D01*
X161509877Y-147166666D02*
X160490122Y-147166666D01*
X184499942Y-20009809D02*
X184499918Y-20009318D01*
X112505558Y-25998877D02*
X112506002Y-25999087D01*
X162210033Y-54123299D02*
X162243539Y-54158491D01*
X135111144Y-53908695D02*
X135156480Y-53891207D01*
X171107036Y-28995229D02*
X171058576Y-28998804D01*
X159519025Y-150963527D02*
X159529671Y-150916117D01*
X112500057Y-20009809D02*
X112500003Y-20012027D01*
X159499583Y-171992612D02*
X159499702Y-171992136D01*
X184496097Y-175002170D02*
X184495703Y-175001878D01*
X134498394Y-29004704D02*
X134498121Y-29004296D01*
X125796861Y-26019025D02*
X125844737Y-26010718D01*
X146904946Y-26566721D02*
X146924637Y-26611144D01*
X162506917Y-171999440D02*
X162507387Y-171999583D01*
X125224721Y-101638047D02*
X125194826Y-101599740D01*
X160344737Y-126844051D02*
X160392963Y-126838103D01*
X125224721Y-172361952D02*
X125256460Y-172325158D01*
X135023318Y-147049766D02*
X134981039Y-147025815D01*
X159557874Y-73510186D02*
X159542631Y-73464047D01*
X184496097Y-180997829D02*
X184496477Y-180997517D01*
X175224721Y-26361952D02*
X175256460Y-26325158D01*
X121638047Y-28775278D02*
X121599740Y-28805173D01*
X162504704Y-29001605D02*
X162504296Y-29001878D01*
X134499870Y-29008830D02*
X134499798Y-29008344D01*
X184499918Y-29009318D02*
X184499870Y-29008830D01*
X121883099Y-26523318D02*
X121904946Y-26566721D01*
X137509809Y-98999942D02*
X137512027Y-98999996D01*
X184499583Y-25992612D02*
X184499702Y-25992136D01*
X175289966Y-174710033D02*
X175256460Y-174674841D01*
X112500129Y-29008830D02*
X112500081Y-29009318D01*
X137505125Y-29001353D02*
X137504704Y-29001605D01*
X112506917Y-25999440D02*
X112507387Y-25999583D01*
X184493997Y-171999087D02*
X184494441Y-171998877D01*
X125361952Y-99224721D02*
X125400259Y-99194826D01*
X146107036Y-101995229D02*
X146058576Y-101998804D01*
X159491169Y-98999870D02*
X159491655Y-98999798D01*
X184497517Y-25996477D02*
X184497829Y-25996097D01*
X134510718Y-151011403D02*
X134519025Y-150963527D01*
X159501195Y-122891910D02*
X159500000Y-122843210D01*
X175990122Y-172000000D02*
X184487727Y-172000000D01*
X112504296Y-175001878D02*
X112503902Y-175002170D01*
X171203138Y-26019025D02*
X171250549Y-26029671D01*
X146250549Y-172029671D02*
X146297380Y-172042631D01*
X125656480Y-99057874D02*
X125702619Y-99042631D01*
X175523318Y-28883099D02*
X175481039Y-28859148D01*
X112503902Y-20002170D02*
X112503522Y-20002482D01*
X184498394Y-175004704D02*
X184498121Y-175004296D01*
X147000000Y-99990122D02*
X147000000Y-101009877D01*
X159640851Y-77647706D02*
X159666847Y-77606653D01*
X134519025Y-150963527D02*
X134529671Y-150916117D01*
X137502811Y-171996840D02*
X137503159Y-171997188D01*
X162333152Y-50393346D02*
X162305173Y-50433073D01*
X160296861Y-53852358D02*
X160344737Y-53844051D01*
X162480974Y-77963527D02*
X162489281Y-78011403D01*
X184496840Y-175002811D02*
X184496477Y-175002482D01*
X121343519Y-26057874D02*
X121388855Y-26075362D01*
X112512027Y-29000003D02*
X112509809Y-29000057D01*
X160066721Y-147071613D02*
X160023318Y-147049766D01*
X175140851Y-101518960D02*
X175116900Y-101476681D01*
X184498394Y-102004704D02*
X184498121Y-102004296D01*
X134557874Y-73510186D02*
X134542631Y-73464047D01*
X134694826Y-150566926D02*
X134724721Y-150528619D01*
X184498877Y-175005558D02*
X184498646Y-175005125D01*
X137480974Y-73369805D02*
X137470328Y-73417216D01*
X161703138Y-126852358D02*
X161750549Y-126863005D01*
X159500000Y-146176543D02*
X159500000Y-127823456D01*
X137275278Y-127195285D02*
X137305173Y-127233592D01*
X121155262Y-99010718D02*
X121203138Y-99019025D01*
X160023318Y-147049766D02*
X159981039Y-147025815D01*
X146297380Y-172042631D02*
X146343519Y-172057874D01*
X146989281Y-26844737D02*
X146995229Y-26892963D01*
X146433278Y-26095053D02*
X146476681Y-26116900D01*
X137404946Y-123266611D02*
X137383099Y-123310014D01*
X159491655Y-98999798D02*
X159492136Y-98999702D01*
X112505558Y-180998877D02*
X112506002Y-180999087D01*
X134495703Y-98998121D02*
X134496097Y-98997829D01*
X137505558Y-171998877D02*
X137506002Y-171999087D01*
X136607036Y-147161896D02*
X136558576Y-147165471D01*
X137501878Y-29004296D02*
X137501605Y-29004704D01*
X112500003Y-25987972D02*
X112500057Y-25990190D01*
X134494441Y-98998877D02*
X134494874Y-98998646D01*
X146904946Y-174433278D02*
X146883099Y-174476681D01*
X121599740Y-28805173D02*
X121560012Y-28833152D01*
X125523318Y-28883099D02*
X125481039Y-28859148D01*
X146995229Y-99892963D02*
X146998804Y-99941423D01*
X134666847Y-54273320D02*
X134694826Y-54233592D01*
X125656480Y-101942125D02*
X125611144Y-101924637D01*
X150796861Y-174980974D02*
X150749450Y-174970328D01*
X125289966Y-172289966D02*
X125325158Y-172256460D01*
X175990122Y-175000000D02*
X175941423Y-174998804D01*
X159492136Y-171999702D02*
X159492612Y-171999583D01*
X184499275Y-180993544D02*
X184499440Y-180993082D01*
X175892963Y-99004770D02*
X175941423Y-99001195D01*
X134499942Y-98990190D02*
X134499996Y-98987972D01*
X184491655Y-29000201D02*
X184491169Y-29000129D01*
X159499087Y-102006002D02*
X159498877Y-102005558D01*
X159789966Y-146876700D02*
X159756460Y-146841508D01*
X112503159Y-171997188D02*
X112503522Y-171997517D01*
X184500000Y-171987727D02*
X184500000Y-102012272D01*
X184496097Y-20002170D02*
X184495703Y-20001878D01*
X137243539Y-54158491D02*
X137275278Y-54195285D01*
X184499996Y-25987972D02*
X184500000Y-25987727D01*
X171859148Y-26481039D02*
X171883099Y-26523318D01*
X125166847Y-99439987D02*
X125194826Y-99400259D01*
X112508344Y-171999798D02*
X112508830Y-171999870D01*
X150001195Y-28058576D02*
X150000000Y-28009877D01*
X162500003Y-29012027D02*
X162500000Y-29012272D01*
X150702619Y-26042631D02*
X150749450Y-26029671D01*
X136750549Y-126863005D02*
X136797380Y-126875965D01*
X134595053Y-54400055D02*
X134616900Y-54356651D01*
X137501605Y-29004704D02*
X137501353Y-29005125D01*
X134500000Y-102012272D02*
X134499996Y-102012027D01*
X134900259Y-150361493D02*
X134939987Y-150333514D01*
X171924637Y-101388855D02*
X171904946Y-101433278D01*
X184487727Y-102000000D02*
X175990122Y-102000000D01*
X134789966Y-127123299D02*
X134825158Y-127089793D01*
X162495229Y-127726296D02*
X162498804Y-127774756D01*
X134494874Y-98998646D02*
X134495295Y-98998394D01*
X162512272Y-172000000D02*
X171009877Y-172000000D01*
X121883099Y-99523318D02*
X121904946Y-99566721D01*
X134496477Y-102002482D02*
X134496097Y-102002170D01*
X134498121Y-98995703D02*
X134498394Y-98995295D01*
X159900259Y-150361493D02*
X159939987Y-150333514D01*
X159504770Y-54726296D02*
X159510718Y-54678070D01*
X125194826Y-172400259D02*
X125224721Y-172361952D01*
X161558576Y-77167862D02*
X161607036Y-77171436D01*
X134498877Y-171994441D02*
X134499087Y-171993997D01*
X125001195Y-101058576D02*
X125000000Y-101009877D01*
X146833152Y-172439987D02*
X146859148Y-172481039D01*
X146710033Y-99289966D02*
X146743539Y-99325158D01*
X175844737Y-28989281D02*
X175796861Y-28980974D01*
X121560012Y-28833152D02*
X121518960Y-28859148D01*
X136976681Y-53950233D02*
X137018960Y-53974184D01*
X137512027Y-171999996D02*
X137512272Y-172000000D01*
X137503902Y-102002170D02*
X137503522Y-102002482D01*
X135296861Y-123814307D02*
X135249450Y-123803661D01*
X159493082Y-98999440D02*
X159493544Y-98999275D01*
X121710033Y-101710033D02*
X121674841Y-101743539D01*
X162503159Y-102002811D02*
X162502811Y-102003159D01*
X159499942Y-102009809D02*
X159499918Y-102009318D01*
X171203138Y-99019025D02*
X171250549Y-99029671D01*
X112512272Y-99000000D02*
X121009877Y-99000000D01*
X171859148Y-99481039D02*
X171883099Y-99523318D01*
X162502482Y-171996477D02*
X162502811Y-171996840D01*
X137210033Y-50543366D02*
X137174841Y-50576872D01*
X160111144Y-77242028D02*
X160156480Y-77224540D01*
X146883099Y-172523318D02*
X146904946Y-172566721D01*
X184487727Y-172000000D02*
X184487972Y-171999996D01*
X137404946Y-73599944D02*
X137383099Y-73643348D01*
X134542631Y-127535952D02*
X134557874Y-127489813D01*
X135392963Y-53838103D02*
X135441423Y-53834528D01*
X171674841Y-101743539D02*
X171638047Y-101775278D01*
X112500003Y-175012027D02*
X112500000Y-175012272D01*
X162504704Y-171998394D02*
X162505125Y-171998646D01*
X159491655Y-171999798D02*
X159492136Y-171999702D01*
X135392963Y-150171436D02*
X135441423Y-150167862D01*
X159495295Y-171998394D02*
X159495703Y-171998121D01*
X146805173Y-174599740D02*
X146775278Y-174638047D01*
X162174841Y-50576872D02*
X162138047Y-50608611D01*
X134575362Y-77777811D02*
X134595053Y-77733388D01*
X137503522Y-98997517D02*
X137503902Y-98997829D01*
X159519025Y-73369805D02*
X159510718Y-73321929D01*
X112505558Y-29001122D02*
X112505125Y-29001353D01*
X150481039Y-172140851D02*
X150523318Y-172116900D01*
X112500000Y-171987727D02*
X112500003Y-171987972D01*
X136655262Y-150177384D02*
X136703138Y-150185692D01*
X171599740Y-172194826D02*
X171638047Y-172224721D01*
X125361952Y-101775278D02*
X125325158Y-101743539D01*
X146957368Y-99702619D02*
X146970328Y-99749450D01*
X171942125Y-28343519D02*
X171924637Y-28388855D01*
X134499702Y-98992136D02*
X134499798Y-98991655D01*
X121107036Y-26004770D02*
X121155262Y-26010718D01*
X171433278Y-172095053D02*
X171476681Y-172116900D01*
X134504770Y-73273703D02*
X134501195Y-73225243D01*
X112501122Y-102005558D02*
X112500912Y-102006002D01*
X125941423Y-26001195D02*
X125990122Y-26000000D01*
X175004770Y-101107036D02*
X175001195Y-101058576D01*
X150001195Y-174058576D02*
X150000000Y-174009877D01*
X184492136Y-171999702D02*
X184492612Y-171999583D01*
X159900259Y-127028160D02*
X159939987Y-127000180D01*
X146107036Y-99004770D02*
X146155262Y-99010718D01*
X125941423Y-172001195D02*
X125990122Y-172000000D01*
X159498394Y-98995295D02*
X159498646Y-98994874D01*
X137018960Y-77307517D02*
X137060012Y-77333514D01*
X134497188Y-171996840D02*
X134497517Y-171996477D01*
X184493082Y-180999440D02*
X184493544Y-180999275D01*
X137502170Y-171996097D02*
X137502482Y-171996477D01*
X184497517Y-29003522D02*
X184497188Y-29003159D01*
X171518960Y-99140851D02*
X171560012Y-99166847D01*
X112504296Y-180998121D02*
X112504704Y-180998394D01*
X136797380Y-74124034D02*
X136750549Y-74136994D01*
X137509318Y-102000081D02*
X137508830Y-102000129D01*
X125796861Y-174980974D02*
X125749450Y-174970328D01*
X159529671Y-150916117D02*
X159542631Y-150869285D01*
X134616900Y-146643348D02*
X134595053Y-146599944D01*
X171297380Y-172042631D02*
X171343519Y-172057874D01*
X159499702Y-171992136D02*
X159499798Y-171991655D01*
X184490681Y-171999918D02*
X184491169Y-171999870D01*
X184495295Y-98998394D02*
X184495703Y-98998121D01*
X134500000Y-54823456D02*
X134501195Y-54774756D01*
X184487972Y-175000003D02*
X184487727Y-175000000D01*
X159724721Y-73804714D02*
X159694826Y-73766407D01*
X184498646Y-25994874D02*
X184498877Y-25994441D01*
X159575362Y-127444477D02*
X159595053Y-127400055D01*
X175523318Y-174883099D02*
X175481039Y-174859148D01*
X136703138Y-150185692D02*
X136750549Y-150196338D01*
X171009877Y-99000000D02*
X171058576Y-99001195D01*
X162018960Y-74025815D02*
X161976681Y-74049766D01*
X162060012Y-73999819D02*
X162018960Y-74025815D01*
X184487972Y-102000003D02*
X184487727Y-102000000D01*
X159499942Y-171990190D02*
X159499996Y-171987972D01*
X135296861Y-77185692D02*
X135344737Y-77177384D01*
X171599740Y-28805173D02*
X171560012Y-28833152D01*
X137174841Y-146910206D02*
X137138047Y-146941944D01*
X184499870Y-175008830D02*
X184499798Y-175008344D01*
X121942125Y-26656480D02*
X121957368Y-26702619D01*
X159575362Y-50222188D02*
X159557874Y-50176853D01*
X146009877Y-99000000D02*
X146058576Y-99001195D01*
X125611144Y-26075362D02*
X125656480Y-26057874D01*
X161509877Y-77166666D02*
X161558576Y-77167862D01*
X125400259Y-28805173D02*
X125361952Y-28775278D01*
X162509318Y-98999918D02*
X162509809Y-98999942D01*
X175000000Y-172990122D02*
X175001195Y-172941423D01*
X135066721Y-126928386D02*
X135111144Y-126908695D01*
X121297380Y-28957368D02*
X121250549Y-28970328D01*
X135023318Y-53950233D02*
X135066721Y-53928386D01*
X184499087Y-20006002D02*
X184498877Y-20005558D01*
X184496840Y-25997188D02*
X184497188Y-25996840D01*
X150010718Y-26844737D02*
X150019025Y-26796861D01*
X134496097Y-98997829D02*
X134496477Y-98997517D01*
X162508830Y-171999870D02*
X162509318Y-171999918D01*
X134499583Y-98992612D02*
X134499702Y-98992136D01*
X184497829Y-25996097D02*
X184498121Y-25995703D01*
X146203138Y-101980974D02*
X146155262Y-101989281D01*
X137333152Y-150606653D02*
X137359148Y-150647706D01*
X136509877Y-126833333D02*
X136558576Y-126834528D01*
X162512027Y-171999996D02*
X162512272Y-172000000D01*
X171203138Y-174980974D02*
X171155262Y-174989281D01*
X136797380Y-150209298D02*
X136843519Y-150224540D01*
X134500000Y-171987727D02*
X134500000Y-151156789D01*
X159666847Y-73726679D02*
X159640851Y-73685626D01*
X159487972Y-102000003D02*
X159487727Y-102000000D01*
X184491655Y-180999798D02*
X184492136Y-180999702D01*
X184497829Y-29003902D02*
X184497517Y-29003522D01*
X112501605Y-20004704D02*
X112501353Y-20005125D01*
X125042631Y-174297380D02*
X125029671Y-174250549D01*
X171942125Y-174343519D02*
X171924637Y-174388855D01*
X134491655Y-171999798D02*
X134492136Y-171999702D01*
X136509877Y-77166666D02*
X136558576Y-77167862D01*
X162442125Y-150823146D02*
X162457368Y-150869285D01*
X125095053Y-28433278D02*
X125075362Y-28388855D01*
X134595053Y-73599944D02*
X134575362Y-73555522D01*
X159694826Y-146766407D02*
X159666847Y-146726679D01*
X172000000Y-174009877D02*
X171998804Y-174058576D01*
X171970328Y-172749450D02*
X171980974Y-172796861D01*
X171599740Y-26194826D02*
X171638047Y-26224721D01*
X125941423Y-101998804D02*
X125892963Y-101995229D01*
X134493544Y-29000724D02*
X134493082Y-29000559D01*
X175095053Y-174433278D02*
X175075362Y-174388855D01*
X125844737Y-101989281D02*
X125796861Y-101980974D01*
X134900259Y-127028160D02*
X134939987Y-127000180D01*
X136703138Y-77185692D02*
X136750549Y-77196338D01*
X136888855Y-53908695D02*
X136933278Y-53928386D01*
X150656480Y-101942125D02*
X150611144Y-101924637D01*
X112504704Y-25998394D02*
X112505125Y-25998646D01*
X125611144Y-172075362D02*
X125656480Y-172057874D01*
X135066721Y-53928386D02*
X135111144Y-53908695D01*
X134494874Y-102001353D02*
X134494441Y-102001122D01*
X171775278Y-99361952D02*
X171805173Y-99400259D01*
X175325158Y-28743539D02*
X175289966Y-28710033D01*
X171998804Y-26941423D02*
X172000000Y-26990122D01*
X161703138Y-123814307D02*
X161655262Y-123822615D01*
X125523318Y-174883099D02*
X125481039Y-174859148D01*
X137424637Y-150777811D02*
X137442125Y-150823146D01*
X150481039Y-101859148D02*
X150439987Y-101833152D01*
X134756460Y-73841508D02*
X134724721Y-73804714D01*
X171638047Y-101775278D02*
X171599740Y-101805173D01*
X121009877Y-102000000D02*
X112512272Y-102000000D01*
X146980974Y-172796861D02*
X146989281Y-172844737D01*
X162424637Y-146555522D02*
X162404946Y-146599944D01*
X112500129Y-171991169D02*
X112500201Y-171991655D01*
X136607036Y-50828563D02*
X136558576Y-50832137D01*
X175400259Y-99194826D02*
X175439987Y-99166847D01*
X162489281Y-151011403D02*
X162495229Y-151059629D01*
X146518960Y-172140851D02*
X146560012Y-172166847D01*
X150004770Y-174107036D02*
X150001195Y-174058576D01*
X184498394Y-98995295D02*
X184498646Y-98994874D01*
X160490122Y-77166666D02*
X161509877Y-77166666D01*
X121775278Y-101638047D02*
X121743539Y-101674841D01*
X125990122Y-172000000D02*
X134487727Y-172000000D01*
X134487727Y-102000000D02*
X125990122Y-102000000D01*
X137243539Y-146841508D02*
X137210033Y-146876700D01*
X125004770Y-28107036D02*
X125001195Y-28058576D01*
X162508830Y-29000129D02*
X162508344Y-29000201D01*
X159491655Y-29000201D02*
X159491169Y-29000129D01*
X160392963Y-150171436D02*
X160441423Y-150167862D01*
X112507387Y-171999583D02*
X112507863Y-171999702D01*
X159825158Y-54089793D02*
X159861952Y-54058055D01*
X159616900Y-54356651D02*
X159640851Y-54314373D01*
X159500000Y-127823456D02*
X159501195Y-127774756D01*
X146980974Y-26796861D02*
X146989281Y-26844737D01*
X137500559Y-98993082D02*
X137500724Y-98993544D01*
X159500000Y-49843210D02*
X159500000Y-29012272D01*
X121775278Y-28638047D02*
X121743539Y-28674841D01*
X162502811Y-171996840D02*
X162503159Y-171997188D01*
X161509877Y-150166666D02*
X161558576Y-150167862D01*
X146599740Y-99194826D02*
X146638047Y-99224721D01*
X146518960Y-28859148D02*
X146476681Y-28883099D01*
X137500000Y-102012272D02*
X137500000Y-122843210D01*
X134499275Y-98993544D02*
X134499440Y-98993082D01*
X175001195Y-26941423D02*
X175004770Y-26892963D01*
X184495703Y-175001878D02*
X184495295Y-175001605D01*
X146998804Y-174058576D02*
X146995229Y-174107036D01*
X125001195Y-28058576D02*
X125000000Y-28009877D01*
X112506002Y-175000912D02*
X112505558Y-175001122D01*
X125990122Y-99000000D02*
X134487727Y-99000000D01*
X159724721Y-150528619D02*
X159756460Y-150491825D01*
X184495295Y-29001605D02*
X184494874Y-29001353D01*
X175010718Y-26844737D02*
X175019025Y-26796861D01*
X175075362Y-101388855D02*
X175057874Y-101343519D01*
X137500000Y-122843210D02*
X137498804Y-122891910D01*
X134900259Y-146971839D02*
X134861952Y-146941944D01*
X162500297Y-171992136D02*
X162500416Y-171992612D01*
X162138047Y-77391388D02*
X162174841Y-77423127D01*
X159501195Y-49891910D02*
X159500000Y-49843210D01*
X175361952Y-26224721D02*
X175400259Y-26194826D01*
X125075362Y-101388855D02*
X125057874Y-101343519D01*
X175075362Y-26611144D02*
X175095053Y-26566721D01*
X162501878Y-29004296D02*
X162501605Y-29004704D01*
X121638047Y-174775278D02*
X121599740Y-174805173D01*
X175140851Y-28518960D02*
X175116900Y-28476681D01*
X162503159Y-98997188D02*
X162503522Y-98997517D01*
X162512272Y-99000000D02*
X171009877Y-99000000D01*
X136655262Y-126844051D02*
X136703138Y-126852358D01*
X137502170Y-102003902D02*
X137501878Y-102004296D01*
X137243539Y-123508174D02*
X137210033Y-123543366D01*
X159595053Y-123266611D02*
X159575362Y-123222188D01*
X171883099Y-101476681D02*
X171859148Y-101518960D01*
X121710033Y-174710033D02*
X121674841Y-174743539D01*
X175325158Y-172256460D02*
X175361952Y-172224721D01*
X184499275Y-171993544D02*
X184499440Y-171993082D01*
X171995229Y-172892963D02*
X171998804Y-172941423D01*
X162508830Y-102000129D02*
X162508344Y-102000201D01*
X134493082Y-102000559D02*
X134492612Y-102000416D01*
X175844737Y-26010718D02*
X175892963Y-26004770D01*
X112512272Y-29000000D02*
X112512027Y-29000003D01*
X175001195Y-172941423D02*
X175004770Y-172892963D01*
X162404946Y-123266611D02*
X162383099Y-123310014D01*
X160023318Y-77283567D02*
X160066721Y-77261719D01*
X121775278Y-172361952D02*
X121805173Y-172400259D01*
X137495229Y-73273703D02*
X137489281Y-73321929D01*
X171674841Y-99256460D02*
X171710033Y-99289966D01*
X134900259Y-54028160D02*
X134939987Y-54000180D01*
X121155262Y-28989281D02*
X121107036Y-28995229D01*
X175749450Y-28970328D02*
X175702619Y-28957368D01*
X134825158Y-73910206D02*
X134789966Y-73876700D01*
X112503522Y-25997517D02*
X112503902Y-25997829D01*
X184499942Y-25990190D02*
X184499996Y-25987972D01*
X134616900Y-150689985D02*
X134640851Y-150647706D01*
X161558576Y-147165471D02*
X161509877Y-147166666D01*
X137470328Y-77916117D02*
X137480974Y-77963527D01*
X184495295Y-171998394D02*
X184495703Y-171998121D01*
X134557874Y-54489813D02*
X134575362Y-54444477D01*
X112512027Y-175000003D02*
X112509809Y-175000057D01*
X137359148Y-54314373D02*
X137383099Y-54356651D01*
X150029671Y-26749450D02*
X150042631Y-26702619D01*
X112501353Y-20005125D02*
X112501122Y-20005558D01*
X162138047Y-54058055D02*
X162174841Y-54089793D01*
X184491655Y-171999798D02*
X184492136Y-171999702D01*
X112500003Y-29012027D02*
X112500000Y-29012272D01*
X171297380Y-26042631D02*
X171343519Y-26057874D01*
X171859148Y-101518960D02*
X171833152Y-101560012D01*
X150611144Y-26075362D02*
X150656480Y-26057874D01*
X159499798Y-29008344D02*
X159499702Y-29007863D01*
X175400259Y-101805173D02*
X175361952Y-101775278D01*
X125010718Y-26844737D02*
X125019025Y-26796861D01*
X121995229Y-26892963D02*
X121998804Y-26941423D01*
X134487972Y-98999996D02*
X134490190Y-98999942D01*
X171250549Y-26029671D02*
X171297380Y-26042631D01*
X135296861Y-126852358D02*
X135344737Y-126844051D01*
X112509318Y-25999918D02*
X112509809Y-25999942D01*
X134939987Y-73999819D02*
X134900259Y-73971839D01*
X171433278Y-26095053D02*
X171476681Y-26116900D01*
X112500416Y-20007387D02*
X112500297Y-20007863D01*
X162504296Y-171998121D02*
X162504704Y-171998394D01*
X112500057Y-29009809D02*
X112500003Y-29012027D01*
X162506917Y-102000559D02*
X162506455Y-102000724D01*
X160202619Y-123790701D02*
X160156480Y-123775459D01*
X121009877Y-99000000D02*
X121058576Y-99001195D01*
X150010718Y-174155262D02*
X150004770Y-174107036D01*
X162495229Y-54726296D02*
X162498804Y-54774756D01*
X171476681Y-101883099D02*
X171433278Y-101904946D01*
X162505558Y-171998877D02*
X162506002Y-171999087D01*
X162099740Y-54028160D02*
X162138047Y-54058055D01*
X146297380Y-28957368D02*
X146250549Y-28970328D01*
X112500003Y-180987972D02*
X112500057Y-180990190D01*
X171388855Y-172075362D02*
X171433278Y-172095053D01*
X135066721Y-77261719D02*
X135111144Y-77242028D01*
X137210033Y-127123299D02*
X137243539Y-127158491D01*
X162508344Y-171999798D02*
X162508830Y-171999870D01*
X162500000Y-102012272D02*
X162500000Y-122843210D01*
X159825158Y-150423127D02*
X159861952Y-150391388D01*
X162500000Y-73176543D02*
X162498804Y-73225243D01*
X159498121Y-102004296D02*
X159497829Y-102003902D01*
X171343519Y-28942125D02*
X171297380Y-28957368D01*
X137333152Y-146726679D02*
X137305173Y-146766407D01*
X162508344Y-102000201D02*
X162507863Y-102000297D01*
X137500416Y-98992612D02*
X137500559Y-98993082D01*
X171518960Y-28859148D02*
X171476681Y-28883099D01*
X159495295Y-29001605D02*
X159494874Y-29001353D01*
X112508830Y-180999870D02*
X112509318Y-180999918D01*
X159499702Y-102007863D02*
X159499583Y-102007387D01*
X134491169Y-102000129D02*
X134490681Y-102000081D01*
X146599740Y-26194826D02*
X146638047Y-26224721D01*
X162243539Y-54158491D02*
X162275278Y-54195285D01*
X159595053Y-73599944D02*
X159575362Y-73555522D01*
X112512027Y-102000003D02*
X112509809Y-102000057D01*
X162404946Y-54400055D02*
X162424637Y-54444477D01*
X162489281Y-127678070D02*
X162495229Y-127726296D01*
X184497517Y-98996477D02*
X184497829Y-98996097D01*
X112500297Y-98992136D02*
X112500416Y-98992612D01*
X134497829Y-102003902D02*
X134497517Y-102003522D01*
X184490190Y-102000057D02*
X184487972Y-102000003D01*
X162502170Y-29003902D02*
X162501878Y-29004296D01*
X159557874Y-150823146D02*
X159575362Y-150777811D01*
X146998804Y-101058576D02*
X146995229Y-101107036D01*
X121433278Y-172095053D02*
X121476681Y-172116900D01*
X150194826Y-172400259D02*
X150224721Y-172361952D01*
X171743539Y-99325158D02*
X171775278Y-99361952D01*
X121859148Y-99481039D02*
X121883099Y-99523318D01*
X121924637Y-28388855D02*
X121904946Y-28433278D01*
X150001195Y-101058576D02*
X150000000Y-101009877D01*
X121859148Y-174518960D02*
X121833152Y-174560012D01*
X175481039Y-28859148D02*
X175439987Y-28833152D01*
X162498804Y-151108089D02*
X162500000Y-151156789D01*
X162457368Y-54535952D02*
X162470328Y-54582783D01*
X137500201Y-171991655D02*
X137500297Y-171992136D01*
X146942125Y-174343519D02*
X146924637Y-174388855D01*
X134499942Y-29009809D02*
X134499918Y-29009318D01*
X137500559Y-29006917D02*
X137500416Y-29007387D01*
X121710033Y-172289966D02*
X121743539Y-172325158D01*
X184493544Y-25999275D02*
X184493997Y-25999087D01*
X125001195Y-26941423D02*
X125004770Y-26892963D01*
X112501605Y-102004704D02*
X112501353Y-102005125D01*
X161797380Y-77209298D02*
X161843519Y-77224540D01*
X136558576Y-74165471D02*
X136509877Y-74166666D01*
X134499583Y-102007387D02*
X134499440Y-102006917D01*
X159498646Y-171994874D02*
X159498877Y-171994441D01*
X159542631Y-123130714D02*
X159529671Y-123083882D01*
X134939987Y-150333514D02*
X134981039Y-150307517D01*
X134939987Y-50666485D02*
X134900259Y-50638506D01*
X162099740Y-73971839D02*
X162060012Y-73999819D01*
X160249450Y-147136994D02*
X160202619Y-147124034D01*
X162506002Y-102000912D02*
X162505558Y-102001122D01*
X160249450Y-77196338D02*
X160296861Y-77185692D01*
X184499583Y-171992612D02*
X184499702Y-171992136D01*
X184487972Y-171999996D02*
X184490190Y-171999942D01*
X137489281Y-54678070D02*
X137495229Y-54726296D01*
X121743539Y-101674841D02*
X121710033Y-101710033D01*
X150566721Y-26095053D02*
X150611144Y-26075362D01*
X121343519Y-99057874D02*
X121388855Y-99075362D01*
X162502482Y-29003522D02*
X162502170Y-29003902D01*
X112507387Y-20000416D02*
X112506917Y-20000559D01*
X159499996Y-98987972D02*
X159500000Y-98987727D01*
X175095053Y-26566721D02*
X175116900Y-26523318D01*
X137509318Y-171999918D02*
X137509809Y-171999942D01*
X175439987Y-28833152D02*
X175400259Y-28805173D01*
X121805173Y-28599740D02*
X121775278Y-28638047D01*
X175941423Y-28998804D02*
X175892963Y-28995229D01*
X184499996Y-102012027D02*
X184499942Y-102009809D01*
X171560012Y-174833152D02*
X171518960Y-174859148D01*
X184490190Y-171999942D02*
X184490681Y-171999918D01*
X146995229Y-172892963D02*
X146998804Y-172941423D01*
X137383099Y-146643348D02*
X137359148Y-146685626D01*
X184496840Y-102002811D02*
X184496477Y-102002482D01*
X159542631Y-146464047D02*
X159529671Y-146417216D01*
X159500000Y-98987727D02*
X159500000Y-78156789D01*
X125702619Y-26042631D02*
X125749450Y-26029671D01*
X137504296Y-171998121D02*
X137504704Y-171998394D01*
X150325158Y-174743539D02*
X150289966Y-174710033D01*
X162480974Y-150963527D02*
X162489281Y-151011403D01*
X162404946Y-150733388D02*
X162424637Y-150777811D01*
X162500724Y-29006455D02*
X162500559Y-29006917D01*
X184497188Y-29003159D02*
X184496840Y-29002811D01*
X137138047Y-50608611D02*
X137099740Y-50638506D01*
X175057874Y-172656480D02*
X175075362Y-172611144D01*
X150941423Y-174998804D02*
X150892963Y-174995229D01*
X112503522Y-98997517D02*
X112503902Y-98997829D01*
X171904946Y-101433278D02*
X171883099Y-101476681D01*
X137018960Y-50692482D02*
X136976681Y-50716432D01*
X171058576Y-174998804D02*
X171009877Y-175000000D01*
X150611144Y-99075362D02*
X150656480Y-99057874D01*
X125481039Y-28859148D02*
X125439987Y-28833152D01*
X159724721Y-127195285D02*
X159756460Y-127158491D01*
X159694826Y-127233592D02*
X159724721Y-127195285D01*
X175749450Y-172029671D02*
X175796861Y-172019025D01*
X175566721Y-28904946D02*
X175523318Y-28883099D01*
X171518960Y-174859148D02*
X171476681Y-174883099D01*
X146904946Y-172566721D02*
X146924637Y-172611144D01*
X162457368Y-123130714D02*
X162442125Y-123176853D01*
X121995229Y-174107036D02*
X121989281Y-174155262D01*
X146883099Y-174476681D02*
X146859148Y-174518960D01*
X160392963Y-53838103D02*
X160441423Y-53834528D01*
X125439987Y-101833152D02*
X125400259Y-101805173D01*
X159542631Y-77869285D02*
X159557874Y-77823146D01*
X159510718Y-54678070D02*
X159519025Y-54630194D01*
X125029671Y-99749450D02*
X125042631Y-99702619D01*
X134499798Y-171991655D02*
X134499870Y-171991169D01*
X146883099Y-26523318D02*
X146904946Y-26566721D01*
X121560012Y-26166847D02*
X121599740Y-26194826D01*
X146560012Y-172166847D02*
X146599740Y-172194826D01*
X125166847Y-28560012D02*
X125140851Y-28518960D01*
X175656480Y-174942125D02*
X175611144Y-174924637D01*
X134510718Y-49988596D02*
X134504770Y-49940370D01*
X146674841Y-99256460D02*
X146710033Y-99289966D01*
X134498646Y-98994874D02*
X134498877Y-98994441D01*
X112500724Y-171993544D02*
X112500912Y-171993997D01*
X121388855Y-99075362D02*
X121433278Y-99095053D01*
X159501195Y-54774756D02*
X159504770Y-54726296D01*
X125057874Y-99656480D02*
X125075362Y-99611144D01*
X162442125Y-50176853D02*
X162424637Y-50222188D01*
X184498121Y-20004296D02*
X184497829Y-20003902D01*
X121009877Y-172000000D02*
X121058576Y-172001195D01*
X125325158Y-101743539D02*
X125289966Y-101710033D01*
X137457368Y-150869285D02*
X137470328Y-150916117D01*
X146638047Y-101775278D02*
X146599740Y-101805173D01*
X125010718Y-101155262D02*
X125004770Y-101107036D01*
X134666847Y-146726679D02*
X134640851Y-146685626D01*
X150004770Y-172892963D02*
X150010718Y-172844737D01*
X137500297Y-29007863D02*
X137500201Y-29008344D01*
X162275278Y-77528619D02*
X162305173Y-77566926D01*
X137509809Y-171999942D02*
X137512027Y-171999996D01*
X184499942Y-102009809D02*
X184499918Y-102009318D01*
X121970328Y-28250549D02*
X121957368Y-28297380D01*
X150019025Y-28203138D02*
X150010718Y-28155262D01*
X162498804Y-54774756D02*
X162500000Y-54823456D01*
X162505558Y-29001122D02*
X162505125Y-29001353D01*
X175702619Y-101957368D02*
X175656480Y-101942125D01*
X137500129Y-29008830D02*
X137500081Y-29009318D01*
X125892963Y-174995229D02*
X125844737Y-174989281D01*
X159529671Y-127582783D02*
X159542631Y-127535952D01*
X150042631Y-28297380D02*
X150029671Y-28250549D01*
X134500000Y-73176543D02*
X134500000Y-54823456D01*
X121203138Y-28980974D02*
X121155262Y-28989281D01*
X136933278Y-150261719D02*
X136976681Y-150283567D01*
X137359148Y-127314373D02*
X137383099Y-127356651D01*
X184499440Y-175006917D02*
X184499275Y-175006455D01*
X135344737Y-77177384D02*
X135392963Y-77171436D01*
X184499440Y-98993082D02*
X184499583Y-98992612D01*
X137503159Y-29002811D02*
X137502811Y-29003159D01*
X162512027Y-98999996D02*
X162512272Y-99000000D01*
X137480974Y-54630194D02*
X137489281Y-54678070D01*
X171476681Y-172116900D02*
X171518960Y-172140851D01*
X159499870Y-102008830D02*
X159499798Y-102008344D01*
X137480974Y-146369805D02*
X137470328Y-146417216D01*
X137503902Y-98997829D02*
X137504296Y-98998121D01*
X135249450Y-150196338D02*
X135296861Y-150185692D01*
X162509809Y-171999942D02*
X162512027Y-171999996D01*
X146775278Y-101638047D02*
X146743539Y-101674841D01*
X136509877Y-74166666D02*
X135490122Y-74166666D01*
X112500057Y-171990190D02*
X112500081Y-171990681D01*
X112509318Y-171999918D02*
X112509809Y-171999942D01*
X112500416Y-29007387D02*
X112500297Y-29007863D01*
X171638047Y-28775278D02*
X171599740Y-28805173D01*
X134492612Y-171999583D02*
X134493082Y-171999440D01*
X125289966Y-99289966D02*
X125325158Y-99256460D01*
X134666847Y-127273320D02*
X134694826Y-127233592D01*
X162359148Y-150647706D02*
X162383099Y-150689985D01*
X135156480Y-53891207D02*
X135202619Y-53875965D01*
X160441423Y-50832137D02*
X160392963Y-50828563D01*
X159494441Y-102001122D02*
X159493997Y-102000912D01*
X175611144Y-99075362D02*
X175656480Y-99057874D01*
X121942125Y-101343519D02*
X121924637Y-101388855D01*
X112506455Y-171999275D02*
X112506917Y-171999440D01*
X134694826Y-50433073D02*
X134666847Y-50393346D01*
X184490190Y-175000057D02*
X184487972Y-175000003D01*
X112508344Y-20000201D02*
X112507863Y-20000297D01*
X125075362Y-26611144D02*
X125095053Y-26566721D01*
X159724721Y-123471380D02*
X159694826Y-123433073D01*
X159900259Y-123638506D02*
X159861952Y-123608611D01*
X125749450Y-99029671D02*
X125796861Y-99019025D01*
X162500201Y-98991655D02*
X162500297Y-98992136D01*
X125057874Y-28343519D02*
X125042631Y-28297380D01*
X161509877Y-123833333D02*
X160490122Y-123833333D01*
X137503522Y-171997517D02*
X137503902Y-171997829D01*
X162060012Y-50666485D02*
X162018960Y-50692482D01*
X162383099Y-123310014D02*
X162359148Y-123352293D01*
X121476681Y-172116900D02*
X121518960Y-172140851D01*
X137500912Y-102006002D02*
X137500724Y-102006455D01*
X134499275Y-171993544D02*
X134499440Y-171993082D01*
X171710033Y-99289966D02*
X171743539Y-99325158D01*
X150004770Y-28107036D02*
X150001195Y-28058576D01*
X150844737Y-101989281D02*
X150796861Y-101980974D01*
X134510718Y-127678070D02*
X134519025Y-127630194D01*
X184499275Y-175006455D02*
X184499087Y-175006002D01*
X137501122Y-29005558D02*
X137500912Y-29006002D01*
X162501353Y-171994874D02*
X162501605Y-171995295D01*
X146995229Y-174107036D02*
X146989281Y-174155262D01*
X160392963Y-77171436D02*
X160441423Y-77167862D01*
X137501878Y-98995703D02*
X137502170Y-98996097D01*
X121833152Y-101560012D02*
X121805173Y-101599740D01*
X150166847Y-172439987D02*
X150194826Y-172400259D01*
X112512272Y-175000000D02*
X112512027Y-175000003D01*
X137503902Y-171997829D02*
X137504296Y-171998121D01*
X146343519Y-99057874D02*
X146388855Y-99075362D01*
X134501195Y-49891910D02*
X134500000Y-49843210D01*
X184499870Y-20008830D02*
X184499798Y-20008344D01*
X121518960Y-172140851D02*
X121560012Y-172166847D01*
X159495295Y-102001605D02*
X159494874Y-102001353D01*
X134495295Y-102001605D02*
X134494874Y-102001353D01*
X175611144Y-28924637D02*
X175566721Y-28904946D01*
X162138047Y-146941944D02*
X162099740Y-146971839D01*
X161933278Y-74071613D02*
X161888855Y-74091304D01*
X112502811Y-171996840D02*
X112503159Y-171997188D01*
X160296861Y-126852358D02*
X160344737Y-126844051D01*
X175019025Y-28203138D02*
X175010718Y-28155262D01*
X150400259Y-28805173D02*
X150361952Y-28775278D01*
X161976681Y-50716432D02*
X161933278Y-50738280D01*
X184492136Y-102000297D02*
X184491655Y-102000201D01*
X171989281Y-26844737D02*
X171995229Y-26892963D01*
X134499918Y-102009318D02*
X134499870Y-102008830D01*
X162457368Y-73464047D02*
X162442125Y-73510186D01*
X175892963Y-172004770D02*
X175941423Y-172001195D01*
X184499996Y-29012027D02*
X184499942Y-29009809D01*
X184487727Y-29000000D02*
X175990122Y-29000000D01*
X134487972Y-171999996D02*
X134490190Y-171999942D01*
X150001195Y-172941423D02*
X150004770Y-172892963D01*
X134504770Y-49940370D02*
X134501195Y-49891910D01*
X135296861Y-53852358D02*
X135344737Y-53844051D01*
X150892963Y-26004770D02*
X150941423Y-26001195D01*
X125656480Y-174942125D02*
X125611144Y-174924637D01*
X112500201Y-171991655D02*
X112500297Y-171992136D01*
X175439987Y-101833152D02*
X175400259Y-101805173D01*
X137480974Y-127630194D02*
X137489281Y-127678070D01*
X159499996Y-102012027D02*
X159499942Y-102009809D01*
X146433278Y-172095053D02*
X146476681Y-172116900D01*
X137138047Y-146941944D02*
X137099740Y-146971839D01*
X134497829Y-171996097D02*
X134498121Y-171995703D01*
X121599740Y-101805173D02*
X121560012Y-101833152D01*
X146297380Y-99042631D02*
X146343519Y-99057874D01*
X175075362Y-174388855D02*
X175057874Y-174343519D01*
X121957368Y-99702619D02*
X121970328Y-99749450D01*
X150057874Y-28343519D02*
X150042631Y-28297380D01*
X112505125Y-175001353D02*
X112504704Y-175001605D01*
X171980974Y-26796861D02*
X171989281Y-26844737D01*
X184499798Y-175008344D02*
X184499702Y-175007863D01*
X184497517Y-102003522D02*
X184497188Y-102003159D01*
X162174841Y-77423127D02*
X162210033Y-77456633D01*
X121904946Y-26566721D02*
X121924637Y-26611144D01*
X136933278Y-126928386D02*
X136976681Y-126950233D01*
X175224721Y-172361952D02*
X175256460Y-172325158D01*
X112500129Y-20008830D02*
X112500081Y-20009318D01*
X184494874Y-171998646D02*
X184495295Y-171998394D01*
X159616900Y-77689985D02*
X159640851Y-77647706D01*
X159497517Y-171996477D02*
X159497829Y-171996097D01*
X137512027Y-102000003D02*
X137509809Y-102000057D01*
X135249450Y-126863005D02*
X135296861Y-126852358D01*
X184499702Y-98992136D02*
X184499798Y-98991655D01*
X135296861Y-150185692D02*
X135344737Y-150177384D01*
X121924637Y-26611144D02*
X121942125Y-26656480D01*
X159756460Y-73841508D02*
X159724721Y-73804714D01*
X146599740Y-28805173D02*
X146560012Y-28833152D01*
X175941423Y-99001195D02*
X175990122Y-99000000D01*
X162504704Y-98998394D02*
X162505125Y-98998646D01*
X160344737Y-77177384D02*
X160392963Y-77171436D01*
X150004770Y-26892963D02*
X150010718Y-26844737D01*
X159500000Y-127823456D02*
X159500000Y-127823456D01*
X162333152Y-146726679D02*
X162305173Y-146766407D01*
X150019025Y-174203138D02*
X150010718Y-174155262D01*
X135066721Y-123738280D02*
X135023318Y-123716432D01*
X134500000Y-122843210D02*
X134500000Y-102012272D01*
X171433278Y-99095053D02*
X171476681Y-99116900D01*
X135249450Y-74136994D02*
X135202619Y-74124034D01*
X125400259Y-174805173D02*
X125361952Y-174775278D01*
X159616900Y-50310014D02*
X159595053Y-50266611D01*
X112503159Y-175002811D02*
X112502811Y-175003159D01*
X134496097Y-29002170D02*
X134495703Y-29001878D01*
X134498877Y-98994441D02*
X134499087Y-98993997D01*
X137502482Y-29003522D02*
X137502170Y-29003902D01*
X159900259Y-73971839D02*
X159861952Y-73941944D01*
X125325158Y-28743539D02*
X125289966Y-28710033D01*
X112507387Y-98999583D02*
X112507863Y-98999702D01*
X162509318Y-171999918D02*
X162509809Y-171999942D01*
X184492612Y-20000416D02*
X184492136Y-20000297D01*
X162442125Y-77823146D02*
X162457368Y-77869285D01*
X162333152Y-77606653D02*
X162359148Y-77647706D01*
X134510718Y-78011403D02*
X134519025Y-77963527D01*
X134861952Y-150391388D02*
X134900259Y-150361493D01*
X161509877Y-53833333D02*
X161558576Y-53834528D01*
X136797380Y-123790701D02*
X136750549Y-123803661D01*
X125749450Y-28970328D02*
X125702619Y-28957368D01*
X175019025Y-172796861D02*
X175029671Y-172749450D01*
X137500129Y-102008830D02*
X137500081Y-102009318D01*
X175439987Y-174833152D02*
X175400259Y-174805173D01*
X137500057Y-102009809D02*
X137500003Y-102012027D01*
X171924637Y-28388855D02*
X171904946Y-28433278D01*
X134499702Y-102007863D02*
X134499583Y-102007387D01*
X159491655Y-102000201D02*
X159491169Y-102000129D01*
X134640851Y-50352293D02*
X134616900Y-50310014D01*
X150325158Y-28743539D02*
X150289966Y-28710033D01*
X112506917Y-98999440D02*
X112507387Y-98999583D01*
X184497188Y-175003159D02*
X184496840Y-175002811D01*
X171155262Y-101989281D02*
X171107036Y-101995229D01*
X162500724Y-171993544D02*
X162500912Y-171993997D01*
X150990122Y-175000000D02*
X150941423Y-174998804D01*
X137505125Y-102001353D02*
X137504704Y-102001605D01*
X137359148Y-73685626D02*
X137333152Y-73726679D01*
X146995229Y-26892963D02*
X146998804Y-26941423D01*
X175010718Y-28155262D02*
X175004770Y-28107036D01*
X112506002Y-29000912D02*
X112505558Y-29001122D01*
X146995229Y-28107036D02*
X146989281Y-28155262D01*
X150057874Y-99656480D02*
X150075362Y-99611144D01*
X184499275Y-25993544D02*
X184499440Y-25993082D01*
X136976681Y-74049766D02*
X136933278Y-74071613D01*
X150749450Y-28970328D02*
X150702619Y-28957368D01*
X125116900Y-174476681D02*
X125095053Y-174433278D01*
X175611144Y-26075362D02*
X175656480Y-26057874D01*
X162504296Y-29001878D02*
X162503902Y-29002170D01*
X159557874Y-77823146D02*
X159575362Y-77777811D01*
X159575362Y-146555522D02*
X159557874Y-146510186D01*
X112500724Y-175006455D02*
X112500559Y-175006917D01*
X121989281Y-99844737D02*
X121995229Y-99892963D01*
X121980974Y-172796861D02*
X121989281Y-172844737D01*
X137501605Y-102004704D02*
X137501353Y-102005125D01*
X146009877Y-26000000D02*
X146058576Y-26001195D01*
X125004770Y-101107036D02*
X125001195Y-101058576D01*
X137500003Y-29012027D02*
X137500000Y-29012272D01*
X112500724Y-25993544D02*
X112500912Y-25993997D01*
X159789966Y-73876700D02*
X159756460Y-73841508D01*
X162500129Y-98991169D02*
X162500201Y-98991655D01*
X159861952Y-146941944D02*
X159825158Y-146910206D01*
X171924637Y-99611144D02*
X171942125Y-99656480D01*
X159900259Y-50638506D02*
X159861952Y-50608611D01*
X134557874Y-150823146D02*
X134575362Y-150777811D01*
X159510718Y-49988596D02*
X159504770Y-49940370D01*
X162470328Y-54582783D02*
X162480974Y-54630194D01*
X150256460Y-99325158D02*
X150289966Y-99289966D01*
X162500559Y-29006917D02*
X162500416Y-29007387D01*
X125702619Y-172042631D02*
X125749450Y-172029671D01*
X125224721Y-174638047D02*
X125194826Y-174599740D01*
X162359148Y-146685626D02*
X162333152Y-146726679D01*
X162500057Y-171990190D02*
X162500081Y-171990681D01*
X184499583Y-98992612D02*
X184499702Y-98992136D01*
X136558576Y-123832137D02*
X136509877Y-123833333D01*
X112512272Y-172000000D02*
X121009877Y-172000000D01*
X136558576Y-126834528D02*
X136607036Y-126838103D01*
X159497829Y-171996097D02*
X159498121Y-171995703D01*
X137404946Y-150733388D02*
X137424637Y-150777811D01*
X112501353Y-175005125D02*
X112501122Y-175005558D01*
X184494874Y-102001353D02*
X184494441Y-102001122D01*
X175116900Y-99523318D02*
X175140851Y-99481039D01*
X146942125Y-172656480D02*
X146957368Y-172702619D01*
X112501605Y-98995295D02*
X112501878Y-98995703D01*
X125256460Y-26325158D02*
X125289966Y-26289966D01*
X135156480Y-77224540D02*
X135202619Y-77209298D01*
X135066721Y-50738280D02*
X135023318Y-50716432D01*
X112502811Y-102003159D02*
X112502482Y-102003522D01*
X121883099Y-28476681D02*
X121859148Y-28518960D01*
X112507387Y-25999583D02*
X112507863Y-25999702D01*
X134756460Y-123508174D02*
X134724721Y-123471380D01*
X137508830Y-171999870D02*
X137509318Y-171999918D01*
X184497829Y-180996097D02*
X184498121Y-180995703D01*
X134542631Y-77869285D02*
X134557874Y-77823146D01*
X135392963Y-123828563D02*
X135344737Y-123822615D01*
X162138047Y-50608611D02*
X162099740Y-50638506D01*
X161888855Y-147091304D02*
X161843519Y-147108792D01*
X112503522Y-29002482D02*
X112503159Y-29002811D01*
X161558576Y-126834528D02*
X161607036Y-126838103D01*
X137500724Y-98993544D02*
X137500912Y-98993997D01*
X175004770Y-99892963D02*
X175010718Y-99844737D01*
X137501353Y-29005125D02*
X137501122Y-29005558D01*
X159499918Y-102009318D02*
X159499870Y-102008830D01*
X184498646Y-29005125D02*
X184498394Y-29004704D01*
X135202619Y-147124034D02*
X135156480Y-147108792D01*
X137018960Y-147025815D02*
X136976681Y-147049766D01*
X162506455Y-171999275D02*
X162506917Y-171999440D01*
X171980974Y-99796861D02*
X171989281Y-99844737D01*
X175095053Y-172566721D02*
X175116900Y-172523318D01*
X150019025Y-172796861D02*
X150029671Y-172749450D01*
X171710033Y-174710033D02*
X171674841Y-174743539D01*
X150224721Y-26361952D02*
X150256460Y-26325158D01*
X121743539Y-26325158D02*
X121775278Y-26361952D01*
X134529671Y-73417216D02*
X134519025Y-73369805D01*
X136976681Y-150283567D02*
X137018960Y-150307517D01*
X134490681Y-29000081D02*
X134490190Y-29000057D01*
X162210033Y-73876700D02*
X162174841Y-73910206D01*
X150140851Y-26481039D02*
X150166847Y-26439987D01*
X134498646Y-102005125D02*
X134498394Y-102004704D01*
X137506002Y-171999087D02*
X137506455Y-171999275D01*
X135111144Y-150242028D02*
X135156480Y-150224540D01*
X125010718Y-99844737D02*
X125019025Y-99796861D01*
X160296861Y-150185692D02*
X160344737Y-150177384D01*
X159789966Y-127123299D02*
X159825158Y-127089793D01*
X162504296Y-98998121D02*
X162504704Y-98998394D01*
X175166847Y-99439987D02*
X175194826Y-99400259D01*
X146058576Y-101998804D02*
X146009877Y-102000000D01*
X159496097Y-171997829D02*
X159496477Y-171997517D01*
X112501878Y-25995703D02*
X112502170Y-25996097D01*
X175140851Y-26481039D02*
X175166847Y-26439987D01*
X137500201Y-98991655D02*
X137500297Y-98992136D01*
X184499583Y-180992612D02*
X184499702Y-180992136D01*
X137500081Y-102009318D02*
X137500057Y-102009809D01*
X146805173Y-99400259D02*
X146833152Y-99439987D01*
X162501605Y-98995295D02*
X162501878Y-98995703D01*
X121297380Y-26042631D02*
X121343519Y-26057874D01*
X175990122Y-26000000D02*
X184487727Y-26000000D01*
X125361952Y-28775278D02*
X125325158Y-28743539D01*
X171924637Y-174388855D02*
X171904946Y-174433278D01*
X121989281Y-174155262D02*
X121980974Y-174203138D01*
X184494874Y-98998646D02*
X184495295Y-98998394D01*
X112501122Y-25994441D02*
X112501353Y-25994874D01*
X150000000Y-99990122D02*
X150001195Y-99941423D01*
X137500559Y-171993082D02*
X137500724Y-171993544D01*
X112505125Y-29001353D02*
X112504704Y-29001605D01*
X160249450Y-150196338D02*
X160296861Y-150185692D01*
X137275278Y-77528619D02*
X137305173Y-77566926D01*
X162099740Y-150361493D02*
X162138047Y-150391388D01*
X159492612Y-171999583D02*
X159493082Y-171999440D01*
X121058576Y-172001195D02*
X121107036Y-172004770D01*
X162500201Y-29008344D02*
X162500129Y-29008830D01*
X137503522Y-102002482D02*
X137503159Y-102002811D01*
X171775278Y-101638047D02*
X171743539Y-101674841D01*
X125844737Y-99010718D02*
X125892963Y-99004770D01*
X135490122Y-53833333D02*
X136509877Y-53833333D01*
X159756460Y-150491825D02*
X159789966Y-150456633D01*
X121203138Y-101980974D02*
X121155262Y-101989281D01*
X171058576Y-28998804D02*
X171009877Y-29000000D01*
X150075362Y-174388855D02*
X150057874Y-174343519D01*
X162404946Y-73599944D02*
X162383099Y-73643348D01*
X184493544Y-29000724D02*
X184493082Y-29000559D01*
X184493544Y-98999275D02*
X184493997Y-98999087D01*
X137480974Y-77963527D02*
X137489281Y-78011403D01*
X134861952Y-123608611D02*
X134825158Y-123576872D01*
X137501605Y-98995295D02*
X137501878Y-98995703D01*
X184497829Y-102003902D02*
X184497517Y-102003522D01*
X135202619Y-123790701D02*
X135156480Y-123775459D01*
X136976681Y-147049766D02*
X136933278Y-147071613D01*
X162500297Y-98992136D02*
X162500416Y-98992612D01*
X184499583Y-20007387D02*
X184499440Y-20006917D01*
X146957368Y-172702619D02*
X146970328Y-172749450D01*
X137508344Y-98999798D02*
X137508830Y-98999870D01*
X171970328Y-174250549D02*
X171957368Y-174297380D01*
X121203138Y-26019025D02*
X121250549Y-26029671D01*
X137275278Y-50471380D02*
X137243539Y-50508174D01*
X121476681Y-99116900D02*
X121518960Y-99140851D01*
X184487972Y-98999996D02*
X184490190Y-98999942D01*
X159496840Y-98997188D02*
X159497188Y-98996840D01*
X134529671Y-150916117D02*
X134542631Y-150869285D01*
X150256460Y-174674841D02*
X150224721Y-174638047D01*
X184491169Y-175000129D02*
X184490681Y-175000081D01*
X171883099Y-26523318D02*
X171904946Y-26566721D01*
X162099740Y-127028160D02*
X162138047Y-127058055D01*
X146957368Y-26702619D02*
X146970328Y-26749450D01*
X159497188Y-171996840D02*
X159497517Y-171996477D01*
X146924637Y-172611144D02*
X146942125Y-172656480D01*
X112500559Y-20006917D02*
X112500416Y-20007387D01*
X162424637Y-50222188D02*
X162404946Y-50266611D01*
X146009877Y-29000000D02*
X137512272Y-29000000D01*
X171560012Y-26166847D02*
X171599740Y-26194826D01*
X121924637Y-99611144D02*
X121942125Y-99656480D01*
X171998804Y-28058576D02*
X171995229Y-28107036D01*
X137424637Y-123222188D02*
X137404946Y-123266611D01*
X184499798Y-98991655D02*
X184499870Y-98991169D01*
X121155262Y-26010718D02*
X121203138Y-26019025D01*
X175289966Y-26289966D02*
X175325158Y-26256460D01*
X134499798Y-29008344D02*
X134499702Y-29007863D01*
X175796861Y-28980974D02*
X175749450Y-28970328D01*
X161703138Y-50814307D02*
X161655262Y-50822615D01*
X121833152Y-172439987D02*
X121859148Y-172481039D01*
X134575362Y-127444477D02*
X134595053Y-127400055D01*
X134616900Y-73643348D02*
X134595053Y-73599944D01*
X125566721Y-28904946D02*
X125523318Y-28883099D01*
X125325158Y-172256460D02*
X125361952Y-172224721D01*
X162500416Y-102007387D02*
X162500297Y-102007863D01*
X184495295Y-175001605D02*
X184494874Y-175001353D01*
X125019025Y-172796861D02*
X125029671Y-172749450D01*
X112500129Y-25991169D02*
X112500201Y-25991655D01*
X112507863Y-175000297D02*
X112507387Y-175000416D01*
X171775278Y-174638047D02*
X171743539Y-174674841D01*
X146924637Y-174388855D02*
X146904946Y-174433278D01*
X184499918Y-180990681D02*
X184499942Y-180990190D01*
X171904946Y-99566721D02*
X171924637Y-99611144D01*
X112504704Y-98998394D02*
X112505125Y-98998646D01*
X134640851Y-127314373D02*
X134666847Y-127273320D01*
X136558576Y-77167862D02*
X136607036Y-77171436D01*
X150116900Y-172523318D02*
X150140851Y-172481039D01*
X159491169Y-171999870D02*
X159491655Y-171999798D01*
X171476681Y-26116900D02*
X171518960Y-26140851D01*
X134499798Y-98991655D02*
X134499870Y-98991169D01*
X150224721Y-101638047D02*
X150194826Y-101599740D01*
X134666847Y-123393346D02*
X134640851Y-123352293D01*
X162383099Y-54356651D02*
X162404946Y-54400055D01*
X134500000Y-127823456D02*
X134500000Y-127823456D01*
X175481039Y-172140851D02*
X175523318Y-172116900D01*
X162442125Y-73510186D02*
X162424637Y-73555522D01*
X159490681Y-29000081D02*
X159490190Y-29000057D01*
X135202619Y-53875965D02*
X135249450Y-53863005D01*
X161976681Y-126950233D02*
X162018960Y-126974184D01*
X175019025Y-99796861D02*
X175029671Y-99749450D01*
X184496840Y-171997188D02*
X184497188Y-171996840D01*
X159542631Y-50130714D02*
X159529671Y-50083882D01*
X146203138Y-172019025D02*
X146250549Y-172029671D01*
X171343519Y-174942125D02*
X171297380Y-174957368D01*
X134861952Y-50608611D02*
X134825158Y-50576872D01*
X125702619Y-174957368D02*
X125656480Y-174942125D01*
X134981039Y-74025815D02*
X134939987Y-73999819D01*
X184493544Y-102000724D02*
X184493082Y-102000559D01*
X146560012Y-28833152D02*
X146518960Y-28859148D01*
X171388855Y-174924637D02*
X171343519Y-174942125D01*
X159861952Y-123608611D02*
X159825158Y-123576872D01*
X146743539Y-174674841D02*
X146710033Y-174710033D01*
X121942125Y-99656480D02*
X121957368Y-99702619D01*
X125523318Y-172116900D02*
X125566721Y-172095053D01*
X137275278Y-146804714D02*
X137243539Y-146841508D01*
X175289966Y-101710033D02*
X175256460Y-101674841D01*
X134724721Y-127195285D02*
X134756460Y-127158491D01*
X159694826Y-50433073D02*
X159666847Y-50393346D01*
X134499996Y-171987972D02*
X134500000Y-171987727D01*
X125166847Y-26439987D02*
X125194826Y-26400259D01*
X159504770Y-49940370D02*
X159501195Y-49891910D01*
X159504770Y-151059629D02*
X159510718Y-151011403D01*
X159497517Y-102003522D02*
X159497188Y-102003159D01*
X160392963Y-126838103D02*
X160441423Y-126834528D01*
X162174841Y-127089793D02*
X162210033Y-127123299D01*
X184499275Y-20006455D02*
X184499087Y-20006002D01*
X171476681Y-99116900D02*
X171518960Y-99140851D01*
X137507387Y-29000416D02*
X137506917Y-29000559D01*
X150656480Y-26057874D02*
X150702619Y-26042631D01*
X112503159Y-29002811D02*
X112502811Y-29003159D01*
X184500000Y-175012272D02*
X184499996Y-175012027D01*
X121859148Y-172481039D02*
X121883099Y-172523318D01*
X112500416Y-171992612D02*
X112500559Y-171993082D01*
X162503159Y-171997188D02*
X162503522Y-171997517D01*
X150289966Y-99289966D02*
X150325158Y-99256460D01*
X162018960Y-77307517D02*
X162060012Y-77333514D01*
X159900259Y-54028160D02*
X159939987Y-54000180D01*
X121980974Y-26796861D02*
X121989281Y-26844737D01*
X121957368Y-28297380D02*
X121942125Y-28343519D01*
X137501605Y-171995295D02*
X137501878Y-171995703D01*
X137060012Y-73999819D02*
X137018960Y-74025815D01*
X121743539Y-28674841D02*
X121710033Y-28710033D01*
X146343519Y-174942125D02*
X146297380Y-174957368D01*
X137504704Y-29001605D02*
X137504296Y-29001878D01*
X112500559Y-102006917D02*
X112500416Y-102007387D01*
X171710033Y-26289966D02*
X171743539Y-26325158D01*
X134490190Y-102000057D02*
X134487972Y-102000003D01*
X125095053Y-101433278D02*
X125075362Y-101388855D01*
X161607036Y-123828563D02*
X161558576Y-123832137D01*
X161750549Y-50803661D02*
X161703138Y-50814307D01*
X137404946Y-77733388D02*
X137424637Y-77777811D01*
X159498394Y-29004704D02*
X159498121Y-29004296D01*
X121904946Y-99566721D02*
X121924637Y-99611144D01*
X134595053Y-123266611D02*
X134575362Y-123222188D01*
X134666847Y-73726679D02*
X134640851Y-73685626D01*
X134497188Y-102003159D02*
X134496840Y-102002811D01*
X159666847Y-50393346D02*
X159640851Y-50352293D01*
X159595053Y-127400055D02*
X159616900Y-127356651D01*
X134499798Y-102008344D02*
X134499702Y-102007863D01*
X162470328Y-146417216D02*
X162457368Y-146464047D01*
X159694826Y-150566926D02*
X159724721Y-150528619D01*
X175289966Y-172289966D02*
X175325158Y-172256460D01*
X137275278Y-150528619D02*
X137305173Y-150566926D01*
X134498646Y-29005125D02*
X134498394Y-29004704D01*
X137509318Y-29000081D02*
X137508830Y-29000129D01*
X161558576Y-74165471D02*
X161509877Y-74166666D01*
X137500000Y-146176543D02*
X137498804Y-146225243D01*
X137442125Y-54489813D02*
X137457368Y-54535952D01*
X175523318Y-101883099D02*
X175481039Y-101859148D01*
X137508344Y-102000201D02*
X137507863Y-102000297D01*
X125095053Y-26566721D02*
X125116900Y-26523318D01*
X137506917Y-102000559D02*
X137506455Y-102000724D01*
X112500129Y-175008830D02*
X112500081Y-175009318D01*
X134491169Y-29000129D02*
X134490681Y-29000081D01*
X146674841Y-26256460D02*
X146710033Y-26289966D01*
X175749450Y-26029671D02*
X175796861Y-26019025D01*
X112500416Y-25992612D02*
X112500559Y-25993082D01*
X162509809Y-29000057D02*
X162509318Y-29000081D01*
X137512027Y-98999996D02*
X137512272Y-99000000D01*
X162503522Y-29002482D02*
X162503159Y-29002811D01*
X135441423Y-147165471D02*
X135392963Y-147161896D01*
X162305173Y-127233592D02*
X162333152Y-127273320D01*
X184496477Y-98997517D02*
X184496840Y-98997188D01*
X121599740Y-174805173D02*
X121560012Y-174833152D01*
X184492136Y-180999702D02*
X184492612Y-180999583D01*
X175566721Y-174904946D02*
X175523318Y-174883099D01*
X112502170Y-102003902D02*
X112501878Y-102004296D01*
X175361952Y-101775278D02*
X175325158Y-101743539D01*
X136655262Y-53844051D02*
X136703138Y-53852358D01*
X125400259Y-99194826D02*
X125439987Y-99166847D01*
X137210033Y-123543366D02*
X137174841Y-123576872D01*
X134519025Y-54630194D02*
X134529671Y-54582783D01*
X134499440Y-102006917D02*
X134499275Y-102006455D01*
X134825158Y-146910206D02*
X134789966Y-146876700D01*
X137018960Y-150307517D02*
X137060012Y-150333514D01*
X184495703Y-102001878D02*
X184495295Y-102001605D01*
X112501353Y-29005125D02*
X112501122Y-29005558D01*
X112501878Y-175004296D02*
X112501605Y-175004704D01*
X161655262Y-77177384D02*
X161703138Y-77185692D01*
X146560012Y-99166847D02*
X146599740Y-99194826D01*
X137333152Y-73726679D02*
X137305173Y-73766407D01*
X162174841Y-123576872D02*
X162138047Y-123608611D01*
X125990122Y-175000000D02*
X125941423Y-174998804D01*
X171989281Y-172844737D02*
X171995229Y-172892963D01*
X146388855Y-101924637D02*
X146343519Y-101942125D01*
X134616900Y-127356651D02*
X134640851Y-127314373D01*
X112501605Y-25995295D02*
X112501878Y-25995703D01*
X134495295Y-171998394D02*
X134495703Y-171998121D01*
X125019025Y-99796861D02*
X125029671Y-99749450D01*
X161976681Y-53950233D02*
X162018960Y-53974184D01*
X159861952Y-54058055D02*
X159900259Y-54028160D01*
X171203138Y-101980974D02*
X171155262Y-101989281D01*
X134724721Y-54195285D02*
X134756460Y-54158491D01*
X150140851Y-99481039D02*
X150166847Y-99439987D01*
X150439987Y-174833152D02*
X150400259Y-174805173D01*
X159694826Y-73766407D02*
X159666847Y-73726679D01*
X184500000Y-180987727D02*
X184500000Y-175012272D01*
X175361952Y-172224721D02*
X175400259Y-172194826D01*
X171250549Y-174970328D02*
X171203138Y-174980974D01*
X161703138Y-77185692D02*
X161750549Y-77196338D01*
X162174841Y-150423127D02*
X162210033Y-150456633D01*
X125000000Y-174009877D02*
X125000000Y-172990122D01*
X125361952Y-26224721D02*
X125400259Y-26194826D01*
X159493997Y-171999087D02*
X159494441Y-171998877D01*
X150116900Y-28476681D02*
X150095053Y-28433278D01*
X134496840Y-171997188D02*
X134497188Y-171996840D01*
X112505125Y-20001353D02*
X112504704Y-20001605D01*
X137442125Y-73510186D02*
X137424637Y-73555522D01*
X161655262Y-50822615D02*
X161607036Y-50828563D01*
X125796861Y-28980974D02*
X125749450Y-28970328D01*
X162502170Y-102003902D02*
X162501878Y-102004296D01*
X184495703Y-98998121D02*
X184496097Y-98997829D01*
X161888855Y-53908695D02*
X161933278Y-53928386D01*
X159499440Y-98993082D02*
X159499583Y-98992612D01*
X162508344Y-29000201D02*
X162507863Y-29000297D01*
X184492136Y-20000297D02*
X184491655Y-20000201D01*
X159499583Y-102007387D02*
X159499440Y-102006917D01*
X121250549Y-26029671D02*
X121297380Y-26042631D01*
X137099740Y-54028160D02*
X137138047Y-54058055D01*
X150140851Y-28518960D02*
X150116900Y-28476681D01*
X159542631Y-73464047D02*
X159529671Y-73417216D01*
X160111144Y-150242028D02*
X160156480Y-150224540D01*
X150361952Y-26224721D02*
X150400259Y-26194826D01*
X134575362Y-54444477D02*
X134595053Y-54400055D01*
X134498877Y-102005558D02*
X134498646Y-102005125D01*
X150289966Y-174710033D02*
X150256460Y-174674841D01*
X112500912Y-175006002D02*
X112500724Y-175006455D01*
X184498877Y-102005558D02*
X184498646Y-102005125D01*
X137174841Y-50576872D02*
X137138047Y-50608611D01*
X121859148Y-26481039D02*
X121883099Y-26523318D01*
X150749450Y-174970328D02*
X150702619Y-174957368D01*
X184487972Y-25999996D02*
X184490190Y-25999942D01*
X159529671Y-146417216D02*
X159519025Y-146369805D01*
X137504704Y-171998394D02*
X137505125Y-171998646D01*
X125010718Y-172844737D02*
X125019025Y-172796861D01*
X160066721Y-126928386D02*
X160111144Y-126908695D01*
X112504296Y-98998121D02*
X112504704Y-98998394D01*
X175256460Y-99325158D02*
X175289966Y-99289966D01*
X160441423Y-150167862D02*
X160490122Y-150166666D01*
X159756460Y-77491825D02*
X159789966Y-77456633D01*
X112504704Y-29001605D02*
X112504296Y-29001878D01*
X137359148Y-123352293D02*
X137333152Y-123393346D01*
X137383099Y-50310014D02*
X137359148Y-50352293D01*
X112503902Y-175002170D02*
X112503522Y-175002482D01*
X134493997Y-98999087D02*
X134494441Y-98998877D01*
X112501353Y-25994874D02*
X112501605Y-25995295D01*
X121599740Y-172194826D02*
X121638047Y-172224721D01*
X175439987Y-172166847D02*
X175481039Y-172140851D01*
X112502811Y-98996840D02*
X112503159Y-98997188D01*
X160156480Y-147108792D02*
X160111144Y-147091304D01*
X121995229Y-101107036D02*
X121989281Y-101155262D01*
X134542631Y-50130714D02*
X134529671Y-50083882D01*
X121638047Y-26224721D02*
X121674841Y-26256460D01*
X146638047Y-26224721D02*
X146674841Y-26256460D01*
X150796861Y-172019025D02*
X150844737Y-172010718D01*
X137500297Y-98992136D02*
X137500416Y-98992612D01*
X150019025Y-101203138D02*
X150010718Y-101155262D01*
X150749450Y-99029671D02*
X150796861Y-99019025D01*
X137333152Y-54273320D02*
X137359148Y-54314373D01*
X162509809Y-102000057D02*
X162509318Y-102000081D01*
X162495229Y-151059629D02*
X162498804Y-151108089D01*
X150325158Y-101743539D02*
X150289966Y-101710033D01*
X137470328Y-127582783D02*
X137480974Y-127630194D01*
X159557874Y-50176853D02*
X159542631Y-50130714D01*
X146883099Y-101476681D02*
X146859148Y-101518960D01*
X112509318Y-20000081D02*
X112508830Y-20000129D01*
X171599740Y-99194826D02*
X171638047Y-99224721D01*
X162498804Y-49891910D02*
X162495229Y-49940370D01*
X112500201Y-29008344D02*
X112500129Y-29008830D01*
X171433278Y-101904946D02*
X171388855Y-101924637D01*
X137500081Y-98990681D02*
X137500129Y-98991169D01*
X171433278Y-174904946D02*
X171388855Y-174924637D01*
X137500000Y-98987727D02*
X137500003Y-98987972D01*
X146970328Y-172749450D02*
X146980974Y-172796861D01*
X150611144Y-172075362D02*
X150656480Y-172057874D01*
X175702619Y-28957368D02*
X175656480Y-28942125D01*
X160202619Y-53875965D02*
X160249450Y-53863005D01*
X159492612Y-102000416D02*
X159492136Y-102000297D01*
X136509877Y-147166666D02*
X135490122Y-147166666D01*
X112504704Y-102001605D02*
X112504296Y-102001878D01*
X162359148Y-73685626D02*
X162333152Y-73726679D01*
X121518960Y-28859148D02*
X121476681Y-28883099D01*
X184497517Y-171996477D02*
X184497829Y-171996097D01*
X121743539Y-99325158D02*
X121775278Y-99361952D01*
X137501122Y-102005558D02*
X137500912Y-102006002D01*
X112505125Y-180998646D02*
X112505558Y-180998877D01*
X161703138Y-150185692D02*
X161750549Y-150196338D01*
X171107036Y-101995229D02*
X171058576Y-101998804D01*
X184492612Y-180999583D02*
X184493082Y-180999440D01*
X112502811Y-175003159D02*
X112502482Y-175003522D01*
X125749450Y-101970328D02*
X125702619Y-101957368D01*
X112502811Y-20003159D02*
X112502482Y-20003522D01*
X146250549Y-101970328D02*
X146203138Y-101980974D01*
X134981039Y-77307517D02*
X135023318Y-77283567D01*
X134497517Y-98996477D02*
X134497829Y-98996097D01*
X150001195Y-99941423D02*
X150004770Y-99892963D01*
X160111144Y-50757971D02*
X160066721Y-50738280D01*
X162424637Y-77777811D02*
X162442125Y-77823146D01*
X159497188Y-102003159D02*
X159496840Y-102002811D01*
X137424637Y-73555522D02*
X137404946Y-73599944D01*
X184499870Y-25991169D02*
X184499918Y-25990681D01*
X121518960Y-99140851D02*
X121560012Y-99166847D01*
X121674841Y-99256460D02*
X121710033Y-99289966D01*
X112506917Y-175000559D02*
X112506455Y-175000724D01*
X150194826Y-26400259D02*
X150224721Y-26361952D01*
X162500000Y-146176543D02*
X162498804Y-146225243D01*
X184490681Y-29000081D02*
X184490190Y-29000057D01*
X112500912Y-20006002D02*
X112500724Y-20006455D01*
X171995229Y-26892963D02*
X171998804Y-26941423D01*
X112508830Y-102000129D02*
X112508344Y-102000201D01*
X134616900Y-123310014D02*
X134595053Y-123266611D01*
X137498804Y-122891910D02*
X137495229Y-122940370D01*
X136703138Y-126852358D02*
X136750549Y-126863005D01*
X146343519Y-26057874D02*
X146388855Y-26075362D01*
X146859148Y-28518960D02*
X146833152Y-28560012D01*
X175796861Y-99019025D02*
X175844737Y-99010718D01*
X171343519Y-26057874D02*
X171388855Y-26075362D01*
X150439987Y-172166847D02*
X150481039Y-172140851D01*
X171883099Y-28476681D02*
X171859148Y-28518960D01*
X136750549Y-147136994D02*
X136703138Y-147147641D01*
X159640851Y-150647706D02*
X159666847Y-150606653D01*
X146970328Y-26749450D02*
X146980974Y-26796861D01*
X184493997Y-180999087D02*
X184494441Y-180998877D01*
X122000000Y-101009877D02*
X121998804Y-101058576D01*
X150000000Y-101009877D02*
X150000000Y-99990122D01*
X146859148Y-174518960D02*
X146833152Y-174560012D01*
X159510718Y-78011403D02*
X159519025Y-77963527D01*
X184491655Y-98999798D02*
X184492136Y-98999702D01*
X137383099Y-77689985D02*
X137404946Y-77733388D01*
X159490190Y-98999942D02*
X159490190Y-98999942D01*
X171998804Y-99941423D02*
X172000000Y-99990122D01*
X162210033Y-77456633D02*
X162243539Y-77491825D01*
X159756460Y-146841508D02*
X159724721Y-146804714D01*
X162502482Y-102003522D02*
X162502170Y-102003902D01*
X146388855Y-28924637D02*
X146343519Y-28942125D01*
X112503902Y-29002170D02*
X112503522Y-29002482D01*
X162500559Y-171993082D02*
X162500724Y-171993544D01*
X159492136Y-98999702D02*
X159492612Y-98999583D01*
X150001195Y-26941423D02*
X150004770Y-26892963D01*
X175439987Y-99166847D02*
X175481039Y-99140851D01*
X136703138Y-74147641D02*
X136655262Y-74155948D01*
X150256460Y-28674841D02*
X150224721Y-28638047D01*
X112507863Y-25999702D02*
X112508344Y-25999798D01*
X134500000Y-151156789D02*
X134501195Y-151108089D01*
X160066721Y-150261719D02*
X160111144Y-150242028D01*
X134496840Y-98997188D02*
X134497188Y-98996840D01*
X134497517Y-29003522D02*
X134497188Y-29003159D01*
X136797380Y-126875965D02*
X136843519Y-126891207D01*
X159498877Y-29005558D02*
X159498646Y-29005125D01*
X162489281Y-49988596D02*
X162480974Y-50036472D01*
X171058576Y-26001195D02*
X171107036Y-26004770D01*
X121942125Y-28343519D02*
X121924637Y-28388855D01*
X184499583Y-102007387D02*
X184499440Y-102006917D01*
X146638047Y-174775278D02*
X146599740Y-174805173D01*
X134493544Y-98999275D02*
X134493997Y-98999087D01*
X159499942Y-29009809D02*
X159499942Y-29009809D01*
X162502170Y-98996097D02*
X162502482Y-98996477D01*
X162500000Y-29012272D02*
X162500000Y-49843210D01*
X135249450Y-77196338D02*
X135296861Y-77185692D01*
X137500416Y-29007387D02*
X137500297Y-29007863D01*
X150523318Y-28883099D02*
X150481039Y-28859148D01*
X125194826Y-99400259D02*
X125224721Y-99361952D01*
X159500000Y-73176543D02*
X159500000Y-54823456D01*
X150194826Y-28599740D02*
X150166847Y-28560012D01*
X112504296Y-29001878D02*
X112503902Y-29002170D01*
X162480974Y-123036472D02*
X162470328Y-123083882D01*
X159491169Y-102000129D02*
X159490681Y-102000081D01*
X121155262Y-101989281D02*
X121107036Y-101995229D01*
X162489281Y-54678070D02*
X162495229Y-54726296D01*
X160066721Y-53928386D02*
X160111144Y-53908695D01*
X159756460Y-50508174D02*
X159724721Y-50471380D01*
X112512027Y-25999996D02*
X112512272Y-26000000D01*
X137507863Y-29000297D02*
X137507387Y-29000416D01*
X146476681Y-99116900D02*
X146518960Y-99140851D01*
X121980974Y-101203138D02*
X121970328Y-101250549D01*
X162507387Y-98999583D02*
X162507863Y-98999702D01*
X134825158Y-127089793D02*
X134861952Y-127058055D01*
X125749450Y-174970328D02*
X125702619Y-174957368D01*
X162480974Y-146369805D02*
X162470328Y-146417216D01*
X161843519Y-126891207D02*
X161888855Y-126908695D01*
X184500000Y-98987727D02*
X184500000Y-29012272D01*
X150523318Y-101883099D02*
X150481039Y-101859148D01*
X159499087Y-98993997D02*
X159499275Y-98993544D01*
X134490681Y-98999918D02*
X134491169Y-98999870D01*
X150004770Y-99892963D02*
X150010718Y-99844737D01*
X146518960Y-174859148D02*
X146476681Y-174883099D01*
X136750549Y-50803661D02*
X136703138Y-50814307D01*
X162359148Y-123352293D02*
X162333152Y-123393346D01*
X159575362Y-123222188D02*
X159557874Y-123176853D01*
X136797380Y-77209298D02*
X136843519Y-77224540D01*
X175004770Y-26892963D02*
X175010718Y-26844737D01*
X125194826Y-28599740D02*
X125166847Y-28560012D01*
X125892963Y-99004770D02*
X125941423Y-99001195D01*
X112506917Y-102000559D02*
X112506455Y-102000724D01*
X159510718Y-146321929D02*
X159504770Y-146273703D01*
X171599740Y-101805173D02*
X171560012Y-101833152D01*
X171058576Y-99001195D02*
X171107036Y-99004770D01*
X162243539Y-146841508D02*
X162210033Y-146876700D01*
X184487727Y-20000000D02*
X112512272Y-20000000D01*
X125224721Y-26361952D02*
X125256460Y-26325158D01*
X162507863Y-98999702D02*
X162508344Y-98999798D01*
X160023318Y-126950233D02*
X160066721Y-126928386D01*
X162442125Y-123176853D02*
X162424637Y-123222188D01*
X159499918Y-98990681D02*
X159499942Y-98990190D01*
X134557874Y-127489813D02*
X134575362Y-127444477D01*
X134499942Y-171990190D02*
X134499996Y-171987972D01*
X171710033Y-28710033D02*
X171674841Y-28743539D01*
X125140851Y-174518960D02*
X125116900Y-174476681D01*
X134494441Y-29001122D02*
X134493997Y-29000912D01*
X150095053Y-99566721D02*
X150116900Y-99523318D01*
X159981039Y-74025815D02*
X159939987Y-73999819D01*
X137404946Y-146599944D02*
X137383099Y-146643348D01*
X134491655Y-98999798D02*
X134492136Y-98999702D01*
X159666847Y-127273320D02*
X159694826Y-127233592D01*
X137489281Y-127678070D02*
X137495229Y-127726296D01*
X112500057Y-98990190D02*
X112500081Y-98990681D01*
X137505125Y-98998646D02*
X137505558Y-98998877D01*
X162500003Y-171987972D02*
X162500057Y-171990190D01*
X184499087Y-25993997D02*
X184499275Y-25993544D01*
X121203138Y-174980974D02*
X121155262Y-174989281D01*
X160490122Y-74166666D02*
X160441423Y-74165471D01*
X161933278Y-123738280D02*
X161888855Y-123757971D01*
X171009877Y-172000000D02*
X171058576Y-172001195D01*
X146833152Y-26439987D02*
X146859148Y-26481039D01*
X146942125Y-99656480D02*
X146957368Y-99702619D01*
X146560012Y-101833152D02*
X146518960Y-101859148D01*
X134519025Y-50036472D02*
X134510718Y-49988596D01*
X121638047Y-101775278D02*
X121599740Y-101805173D01*
X171957368Y-99702619D02*
X171970328Y-99749450D01*
X184490681Y-98999918D02*
X184491169Y-98999870D01*
X134496097Y-171997829D02*
X134496477Y-171997517D01*
X112500003Y-171987972D02*
X112500057Y-171990190D01*
X184499087Y-98993997D02*
X184499275Y-98993544D01*
X136607036Y-123828563D02*
X136558576Y-123832137D01*
X171743539Y-172325158D02*
X171775278Y-172361952D01*
X184495703Y-29001878D02*
X184495295Y-29001605D01*
X112500000Y-98987727D02*
X112500003Y-98987972D01*
X175019025Y-26796861D02*
X175029671Y-26749450D01*
X125010718Y-174155262D02*
X125004770Y-174107036D01*
X150796861Y-99019025D02*
X150844737Y-99010718D01*
X121998804Y-28058576D02*
X121995229Y-28107036D01*
X171989281Y-28155262D02*
X171980974Y-28203138D01*
X135344737Y-126844051D02*
X135392963Y-126838103D01*
X121203138Y-99019025D02*
X121250549Y-99029671D01*
X160156480Y-123775459D02*
X160111144Y-123757971D01*
X171155262Y-174989281D02*
X171107036Y-174995229D01*
X146883099Y-99523318D02*
X146904946Y-99566721D01*
X184500000Y-102012272D02*
X184499996Y-102012027D01*
X134595053Y-127400055D02*
X134616900Y-127356651D01*
X160441423Y-77167862D02*
X160490122Y-77166666D01*
X159616900Y-146643348D02*
X159595053Y-146599944D01*
X137305173Y-50433073D02*
X137275278Y-50471380D01*
X146638047Y-99224721D02*
X146674841Y-99256460D01*
X162424637Y-150777811D02*
X162442125Y-150823146D01*
X137495229Y-54726296D02*
X137498804Y-54774756D01*
X150224721Y-174638047D02*
X150194826Y-174599740D01*
X121674841Y-174743539D02*
X121638047Y-174775278D01*
X171560012Y-28833152D02*
X171518960Y-28859148D01*
X162424637Y-73555522D02*
X162404946Y-73599944D01*
X121998804Y-174058576D02*
X121995229Y-174107036D01*
X150941423Y-28998804D02*
X150892963Y-28995229D01*
X112509318Y-102000081D02*
X112508830Y-102000129D01*
X125057874Y-174343519D02*
X125042631Y-174297380D01*
X125116900Y-99523318D02*
X125140851Y-99481039D01*
X137210033Y-54123299D02*
X137243539Y-54158491D01*
X121009877Y-26000000D02*
X121058576Y-26001195D01*
X159499087Y-171993997D02*
X159499275Y-171993544D01*
X121674841Y-172256460D02*
X121710033Y-172289966D01*
X171388855Y-99075362D02*
X171433278Y-99095053D01*
X171957368Y-28297380D02*
X171942125Y-28343519D01*
X162359148Y-127314373D02*
X162383099Y-127356651D01*
X159595053Y-77733388D02*
X159616900Y-77689985D01*
X137333152Y-123393346D02*
X137305173Y-123433073D01*
X125325158Y-174743539D02*
X125289966Y-174710033D01*
X137457368Y-123130714D02*
X137442125Y-123176853D01*
X175010718Y-101155262D02*
X175004770Y-101107036D01*
X112512027Y-171999996D02*
X112512272Y-172000000D01*
X112512272Y-181000000D02*
X184487727Y-181000000D01*
X162505125Y-171998646D02*
X162505558Y-171998877D01*
X150010718Y-101155262D02*
X150004770Y-101107036D01*
X112508344Y-98999798D02*
X112508830Y-98999870D01*
X162500912Y-98993997D02*
X162501122Y-98994441D01*
X125656480Y-28942125D02*
X125611144Y-28924637D01*
X134496840Y-29002811D02*
X134496477Y-29002482D01*
X161933278Y-53928386D02*
X161976681Y-53950233D01*
X121833152Y-174560012D02*
X121805173Y-174599740D01*
X159499275Y-102006455D02*
X159499087Y-102006002D01*
X137174841Y-123576872D02*
X137138047Y-123608611D01*
X184499870Y-180991169D02*
X184499918Y-180990681D01*
X162503902Y-171997829D02*
X162504296Y-171998121D01*
X134724721Y-77528619D02*
X134756460Y-77491825D01*
X112505558Y-171998877D02*
X112506002Y-171999087D01*
X150010718Y-172844737D02*
X150019025Y-172796861D01*
X112500297Y-180992136D02*
X112500416Y-180992612D01*
X159501195Y-151108089D02*
X159504770Y-151059629D01*
X112509809Y-98999942D02*
X112512027Y-98999996D01*
X162442125Y-127489813D02*
X162457368Y-127535952D01*
X146710033Y-172289966D02*
X146743539Y-172325158D01*
X146805173Y-28599740D02*
X146775278Y-28638047D01*
X112500724Y-102006455D02*
X112500559Y-102006917D01*
X159981039Y-53974184D02*
X160023318Y-53950233D01*
X175000000Y-174009877D02*
X175000000Y-172990122D01*
X112509318Y-98999918D02*
X112509809Y-98999942D01*
X112504296Y-171998121D02*
X112504704Y-171998394D01*
X150702619Y-172042631D02*
X150749450Y-172029671D01*
X137505558Y-102001122D02*
X137505125Y-102001353D01*
X112509809Y-180999942D02*
X112512027Y-180999996D01*
X134616900Y-50310014D02*
X134595053Y-50266611D01*
X162498804Y-127774756D02*
X162500000Y-127823456D01*
X162500416Y-171992612D02*
X162500559Y-171993082D01*
X160296861Y-77185692D02*
X160344737Y-77177384D01*
X137500000Y-54823456D02*
X137500000Y-73176543D01*
X171343519Y-172057874D02*
X171388855Y-172075362D01*
X137174841Y-77423127D02*
X137210033Y-77456633D01*
X112501353Y-102005125D02*
X112501122Y-102005558D01*
X137305173Y-77566926D02*
X137333152Y-77606653D01*
X159861952Y-73941944D02*
X159825158Y-73910206D01*
X150941423Y-101998804D02*
X150892963Y-101995229D01*
X159499918Y-171990681D02*
X159499942Y-171990190D01*
X121904946Y-172566721D02*
X121924637Y-172611144D01*
X112500297Y-175007863D02*
X112500201Y-175008344D01*
X137512272Y-102000000D02*
X137512027Y-102000003D01*
X184493082Y-25999440D02*
X184493544Y-25999275D01*
X184493082Y-171999440D02*
X184493544Y-171999275D01*
X146058576Y-28998804D02*
X146009877Y-29000000D01*
X134499583Y-29007387D02*
X134499440Y-29006917D01*
X146980974Y-174203138D02*
X146970328Y-174250549D01*
X175844737Y-172010718D02*
X175892963Y-172004770D01*
X137503159Y-98997188D02*
X137503522Y-98997517D01*
X159500000Y-122843210D02*
X159500000Y-102012272D01*
X159490190Y-102000057D02*
X159487972Y-102000003D01*
X175004770Y-28107036D02*
X175001195Y-28058576D01*
X136888855Y-126908695D02*
X136933278Y-126928386D01*
X160490122Y-126833333D02*
X161509877Y-126833333D01*
X161509877Y-50833333D02*
X160490122Y-50833333D01*
X112505558Y-20001122D02*
X112505125Y-20001353D01*
X162275278Y-50471380D02*
X162243539Y-50508174D01*
X134493997Y-29000912D02*
X134493544Y-29000724D01*
X146743539Y-26325158D02*
X146775278Y-26361952D01*
X159493997Y-102000912D02*
X159493544Y-102000724D01*
X162500201Y-102008344D02*
X162500129Y-102008830D01*
X171924637Y-172611144D02*
X171942125Y-172656480D01*
X162495229Y-73273703D02*
X162489281Y-73321929D01*
X112506917Y-171999440D02*
X112507387Y-171999583D01*
X134900259Y-50638506D02*
X134861952Y-50608611D01*
X161797380Y-50790701D02*
X161750549Y-50803661D01*
X159499996Y-29012027D02*
X159499942Y-29009809D01*
X162018960Y-123692482D02*
X161976681Y-123716432D01*
X184492612Y-29000416D02*
X184492136Y-29000297D01*
X134542631Y-73464047D02*
X134529671Y-73417216D01*
X112500201Y-102008344D02*
X112500129Y-102008830D01*
X150010718Y-99844737D02*
X150019025Y-99796861D01*
X171970328Y-26749450D02*
X171980974Y-26796861D01*
X162060012Y-123666485D02*
X162018960Y-123692482D01*
X184491169Y-25999870D02*
X184491655Y-25999798D01*
X175749450Y-101970328D02*
X175702619Y-101957368D01*
X159501195Y-78108089D02*
X159504770Y-78059629D01*
X137500724Y-171993544D02*
X137500912Y-171993997D01*
X112504704Y-175001605D02*
X112504296Y-175001878D01*
X171297380Y-174957368D02*
X171250549Y-174970328D01*
X162305173Y-146766407D02*
X162275278Y-146804714D01*
X121942125Y-174343519D02*
X121924637Y-174388855D01*
X125892963Y-172004770D02*
X125941423Y-172001195D01*
X125481039Y-26140851D02*
X125523318Y-26116900D01*
X162305173Y-150566926D02*
X162333152Y-150606653D01*
X125481039Y-172140851D02*
X125523318Y-172116900D01*
X112503159Y-180997188D02*
X112503522Y-180997517D01*
X112500724Y-98993544D02*
X112500912Y-98993997D01*
X112501878Y-180995703D02*
X112502170Y-180996097D01*
X159496097Y-29002170D02*
X159495703Y-29001878D01*
X159900259Y-146971839D02*
X159861952Y-146941944D01*
X150166847Y-26439987D02*
X150194826Y-26400259D01*
X112500912Y-171993997D02*
X112501122Y-171994441D01*
X159498646Y-102005125D02*
X159498394Y-102004704D01*
X175702619Y-99042631D02*
X175749450Y-99029671D01*
X134490190Y-98999942D02*
X134490681Y-98999918D01*
X125029671Y-28250549D02*
X125019025Y-28203138D01*
X160441423Y-74165471D02*
X160392963Y-74161896D01*
X112504296Y-102001878D02*
X112503902Y-102002170D01*
X112508830Y-175000129D02*
X112508344Y-175000201D01*
X137243539Y-150491825D02*
X137275278Y-150528619D01*
X184497829Y-175003902D02*
X184497517Y-175003522D01*
X184498121Y-98995703D02*
X184498394Y-98995295D01*
X125116900Y-172523318D02*
X125140851Y-172481039D01*
X137138047Y-54058055D02*
X137174841Y-54089793D01*
X134575362Y-146555522D02*
X134557874Y-146510186D01*
X159510718Y-151011403D02*
X159519025Y-150963527D01*
X137500000Y-29012272D02*
X137500000Y-49843210D01*
X159640851Y-73685626D02*
X159616900Y-73643348D01*
X125749450Y-26029671D02*
X125796861Y-26019025D01*
X162480974Y-73369805D02*
X162470328Y-73417216D01*
X146942125Y-26656480D02*
X146957368Y-26702619D01*
X137495229Y-127726296D02*
X137498804Y-127774756D01*
X162018960Y-50692482D02*
X161976681Y-50716432D01*
X175001195Y-101058576D02*
X175000000Y-101009877D01*
X171476681Y-174883099D02*
X171433278Y-174904946D01*
X137424637Y-54444477D02*
X137442125Y-54489813D01*
X146674841Y-174743539D02*
X146638047Y-174775278D01*
X159499702Y-29007863D02*
X159499583Y-29007387D01*
X134510718Y-122988596D02*
X134504770Y-122940370D01*
X184499440Y-102006917D02*
X184499275Y-102006455D01*
X134939987Y-54000180D02*
X134981039Y-53974184D01*
X125844737Y-28989281D02*
X125796861Y-28980974D01*
X161888855Y-123757971D02*
X161843519Y-123775459D01*
X137018960Y-74025815D02*
X136976681Y-74049766D01*
X159492612Y-29000416D02*
X159492136Y-29000297D01*
X121904946Y-174433278D02*
X121883099Y-174476681D01*
X135023318Y-123716432D02*
X134981039Y-123692482D01*
X162505558Y-102001122D02*
X162505125Y-102001353D01*
X112509809Y-29000057D02*
X112509318Y-29000081D01*
X161655262Y-74155948D02*
X161607036Y-74161896D01*
X137507387Y-98999583D02*
X137507863Y-98999702D01*
X137509318Y-98999918D02*
X137509809Y-98999942D01*
X137060012Y-54000180D02*
X137099740Y-54028160D01*
X184499870Y-29008830D02*
X184499798Y-29008344D01*
X112500416Y-175007387D02*
X112500297Y-175007863D01*
X125796861Y-172019025D02*
X125844737Y-172010718D01*
X146388855Y-172075362D02*
X146433278Y-172095053D01*
X137500912Y-171993997D02*
X137501122Y-171994441D01*
X121970328Y-99749450D02*
X121980974Y-99796861D01*
X135202619Y-126875965D02*
X135249450Y-126863005D01*
X134491655Y-29000201D02*
X134491169Y-29000129D01*
X137501353Y-102005125D02*
X137501122Y-102005558D01*
X112508830Y-98999870D02*
X112509318Y-98999918D01*
X160111144Y-147091304D02*
X160066721Y-147071613D01*
X136843519Y-50775459D02*
X136797380Y-50790701D01*
X171203138Y-28980974D02*
X171155262Y-28989281D01*
X134694826Y-77566926D02*
X134724721Y-77528619D01*
X125029671Y-172749450D02*
X125042631Y-172702619D01*
X125140851Y-172481039D02*
X125166847Y-172439987D01*
X125892963Y-28995229D02*
X125844737Y-28989281D01*
X184497188Y-102003159D02*
X184496840Y-102002811D01*
X146107036Y-28995229D02*
X146058576Y-28998804D01*
X112503159Y-102002811D02*
X112502811Y-102003159D01*
X184493082Y-175000559D02*
X184492612Y-175000416D01*
X184499918Y-171990681D02*
X184499942Y-171990190D01*
X150400259Y-101805173D02*
X150361952Y-101775278D01*
X134493082Y-98999440D02*
X134493544Y-98999275D01*
X162138047Y-123608611D02*
X162099740Y-123638506D01*
X121058576Y-101998804D02*
X121009877Y-102000000D01*
X137470328Y-50083882D02*
X137457368Y-50130714D01*
X136888855Y-123757971D02*
X136843519Y-123775459D01*
X159487972Y-171999996D02*
X159490190Y-171999942D01*
X184499702Y-29007863D02*
X184499583Y-29007387D01*
X160441423Y-123832137D02*
X160392963Y-123828563D01*
X184494441Y-98998877D02*
X184494874Y-98998646D01*
X112503902Y-171997829D02*
X112504296Y-171998121D01*
X125523318Y-99116900D02*
X125566721Y-99095053D01*
X125400259Y-172194826D02*
X125439987Y-172166847D01*
X134499583Y-171992612D02*
X134499702Y-171992136D01*
X134492136Y-171999702D02*
X134492612Y-171999583D01*
X175057874Y-26656480D02*
X175075362Y-26611144D01*
X125566721Y-99095053D02*
X125611144Y-99075362D01*
X175256460Y-28674841D02*
X175224721Y-28638047D01*
X146388855Y-99075362D02*
X146433278Y-99095053D01*
X171957368Y-172702619D02*
X171970328Y-172749450D01*
X159490190Y-98999942D02*
X159490681Y-98999918D01*
X121107036Y-101995229D02*
X121058576Y-101998804D01*
X184498646Y-102005125D02*
X184498394Y-102004704D01*
X134499440Y-98993082D02*
X134499583Y-98992612D01*
X171388855Y-28924637D02*
X171343519Y-28942125D01*
X121009877Y-175000000D02*
X112512272Y-175000000D01*
X162060012Y-150333514D02*
X162099740Y-150361493D01*
X171560012Y-99166847D02*
X171599740Y-99194826D01*
X121155262Y-172010718D02*
X121203138Y-172019025D01*
X137500003Y-171987972D02*
X137500057Y-171990190D01*
X159493997Y-29000912D02*
X159493544Y-29000724D01*
X146957368Y-28297380D02*
X146942125Y-28343519D01*
X137506002Y-29000912D02*
X137505558Y-29001122D01*
X184495703Y-180998121D02*
X184496097Y-180997829D01*
X162404946Y-146599944D02*
X162383099Y-146643348D01*
X160111144Y-53908695D02*
X160156480Y-53891207D01*
X150095053Y-28433278D02*
X150075362Y-28388855D01*
X175042631Y-101297380D02*
X175029671Y-101250549D01*
X159529671Y-54582783D02*
X159542631Y-54535952D01*
X125523318Y-101883099D02*
X125481039Y-101859148D01*
X125289966Y-174710033D02*
X125256460Y-174674841D01*
X112508344Y-180999798D02*
X112508830Y-180999870D01*
X159595053Y-50266611D02*
X159575362Y-50222188D01*
X125000000Y-172990122D02*
X125001195Y-172941423D01*
X121518960Y-174859148D02*
X121476681Y-174883099D01*
X175611144Y-174924637D02*
X175566721Y-174904946D01*
X159861952Y-77391388D02*
X159900259Y-77361493D01*
X162501353Y-98994874D02*
X162501605Y-98995295D01*
X161933278Y-126928386D02*
X161976681Y-126950233D01*
X159724721Y-54195285D02*
X159756460Y-54158491D01*
X137500201Y-102008344D02*
X137500129Y-102008830D01*
X146518960Y-26140851D02*
X146560012Y-26166847D01*
X137500000Y-171987727D02*
X137500003Y-171987972D01*
X146107036Y-174995229D02*
X146058576Y-174998804D01*
X121638047Y-99224721D02*
X121674841Y-99256460D01*
X112501878Y-171995703D02*
X112502170Y-171996097D01*
X171957368Y-26702619D02*
X171970328Y-26749450D01*
X171250549Y-28970328D02*
X171203138Y-28980974D01*
X134939987Y-127000180D02*
X134981039Y-126974184D01*
X121957368Y-174297380D02*
X121942125Y-174343519D01*
X160023318Y-53950233D02*
X160066721Y-53928386D01*
X125439987Y-174833152D02*
X125400259Y-174805173D01*
X159490190Y-29000057D02*
X159487972Y-29000003D01*
X159493544Y-102000724D02*
X159493082Y-102000559D01*
X175523318Y-26116900D02*
X175566721Y-26095053D01*
X162470328Y-123083882D02*
X162457368Y-123130714D01*
X150439987Y-101833152D02*
X150400259Y-101805173D01*
X171107036Y-26004770D02*
X171155262Y-26010718D01*
X125140851Y-28518960D02*
X125116900Y-28476681D01*
X175990122Y-99000000D02*
X184487727Y-99000000D01*
X161655262Y-147155948D02*
X161607036Y-147161896D01*
X137502811Y-102003159D02*
X137502482Y-102003522D01*
X135156480Y-123775459D02*
X135111144Y-123757971D01*
X162512272Y-29000000D02*
X162512027Y-29000003D01*
X112500129Y-180991169D02*
X112500201Y-180991655D01*
X184498394Y-25995295D02*
X184498646Y-25994874D01*
X171638047Y-172224721D02*
X171674841Y-172256460D01*
X171388855Y-101924637D02*
X171343519Y-101942125D01*
X112500559Y-98993082D02*
X112500724Y-98993544D01*
X159499996Y-171987972D02*
X159500000Y-171987727D01*
X171297380Y-99042631D02*
X171343519Y-99057874D01*
X136933278Y-77261719D02*
X136976681Y-77283567D01*
X161750549Y-126863005D02*
X161797380Y-126875965D01*
X162506002Y-98999087D02*
X162506455Y-98999275D01*
X137174841Y-54089793D02*
X137210033Y-54123299D01*
X184498121Y-171995703D02*
X184498394Y-171995295D01*
X162495229Y-49940370D02*
X162489281Y-49988596D01*
X112501122Y-29005558D02*
X112500912Y-29006002D01*
X136655262Y-123822615D02*
X136607036Y-123828563D01*
X162500000Y-151156789D02*
X162500000Y-171987727D01*
X162495229Y-146273703D02*
X162489281Y-146321929D01*
X162503522Y-171997517D02*
X162503902Y-171997829D01*
X137500129Y-171991169D02*
X137500201Y-171991655D01*
X135441423Y-50832137D02*
X135392963Y-50828563D01*
X134981039Y-147025815D02*
X134939987Y-146999819D01*
X112503522Y-180997517D02*
X112503902Y-180997829D01*
X175892963Y-26004770D02*
X175941423Y-26001195D01*
X125892963Y-26004770D02*
X125941423Y-26001195D01*
X112500297Y-20007863D02*
X112500201Y-20008344D01*
X112500724Y-29006455D02*
X112500559Y-29006917D01*
X121883099Y-172523318D02*
X121904946Y-172566721D01*
X162060012Y-77333514D02*
X162099740Y-77361493D01*
X184493082Y-29000559D02*
X184492612Y-29000416D01*
X137501122Y-98994441D02*
X137501353Y-98994874D01*
X150892963Y-172004770D02*
X150941423Y-172001195D01*
X175361952Y-174775278D02*
X175325158Y-174743539D01*
X146859148Y-172481039D02*
X146883099Y-172523318D01*
X159499583Y-29007387D02*
X159499440Y-29006917D01*
X135023318Y-126950233D02*
X135066721Y-126928386D01*
X184499087Y-102006002D02*
X184498877Y-102005558D01*
X112501605Y-180995295D02*
X112501878Y-180995703D01*
X125611144Y-101924637D02*
X125566721Y-101904946D01*
X184499275Y-98993544D02*
X184499440Y-98993082D01*
X112506002Y-20000912D02*
X112505558Y-20001122D01*
X137489281Y-73321929D02*
X137480974Y-73369805D01*
X171107036Y-174995229D02*
X171058576Y-174998804D01*
X134498121Y-102004296D02*
X134497829Y-102003902D01*
X184490681Y-175000081D02*
X184490190Y-175000057D01*
X112502170Y-29003902D02*
X112501878Y-29004296D01*
X175941423Y-26001195D02*
X175990122Y-26000000D01*
X162359148Y-50352293D02*
X162333152Y-50393346D01*
X159694826Y-123433073D02*
X159666847Y-123393346D01*
X134490681Y-102000081D02*
X134490190Y-102000057D01*
X137503522Y-29002482D02*
X137503159Y-29002811D01*
X121998804Y-101058576D02*
X121995229Y-101107036D01*
X159861952Y-150391388D02*
X159900259Y-150361493D01*
X150361952Y-28775278D02*
X150325158Y-28743539D01*
X146710033Y-174710033D02*
X146674841Y-174743539D01*
X171980974Y-172796861D02*
X171989281Y-172844737D01*
X137500201Y-29008344D02*
X137500129Y-29008830D01*
X134499918Y-98990681D02*
X134499942Y-98990190D01*
X135202619Y-150209298D02*
X135249450Y-150196338D01*
X162470328Y-73417216D02*
X162457368Y-73464047D01*
X112506002Y-25999087D02*
X112506455Y-25999275D01*
X175749450Y-99029671D02*
X175796861Y-99019025D01*
X146957368Y-174297380D02*
X146942125Y-174343519D01*
X112502482Y-20003522D02*
X112502170Y-20003902D01*
X134496840Y-102002811D02*
X134496477Y-102002482D01*
X171343519Y-101942125D02*
X171297380Y-101957368D01*
X137442125Y-123176853D02*
X137424637Y-123222188D01*
X135023318Y-150283567D02*
X135066721Y-150261719D01*
X175844737Y-174989281D02*
X175796861Y-174980974D01*
X171155262Y-99010718D02*
X171203138Y-99019025D01*
X146743539Y-172325158D02*
X146775278Y-172361952D01*
X135202619Y-50790701D02*
X135156480Y-50775459D01*
X162457368Y-77869285D02*
X162470328Y-77916117D01*
X162404946Y-127400055D02*
X162424637Y-127444477D01*
X134487727Y-172000000D02*
X134487972Y-171999996D01*
X121343519Y-101942125D02*
X121297380Y-101957368D01*
X171009877Y-102000000D02*
X162512272Y-102000000D01*
X162500057Y-29009809D02*
X162500003Y-29012027D01*
X134496477Y-98997517D02*
X134496840Y-98997188D01*
X150095053Y-174433278D02*
X150075362Y-174388855D01*
X159981039Y-126974184D02*
X160023318Y-126950233D01*
X171155262Y-172010718D02*
X171203138Y-172019025D01*
X150523318Y-174883099D02*
X150481039Y-174859148D01*
X162383099Y-50310014D02*
X162359148Y-50352293D01*
X125116900Y-26523318D02*
X125140851Y-26481039D01*
X112503522Y-102002482D02*
X112503159Y-102002811D01*
X150029671Y-28250549D02*
X150019025Y-28203138D01*
X162495229Y-122940370D02*
X162489281Y-122988596D01*
X175844737Y-99010718D02*
X175892963Y-99004770D01*
X150481039Y-28859148D02*
X150439987Y-28833152D01*
X171833152Y-26439987D02*
X171859148Y-26481039D01*
X137060012Y-123666485D02*
X137018960Y-123692482D01*
X150042631Y-26702619D02*
X150057874Y-26656480D01*
X112508344Y-102000201D02*
X112507863Y-102000297D01*
X134939987Y-146999819D02*
X134900259Y-146971839D01*
X122000000Y-174009877D02*
X121998804Y-174058576D01*
X184487972Y-180999996D02*
X184490190Y-180999942D01*
X112500297Y-29007863D02*
X112500201Y-29008344D01*
X175796861Y-174980974D02*
X175749450Y-174970328D01*
X150289966Y-172289966D02*
X150325158Y-172256460D01*
X134499440Y-171993082D02*
X134499583Y-171992612D01*
X137495229Y-151059629D02*
X137498804Y-151108089D01*
X112505558Y-102001122D02*
X112505125Y-102001353D01*
X150095053Y-26566721D02*
X150116900Y-26523318D01*
X136797380Y-147124034D02*
X136750549Y-147136994D01*
X150749450Y-101970328D02*
X150702619Y-101957368D01*
X150095053Y-101433278D02*
X150075362Y-101388855D01*
X162505125Y-102001353D02*
X162504704Y-102001605D01*
X135111144Y-126908695D02*
X135156480Y-126891207D01*
X121058576Y-99001195D02*
X121107036Y-99004770D01*
X125400259Y-26194826D02*
X125439987Y-26166847D01*
X121904946Y-28433278D02*
X121883099Y-28476681D01*
X112505558Y-175001122D02*
X112505125Y-175001353D01*
X146433278Y-28904946D02*
X146388855Y-28924637D01*
X137505125Y-171998646D02*
X137505558Y-171998877D01*
X135023318Y-77283567D02*
X135066721Y-77261719D01*
X112500081Y-29009318D02*
X112500057Y-29009809D01*
X134499942Y-102009809D02*
X134499918Y-102009318D01*
X112501878Y-20004296D02*
X112501605Y-20004704D01*
X162470328Y-150916117D02*
X162480974Y-150963527D01*
X184493997Y-25999087D02*
X184494441Y-25998877D01*
X159496840Y-29002811D02*
X159496477Y-29002482D01*
X175000000Y-101009877D02*
X175000000Y-99990122D01*
X175400259Y-26194826D02*
X175439987Y-26166847D01*
X125095053Y-172566721D02*
X125116900Y-172523318D01*
X159519025Y-50036472D02*
X159510718Y-49988596D01*
X160202619Y-150209298D02*
X160249450Y-150196338D01*
X134575362Y-150777811D02*
X134595053Y-150733388D01*
X161750549Y-150196338D02*
X161797380Y-150209298D01*
X162099740Y-123638506D02*
X162060012Y-123666485D01*
X184498121Y-29004296D02*
X184497829Y-29003902D01*
X137060012Y-127000180D02*
X137099740Y-127028160D01*
X150019025Y-99796861D02*
X150029671Y-99749450D01*
X160296861Y-50814307D02*
X160249450Y-50803661D01*
X175256460Y-174674841D02*
X175224721Y-174638047D01*
X175042631Y-26702619D02*
X175057874Y-26656480D01*
X134900259Y-77361493D02*
X134939987Y-77333514D01*
X137500724Y-102006455D02*
X137500559Y-102006917D01*
X125075362Y-28388855D02*
X125057874Y-28343519D01*
X159493997Y-98999087D02*
X159494441Y-98998877D01*
X161933278Y-150261719D02*
X161976681Y-150283567D01*
X184491169Y-29000129D02*
X184490681Y-29000081D01*
X162489281Y-73321929D02*
X162480974Y-73369805D01*
X146674841Y-101743539D02*
X146638047Y-101775278D01*
X160490122Y-123833333D02*
X160441423Y-123832137D01*
X184491655Y-20000201D02*
X184491169Y-20000129D01*
X137502482Y-98996477D02*
X137502811Y-98996840D01*
X121433278Y-101904946D02*
X121388855Y-101924637D01*
X134557874Y-146510186D02*
X134542631Y-146464047D01*
X171743539Y-28674841D02*
X171710033Y-28710033D01*
X146599740Y-101805173D02*
X146560012Y-101833152D01*
X137502811Y-98996840D02*
X137503159Y-98997188D01*
X146388855Y-174924637D02*
X146343519Y-174942125D01*
X162506002Y-171999087D02*
X162506455Y-171999275D01*
X125075362Y-172611144D02*
X125095053Y-172566721D01*
X184499942Y-171990190D02*
X184499996Y-171987972D01*
X162501353Y-29005125D02*
X162501122Y-29005558D01*
X159724721Y-77528619D02*
X159756460Y-77491825D01*
X161933278Y-147071613D02*
X161888855Y-147091304D01*
X171833152Y-28560012D02*
X171805173Y-28599740D01*
X162501122Y-102005558D02*
X162500912Y-102006002D01*
X162500003Y-98987972D02*
X162500057Y-98990190D01*
X184493997Y-98999087D02*
X184494441Y-98998877D01*
X171476681Y-28883099D02*
X171433278Y-28904946D01*
X146674841Y-172256460D02*
X146710033Y-172289966D01*
X162495229Y-78059629D02*
X162498804Y-78108089D01*
X112500912Y-25993997D02*
X112501122Y-25994441D01*
X161750549Y-123803661D02*
X161703138Y-123814307D01*
X137506455Y-102000724D02*
X137506002Y-102000912D01*
X134499087Y-171993997D02*
X134499275Y-171993544D01*
X134542631Y-150869285D02*
X134557874Y-150823146D01*
X112500081Y-102009318D02*
X112500057Y-102009809D01*
X121859148Y-101518960D02*
X121833152Y-101560012D01*
X134504770Y-78059629D02*
X134510718Y-78011403D01*
X162275278Y-146804714D02*
X162243539Y-146841508D01*
X121476681Y-26116900D02*
X121518960Y-26140851D01*
X134640851Y-54314373D02*
X134666847Y-54273320D01*
X134542631Y-123130714D02*
X134529671Y-123083882D01*
X175166847Y-26439987D02*
X175194826Y-26400259D01*
X161797380Y-53875965D02*
X161843519Y-53891207D01*
X121833152Y-99439987D02*
X121859148Y-99481039D01*
X146476681Y-28883099D02*
X146433278Y-28904946D01*
X146297380Y-26042631D02*
X146343519Y-26057874D01*
X159499440Y-171993082D02*
X159499583Y-171992612D01*
X146107036Y-172004770D02*
X146155262Y-172010718D01*
X134529671Y-54582783D02*
X134542631Y-54535952D01*
X161976681Y-77283567D02*
X162018960Y-77307517D01*
X146518960Y-99140851D02*
X146560012Y-99166847D01*
X137305173Y-150566926D02*
X137333152Y-150606653D01*
X137210033Y-146876700D02*
X137174841Y-146910206D01*
X121560012Y-99166847D02*
X121599740Y-99194826D01*
X184499798Y-20008344D02*
X184499702Y-20007863D01*
X162500559Y-102006917D02*
X162500416Y-102007387D01*
X134500000Y-78156789D02*
X134501195Y-78108089D01*
X184499440Y-25993082D02*
X184499583Y-25992612D01*
X112504704Y-180998394D02*
X112505125Y-180998646D01*
X121343519Y-172057874D02*
X121388855Y-172075362D01*
X161888855Y-50757971D02*
X161843519Y-50775459D01*
X150116900Y-101476681D02*
X150095053Y-101433278D01*
X175019025Y-174203138D02*
X175010718Y-174155262D01*
X175656480Y-28942125D02*
X175611144Y-28924637D01*
X184500000Y-25987727D02*
X184500000Y-20012272D01*
X150325158Y-26256460D02*
X150361952Y-26224721D01*
X162509318Y-102000081D02*
X162508830Y-102000129D01*
X121883099Y-174476681D02*
X121859148Y-174518960D01*
X135066721Y-74071613D02*
X135023318Y-74049766D01*
X146775278Y-172361952D02*
X146805173Y-172400259D01*
X150796861Y-26019025D02*
X150844737Y-26010718D01*
X159510718Y-127678070D02*
X159519025Y-127630194D01*
X121297380Y-174957368D02*
X121250549Y-174970328D01*
X159497517Y-98996477D02*
X159497829Y-98996097D01*
X175566721Y-26095053D02*
X175611144Y-26075362D01*
X134529671Y-146417216D02*
X134519025Y-146369805D01*
X135441423Y-123832137D02*
X135392963Y-123828563D01*
X160249450Y-126863005D02*
X160296861Y-126852358D01*
X112512272Y-102000000D02*
X112512027Y-102000003D01*
X137359148Y-150647706D02*
X137383099Y-150689985D01*
X159694826Y-77566926D02*
X159724721Y-77528619D01*
X112507863Y-20000297D02*
X112507387Y-20000416D01*
X112500081Y-25990681D02*
X112500129Y-25991169D01*
X125019025Y-101203138D02*
X125010718Y-101155262D01*
X146805173Y-26400259D02*
X146833152Y-26439987D01*
X162018960Y-150307517D02*
X162060012Y-150333514D01*
X137506917Y-29000559D02*
X137506455Y-29000724D01*
X162498804Y-78108089D02*
X162500000Y-78156789D01*
X134529671Y-127582783D02*
X134542631Y-127535952D01*
X162243539Y-150491825D02*
X162275278Y-150528619D01*
X159981039Y-77307517D02*
X160023318Y-77283567D01*
X137500724Y-29006455D02*
X137500559Y-29006917D01*
X171833152Y-99439987D02*
X171859148Y-99481039D01*
X136607036Y-126838103D02*
X136655262Y-126844051D01*
X162500081Y-171990681D02*
X162500129Y-171991169D01*
X121433278Y-99095053D02*
X121476681Y-99116900D01*
X175166847Y-174560012D02*
X175140851Y-174518960D01*
X184499702Y-175007863D02*
X184499583Y-175007387D01*
X134900259Y-123638506D02*
X134861952Y-123608611D01*
X134557874Y-50176853D02*
X134542631Y-50130714D01*
X171833152Y-101560012D02*
X171805173Y-101599740D01*
X137500003Y-98987972D02*
X137500057Y-98990190D01*
X121942125Y-172656480D02*
X121957368Y-172702619D01*
X112501878Y-102004296D02*
X112501605Y-102004704D01*
X184497517Y-20003522D02*
X184497188Y-20003159D01*
X162500559Y-98993082D02*
X162500724Y-98993544D01*
X134789966Y-123543366D02*
X134756460Y-123508174D01*
X159490190Y-171999942D02*
X159490681Y-171999918D01*
X159497517Y-29003522D02*
X159497188Y-29003159D01*
X162500000Y-122843210D02*
X162498804Y-122891910D01*
X175116900Y-172523318D02*
X175140851Y-172481039D01*
X146599740Y-174805173D02*
X146560012Y-174833152D01*
X121476681Y-101883099D02*
X121433278Y-101904946D01*
X171995229Y-101107036D02*
X171989281Y-101155262D01*
X159496097Y-98997829D02*
X159496477Y-98997517D01*
X150075362Y-26611144D02*
X150095053Y-26566721D01*
X161797380Y-126875965D02*
X161843519Y-126891207D01*
X159496477Y-102002482D02*
X159496097Y-102002170D01*
X175057874Y-174343519D02*
X175042631Y-174297380D01*
X112509809Y-25999942D02*
X112512027Y-25999996D01*
X159499942Y-29009809D02*
X159499918Y-29009318D01*
X162243539Y-77491825D02*
X162275278Y-77528619D01*
X171638047Y-26224721D02*
X171674841Y-26256460D01*
X175095053Y-101433278D02*
X175075362Y-101388855D01*
X146518960Y-101859148D02*
X146476681Y-101883099D01*
X112502482Y-102003522D02*
X112502170Y-102003902D01*
X147000000Y-174009877D02*
X146998804Y-174058576D01*
X184499996Y-20012027D02*
X184499942Y-20009809D01*
X146970328Y-101250549D02*
X146957368Y-101297380D01*
X125256460Y-28674841D02*
X125224721Y-28638047D01*
X136976681Y-50716432D02*
X136933278Y-50738280D01*
X184499996Y-171987972D02*
X184500000Y-171987727D01*
X121388855Y-101924637D02*
X121343519Y-101942125D01*
X150941423Y-99001195D02*
X150990122Y-99000000D01*
X175289966Y-28710033D02*
X175256460Y-28674841D01*
X159499798Y-102008344D02*
X159499702Y-102007863D01*
X175256460Y-172325158D02*
X175289966Y-172289966D01*
X121250549Y-28970328D02*
X121203138Y-28980974D01*
X137470328Y-150916117D02*
X137480974Y-150963527D01*
X159504770Y-78059629D02*
X159510718Y-78011403D01*
X136976681Y-77283567D02*
X137018960Y-77307517D01*
X125566721Y-26095053D02*
X125611144Y-26075362D01*
X162275278Y-123471380D02*
X162243539Y-123508174D01*
X161797380Y-150209298D02*
X161843519Y-150224540D01*
X150289966Y-101710033D02*
X150256460Y-101674841D01*
X171998804Y-172941423D02*
X172000000Y-172990122D01*
X162470328Y-77916117D02*
X162480974Y-77963527D01*
X137500000Y-49843210D02*
X137498804Y-49891910D01*
X171805173Y-99400259D02*
X171833152Y-99439987D01*
X112502482Y-29003522D02*
X112502170Y-29003902D01*
X136703138Y-123814307D02*
X136655262Y-123822615D01*
X184494874Y-29001353D02*
X184494441Y-29001122D01*
X171518960Y-172140851D02*
X171560012Y-172166847D01*
X112512272Y-20000000D02*
X112512027Y-20000003D01*
X162501605Y-29004704D02*
X162501353Y-29005125D01*
X146998804Y-26941423D02*
X147000000Y-26990122D01*
X112509809Y-102000057D02*
X112509318Y-102000081D01*
X171904946Y-28433278D02*
X171883099Y-28476681D01*
X184487972Y-20000003D02*
X184487727Y-20000000D01*
X134499087Y-102006002D02*
X134498877Y-102005558D01*
X175892963Y-28995229D02*
X175844737Y-28989281D01*
X150796861Y-101980974D02*
X150749450Y-101970328D01*
X161888855Y-74091304D02*
X161843519Y-74108792D01*
X135490122Y-74166666D02*
X135441423Y-74165471D01*
X162305173Y-50433073D02*
X162275278Y-50471380D01*
X125325158Y-99256460D02*
X125361952Y-99224721D01*
X125892963Y-101995229D02*
X125844737Y-101989281D01*
X112502482Y-180996477D02*
X112502811Y-180996840D01*
X162480974Y-127630194D02*
X162489281Y-127678070D01*
X135023318Y-74049766D02*
X134981039Y-74025815D01*
X161750549Y-147136994D02*
X161703138Y-147147641D01*
X175481039Y-99140851D02*
X175523318Y-99116900D01*
X161607036Y-126838103D02*
X161655262Y-126844051D01*
X159501195Y-127774756D02*
X159504770Y-127726296D01*
X175042631Y-172702619D02*
X175057874Y-172656480D01*
X150166847Y-99439987D02*
X150194826Y-99400259D01*
X159490681Y-171999918D02*
X159491169Y-171999870D01*
X150656480Y-28942125D02*
X150611144Y-28924637D01*
X160392963Y-74161896D02*
X160344737Y-74155948D01*
X137359148Y-77647706D02*
X137383099Y-77689985D01*
X171998804Y-174058576D02*
X171995229Y-174107036D01*
X171995229Y-28107036D02*
X171989281Y-28155262D01*
X161558576Y-150167862D02*
X161607036Y-150171436D01*
X134981039Y-50692482D02*
X134939987Y-50666485D01*
X159981039Y-123692482D02*
X159939987Y-123666485D01*
X134501195Y-122891910D02*
X134500000Y-122843210D01*
X125844737Y-172010718D02*
X125892963Y-172004770D01*
X175941423Y-172001195D02*
X175990122Y-172000000D01*
X150000000Y-172990122D02*
X150001195Y-172941423D01*
X159666847Y-77606653D02*
X159694826Y-77566926D01*
X134825158Y-54089793D02*
X134861952Y-54058055D01*
X184494874Y-20001353D02*
X184494441Y-20001122D01*
X159499087Y-29006002D02*
X159498877Y-29005558D01*
X175116900Y-28476681D02*
X175095053Y-28433278D01*
X137470328Y-73417216D02*
X137457368Y-73464047D01*
X137501122Y-171994441D02*
X137501353Y-171994874D01*
X150702619Y-99042631D02*
X150749450Y-99029671D01*
X160392963Y-123828563D02*
X160344737Y-123822615D01*
X160156480Y-50775459D02*
X160111144Y-50757971D01*
X146476681Y-172116900D02*
X146518960Y-172140851D01*
X137470328Y-146417216D02*
X137457368Y-146464047D01*
X125256460Y-172325158D02*
X125289966Y-172289966D01*
X150400259Y-172194826D02*
X150439987Y-172166847D01*
X134504770Y-127726296D02*
X134510718Y-127678070D01*
X135249450Y-53863005D02*
X135296861Y-53852358D01*
X112500201Y-175008344D02*
X112500129Y-175008830D01*
X150796861Y-28980974D02*
X150749450Y-28970328D01*
X121970328Y-101250549D02*
X121957368Y-101297380D01*
X150004770Y-101107036D02*
X150001195Y-101058576D01*
X125075362Y-174388855D02*
X125057874Y-174343519D01*
X112500000Y-180987727D02*
X112500003Y-180987972D01*
X134499702Y-171992136D02*
X134499798Y-171991655D01*
X134491169Y-98999870D02*
X134491655Y-98999798D01*
X112503159Y-25997188D02*
X112503522Y-25997517D01*
X150656480Y-172057874D02*
X150702619Y-172042631D01*
X136933278Y-74071613D02*
X136888855Y-74091304D01*
X135156480Y-147108792D02*
X135111144Y-147091304D01*
X136558576Y-53834528D02*
X136607036Y-53838103D01*
X112500201Y-98991655D02*
X112500297Y-98992136D01*
X150439987Y-28833152D02*
X150400259Y-28805173D01*
X184494441Y-20001122D02*
X184493997Y-20000912D01*
X184490190Y-180999942D02*
X184490681Y-180999918D01*
X184494441Y-102001122D02*
X184493997Y-102000912D01*
X125042631Y-26702619D02*
X125057874Y-26656480D01*
X112504704Y-171998394D02*
X112505125Y-171998646D01*
X137138047Y-127058055D02*
X137174841Y-127089793D01*
X162489281Y-146321929D02*
X162480974Y-146369805D01*
X162500000Y-54823456D02*
X162500000Y-73176543D01*
X159504770Y-146273703D02*
X159501195Y-146225243D01*
X125057874Y-172656480D02*
X125075362Y-172611144D01*
X137512272Y-172000000D02*
X146009877Y-172000000D01*
X146297380Y-174957368D02*
X146250549Y-174970328D01*
X159640851Y-50352293D02*
X159616900Y-50310014D01*
X134501195Y-146225243D02*
X134500000Y-146176543D01*
X162508344Y-98999798D02*
X162508830Y-98999870D01*
X172000000Y-28009877D02*
X171998804Y-28058576D01*
X150566721Y-99095053D02*
X150611144Y-99075362D01*
X112509318Y-175000081D02*
X112508830Y-175000129D01*
X121998804Y-99941423D02*
X122000000Y-99990122D01*
X146203138Y-99019025D02*
X146250549Y-99029671D01*
X137424637Y-127444477D02*
X137442125Y-127489813D01*
X136607036Y-150171436D02*
X136655262Y-150177384D01*
X136558576Y-50832137D02*
X136509877Y-50833333D01*
X175194826Y-28599740D02*
X175166847Y-28560012D01*
X161843519Y-74108792D02*
X161797380Y-74124034D01*
X137174841Y-150423127D02*
X137210033Y-150456633D01*
X135490122Y-147166666D02*
X135441423Y-147165471D01*
X150523318Y-99116900D02*
X150566721Y-99095053D01*
X112503522Y-20002482D02*
X112503159Y-20002811D01*
X184499087Y-180993997D02*
X184499275Y-180993544D01*
X112500297Y-102007863D02*
X112500201Y-102008344D01*
X175194826Y-174599740D02*
X175166847Y-174560012D01*
X184491169Y-180999870D02*
X184491655Y-180999798D01*
X146250549Y-26029671D02*
X146297380Y-26042631D01*
X121107036Y-28995229D02*
X121058576Y-28998804D01*
X171883099Y-99523318D02*
X171904946Y-99566721D01*
X162500912Y-171993997D02*
X162501122Y-171994441D01*
X112500297Y-171992136D02*
X112500416Y-171992612D01*
X136797380Y-50790701D02*
X136750549Y-50803661D01*
X159493082Y-29000559D02*
X159492612Y-29000416D01*
X175194826Y-172400259D02*
X175224721Y-172361952D01*
X162243539Y-123508174D02*
X162210033Y-123543366D01*
X146343519Y-172057874D02*
X146388855Y-172075362D01*
X150000000Y-174009877D02*
X150000000Y-172990122D01*
X162507387Y-102000416D02*
X162506917Y-102000559D01*
X137489281Y-78011403D02*
X137495229Y-78059629D01*
X134487727Y-99000000D02*
X134487972Y-98999996D01*
X184496840Y-98997188D02*
X184497188Y-98996840D01*
X184499918Y-175009318D02*
X184499870Y-175008830D01*
X146989281Y-101155262D02*
X146980974Y-101203138D01*
X159498394Y-171995295D02*
X159498646Y-171994874D01*
X160023318Y-123716432D02*
X159981039Y-123692482D01*
X112501605Y-175004704D02*
X112501353Y-175005125D01*
X112500081Y-20009318D02*
X112500057Y-20009809D01*
X162502811Y-102003159D02*
X162502482Y-102003522D01*
X175566721Y-99095053D02*
X175611144Y-99075362D01*
X125941423Y-99001195D02*
X125990122Y-99000000D01*
X162275278Y-54195285D02*
X162305173Y-54233592D01*
X137018960Y-123692482D02*
X136976681Y-123716432D01*
X161843519Y-50775459D02*
X161797380Y-50790701D01*
X160344737Y-53844051D02*
X160392963Y-53838103D01*
X175566721Y-101904946D02*
X175523318Y-101883099D01*
X135490122Y-77166666D02*
X136509877Y-77166666D01*
X162500724Y-102006455D02*
X162500559Y-102006917D01*
X150057874Y-174343519D02*
X150042631Y-174297380D01*
X159939987Y-73999819D02*
X159900259Y-73971839D01*
X162333152Y-123393346D02*
X162305173Y-123433073D01*
X159496097Y-102002170D02*
X159495703Y-102001878D01*
X162174841Y-146910206D02*
X162138047Y-146941944D01*
X137500297Y-171992136D02*
X137500416Y-171992612D01*
X137509809Y-29000057D02*
X137509318Y-29000081D01*
X162138047Y-150391388D02*
X162174841Y-150423127D01*
X159487727Y-172000000D02*
X159487972Y-171999996D01*
X122000000Y-99990122D02*
X122000000Y-101009877D01*
X184493544Y-180999275D02*
X184493997Y-180999087D01*
X184493544Y-175000724D02*
X184493082Y-175000559D01*
X112500000Y-20012272D02*
X112500000Y-25987727D01*
X112500081Y-180990681D02*
X112500129Y-180991169D01*
X134497517Y-102003522D02*
X134497188Y-102003159D01*
X150892963Y-99004770D02*
X150941423Y-99001195D01*
X137500081Y-171990681D02*
X137500129Y-171991169D01*
X184494441Y-175001122D02*
X184493997Y-175000912D01*
X121107036Y-172004770D02*
X121155262Y-172010718D01*
X136750549Y-77196338D02*
X136797380Y-77209298D01*
X162210033Y-150456633D02*
X162243539Y-150491825D01*
X162500912Y-29006002D02*
X162500724Y-29006455D01*
X159529671Y-77916117D02*
X159542631Y-77869285D01*
X162099740Y-77361493D02*
X162138047Y-77391388D01*
X125941423Y-174998804D02*
X125892963Y-174995229D01*
X137404946Y-50266611D02*
X137383099Y-50310014D01*
X159487972Y-98999996D02*
X159490190Y-98999942D01*
X134504770Y-122940370D02*
X134501195Y-122891910D01*
X112506455Y-20000724D02*
X112506002Y-20000912D01*
X150361952Y-172224721D02*
X150400259Y-172194826D01*
X159557874Y-54489813D02*
X159575362Y-54444477D01*
X135202619Y-77209298D02*
X135249450Y-77196338D01*
X184499440Y-29006917D02*
X184499275Y-29006455D01*
X184499942Y-98990190D02*
X184499996Y-98987972D01*
X150057874Y-26656480D02*
X150075362Y-26611144D01*
X125166847Y-101560012D02*
X125140851Y-101518960D01*
X184496477Y-102002482D02*
X184496097Y-102002170D01*
X137506917Y-171999440D02*
X137507387Y-171999583D01*
X159557874Y-127489813D02*
X159575362Y-127444477D01*
X134595053Y-146599944D02*
X134575362Y-146555522D01*
X175224721Y-174638047D02*
X175194826Y-174599740D01*
X171743539Y-26325158D02*
X171775278Y-26361952D01*
X137099740Y-123638506D02*
X137060012Y-123666485D01*
X150000000Y-26990122D02*
X150001195Y-26941423D01*
X146343519Y-28942125D02*
X146297380Y-28957368D01*
X159494874Y-171998646D02*
X159495295Y-171998394D01*
X121433278Y-26095053D02*
X121476681Y-26116900D01*
X125057874Y-101343519D02*
X125042631Y-101297380D01*
X162505558Y-98998877D02*
X162506002Y-98999087D01*
X162500297Y-29007863D02*
X162500201Y-29008344D01*
X134861952Y-77391388D02*
X134900259Y-77361493D01*
X161888855Y-77242028D02*
X161933278Y-77261719D01*
X137457368Y-146464047D02*
X137442125Y-146510186D01*
X137502482Y-171996477D02*
X137502811Y-171996840D01*
X121775278Y-174638047D02*
X121743539Y-174674841D01*
X184499918Y-102009318D02*
X184499870Y-102008830D01*
X112505125Y-102001353D02*
X112504704Y-102001605D01*
X162505125Y-29001353D02*
X162504704Y-29001605D01*
X112507863Y-102000297D02*
X112507387Y-102000416D01*
X135392963Y-77171436D02*
X135441423Y-77167862D01*
X162480974Y-50036472D02*
X162470328Y-50083882D01*
X175000000Y-26990122D02*
X175001195Y-26941423D01*
X112501605Y-171995295D02*
X112501878Y-171995703D01*
X136843519Y-147108792D02*
X136797380Y-147124034D01*
X171904946Y-174433278D02*
X171883099Y-174476681D01*
X162503159Y-29002811D02*
X162502811Y-29003159D01*
X162060012Y-146999819D02*
X162018960Y-147025815D01*
X162018960Y-53974184D02*
X162060012Y-54000180D01*
X175439987Y-26166847D02*
X175481039Y-26140851D01*
X160249450Y-123803661D02*
X160202619Y-123790701D01*
X135202619Y-74124034D02*
X135156480Y-74108792D01*
X160344737Y-123822615D02*
X160296861Y-123814307D01*
X184498877Y-25994441D02*
X184499087Y-25993997D01*
X184496477Y-25997517D02*
X184496840Y-25997188D01*
X121805173Y-174599740D02*
X121775278Y-174638047D01*
X121995229Y-99892963D02*
X121998804Y-99941423D01*
X121674841Y-26256460D02*
X121710033Y-26289966D01*
X135392963Y-74161896D02*
X135344737Y-74155948D01*
X135392963Y-50828563D02*
X135344737Y-50822615D01*
X112503902Y-98997829D02*
X112504296Y-98998121D01*
X161558576Y-123832137D02*
X161509877Y-123833333D01*
X159519025Y-54630194D02*
X159529671Y-54582783D01*
X134501195Y-54774756D02*
X134504770Y-54726296D01*
X125194826Y-101599740D02*
X125166847Y-101560012D01*
X171942125Y-26656480D02*
X171957368Y-26702619D01*
X184497829Y-171996097D02*
X184498121Y-171995703D01*
X136888855Y-147091304D02*
X136843519Y-147108792D01*
X125029671Y-174250549D02*
X125019025Y-174203138D01*
X175256460Y-101674841D02*
X175224721Y-101638047D01*
X161843519Y-147108792D02*
X161797380Y-147124034D01*
X112508344Y-25999798D02*
X112508830Y-25999870D01*
X184495295Y-20001605D02*
X184494874Y-20001353D01*
X121203138Y-172019025D02*
X121250549Y-172029671D01*
X137508830Y-98999870D02*
X137509318Y-98999918D01*
X171155262Y-26010718D02*
X171203138Y-26019025D01*
X137333152Y-127273320D02*
X137359148Y-127314373D01*
X162243539Y-127158491D02*
X162275278Y-127195285D01*
X134595053Y-77733388D02*
X134616900Y-77689985D01*
X150361952Y-99224721D02*
X150400259Y-99194826D01*
X159497188Y-29003159D02*
X159496840Y-29002811D01*
X134490190Y-171999942D02*
X134490190Y-171999942D01*
X112503902Y-25997829D02*
X112504296Y-25998121D01*
X134666847Y-50393346D02*
X134640851Y-50352293D01*
X125140851Y-26481039D02*
X125166847Y-26439987D01*
X135441423Y-126834528D02*
X135490122Y-126833333D01*
X159825158Y-123576872D02*
X159789966Y-123543366D01*
X137457368Y-127535952D02*
X137470328Y-127582783D01*
X112500057Y-102009809D02*
X112500003Y-102012027D01*
X184490190Y-25999942D02*
X184490681Y-25999918D01*
X134595053Y-50266611D02*
X134575362Y-50222188D01*
X134789966Y-73876700D02*
X134756460Y-73841508D01*
X175010718Y-99844737D02*
X175019025Y-99796861D01*
X184496840Y-29002811D02*
X184496477Y-29002482D01*
X171995229Y-174107036D02*
X171989281Y-174155262D01*
X150749450Y-26029671D02*
X150796861Y-26019025D01*
X150224721Y-28638047D02*
X150194826Y-28599740D01*
X162501122Y-29005558D02*
X162500912Y-29006002D01*
X150481039Y-99140851D02*
X150523318Y-99116900D01*
X121710033Y-26289966D02*
X121743539Y-26325158D01*
X121957368Y-172702619D02*
X121970328Y-172749450D01*
X137504296Y-98998121D02*
X137504704Y-98998394D01*
X150042631Y-172702619D02*
X150057874Y-172656480D01*
X121805173Y-99400259D02*
X121833152Y-99439987D01*
X112502811Y-180996840D02*
X112503159Y-180997188D01*
X134492136Y-98999702D02*
X134492612Y-98999583D01*
X150095053Y-172566721D02*
X150116900Y-172523318D01*
X136797380Y-53875965D02*
X136843519Y-53891207D01*
X137504296Y-29001878D02*
X137503902Y-29002170D01*
X134493544Y-102000724D02*
X134493082Y-102000559D01*
X159498121Y-98995703D02*
X159498394Y-98995295D01*
X184491655Y-25999798D02*
X184492136Y-25999702D01*
X137305173Y-123433073D02*
X137275278Y-123471380D01*
X184487727Y-26000000D02*
X184487972Y-25999996D01*
X150523318Y-26116900D02*
X150566721Y-26095053D01*
X121599740Y-26194826D02*
X121638047Y-26224721D01*
X159789966Y-123543366D02*
X159756460Y-123508174D01*
X121743539Y-172325158D02*
X121775278Y-172361952D01*
X136933278Y-147071613D02*
X136888855Y-147091304D01*
X162424637Y-54444477D02*
X162442125Y-54489813D01*
X159493544Y-29000724D02*
X159493082Y-29000559D01*
X134640851Y-123352293D02*
X134616900Y-123310014D01*
X121009877Y-29000000D02*
X112512272Y-29000000D01*
X159487972Y-29000003D02*
X159487727Y-29000000D01*
X137457368Y-54535952D02*
X137470328Y-54582783D01*
X150029671Y-99749450D02*
X150042631Y-99702619D01*
X175000000Y-28009877D02*
X175000000Y-26990122D01*
X150844737Y-28989281D02*
X150796861Y-28980974D01*
X175001195Y-99941423D02*
X175004770Y-99892963D01*
X146058576Y-99001195D02*
X146107036Y-99004770D01*
X159939987Y-77333514D02*
X159981039Y-77307517D01*
X162210033Y-50543366D02*
X162174841Y-50576872D01*
X175361952Y-28775278D02*
X175325158Y-28743539D01*
X125057874Y-26656480D02*
X125075362Y-26611144D01*
X184494441Y-29001122D02*
X184493997Y-29000912D01*
X171957368Y-174297380D02*
X171942125Y-174343519D01*
X184497188Y-171996840D02*
X184497517Y-171996477D01*
X137383099Y-54356651D02*
X137404946Y-54400055D01*
X159939987Y-50666485D02*
X159900259Y-50638506D01*
X184493997Y-175000912D02*
X184493544Y-175000724D01*
X162500057Y-98990190D02*
X162500081Y-98990681D01*
X112500559Y-175006917D02*
X112500416Y-175007387D01*
X162333152Y-150606653D02*
X162359148Y-150647706D01*
X175656480Y-99057874D02*
X175702619Y-99042631D01*
X159640851Y-127314373D02*
X159666847Y-127273320D01*
X159575362Y-150777811D02*
X159595053Y-150733388D01*
X112509809Y-171999942D02*
X112512027Y-171999996D01*
X175990122Y-102000000D02*
X175941423Y-101998804D01*
X162442125Y-146510186D02*
X162424637Y-146555522D01*
X134499870Y-98991169D02*
X134499918Y-98990681D01*
X150224721Y-172361952D02*
X150256460Y-172325158D01*
X184494874Y-180998646D02*
X184495295Y-180998394D01*
X162138047Y-73941944D02*
X162099740Y-73971839D01*
X184499918Y-98990681D02*
X184499942Y-98990190D01*
X136509877Y-150166666D02*
X136558576Y-150167862D01*
X112500724Y-180993544D02*
X112500912Y-180993997D01*
X159494441Y-171998877D02*
X159494874Y-171998646D01*
X159490190Y-171999942D02*
X159490190Y-171999942D01*
X135490122Y-123833333D02*
X135441423Y-123832137D01*
X137018960Y-126974184D02*
X137060012Y-127000180D01*
X112503159Y-98997188D02*
X112503522Y-98997517D01*
X171989281Y-174155262D02*
X171980974Y-174203138D01*
X125611144Y-174924637D02*
X125566721Y-174904946D01*
X112507863Y-171999702D02*
X112508344Y-171999798D01*
X159498877Y-171994441D02*
X159499087Y-171993997D01*
X134499275Y-102006455D02*
X134499087Y-102006002D01*
X134529671Y-77916117D02*
X134542631Y-77869285D01*
X137498804Y-54774756D02*
X137500000Y-54823456D01*
X112503902Y-102002170D02*
X112503522Y-102002482D01*
X134504770Y-151059629D02*
X134510718Y-151011403D01*
X175941423Y-174998804D02*
X175892963Y-174995229D01*
X137508344Y-29000201D02*
X137507863Y-29000297D01*
X161888855Y-126908695D02*
X161933278Y-126928386D01*
X150140851Y-172481039D02*
X150166847Y-172439987D01*
X134825158Y-123576872D02*
X134789966Y-123543366D01*
X162500416Y-98992612D02*
X162500559Y-98993082D01*
X175400259Y-172194826D02*
X175439987Y-172166847D01*
X184495295Y-102001605D02*
X184494874Y-102001353D01*
X150481039Y-26140851D02*
X150523318Y-26116900D01*
X137480974Y-150963527D02*
X137489281Y-151011403D01*
X171859148Y-174518960D02*
X171833152Y-174560012D01*
X134640851Y-150647706D02*
X134666847Y-150606653D01*
X134487727Y-29000000D02*
X125990122Y-29000000D01*
X159789966Y-150456633D02*
X159825158Y-150423127D01*
X136933278Y-50738280D02*
X136888855Y-50757971D01*
X150990122Y-99000000D02*
X159487727Y-99000000D01*
X121058576Y-26001195D02*
X121107036Y-26004770D01*
X162305173Y-77566926D02*
X162333152Y-77606653D01*
X171980974Y-174203138D02*
X171970328Y-174250549D01*
X184499702Y-180992136D02*
X184499798Y-180991655D01*
X137495229Y-146273703D02*
X137489281Y-146321929D01*
X134500000Y-49843210D02*
X134500000Y-29012272D01*
X162457368Y-127535952D02*
X162470328Y-127582783D01*
X162457368Y-150869285D02*
X162470328Y-150916117D01*
X136509877Y-50833333D02*
X135490122Y-50833333D01*
X147000000Y-101009877D02*
X146998804Y-101058576D01*
X121476681Y-28883099D02*
X121433278Y-28904946D01*
X135111144Y-147091304D02*
X135066721Y-147071613D01*
X134492136Y-29000297D02*
X134491655Y-29000201D01*
X162500081Y-102009318D02*
X162500057Y-102009809D01*
X160111144Y-123757971D02*
X160066721Y-123738280D01*
X159493082Y-171999440D02*
X159493544Y-171999275D01*
X150256460Y-101674841D02*
X150224721Y-101638047D01*
X146957368Y-101297380D02*
X146942125Y-101343519D01*
X150702619Y-174957368D02*
X150656480Y-174942125D01*
X171775278Y-172361952D02*
X171805173Y-172400259D01*
X171743539Y-174674841D02*
X171710033Y-174710033D01*
X125140851Y-99481039D02*
X125166847Y-99439987D01*
X162503522Y-98997517D02*
X162503902Y-98997829D01*
X150656480Y-99057874D02*
X150702619Y-99042631D01*
X150990122Y-29000000D02*
X150941423Y-28998804D01*
X175224721Y-99361952D02*
X175256460Y-99325158D01*
X162501878Y-98995703D02*
X162502170Y-98996097D01*
X162502482Y-98996477D02*
X162502811Y-98996840D01*
X159497829Y-98996097D02*
X159498121Y-98995703D01*
X137275278Y-54195285D02*
X137305173Y-54233592D01*
X136843519Y-77224540D02*
X136888855Y-77242028D01*
X146560012Y-174833152D02*
X146518960Y-174859148D01*
X160296861Y-123814307D02*
X160249450Y-123803661D01*
X125749450Y-172029671D02*
X125796861Y-172019025D01*
X137500057Y-171990190D02*
X137500081Y-171990681D01*
X137506455Y-98999275D02*
X137506917Y-98999440D01*
X134491655Y-102000201D02*
X134491169Y-102000129D01*
X125140851Y-101518960D02*
X125116900Y-101476681D01*
X150844737Y-174989281D02*
X150796861Y-174980974D01*
X136703138Y-53852358D02*
X136750549Y-53863005D01*
X161976681Y-150283567D02*
X162018960Y-150307517D01*
X162275278Y-150528619D02*
X162305173Y-150566926D01*
X184497188Y-20003159D02*
X184496840Y-20002811D01*
X162507863Y-171999702D02*
X162508344Y-171999798D01*
X150194826Y-174599740D02*
X150166847Y-174560012D01*
X175010718Y-172844737D02*
X175019025Y-172796861D01*
X134504770Y-54726296D02*
X134510718Y-54678070D01*
X171710033Y-172289966D02*
X171743539Y-172325158D01*
X137500081Y-29009318D02*
X137500057Y-29009809D01*
X160156480Y-77224540D02*
X160202619Y-77209298D01*
X112502170Y-175003902D02*
X112501878Y-175004296D01*
X125289966Y-101710033D02*
X125256460Y-101674841D01*
X184499870Y-98991169D02*
X184499918Y-98990681D01*
X159499275Y-29006455D02*
X159499087Y-29006002D01*
X162506002Y-29000912D02*
X162505558Y-29001122D01*
X137500416Y-171992612D02*
X137500559Y-171993082D01*
X162174841Y-73910206D02*
X162138047Y-73941944D01*
X112500201Y-180991655D02*
X112500297Y-180992136D01*
X146775278Y-99361952D02*
X146805173Y-99400259D01*
X161558576Y-53834528D02*
X161607036Y-53838103D01*
X159500000Y-29012272D02*
X159499996Y-29012027D01*
X146859148Y-99481039D02*
X146883099Y-99523318D01*
X184498121Y-102004296D02*
X184497829Y-102003902D01*
X150000000Y-28009877D02*
X150000000Y-26990122D01*
X160023318Y-50716432D02*
X159981039Y-50692482D01*
X121433278Y-28904946D02*
X121388855Y-28924637D01*
X135441423Y-53834528D02*
X135490122Y-53833333D01*
X135296861Y-147147641D02*
X135249450Y-147136994D01*
X125400259Y-101805173D02*
X125361952Y-101775278D01*
X171970328Y-99749450D02*
X171980974Y-99796861D01*
X162501353Y-102005125D02*
X162501122Y-102005558D01*
X175702619Y-174957368D02*
X175656480Y-174942125D01*
X146155262Y-99010718D02*
X146203138Y-99019025D01*
X184496097Y-102002170D02*
X184495703Y-102001878D01*
X159939987Y-146999819D02*
X159900259Y-146971839D01*
X121924637Y-101388855D02*
X121904946Y-101433278D01*
X184497517Y-175003522D02*
X184497188Y-175003159D01*
X134499918Y-29009318D02*
X134499870Y-29008830D01*
X184499870Y-102008830D02*
X184499798Y-102008344D01*
X137508830Y-102000129D02*
X137508344Y-102000201D01*
X184499087Y-171993997D02*
X184499275Y-171993544D01*
X125224721Y-99361952D02*
X125256460Y-99325158D01*
X134756460Y-77491825D02*
X134789966Y-77456633D01*
X121297380Y-172042631D02*
X121343519Y-172057874D01*
X146883099Y-28476681D02*
X146859148Y-28518960D01*
X184499087Y-29006002D02*
X184498877Y-29005558D01*
X184494441Y-25998877D02*
X184494874Y-25998646D01*
X137512272Y-99000000D02*
X146009877Y-99000000D01*
X150481039Y-174859148D02*
X150439987Y-174833152D01*
X122000000Y-172990122D02*
X122000000Y-174009877D01*
X137359148Y-146685626D02*
X137333152Y-146726679D01*
X134616900Y-54356651D02*
X134640851Y-54314373D01*
X184497517Y-180996477D02*
X184497829Y-180996097D01*
X160344737Y-150177384D02*
X160392963Y-150171436D01*
X162504296Y-102001878D02*
X162503902Y-102002170D01*
X160023318Y-74049766D02*
X159981039Y-74025815D01*
X112500912Y-29006002D02*
X112500724Y-29006455D01*
X137504704Y-98998394D02*
X137505125Y-98998646D01*
X146476681Y-26116900D02*
X146518960Y-26140851D01*
X150611144Y-174924637D02*
X150566721Y-174904946D01*
X121805173Y-172400259D02*
X121833152Y-172439987D01*
X121805173Y-26400259D02*
X121833152Y-26439987D01*
X162383099Y-77689985D02*
X162404946Y-77733388D01*
X125010718Y-28155262D02*
X125004770Y-28107036D01*
X175224721Y-101638047D02*
X175194826Y-101599740D01*
X146710033Y-101710033D02*
X146674841Y-101743539D01*
X146599740Y-172194826D02*
X146638047Y-172224721D01*
X137383099Y-127356651D02*
X137404946Y-127400055D01*
X184499583Y-175007387D02*
X184499440Y-175006917D01*
X121388855Y-172075362D02*
X121433278Y-172095053D01*
X159495703Y-98998121D02*
X159496097Y-98997829D01*
X134939987Y-123666485D02*
X134900259Y-123638506D01*
X161750549Y-53863005D02*
X161797380Y-53875965D01*
X162489281Y-122988596D02*
X162480974Y-123036472D01*
X184499798Y-29008344D02*
X184499702Y-29007863D01*
X175095053Y-28433278D02*
X175075362Y-28388855D01*
X121957368Y-26702619D02*
X121970328Y-26749450D01*
X162404946Y-50266611D02*
X162383099Y-50310014D01*
X137442125Y-77823146D02*
X137457368Y-77869285D01*
X134861952Y-127058055D02*
X134900259Y-127028160D01*
X137210033Y-77456633D02*
X137243539Y-77491825D01*
X162500000Y-98987727D02*
X162500003Y-98987972D01*
X125439987Y-172166847D02*
X125481039Y-172140851D01*
X159499798Y-171991655D02*
X159499870Y-171991169D01*
X184495703Y-20001878D02*
X184495295Y-20001605D01*
X112500559Y-171993082D02*
X112500724Y-171993544D01*
X146710033Y-28710033D02*
X146674841Y-28743539D01*
X159493544Y-171999275D02*
X159493997Y-171999087D01*
X171989281Y-99844737D02*
X171995229Y-99892963D01*
X112500081Y-171990681D02*
X112500129Y-171991169D01*
X137506002Y-102000912D02*
X137505558Y-102001122D01*
X146942125Y-28343519D02*
X146924637Y-28388855D01*
X137138047Y-123608611D02*
X137099740Y-123638506D01*
X171250549Y-172029671D02*
X171297380Y-172042631D01*
X171343519Y-99057874D02*
X171388855Y-99075362D01*
X135296861Y-50814307D02*
X135249450Y-50803661D01*
X134861952Y-73941944D02*
X134825158Y-73910206D01*
X135490122Y-150166666D02*
X136509877Y-150166666D01*
X159939987Y-123666485D02*
X159900259Y-123638506D01*
X134500000Y-98987727D02*
X134500000Y-78156789D01*
X135023318Y-50716432D02*
X134981039Y-50692482D01*
X125000000Y-101009877D02*
X125000000Y-99990122D01*
X121833152Y-26439987D02*
X121859148Y-26481039D01*
X121710033Y-28710033D02*
X121674841Y-28743539D01*
X162500000Y-78156789D02*
X162500000Y-98987727D01*
X134495703Y-29001878D02*
X134495295Y-29001605D01*
X134499702Y-29007863D02*
X134499583Y-29007387D01*
X137489281Y-151011403D02*
X137495229Y-151059629D01*
X184493082Y-20000559D02*
X184492612Y-20000416D01*
X171859148Y-172481039D02*
X171883099Y-172523318D01*
X137506002Y-98999087D02*
X137506455Y-98999275D01*
X135111144Y-50757971D02*
X135066721Y-50738280D01*
X150256460Y-172325158D02*
X150289966Y-172289966D01*
X175001195Y-174058576D02*
X175000000Y-174009877D01*
X184494874Y-175001353D02*
X184494441Y-175001122D01*
X150075362Y-28388855D02*
X150057874Y-28343519D01*
X159595053Y-146599944D02*
X159575362Y-146555522D01*
X150892963Y-174995229D02*
X150844737Y-174989281D01*
X121560012Y-101833152D02*
X121518960Y-101859148D01*
X159939987Y-54000180D02*
X159981039Y-53974184D01*
X161976681Y-123716432D02*
X161933278Y-123738280D01*
X159939987Y-127000180D02*
X159981039Y-126974184D01*
X184491655Y-102000201D02*
X184491169Y-102000129D01*
X112502482Y-98996477D02*
X112502811Y-98996840D01*
X162501605Y-102004704D02*
X162501353Y-102005125D01*
X112501122Y-98994441D02*
X112501353Y-98994874D01*
X150400259Y-26194826D02*
X150439987Y-26166847D01*
X112506917Y-29000559D02*
X112506455Y-29000724D01*
X162383099Y-146643348D02*
X162359148Y-146685626D01*
X137512027Y-29000003D02*
X137509809Y-29000057D01*
X112500057Y-175009809D02*
X112500003Y-175012027D01*
X159575362Y-77777811D02*
X159595053Y-77733388D01*
X125990122Y-26000000D02*
X146009877Y-26000000D01*
X150566721Y-28904946D02*
X150523318Y-28883099D01*
X162507863Y-102000297D02*
X162507387Y-102000416D01*
X159494874Y-98998646D02*
X159495295Y-98998394D01*
X135156480Y-150224540D02*
X135202619Y-150209298D01*
X175166847Y-172439987D02*
X175194826Y-172400259D01*
X134500000Y-127823456D02*
X134501195Y-127774756D01*
X171942125Y-172656480D02*
X171957368Y-172702619D01*
X134494874Y-29001353D02*
X134494441Y-29001122D01*
X162501122Y-98994441D02*
X162501353Y-98994874D01*
X159499870Y-29008830D02*
X159499798Y-29008344D01*
X184487727Y-99000000D02*
X184487972Y-98999996D01*
X159616900Y-127356651D02*
X159640851Y-127314373D01*
X112500724Y-20006455D02*
X112500559Y-20006917D01*
X175796861Y-26019025D02*
X175844737Y-26010718D01*
X134510718Y-73321929D02*
X134504770Y-73273703D01*
X137504704Y-102001605D02*
X137504296Y-102001878D01*
X121995229Y-28107036D02*
X121989281Y-28155262D01*
X150566721Y-172095053D02*
X150611144Y-172075362D01*
X150844737Y-172010718D02*
X150892963Y-172004770D01*
X134529671Y-50083882D02*
X134519025Y-50036472D01*
X134497188Y-29003159D02*
X134496840Y-29002811D01*
X134497188Y-98996840D02*
X134497517Y-98996477D01*
X146904946Y-99566721D02*
X146924637Y-99611144D01*
X134499870Y-171991169D02*
X134499918Y-171990681D01*
X134789966Y-54123299D02*
X134825158Y-54089793D01*
X175075362Y-172611144D02*
X175095053Y-172566721D01*
X134542631Y-146464047D02*
X134529671Y-146417216D01*
X150194826Y-99400259D02*
X150224721Y-99361952D01*
X135066721Y-150261719D02*
X135111144Y-150242028D01*
X171297380Y-101957368D02*
X171250549Y-101970328D01*
X137507387Y-102000416D02*
X137506917Y-102000559D01*
X171995229Y-99892963D02*
X171998804Y-99941423D01*
X150990122Y-26000000D02*
X171009877Y-26000000D01*
X137489281Y-49988596D02*
X137480974Y-50036472D01*
X175481039Y-101859148D02*
X175439987Y-101833152D01*
X112512027Y-20000003D02*
X112509809Y-20000057D01*
X112500129Y-98991169D02*
X112500201Y-98991655D01*
X175566721Y-172095053D02*
X175611144Y-172075362D01*
X146989281Y-174155262D02*
X146980974Y-174203138D01*
X162512027Y-29000003D02*
X162509809Y-29000057D01*
X146833152Y-174560012D02*
X146805173Y-174599740D01*
X137138047Y-73941944D02*
X137099740Y-73971839D01*
X146989281Y-99844737D02*
X146995229Y-99892963D01*
X184498646Y-98994874D02*
X184498877Y-98994441D01*
X171155262Y-28989281D02*
X171107036Y-28995229D01*
X159495703Y-102001878D02*
X159495295Y-102001605D01*
X184494441Y-171998877D02*
X184494874Y-171998646D01*
X125325158Y-26256460D02*
X125361952Y-26224721D01*
X160156480Y-126891207D02*
X160202619Y-126875965D01*
X161750549Y-77196338D02*
X161797380Y-77209298D01*
X159496840Y-102002811D02*
X159496477Y-102002482D01*
X137508344Y-171999798D02*
X137508830Y-171999870D01*
X134510718Y-54678070D02*
X134519025Y-54630194D01*
X162500003Y-102012027D02*
X162500000Y-102012272D01*
X135392963Y-147161896D02*
X135344737Y-147155948D01*
X184499996Y-175012027D02*
X184499942Y-175009809D01*
X184498121Y-25995703D02*
X184498394Y-25995295D01*
X121107036Y-174995229D02*
X121058576Y-174998804D01*
X125611144Y-99075362D02*
X125656480Y-99057874D01*
X184500000Y-29012272D02*
X184499996Y-29012027D01*
X125004770Y-172892963D02*
X125010718Y-172844737D01*
X159504770Y-73273703D02*
X159501195Y-73225243D01*
X150116900Y-174476681D02*
X150095053Y-174433278D01*
X184499087Y-175006002D02*
X184498877Y-175005558D01*
X150941423Y-172001195D02*
X150990122Y-172000000D01*
X112505125Y-98998646D02*
X112505558Y-98998877D01*
X125611144Y-28924637D02*
X125566721Y-28904946D01*
X175481039Y-26140851D02*
X175523318Y-26116900D01*
X162505125Y-98998646D02*
X162505558Y-98998877D01*
X136888855Y-74091304D02*
X136843519Y-74108792D01*
X184487972Y-29000003D02*
X184487727Y-29000000D01*
X184498877Y-180994441D02*
X184499087Y-180993997D01*
X159499583Y-98992612D02*
X159499702Y-98992136D01*
X135344737Y-123822615D02*
X135296861Y-123814307D01*
X134756460Y-150491825D02*
X134789966Y-150456633D01*
X161888855Y-150242028D02*
X161933278Y-150261719D01*
X160344737Y-147155948D02*
X160296861Y-147147641D01*
X121989281Y-28155262D02*
X121980974Y-28203138D01*
X159500000Y-54823456D02*
X159500000Y-54823456D01*
X160111144Y-126908695D02*
X160156480Y-126891207D01*
X135066721Y-147071613D02*
X135023318Y-147049766D01*
X175892963Y-174995229D02*
X175844737Y-174989281D01*
X136888855Y-77242028D02*
X136933278Y-77261719D01*
X162500129Y-171991169D02*
X162500201Y-171991655D01*
X159595053Y-54400055D02*
X159616900Y-54356651D01*
X162018960Y-126974184D02*
X162060012Y-127000180D01*
X162442125Y-54489813D02*
X162457368Y-54535952D01*
X161655262Y-53844051D02*
X161703138Y-53852358D01*
X160066721Y-74071613D02*
X160023318Y-74049766D01*
X171250549Y-101970328D02*
X171203138Y-101980974D01*
X162174841Y-54089793D02*
X162210033Y-54123299D01*
X184492136Y-25999702D02*
X184492612Y-25999583D01*
X146058576Y-174998804D02*
X146009877Y-175000000D01*
X146743539Y-101674841D02*
X146710033Y-101710033D01*
X161509877Y-126833333D02*
X161558576Y-126834528D01*
X146058576Y-172001195D02*
X146107036Y-172004770D01*
X112507387Y-180999583D02*
X112507863Y-180999702D01*
X137508830Y-29000129D02*
X137508344Y-29000201D01*
X134498877Y-29005558D02*
X134498646Y-29005125D01*
X134490681Y-171999918D02*
X134491169Y-171999870D01*
X146904946Y-101433278D02*
X146883099Y-101476681D01*
X112500003Y-20012027D02*
X112500000Y-20012272D01*
X175057874Y-101343519D02*
X175042631Y-101297380D01*
X125001195Y-172941423D02*
X125004770Y-172892963D01*
X134825158Y-150423127D02*
X134861952Y-150391388D01*
X137099740Y-146971839D02*
X137060012Y-146999819D01*
X135344737Y-147155948D02*
X135296861Y-147147641D01*
X150990122Y-172000000D02*
X159487727Y-172000000D01*
X171833152Y-172439987D02*
X171859148Y-172481039D01*
X171203138Y-172019025D02*
X171250549Y-172029671D01*
X135156480Y-126891207D02*
X135202619Y-126875965D01*
X137174841Y-73910206D02*
X137138047Y-73941944D01*
X159504770Y-122940370D02*
X159501195Y-122891910D01*
X184491169Y-102000129D02*
X184490681Y-102000081D01*
X159616900Y-73643348D02*
X159595053Y-73599944D01*
X125116900Y-101476681D02*
X125095053Y-101433278D01*
X172000000Y-99990122D02*
X172000000Y-101009877D01*
X125289966Y-26289966D02*
X125325158Y-26256460D01*
X137498804Y-78108089D02*
X137500000Y-78156789D01*
X137060012Y-150333514D02*
X137099740Y-150361493D01*
X159542631Y-150869285D02*
X159557874Y-150823146D01*
X134499440Y-29006917D02*
X134499275Y-29006455D01*
X184499942Y-29009809D02*
X184499918Y-29009318D01*
X162500081Y-98990681D02*
X162500129Y-98991169D01*
X171942125Y-99656480D02*
X171957368Y-99702619D01*
X161703138Y-74147641D02*
X161655262Y-74155948D01*
X159861952Y-127058055D02*
X159900259Y-127028160D01*
X137495229Y-78059629D02*
X137498804Y-78108089D01*
X121250549Y-174970328D02*
X121203138Y-174980974D01*
X147000000Y-26990122D02*
X147000000Y-28009877D01*
X160066721Y-50738280D02*
X160023318Y-50716432D01*
X161843519Y-123775459D02*
X161797380Y-123790701D01*
X162500129Y-29008830D02*
X162500081Y-29009318D01*
X136976681Y-126950233D02*
X137018960Y-126974184D01*
X162099740Y-50638506D02*
X162060012Y-50666485D01*
X150361952Y-174775278D02*
X150325158Y-174743539D01*
X125166847Y-174560012D02*
X125140851Y-174518960D01*
X134529671Y-123083882D02*
X134519025Y-123036472D01*
X125990122Y-102000000D02*
X125941423Y-101998804D01*
X136843519Y-123775459D02*
X136797380Y-123790701D01*
X137359148Y-50352293D02*
X137333152Y-50393346D01*
X161607036Y-50828563D02*
X161558576Y-50832137D01*
X125042631Y-99702619D02*
X125057874Y-99656480D01*
X159900259Y-77361493D02*
X159939987Y-77333514D01*
X175116900Y-26523318D02*
X175140851Y-26481039D01*
X159497829Y-29003902D02*
X159497517Y-29003522D01*
X171599740Y-174805173D02*
X171560012Y-174833152D01*
X159519025Y-127630194D02*
X159529671Y-127582783D01*
X137501353Y-171994874D02*
X137501605Y-171995295D01*
X112500003Y-98987972D02*
X112500057Y-98990190D01*
X159496477Y-29002482D02*
X159496097Y-29002170D01*
X134501195Y-127774756D02*
X134504770Y-127726296D01*
X184495295Y-25998394D02*
X184495703Y-25998121D01*
X121343519Y-174942125D02*
X121297380Y-174957368D01*
X137099740Y-77361493D02*
X137138047Y-77391388D01*
X137489281Y-122988596D02*
X137480974Y-123036472D01*
X184491655Y-175000201D02*
X184491169Y-175000129D01*
X162498804Y-73225243D02*
X162495229Y-73273703D01*
X146203138Y-26019025D02*
X146250549Y-26029671D01*
X184495703Y-171998121D02*
X184496097Y-171997829D01*
X134861952Y-146941944D02*
X134825158Y-146910206D01*
X150042631Y-101297380D02*
X150029671Y-101250549D01*
X159724721Y-146804714D02*
X159694826Y-146766407D01*
X161607036Y-77171436D02*
X161655262Y-77177384D01*
X175140851Y-172481039D02*
X175166847Y-172439987D01*
X112509318Y-29000081D02*
X112508830Y-29000129D01*
X135441423Y-77167862D02*
X135490122Y-77166666D01*
X160202619Y-74124034D02*
X160156480Y-74108792D01*
X175224721Y-28638047D02*
X175194826Y-28599740D01*
X161933278Y-77261719D02*
X161976681Y-77283567D01*
X175029671Y-101250549D02*
X175019025Y-101203138D01*
X184496097Y-25997829D02*
X184496477Y-25997517D01*
X175611144Y-172075362D02*
X175656480Y-172057874D01*
X146155262Y-26010718D02*
X146203138Y-26019025D01*
X134499087Y-98993997D02*
X134499275Y-98993544D01*
X134497829Y-98996097D02*
X134498121Y-98995703D01*
X121980974Y-28203138D02*
X121970328Y-28250549D01*
X171805173Y-28599740D02*
X171775278Y-28638047D01*
X134493082Y-171999440D02*
X134493544Y-171999275D01*
X112506917Y-180999440D02*
X112507387Y-180999583D01*
X150990122Y-102000000D02*
X150941423Y-101998804D01*
X136843519Y-126891207D02*
X136888855Y-126908695D01*
X134519025Y-127630194D02*
X134529671Y-127582783D01*
X134510718Y-146321929D02*
X134504770Y-146273703D01*
X150116900Y-26523318D02*
X150140851Y-26481039D01*
X121980974Y-99796861D02*
X121989281Y-99844737D01*
X137507863Y-171999702D02*
X137508344Y-171999798D01*
X175325158Y-101743539D02*
X175289966Y-101710033D01*
X162506917Y-29000559D02*
X162506455Y-29000724D01*
X112500297Y-25992136D02*
X112500416Y-25992612D01*
X146058576Y-26001195D02*
X146107036Y-26004770D01*
X125004770Y-26892963D02*
X125010718Y-26844737D01*
X150057874Y-172656480D02*
X150075362Y-172611144D01*
X125289966Y-28710033D02*
X125256460Y-28674841D01*
X112508344Y-29000201D02*
X112507863Y-29000297D01*
X175289966Y-99289966D02*
X175325158Y-99256460D01*
X137501878Y-102004296D02*
X137501605Y-102004704D01*
X162470328Y-50083882D02*
X162457368Y-50130714D01*
X184499798Y-171991655D02*
X184499870Y-171991169D01*
X175656480Y-101942125D02*
X175611144Y-101924637D01*
X150611144Y-101924637D02*
X150566721Y-101904946D01*
X146433278Y-101904946D02*
X146388855Y-101924637D01*
X135344737Y-74155948D02*
X135296861Y-74147641D01*
X146476681Y-174883099D02*
X146433278Y-174904946D01*
X134496477Y-171997517D02*
X134496840Y-171997188D01*
X160156480Y-74108792D02*
X160111144Y-74091304D01*
X159504770Y-127726296D02*
X159510718Y-127678070D01*
X162359148Y-77647706D02*
X162383099Y-77689985D01*
X160202619Y-147124034D02*
X160156480Y-147108792D01*
X134694826Y-54233592D02*
X134724721Y-54195285D01*
X184496097Y-98997829D02*
X184496477Y-98997517D01*
X146250549Y-28970328D02*
X146203138Y-28980974D01*
X134500000Y-54823456D02*
X134500000Y-54823456D01*
X134499275Y-29006455D02*
X134499087Y-29006002D01*
X160249450Y-53863005D02*
X160296861Y-53852358D01*
X161607036Y-53838103D02*
X161655262Y-53844051D01*
X175029671Y-26749450D02*
X175042631Y-26702619D01*
X121859148Y-28518960D02*
X121833152Y-28560012D01*
X150400259Y-174805173D02*
X150361952Y-174775278D01*
X171560012Y-172166847D02*
X171599740Y-172194826D01*
X112506455Y-29000724D02*
X112506002Y-29000912D01*
X136509877Y-53833333D02*
X136558576Y-53834528D01*
X134490190Y-171999942D02*
X134490681Y-171999918D01*
X159493544Y-98999275D02*
X159493997Y-98999087D01*
X134495295Y-29001605D02*
X134494874Y-29001353D01*
X134756460Y-146841508D02*
X134724721Y-146804714D01*
X171883099Y-174476681D02*
X171859148Y-174518960D01*
X136888855Y-50757971D02*
X136843519Y-50775459D01*
X159490681Y-98999918D02*
X159491169Y-98999870D01*
X134499087Y-29006002D02*
X134498877Y-29005558D01*
X150400259Y-99194826D02*
X150439987Y-99166847D01*
X159497829Y-102003902D02*
X159497517Y-102003522D01*
X135296861Y-74147641D02*
X135249450Y-74136994D01*
X184490681Y-180999918D02*
X184491169Y-180999870D01*
X125019025Y-28203138D02*
X125010718Y-28155262D01*
X184498877Y-29005558D02*
X184498646Y-29005125D01*
X161843519Y-150224540D02*
X161888855Y-150242028D01*
X134501195Y-151108089D02*
X134504770Y-151059629D01*
X135490122Y-50833333D02*
X135441423Y-50832137D01*
X137501353Y-98994874D02*
X137501605Y-98995295D01*
X161843519Y-77224540D02*
X161888855Y-77242028D01*
X135111144Y-77242028D02*
X135156480Y-77224540D01*
X184492136Y-175000297D02*
X184491655Y-175000201D01*
X159939987Y-150333514D02*
X159981039Y-150307517D01*
X171833152Y-174560012D02*
X171805173Y-174599740D01*
X161607036Y-147161896D02*
X161558576Y-147165471D01*
X137502170Y-29003902D02*
X137501878Y-29004296D01*
X160296861Y-147147641D02*
X160249450Y-147136994D01*
X147000000Y-172990122D02*
X147000000Y-174009877D01*
X171924637Y-26611144D02*
X171942125Y-26656480D01*
X172000000Y-26990122D02*
X172000000Y-28009877D01*
X137505558Y-98998877D02*
X137506002Y-98999087D01*
X159498877Y-98994441D02*
X159499087Y-98993997D01*
X146980974Y-101203138D02*
X146970328Y-101250549D01*
X162498804Y-122891910D02*
X162495229Y-122940370D01*
X125029671Y-26749450D02*
X125042631Y-26702619D01*
X135392963Y-126838103D02*
X135441423Y-126834528D01*
X171638047Y-174775278D02*
X171599740Y-174805173D01*
X137506917Y-98999440D02*
X137507387Y-98999583D01*
X159519025Y-123036472D02*
X159510718Y-122988596D01*
X121297380Y-99042631D02*
X121343519Y-99057874D01*
X162243539Y-50508174D02*
X162210033Y-50543366D01*
X134494441Y-171998877D02*
X134494874Y-171998646D01*
X136933278Y-53928386D02*
X136976681Y-53950233D01*
X146009877Y-102000000D02*
X137512272Y-102000000D01*
X121970328Y-172749450D02*
X121980974Y-172796861D01*
X160202619Y-50790701D02*
X160156480Y-50775459D01*
X125095053Y-174433278D02*
X125075362Y-174388855D01*
X112500912Y-180993997D02*
X112501122Y-180994441D01*
X159496840Y-171997188D02*
X159497188Y-171996840D01*
X112506455Y-102000724D02*
X112506002Y-102000912D01*
X125656480Y-26057874D02*
X125702619Y-26042631D01*
X175523318Y-172116900D02*
X175566721Y-172095053D01*
X175004770Y-174107036D02*
X175001195Y-174058576D01*
X184499918Y-25990681D02*
X184499942Y-25990190D01*
X112504296Y-20001878D02*
X112503902Y-20002170D01*
X146155262Y-28989281D02*
X146107036Y-28995229D01*
X184497829Y-98996097D02*
X184498121Y-98995703D01*
X175325158Y-26256460D02*
X175361952Y-26224721D01*
X162210033Y-127123299D02*
X162243539Y-127158491D01*
X162503522Y-102002482D02*
X162503159Y-102002811D01*
X150289966Y-28710033D02*
X150256460Y-28674841D01*
X184499942Y-180990190D02*
X184499996Y-180987972D01*
X135156480Y-74108792D02*
X135111144Y-74091304D01*
X137507863Y-98999702D02*
X137508344Y-98999798D01*
X161703138Y-147147641D02*
X161655262Y-147155948D01*
X175611144Y-101924637D02*
X175566721Y-101904946D01*
X160111144Y-74091304D02*
X160066721Y-74071613D01*
X146998804Y-28058576D02*
X146995229Y-28107036D01*
X112500416Y-102007387D02*
X112500297Y-102007863D01*
X112500081Y-98990681D02*
X112500129Y-98991169D01*
X146155262Y-101989281D02*
X146107036Y-101995229D01*
X150702619Y-28957368D02*
X150656480Y-28942125D01*
X159499440Y-102006917D02*
X159499275Y-102006455D01*
X134756460Y-54158491D02*
X134789966Y-54123299D01*
X175400259Y-174805173D02*
X175361952Y-174775278D01*
X112501878Y-29004296D02*
X112501605Y-29004704D01*
X136607036Y-74161896D02*
X136558576Y-74165471D01*
X171518960Y-101859148D02*
X171476681Y-101883099D01*
X135344737Y-53844051D02*
X135392963Y-53838103D01*
X137210033Y-150456633D02*
X137243539Y-150491825D01*
X159825158Y-77423127D02*
X159861952Y-77391388D01*
X112500559Y-29006917D02*
X112500416Y-29007387D01*
X112502482Y-171996477D02*
X112502811Y-171996840D01*
X175140851Y-174518960D02*
X175116900Y-174476681D01*
X160249450Y-50803661D02*
X160202619Y-50790701D01*
X175702619Y-26042631D02*
X175749450Y-26029671D01*
X161655262Y-126844051D02*
X161703138Y-126852358D01*
X136843519Y-150224540D02*
X136888855Y-150242028D01*
X136888855Y-150242028D02*
X136933278Y-150261719D01*
X160490122Y-53833333D02*
X161509877Y-53833333D01*
X135111144Y-123757971D02*
X135066721Y-123738280D01*
X136558576Y-147165471D02*
X136509877Y-147166666D01*
X159500000Y-102012272D02*
X159499996Y-102012027D01*
X136703138Y-50814307D02*
X136655262Y-50822615D01*
X161933278Y-50738280D02*
X161888855Y-50757971D01*
X159500000Y-54823456D02*
X159501195Y-54774756D01*
X171388855Y-26075362D02*
X171433278Y-26095053D01*
X171998804Y-101058576D02*
X171995229Y-101107036D01*
X184495295Y-180998394D02*
X184495703Y-180998121D01*
X184497188Y-98996840D02*
X184497517Y-98996477D01*
X162489281Y-78011403D02*
X162495229Y-78059629D01*
X137424637Y-77777811D02*
X137442125Y-77823146D01*
X146388855Y-26075362D02*
X146433278Y-26095053D01*
X150702619Y-101957368D02*
X150656480Y-101942125D01*
X150224721Y-99361952D02*
X150256460Y-99325158D01*
X160202619Y-77209298D02*
X160249450Y-77196338D01*
X175656480Y-26057874D02*
X175702619Y-26042631D01*
X159519025Y-77963527D02*
X159529671Y-77916117D01*
X184499440Y-180993082D02*
X184499583Y-180992612D01*
X150010718Y-28155262D02*
X150004770Y-28107036D01*
X175892963Y-101995229D02*
X175844737Y-101989281D01*
X150029671Y-101250549D02*
X150019025Y-101203138D01*
X159501195Y-146225243D02*
X159500000Y-146176543D01*
X134499996Y-29012027D02*
X134499942Y-29009809D01*
X136750549Y-53863005D02*
X136797380Y-53875965D01*
X162498804Y-146225243D02*
X162495229Y-146273703D01*
X150194826Y-101599740D02*
X150166847Y-101560012D01*
X121388855Y-174924637D02*
X121343519Y-174942125D01*
X136976681Y-123716432D02*
X136933278Y-123738280D01*
X171058576Y-172001195D02*
X171107036Y-172004770D01*
X137498804Y-146225243D02*
X137495229Y-146273703D01*
X171883099Y-172523318D02*
X171904946Y-172566721D01*
X184499275Y-29006455D02*
X184499087Y-29006002D01*
X162060012Y-127000180D02*
X162099740Y-127028160D01*
X135249450Y-123803661D02*
X135202619Y-123790701D01*
X150566721Y-174904946D02*
X150523318Y-174883099D01*
X159789966Y-77456633D02*
X159825158Y-77423127D01*
X159492136Y-102000297D02*
X159491655Y-102000201D01*
X171743539Y-101674841D02*
X171710033Y-101710033D01*
X171980974Y-28203138D02*
X171970328Y-28250549D01*
X134861952Y-54058055D02*
X134900259Y-54028160D01*
X121775278Y-26361952D02*
X121805173Y-26400259D01*
X162305173Y-54233592D02*
X162333152Y-54273320D01*
X134542631Y-54535952D02*
X134557874Y-54489813D01*
X134492612Y-29000416D02*
X134492136Y-29000297D01*
X184496477Y-180997517D02*
X184496840Y-180997188D01*
X146009877Y-175000000D02*
X125990122Y-175000000D01*
X146980974Y-99796861D02*
X146989281Y-99844737D01*
X150844737Y-99010718D02*
X150892963Y-99004770D01*
X159487727Y-102000000D02*
X150990122Y-102000000D01*
X184499583Y-29007387D02*
X184499440Y-29006917D01*
X125194826Y-174599740D02*
X125166847Y-174560012D01*
X159756460Y-123508174D02*
X159724721Y-123471380D01*
X159495703Y-171998121D02*
X159496097Y-171997829D01*
X171009877Y-175000000D02*
X150990122Y-175000000D01*
X162503902Y-29002170D02*
X162503522Y-29002482D01*
X184498646Y-180994874D02*
X184498877Y-180994441D01*
X159491169Y-29000129D02*
X159490681Y-29000081D01*
X160249450Y-74136994D02*
X160202619Y-74124034D01*
X150029671Y-174250549D02*
X150019025Y-174203138D01*
X162138047Y-127058055D02*
X162174841Y-127089793D01*
X137507387Y-171999583D02*
X137507863Y-171999702D01*
X137174841Y-127089793D02*
X137210033Y-127123299D01*
X112505558Y-98998877D02*
X112506002Y-98999087D01*
X134501195Y-73225243D02*
X134500000Y-73176543D01*
X175194826Y-99400259D02*
X175224721Y-99361952D01*
X137305173Y-127233592D02*
X137333152Y-127273320D01*
X150656480Y-174942125D02*
X150611144Y-174924637D01*
X159493082Y-102000559D02*
X159492612Y-102000416D01*
X134500000Y-29012272D02*
X134499996Y-29012027D01*
X175029671Y-99749450D02*
X175042631Y-99702619D01*
X175001195Y-28058576D02*
X175000000Y-28009877D01*
X121388855Y-26075362D02*
X121433278Y-26095053D01*
X121743539Y-174674841D02*
X121710033Y-174710033D01*
X150289966Y-26289966D02*
X150325158Y-26256460D01*
X134557874Y-77823146D02*
X134575362Y-77777811D01*
X146970328Y-99749450D02*
X146980974Y-99796861D01*
X184487727Y-175000000D02*
X175990122Y-175000000D01*
X160392963Y-147161896D02*
X160344737Y-147155948D01*
X112500081Y-175009318D02*
X112500057Y-175009809D01*
X159981039Y-150307517D02*
X160023318Y-150283567D01*
X122000000Y-26990122D02*
X122000000Y-28009877D01*
X134495703Y-102001878D02*
X134495295Y-102001605D01*
X162383099Y-73643348D02*
X162359148Y-73685626D01*
X146433278Y-99095053D02*
X146476681Y-99116900D01*
X159499702Y-98992136D02*
X159499798Y-98991655D01*
X137333152Y-77606653D02*
X137359148Y-77647706D01*
X159529671Y-123083882D02*
X159519025Y-123036472D01*
X112500912Y-102006002D02*
X112500724Y-102006455D01*
X112501122Y-171994441D02*
X112501353Y-171994874D01*
X137383099Y-123310014D02*
X137359148Y-123352293D01*
X125702619Y-28957368D02*
X125656480Y-28942125D01*
X112508830Y-29000129D02*
X112508344Y-29000201D01*
X146203138Y-28980974D02*
X146155262Y-28989281D01*
X125702619Y-101957368D02*
X125656480Y-101942125D01*
X137498804Y-73225243D02*
X137495229Y-73273703D01*
X112500129Y-102008830D02*
X112500081Y-102009318D01*
X162503902Y-102002170D02*
X162503522Y-102002482D01*
X136843519Y-74108792D02*
X136797380Y-74124034D01*
X137138047Y-150391388D02*
X137174841Y-150423127D01*
X112503522Y-171997517D02*
X112503902Y-171997829D01*
X137507863Y-102000297D02*
X137507387Y-102000416D01*
X160441423Y-126834528D02*
X160490122Y-126833333D01*
X112506002Y-98999087D02*
X112506455Y-98999275D01*
X175057874Y-99656480D02*
X175075362Y-99611144D01*
X162507387Y-29000416D02*
X162506917Y-29000559D01*
X134519025Y-77963527D02*
X134529671Y-77916117D01*
X171957368Y-101297380D02*
X171942125Y-101343519D01*
X112509809Y-20000057D02*
X112509318Y-20000081D01*
X184499798Y-25991655D02*
X184499870Y-25991169D01*
X184498394Y-29004704D02*
X184498121Y-29004296D01*
X159499870Y-98991169D02*
X159499918Y-98990681D01*
X159557874Y-123176853D02*
X159542631Y-123130714D01*
X184493082Y-102000559D02*
X184492612Y-102000416D01*
X134497517Y-171996477D02*
X134497829Y-171996097D01*
X175702619Y-172042631D02*
X175749450Y-172029671D01*
X137442125Y-150823146D02*
X137457368Y-150869285D01*
X159495295Y-98998394D02*
X159495703Y-98998121D01*
X134900259Y-73971839D02*
X134861952Y-73941944D01*
X121998804Y-26941423D02*
X122000000Y-26990122D01*
X137495229Y-122940370D02*
X137489281Y-122988596D01*
X162508830Y-98999870D02*
X162509318Y-98999918D01*
X146155262Y-172010718D02*
X146203138Y-172019025D01*
X162500724Y-98993544D02*
X162500912Y-98993997D01*
X134789966Y-50543366D02*
X134756460Y-50508174D01*
X159496477Y-171997517D02*
X159496840Y-171997188D01*
X146775278Y-26361952D02*
X146805173Y-26400259D01*
X125941423Y-28998804D02*
X125892963Y-28995229D01*
X160490122Y-50833333D02*
X160441423Y-50832137D01*
X159666847Y-146726679D02*
X159640851Y-146685626D01*
X135441423Y-150167862D02*
X135490122Y-150166666D01*
X112500000Y-175012272D02*
X112500000Y-180987727D01*
X137502170Y-98996097D02*
X137502482Y-98996477D01*
X136750549Y-123803661D02*
X136703138Y-123814307D01*
X162359148Y-54314373D02*
X162383099Y-54356651D01*
X150075362Y-101388855D02*
X150057874Y-101343519D01*
X162383099Y-150689985D02*
X162404946Y-150733388D01*
X162243539Y-73841508D02*
X162210033Y-73876700D01*
X184499702Y-20007863D02*
X184499583Y-20007387D01*
X175990122Y-29000000D02*
X175941423Y-28998804D01*
X112502482Y-25996477D02*
X112502811Y-25996840D01*
X121560012Y-172166847D02*
X121599740Y-172194826D01*
X161843519Y-53891207D02*
X161888855Y-53908695D01*
X146833152Y-101560012D02*
X146805173Y-101599740D01*
X134498121Y-29004296D02*
X134497829Y-29003902D01*
X112502170Y-25996097D02*
X112502482Y-25996477D01*
X162275278Y-127195285D02*
X162305173Y-127233592D01*
X136655262Y-77177384D02*
X136703138Y-77185692D01*
X137099740Y-127028160D02*
X137138047Y-127058055D01*
X184492136Y-98999702D02*
X184492612Y-98999583D01*
X136655262Y-74155948D02*
X136607036Y-74161896D01*
X159494874Y-29001353D02*
X159494441Y-29001122D01*
X146638047Y-172224721D02*
X146674841Y-172256460D01*
X159499440Y-29006917D02*
X159499275Y-29006455D01*
X112502811Y-29003159D02*
X112502482Y-29003522D01*
X159640851Y-123352293D02*
X159616900Y-123310014D01*
X162502170Y-171996097D02*
X162502482Y-171996477D01*
X125481039Y-174859148D02*
X125439987Y-174833152D01*
X159499275Y-98993544D02*
X159499440Y-98993082D01*
X137504296Y-102001878D02*
X137503902Y-102002170D01*
X137383099Y-73643348D02*
X137359148Y-73685626D01*
X125566721Y-172095053D02*
X125611144Y-172075362D01*
X134499918Y-171990681D02*
X134499942Y-171990190D01*
X146009877Y-172000000D02*
X146058576Y-172001195D01*
X159825158Y-127089793D02*
X159861952Y-127058055D01*
X146904946Y-28433278D02*
X146883099Y-28476681D01*
X162512027Y-102000003D02*
X162509809Y-102000057D01*
X112507863Y-29000297D02*
X112507387Y-29000416D01*
X125000000Y-26990122D02*
X125001195Y-26941423D01*
X125796861Y-99019025D02*
X125844737Y-99010718D01*
X137506455Y-29000724D02*
X137506002Y-29000912D01*
X135344737Y-50822615D02*
X135296861Y-50814307D01*
X134789966Y-77456633D02*
X134825158Y-77423127D01*
X184494874Y-25998646D02*
X184495295Y-25998394D01*
X134487972Y-102000003D02*
X134487727Y-102000000D01*
X162509809Y-98999942D02*
X162512027Y-98999996D01*
X175166847Y-101560012D02*
X175140851Y-101518960D01*
X161655262Y-123822615D02*
X161607036Y-123828563D01*
X161655262Y-150177384D02*
X161703138Y-150185692D01*
X175481039Y-174859148D02*
X175439987Y-174833152D01*
X184496477Y-171997517D02*
X184496840Y-171997188D01*
X112506002Y-102000912D02*
X112505558Y-102001122D01*
X146859148Y-101518960D02*
X146833152Y-101560012D01*
X137018960Y-53974184D02*
X137060012Y-54000180D01*
X184498394Y-171995295D02*
X184498646Y-171994874D01*
X137060012Y-50666485D02*
X137018960Y-50692482D01*
X137498804Y-127774756D02*
X137500000Y-127823456D01*
X175116900Y-174476681D02*
X175095053Y-174433278D01*
X137480974Y-123036472D02*
X137470328Y-123083882D01*
X125256460Y-99325158D02*
X125289966Y-99289966D01*
X137305173Y-73766407D02*
X137275278Y-73804714D01*
X171058576Y-101998804D02*
X171009877Y-102000000D01*
X121989281Y-172844737D02*
X121995229Y-172892963D01*
X146859148Y-26481039D02*
X146883099Y-26523318D01*
X159497188Y-98996840D02*
X159497517Y-98996477D01*
X137243539Y-73841508D02*
X137210033Y-73876700D01*
X184496477Y-175002482D02*
X184496097Y-175002170D01*
X121599740Y-99194826D02*
X121638047Y-99224721D01*
X121476681Y-174883099D02*
X121433278Y-174904946D01*
X171560012Y-101833152D02*
X171518960Y-101859148D01*
X125844737Y-26010718D02*
X125892963Y-26004770D01*
X112502170Y-98996097D02*
X112502482Y-98996477D01*
X159542631Y-127535952D02*
X159557874Y-127489813D01*
X137509809Y-102000057D02*
X137509318Y-102000081D01*
X121833152Y-28560012D02*
X121805173Y-28599740D01*
X184499275Y-102006455D02*
X184499087Y-102006002D01*
X135156480Y-50775459D02*
X135111144Y-50757971D01*
X121343519Y-28942125D02*
X121297380Y-28957368D01*
X162424637Y-123222188D02*
X162404946Y-123266611D01*
X112506455Y-175000724D02*
X112506002Y-175000912D01*
X162500297Y-102007863D02*
X162500201Y-102008344D01*
X134487972Y-102000003D02*
X134487972Y-102000003D01*
X137243539Y-127158491D02*
X137275278Y-127195285D01*
X184498394Y-20004704D02*
X184498121Y-20004296D01*
X162333152Y-73726679D02*
X162305173Y-73766407D01*
X175844737Y-101989281D02*
X175796861Y-101980974D01*
X175029671Y-174250549D02*
X175019025Y-174203138D01*
X134595053Y-150733388D02*
X134616900Y-150689985D01*
X121775278Y-99361952D02*
X121805173Y-99400259D01*
X134575362Y-73555522D02*
X134557874Y-73510186D01*
X184497829Y-20003902D02*
X184497517Y-20003522D01*
X137424637Y-50222188D02*
X137404946Y-50266611D01*
X184497188Y-25996840D02*
X184497517Y-25996477D01*
X160066721Y-77261719D02*
X160111144Y-77242028D01*
X121970328Y-26749450D02*
X121980974Y-26796861D01*
X161558576Y-50832137D02*
X161509877Y-50833333D01*
X162502811Y-98996840D02*
X162503159Y-98997188D01*
X150892963Y-28995229D02*
X150844737Y-28989281D01*
X160023318Y-150283567D02*
X160066721Y-150261719D01*
X121924637Y-174388855D02*
X121904946Y-174433278D01*
X112501605Y-29004704D02*
X112501353Y-29005125D01*
X134575362Y-50222188D02*
X134557874Y-50176853D01*
X125042631Y-172702619D02*
X125057874Y-172656480D01*
X121250549Y-99029671D02*
X121297380Y-99042631D01*
X137500000Y-151156789D02*
X137500000Y-171987727D01*
X184499996Y-180987972D02*
X184500000Y-180987727D01*
X150075362Y-99611144D02*
X150095053Y-99566721D01*
X134694826Y-73766407D02*
X134666847Y-73726679D01*
X159500000Y-171987727D02*
X159500000Y-151156789D01*
X135344737Y-150177384D02*
X135392963Y-150171436D01*
X125004770Y-99892963D02*
X125010718Y-99844737D01*
X125000000Y-28009877D02*
X125000000Y-26990122D01*
X146989281Y-172844737D02*
X146995229Y-172892963D01*
X150140851Y-174518960D02*
X150116900Y-174476681D01*
X137500000Y-78156789D02*
X137500000Y-98987727D01*
X137099740Y-50638506D02*
X137060012Y-50666485D01*
X125439987Y-99166847D02*
X125481039Y-99140851D01*
X184492612Y-25999583D02*
X184493082Y-25999440D01*
X159494441Y-98998877D02*
X159494874Y-98998646D01*
X125001195Y-174058576D02*
X125000000Y-174009877D01*
X112501353Y-98994874D02*
X112501605Y-98995295D01*
X171775278Y-28638047D02*
X171743539Y-28674841D01*
X159494874Y-102001353D02*
X159494441Y-102001122D01*
X159756460Y-54158491D02*
X159789966Y-54123299D01*
X146805173Y-101599740D02*
X146775278Y-101638047D01*
X175796861Y-101980974D02*
X175749450Y-101970328D01*
X162333152Y-127273320D02*
X162359148Y-127314373D01*
X159756460Y-127158491D02*
X159789966Y-127123299D01*
X121904946Y-101433278D02*
X121883099Y-101476681D01*
X136750549Y-150196338D02*
X136797380Y-150209298D01*
X134493997Y-171999087D02*
X134494441Y-171998877D01*
X137060012Y-146999819D02*
X137018960Y-147025815D01*
X146107036Y-26004770D02*
X146155262Y-26010718D01*
X184498121Y-175004296D02*
X184497829Y-175003902D01*
X146998804Y-172941423D02*
X147000000Y-172990122D01*
X162506917Y-98999440D02*
X162507387Y-98999583D01*
X162500201Y-171991655D02*
X162500297Y-171992136D01*
X137470328Y-54582783D02*
X137480974Y-54630194D01*
X134493997Y-102000912D02*
X134493544Y-102000724D01*
X160156480Y-150224540D02*
X160202619Y-150209298D01*
X112505125Y-171998646D02*
X112505558Y-171998877D01*
X162507387Y-171999583D02*
X162507863Y-171999702D01*
X134501195Y-78108089D02*
X134504770Y-78059629D01*
X121058576Y-174998804D02*
X121009877Y-175000000D01*
X137457368Y-50130714D02*
X137442125Y-50176853D01*
X162503902Y-98997829D02*
X162504296Y-98998121D01*
X137099740Y-150361493D02*
X137138047Y-150391388D01*
X137500297Y-102007863D02*
X137500201Y-102008344D01*
X112506002Y-171999087D02*
X112506455Y-171999275D01*
X112501878Y-98995703D02*
X112502170Y-98996097D01*
X146942125Y-101343519D02*
X146924637Y-101388855D01*
X159498121Y-171995703D02*
X159498394Y-171995295D01*
X146155262Y-174989281D02*
X146107036Y-174995229D01*
X134499942Y-29009809D02*
X134499942Y-29009809D01*
X159487727Y-99000000D02*
X159487972Y-98999996D01*
X162506455Y-98999275D02*
X162506917Y-98999440D01*
X137512272Y-29000000D02*
X137512027Y-29000003D01*
X160441423Y-53834528D02*
X160490122Y-53833333D01*
X112512027Y-180999996D02*
X112512272Y-181000000D01*
X112505125Y-25998646D02*
X112505558Y-25998877D01*
X134494441Y-102001122D02*
X134493997Y-102000912D01*
X137498804Y-151108089D02*
X137500000Y-151156789D01*
X112509809Y-20000057D02*
X112509809Y-20000057D01*
X184491169Y-171999870D02*
X184491655Y-171999798D01*
X146805173Y-172400259D02*
X146833152Y-172439987D01*
X112500912Y-98993997D02*
X112501122Y-98994441D01*
X184498646Y-20005125D02*
X184498394Y-20004704D01*
X134724721Y-50471380D02*
X134694826Y-50433073D01*
X162500057Y-102009809D02*
X162500003Y-102012027D01*
X175194826Y-26400259D02*
X175224721Y-26361952D01*
X162502811Y-29003159D02*
X162502482Y-29003522D01*
X125029671Y-101250549D02*
X125019025Y-101203138D01*
X171904946Y-26566721D02*
X171924637Y-26611144D01*
X146924637Y-28388855D02*
X146904946Y-28433278D01*
X175361952Y-99224721D02*
X175400259Y-99194826D01*
X146476681Y-101883099D02*
X146433278Y-101904946D01*
X171107036Y-99004770D02*
X171155262Y-99010718D01*
X171970328Y-28250549D02*
X171957368Y-28297380D01*
X146743539Y-99325158D02*
X146775278Y-99361952D01*
X159616900Y-150689985D02*
X159640851Y-150647706D01*
X162500000Y-49843210D02*
X162498804Y-49891910D01*
X134640851Y-146685626D02*
X134616900Y-146643348D01*
X171942125Y-101343519D02*
X171924637Y-101388855D01*
X134492136Y-102000297D02*
X134491655Y-102000201D01*
X175749450Y-174970328D02*
X175702619Y-174957368D01*
X137275278Y-73804714D02*
X137243539Y-73841508D01*
X159498394Y-102004704D02*
X159498121Y-102004296D01*
X161976681Y-74049766D02*
X161933278Y-74071613D01*
X184493997Y-29000912D02*
X184493544Y-29000724D01*
X184499702Y-171992136D02*
X184499798Y-171991655D01*
X134724721Y-146804714D02*
X134694826Y-146766407D01*
X159694826Y-54233592D02*
X159724721Y-54195285D01*
X175042631Y-28297380D02*
X175029671Y-28250549D01*
X159666847Y-54273320D02*
X159694826Y-54233592D01*
X121058576Y-28998804D02*
X121009877Y-29000000D01*
X172000000Y-172990122D02*
X172000000Y-174009877D01*
X137442125Y-146510186D02*
X137424637Y-146555522D01*
X162506455Y-29000724D02*
X162506002Y-29000912D01*
X112507863Y-98999702D02*
X112508344Y-98999798D01*
X125042631Y-101297380D02*
X125029671Y-101250549D01*
X121995229Y-172892963D02*
X121998804Y-172941423D01*
X159499942Y-98990190D02*
X159499996Y-98987972D01*
X134724721Y-73804714D02*
X134694826Y-73766407D01*
X162305173Y-123433073D02*
X162275278Y-123471380D01*
X171433278Y-28904946D02*
X171388855Y-28924637D01*
X134498394Y-98995295D02*
X134498646Y-98994874D01*
X150019025Y-26796861D02*
X150029671Y-26749450D01*
X122000000Y-28009877D02*
X121998804Y-28058576D01*
X137383099Y-150689985D02*
X137404946Y-150733388D01*
X184499440Y-171993082D02*
X184499583Y-171992612D01*
X150075362Y-172611144D02*
X150095053Y-172566721D01*
X159492136Y-29000297D02*
X159491655Y-29000201D01*
X184490681Y-20000081D02*
X184490190Y-20000057D01*
X184498877Y-98994441D02*
X184499087Y-98993997D01*
X121980974Y-174203138D02*
X121970328Y-174250549D01*
X150892963Y-101995229D02*
X150844737Y-101989281D01*
X125000000Y-99990122D02*
X125001195Y-99941423D01*
X137502482Y-102003522D02*
X137502170Y-102003902D01*
X135111144Y-74091304D02*
X135066721Y-74071613D01*
X159490681Y-102000081D02*
X159490190Y-102000057D01*
X171297380Y-28957368D02*
X171250549Y-28970328D01*
X137498804Y-49891910D02*
X137495229Y-49940370D01*
X134497829Y-29003902D02*
X134497517Y-29003522D01*
X159494441Y-29001122D02*
X159493997Y-29000912D01*
X175166847Y-28560012D02*
X175140851Y-28518960D01*
X137470328Y-123083882D02*
X137457368Y-123130714D01*
X162500416Y-29007387D02*
X162500297Y-29007863D01*
X134825158Y-50576872D02*
X134789966Y-50543366D01*
X136703138Y-147147641D02*
X136655262Y-147155948D01*
X134981039Y-126974184D02*
X135023318Y-126950233D01*
X184499942Y-175009809D02*
X184499918Y-175009318D01*
X175941423Y-101998804D02*
X175892963Y-101995229D01*
X112503159Y-20002811D02*
X112502811Y-20003159D01*
X162504704Y-102001605D02*
X162504296Y-102001878D01*
X159492612Y-98999583D02*
X159493082Y-98999440D01*
X121155262Y-174989281D02*
X121107036Y-174995229D01*
X161797380Y-147124034D02*
X161750549Y-147136994D01*
X134499996Y-98987972D02*
X134500000Y-98987727D01*
X184490190Y-98999942D02*
X184490681Y-98999918D01*
X161703138Y-53852358D02*
X161750549Y-53863005D01*
X159510718Y-73321929D02*
X159504770Y-73273703D01*
X137503902Y-29002170D02*
X137503522Y-29002482D01*
X161750549Y-74136994D02*
X161703138Y-74147641D01*
X134491169Y-171999870D02*
X134491655Y-171999798D01*
X150256460Y-26325158D02*
X150289966Y-26289966D01*
X134825158Y-77423127D02*
X134861952Y-77391388D01*
X134789966Y-146876700D02*
X134756460Y-146841508D01*
X146250549Y-99029671D02*
X146297380Y-99042631D01*
X137505558Y-29001122D02*
X137505125Y-29001353D01*
X146995229Y-101107036D02*
X146989281Y-101155262D01*
X121998804Y-172941423D02*
X122000000Y-172990122D01*
X112508830Y-25999870D02*
X112509318Y-25999918D01*
X184493544Y-171999275D02*
X184493997Y-171999087D01*
X134490190Y-29000057D02*
X134487972Y-29000003D01*
X137243539Y-50508174D02*
X137210033Y-50543366D01*
X159496477Y-98997517D02*
X159496840Y-98997188D01*
X136933278Y-123738280D02*
X136888855Y-123757971D01*
X184490190Y-20000057D02*
X184487972Y-20000003D01*
X112501122Y-180994441D02*
X112501353Y-180994874D01*
X121250549Y-101970328D02*
X121203138Y-101980974D01*
X184492612Y-171999583D02*
X184493082Y-171999440D01*
X160392963Y-50828563D02*
X160344737Y-50822615D01*
X136607036Y-53838103D02*
X136655262Y-53844051D01*
X162404946Y-77733388D02*
X162424637Y-77777811D01*
X125019025Y-174203138D02*
X125010718Y-174155262D01*
X134493082Y-29000559D02*
X134492612Y-29000416D01*
X162383099Y-127356651D02*
X162404946Y-127400055D01*
X159825158Y-50576872D02*
X159789966Y-50543366D01*
X137404946Y-54400055D02*
X137424637Y-54444477D01*
X146297380Y-101957368D02*
X146250549Y-101970328D01*
X150166847Y-174560012D02*
X150140851Y-174518960D01*
X162509318Y-29000081D02*
X162508830Y-29000129D01*
X162507863Y-29000297D02*
X162507387Y-29000416D01*
X171989281Y-101155262D02*
X171980974Y-101203138D01*
X184496477Y-20002482D02*
X184496097Y-20002170D01*
M02*
