M48
; DRILL file {KiCad 7.0.8-7.0.8~ubuntu22.04.1} date Thu 07 Dec 2023 10:59:41 CET
; FORMAT={-:-/ absolute / inch / decimal}
; #@! TF.CreationDate,2023-12-07T10:59:41+01:00
; #@! TF.GenerationSoftware,Kicad,Pcbnew,7.0.8-7.0.8~ubuntu22.04.1
; #@! TF.FileFunction,NonPlated,1,2,NPTH
FMAT,2
INCH
; #@! TA.AperFunction,NonPlated,NPTH,ComponentDrill
T1C0.0591
; #@! TA.AperFunction,NonPlated,NPTH,ComponentDrill
T2C0.0787
; #@! TA.AperFunction,NonPlated,NPTH,ComponentDrill
T3C0.0984
%
G90
G05
T1
X4.5276Y-0.8858
X4.5276Y-7.0276
X7.1654Y-0.8858
T2
X4.5472Y-1.9685
X4.5472Y-4.8425
X4.7835Y-1.9685
X4.7835Y-4.8425
X4.9016Y-1.9685
X4.9016Y-4.8425
X5.1378Y-1.9685
X5.1378Y-4.8425
X5.5315Y-1.9685
X5.5315Y-4.8425
X5.7677Y-1.9685
X5.7677Y-4.8425
X5.8858Y-1.9685
X5.8858Y-4.8425
X6.122Y-1.9685
X6.122Y-4.8425
X6.5157Y-1.9685
X6.5157Y-4.8425
X6.752Y-1.9685
X6.752Y-4.8425
X6.8701Y-1.9685
X6.8701Y-4.8425
X7.1063Y-1.9685
X7.1063Y-4.8425
T3
X4.6654Y-1.9685
X4.6654Y-4.8425
X5.0197Y-1.9685
X5.0197Y-4.8425
X5.6496Y-1.9685
X5.6496Y-4.8425
X6.0039Y-1.9685
X6.0039Y-4.8425
X6.6339Y-1.9685
X6.6339Y-4.8425
X6.9882Y-1.9685
X6.9882Y-4.8425
T0
M30
