%TF.GenerationSoftware,KiCad,Pcbnew,7.0.8-7.0.8~ubuntu22.04.1*%
%TF.CreationDate,2023-12-07T10:59:45+01:00*%
%TF.ProjectId,mothbeam_panel,6d6f7468-6265-4616-9d5f-70616e656c2e,rev?*%
%TF.SameCoordinates,Original*%
%TF.FileFunction,Copper,L2,Bot*%
%TF.FilePolarity,Positive*%
%FSLAX46Y46*%
G04 Gerber Fmt 4.6, Leading zero omitted, Abs format (unit mm)*
G04 Created by KiCad (PCBNEW 7.0.8-7.0.8~ubuntu22.04.1) date 2023-12-07 10:59:45*
%MOMM*%
%LPD*%
G01*
G04 APERTURE LIST*
%TA.AperFunction,WasherPad*%
%ADD10C,2.300000*%
%TD*%
%TA.AperFunction,ComponentPad*%
%ADD11C,4.700000*%
%TD*%
%TA.AperFunction,WasherPad*%
%ADD12C,2.800000*%
%TD*%
%TA.AperFunction,SMDPad,CuDef*%
%ADD13C,2.000000*%
%TD*%
G04 APERTURE END LIST*
D10*
%TO.P,H6,*%
%TO.N,*%
X140500000Y-123000000D03*
%TD*%
D11*
%TO.P,H3,1*%
%TO.N,N/C*%
X127651400Y-87138000D03*
%TD*%
%TO.P,H2,1*%
%TO.N,N/C*%
X166170600Y-104664400D03*
%TD*%
D10*
%TO.P,H7,*%
%TO.N,*%
X149500000Y-123000000D03*
%TD*%
%TO.P,H7,*%
%TO.N,*%
X174500000Y-50000000D03*
%TD*%
D12*
%TO.P,H9,*%
%TO.N,*%
X118500000Y-123000000D03*
%TD*%
D11*
%TO.P,H2,1*%
%TO.N,N/C*%
X166170600Y-31664400D03*
%TD*%
%TO.P,H3,1*%
%TO.N,N/C*%
X152651400Y-160138000D03*
%TD*%
D10*
%TO.P,H4,*%
%TO.N,*%
X180500000Y-50000000D03*
%TD*%
%TO.P,H5,*%
%TO.N,*%
X171500000Y-123000000D03*
%TD*%
D12*
%TO.P,H8,*%
%TO.N,*%
X177500000Y-123000000D03*
%TD*%
D10*
%TO.P,H5,*%
%TO.N,*%
X146500000Y-50000000D03*
%TD*%
%TO.P,H4,*%
%TO.N,*%
X130500000Y-50000000D03*
%TD*%
%TO.P,H6,*%
%TO.N,*%
X165500000Y-123000000D03*
%TD*%
%TO.P,H4,*%
%TO.N,*%
X130500000Y-123000000D03*
%TD*%
D12*
%TO.P,H9,*%
%TO.N,*%
X118500000Y-50000000D03*
%TD*%
D11*
%TO.P,H2,1*%
%TO.N,N/C*%
X141170600Y-31664400D03*
%TD*%
%TO.P,H3,1*%
%TO.N,N/C*%
X152651400Y-87138000D03*
%TD*%
D10*
%TO.P,H5,*%
%TO.N,*%
X121500000Y-50000000D03*
%TD*%
%TO.P,H6,*%
%TO.N,*%
X115500000Y-50000000D03*
%TD*%
D11*
%TO.P,H1,1*%
%TO.N,N/C*%
X130851800Y-31664400D03*
%TD*%
D10*
%TO.P,H7,*%
%TO.N,*%
X174500000Y-123000000D03*
%TD*%
D11*
%TO.P,H3,1*%
%TO.N,N/C*%
X177651400Y-87138000D03*
%TD*%
D12*
%TO.P,H8,*%
%TO.N,*%
X177500000Y-50000000D03*
%TD*%
%TO.P,H8,*%
%TO.N,*%
X152500000Y-123000000D03*
%TD*%
D10*
%TO.P,H7,*%
%TO.N,*%
X124500000Y-123000000D03*
%TD*%
%TO.P,H6,*%
%TO.N,*%
X140500000Y-50000000D03*
%TD*%
D12*
%TO.P,H9,*%
%TO.N,*%
X168500000Y-123000000D03*
%TD*%
D10*
%TO.P,H4,*%
%TO.N,*%
X180500000Y-123000000D03*
%TD*%
%TO.P,H6,*%
%TO.N,*%
X115500000Y-123000000D03*
%TD*%
%TO.P,H7,*%
%TO.N,*%
X124500000Y-50000000D03*
%TD*%
D11*
%TO.P,H1,1*%
%TO.N,N/C*%
X180851800Y-31664400D03*
%TD*%
%TO.P,H2,1*%
%TO.N,N/C*%
X116170600Y-31664400D03*
%TD*%
%TO.P,H1,1*%
%TO.N,N/C*%
X155851800Y-104664400D03*
%TD*%
%TO.P,H2,1*%
%TO.N,N/C*%
X141170600Y-104664400D03*
%TD*%
D12*
%TO.P,H8,*%
%TO.N,*%
X127500000Y-123000000D03*
%TD*%
%TO.P,H9,*%
%TO.N,*%
X143500000Y-123000000D03*
%TD*%
%TO.P,H9,*%
%TO.N,*%
X143500000Y-50000000D03*
%TD*%
D11*
%TO.P,H1,1*%
%TO.N,N/C*%
X155851800Y-31664400D03*
%TD*%
D12*
%TO.P,H9,*%
%TO.N,*%
X168500000Y-50000000D03*
%TD*%
%TO.P,H8,*%
%TO.N,*%
X152500000Y-50000000D03*
%TD*%
D11*
%TO.P,H1,1*%
%TO.N,N/C*%
X180851800Y-104664400D03*
%TD*%
%TO.P,H1,1*%
%TO.N,N/C*%
X130851800Y-104664400D03*
%TD*%
%TO.P,H3,1*%
%TO.N,N/C*%
X127651400Y-160138000D03*
%TD*%
D10*
%TO.P,H5,*%
%TO.N,*%
X146500000Y-123000000D03*
%TD*%
%TO.P,H4,*%
%TO.N,*%
X155500000Y-50000000D03*
%TD*%
D11*
%TO.P,H2,1*%
%TO.N,N/C*%
X116170600Y-104664400D03*
%TD*%
D10*
%TO.P,H5,*%
%TO.N,*%
X121500000Y-123000000D03*
%TD*%
D11*
%TO.P,H3,1*%
%TO.N,N/C*%
X177651400Y-160138000D03*
%TD*%
D10*
%TO.P,H6,*%
%TO.N,*%
X165500000Y-50000000D03*
%TD*%
%TO.P,H5,*%
%TO.N,*%
X171500000Y-50000000D03*
%TD*%
D12*
%TO.P,H8,*%
%TO.N,*%
X127500000Y-50000000D03*
%TD*%
D10*
%TO.P,H7,*%
%TO.N,*%
X149500000Y-50000000D03*
%TD*%
%TO.P,H4,*%
%TO.N,*%
X155500000Y-123000000D03*
%TD*%
D13*
%TO.P,REF\u002A\u002A,*%
%TO.N,*%
X117500000Y-178500000D03*
%TD*%
%TO.P,REF\u002A\u002A,*%
%TO.N,*%
X117500000Y-22500000D03*
%TD*%
%TO.P,REF\u002A\u002A,*%
%TO.N,*%
X179500000Y-22500000D03*
%TD*%
M02*
