%TF.GenerationSoftware,KiCad,Pcbnew,9.0.2*%
%TF.CreationDate,2025-11-25T09:05:21-08:00*%
%TF.ProjectId,MothBox_5.0.3,4d6f7468-426f-4785-9f35-2e302e332e6b,5.0.3*%
%TF.SameCoordinates,Original*%
%TF.FileFunction,Profile,NP*%
%FSLAX46Y46*%
G04 Gerber Fmt 4.6, Leading zero omitted, Abs format (unit mm)*
G04 Created by KiCad (PCBNEW 9.0.2) date 2025-11-25 09:05:21*
%MOMM*%
%LPD*%
G01*
G04 APERTURE LIST*
%ADD10C,0.050000*%
%TA.AperFunction,Profile*%
%ADD11C,0.200000*%
%TD*%
%TA.AperFunction,Profile*%
%ADD12C,0.050000*%
%TD*%
%ADD13C,0.200000*%
G04 APERTURE END LIST*
D10*
X-63269181Y-56065672D02*
X-63251269Y-56074500D01*
X-63233354Y-56083307D01*
X-63215441Y-56092091D01*
X-63197526Y-56100853D01*
X-63179613Y-56109593D01*
X-63161697Y-56118311D01*
X-63143783Y-56127006D01*
X-63125867Y-56135680D01*
X-63107953Y-56144331D01*
X-63090037Y-56152960D01*
X-63072122Y-56161567D01*
X-63054205Y-56170153D01*
X-63036290Y-56178715D01*
X-63018372Y-56187257D01*
X-63000456Y-56195776D01*
X-62982538Y-56204273D01*
X-62964622Y-56212748D01*
X-62946703Y-56221201D01*
X-62928786Y-56229632D01*
X-62910866Y-56238042D01*
X-62892948Y-56246428D01*
X-62875028Y-56254794D01*
X-62857110Y-56263137D01*
X-62839189Y-56271459D01*
X-62821269Y-56279758D01*
X-62803348Y-56288037D01*
X-62785428Y-56296292D01*
X-62767505Y-56304527D01*
X-62749584Y-56312739D01*
X-62731661Y-56320930D01*
X-62713739Y-56329098D01*
X-62695815Y-56337245D01*
X-62677893Y-56345370D01*
X-62659968Y-56353474D01*
X-62642044Y-56361555D01*
X-62624118Y-56369616D01*
X-62606194Y-56377653D01*
X-62588267Y-56385670D01*
X-62570341Y-56393665D01*
X-62552413Y-56401638D01*
X-62534487Y-56409589D01*
X-62516558Y-56417520D01*
X-62498630Y-56425428D01*
X-62480700Y-56433315D01*
X-62462771Y-56441179D01*
X-62444840Y-56449023D01*
X-62426910Y-56456844D01*
X-62408978Y-56464645D01*
X-62391047Y-56472423D01*
X-62373114Y-56480181D01*
X-62355181Y-56487916D01*
X-62337247Y-56495631D01*
X-62319313Y-56503323D01*
X-62301378Y-56510994D01*
X-62283443Y-56518644D01*
X-62265506Y-56526272D01*
X-62247570Y-56533879D01*
X-62229631Y-56541464D01*
X-62211694Y-56549028D01*
X-62193754Y-56556571D01*
X-62175815Y-56564091D01*
X-62157874Y-56571591D01*
X-62139934Y-56579069D01*
X-62121991Y-56586526D01*
X-62104050Y-56593962D01*
X-62086105Y-56601376D01*
X-62068162Y-56608769D01*
X-62050217Y-56616140D01*
X-62032272Y-56623490D01*
X-62014325Y-56630820D01*
X-61996379Y-56638127D01*
X-61978430Y-56645414D01*
X-61960482Y-56652678D01*
X-61942532Y-56659923D01*
X-61924583Y-56667145D01*
X-61906631Y-56674347D01*
X-61888680Y-56681526D01*
X-61870726Y-56688686D01*
X-61852773Y-56695823D01*
X-61834818Y-56702940D01*
X-61816864Y-56710035D01*
X-61798907Y-56717110D01*
X-61780950Y-56724163D01*
X-61762992Y-56731195D01*
X-61745033Y-56738206D01*
X-61727073Y-56745196D01*
X-61709113Y-56752164D01*
X-61691150Y-56759112D01*
X-61673188Y-56766038D01*
X-61655224Y-56772944D01*
X-61637260Y-56779828D01*
X-61619294Y-56786692D01*
X-61601328Y-56793534D01*
X-61583360Y-56800355D01*
X-61565392Y-56807155D01*
X-61547422Y-56813935D01*
X-61529452Y-56820693D01*
X-61511480Y-56827430D01*
X-61493508Y-56834146D01*
X-61475534Y-56840842D01*
X-61457560Y-56847516D01*
X-61439583Y-56854170D01*
X-61421607Y-56860802D01*
X-61403629Y-56867414D01*
X-61385650Y-56874004D01*
X-61367669Y-56880575D01*
X-61349689Y-56887123D01*
X-61331706Y-56893652D01*
X-61313723Y-56900159D01*
X-61295738Y-56906645D01*
X-61277752Y-56913110D01*
X-61259765Y-56919555D01*
X-61241777Y-56925979D01*
X-61223787Y-56932382D01*
X-61205798Y-56938764D01*
X-61187805Y-56945126D01*
X-61169813Y-56951466D01*
X-61151818Y-56957786D01*
X-61133823Y-56964085D01*
X-61115826Y-56970364D01*
X-61097829Y-56976621D01*
X-61079829Y-56982858D01*
X-61061830Y-56989074D01*
X-61043827Y-56995270D01*
X-61025825Y-57001444D01*
X-61007820Y-57007599D01*
X-60989815Y-57013732D01*
X-60971808Y-57019844D01*
X-60953800Y-57025936D01*
X-60935790Y-57032008D01*
X-60917780Y-57038058D01*
X-60899767Y-57044088D01*
X-60881754Y-57050098D01*
X-60863739Y-57056087D01*
X-60845723Y-57062055D01*
X-60827705Y-57068002D01*
X-60809686Y-57073929D01*
X-60791665Y-57079836D01*
X-60773643Y-57085721D01*
X-60755620Y-57091587D01*
X-60737595Y-57097431D01*
X-60719568Y-57103255D01*
X-60701541Y-57109059D01*
X-60683512Y-57114842D01*
X-60665481Y-57120604D01*
X-60647449Y-57126346D01*
X-60629415Y-57132068D01*
X-60611380Y-57137769D01*
X-60593343Y-57143449D01*
X-60575305Y-57149109D01*
X-60557265Y-57154748D01*
X-60539224Y-57160368D01*
X-60521181Y-57165966D01*
X-60503136Y-57171544D01*
X-60485090Y-57177102D01*
X-60467042Y-57182639D01*
X-60448994Y-57188156D01*
X-60430942Y-57193652D01*
X-60412890Y-57199128D01*
X-60394836Y-57204584D01*
X-60376780Y-57210019D01*
X-60358722Y-57215434D01*
X-60340664Y-57220828D01*
X-60322603Y-57226202D01*
X-60304540Y-57231556D01*
X-60286476Y-57236889D01*
X-60268410Y-57242202D01*
X-60250343Y-57247495D01*
X-60232274Y-57252767D01*
X-60214202Y-57258019D01*
X-60196130Y-57263251D01*
X-60178055Y-57268462D01*
X-60159979Y-57273653D01*
X-60141901Y-57278824D01*
X-60123821Y-57283974D01*
X-60105739Y-57289104D01*
X-60087656Y-57294214D01*
X-60069571Y-57299304D01*
X-60051484Y-57304373D01*
X-60033395Y-57309422D01*
X-60015304Y-57314451D01*
X-59997211Y-57319460D01*
X-59979117Y-57324448D01*
X-59961020Y-57329416D01*
X-59942922Y-57334364D01*
X-59924822Y-57339292D01*
X-59906720Y-57344199D01*
X-59888616Y-57349086D01*
X-59870510Y-57353953D01*
X-59852402Y-57358800D01*
X-59834292Y-57363627D01*
X-59816181Y-57368434D01*
X-59798067Y-57373220D01*
X-59779951Y-57377986D01*
X-59761834Y-57382732D01*
X-59743714Y-57387458D01*
X-59725592Y-57392164D01*
X-59707468Y-57396850D01*
X-59689343Y-57401515D01*
X-59671215Y-57406161D01*
X-59653085Y-57410786D01*
X-59634953Y-57415391D01*
X-59616819Y-57419976D01*
X-59598683Y-57424541D01*
X-59580545Y-57429086D01*
X-59562404Y-57433611D01*
X-59544262Y-57438115D01*
X-59526117Y-57442600D01*
X-59507971Y-57447064D01*
X-59489822Y-57451509D01*
X-59471671Y-57455933D01*
X-59453517Y-57460338D01*
X-59435362Y-57464722D01*
X-59417204Y-57469086D01*
X-59399045Y-57473430D01*
X-59380883Y-57477754D01*
X-59362719Y-57482059D01*
X-59344552Y-57486343D01*
X-59326383Y-57490607D01*
X-59308213Y-57494851D01*
X-59290039Y-57499075D01*
X-59271864Y-57503279D01*
X-59253686Y-57507463D01*
X-59235506Y-57511627D01*
X-59217324Y-57515771D01*
X-59199139Y-57519896D01*
X-59180952Y-57524000D01*
X-59162763Y-57528084D01*
X-59144571Y-57532148D01*
X-59126377Y-57536192D01*
X-59108180Y-57540217D01*
X-59089981Y-57544221D01*
X-59071780Y-57548205D01*
X-59053577Y-57552170D01*
X-59035370Y-57556114D01*
X-59017162Y-57560039D01*
X-58998951Y-57563943D01*
X-58980738Y-57567828D01*
X-58962522Y-57571693D01*
X-58944303Y-57575538D01*
X-58926083Y-57579363D01*
X-58907859Y-57583168D01*
X-58889633Y-57586953D01*
X-58871405Y-57590718D01*
X-58853174Y-57594463D01*
X-58834941Y-57598189D01*
X-58816705Y-57601894D01*
X-58798467Y-57605580D01*
X-58780225Y-57609246D01*
X-58761982Y-57612892D01*
X-58743736Y-57616518D01*
X-58725487Y-57620124D01*
X-58707235Y-57623710D01*
X-58688981Y-57627276D01*
X-58670724Y-57630823D01*
X-58652465Y-57634350D01*
X-58634203Y-57637856D01*
X-58615939Y-57641343D01*
X-58579401Y-57648258D01*
X-58542853Y-57655093D01*
X-58506294Y-57661848D01*
X-58469724Y-57668525D01*
X-58433142Y-57675122D01*
X-58396550Y-57681640D01*
X-58359946Y-57688078D01*
X-58323331Y-57694438D01*
X-58286705Y-57700718D01*
X-58250067Y-57706919D01*
X-58213417Y-57713041D01*
X-58176756Y-57719083D01*
X-58140083Y-57725047D01*
X-58103398Y-57730931D01*
X-58066701Y-57736736D01*
X-58029992Y-57742463D01*
X-57993271Y-57748110D01*
X-57956538Y-57753678D01*
X-57919792Y-57759167D01*
X-57883034Y-57764577D01*
X-57846263Y-57769908D01*
X-57809480Y-57775160D01*
X-57772684Y-57780333D01*
X-57735875Y-57785427D01*
X-57699054Y-57790442D01*
X-57662219Y-57795378D01*
X-57625372Y-57800236D01*
X-57588511Y-57805014D01*
X-57551637Y-57809713D01*
X-57514749Y-57814333D01*
X-57477849Y-57818875D01*
X-57440934Y-57823337D01*
X-57404006Y-57827721D01*
X-57367065Y-57832025D01*
X-57330109Y-57836251D01*
X-57293140Y-57840398D01*
X-57256156Y-57844465D01*
X-57219159Y-57848454D01*
X-57182147Y-57852364D01*
X-57145122Y-57856195D01*
X-57108081Y-57859947D01*
X-57071027Y-57863620D01*
X-57033958Y-57867215D01*
X-56996874Y-57870730D01*
X-56959775Y-57874166D01*
X-56922662Y-57877523D01*
X-56885533Y-57880802D01*
X-56848390Y-57884001D01*
X-56811232Y-57887121D01*
X-56774058Y-57890163D01*
X-56736869Y-57893125D01*
X-56699665Y-57896008D01*
X-56662445Y-57898813D01*
X-56625210Y-57901538D01*
X-56587959Y-57904184D01*
X-56552537Y-57906626D01*
D11*
X82000000Y35484329D02*
G75*
G02*
X77000000Y35484329I-2500000J0D01*
G01*
X77000000Y35484329D02*
G75*
G02*
X82000000Y35484329I2500000J0D01*
G01*
D10*
X157806404Y76290409D02*
X157814803Y76283826D01*
X157823296Y76277068D01*
X157831883Y76270133D01*
X157840565Y76263018D01*
X157849344Y76255721D01*
X157858220Y76248238D01*
X157867194Y76240568D01*
X157876267Y76232708D01*
X157885441Y76224655D01*
X157894716Y76216407D01*
X157904093Y76207960D01*
X157913573Y76199313D01*
X157923157Y76190463D01*
X157932847Y76181406D01*
X157942643Y76172141D01*
X157952546Y76162664D01*
X157962557Y76152973D01*
X157972677Y76143065D01*
X157982907Y76132937D01*
X157993249Y76122586D01*
X158003703Y76112010D01*
X158014270Y76101206D01*
X158024951Y76090170D01*
X158035747Y76078900D01*
X158046660Y76067393D01*
X158057689Y76055646D01*
X158068837Y76043657D01*
X158080105Y76031422D01*
X158091492Y76018938D01*
X158103001Y76006202D01*
X158114632Y75993212D01*
X158126386Y75979964D01*
X158138265Y75966455D01*
X158150269Y75952683D01*
X158162400Y75938643D01*
X158174658Y75924335D01*
X158187044Y75909753D01*
X158199560Y75894895D01*
X158212206Y75879758D01*
X158224984Y75864340D01*
X158237894Y75848636D01*
X158250938Y75832643D01*
X158264116Y75816359D01*
X158277431Y75799780D01*
X158290881Y75782904D01*
X158304470Y75765727D01*
X158318197Y75748245D01*
X158332063Y75730456D01*
X158346071Y75712356D01*
X158360220Y75693943D01*
X158374512Y75675213D01*
X158388948Y75656162D01*
X158403529Y75636788D01*
X158418256Y75617087D01*
X158433129Y75597057D01*
X158448150Y75576693D01*
X158463321Y75555993D01*
X158478641Y75534953D01*
X158494112Y75513570D01*
X158509735Y75491841D01*
X158525511Y75469762D01*
X158541441Y75447331D01*
X158557525Y75424543D01*
X158573766Y75401396D01*
X158590164Y75377886D01*
X158606719Y75354010D01*
X158623434Y75329765D01*
X158640308Y75305148D01*
X158657343Y75280154D01*
X158674540Y75254782D01*
X158691900Y75229027D01*
X158709424Y75202886D01*
X158727112Y75176356D01*
X158744966Y75149434D01*
X158762987Y75122116D01*
X158781175Y75094399D01*
X158799532Y75066280D01*
X158818059Y75037756D01*
X158836755Y75008823D01*
X158855623Y74979477D01*
X158874663Y74949717D01*
X158893877Y74919537D01*
X158913264Y74888936D01*
X158932827Y74857910D01*
X158952565Y74826456D01*
X158972480Y74794570D01*
X158992572Y74762249D01*
X159012844Y74729490D01*
X159033294Y74696290D01*
X159053925Y74662645D01*
X159074737Y74628553D01*
X159095731Y74594009D01*
X159116908Y74559011D01*
X159138269Y74523556D01*
X159159814Y74487640D01*
X159181545Y74451259D01*
X159203463Y74414412D01*
X159225568Y74377094D01*
X159247861Y74339302D01*
X159270344Y74301032D01*
X159293016Y74262282D01*
X159315881Y74223047D01*
X159338937Y74183325D01*
X159362187Y74143111D01*
X159385631Y74102402D01*
X159409272Y74061193D01*
X159433109Y74019482D01*
X159457145Y73977264D01*
X159481381Y73934534D01*
X159505819Y73891287D01*
X159530460Y73847519D01*
X159555307Y73803225D01*
X159580362Y73758398D01*
X159605627Y73713032D01*
X159631106Y73667120D01*
X159656801Y73620655D01*
X159682718Y73573627D01*
X159708860Y73526027D01*
X159735232Y73477842D01*
X159761842Y73429060D01*
X159788697Y73379664D01*
X159815806Y73329636D01*
X159843180Y73278954D01*
X159870833Y73227590D01*
X159898782Y73175511D01*
X159927049Y73122674D01*
X159955661Y73069027D01*
X159984654Y73014500D01*
X160014073Y72959004D01*
X160043984Y72902417D01*
X160074474Y72844569D01*
X160105671Y72785215D01*
X160137769Y72723982D01*
X160171083Y72660269D01*
X160206176Y72592991D01*
X160244233Y72519876D01*
X160288640Y72434422D01*
X160301927Y72408838D01*
X160334733Y72345682D01*
X160364815Y72287849D01*
D12*
X124868737Y-57831144D02*
X120550000Y-55465671D01*
D11*
X125413400Y-57906741D02*
X147777495Y-57906741D01*
D12*
X163214815Y32937849D02*
X163529459Y59881783D01*
X112380121Y-19221729D02*
G75*
G02*
X114379257Y-21041579I7279J-1999971D01*
G01*
X-67211700Y-53307301D02*
G75*
G02*
X-63269181Y-56065672I1515500J-2030599D01*
G01*
D11*
X-72820174Y-35068721D02*
X-72820174Y-38018721D01*
X-56550845Y-57906741D02*
X-56552537Y-57906626D01*
X163529459Y60962793D02*
X163529459Y59902494D01*
X-51755269Y1078492D02*
G75*
G02*
X-55555269Y1078492I-1900000J0D01*
G01*
X-55555269Y1078492D02*
G75*
G02*
X-51755269Y1078492I1900000J0D01*
G01*
X147779187Y-57906626D02*
X147777495Y-57906741D01*
X17563325Y81114780D02*
X-55484670Y81114780D01*
X147793001Y-57905683D02*
X147779187Y-57906626D01*
X83244731Y1078492D02*
G75*
G02*
X79444731Y1078492I-1900000J0D01*
G01*
X79444731Y1078492D02*
G75*
G02*
X83244731Y1078492I1900000J0D01*
G01*
D12*
X157806404Y76290409D02*
G75*
G02*
X153929225Y79274929I-1706404J1793891D01*
G01*
X105458006Y-19263877D02*
X112380121Y-19221729D01*
D11*
X-6755269Y-49921508D02*
G75*
G02*
X-10555269Y-49921508I-1900000J0D01*
G01*
X-10555269Y-49921508D02*
G75*
G02*
X-6755269Y-49921508I1900000J0D01*
G01*
D12*
X90154800Y-57906741D02*
X96900000Y-48165671D01*
D11*
X-51700000Y-54065671D02*
G75*
G02*
X-56700000Y-54065671I-2500000J0D01*
G01*
X-56700000Y-54065671D02*
G75*
G02*
X-51700000Y-54065671I2500000J0D01*
G01*
X125413400Y-57906741D02*
G75*
G02*
X124868740Y-57831135I0J1999641D01*
G01*
D12*
X120550000Y-55465671D02*
X118100000Y-51115671D01*
D13*
X-72631265Y-43057375D02*
X-72634274Y-43037024D01*
X-72637260Y-43016691D01*
X-72640201Y-42996526D01*
X-72643119Y-42976377D01*
X-72645994Y-42956388D01*
X-72648847Y-42936413D01*
X-72651657Y-42916589D01*
X-72654446Y-42896779D01*
X-72657194Y-42877112D01*
X-72659920Y-42857457D01*
X-72662607Y-42837938D01*
X-72665272Y-42818430D01*
X-72667899Y-42799051D01*
X-72670505Y-42779681D01*
X-72673074Y-42760433D01*
X-72675621Y-42741194D01*
X-72678133Y-42722070D01*
X-72680624Y-42702953D01*
X-72683081Y-42683947D01*
X-72685516Y-42664946D01*
X-72687918Y-42646049D01*
X-72690299Y-42627157D01*
X-72692647Y-42608363D01*
X-72694974Y-42589573D01*
X-72697270Y-42570876D01*
X-72699546Y-42552181D01*
X-72701790Y-42533575D01*
X-72704014Y-42514969D01*
X-72706208Y-42496447D01*
X-72708382Y-42477924D01*
X-72710526Y-42459481D01*
X-72712650Y-42441036D01*
X-72714745Y-42422666D01*
X-72716821Y-42404293D01*
X-72718868Y-42385991D01*
X-72720896Y-42367684D01*
X-72722896Y-42349444D01*
X-72724876Y-42331199D01*
X-72726830Y-42313016D01*
X-72728764Y-42294827D01*
X-72730672Y-42276697D01*
X-72732560Y-42258559D01*
X-72734422Y-42240476D01*
X-72736265Y-42222385D01*
X-72738083Y-42204344D01*
X-72739881Y-42186295D01*
X-72741655Y-42168293D01*
X-72743409Y-42150281D01*
X-72745140Y-42132312D01*
X-72746850Y-42114333D01*
X-72748537Y-42096393D01*
X-72750205Y-42078443D01*
X-72751850Y-42060528D01*
X-72753475Y-42042601D01*
X-72755078Y-42024708D01*
X-72756661Y-42006801D01*
X-72758222Y-41988924D01*
X-72759763Y-41971033D01*
X-72761283Y-41953169D01*
X-72762783Y-41935290D01*
X-72764261Y-41917434D01*
X-72765721Y-41899563D01*
X-72767159Y-41881712D01*
X-72768578Y-41863844D01*
X-72769975Y-41845995D01*
X-72771354Y-41828127D01*
X-72772712Y-41810274D01*
X-72774051Y-41792403D01*
X-72775368Y-41774544D01*
X-72776668Y-41756665D01*
X-72777946Y-41738796D01*
X-72779206Y-41720906D01*
X-72780445Y-41703023D01*
X-72781666Y-41685118D01*
X-72782866Y-41667217D01*
X-72784048Y-41649294D01*
X-72785210Y-41631372D01*
X-72786353Y-41613427D01*
X-72787476Y-41595481D01*
X-72788580Y-41577510D01*
X-72789665Y-41559535D01*
X-72790731Y-41541536D01*
X-72791778Y-41523529D01*
X-72792806Y-41505497D01*
X-72793814Y-41487456D01*
X-72794804Y-41469388D01*
X-72795774Y-41451307D01*
X-72796726Y-41433200D01*
X-72797659Y-41415078D01*
X-72798573Y-41396928D01*
X-72799467Y-41378760D01*
X-72800344Y-41360563D01*
X-72801201Y-41342347D01*
X-72802039Y-41324101D01*
X-72802859Y-41305832D01*
X-72803659Y-41287532D01*
X-72804441Y-41269208D01*
X-72805204Y-41250852D01*
X-72805948Y-41232468D01*
X-72806674Y-41214053D01*
X-72807381Y-41195606D01*
X-72808068Y-41177127D01*
X-72808738Y-41158615D01*
X-72809388Y-41140070D01*
X-72810019Y-41121488D01*
X-72810632Y-41102872D01*
X-72811226Y-41084218D01*
X-72811801Y-41065529D01*
X-72812357Y-41046799D01*
X-72812894Y-41028032D01*
X-72813413Y-41009222D01*
X-72813912Y-40990376D01*
X-72814393Y-40971483D01*
X-72814854Y-40952552D01*
X-72815721Y-40914554D01*
X-72816511Y-40876376D01*
X-72817225Y-40838009D01*
X-72817863Y-40799448D01*
X-72818424Y-40760684D01*
X-72818908Y-40721711D01*
X-72819314Y-40682521D01*
X-72819642Y-40643108D01*
X-72819892Y-40603462D01*
X-72820064Y-40563578D01*
X-72820157Y-40523447D01*
X-72820174Y-40496730D01*
D11*
X-66800000Y-32815671D02*
G75*
G02*
X-71800000Y-32815671I-2500000J0D01*
G01*
X-71800000Y-32815671D02*
G75*
G02*
X-66800000Y-32815671I2500000J0D01*
G01*
X-6755269Y1078492D02*
G75*
G02*
X-10555269Y1078492I-1900000J0D01*
G01*
X-10555269Y1078492D02*
G75*
G02*
X-6755269Y1078492I1900000J0D01*
G01*
D13*
X143233360Y81114780D02*
X143859672Y81114768D01*
X144147626Y81114738D01*
X144419557Y81114680D01*
X144676052Y81114585D01*
X144917694Y81114444D01*
X145145069Y81114246D01*
X145253589Y81114123D01*
X145358762Y81113983D01*
X145460660Y81113824D01*
X145559357Y81113645D01*
X145654925Y81113445D01*
X145747439Y81113223D01*
X145836970Y81112977D01*
X145923593Y81112707D01*
X146007380Y81112411D01*
X146088405Y81112089D01*
X146166740Y81111738D01*
X146242458Y81111358D01*
X146315634Y81110948D01*
X146386339Y81110506D01*
X146454647Y81110032D01*
X146520631Y81109524D01*
X146584364Y81108980D01*
X146645919Y81108401D01*
X146705370Y81107784D01*
X146762789Y81107128D01*
X146818250Y81106433D01*
X146871826Y81105697D01*
X146923589Y81104919D01*
X146973613Y81104098D01*
X147021972Y81103232D01*
X147068737Y81102321D01*
X147113983Y81101363D01*
X147136058Y81100866D01*
X147157782Y81100357D01*
X147179161Y81099836D01*
X147200207Y81099302D01*
X147220928Y81098756D01*
X147241332Y81098197D01*
X147261430Y81097625D01*
X147281230Y81097040D01*
X147300741Y81096442D01*
X147319973Y81095831D01*
X147338935Y81095206D01*
X147357636Y81094568D01*
X147376084Y81093916D01*
X147394290Y81093250D01*
X147412262Y81092571D01*
X147430010Y81091877D01*
X147447542Y81091168D01*
X147464867Y81090446D01*
X147481996Y81089708D01*
X147498936Y81088956D01*
X147515698Y81088189D01*
X147532290Y81087407D01*
X147548721Y81086610D01*
X147565001Y81085797D01*
X147581138Y81084969D01*
X147597143Y81084126D01*
X147613023Y81083266D01*
X147628788Y81082391D01*
X147644448Y81081499D01*
X147660011Y81080592D01*
X147675486Y81079668D01*
X147690883Y81078727D01*
X147706211Y81077770D01*
X147721479Y81076796D01*
X147751870Y81074798D01*
X147782131Y81072730D01*
X147812335Y81070592D01*
X147842554Y81068383D01*
X147872862Y81066102D01*
X147903331Y81063747D01*
D11*
X68014107Y81114851D02*
X101080984Y81114780D01*
D13*
X-72205327Y-45087971D02*
X-72215225Y-45051526D01*
X-72225035Y-45015102D01*
X-72234756Y-44978699D01*
X-72244389Y-44942316D01*
X-72253935Y-44905952D01*
X-72263394Y-44869605D01*
X-72272766Y-44833276D01*
X-72282051Y-44796962D01*
X-72291251Y-44760663D01*
X-72300364Y-44724378D01*
X-72309393Y-44688105D01*
X-72318336Y-44651844D01*
X-72327194Y-44615593D01*
X-72335968Y-44579351D01*
X-72344658Y-44543118D01*
X-72353265Y-44506891D01*
X-72361788Y-44470670D01*
X-72370228Y-44434453D01*
X-72378586Y-44398239D01*
X-72386861Y-44362027D01*
X-72395054Y-44325816D01*
X-72403166Y-44289603D01*
X-72411197Y-44253387D01*
X-72419147Y-44217168D01*
X-72427017Y-44180943D01*
X-72434806Y-44144712D01*
X-72442516Y-44108472D01*
X-72450146Y-44072221D01*
X-72457698Y-44035959D01*
X-72465171Y-43999683D01*
X-72472565Y-43963392D01*
X-72479882Y-43927083D01*
X-72487121Y-43890756D01*
X-72494283Y-43854408D01*
X-72501369Y-43818036D01*
X-72508378Y-43781640D01*
X-72515311Y-43745217D01*
X-72522168Y-43708764D01*
X-72528951Y-43672280D01*
X-72535658Y-43635763D01*
X-72542291Y-43599209D01*
X-72548851Y-43562616D01*
X-72555336Y-43525982D01*
X-72561749Y-43489304D01*
X-72568088Y-43452579D01*
X-72574356Y-43415805D01*
X-72580551Y-43378979D01*
X-72586676Y-43342097D01*
X-72592729Y-43305156D01*
X-72598711Y-43268152D01*
X-72604624Y-43231084D01*
X-72610467Y-43193946D01*
X-72616241Y-43156735D01*
X-72621946Y-43119447D01*
X-72627583Y-43082079D01*
X-72631265Y-43057375D01*
D11*
X101800000Y-25315671D02*
G75*
G02*
X96800000Y-25315671I-2500000J0D01*
G01*
X96800000Y-25315671D02*
G75*
G02*
X101800000Y-25315671I2500000J0D01*
G01*
X68014107Y81114851D02*
X17563325Y81114780D01*
D12*
X98700000Y-44965671D02*
X103557818Y-20644771D01*
D11*
X-56550845Y-57906741D02*
X90154800Y-57906741D01*
D13*
X157316836Y-54265675D02*
X157287651Y-54288347D01*
X157258411Y-54310960D01*
X157229116Y-54333514D01*
X157199767Y-54356010D01*
X157170362Y-54378447D01*
X157140903Y-54400825D01*
X157111390Y-54423144D01*
X157081822Y-54445403D01*
X157052201Y-54467603D01*
X157022525Y-54489744D01*
X156992796Y-54511825D01*
X156963013Y-54533846D01*
X156933177Y-54555807D01*
X156903287Y-54577708D01*
X156873344Y-54599549D01*
X156843348Y-54621329D01*
X156813299Y-54643049D01*
X156783198Y-54664709D01*
X156753044Y-54686307D01*
X156722838Y-54707845D01*
X156692579Y-54729322D01*
X156662269Y-54750737D01*
X156631906Y-54772092D01*
X156601492Y-54793384D01*
X156571026Y-54814616D01*
X156540509Y-54835786D01*
X156509941Y-54856893D01*
X156479322Y-54877939D01*
X156448651Y-54898923D01*
X156417930Y-54919845D01*
X156387158Y-54940704D01*
X156356336Y-54961501D01*
X156325464Y-54982235D01*
X156294542Y-55002907D01*
X156263569Y-55023516D01*
X156232547Y-55044061D01*
X156201476Y-55064544D01*
X156170355Y-55084963D01*
X156139185Y-55105319D01*
X156107965Y-55125612D01*
X156076697Y-55145841D01*
X156045381Y-55166006D01*
X156014015Y-55186107D01*
X155982602Y-55206144D01*
X155951140Y-55226117D01*
X155919630Y-55246025D01*
X155888073Y-55265870D01*
X155856467Y-55285649D01*
X155824815Y-55305364D01*
X155793115Y-55325015D01*
X155761368Y-55344600D01*
X155729574Y-55364120D01*
X155697733Y-55383575D01*
X155665846Y-55402965D01*
X155633913Y-55422289D01*
X155601933Y-55441548D01*
X155569907Y-55460741D01*
X155537836Y-55479869D01*
X155505719Y-55498930D01*
X155473556Y-55517925D01*
X155441349Y-55536854D01*
X155409096Y-55555717D01*
X155376798Y-55574513D01*
X155344456Y-55593243D01*
X155312069Y-55611906D01*
X155279638Y-55630503D01*
X155247163Y-55649032D01*
X155214644Y-55667494D01*
X155182082Y-55685889D01*
X155149475Y-55704217D01*
X155116826Y-55722478D01*
X155084133Y-55740671D01*
X155051398Y-55758796D01*
X155018620Y-55776853D01*
X154985799Y-55794843D01*
X154952936Y-55812764D01*
X154920030Y-55830618D01*
X154887083Y-55848403D01*
X154854094Y-55866120D01*
X154821064Y-55883768D01*
X154787992Y-55901347D01*
X154754879Y-55918858D01*
X154721726Y-55936300D01*
X154688531Y-55953673D01*
X154655296Y-55970977D01*
X154622021Y-55988212D01*
X154588705Y-56005378D01*
X154555350Y-56022474D01*
X154521955Y-56039500D01*
X154488520Y-56056457D01*
X154455047Y-56073344D01*
X154421534Y-56090161D01*
X154387982Y-56106909D01*
X154354391Y-56123586D01*
X154320763Y-56140193D01*
X154287095Y-56156729D01*
X154253390Y-56173195D01*
X154219647Y-56189591D01*
X154185867Y-56205916D01*
X154152049Y-56222170D01*
X154118194Y-56238353D01*
X154084302Y-56254465D01*
X154050373Y-56270506D01*
X154016407Y-56286476D01*
X153982405Y-56302375D01*
X153948368Y-56318202D01*
X153914294Y-56333958D01*
X153880184Y-56349642D01*
X153846040Y-56365254D01*
X153811859Y-56380795D01*
X153777644Y-56396263D01*
X153743394Y-56411660D01*
X153709110Y-56426984D01*
X153674791Y-56442236D01*
X153640437Y-56457416D01*
X153606050Y-56472523D01*
X153571630Y-56487557D01*
X153537175Y-56502519D01*
X153502688Y-56517409D01*
X153468167Y-56532225D01*
X153433613Y-56546968D01*
X153399027Y-56561639D01*
X153364409Y-56576236D01*
X153329758Y-56590760D01*
X153295076Y-56605210D01*
X153260361Y-56619588D01*
X153225615Y-56633891D01*
X153190838Y-56648121D01*
X153156030Y-56662277D01*
X153121191Y-56676360D01*
X153086322Y-56690368D01*
X153051422Y-56704303D01*
X153016492Y-56718163D01*
X152981532Y-56731949D01*
X152946542Y-56745661D01*
X152911523Y-56759299D01*
X152876474Y-56772862D01*
X152841397Y-56786350D01*
X152806291Y-56799764D01*
X152771156Y-56813103D01*
X152735993Y-56826368D01*
X152700802Y-56839557D01*
X152665582Y-56852672D01*
X152630336Y-56865711D01*
X152595062Y-56878675D01*
X152559760Y-56891564D01*
X152542099Y-56897980D01*
X152524432Y-56904378D01*
X152506758Y-56910756D01*
X152489077Y-56917116D01*
X152471390Y-56923457D01*
X152453695Y-56929779D01*
X152435995Y-56936082D01*
X152418288Y-56942366D01*
X152400574Y-56948631D01*
X152382854Y-56954878D01*
X152365127Y-56961105D01*
X152347394Y-56967313D01*
X152329655Y-56973503D01*
X152311909Y-56979673D01*
X152294157Y-56985825D01*
X152276399Y-56991958D01*
X152258634Y-56998071D01*
X152240863Y-57004166D01*
X152223086Y-57010241D01*
X152205303Y-57016298D01*
X152187513Y-57022335D01*
X152169718Y-57028354D01*
X152151916Y-57034353D01*
X152134108Y-57040334D01*
X152116294Y-57046295D01*
X152098474Y-57052237D01*
X152080649Y-57058160D01*
X152062817Y-57064064D01*
X152044979Y-57069949D01*
X152027135Y-57075815D01*
X152009286Y-57081662D01*
X151991431Y-57087489D01*
X151973570Y-57093298D01*
X151955702Y-57099087D01*
X151937830Y-57104857D01*
X151919951Y-57110608D01*
X151902067Y-57116340D01*
X151884178Y-57122052D01*
X151866282Y-57127746D01*
X151848381Y-57133420D01*
X151830475Y-57139075D01*
X151812562Y-57144711D01*
X151794645Y-57150327D01*
X151776722Y-57155924D01*
X151758793Y-57161502D01*
X151740859Y-57167061D01*
X151722920Y-57172601D01*
X151704975Y-57178121D01*
X151687025Y-57183622D01*
X151669069Y-57189103D01*
X151651109Y-57194566D01*
X151633142Y-57200009D01*
X151615171Y-57205432D01*
X151597195Y-57210837D01*
X151579213Y-57216222D01*
X151561226Y-57221588D01*
X151543235Y-57226934D01*
X151525238Y-57232261D01*
X151507236Y-57237569D01*
X151489229Y-57242857D01*
X151471217Y-57248126D01*
X151453200Y-57253376D01*
X151435178Y-57258606D01*
X151417151Y-57263816D01*
X151399120Y-57269008D01*
X151381083Y-57274180D01*
X151363042Y-57279332D01*
X151344995Y-57284465D01*
X151326945Y-57289579D01*
X151308889Y-57294673D01*
X151290829Y-57299748D01*
X151272764Y-57304803D01*
X151254694Y-57309839D01*
X151236620Y-57314855D01*
X151218541Y-57319852D01*
X151200458Y-57324829D01*
X151182370Y-57329787D01*
X151164278Y-57334725D01*
X151146181Y-57339644D01*
X151128079Y-57344543D01*
X151109974Y-57349423D01*
X151091864Y-57354283D01*
X151073750Y-57359124D01*
X151055631Y-57363945D01*
X151037508Y-57368746D01*
X151019380Y-57373528D01*
X151001249Y-57378291D01*
X150983113Y-57383034D01*
X150964974Y-57387757D01*
X150946829Y-57392461D01*
X150928682Y-57397145D01*
X150910529Y-57401809D01*
X150892373Y-57406454D01*
X150874212Y-57411079D01*
X150856049Y-57415685D01*
X150837880Y-57420271D01*
X150819708Y-57424837D01*
X150801532Y-57429384D01*
X150783352Y-57433911D01*
X150765168Y-57438418D01*
X150746981Y-57442906D01*
X150728789Y-57447374D01*
X150710594Y-57451823D01*
X150692395Y-57456251D01*
X150674193Y-57460660D01*
X150655986Y-57465050D01*
X150637776Y-57469419D01*
X150619562Y-57473770D01*
X150601346Y-57478100D01*
X150583125Y-57482410D01*
X150564901Y-57486701D01*
X150546673Y-57490972D01*
X150528442Y-57495224D01*
X150510207Y-57499455D01*
X150491969Y-57503667D01*
X150473727Y-57507859D01*
X150455483Y-57512032D01*
X150437235Y-57516184D01*
X150418984Y-57520317D01*
X150400729Y-57524430D01*
X150382471Y-57528524D01*
X150364210Y-57532597D01*
X150345946Y-57536651D01*
X150327678Y-57540685D01*
X150309408Y-57544699D01*
X150291134Y-57548694D01*
X150272858Y-57552668D01*
X150254577Y-57556623D01*
X150236295Y-57560558D01*
X150218009Y-57564473D01*
X150199721Y-57568368D01*
X150181429Y-57572244D01*
X150163135Y-57576099D01*
X150144837Y-57579935D01*
X150126537Y-57583751D01*
X150108234Y-57587547D01*
X150089929Y-57591323D01*
X150071620Y-57595080D01*
X150053309Y-57598816D01*
X150034995Y-57602533D01*
X150016679Y-57606230D01*
X149998359Y-57609907D01*
X149980038Y-57613564D01*
X149961713Y-57617201D01*
X149943387Y-57620818D01*
X149925057Y-57624416D01*
X149906726Y-57627993D01*
X149888391Y-57631551D01*
X149870055Y-57635088D01*
X149851715Y-57638606D01*
X149833374Y-57642104D01*
X149815030Y-57645582D01*
X149796684Y-57649040D01*
X149778335Y-57652478D01*
X149759985Y-57655896D01*
X149741632Y-57659295D01*
X149723277Y-57662673D01*
X149704919Y-57666031D01*
X149686561Y-57669370D01*
X149668198Y-57672688D01*
X149649836Y-57675987D01*
X149631469Y-57679265D01*
X149613102Y-57682524D01*
X149594732Y-57685762D01*
X149576361Y-57688981D01*
X149557987Y-57692180D01*
X149539612Y-57695359D01*
X149521234Y-57698517D01*
X149502855Y-57701656D01*
X149484474Y-57704775D01*
X149466092Y-57707874D01*
X149447706Y-57710953D01*
X149429321Y-57714011D01*
X149410932Y-57717050D01*
X149392543Y-57720069D01*
X149374151Y-57723068D01*
X149355759Y-57726047D01*
X149337363Y-57729006D01*
X149318968Y-57731945D01*
X149300569Y-57734864D01*
X149282171Y-57737762D01*
X149263770Y-57740641D01*
X149245368Y-57743500D01*
X149226964Y-57746339D01*
X149208560Y-57749157D01*
X149190152Y-57751956D01*
X149171746Y-57754735D01*
X149153336Y-57757494D01*
X149134926Y-57760232D01*
X149116514Y-57762951D01*
X149098102Y-57765649D01*
X149079687Y-57768328D01*
X149061273Y-57770986D01*
X149042856Y-57773625D01*
X149024439Y-57776243D01*
X149006020Y-57778842D01*
X148987601Y-57781420D01*
X148969179Y-57783978D01*
X148950759Y-57786516D01*
X148932335Y-57789034D01*
X148913912Y-57791532D01*
X148895487Y-57794011D01*
X148877062Y-57796468D01*
X148858635Y-57798906D01*
X148840209Y-57801324D01*
X148821780Y-57803722D01*
X148803352Y-57806099D01*
X148784922Y-57808457D01*
X148766493Y-57810795D01*
X148748061Y-57813112D01*
X148729630Y-57815409D01*
X148711197Y-57817687D01*
X148692765Y-57819944D01*
X148674331Y-57822181D01*
X148655898Y-57824398D01*
X148637462Y-57826595D01*
X148619028Y-57828772D01*
X148600591Y-57830929D01*
X148582156Y-57833066D01*
X148563719Y-57835182D01*
X148545283Y-57837279D01*
X148526845Y-57839355D01*
X148508408Y-57841412D01*
X148489969Y-57843448D01*
X148471532Y-57845464D01*
X148453093Y-57847460D01*
X148434655Y-57849436D01*
X148416215Y-57851392D01*
X148397777Y-57853328D01*
X148379337Y-57855244D01*
X148360898Y-57857139D01*
X148342458Y-57859015D01*
X148324019Y-57860870D01*
X148305579Y-57862706D01*
X148287140Y-57864521D01*
X148268699Y-57866316D01*
X148250261Y-57868091D01*
X148231820Y-57869846D01*
X148213382Y-57871581D01*
X148194941Y-57873295D01*
X148176503Y-57874990D01*
X148158063Y-57876665D01*
X148139625Y-57878319D01*
X148121185Y-57879953D01*
X148102748Y-57881567D01*
X148084309Y-57883162D01*
X148065872Y-57884735D01*
X148047433Y-57886289D01*
X148028997Y-57887823D01*
X148010559Y-57889337D01*
X147992124Y-57890830D01*
X147973687Y-57892304D01*
X147955253Y-57893757D01*
X147936816Y-57895191D01*
X147918383Y-57896604D01*
X147899948Y-57897997D01*
X147881515Y-57899370D01*
X147863081Y-57900723D01*
X147844650Y-57902055D01*
X147826217Y-57903368D01*
X147793001Y-57905683D01*
D10*
X163831466Y-43034429D02*
X163828412Y-43057059D01*
X163825354Y-43079564D01*
X163822300Y-43101899D01*
X163819241Y-43124112D01*
X163816186Y-43146161D01*
X163813127Y-43168089D01*
X163810070Y-43189857D01*
X163807009Y-43211507D01*
X163803951Y-43233001D01*
X163800888Y-43254380D01*
X163797827Y-43275608D01*
X163794762Y-43296722D01*
X163791699Y-43317691D01*
X163788631Y-43338547D01*
X163785564Y-43359262D01*
X163782493Y-43379867D01*
X163779423Y-43400335D01*
X163776348Y-43420695D01*
X163773273Y-43440923D01*
X163770194Y-43461044D01*
X163767115Y-43481038D01*
X163764031Y-43500927D01*
X163760946Y-43520693D01*
X163757857Y-43540356D01*
X163754767Y-43559900D01*
X163751672Y-43579344D01*
X163748576Y-43598672D01*
X163745475Y-43617902D01*
X163742371Y-43637021D01*
X163739263Y-43656043D01*
X163736153Y-43674959D01*
X163733037Y-43693779D01*
X163729919Y-43712497D01*
X163726795Y-43731122D01*
X163723668Y-43749649D01*
X163720537Y-43768084D01*
X163717401Y-43786425D01*
X163714260Y-43804676D01*
X163711114Y-43822836D01*
X163707963Y-43840909D01*
X163704807Y-43858896D01*
X163701646Y-43876797D01*
X163698480Y-43894615D01*
X163695307Y-43912349D01*
X163692129Y-43930005D01*
X163688945Y-43947578D01*
X163685755Y-43965078D01*
X163682559Y-43982496D01*
X163679355Y-43999844D01*
X163676146Y-44017112D01*
X163672929Y-44034316D01*
X163669706Y-44051440D01*
X163666474Y-44068504D01*
X163663237Y-44085491D01*
X163659990Y-44102421D01*
X163656737Y-44119276D01*
X163653474Y-44136078D01*
X163650205Y-44152806D01*
X163646926Y-44169486D01*
X163643640Y-44186094D01*
X163640342Y-44202658D01*
X163637039Y-44219151D01*
X163630400Y-44251988D01*
X163623722Y-44284618D01*
X163617003Y-44317053D01*
X163610241Y-44349305D01*
X163603433Y-44381386D01*
X163596577Y-44413309D01*
X163589671Y-44445086D01*
X163582712Y-44476731D01*
X163575698Y-44508258D01*
X163568626Y-44539679D01*
X163561493Y-44571010D01*
X163554295Y-44602264D01*
X163547030Y-44633457D01*
X163539694Y-44664603D01*
X163532283Y-44695721D01*
X163524794Y-44726825D01*
X163517222Y-44757935D01*
X163509562Y-44789068D01*
X163501809Y-44820243D01*
X163493959Y-44851482D01*
X163486006Y-44882806D01*
X163477943Y-44914239D01*
X163469764Y-44945804D01*
X163461462Y-44977529D01*
X163453028Y-45009442D01*
X163444454Y-45041573D01*
X163435731Y-45073957D01*
X163426848Y-45106630D01*
X163417793Y-45139632D01*
X163408553Y-45173008D01*
X163405059Y-45185554D01*
D11*
X-55484670Y81114780D02*
X-58729215Y81114780D01*
D12*
X96900000Y-48165671D02*
X98700000Y-44965671D01*
X163831466Y-43034429D02*
G75*
G02*
X164050576Y-37949846I215434J2537729D01*
G01*
D13*
X163405059Y-45185554D02*
X163395139Y-45220965D01*
X163385139Y-45256364D01*
X163375060Y-45291752D01*
X163364901Y-45327128D01*
X163354661Y-45362492D01*
X163344343Y-45397844D01*
X163333944Y-45433183D01*
X163323466Y-45468510D01*
X163312908Y-45503824D01*
X163302271Y-45539124D01*
X163291554Y-45574412D01*
X163280757Y-45609686D01*
X163269882Y-45644946D01*
X163258926Y-45680192D01*
X163247892Y-45715424D01*
X163236778Y-45750642D01*
X163225585Y-45785845D01*
X163214312Y-45821033D01*
X163202960Y-45856207D01*
X163191530Y-45891365D01*
X163180020Y-45926507D01*
X163168431Y-45961635D01*
X163156763Y-45996746D01*
X163145016Y-46031841D01*
X163133190Y-46066920D01*
X163121286Y-46101982D01*
X163109302Y-46137028D01*
X163097240Y-46172057D01*
X163085099Y-46207068D01*
X163072880Y-46242062D01*
X163060581Y-46277039D01*
X163048205Y-46311997D01*
X163035750Y-46346938D01*
X163023216Y-46381861D01*
X163010605Y-46416764D01*
X162997914Y-46451650D01*
X162985146Y-46486516D01*
X162972300Y-46521363D01*
X162959375Y-46556191D01*
X162946372Y-46590999D01*
X162933292Y-46625788D01*
X162920133Y-46660556D01*
X162906896Y-46695304D01*
X162893582Y-46730032D01*
X162880190Y-46764738D01*
X162866721Y-46799424D01*
X162853173Y-46834089D01*
X162839549Y-46868733D01*
X162825846Y-46903354D01*
X162812067Y-46937954D01*
X162798210Y-46972532D01*
X162784276Y-47007088D01*
X162770264Y-47041621D01*
X162756176Y-47076131D01*
X162742010Y-47110619D01*
X162727768Y-47145083D01*
X162713449Y-47179524D01*
X162699053Y-47213941D01*
X162684580Y-47248334D01*
X162670030Y-47282703D01*
X162655404Y-47317048D01*
X162640702Y-47351369D01*
X162625923Y-47385664D01*
X162611068Y-47419935D01*
X162596136Y-47454180D01*
X162581128Y-47488400D01*
X162566045Y-47522594D01*
X162550885Y-47556762D01*
X162535649Y-47590904D01*
X162520338Y-47625019D01*
X162504951Y-47659108D01*
X162489488Y-47693170D01*
X162473950Y-47727205D01*
X162458336Y-47761213D01*
X162442646Y-47795193D01*
X162426882Y-47829146D01*
X162411042Y-47863070D01*
X162395127Y-47896966D01*
X162379138Y-47930834D01*
X162363073Y-47964673D01*
X162346933Y-47998483D01*
X162330719Y-48032264D01*
X162314430Y-48066016D01*
X162298067Y-48099738D01*
X162281629Y-48133430D01*
X162265117Y-48167092D01*
X162248530Y-48200723D01*
X162231870Y-48234325D01*
X162215135Y-48267895D01*
X162198327Y-48301434D01*
X162181444Y-48334943D01*
X162164488Y-48368419D01*
X162147459Y-48401864D01*
X162130355Y-48435277D01*
X162113179Y-48468658D01*
X162095929Y-48502007D01*
X162078606Y-48535323D01*
X162061210Y-48568606D01*
X162043740Y-48601856D01*
X162026198Y-48635073D01*
X162008584Y-48668256D01*
X161990896Y-48701405D01*
X161973136Y-48734520D01*
X161955304Y-48767602D01*
X161937399Y-48800648D01*
X161919422Y-48833660D01*
X161901374Y-48866637D01*
X161883253Y-48899579D01*
X161865060Y-48932486D01*
X161846795Y-48965357D01*
X161828459Y-48998192D01*
X161810052Y-49030991D01*
X161791573Y-49063754D01*
X161773023Y-49096480D01*
X161754402Y-49129169D01*
X161735709Y-49161822D01*
X161716946Y-49194437D01*
X161698112Y-49227015D01*
X161679208Y-49259555D01*
X161660233Y-49292057D01*
X161641187Y-49324521D01*
X161622072Y-49356947D01*
X161602886Y-49389334D01*
X161583630Y-49421683D01*
X161564305Y-49453992D01*
X161544909Y-49486262D01*
X161525444Y-49518493D01*
X161505910Y-49550684D01*
X161486306Y-49582835D01*
X161466633Y-49614946D01*
X161446891Y-49647016D01*
X161427080Y-49679046D01*
X161407200Y-49711035D01*
X161387252Y-49742983D01*
X161367235Y-49774890D01*
X161347149Y-49806755D01*
X161326996Y-49838578D01*
X161306774Y-49870360D01*
X161286484Y-49902099D01*
X161266126Y-49933796D01*
X161245701Y-49965450D01*
X161225208Y-49997062D01*
X161204648Y-50028630D01*
X161184020Y-50060156D01*
X161163325Y-50091637D01*
X161142563Y-50123075D01*
X161132157Y-50138778D01*
X161121735Y-50154469D01*
X161111295Y-50170150D01*
X161100839Y-50185819D01*
X161090367Y-50201477D01*
X161079877Y-50217125D01*
X161069371Y-50232761D01*
X161058849Y-50248386D01*
X161048310Y-50263999D01*
X161037754Y-50279602D01*
X161027182Y-50295193D01*
X161016593Y-50310773D01*
X161005988Y-50326341D01*
X160995367Y-50341899D01*
X160984729Y-50357444D01*
X160974074Y-50372979D01*
X160963403Y-50388502D01*
X160952716Y-50404014D01*
X160942012Y-50419514D01*
X160931292Y-50435003D01*
X160920556Y-50450480D01*
X160909803Y-50465945D01*
X160899034Y-50481399D01*
X160888248Y-50496842D01*
X160877447Y-50512272D01*
X160866629Y-50527692D01*
X160855795Y-50543099D01*
X160844944Y-50558495D01*
X160834078Y-50573879D01*
X160823195Y-50589251D01*
X160812296Y-50604611D01*
X160801381Y-50619960D01*
X160790450Y-50635297D01*
X160779503Y-50650622D01*
X160768540Y-50665935D01*
X160757560Y-50681236D01*
X160746565Y-50696525D01*
X160735553Y-50711802D01*
X160724526Y-50727067D01*
X160713483Y-50742320D01*
X160702423Y-50757561D01*
X160691348Y-50772790D01*
X160680257Y-50788007D01*
X160669149Y-50803212D01*
X160658027Y-50818404D01*
X160646888Y-50833585D01*
X160635733Y-50848753D01*
X160624562Y-50863909D01*
X160613376Y-50879052D01*
X160602174Y-50894184D01*
X160590956Y-50909303D01*
X160579722Y-50924410D01*
X160568473Y-50939504D01*
X160557207Y-50954586D01*
X160545927Y-50969655D01*
X160534630Y-50984713D01*
X160523318Y-50999757D01*
X160511990Y-51014790D01*
X160500647Y-51029809D01*
X160489288Y-51044816D01*
X160477914Y-51059810D01*
X160466523Y-51074793D01*
X160455118Y-51089762D01*
X160443697Y-51104718D01*
X160432260Y-51119662D01*
X160420808Y-51134594D01*
X160409341Y-51149512D01*
X160397858Y-51164418D01*
X160386359Y-51179311D01*
X160374845Y-51194191D01*
X160363317Y-51209058D01*
X160351772Y-51223913D01*
X160340212Y-51238754D01*
X160328637Y-51253584D01*
X160317047Y-51268399D01*
X160305441Y-51283202D01*
X160293820Y-51297992D01*
X160282184Y-51312769D01*
X160270533Y-51327533D01*
X160258866Y-51342284D01*
X160247185Y-51357021D01*
X160235488Y-51371746D01*
X160223776Y-51386457D01*
X160212049Y-51401156D01*
X160200307Y-51415841D01*
X160188550Y-51430513D01*
X160176778Y-51445172D01*
X160164991Y-51459818D01*
X160153189Y-51474450D01*
X160141371Y-51489069D01*
X160129539Y-51503674D01*
X160117692Y-51518267D01*
X160105830Y-51532845D01*
X160093953Y-51547411D01*
X160082062Y-51561963D01*
X160070155Y-51576502D01*
X160058234Y-51591027D01*
X160046298Y-51605539D01*
X160034347Y-51620037D01*
X160022381Y-51634522D01*
X160010401Y-51648993D01*
X159998405Y-51663451D01*
X159986396Y-51677894D01*
X159974371Y-51692325D01*
X159962332Y-51706741D01*
X159950278Y-51721145D01*
X159938210Y-51735534D01*
X159926126Y-51749910D01*
X159914029Y-51764271D01*
X159901916Y-51778619D01*
X159889790Y-51792953D01*
X159877648Y-51807274D01*
X159865493Y-51821580D01*
X159853322Y-51835873D01*
X159841138Y-51850152D01*
X159828939Y-51864417D01*
X159816726Y-51878668D01*
X159804497Y-51892905D01*
X159792256Y-51907128D01*
X159779999Y-51921337D01*
X159767728Y-51935532D01*
X159755443Y-51949713D01*
X159743144Y-51963879D01*
X159730830Y-51978033D01*
X159718502Y-51992171D01*
X159706160Y-52006296D01*
X159693804Y-52020406D01*
X159681433Y-52034502D01*
X159669049Y-52048584D01*
X159656650Y-52062652D01*
X159644238Y-52076705D01*
X159631810Y-52090745D01*
X159619370Y-52104769D01*
X159606914Y-52118780D01*
X159594446Y-52132776D01*
X159581962Y-52146758D01*
X159569466Y-52160725D01*
X159556955Y-52174679D01*
X159544430Y-52188617D01*
X159531891Y-52202541D01*
X159519339Y-52216451D01*
X159506772Y-52230346D01*
X159494192Y-52244226D01*
X159481598Y-52258093D01*
X159468990Y-52271944D01*
X159456368Y-52285781D01*
X159443733Y-52299603D01*
X159431084Y-52313412D01*
X159418422Y-52327204D01*
X159405745Y-52340983D01*
X159393055Y-52354746D01*
X159380351Y-52368496D01*
X159367634Y-52382229D01*
X159354902Y-52395949D01*
X159342158Y-52409653D01*
X159329400Y-52423344D01*
X159316628Y-52437018D01*
X159303843Y-52450679D01*
X159291045Y-52464324D01*
X159278232Y-52477955D01*
X159265407Y-52491570D01*
X159252568Y-52505171D01*
X159239716Y-52518756D01*
X159226850Y-52532327D01*
X159213971Y-52545882D01*
X159201078Y-52559424D01*
X159188173Y-52572949D01*
X159175253Y-52586460D01*
X159162322Y-52599955D01*
X159149376Y-52613436D01*
X159136418Y-52626901D01*
X159123445Y-52640351D01*
X159110461Y-52653786D01*
X159097462Y-52667206D01*
X159084451Y-52680610D01*
X159071426Y-52694000D01*
X159058389Y-52707374D01*
X159045338Y-52720733D01*
X159032275Y-52734076D01*
X159019198Y-52747405D01*
X159006109Y-52760718D01*
X158993006Y-52774016D01*
X158979891Y-52787298D01*
X158966762Y-52800565D01*
X158953621Y-52813816D01*
X158940466Y-52827053D01*
X158927300Y-52840273D01*
X158914119Y-52853479D01*
X158900927Y-52866668D01*
X158887721Y-52879843D01*
X158874503Y-52893001D01*
X158861272Y-52906145D01*
X158848029Y-52919271D01*
X158834771Y-52932384D01*
X158821503Y-52945480D01*
X158808221Y-52958561D01*
X158794927Y-52971626D01*
X158781619Y-52984676D01*
X158768300Y-52997709D01*
X158754967Y-53010728D01*
X158741623Y-53023730D01*
X158728265Y-53036717D01*
X158714896Y-53049688D01*
X158701513Y-53062644D01*
X158688119Y-53075582D01*
X158674712Y-53088507D01*
X158661293Y-53101414D01*
X158647860Y-53114306D01*
X158634417Y-53127182D01*
X158620959Y-53140043D01*
X158607491Y-53152886D01*
X158594009Y-53165716D01*
X158580517Y-53178527D01*
X158567010Y-53191325D01*
X158553493Y-53204104D01*
X158539962Y-53216870D01*
X158526420Y-53229617D01*
X158512865Y-53242351D01*
X158499299Y-53255066D01*
X158485720Y-53267768D01*
X158472130Y-53280451D01*
X158458526Y-53293120D01*
X158444912Y-53305772D01*
X158431284Y-53318408D01*
X158417646Y-53331027D01*
X158403994Y-53343632D01*
X158390332Y-53356219D01*
X158376656Y-53368791D01*
X158362970Y-53381345D01*
X158349271Y-53393885D01*
X158335561Y-53406406D01*
X158321838Y-53418913D01*
X158308104Y-53431403D01*
X158294358Y-53443877D01*
X158280601Y-53456334D01*
X158266830Y-53468776D01*
X158253050Y-53481199D01*
X158239256Y-53493608D01*
X158225452Y-53506000D01*
X158211635Y-53518376D01*
X158197808Y-53530734D01*
X158183968Y-53543078D01*
X158170117Y-53555403D01*
X158156254Y-53567713D01*
X158142380Y-53580006D01*
X158128493Y-53592283D01*
X158114597Y-53604543D01*
X158100687Y-53616787D01*
X158086768Y-53629013D01*
X158072835Y-53641224D01*
X158058893Y-53653418D01*
X158044938Y-53665596D01*
X158030973Y-53677755D01*
X158016994Y-53689900D01*
X158003007Y-53702027D01*
X157989006Y-53714138D01*
X157974996Y-53726231D01*
X157960972Y-53738309D01*
X157946940Y-53750369D01*
X157932894Y-53762414D01*
X157918839Y-53774440D01*
X157904771Y-53786451D01*
X157890693Y-53798444D01*
X157876603Y-53810421D01*
X157862503Y-53822380D01*
X157848390Y-53834324D01*
X157834269Y-53846249D01*
X157820134Y-53858160D01*
X157805990Y-53870051D01*
X157791833Y-53881928D01*
X157777667Y-53893785D01*
X157763489Y-53905628D01*
X157749301Y-53917452D01*
X157735100Y-53929261D01*
X157720891Y-53941051D01*
X157706669Y-53952825D01*
X157692438Y-53964581D01*
X157678194Y-53976322D01*
X157663941Y-53988044D01*
X157649676Y-53999751D01*
X157635401Y-54011438D01*
X157621114Y-54023111D01*
X157606819Y-54034765D01*
X157592510Y-54046403D01*
X157578193Y-54058022D01*
X157563864Y-54069627D01*
X157549526Y-54081212D01*
X157535175Y-54092781D01*
X157520815Y-54104332D01*
X157506443Y-54115868D01*
X157492063Y-54127384D01*
X157477670Y-54138885D01*
X157463268Y-54150367D01*
X157448854Y-54161834D01*
X157434432Y-54173281D01*
X157419997Y-54184713D01*
X157405554Y-54196126D01*
X157391099Y-54207523D01*
X157376635Y-54218902D01*
X157362159Y-54230265D01*
X157347674Y-54241608D01*
X157333177Y-54252936D01*
X157316836Y-54265675D01*
D12*
X164046824Y-37401429D02*
X164050576Y-37949849D01*
D11*
X-72820174Y-40496730D02*
X-72820174Y-38541877D01*
D12*
X-72820174Y-35068721D02*
X-72950000Y63084331D01*
D11*
X-57885185Y-20912151D02*
G75*
G02*
X-61685185Y-20912151I-1900000J0D01*
G01*
X-61685185Y-20912151D02*
G75*
G02*
X-57885185Y-20912151I1900000J0D01*
G01*
D12*
X164046824Y-37401429D02*
X163214815Y32937849D01*
D11*
X101080984Y81114780D02*
X101131556Y81114780D01*
D10*
X-67211700Y-53307302D02*
X-67226628Y-53293194D01*
X-67241534Y-53279081D01*
X-67256411Y-53264967D01*
X-67271264Y-53250848D01*
X-67286090Y-53236728D01*
X-67300892Y-53222602D01*
X-67315666Y-53208475D01*
X-67330417Y-53194343D01*
X-67345139Y-53180211D01*
X-67359839Y-53166072D01*
X-67374511Y-53151933D01*
X-67389160Y-53137788D01*
X-67403781Y-53123642D01*
X-67418379Y-53109490D01*
X-67432950Y-53095337D01*
X-67447498Y-53081179D01*
X-67462018Y-53067020D01*
X-67476515Y-53052855D01*
X-67490985Y-53038688D01*
X-67505432Y-53024516D01*
X-67519852Y-53010343D01*
X-67534249Y-52996164D01*
X-67548619Y-52981984D01*
X-67562966Y-52967798D01*
X-67577287Y-52953611D01*
X-67591584Y-52939417D01*
X-67605855Y-52925223D01*
X-67620103Y-52911022D01*
X-67634325Y-52896820D01*
X-67648524Y-52882613D01*
X-67662696Y-52868403D01*
X-67676846Y-52854188D01*
X-67690969Y-52839971D01*
X-67705070Y-52825749D01*
X-67719144Y-52811524D01*
X-67733196Y-52797294D01*
X-67747222Y-52783062D01*
X-67761226Y-52768824D01*
X-67775203Y-52754584D01*
X-67789158Y-52740338D01*
X-67803087Y-52726091D01*
X-67816994Y-52711837D01*
X-67830875Y-52697581D01*
X-67844734Y-52683320D01*
X-67858566Y-52669056D01*
X-67872377Y-52654786D01*
X-67886162Y-52640515D01*
X-67899925Y-52626237D01*
X-67913663Y-52611957D01*
X-67927378Y-52597670D01*
X-67941068Y-52583382D01*
X-67954737Y-52569088D01*
X-67968379Y-52554791D01*
X-67982000Y-52540488D01*
X-67995596Y-52526182D01*
X-68009169Y-52511871D01*
X-68022718Y-52497557D01*
X-68036245Y-52483237D01*
X-68049747Y-52468914D01*
X-68063227Y-52454586D01*
X-68076682Y-52440254D01*
X-68090116Y-52425916D01*
X-68103524Y-52411576D01*
X-68116911Y-52397229D01*
X-68130274Y-52382880D01*
X-68143614Y-52368525D01*
X-68156931Y-52354166D01*
X-68170225Y-52339801D01*
X-68183495Y-52325434D01*
X-68196744Y-52311060D01*
X-68209968Y-52296683D01*
X-68223171Y-52282300D01*
X-68236350Y-52267913D01*
X-68249507Y-52253521D01*
X-68262640Y-52239125D01*
X-68275752Y-52224723D01*
X-68288840Y-52210317D01*
X-68301906Y-52195906D01*
X-68314949Y-52181490D01*
X-68327970Y-52167069D01*
X-68340968Y-52152644D01*
X-68353944Y-52138213D01*
X-68366896Y-52123778D01*
X-68379828Y-52109337D01*
X-68392735Y-52094892D01*
X-68405622Y-52080441D01*
X-68418485Y-52065987D01*
X-68431327Y-52051525D01*
X-68444146Y-52037060D01*
X-68456944Y-52022589D01*
X-68469718Y-52008114D01*
X-68482471Y-51993632D01*
X-68495202Y-51979146D01*
X-68507911Y-51964654D01*
X-68520597Y-51950158D01*
X-68533262Y-51935656D01*
X-68545905Y-51921149D01*
X-68558526Y-51906636D01*
X-68571125Y-51892118D01*
X-68583702Y-51877594D01*
X-68596258Y-51863066D01*
X-68608792Y-51848531D01*
X-68621303Y-51833992D01*
X-68633794Y-51819447D01*
X-68646263Y-51804897D01*
X-68658710Y-51790340D01*
X-68671135Y-51775779D01*
X-68683540Y-51761211D01*
X-68695922Y-51746639D01*
X-68708283Y-51732060D01*
X-68720623Y-51717476D01*
X-68732941Y-51702886D01*
X-68745238Y-51688290D01*
X-68757514Y-51673689D01*
X-68769768Y-51659082D01*
X-68782002Y-51644469D01*
X-68794213Y-51629851D01*
X-68806404Y-51615226D01*
X-68818574Y-51600596D01*
X-68830722Y-51585959D01*
X-68842850Y-51571317D01*
X-68854956Y-51556669D01*
X-68867041Y-51542015D01*
X-68879106Y-51527355D01*
X-68891149Y-51512689D01*
X-68903172Y-51498016D01*
X-68915174Y-51483338D01*
X-68927155Y-51468653D01*
X-68939115Y-51453963D01*
X-68951054Y-51439266D01*
X-68962972Y-51424563D01*
X-68974870Y-51409854D01*
X-68986748Y-51395139D01*
X-68998604Y-51380417D01*
X-69010440Y-51365689D01*
X-69022256Y-51350955D01*
X-69034051Y-51336214D01*
X-69045825Y-51321467D01*
X-69057579Y-51306714D01*
X-69069312Y-51291954D01*
X-69081025Y-51277188D01*
X-69092718Y-51262415D01*
X-69104390Y-51247635D01*
X-69116043Y-51232849D01*
X-69127674Y-51218057D01*
X-69139286Y-51203258D01*
X-69150877Y-51188452D01*
X-69162448Y-51173640D01*
X-69173999Y-51158821D01*
X-69185530Y-51143995D01*
X-69197041Y-51129162D01*
X-69208532Y-51114323D01*
X-69220003Y-51099477D01*
X-69231453Y-51084624D01*
X-69242884Y-51069764D01*
X-69254295Y-51054897D01*
X-69265686Y-51040023D01*
X-69277057Y-51025143D01*
X-69288409Y-51010255D01*
X-69299740Y-50995361D01*
X-69311052Y-50980459D01*
X-69322344Y-50965550D01*
X-69333616Y-50950634D01*
X-69344868Y-50935712D01*
X-69356101Y-50920781D01*
X-69367315Y-50905844D01*
X-69378508Y-50890900D01*
X-69389682Y-50875948D01*
X-69400837Y-50860989D01*
X-69411972Y-50846023D01*
X-69423088Y-50831049D01*
X-69434184Y-50816068D01*
X-69445261Y-50801080D01*
X-69456318Y-50786084D01*
X-69467357Y-50771081D01*
X-69478375Y-50756070D01*
X-69489375Y-50741052D01*
X-69500355Y-50726026D01*
X-69511316Y-50710993D01*
X-69522257Y-50695952D01*
X-69533180Y-50680903D01*
X-69544083Y-50665848D01*
X-69554968Y-50650783D01*
X-69565833Y-50635712D01*
X-69576679Y-50620632D01*
X-69587506Y-50605546D01*
X-69598314Y-50590450D01*
X-69609103Y-50575348D01*
X-69619874Y-50560237D01*
X-69630625Y-50545119D01*
X-69641357Y-50529992D01*
X-69652071Y-50514858D01*
X-69662765Y-50499715D01*
X-69673441Y-50484565D01*
X-69684098Y-50469406D01*
X-69694736Y-50454240D01*
X-69705356Y-50439065D01*
X-69715957Y-50423882D01*
X-69726539Y-50408691D01*
X-69737103Y-50393492D01*
X-69758174Y-50363068D01*
X-69779171Y-50332612D01*
X-69800094Y-50302122D01*
X-69820943Y-50271598D01*
X-69841719Y-50241040D01*
X-69862421Y-50210448D01*
X-69883050Y-50179821D01*
X-69903606Y-50149160D01*
X-69924089Y-50118463D01*
X-69944499Y-50087732D01*
X-69964837Y-50056964D01*
X-69985104Y-50026161D01*
X-70005298Y-49995322D01*
X-70025420Y-49964446D01*
X-70045471Y-49933533D01*
X-70065450Y-49902584D01*
X-70085358Y-49871598D01*
X-70105195Y-49840574D01*
X-70124962Y-49809512D01*
X-70144658Y-49778412D01*
X-70164283Y-49747274D01*
X-70183838Y-49716098D01*
X-70203323Y-49684882D01*
X-70222739Y-49653627D01*
X-70242084Y-49622333D01*
X-70261360Y-49591000D01*
X-70280567Y-49559626D01*
X-70299705Y-49528212D01*
X-70318774Y-49496757D01*
X-70337774Y-49465262D01*
X-70356706Y-49433725D01*
X-70375569Y-49402147D01*
X-70394364Y-49370527D01*
X-70413090Y-49338866D01*
X-70431749Y-49307161D01*
X-70450341Y-49275415D01*
X-70468864Y-49243625D01*
X-70487321Y-49211792D01*
X-70505710Y-49179915D01*
X-70524032Y-49147995D01*
X-70542287Y-49116030D01*
X-70560476Y-49084021D01*
X-70578598Y-49051968D01*
X-70596654Y-49019869D01*
X-70614643Y-48987724D01*
X-70632566Y-48955534D01*
X-70650424Y-48923298D01*
X-70668216Y-48891016D01*
X-70685942Y-48858687D01*
X-70703602Y-48826311D01*
X-70721198Y-48793887D01*
X-70738728Y-48761416D01*
X-70756193Y-48728897D01*
X-70773594Y-48696330D01*
X-70790929Y-48663714D01*
X-70808201Y-48631049D01*
X-70825408Y-48598335D01*
X-70842550Y-48565571D01*
X-70859629Y-48532757D01*
X-70876643Y-48499893D01*
X-70893594Y-48466978D01*
X-70910481Y-48434012D01*
X-70927304Y-48400995D01*
X-70944064Y-48367926D01*
X-70960761Y-48334805D01*
X-70970253Y-48315896D01*
D11*
X-72820174Y-38541877D02*
X-72820174Y-38018721D01*
D12*
X-72929214Y67184223D02*
G75*
G02*
X-72950000Y63084332I-20786J-2049893D01*
G01*
D11*
X163529459Y59902494D02*
X163529459Y59881783D01*
D13*
X160364815Y72287849D02*
X160381240Y72263444D01*
X160397646Y72238925D01*
X160414032Y72214290D01*
X160430400Y72189540D01*
X160446748Y72164674D01*
X160463077Y72139693D01*
X160479387Y72114594D01*
X160495676Y72089379D01*
X160511947Y72064048D01*
X160528197Y72038598D01*
X160544428Y72013032D01*
X160560639Y71987348D01*
X160576830Y71961545D01*
X160593000Y71935625D01*
X160609151Y71909585D01*
X160625281Y71883427D01*
X160641391Y71857150D01*
X160657480Y71830753D01*
X160673548Y71804237D01*
X160689596Y71777600D01*
X160705623Y71750843D01*
X160721629Y71723966D01*
X160737614Y71696967D01*
X160753578Y71669848D01*
X160769521Y71642607D01*
X160785442Y71615244D01*
X160801342Y71587760D01*
X160817220Y71560153D01*
X160833076Y71532424D01*
X160848911Y71504572D01*
X160864723Y71476596D01*
X160880514Y71448498D01*
X160896282Y71420276D01*
X160912028Y71391930D01*
X160927751Y71363459D01*
X160943452Y71334865D01*
X160959130Y71306146D01*
X160974785Y71277301D01*
X160990418Y71248332D01*
X161006027Y71219237D01*
X161021613Y71190016D01*
X161037175Y71160670D01*
X161052714Y71131197D01*
X161068230Y71101597D01*
X161083721Y71071871D01*
X161099189Y71042018D01*
X161114633Y71012037D01*
X161130052Y70981929D01*
X161145447Y70951693D01*
X161160818Y70921329D01*
X161176164Y70890837D01*
X161191485Y70860216D01*
X161206782Y70829467D01*
X161222053Y70798588D01*
X161237299Y70767580D01*
X161252520Y70736443D01*
X161267715Y70705176D01*
X161282884Y70673779D01*
X161298028Y70642252D01*
X161313145Y70610594D01*
X161328237Y70578806D01*
X161343302Y70546886D01*
X161358341Y70514836D01*
X161373353Y70482654D01*
X161388338Y70450341D01*
X161403296Y70417896D01*
X161418227Y70385319D01*
X161433131Y70352609D01*
X161448008Y70319768D01*
X161462856Y70286793D01*
X161477677Y70253686D01*
X161492470Y70220446D01*
X161507235Y70187073D01*
X161521971Y70153566D01*
X161536679Y70119925D01*
X161551358Y70086151D01*
X161566009Y70052243D01*
X161580630Y70018200D01*
X161595222Y69984024D01*
X161609784Y69949712D01*
X161624317Y69915266D01*
X161638820Y69880685D01*
X161653294Y69845969D01*
X161667737Y69811118D01*
X161682149Y69776132D01*
X161696531Y69741009D01*
X161710882Y69705752D01*
X161725203Y69670358D01*
X161739492Y69634829D01*
X161753750Y69599163D01*
X161767976Y69563361D01*
X161782170Y69527423D01*
X161796333Y69491348D01*
X161810463Y69455136D01*
X161824561Y69418788D01*
X161838626Y69382303D01*
X161852658Y69345681D01*
X161866658Y69308922D01*
X161880624Y69272026D01*
X161894557Y69234992D01*
X161908456Y69197822D01*
X161922321Y69160513D01*
X161936152Y69123068D01*
X161949949Y69085484D01*
X161963711Y69047764D01*
X161977438Y69009905D01*
X161991131Y68971909D01*
X162004788Y68933775D01*
X162018409Y68895503D01*
X162031995Y68857093D01*
X162045545Y68818545D01*
X162059059Y68779860D01*
X162072537Y68741036D01*
X162085977Y68702075D01*
X162099381Y68662975D01*
X162112748Y68623738D01*
X162126077Y68584363D01*
X162139369Y68544850D01*
X162152623Y68505199D01*
X162165838Y68465411D01*
X162179015Y68425484D01*
X162192154Y68385420D01*
X162205254Y68345219D01*
X162218314Y68304880D01*
X162231335Y68264403D01*
X162244317Y68223789D01*
X162257258Y68183038D01*
X162270159Y68142149D01*
X162283020Y68101124D01*
X162295840Y68059962D01*
X162308619Y68018663D01*
X162321357Y67977227D01*
X162334053Y67935655D01*
X162346707Y67893947D01*
X162359319Y67852103D01*
X162371889Y67810123D01*
X162384415Y67768007D01*
X162396899Y67725756D01*
X162409340Y67683369D01*
X162421737Y67640848D01*
X162434090Y67598192D01*
X162446399Y67555402D01*
X162458663Y67512477D01*
X162470883Y67469419D01*
X162483058Y67426228D01*
X162495187Y67382903D01*
X162507270Y67339445D01*
X162519308Y67295855D01*
X162531299Y67252133D01*
X162543243Y67208280D01*
X162555141Y67164295D01*
X162566991Y67120180D01*
X162578793Y67075934D01*
X162590548Y67031558D01*
X162602254Y66987053D01*
X162613912Y66942419D01*
X162625520Y66897657D01*
X162637080Y66852767D01*
X162648590Y66807750D01*
X162660049Y66762606D01*
X162671459Y66717337D01*
X162682818Y66671942D01*
X162694125Y66626422D01*
X162705382Y66580778D01*
X162716586Y66535011D01*
X162727739Y66489122D01*
X162738839Y66443110D01*
X162749886Y66396978D01*
X162760880Y66350725D01*
X162771820Y66304353D01*
X162782706Y66257863D01*
X162793538Y66211255D01*
X162804315Y66164530D01*
X162815037Y66117690D01*
X162825704Y66070735D01*
X162836314Y66023666D01*
X162846868Y65976485D01*
X162857366Y65929192D01*
X162867806Y65881789D01*
X162878188Y65834276D01*
X162888513Y65786656D01*
X162898779Y65738928D01*
X162908986Y65691096D01*
X162919134Y65643159D01*
X162929223Y65595120D01*
X162939251Y65546979D01*
X162949218Y65498738D01*
X162959124Y65450399D01*
X162968969Y65401964D01*
X162978752Y65353433D01*
X162988472Y65304808D01*
X162998130Y65256092D01*
X163007724Y65207286D01*
X163017254Y65158392D01*
X163026720Y65109412D01*
X163036121Y65060347D01*
X163045456Y65011200D01*
X163054726Y64961973D01*
X163063930Y64912668D01*
X163073066Y64863287D01*
X163082135Y64813833D01*
X163091136Y64764308D01*
X163100069Y64714714D01*
X163108932Y64665054D01*
X163117726Y64615331D01*
X163126450Y64565547D01*
X163135103Y64515706D01*
X163143685Y64465809D01*
X163152195Y64415860D01*
X163160633Y64365862D01*
X163168997Y64315819D01*
X163177288Y64265734D01*
X163185505Y64215609D01*
X163193647Y64165450D01*
X163201713Y64115259D01*
X163209704Y64065040D01*
X163217617Y64014797D01*
X163225453Y63964534D01*
X163233211Y63914256D01*
X163240890Y63863967D01*
X163248490Y63813671D01*
X163256010Y63763374D01*
X163263448Y63713079D01*
X163270806Y63662793D01*
X163278080Y63612520D01*
X163285272Y63562266D01*
X163292380Y63512036D01*
X163299404Y63461837D01*
X163306342Y63411675D01*
X163313193Y63361556D01*
X163319958Y63311486D01*
X163326635Y63261473D01*
X163333224Y63211523D01*
X163339723Y63161644D01*
X163346131Y63111844D01*
X163352449Y63062131D01*
X163358674Y63012513D01*
X163364806Y62962999D01*
X163370845Y62913599D01*
X163376788Y62864321D01*
X163382635Y62815175D01*
X163388386Y62766172D01*
X163394039Y62717323D01*
X163399592Y62668639D01*
X163405046Y62620131D01*
X163410399Y62571813D01*
X163415649Y62523696D01*
X163420797Y62475795D01*
X163425840Y62428123D01*
X163430778Y62380695D01*
X163435609Y62333527D01*
X163440332Y62286635D01*
X163444946Y62240035D01*
X163449450Y62193746D01*
X163453842Y62147786D01*
X163458121Y62102174D01*
X163462287Y62056931D01*
X163466337Y62012079D01*
X163470271Y61967639D01*
X163474086Y61923636D01*
X163477782Y61880094D01*
X163481358Y61837039D01*
X163484812Y61794498D01*
X163488142Y61752500D01*
X163491348Y61711074D01*
X163494429Y61670252D01*
X163497382Y61630066D01*
X163500207Y61590550D01*
X163501572Y61571025D01*
X163502902Y61551739D01*
X163504203Y61532583D01*
X163505467Y61513670D01*
X163506702Y61494902D01*
X163507900Y61476382D01*
X163509069Y61458020D01*
X163510201Y61439913D01*
X163511303Y61421979D01*
X163512369Y61404304D01*
X163513404Y61386818D01*
X163514404Y61369597D01*
X163515371Y61352581D01*
X163516304Y61335834D01*
X163517204Y61319310D01*
X163518070Y61303058D01*
X163518903Y61287048D01*
X163519702Y61271313D01*
X163520467Y61255838D01*
X163521199Y61240643D01*
X163521898Y61225724D01*
X163522564Y61211089D01*
X163523197Y61196748D01*
X163523797Y61182693D01*
X163524364Y61168952D01*
X163524899Y61155496D01*
X163525401Y61142373D01*
X163525872Y61129536D01*
X163526311Y61117048D01*
X163526720Y61104846D01*
X163527097Y61093009D01*
X163527444Y61081458D01*
X163527761Y61070285D01*
X163528049Y61059396D01*
X163528307Y61048898D01*
X163528539Y61038681D01*
X163528741Y61028865D01*
X163528918Y61019325D01*
X163529067Y61010195D01*
X163529192Y61001335D01*
X163529291Y60992889D01*
X163529367Y60984706D01*
X163529420Y60976940D01*
X163529450Y60969429D01*
X163529459Y60962793D01*
D12*
X-72929206Y67184923D02*
G75*
G02*
X-58729215Y81114628I14199986J-272903D01*
G01*
D10*
X147903331Y81063747D02*
X147921577Y81062309D01*
X147939820Y81060852D01*
X147958060Y81059375D01*
X147976297Y81057878D01*
X147994531Y81056361D01*
X148012761Y81054824D01*
X148030988Y81053268D01*
X148049211Y81051691D01*
X148067430Y81050095D01*
X148085647Y81048480D01*
X148103858Y81046844D01*
X148122067Y81045189D01*
X148140270Y81043514D01*
X148158471Y81041820D01*
X148176666Y81040105D01*
X148194858Y81038371D01*
X148213044Y81036618D01*
X148231227Y81034844D01*
X148249404Y81033051D01*
X148267578Y81031239D01*
X148285746Y81029407D01*
X148303910Y81027555D01*
X148322068Y81025683D01*
X148340222Y81023792D01*
X148358370Y81021882D01*
X148376513Y81019952D01*
X148394650Y81018002D01*
X148412783Y81016033D01*
X148430909Y81014044D01*
X148449031Y81012036D01*
X148467145Y81010008D01*
X148485255Y81007961D01*
X148503358Y81005894D01*
X148521456Y81003808D01*
X148539547Y81001703D01*
X148557633Y80999578D01*
X148575711Y80997433D01*
X148593784Y80995270D01*
X148611849Y80993087D01*
X148629910Y80990884D01*
X148647961Y80988662D01*
X148666009Y80986421D01*
X148684047Y80984161D01*
X148702080Y80981881D01*
X148720104Y80979582D01*
X148738123Y80977264D01*
X148756133Y80974926D01*
X148774138Y80972570D01*
X148792132Y80970194D01*
X148810122Y80967799D01*
X148828102Y80965385D01*
X148846077Y80962951D01*
X148864041Y80960499D01*
X148882000Y80958027D01*
X148899948Y80955536D01*
X148917891Y80953026D01*
X148935824Y80950498D01*
X148953750Y80947949D01*
X148971666Y80945383D01*
X148989576Y80942797D01*
X149007475Y80940192D01*
X149025368Y80937568D01*
X149043249Y80934925D01*
X149061125Y80932263D01*
X149078989Y80929583D01*
X149096847Y80926883D01*
X149114693Y80924165D01*
X149132532Y80921427D01*
X149150360Y80918671D01*
X149168181Y80915896D01*
X149185990Y80913103D01*
X149203792Y80910290D01*
X149221582Y80907459D01*
X149239365Y80904609D01*
X149257135Y80901741D01*
X149274899Y80898853D01*
X149292650Y80895947D01*
X149310393Y80893022D01*
X149328124Y80890080D01*
X149345847Y80887118D01*
X149363557Y80884137D01*
X149381260Y80881138D01*
X149398949Y80878121D01*
X149416632Y80875085D01*
X149434300Y80872031D01*
X149451961Y80868958D01*
X149469607Y80865867D01*
X149487246Y80862757D01*
X149504871Y80859629D01*
X149522488Y80856482D01*
X149540091Y80853318D01*
X149557686Y80850134D01*
X149575266Y80846933D01*
X149592838Y80843713D01*
X149610396Y80840476D01*
X149627945Y80837219D01*
X149645479Y80833946D01*
X149663005Y80830653D01*
X149680516Y80827343D01*
X149698019Y80824013D01*
X149715505Y80820667D01*
X149732984Y80817302D01*
X149750446Y80813919D01*
X149767901Y80810518D01*
X149785339Y80807099D01*
X149802769Y80803662D01*
X149820182Y80800208D01*
X149837587Y80796735D01*
X149854975Y80793244D01*
X149872355Y80789736D01*
X149889717Y80786210D01*
X149907071Y80782665D01*
X149924408Y80779104D01*
X149941737Y80775523D01*
X149959047Y80771927D01*
X149976349Y80768311D01*
X149993634Y80764679D01*
X150010909Y80761028D01*
X150028167Y80757360D01*
X150045416Y80753674D01*
X150062646Y80749972D01*
X150079868Y80746250D01*
X150097071Y80742513D01*
X150114266Y80738756D01*
X150131441Y80734984D01*
X150148608Y80731193D01*
X150165755Y80727385D01*
X150182894Y80723559D01*
X150200013Y80719717D01*
X150217124Y80715856D01*
X150234214Y80711980D01*
X150251296Y80708085D01*
X150268358Y80704173D01*
X150285411Y80700244D01*
X150302444Y80696298D01*
X150319467Y80692334D01*
X150336470Y80688355D01*
X150353464Y80684356D01*
X150370438Y80680343D01*
X150387402Y80676310D01*
X150404346Y80672262D01*
X150421280Y80668196D01*
X150438193Y80664114D01*
X150455097Y80660014D01*
X150471980Y80655899D01*
X150488853Y80651765D01*
X150505705Y80647616D01*
X150522547Y80643449D01*
X150539367Y80639266D01*
X150556178Y80635065D01*
X150572968Y80630849D01*
X150589747Y80626615D01*
X150606505Y80622365D01*
X150623252Y80618098D01*
X150639978Y80613815D01*
X150656693Y80609515D01*
X150673387Y80605199D01*
X150690070Y80600866D01*
X150706731Y80596517D01*
X150723381Y80592151D01*
X150740009Y80587770D01*
X150756627Y80583370D01*
X150773222Y80578956D01*
X150789807Y80574525D01*
X150806369Y80570078D01*
X150822920Y80565614D01*
X150839448Y80561135D01*
X150855966Y80556638D01*
X150872460Y80552127D01*
X150888944Y80547598D01*
X150905404Y80543055D01*
X150921853Y80538494D01*
X150938279Y80533919D01*
X150954695Y80529326D01*
X150971086Y80524719D01*
X150987466Y80520094D01*
X151003823Y80515455D01*
X151020169Y80510798D01*
X151036490Y80506128D01*
X151052801Y80501440D01*
X151069087Y80496738D01*
X151085362Y80492018D01*
X151101613Y80487285D01*
X151117852Y80482534D01*
X151134067Y80477769D01*
X151150271Y80472987D01*
X151166449Y80468191D01*
X151182617Y80463378D01*
X151198760Y80458551D01*
X151214891Y80453707D01*
X151230997Y80448850D01*
X151247092Y80443975D01*
X151263161Y80439086D01*
X151279219Y80434181D01*
X151295251Y80429262D01*
X151311272Y80424326D01*
X151327268Y80419377D01*
X151343251Y80414410D01*
X151359209Y80409430D01*
X151375155Y80404434D01*
X151391076Y80399424D01*
X151406984Y80394397D01*
X151422867Y80389357D01*
X151438737Y80384300D01*
X151454582Y80379231D01*
X151470415Y80374144D01*
X151486221Y80369045D01*
X151502015Y80363928D01*
X151517783Y80358799D01*
X151533539Y80353653D01*
X151549268Y80348494D01*
X151564985Y80343319D01*
X151580676Y80338131D01*
X151596354Y80332926D01*
X151612005Y80327709D01*
X151627644Y80322475D01*
X151643256Y80317229D01*
X151658856Y80311966D01*
X151674429Y80306691D01*
X151689989Y80301399D01*
X151705522Y80296095D01*
X151721042Y80290774D01*
X151736536Y80285442D01*
X151752016Y80280092D01*
X151767470Y80274731D01*
X151782910Y80269353D01*
X151798323Y80263964D01*
X151813723Y80258558D01*
X151829096Y80253140D01*
X151844456Y80247705D01*
X151859788Y80242260D01*
X151875107Y80236797D01*
X151890399Y80231323D01*
X151905677Y80225833D01*
X151920928Y80220331D01*
X151936165Y80214813D01*
X151951375Y80209284D01*
X151966571Y80203738D01*
X151981739Y80198181D01*
X151996894Y80192608D01*
X152012021Y80187023D01*
X152027135Y80181422D01*
X152042220Y80175811D01*
X152057292Y80170183D01*
X152072335Y80164544D01*
X152087366Y80158889D01*
X152102367Y80153223D01*
X152117355Y80147541D01*
X152132315Y80141848D01*
X152147261Y80136140D01*
X152162178Y80130420D01*
X152177082Y80124685D01*
X152191957Y80118939D01*
X152206818Y80113176D01*
X152221651Y80107404D01*
X152236469Y80101616D01*
X152251259Y80095817D01*
X152266035Y80090002D01*
X152280782Y80084177D01*
X152295515Y80078336D01*
X152310219Y80072485D01*
X152324910Y80066618D01*
X152339571Y80060741D01*
X152354218Y80054849D01*
X152368835Y80048946D01*
X152383439Y80043028D01*
X152398013Y80037099D01*
X152412574Y80031155D01*
X152427104Y80025202D01*
X152441621Y80019232D01*
X152456108Y80013253D01*
X152470582Y80007258D01*
X152485025Y80001254D01*
X152499454Y79995234D01*
X152513854Y79989205D01*
X152528239Y79983160D01*
X152542595Y79977105D01*
X152556936Y79971036D01*
X152571247Y79964957D01*
X152585544Y79958862D01*
X152599812Y79952758D01*
X152614064Y79946639D01*
X152628287Y79940511D01*
X152642496Y79934367D01*
X152656674Y79928214D01*
X152670838Y79922046D01*
X152684972Y79915869D01*
X152699091Y79909677D01*
X152713180Y79903476D01*
X152727254Y79897260D01*
X152741298Y79891035D01*
X152755328Y79884795D01*
X152769327Y79878546D01*
X152783312Y79872282D01*
X152797266Y79866009D01*
X152811206Y79859722D01*
X152825115Y79853426D01*
X152839009Y79847114D01*
X152852873Y79840795D01*
X152866722Y79834460D01*
X152880541Y79828117D01*
X152894345Y79821760D01*
X152908118Y79815394D01*
X152921876Y79809013D01*
X152935604Y79802624D01*
X152949317Y79796220D01*
X152962999Y79789808D01*
X152976666Y79783381D01*
X152990303Y79776946D01*
X153003924Y79770497D01*
X153017515Y79764040D01*
X153031090Y79757567D01*
X153044635Y79751088D01*
X153058165Y79744593D01*
X153071664Y79738091D01*
X153085148Y79731574D01*
X153098600Y79725050D01*
X153112038Y79718511D01*
X153125445Y79711964D01*
X153138837Y79705403D01*
X153152197Y79698835D01*
X153165543Y79692251D01*
X153178857Y79685661D01*
X153192156Y79679056D01*
X153205424Y79672444D01*
X153218677Y79665818D01*
X153231899Y79659184D01*
X153245105Y79652536D01*
X153258281Y79645881D01*
X153271441Y79639212D01*
X153284569Y79632536D01*
X153297683Y79625845D01*
X153310765Y79619147D01*
X153323832Y79612435D01*
X153336867Y79605717D01*
X153349887Y79598984D01*
X153362876Y79592244D01*
X153375850Y79585491D01*
X153388792Y79578730D01*
X153401719Y79571956D01*
X153414614Y79565175D01*
X153427494Y79558379D01*
X153440342Y79551578D01*
X153453175Y79544762D01*
X153465977Y79537940D01*
X153478763Y79531104D01*
X153491518Y79524262D01*
X153504257Y79517406D01*
X153516964Y79510543D01*
X153529656Y79503667D01*
X153542317Y79496784D01*
X153554962Y79489888D01*
X153567576Y79482985D01*
X153580173Y79476069D01*
X153592740Y79469147D01*
X153605291Y79462210D01*
X153617810Y79455269D01*
X153630313Y79448313D01*
X153642786Y79441351D01*
X153655242Y79434376D01*
X153667667Y79427395D01*
X153680076Y79420400D01*
X153692453Y79413400D01*
X153704815Y79406386D01*
X153717145Y79399367D01*
X153729460Y79392334D01*
X153741743Y79385295D01*
X153754010Y79378243D01*
X153766245Y79371186D01*
X153778465Y79364114D01*
X153790653Y79357038D01*
X153802825Y79349948D01*
X153814966Y79342853D01*
X153827091Y79335745D01*
X153839184Y79328631D01*
X153851262Y79321504D01*
X153863308Y79314372D01*
X153875338Y79307226D01*
X153887336Y79300076D01*
X153899318Y79292912D01*
X153911269Y79285743D01*
X153923204Y79278561D01*
X153929220Y79274932D01*
D12*
X114379256Y-21041579D02*
X118100000Y-51115671D01*
D11*
X-59550000Y39134329D02*
G75*
G02*
X-64550000Y39134329I-2500000J0D01*
G01*
X-64550000Y39134329D02*
G75*
G02*
X-59550000Y39134329I2500000J0D01*
G01*
D12*
X103557818Y-20644771D02*
G75*
G02*
X105458006Y-19263903I1901682J-619029D01*
G01*
D11*
X83800000Y-54665671D02*
G75*
G02*
X78800000Y-54665671I-2500000J0D01*
G01*
X78800000Y-54665671D02*
G75*
G02*
X83800000Y-54665671I2500000J0D01*
G01*
X101131556Y81114780D02*
X143233360Y81114780D01*
D13*
X-70970253Y-48315896D02*
X-70986959Y-48282476D01*
X-71003594Y-48249020D01*
X-71020157Y-48215529D01*
X-71036648Y-48182002D01*
X-71053067Y-48148440D01*
X-71069415Y-48114843D01*
X-71085690Y-48081211D01*
X-71101894Y-48047544D01*
X-71118025Y-48013843D01*
X-71134084Y-47980107D01*
X-71142087Y-47963226D01*
X-71150071Y-47946336D01*
X-71158038Y-47929438D01*
X-71165986Y-47912531D01*
X-71173916Y-47895616D01*
X-71181828Y-47878693D01*
X-71189722Y-47861761D01*
X-71197598Y-47844820D01*
X-71205456Y-47827871D01*
X-71213296Y-47810914D01*
X-71221117Y-47793948D01*
X-71228920Y-47776974D01*
X-71236705Y-47759991D01*
X-71244472Y-47743000D01*
X-71252221Y-47726001D01*
X-71259951Y-47708994D01*
X-71267664Y-47691978D01*
X-71275358Y-47674954D01*
X-71283034Y-47657922D01*
X-71290691Y-47640882D01*
X-71298331Y-47623833D01*
X-71305952Y-47606776D01*
X-71313555Y-47589711D01*
X-71321139Y-47572638D01*
X-71328706Y-47555557D01*
X-71336254Y-47538468D01*
X-71343783Y-47521370D01*
X-71351295Y-47504265D01*
X-71358788Y-47487151D01*
X-71366263Y-47470030D01*
X-71373719Y-47452900D01*
X-71381157Y-47435763D01*
X-71388577Y-47418617D01*
X-71395979Y-47401464D01*
X-71403362Y-47384303D01*
X-71410726Y-47367133D01*
X-71418073Y-47349956D01*
X-71425400Y-47332771D01*
X-71432710Y-47315579D01*
X-71440001Y-47298378D01*
X-71447274Y-47281170D01*
X-71454528Y-47263953D01*
X-71461764Y-47246730D01*
X-71468981Y-47229498D01*
X-71476180Y-47212259D01*
X-71483361Y-47195011D01*
X-71490523Y-47177757D01*
X-71497666Y-47160494D01*
X-71504791Y-47143224D01*
X-71511898Y-47125946D01*
X-71518986Y-47108661D01*
X-71526055Y-47091368D01*
X-71533106Y-47074068D01*
X-71540139Y-47056760D01*
X-71547153Y-47039444D01*
X-71554148Y-47022121D01*
X-71561125Y-47004791D01*
X-71568084Y-46987453D01*
X-71575023Y-46970107D01*
X-71581945Y-46952754D01*
X-71588847Y-46935394D01*
X-71595731Y-46918027D01*
X-71602597Y-46900652D01*
X-71609443Y-46883269D01*
X-71616272Y-46865880D01*
X-71623081Y-46848483D01*
X-71629872Y-46831079D01*
X-71636645Y-46813667D01*
X-71643398Y-46796248D01*
X-71650133Y-46778822D01*
X-71656850Y-46761389D01*
X-71663547Y-46743949D01*
X-71670226Y-46726501D01*
X-71676887Y-46709047D01*
X-71683528Y-46691585D01*
X-71690151Y-46674116D01*
X-71696756Y-46656640D01*
X-71703341Y-46639157D01*
X-71709908Y-46621667D01*
X-71716456Y-46604170D01*
X-71722985Y-46586666D01*
X-71729496Y-46569155D01*
X-71735988Y-46551637D01*
X-71742461Y-46534112D01*
X-71748915Y-46516580D01*
X-71755351Y-46499041D01*
X-71761768Y-46481496D01*
X-71768166Y-46463943D01*
X-71774545Y-46446384D01*
X-71780906Y-46428818D01*
X-71787247Y-46411245D01*
X-71793570Y-46393665D01*
X-71799874Y-46376078D01*
X-71806159Y-46358485D01*
X-71812425Y-46340885D01*
X-71818673Y-46323278D01*
X-71824901Y-46305665D01*
X-71831111Y-46288045D01*
X-71837302Y-46270418D01*
X-71843474Y-46252785D01*
X-71849627Y-46235145D01*
X-71855761Y-46217499D01*
X-71861877Y-46199846D01*
X-71867973Y-46182186D01*
X-71874050Y-46164520D01*
X-71880109Y-46146847D01*
X-71886149Y-46129168D01*
X-71892170Y-46111483D01*
X-71898171Y-46093791D01*
X-71904154Y-46076092D01*
X-71910118Y-46058388D01*
X-71916063Y-46040676D01*
X-71921989Y-46022959D01*
X-71927896Y-46005235D01*
X-71933784Y-45987505D01*
X-71939653Y-45969768D01*
X-71945503Y-45952026D01*
X-71951335Y-45934277D01*
X-71957147Y-45916522D01*
X-71962940Y-45898760D01*
X-71968714Y-45880992D01*
X-71974469Y-45863218D01*
X-71980205Y-45845439D01*
X-71985922Y-45827652D01*
X-71991620Y-45809860D01*
X-71997299Y-45792061D01*
X-72002958Y-45774257D01*
X-72008599Y-45756447D01*
X-72014221Y-45738630D01*
X-72019823Y-45720807D01*
X-72025407Y-45702979D01*
X-72030971Y-45685144D01*
X-72036517Y-45667304D01*
X-72042043Y-45649457D01*
X-72047550Y-45631605D01*
X-72053038Y-45613747D01*
X-72058507Y-45595883D01*
X-72063957Y-45578013D01*
X-72069387Y-45560137D01*
X-72074799Y-45542255D01*
X-72080191Y-45524368D01*
X-72085565Y-45506475D01*
X-72090919Y-45488576D01*
X-72096254Y-45470671D01*
X-72101569Y-45452761D01*
X-72106866Y-45434845D01*
X-72112143Y-45416923D01*
X-72117402Y-45398995D01*
X-72122640Y-45381063D01*
X-72127860Y-45363124D01*
X-72133061Y-45345180D01*
X-72138242Y-45327229D01*
X-72143405Y-45309274D01*
X-72148548Y-45291313D01*
X-72153671Y-45273347D01*
X-72158776Y-45255375D01*
X-72163861Y-45237398D01*
X-72168927Y-45219414D01*
X-72173974Y-45201426D01*
X-72179001Y-45183432D01*
X-72184010Y-45165434D01*
X-72188999Y-45147429D01*
X-72193968Y-45129419D01*
X-72198919Y-45111404D01*
X-72205327Y-45087971D01*
D11*
%TO.C,U19*%
X33448666Y21687849D02*
X33448666Y26187849D01*
X34448666Y27187849D02*
X56348666Y27187849D01*
X56348666Y20687849D02*
X34448666Y20687849D01*
X57348666Y26187849D02*
X57348666Y21687849D01*
X33448666Y26187849D02*
G75*
G02*
X34448666Y27187848I999999J0D01*
G01*
X34448666Y20687849D02*
G75*
G02*
X33448665Y21687849I-1J1000000D01*
G01*
X56348666Y27187849D02*
G75*
G02*
X57348666Y26187849I1J-999999D01*
G01*
X57348666Y21687849D02*
G75*
G02*
X56348666Y20687849I-999999J-1D01*
G01*
X29861671Y28975399D02*
G75*
G02*
X26461671Y28975399I-1700000J0D01*
G01*
X26461671Y28975399D02*
G75*
G02*
X29861671Y28975399I1700000J0D01*
G01*
X30098666Y-851573D02*
G75*
G02*
X26698666Y-851573I-1700000J0D01*
G01*
X26698666Y-851573D02*
G75*
G02*
X30098666Y-851573I1700000J0D01*
G01*
X37098666Y12198427D02*
G75*
G02*
X33098666Y12198427I-2000000J0D01*
G01*
X33098666Y12198427D02*
G75*
G02*
X37098666Y12198427I2000000J0D01*
G01*
X36898666Y144657D02*
G75*
G02*
X33298666Y144657I-1800000J0D01*
G01*
X33298666Y144657D02*
G75*
G02*
X36898666Y144657I1800000J0D01*
G01*
X57198666Y12198427D02*
G75*
G02*
X53598666Y12198427I-1800000J0D01*
G01*
X53598666Y12198427D02*
G75*
G02*
X57198666Y12198427I1800000J0D01*
G01*
X57198666Y148427D02*
G75*
G02*
X53598666Y148427I-1800000J0D01*
G01*
X53598666Y148427D02*
G75*
G02*
X57198666Y148427I1800000J0D01*
G01*
X63079955Y28795839D02*
G75*
G02*
X59679955Y28795839I-1700000J0D01*
G01*
X59679955Y28795839D02*
G75*
G02*
X63079955Y28795839I1700000J0D01*
G01*
X63967958Y-1099700D02*
G75*
G02*
X60567958Y-1099700I-1700000J0D01*
G01*
X60567958Y-1099700D02*
G75*
G02*
X63967958Y-1099700I1700000J0D01*
G01*
D12*
%TO.C,U6*%
X-58285185Y64437849D02*
X-58278077Y60944956D01*
X26207708Y65430742D02*
X-57285100Y65437849D01*
X26207708Y59944957D02*
X-57278078Y59944957D01*
X27214815Y64430749D02*
X27207708Y60944956D01*
X-58285185Y64437849D02*
G75*
G02*
X-57285185Y65437849I999999J1D01*
G01*
X-57278078Y59944956D02*
G75*
G02*
X-58278078Y60944956I-1J999999D01*
G01*
X26214815Y65430742D02*
G75*
G02*
X27214808Y64430742I0J-999993D01*
G01*
X27207708Y60944956D02*
G75*
G02*
X26207708Y59944956I-999993J-7D01*
G01*
%TD*%
M02*
