%TF.GenerationSoftware,KiCad,Pcbnew,9.0.2*%
%TF.CreationDate,2025-05-13T16:07:20+08:00*%
%TF.ProjectId,MothBo,4d6f7468-426f-42e6-9b69-6361645f7063,5.0.0*%
%TF.SameCoordinates,Original*%
%TF.FileFunction,Soldermask,Bot*%
%TF.FilePolarity,Negative*%
%FSLAX46Y46*%
G04 Gerber Fmt 4.6, Leading zero omitted, Abs format (unit mm)*
G04 Created by KiCad (PCBNEW 9.0.2) date 2025-05-13 16:07:20*
%MOMM*%
%LPD*%
G01*
G04 APERTURE LIST*
G04 Aperture macros list*
%AMRoundRect*
0 Rectangle with rounded corners*
0 $1 Rounding radius*
0 $2 $3 $4 $5 $6 $7 $8 $9 X,Y pos of 4 corners*
0 Add a 4 corners polygon primitive as box body*
4,1,4,$2,$3,$4,$5,$6,$7,$8,$9,$2,$3,0*
0 Add four circle primitives for the rounded corners*
1,1,$1+$1,$2,$3*
1,1,$1+$1,$4,$5*
1,1,$1+$1,$6,$7*
1,1,$1+$1,$8,$9*
0 Add four rect primitives between the rounded corners*
20,1,$1+$1,$2,$3,$4,$5,0*
20,1,$1+$1,$4,$5,$6,$7,0*
20,1,$1+$1,$6,$7,$8,$9,0*
20,1,$1+$1,$8,$9,$2,$3,0*%
G04 Aperture macros list end*
%ADD10C,1.905000*%
%ADD11RoundRect,0.250000X-0.300000X-0.300000X0.300000X-0.300000X0.300000X0.300000X-0.300000X0.300000X0*%
%ADD12RoundRect,0.112500X0.112500X-0.187500X0.112500X0.187500X-0.112500X0.187500X-0.112500X-0.187500X0*%
%ADD13RoundRect,0.250000X-0.450000X0.262500X-0.450000X-0.262500X0.450000X-0.262500X0.450000X0.262500X0*%
%ADD14RoundRect,0.249997X2.950003X2.650003X-2.950003X2.650003X-2.950003X-2.650003X2.950003X-2.650003X0*%
%ADD15RoundRect,0.250000X0.850000X0.350000X-0.850000X0.350000X-0.850000X-0.350000X0.850000X-0.350000X0*%
%ADD16RoundRect,0.250000X-0.262500X-0.450000X0.262500X-0.450000X0.262500X0.450000X-0.262500X0.450000X0*%
%ADD17RoundRect,0.150000X0.587500X0.150000X-0.587500X0.150000X-0.587500X-0.150000X0.587500X-0.150000X0*%
%ADD18R,1.700000X1.700000*%
%ADD19C,1.700000*%
%ADD20RoundRect,0.250000X0.450000X-0.262500X0.450000X0.262500X-0.450000X0.262500X-0.450000X-0.262500X0*%
%ADD21RoundRect,0.250000X0.262500X0.450000X-0.262500X0.450000X-0.262500X-0.450000X0.262500X-0.450000X0*%
%ADD22RoundRect,0.250000X0.475000X-0.337500X0.475000X0.337500X-0.475000X0.337500X-0.475000X-0.337500X0*%
%ADD23RoundRect,0.112500X-0.112500X0.187500X-0.112500X-0.187500X0.112500X-0.187500X0.112500X0.187500X0*%
%ADD24RoundRect,0.150000X0.150000X-0.587500X0.150000X0.587500X-0.150000X0.587500X-0.150000X-0.587500X0*%
%ADD25RoundRect,0.112500X0.187500X0.112500X-0.187500X0.112500X-0.187500X-0.112500X0.187500X-0.112500X0*%
%ADD26RoundRect,0.102000X0.550000X-0.850000X0.550000X0.850000X-0.550000X0.850000X-0.550000X-0.850000X0*%
%ADD27RoundRect,0.102000X0.750000X0.550000X-0.750000X0.550000X-0.750000X-0.550000X0.750000X-0.550000X0*%
%ADD28RoundRect,0.250001X1.149999X-1.149999X1.149999X1.149999X-1.149999X1.149999X-1.149999X-1.149999X0*%
%ADD29C,2.800000*%
%ADD30C,6.404000*%
%ADD31RoundRect,0.250000X0.475000X-0.250000X0.475000X0.250000X-0.475000X0.250000X-0.475000X-0.250000X0*%
%ADD32RoundRect,0.150000X0.150000X-0.825000X0.150000X0.825000X-0.150000X0.825000X-0.150000X-0.825000X0*%
%ADD33R,4.600000X2.000000*%
%ADD34O,4.200000X2.000000*%
%ADD35O,2.000000X4.200000*%
%ADD36RoundRect,0.675000X0.675000X0.675000X-0.675000X0.675000X-0.675000X-0.675000X0.675000X-0.675000X0*%
%ADD37C,2.700000*%
%ADD38RoundRect,0.150000X-0.825000X-0.150000X0.825000X-0.150000X0.825000X0.150000X-0.825000X0.150000X0*%
%ADD39RoundRect,0.250000X-1.950000X-1.000000X1.950000X-1.000000X1.950000X1.000000X-1.950000X1.000000X0*%
%ADD40RoundRect,0.250000X0.362500X1.425000X-0.362500X1.425000X-0.362500X-1.425000X0.362500X-1.425000X0*%
%ADD41RoundRect,0.100500X-0.301500X1.031500X-0.301500X-1.031500X0.301500X-1.031500X0.301500X1.031500X0*%
%ADD42R,1.905000X2.000000*%
%ADD43O,1.905000X2.000000*%
%ADD44RoundRect,0.150000X0.825000X0.150000X-0.825000X0.150000X-0.825000X-0.150000X0.825000X-0.150000X0*%
%ADD45RoundRect,0.102000X0.850000X0.550000X-0.850000X0.550000X-0.850000X-0.550000X0.850000X-0.550000X0*%
%ADD46C,0.400000*%
%ADD47RoundRect,0.102000X0.350000X1.000000X-0.350000X1.000000X-0.350000X-1.000000X0.350000X-1.000000X0*%
%ADD48RoundRect,0.102000X0.380000X1.000000X-0.380000X1.000000X-0.380000X-1.000000X0.380000X-1.000000X0*%
%ADD49RoundRect,0.102000X0.400000X1.000000X-0.400000X1.000000X-0.400000X-1.000000X0.400000X-1.000000X0*%
%ADD50O,1.204000X2.204000*%
%ADD51RoundRect,0.150000X-0.587500X-0.150000X0.587500X-0.150000X0.587500X0.150000X-0.587500X0.150000X0*%
%ADD52RoundRect,0.250000X1.000000X-1.750000X1.000000X1.750000X-1.000000X1.750000X-1.000000X-1.750000X0*%
%ADD53RoundRect,0.250000X-1.000000X1.000000X-1.000000X-1.000000X1.000000X-1.000000X1.000000X1.000000X0*%
%ADD54C,2.500000*%
G04 APERTURE END LIST*
D10*
%TO.C,A1*%
X140061497Y-70753645D03*
X142561331Y-70753645D03*
X140061497Y-67235671D03*
X142561331Y-67235671D03*
X139928203Y-85258853D03*
X142416361Y-85256585D03*
%TD*%
%TO.C,A2*%
X176854864Y-82268611D03*
X174355030Y-82268611D03*
X176854864Y-85786585D03*
X174355030Y-85786585D03*
X176988158Y-67763403D03*
X174500000Y-67765671D03*
%TD*%
%TO.C,A3*%
X93500000Y-70765671D03*
X95999834Y-70765671D03*
X93500000Y-67247697D03*
X95999834Y-67247697D03*
X93366706Y-85270879D03*
X95854864Y-85268611D03*
%TD*%
D11*
%TO.C,E1*%
X249700000Y-169225671D03*
X252500000Y-169225671D03*
%TD*%
D12*
%TO.C,D36*%
X212180000Y-132373171D03*
X212180000Y-130273171D03*
%TD*%
D13*
%TO.C,R81*%
X230390000Y-131163171D03*
X230390000Y-132988171D03*
%TD*%
D14*
%TO.C,Q2*%
X212550000Y-142835671D03*
D15*
X218850000Y-140555671D03*
X218850000Y-145115671D03*
%TD*%
D16*
%TO.C,R77*%
X173852500Y-101845671D03*
X175677500Y-101845671D03*
%TD*%
D13*
%TO.C,R76*%
X117260000Y-74453171D03*
X117260000Y-76278171D03*
%TD*%
D17*
%TO.C,Q9*%
X114987500Y-74483171D03*
X114987500Y-76383171D03*
X113112500Y-75433171D03*
%TD*%
D18*
%TO.C,J5*%
X52500000Y-84385671D03*
D19*
X52500000Y-81845671D03*
X52500000Y-79305671D03*
X52500000Y-76765671D03*
X52500000Y-74225671D03*
%TD*%
D13*
%TO.C,R1*%
X222610000Y-143323171D03*
X222610000Y-145148171D03*
%TD*%
%TO.C,R47*%
X69500000Y-117073171D03*
X69500000Y-118898171D03*
%TD*%
%TO.C,R84*%
X107670000Y-98420671D03*
X107670000Y-100245671D03*
%TD*%
D20*
%TO.C,R33*%
X86680000Y-84838171D03*
X86680000Y-83013171D03*
%TD*%
D17*
%TO.C,Q3*%
X224487500Y-139255671D03*
X224487500Y-141155671D03*
X222612500Y-140205671D03*
%TD*%
D20*
%TO.C,R19*%
X84160000Y-84838171D03*
X84160000Y-83013171D03*
%TD*%
D21*
%TO.C,R35*%
X49302500Y-130662290D03*
X47477500Y-130662290D03*
%TD*%
D20*
%TO.C,R32*%
X81600000Y-84838171D03*
X81600000Y-83013171D03*
%TD*%
D21*
%TO.C,R37*%
X49302500Y-100905671D03*
X47477500Y-100905671D03*
%TD*%
D22*
%TO.C,C5*%
X224900000Y-145143171D03*
X224900000Y-143068171D03*
%TD*%
D20*
%TO.C,R30*%
X71460000Y-84838171D03*
X71460000Y-83013171D03*
%TD*%
D21*
%TO.C,R23*%
X49302500Y-98325671D03*
X47477500Y-98325671D03*
%TD*%
D23*
%TO.C,D30*%
X99790000Y-72098171D03*
X99790000Y-74198171D03*
%TD*%
D20*
%TO.C,R31*%
X76480000Y-84838171D03*
X76480000Y-83013171D03*
%TD*%
D24*
%TO.C,Q8*%
X175635000Y-106093171D03*
X173735000Y-106093171D03*
X174685000Y-104218171D03*
%TD*%
D25*
%TO.C,D29*%
X173560000Y-90685671D03*
X171460000Y-90685671D03*
%TD*%
D26*
%TO.C,SW3*%
X86690000Y-79928171D03*
X86690000Y-71028171D03*
X84150000Y-79928171D03*
X84150000Y-71028171D03*
X81610000Y-79928171D03*
X81610000Y-71028171D03*
%TD*%
D27*
%TO.C,SW6*%
X42900000Y-110415671D03*
X34000000Y-110415671D03*
X42900000Y-112955671D03*
X34000000Y-112955671D03*
X42900000Y-115495671D03*
X34000000Y-115495671D03*
X42900000Y-118035671D03*
X34000000Y-118035671D03*
X42900000Y-120575671D03*
X34000000Y-120575671D03*
X42900000Y-123115671D03*
X34000000Y-123115671D03*
%TD*%
D28*
%TO.C,U2*%
X263600000Y-163265671D03*
D29*
X263600000Y-158265671D03*
X263600000Y-153265671D03*
X263600000Y-148265671D03*
%TD*%
D30*
%TO.C,U4*%
X263237500Y-78263171D03*
X205237500Y-78263171D03*
X205237500Y-127263171D03*
%TD*%
D31*
%TO.C,C18*%
X94620000Y-118535671D03*
X94620000Y-116635671D03*
%TD*%
D20*
%TO.C,R78*%
X110852500Y-76470671D03*
X110852500Y-74645671D03*
%TD*%
D32*
%TO.C,U8*%
X178095000Y-98730671D03*
X176825000Y-98730671D03*
X175555000Y-98730671D03*
X174285000Y-98730671D03*
X174285000Y-93780671D03*
X175555000Y-93780671D03*
X176825000Y-93780671D03*
X178095000Y-93780671D03*
%TD*%
D21*
%TO.C,R36*%
X49302500Y-105985671D03*
X47477500Y-105985671D03*
%TD*%
D33*
%TO.C,J7*%
X202500000Y-136465671D03*
D34*
X202500000Y-142765671D03*
D35*
X197700000Y-139365671D03*
%TD*%
D23*
%TO.C,D31*%
X134490000Y-68455671D03*
X134490000Y-70555671D03*
%TD*%
D20*
%TO.C,R80*%
X117260000Y-69748171D03*
X117260000Y-67923171D03*
%TD*%
D13*
%TO.C,R82*%
X123690000Y-67913171D03*
X123690000Y-69738171D03*
%TD*%
D36*
%TO.C,F1*%
X247330000Y-182515671D03*
X240570000Y-182515671D03*
D37*
X233290000Y-182515671D03*
X226530000Y-182515671D03*
%TD*%
D21*
%TO.C,R2*%
X224522500Y-137065671D03*
X222697500Y-137065671D03*
%TD*%
%TO.C,R75*%
X175657500Y-108665671D03*
X173832500Y-108665671D03*
%TD*%
%TO.C,R22*%
X49302500Y-103565671D03*
X47477500Y-103565671D03*
%TD*%
D38*
%TO.C,U11*%
X126365000Y-72250671D03*
X126365000Y-70980671D03*
X126365000Y-69710671D03*
X126365000Y-68440671D03*
X131315000Y-68440671D03*
X131315000Y-69710671D03*
X131315000Y-70980671D03*
X131315000Y-72250671D03*
%TD*%
D21*
%TO.C,R34*%
X49302500Y-135585671D03*
X47477500Y-135585671D03*
%TD*%
D18*
%TO.C,U3*%
X206600000Y-68765671D03*
D19*
X206600000Y-71305671D03*
X209140000Y-68765671D03*
X209140000Y-71305671D03*
X211680000Y-68765671D03*
X211680000Y-71305671D03*
X214220000Y-68765671D03*
X214220000Y-71305671D03*
X216760000Y-68765671D03*
X216760000Y-71305671D03*
X219300000Y-68765671D03*
X219300000Y-71305671D03*
X221840000Y-68765671D03*
X221840000Y-71305671D03*
X224380000Y-68765671D03*
X224380000Y-71305671D03*
X226920000Y-68765671D03*
X226920000Y-71305671D03*
X229460000Y-68765671D03*
X229460000Y-71305671D03*
X232000000Y-68765671D03*
X232000000Y-71305671D03*
X234540000Y-68765671D03*
X234540000Y-71305671D03*
X237080000Y-68765671D03*
X237080000Y-71305671D03*
X239620000Y-68765671D03*
X239620000Y-71305671D03*
X242160000Y-68765671D03*
X242160000Y-71305671D03*
X244700000Y-68765671D03*
X244700000Y-71305671D03*
X247240000Y-68765671D03*
X247240000Y-71305671D03*
X249780000Y-68765671D03*
X249780000Y-71305671D03*
X252320000Y-68765671D03*
X252320000Y-71305671D03*
X254860000Y-68765671D03*
X254860000Y-71305671D03*
%TD*%
D21*
%TO.C,R42*%
X49302500Y-112995671D03*
X47477500Y-112995671D03*
%TD*%
%TO.C,R39*%
X49302500Y-90825671D03*
X47477500Y-90825671D03*
%TD*%
D20*
%TO.C,R86*%
X109110000Y-118398171D03*
X109110000Y-116573171D03*
%TD*%
D21*
%TO.C,R24*%
X49302500Y-93365671D03*
X47477500Y-93365671D03*
%TD*%
D20*
%TO.C,R18*%
X73990000Y-84838171D03*
X73990000Y-83013171D03*
%TD*%
D39*
%TO.C,C1*%
X231080000Y-170525671D03*
X239480000Y-170525671D03*
%TD*%
D21*
%TO.C,R38*%
X49302500Y-95935671D03*
X47477500Y-95935671D03*
%TD*%
D13*
%TO.C,R83*%
X105480000Y-98420671D03*
X105480000Y-100245671D03*
%TD*%
D40*
%TO.C,RJ1*%
X219892500Y-76465671D03*
X213967500Y-76465671D03*
%TD*%
D41*
%TO.C,U12*%
X94645000Y-103873171D03*
X95915000Y-103873171D03*
X97185000Y-103873171D03*
X98455000Y-103873171D03*
X99725000Y-103873171D03*
X100995000Y-103873171D03*
X102265000Y-103873171D03*
X103535000Y-103873171D03*
X104805000Y-103873171D03*
X106075000Y-103873171D03*
X107345000Y-103873171D03*
X108615000Y-103873171D03*
X108615000Y-113153171D03*
X107345000Y-113153171D03*
X106075000Y-113153171D03*
X104805000Y-113153171D03*
X103535000Y-113153171D03*
X102265000Y-113153171D03*
X100995000Y-113153171D03*
X99725000Y-113153171D03*
X98455000Y-113153171D03*
X97185000Y-113153171D03*
X95915000Y-113153171D03*
X94645000Y-113153171D03*
%TD*%
D42*
%TO.C,Q1*%
X242500000Y-191765671D03*
D43*
X239960000Y-191765671D03*
X237420000Y-191765671D03*
%TD*%
D20*
%TO.C,R28*%
X61230000Y-84838171D03*
X61230000Y-83013171D03*
%TD*%
D44*
%TO.C,U9*%
X108067500Y-72108171D03*
X108067500Y-73378171D03*
X108067500Y-74648171D03*
X108067500Y-75918171D03*
X103117500Y-75918171D03*
X103117500Y-74648171D03*
X103117500Y-73378171D03*
X103117500Y-72108171D03*
%TD*%
D31*
%TO.C,C13*%
X54710000Y-118835671D03*
X54710000Y-116935671D03*
%TD*%
D20*
%TO.C,R29*%
X66320000Y-84838171D03*
X66320000Y-83013171D03*
%TD*%
D45*
%TO.C,SW4*%
X42900000Y-127985671D03*
X34000000Y-127985671D03*
X42900000Y-130525671D03*
X34000000Y-130525671D03*
X42900000Y-133065671D03*
X34000000Y-133065671D03*
X42900000Y-135605671D03*
X34000000Y-135605671D03*
%TD*%
D20*
%TO.C,R50*%
X65600000Y-100498171D03*
X65600000Y-98673171D03*
%TD*%
D26*
%TO.C,SW2*%
X76510000Y-79958171D03*
X76510000Y-71058171D03*
X73970000Y-79958171D03*
X73970000Y-71058171D03*
X71430000Y-79958171D03*
X71430000Y-71058171D03*
X68890000Y-79958171D03*
X68890000Y-71058171D03*
X66350000Y-79958171D03*
X66350000Y-71058171D03*
X63810000Y-79958171D03*
X63810000Y-71058171D03*
X61270000Y-79958171D03*
X61270000Y-71058171D03*
%TD*%
D13*
%TO.C,R48*%
X67210000Y-117073171D03*
X67210000Y-118898171D03*
%TD*%
D46*
%TO.C,J2*%
X216500000Y-156265671D03*
X216500000Y-156165671D03*
X216500000Y-156115671D03*
X216500000Y-156015671D03*
X216500000Y-155815671D03*
X216500000Y-155715671D03*
X216500000Y-155665671D03*
X216500000Y-155565671D03*
X216500000Y-152465671D03*
X216500000Y-152365671D03*
X216500000Y-152315671D03*
X216500000Y-152215671D03*
X216500000Y-152015671D03*
X216500000Y-151915671D03*
X216500000Y-151865671D03*
X216500000Y-151765671D03*
X207860000Y-156265671D03*
X207860000Y-156165671D03*
X207860000Y-156115671D03*
X207860000Y-156015671D03*
X207860000Y-155815671D03*
X207860000Y-155715671D03*
X207860000Y-155665671D03*
X207860000Y-155615671D03*
X207860000Y-152465671D03*
X207860000Y-152415671D03*
X207860000Y-152315671D03*
X207860000Y-152015671D03*
X207860000Y-151915671D03*
X207860000Y-151865671D03*
X207860000Y-151765671D03*
D47*
X212680000Y-151565671D03*
D48*
X210660000Y-151565671D03*
D49*
X209430000Y-151565671D03*
D47*
X211680000Y-151565671D03*
D48*
X213700000Y-151565671D03*
D49*
X214930000Y-151565671D03*
D50*
X216480000Y-155915671D03*
X207880000Y-155915671D03*
X207880000Y-152115671D03*
X216500000Y-152115671D03*
%TD*%
D21*
%TO.C,R25*%
X49302500Y-120575671D03*
X47477500Y-120575671D03*
%TD*%
D44*
%TO.C,U10*%
X220456250Y-128555671D03*
X220456250Y-129825671D03*
X220456250Y-131095671D03*
X220456250Y-132365671D03*
X215506250Y-132365671D03*
X215506250Y-131095671D03*
X215506250Y-129825671D03*
X215506250Y-128555671D03*
%TD*%
D21*
%TO.C,R20*%
X49302500Y-133268909D03*
X47477500Y-133268909D03*
%TD*%
D51*
%TO.C,Q11*%
X119552500Y-69735671D03*
X119552500Y-67835671D03*
X121427500Y-68785671D03*
%TD*%
D20*
%TO.C,R79*%
X223401250Y-132878171D03*
X223401250Y-131053171D03*
%TD*%
D25*
%TO.C,E3*%
X210660000Y-148055671D03*
X208560000Y-148055671D03*
%TD*%
D41*
%TO.C,U13*%
X54705000Y-103963171D03*
X55975000Y-103963171D03*
X57245000Y-103963171D03*
X58515000Y-103963171D03*
X59785000Y-103963171D03*
X61055000Y-103963171D03*
X62325000Y-103963171D03*
X63595000Y-103963171D03*
X64865000Y-103963171D03*
X66135000Y-103963171D03*
X67405000Y-103963171D03*
X68675000Y-103963171D03*
X68675000Y-113243171D03*
X67405000Y-113243171D03*
X66135000Y-113243171D03*
X64865000Y-113243171D03*
X63595000Y-113243171D03*
X62325000Y-113243171D03*
X61055000Y-113243171D03*
X59785000Y-113243171D03*
X58515000Y-113243171D03*
X57245000Y-113243171D03*
X55975000Y-113243171D03*
X54705000Y-113243171D03*
%TD*%
D21*
%TO.C,R26*%
X49302500Y-115485671D03*
X47477500Y-115485671D03*
%TD*%
D20*
%TO.C,R17*%
X68890000Y-84838171D03*
X68890000Y-83013171D03*
%TD*%
%TO.C,R85*%
X106970000Y-118388171D03*
X106970000Y-116563171D03*
%TD*%
D52*
%TO.C,C4*%
X231630000Y-146335671D03*
X231630000Y-138335671D03*
%TD*%
D10*
%TO.C,J4*%
X73949320Y-110538019D03*
X89133849Y-113119451D03*
X73949320Y-120307866D03*
X89133849Y-110705332D03*
X73949320Y-115422942D03*
X89133849Y-115533570D03*
X89133849Y-117947689D03*
X89133849Y-120361808D03*
X73949320Y-117865404D03*
X73949320Y-112980481D03*
%TD*%
D20*
%TO.C,R16*%
X63750000Y-84838171D03*
X63750000Y-83013171D03*
%TD*%
D53*
%TO.C,J1*%
X263500000Y-170765671D03*
D54*
X263500000Y-180765671D03*
%TD*%
D21*
%TO.C,R3*%
X256522500Y-169215671D03*
X254697500Y-169215671D03*
%TD*%
%TO.C,R27*%
X49302500Y-110455671D03*
X47477500Y-110455671D03*
%TD*%
D17*
%TO.C,Q10*%
X227817500Y-131163171D03*
X227817500Y-133063171D03*
X225942500Y-132113171D03*
%TD*%
D20*
%TO.C,R49*%
X67830000Y-100488171D03*
X67830000Y-98663171D03*
%TD*%
D21*
%TO.C,R21*%
X49302500Y-128055671D03*
X47477500Y-128055671D03*
%TD*%
D27*
%TO.C,SW5*%
X42900000Y-90765671D03*
X34000000Y-90765671D03*
X42900000Y-93305671D03*
X34000000Y-93305671D03*
X42900000Y-95845671D03*
X34000000Y-95845671D03*
X42900000Y-98385671D03*
X34000000Y-98385671D03*
X42900000Y-100925671D03*
X34000000Y-100925671D03*
X42900000Y-103465671D03*
X34000000Y-103465671D03*
X42900000Y-106005671D03*
X34000000Y-106005671D03*
%TD*%
D21*
%TO.C,R41*%
X49302500Y-118045671D03*
X47477500Y-118045671D03*
%TD*%
%TO.C,R40*%
X49302500Y-123105671D03*
X47477500Y-123105671D03*
%TD*%
M02*
