M48
; DRILL file {KiCad 9.0.2} date 2025-06-06T12:18:48-0500
; FORMAT={-:-/ absolute / inch / decimal}
; #@! TF.CreationDate,2025-06-06T12:18:48-05:00
; #@! TF.GenerationSoftware,Kicad,Pcbnew,9.0.2
; #@! TF.FileFunction,Plated,1,2,PTH
FMAT,2
INCH
; #@! TA.AperFunction,Plated,PTH,ViaDrill
T1C0.0118
; #@! TA.AperFunction,Plated,PTH,ComponentDrill
T2C0.0197
; #@! TA.AperFunction,Plated,PTH,ComponentDrill
T3C0.0394
; #@! TA.AperFunction,Plated,PTH,ComponentDrill
T4C0.0402
; #@! TA.AperFunction,Plated,PTH,ComponentDrill
T5C0.0433
; #@! TA.AperFunction,Plated,PTH,ComponentDrill
T6C0.0591
; #@! TA.AperFunction,Plated,PTH,ComponentDrill
T7C0.0787
; #@! TA.AperFunction,Plated,PTH,ComponentDrill
T8C0.1083
; #@! TA.AperFunction,Plated,PTH,ComponentDrill
T9C0.2520
%
G90
G05
T1
X-2.8543Y0.9226
X-2.8425Y0.8439
X-2.6575Y-3.8372
X-2.4843Y-0.9672
X-2.4606Y0.7258
X-2.4291Y1.3793
X-2.3425Y-0.601
X-2.3228Y-3.79
X-2.3031Y0.1273
X-2.2598Y-3.0301
X-2.1929Y-2.6916
X-2.185Y1.3832
X-2.185Y-0.2939
X-2.1693Y-1.0341
X-2.1662Y-0.1286
X-2.0866Y-0.1876
X-2.0827Y-0.3805
X-2.0669Y-0.042
X-2.0197Y-0.4396
X-2.0079Y-0.6798
X-1.9921Y-0.0459
X-1.9488Y0.4029
X-1.9291Y-0.0105
X-1.9291Y-0.3451
X-1.9252Y-1.6286
X-1.8701Y0.3439
X-1.8543Y-0.416
X-1.8504Y-0.0105
X-1.8346Y-2.1561
X-1.8228Y-1.7191
X-1.811Y0.4226
X-1.811Y-0.7782
X-1.8031Y-0.3609
X-1.7913Y-0.0183
X-1.7362Y-0.3097
X-1.7323Y-0.0498
X-1.6535Y0.4029
X-1.6535Y-0.8766
X-1.6457Y-2.7939
X-1.6339Y-0.0498
X-1.6339Y-0.3372
X-1.6142Y0.521
X-1.5945Y-0.0498
X-1.5748Y-1.2861
X-1.5472Y-0.4317
X-1.5354Y0.0092
X-1.5354Y-0.0498
X-1.517Y0.2611
X-1.4696Y0.2611
X-1.4528Y-0.3372
X-1.4409Y-1.4081
X-1.4173Y0.5014
X-1.3465Y0.3163
X-1.3307Y-0.4357
X-1.3189Y-0.6994
X-1.2835Y-1.5183
X-1.2402Y-0.7585
X-1.1811Y-3.3805
X-1.126Y0.4108
X-1.0827Y-1.5065
X-1.063Y-0.7388
X-1.0236Y-0.6798
X-1.0197Y0.3124
X-1.0157Y1.3951
X-0.9449Y-3.4081
X-0.937Y0.4069
X-0.9213Y-3.8412
X-0.9055Y-0.0892
X-0.878Y-1.0853
X-0.8661Y0.3124
X-0.8661Y-0.8766
X-0.8346Y-1.1286
X-0.8071Y-0.0735
X-0.7874Y0.2888
X-0.7874Y0.2414
X-0.7874Y-1.2152
X-0.7874Y-2.0813
X-0.7559Y-0.0853
X-0.752Y-3.3923
X-0.7402Y0.4069
X-0.7126Y-0.4396
X-0.7087Y-0.7191
X-0.6929Y-1.2546
X-0.689Y-0.6601
X-0.6299Y-1.5656
X-0.5945Y-3.3963
X-0.563Y-0.3372
X-0.5591Y0.2297
X-0.5079Y-0.4357
X-0.4921Y-1.6443
X-0.4724Y-0.3412
X-0.4646Y-1.1679
X-0.4528Y-0.6798
X-0.4528Y-1.0144
X-0.4488Y-1.2467
X-0.4488Y-3.4199
X-0.4331Y-0.8766
X-0.4134Y-0.975
X-0.3937Y-0.8766
X-0.3937Y-1.0144
X-0.3819Y-1.164
X-0.374Y-0.3923
X-0.374Y-1.2506
X-0.3346Y-0.3845
X-0.2776Y0.3242
X-0.2559Y-0.3451
X-0.252Y-1.0892
X-0.2441Y-1.475
X-0.2402Y-1.3609
X-0.2244Y0.2258
X-0.2165Y-0.4238
X-0.1969Y-0.4626
X-0.1575Y-1.664
X-0.1575Y-1.9986
X-0.1418Y0.0274
X-0.1299Y-0.975
X-0.122Y-1.4986
X-0.1142Y-0.3766
X-0.1142Y-1.3018
X-0.0984Y-1.6443
X-0.0984Y-1.9986
X-0.0827Y0.3714
X-0.0591Y-1.5223
X-0.0551Y-0.4317
X-0.0236Y-0.8648
X-0.0157Y0.0525
X0.0197Y0.2061
X0.0276Y-1.2664
X0.0315Y-0.3175
X0.0394Y0.0054
X0.0591Y-1.0577
X0.0787Y-0.4238
X0.1063Y-3.601
X0.1181Y0.0092
X0.1181Y-3.412
X0.1457Y-2.4829
X0.1732Y-1.0695
X0.1732Y-1.3215
X0.2165Y0.0683
X0.2165Y0.0141
X0.2362Y-1.7152
X0.2559Y-0.5026
X0.2677Y0.3478
X0.2756Y-0.3648
X0.3346Y-0.3057
X0.3661Y0.0328
X0.3937Y0.3636
X0.4094Y0.1313
X0.4409Y0.2612
X0.4606Y-3.601
X0.4843Y0.0328
X0.5512Y-0.9711
X0.5669Y-1.6128
X0.6299Y-0.3254
X0.6339Y0.1273
X0.6339Y0.0328
X0.6378Y0.3242
X0.7126Y-0.7349
X0.7677Y0.1273
X0.7677Y0.0289
X0.7795Y-0.9396
X0.8346Y-2.227
X0.8543Y0.1313
X0.8819Y0.0368
X1.0276Y-0.8333
X1.0591Y-2.975
X1.126Y0.1234
X1.1339Y0.3439
X1.1496Y-1.0183
X1.1654Y-0.8766
X1.189Y0.0328
X1.2323Y-2.1955
X1.2402Y-2.9711
X1.248Y-0.6994
X1.2677Y0.3399
X1.378Y0.0407
X1.4094Y-0.5656
X1.4331Y0.1273
X1.4764Y-0.1679
X1.4882Y-0.6522
X1.5748Y-0.0105
X1.622Y0.3675
X1.6378Y-0.3333
X1.6457Y-0.1561
X1.6535Y0.1182
X1.6654Y0.3281
X1.6785Y0.0236
X1.689Y1.3911
X1.7087Y-0.6679
X1.7126Y0.147
X1.7638Y-1.5459
X1.811Y0.147
X1.8543Y0.0368
X1.8701Y-0.164
X1.937Y-0.6798
X2.0039Y-2.8766
X2.0157Y-0.3294
X2.063Y-0.6798
X2.1181Y-2.8766
X2.2008Y-0.4829
X2.2047Y-0.1719
X2.2598Y-0.5459
X2.2638Y-2.1404
X2.3071Y-1.0105
X2.3228Y-0.849
X2.3622Y0.0407
X2.3976Y-0.1601
X2.4646Y-1.5301
X2.4803Y0.2927
X2.4803Y0.1418
X2.4803Y-0.0351
X2.5383Y-0.0655
X2.5394Y0.0486
X2.5591Y0.2651
X2.6181Y1.3872
X2.6339Y0.0486
X2.6378Y0.2061
X2.6378Y-0.0351
X2.6693Y0.3045
X2.6772Y-0.0695
X2.6772Y-0.3254
X2.6929Y-0.5183
X2.7165Y-0.3254
X2.7244Y-0.1719
X2.7953Y0.7179
X2.8425Y-0.042
X2.8425Y-0.1679
X2.8661Y-1.0262
X2.8937Y0.1273
X2.9173Y-0.5065
X2.9213Y0.2927
X2.9528Y0.1273
X2.9882Y0.3163
X2.9961Y-0.042
X3.1496Y0.1077
X3.189Y0.088
X3.2008Y-0.479
X3.2283Y0.0132
X3.2835Y0.2139
X3.2865Y-0.0292
X3.315Y0.3202
X3.3189Y-0.1955
X3.3425Y0.1116
X3.3465Y0.0486
X3.3661Y-0.2349
X3.3858Y0.3242
X3.3858Y-0.0301
X3.4252Y0.1273
X3.4252Y0.0092
X3.4646Y-0.4711
X3.5827Y0.1273
X3.5866Y-0.2585
X3.6142Y-0.0065
X3.6732Y-1.6089
X3.6969Y-0.2664
X3.7402Y1.0014
X3.7598Y0.0092
X3.7717Y0.151
X3.8386Y0.3281
X3.8858Y-0.2703
X3.9409Y0.0053
X3.9764Y0.3281
X3.9882Y0.151
X4.0079Y-0.5538
X4.0157Y0.7769
X4.0354Y-2.2152
X4.0472Y0.5407
X4.1142Y0.7769
X4.1142Y0.6982
X4.1339Y0.5368
X4.1378Y-2.1404
X4.1575Y-1.4908
X4.1693Y0.0014
X4.1772Y-0.475
X4.1969Y0.6667
X4.1969Y-0.3215
X4.2323Y0.7769
X4.248Y1.2651
X4.252Y0.6982
X4.2874Y-2.1522
X4.3075Y0.0127
X4.311Y0.6982
X4.3228Y0.5604
X4.3307Y-1.9002
X4.4094Y0.6903
X4.4331Y-2.1561
X4.4882Y0.147
X4.5197Y-0.4986
X4.5276Y-2.2742
X4.626Y-1.5656
X4.6614Y-0.4002
X4.685Y-2.6089
X4.6929Y0.8714
X4.6969Y0.1864
X4.7559Y-2.5498
X4.7559Y-2.7073
X4.7638Y-2.7821
X4.7795Y-0.6561
X4.8188Y0.143
X4.8228Y-3.916
X4.8307Y-2.8057
X4.8346Y-2.6246
X4.8622Y0.1864
X4.8622Y-3.9672
X4.8762Y0.1582
X4.8898Y-0.538
X4.8898Y-3.3648
X4.9016Y-2.3333
X4.9252Y-3.9908
X4.9409Y-1.9435
X4.9528Y0.7691
X4.9606Y-0.916
X4.9882Y-3.3136
X4.9882Y-3.7073
X5.0079Y-0.7467
X5.0157Y-0.6837
X5.0197Y0.6382
X5.0197Y0.1864
X5.0276Y-2.479
X5.0472Y0.3202
X5.0669Y-3.7034
X5.0748Y0.521
X5.1024Y-1.5538
X5.1339Y1.3832
X5.1418Y-0.1522
X5.1575Y0.6273
X5.185Y-4.0144
X5.2165Y0.0092
X5.2165Y-3.29
X5.2638Y-3.29
X5.2795Y-1.7231
X5.374Y-0.349
X5.3937Y-0.3845
X5.4016Y-3.9672
X5.4134Y-0.3451
X5.4331Y-0.1483
X5.4488Y-3.9711
X5.4528Y-0.1679
X5.5039Y-3.6955
X5.5079Y-3.4081
X5.5118Y-3.4435
X5.5157Y-3.7703
X5.5472Y0.2691
X5.5512Y-0.6404
X5.5512Y-2.0459
X5.5512Y-2.2231
X5.5512Y-3.2191
X5.6024Y1.3911
X5.6102Y-3.0813
X5.6417Y0.584
X5.6535Y0.8006
X5.6693Y-0.1483
X5.7087Y-0.1876
X5.7087Y-1.0341
X5.7283Y0.2651
X5.7559Y0.025
X5.8071Y-3.2191
X5.9055Y0.0171
X5.9449Y1.2494
X5.9646Y-0.1679
X5.9843Y1.151
X6.0039Y-0.1483
X6.0433Y-0.1679
X6.1024Y1.1903
X6.1024Y-3.2979
X6.1614Y-0.601
X6.1811Y0.4423
X6.2598Y0.3832
X6.2795Y0.5014
X6.3386Y-0.601
X6.3386Y-0.7979
T2
X0.6634Y-0.6246
X0.8031Y-0.6246
X4.3898Y-0.5813
X5.4921Y-2.727
X5.6102Y-2.9829
X5.6496Y-3.8884
X5.7874Y-3.9868
X6.2992Y-2.5892
T3
X-1.9984Y-0.1467
X-1.9984Y-0.2467
X-1.8984Y-0.1467
X-1.8984Y-0.2467
X-1.7984Y-0.1467
X-1.7984Y-0.2467
X-1.6984Y-0.1467
X-1.6984Y-0.2467
X-1.5984Y-0.1467
X-1.5984Y-0.2467
X-1.4984Y-0.1467
X-1.4984Y-0.2467
X-1.3984Y-0.1467
X-1.3984Y-0.2467
X-1.2984Y-0.1467
X-1.2984Y-0.2467
X-1.1984Y-0.1467
X-1.1984Y-0.2467
X-1.0984Y-0.1467
X-1.0984Y-0.2467
X-0.9984Y-0.1467
X-0.9984Y-0.2467
X-0.8984Y-0.1467
X-0.8984Y-0.2467
X-0.7984Y-0.1467
X-0.7984Y-0.2467
X-0.6984Y-0.1467
X-0.6984Y-0.2467
X-0.5984Y-0.1467
X-0.5984Y-0.2467
X-0.4984Y-0.1467
X-0.4984Y-0.2467
X-0.3984Y-0.1467
X-0.3984Y-0.2467
X-0.2984Y-0.1467
X-0.2984Y-0.2467
X-0.1984Y-0.1467
X-0.1984Y-0.2467
X-0.0984Y-0.1467
X-0.0984Y-0.2467
T4
X3.363Y-0.5931
X3.463Y-0.5931
X3.563Y-0.5931
X3.663Y-0.5931
X3.763Y-0.5931
T5
X-1.9933Y0.1491
X-1.9933Y0.0491
X-1.8933Y0.1491
X-1.8933Y0.0491
X-1.7933Y0.1491
X-1.7933Y0.0491
X-1.6933Y0.1491
X-1.6933Y0.0491
X-1.5933Y0.1491
X-1.5933Y0.0491
X-1.4933Y0.1491
X-1.4933Y0.0491
X-1.3933Y0.1491
X-1.3933Y0.0491
X-1.2933Y0.1491
X-1.2933Y0.0491
X-1.1933Y0.1491
X-1.1933Y0.0491
X-1.0933Y0.1491
X-1.0933Y0.0491
X-0.9933Y0.1491
X-0.9933Y0.0491
X-0.8933Y0.1491
X-0.8933Y0.0491
X-0.7933Y0.1491
X-0.7933Y0.0491
X-0.6933Y0.1491
X-0.6933Y0.0491
X-0.5933Y0.1491
X-0.5933Y0.0491
X-0.4933Y0.1491
X-0.4933Y0.0491
X-0.3933Y0.1491
X-0.3933Y0.0491
X-0.2933Y0.1491
X-0.2933Y0.0491
X-0.1933Y0.1491
X-0.1933Y0.0491
X-0.0984Y1.2616
X-0.0984Y1.1616
X-0.0984Y1.0616
X-0.0984Y0.9616
X-0.0933Y0.1491
X-0.0933Y0.0491
X3.413Y-0.9573
X3.513Y-0.9573
X3.6024Y1.2616
X3.6024Y1.1616
X3.6024Y1.0616
X3.6024Y0.9616
X3.613Y-0.9573
X3.713Y-0.9573
X5.689Y1.2616
X5.689Y1.1616
X5.689Y1.0616
X5.689Y0.9616
T6
X5.0669Y-3.5601
X5.0669Y-3.8601
X5.2669Y-3.5601
X5.2669Y-3.8601
X5.7858Y-0.2935
X5.7858Y-0.5935
X5.9315Y-1.564
X5.9315Y-1.764
X5.9315Y-2.1152
X5.9315Y-2.3152
X5.9858Y-0.2935
X5.9858Y-0.5935
X6.2315Y-1.564
X6.2315Y-1.764
X6.2315Y-2.1152
X6.2315Y-2.3152
T7
X-2.0669Y1.151
X1.6339Y1.151
X3.7205Y1.151
T8
X-2.1654Y0.9344
X-2.1654Y0.3439
X0.0984Y0.9344
X0.0984Y0.3439
T9
X-2.5591Y1.0525
X-2.5394Y-1.3687
X-2.5Y-3.4553
X1.2402Y1.1116
X6.0236Y-3.6325
X6.1024Y0.7966
M30
