%TF.GenerationSoftware,KiCad,Pcbnew,9.0.2*%
%TF.CreationDate,2025-06-06T13:34:07-05:00*%
%TF.ProjectId,MothBox,4d6f7468-426f-4782-9e6b-696361645f70,5.0.0*%
%TF.SameCoordinates,Original*%
%TF.FileFunction,Soldermask,Top*%
%TF.FilePolarity,Negative*%
%FSLAX46Y46*%
G04 Gerber Fmt 4.6, Leading zero omitted, Abs format (unit mm)*
G04 Created by KiCad (PCBNEW 9.0.2) date 2025-06-06 13:34:07*
%MOMM*%
%LPD*%
G01*
G04 APERTURE LIST*
G04 Aperture macros list*
%AMRoundRect*
0 Rectangle with rounded corners*
0 $1 Rounding radius*
0 $2 $3 $4 $5 $6 $7 $8 $9 X,Y pos of 4 corners*
0 Add a 4 corners polygon primitive as box body*
4,1,4,$2,$3,$4,$5,$6,$7,$8,$9,$2,$3,0*
0 Add four circle primitives for the rounded corners*
1,1,$1+$1,$2,$3*
1,1,$1+$1,$4,$5*
1,1,$1+$1,$6,$7*
1,1,$1+$1,$8,$9*
0 Add four rect primitives between the rounded corners*
20,1,$1+$1,$2,$3,$4,$5,0*
20,1,$1+$1,$4,$5,$6,$7,0*
20,1,$1+$1,$6,$7,$8,$9,0*
20,1,$1+$1,$8,$9,$2,$3,0*%
G04 Aperture macros list end*
%ADD10O,1.950000X0.570000*%
%ADD11R,1.270000X2.540000*%
%ADD12R,5.400000X6.100000*%
%ADD13R,2.540000X1.270000*%
%ADD14R,6.100000X5.400000*%
%ADD15C,1.000000*%
%ADD16C,4.204000*%
%ADD17C,12.800000*%
%ADD18R,1.800000X1.800000*%
%ADD19C,1.800000*%
%ADD20C,2.500000*%
%ADD21R,2.200000X2.200000*%
%ADD22R,2.200000X1.250000*%
%ADD23R,1.130000X1.380000*%
%ADD24R,1.250000X2.200000*%
%ADD25R,1.380000X1.130000*%
%ADD26R,1.700000X1.700000*%
%ADD27C,1.700000*%
%ADD28C,2.300000*%
%ADD29RoundRect,0.150000X0.150000X-0.587500X0.150000X0.587500X-0.150000X0.587500X-0.150000X-0.587500X0*%
%ADD30RoundRect,0.250000X-0.450000X0.262500X-0.450000X-0.262500X0.450000X-0.262500X0.450000X0.262500X0*%
%ADD31RoundRect,0.250000X-0.262500X-0.450000X0.262500X-0.450000X0.262500X0.450000X-0.262500X0.450000X0*%
%ADD32RoundRect,0.150000X-0.150000X0.587500X-0.150000X-0.587500X0.150000X-0.587500X0.150000X0.587500X0*%
%ADD33RoundRect,0.250000X0.262500X0.450000X-0.262500X0.450000X-0.262500X-0.450000X0.262500X-0.450000X0*%
%ADD34RoundRect,0.112500X0.187500X0.112500X-0.187500X0.112500X-0.187500X-0.112500X0.187500X-0.112500X0*%
%ADD35RoundRect,0.112500X-0.187500X-0.112500X0.187500X-0.112500X0.187500X0.112500X-0.187500X0.112500X0*%
%ADD36R,1.570000X1.570000*%
%ADD37C,1.570000*%
%ADD38RoundRect,0.250000X0.450000X-0.262500X0.450000X0.262500X-0.450000X0.262500X-0.450000X-0.262500X0*%
%ADD39RoundRect,0.150000X0.587500X0.150000X-0.587500X0.150000X-0.587500X-0.150000X0.587500X-0.150000X0*%
G04 APERTURE END LIST*
D10*
%TO.C,U12*%
X7210000Y29824329D03*
X7210000Y31104329D03*
X7210000Y32364329D03*
X7210000Y33634329D03*
X1790000Y29824329D03*
X1790000Y31104329D03*
X1790000Y32364329D03*
X1790000Y33634329D03*
%TD*%
%TO.C,U11*%
X103710000Y30324329D03*
X103710000Y31604329D03*
X103710000Y32864329D03*
X103710000Y34134329D03*
X98290000Y30324329D03*
X98290000Y31604329D03*
X98290000Y32864329D03*
X98290000Y34134329D03*
%TD*%
%TO.C,U10*%
X147790000Y7644329D03*
X147790000Y6364329D03*
X147790000Y5104329D03*
X147790000Y3834329D03*
X153210000Y7644329D03*
X153210000Y6364329D03*
X153210000Y5104329D03*
X153210000Y3834329D03*
%TD*%
D11*
%TO.C,Q7*%
X130515000Y-15505671D03*
D12*
X132805000Y-8005671D03*
D11*
X135095000Y-15495671D03*
%TD*%
D13*
%TO.C,Q5*%
X-24660000Y-27803171D03*
D14*
X-32160000Y-25513171D03*
D13*
X-24670000Y-23223171D03*
%TD*%
D15*
%TO.C,TP8*%
X20400000Y-15865671D03*
%TD*%
%TO.C,TP7*%
X16850000Y-15865671D03*
%TD*%
D16*
%TO.C,U18*%
X-55000000Y8734329D03*
X2500000Y8734329D03*
X-55000000Y23734329D03*
X2500000Y23734329D03*
%TD*%
D17*
%TO.C,H8*%
X-64500000Y-34765671D03*
%TD*%
%TO.C,H6*%
X-63500000Y-87765671D03*
%TD*%
%TO.C,H5*%
X153000000Y-92265671D03*
%TD*%
%TO.C,H3*%
X155000000Y20234329D03*
%TD*%
%TO.C,H2*%
X31500000Y28234329D03*
%TD*%
%TO.C,H1*%
X-65000000Y26734329D03*
%TD*%
D18*
%TO.C,A3*%
X-2500000Y32044329D03*
D19*
X-2500000Y29504329D03*
X-2500000Y26964329D03*
X-2500000Y24424329D03*
D20*
X-52500000Y29234329D03*
%TD*%
D18*
%TO.C,A2*%
X144500000Y32044329D03*
D19*
X144500000Y29504329D03*
X144500000Y26964329D03*
X144500000Y24424329D03*
D20*
X94500000Y29234329D03*
%TD*%
D18*
%TO.C,A1*%
X91500000Y32044329D03*
D19*
X91500000Y29504329D03*
X91500000Y26964329D03*
X91500000Y24424329D03*
D20*
X41500000Y29234329D03*
%TD*%
D21*
%TO.C,LED11*%
X133000000Y9374329D03*
D22*
X133000000Y7094329D03*
%TD*%
D15*
%TO.C,TP6*%
X160000000Y-65765671D03*
%TD*%
%TO.C,TP5*%
X111500000Y-14765671D03*
%TD*%
D23*
%TO.C,R53*%
X-65120000Y-18895671D03*
X-67120000Y-18895671D03*
%TD*%
D21*
%TO.C,LED47*%
X-64860000Y-16265671D03*
D24*
X-67140000Y-16265671D03*
%TD*%
D21*
%TO.C,LED48*%
X-67260000Y-2395671D03*
D24*
X-64980000Y-2395671D03*
%TD*%
D21*
%TO.C,LED49*%
X-65480000Y9234329D03*
D24*
X-67760000Y9234329D03*
%TD*%
D21*
%TO.C,LED14*%
X46000000Y8874329D03*
D22*
X46000000Y6594329D03*
%TD*%
D23*
%TO.C,R3*%
X92000000Y-33265671D03*
X94000000Y-33265671D03*
%TD*%
D21*
%TO.C,LED8*%
X91000000Y-49405671D03*
D22*
X91000000Y-47125671D03*
%TD*%
D21*
%TO.C,LED7*%
X71500000Y-36905671D03*
D22*
X71500000Y-34625671D03*
%TD*%
D21*
%TO.C,LED6*%
X107500000Y-32905671D03*
D22*
X107500000Y-30625671D03*
%TD*%
D21*
%TO.C,LED10*%
X125500000Y-2625671D03*
D22*
X125500000Y-4905671D03*
%TD*%
D25*
%TO.C,R6*%
X109000000Y-5765671D03*
X109000000Y-3765671D03*
%TD*%
D21*
%TO.C,LED9*%
X111450000Y-5905671D03*
D22*
X111450000Y-3625671D03*
%TD*%
D21*
%TO.C,LED15*%
X80640000Y8734329D03*
D24*
X78360000Y8734329D03*
%TD*%
D21*
%TO.C,LED13*%
X22500000Y7094329D03*
D22*
X22500000Y9374329D03*
%TD*%
D25*
%TO.C,R7*%
X20000000Y6734329D03*
X20000000Y8734329D03*
%TD*%
D26*
%TO.C,U5*%
X-2500000Y-6265671D03*
D27*
X-2500000Y-3725671D03*
X-5040000Y-6265671D03*
X-5040000Y-3725671D03*
X-7580000Y-6265671D03*
X-7580000Y-3725671D03*
X-10120000Y-6265671D03*
X-10120000Y-3725671D03*
X-12660000Y-6265671D03*
X-12660000Y-3725671D03*
X-15200000Y-6265671D03*
X-15200000Y-3725671D03*
X-17740000Y-6265671D03*
X-17740000Y-3725671D03*
X-20280000Y-6265671D03*
X-20280000Y-3725671D03*
X-22820000Y-6265671D03*
X-22820000Y-3725671D03*
X-25360000Y-6265671D03*
X-25360000Y-3725671D03*
X-27900000Y-6265671D03*
X-27900000Y-3725671D03*
X-30440000Y-6265671D03*
X-30440000Y-3725671D03*
X-32980000Y-6265671D03*
X-32980000Y-3725671D03*
X-35520000Y-6265671D03*
X-35520000Y-3725671D03*
X-38060000Y-6265671D03*
X-38060000Y-3725671D03*
X-40600000Y-6265671D03*
X-40600000Y-3725671D03*
X-43140000Y-6265671D03*
X-43140000Y-3725671D03*
X-45680000Y-6265671D03*
X-45680000Y-3725671D03*
X-48220000Y-6265671D03*
X-48220000Y-3725671D03*
X-50760000Y-6265671D03*
X-50760000Y-3725671D03*
%TD*%
D26*
%TO.C,U16*%
X-50630000Y3786829D03*
D27*
X-50630000Y1246829D03*
X-48090000Y3786829D03*
X-48090000Y1246829D03*
X-45550000Y3786829D03*
X-45550000Y1246829D03*
X-43010000Y3786829D03*
X-43010000Y1246829D03*
X-40470000Y3786829D03*
X-40470000Y1246829D03*
X-37930000Y3786829D03*
X-37930000Y1246829D03*
X-35390000Y3786829D03*
X-35390000Y1246829D03*
X-32850000Y3786829D03*
X-32850000Y1246829D03*
X-30310000Y3786829D03*
X-30310000Y1246829D03*
X-27770000Y3786829D03*
X-27770000Y1246829D03*
X-25230000Y3786829D03*
X-25230000Y1246829D03*
X-22690000Y3786829D03*
X-22690000Y1246829D03*
X-20150000Y3786829D03*
X-20150000Y1246829D03*
X-17610000Y3786829D03*
X-17610000Y1246829D03*
X-15070000Y3786829D03*
X-15070000Y1246829D03*
X-12530000Y3786829D03*
X-12530000Y1246829D03*
X-9990000Y3786829D03*
X-9990000Y1246829D03*
X-7450000Y3786829D03*
X-7450000Y1246829D03*
X-4910000Y3786829D03*
X-4910000Y1246829D03*
X-2370000Y3786829D03*
X-2370000Y1246829D03*
%TD*%
D28*
%TO.C,P2*%
X158280000Y-44805671D03*
X150660000Y-44805671D03*
X158280000Y-39725671D03*
X150660000Y-39725671D03*
%TD*%
%TO.C,P3*%
X158280000Y-58805671D03*
X150660000Y-58805671D03*
X158280000Y-53725671D03*
X150660000Y-53725671D03*
%TD*%
%TO.C,P4*%
X152040000Y-7455671D03*
X152040000Y-15075671D03*
X146960000Y-7455671D03*
X146960000Y-15075671D03*
%TD*%
%TO.C,P1*%
X128700000Y-98045671D03*
X128700000Y-90425671D03*
X133780000Y-98045671D03*
X133780000Y-90425671D03*
%TD*%
D15*
%TO.C,TP4*%
X142500000Y-75765671D03*
%TD*%
D21*
%TO.C,LED1*%
X-31000000Y-93625671D03*
D22*
X-31000000Y-95905671D03*
%TD*%
D21*
%TO.C,LED2*%
X-17000000Y-95405671D03*
D22*
X-17000000Y-93125671D03*
%TD*%
D21*
%TO.C,LED3*%
X16000000Y-12405671D03*
D22*
X16000000Y-10125671D03*
%TD*%
D21*
%TO.C,LED4*%
X9640000Y-31265671D03*
D24*
X7360000Y-31265671D03*
%TD*%
D21*
%TO.C,LED5*%
X6860000Y-52265671D03*
D24*
X9140000Y-52265671D03*
%TD*%
D21*
%TO.C,LED12*%
X-45000000Y-95905671D03*
D22*
X-45000000Y-93625671D03*
%TD*%
D21*
%TO.C,LED20*%
X158640000Y-6285671D03*
D24*
X156360000Y-6285671D03*
%TD*%
D21*
%TO.C,LED21*%
X156860000Y-28765671D03*
D24*
X159140000Y-28765671D03*
%TD*%
D21*
%TO.C,LED22*%
X134860000Y-29765671D03*
D24*
X137140000Y-29765671D03*
%TD*%
D21*
%TO.C,LED23*%
X147640000Y-68765671D03*
D24*
X145360000Y-68765671D03*
%TD*%
D21*
%TO.C,LED24*%
X147000000Y-74905671D03*
D22*
X147000000Y-72625671D03*
%TD*%
D21*
%TO.C,LED25*%
X154640000Y-75265671D03*
D24*
X152360000Y-75265671D03*
%TD*%
D21*
%TO.C,LED26*%
X121860000Y-81765671D03*
D24*
X124140000Y-81765671D03*
%TD*%
D21*
%TO.C,LED27*%
X124140000Y-90265671D03*
D24*
X121860000Y-90265671D03*
%TD*%
D21*
%TO.C,LED28*%
X121860000Y-96265671D03*
D24*
X124140000Y-96265671D03*
%TD*%
D21*
%TO.C,LED29*%
X87860000Y-85765671D03*
D24*
X90140000Y-85765671D03*
%TD*%
D21*
%TO.C,LED34*%
X-22860000Y-42765671D03*
D24*
X-25140000Y-42765671D03*
%TD*%
D21*
%TO.C,LED35*%
X-39140000Y-58265671D03*
D24*
X-36860000Y-58265671D03*
%TD*%
D21*
%TO.C,LED36*%
X77640000Y-88765671D03*
D24*
X75360000Y-88765671D03*
%TD*%
D21*
%TO.C,LED37*%
X86860000Y-94265671D03*
D24*
X89140000Y-94265671D03*
%TD*%
D21*
%TO.C,LED38*%
X70109047Y-62015671D03*
D24*
X72389047Y-62015671D03*
%TD*%
D21*
%TO.C,LED39*%
X63640000Y-69265671D03*
D24*
X61360000Y-69265671D03*
%TD*%
D21*
%TO.C,LED40*%
X75360000Y-76765671D03*
D24*
X77640000Y-76765671D03*
%TD*%
D21*
%TO.C,LED41*%
X43400000Y-62905671D03*
D22*
X43400000Y-60625671D03*
%TD*%
D21*
%TO.C,LED42*%
X48500000Y-92625671D03*
D22*
X48500000Y-94905671D03*
%TD*%
D21*
%TO.C,LED43*%
X58000000Y-94905671D03*
D22*
X58000000Y-92625671D03*
%TD*%
D21*
%TO.C,LED44*%
X15860000Y-66265671D03*
D24*
X18140000Y-66265671D03*
%TD*%
D21*
%TO.C,LED45*%
X9140000Y-75265671D03*
D24*
X6860000Y-75265671D03*
%TD*%
D21*
%TO.C,LED46*%
X15360000Y-86265671D03*
D24*
X17640000Y-86265671D03*
%TD*%
D29*
%TO.C,Q8*%
X136322500Y2316829D03*
X138222500Y2316829D03*
X137272500Y4191829D03*
%TD*%
%TO.C,Q9*%
X110550000Y31296829D03*
X112450000Y31296829D03*
X111500000Y33171829D03*
%TD*%
%TO.C,Q10*%
X12550000Y31296829D03*
X14450000Y31296829D03*
X13500000Y33171829D03*
%TD*%
D25*
%TO.C,R51*%
X-48000000Y-95765671D03*
X-48000000Y-93765671D03*
%TD*%
D23*
%TO.C,R52*%
X16000000Y-63265671D03*
X18000000Y-63265671D03*
%TD*%
%TO.C,R55*%
X-18500000Y-58765671D03*
X-16500000Y-58765671D03*
%TD*%
D30*
%TO.C,R66*%
X128000000Y-21353171D03*
X128000000Y-23178171D03*
%TD*%
D31*
%TO.C,R69*%
X132587500Y-17765671D03*
X134412500Y-17765671D03*
%TD*%
D21*
%TO.C,LED16*%
X-65640000Y-51265671D03*
D24*
X-63360000Y-51265671D03*
%TD*%
D21*
%TO.C,LED19*%
X-46140000Y-30265671D03*
D24*
X-43860000Y-30265671D03*
%TD*%
D21*
%TO.C,LED17*%
X-63860000Y-61265671D03*
D24*
X-66140000Y-61265671D03*
%TD*%
D21*
%TO.C,LED18*%
X-66140000Y-71265671D03*
D24*
X-63860000Y-71265671D03*
%TD*%
D30*
%TO.C,R79*%
X12500000Y29146829D03*
X12500000Y27321829D03*
%TD*%
D32*
%TO.C,Q11*%
X141987500Y-10058171D03*
X140087500Y-10058171D03*
X141037500Y-11933171D03*
%TD*%
D33*
%TO.C,R75*%
X136412500Y234329D03*
X134587500Y234329D03*
%TD*%
D30*
%TO.C,R82*%
X141077500Y-14283171D03*
X141077500Y-16108171D03*
%TD*%
D33*
%TO.C,R80*%
X142000000Y-7765671D03*
X140175000Y-7765671D03*
%TD*%
D34*
%TO.C,D31*%
X91050000Y34234329D03*
X88950000Y34234329D03*
%TD*%
D30*
%TO.C,R78*%
X106500000Y32646829D03*
X106500000Y30821829D03*
%TD*%
D35*
%TO.C,D30*%
X155950000Y3734329D03*
X158050000Y3734329D03*
%TD*%
D31*
%TO.C,R76*%
X110520000Y29024329D03*
X112345000Y29024329D03*
%TD*%
D33*
%TO.C,R77*%
X138105000Y6564329D03*
X136280000Y6564329D03*
%TD*%
D30*
%TO.C,R81*%
X10000000Y33646829D03*
X10000000Y31821829D03*
%TD*%
D21*
%TO.C,LED52*%
X-17640000Y-73765671D03*
D24*
X-15360000Y-73765671D03*
%TD*%
D26*
%TO.C,H9*%
X86690000Y-24315671D03*
D27*
X89230000Y-24315671D03*
X91770000Y-24315671D03*
X94310000Y-24315671D03*
%TD*%
D34*
%TO.C,D32*%
X-1950000Y34734329D03*
X-4050000Y34734329D03*
%TD*%
D21*
%TO.C,LED50*%
X-18640000Y-61665671D03*
D24*
X-16360000Y-61665671D03*
%TD*%
D21*
%TO.C,LED51*%
X-35360000Y-67265671D03*
D24*
X-37640000Y-67265671D03*
%TD*%
D35*
%TO.C,D33*%
X147027500Y-3695671D03*
X149127500Y-3695671D03*
%TD*%
D15*
%TO.C,TP1*%
X147000000Y-101265671D03*
%TD*%
%TO.C,TP2*%
X143500000Y-98765671D03*
%TD*%
%TO.C,TP3*%
X139500000Y-69265671D03*
%TD*%
D36*
%TO.C,U17*%
X85420000Y-15065671D03*
D37*
X87960000Y-15065671D03*
X90500000Y-15065671D03*
X93040000Y-15065671D03*
X95580000Y-15065671D03*
%TD*%
D38*
%TO.C,R57*%
X-22072500Y-25518171D03*
X-22072500Y-23693171D03*
%TD*%
D31*
%TO.C,R54*%
X-17985000Y-28605671D03*
X-16160000Y-28605671D03*
%TD*%
D25*
%TO.C,R15*%
X40500000Y-62765671D03*
X40500000Y-60765671D03*
%TD*%
D23*
%TO.C,R14*%
X70000000Y-59265671D03*
X72000000Y-59265671D03*
%TD*%
%TO.C,R13*%
X88000000Y-83265671D03*
X90000000Y-83265671D03*
%TD*%
%TO.C,R12*%
X124500000Y-75265671D03*
X126500000Y-75265671D03*
%TD*%
%TO.C,R11*%
X156000000Y-65765671D03*
X154000000Y-65765671D03*
%TD*%
%TO.C,R10*%
X158500000Y-3385671D03*
X156500000Y-3385671D03*
%TD*%
%TO.C,R9*%
X-46000000Y-26765671D03*
X-44000000Y-26765671D03*
%TD*%
%TO.C,R8*%
X-65500000Y-48265671D03*
X-63500000Y-48265671D03*
%TD*%
%TO.C,R2*%
X2000000Y-24265671D03*
X4000000Y-24265671D03*
%TD*%
D29*
%TO.C,Q6*%
X130050000Y-20703171D03*
X131950000Y-20703171D03*
X131000000Y-18828171D03*
%TD*%
D39*
%TO.C,Q4*%
X-18135000Y-26555671D03*
X-18135000Y-24655671D03*
X-20010000Y-25605671D03*
%TD*%
M02*
