%TF.GenerationSoftware,KiCad,Pcbnew,9.0.2*%
%TF.CreationDate,2025-06-06T13:34:07-05:00*%
%TF.ProjectId,MothBox,4d6f7468-426f-4782-9e6b-696361645f70,5.0.0*%
%TF.SameCoordinates,Original*%
%TF.FileFunction,Profile,NP*%
%FSLAX46Y46*%
G04 Gerber Fmt 4.6, Leading zero omitted, Abs format (unit mm)*
G04 Created by KiCad (PCBNEW 9.0.2) date 2025-06-06 13:34:07*
%MOMM*%
%LPD*%
G01*
G04 APERTURE LIST*
%TA.AperFunction,Profile*%
%ADD10C,0.200000*%
%TD*%
%ADD11C,0.200000*%
%TA.AperFunction,Profile*%
%ADD12C,0.050000*%
%TD*%
G04 APERTURE END LIST*
D10*
X-73694035Y22608500D02*
X-73694035Y-23069495D01*
D11*
X-63855603Y-101824590D02*
X-63822133Y-101841191D01*
X-63788627Y-101857721D01*
X-63755087Y-101874179D01*
X-63721511Y-101890565D01*
X-63687900Y-101906878D01*
X-63654254Y-101923120D01*
X-63620574Y-101939290D01*
X-63586859Y-101955388D01*
X-63553110Y-101971413D01*
X-63519327Y-101987366D01*
X-63485509Y-102003247D01*
X-63451658Y-102019055D01*
X-63417773Y-102034791D01*
X-63383854Y-102050454D01*
X-63349902Y-102066045D01*
X-63315917Y-102081562D01*
X-63281898Y-102097007D01*
X-63247847Y-102112379D01*
X-63213762Y-102127679D01*
X-63179645Y-102142905D01*
X-63145495Y-102158058D01*
X-63111313Y-102173138D01*
X-63077099Y-102188144D01*
X-63042853Y-102203078D01*
X-63008575Y-102217938D01*
X-62974264Y-102232725D01*
X-62939923Y-102247438D01*
X-62905550Y-102262077D01*
X-62871145Y-102276643D01*
X-62836710Y-102291136D01*
X-62802243Y-102305554D01*
X-62767745Y-102319899D01*
X-62733217Y-102334170D01*
X-62698659Y-102348367D01*
X-62664070Y-102362490D01*
X-62629450Y-102376539D01*
X-62594801Y-102390514D01*
X-62560122Y-102404414D01*
X-62525413Y-102418241D01*
X-62490674Y-102431993D01*
X-62455906Y-102445670D01*
X-62421109Y-102459274D01*
X-62386283Y-102472802D01*
X-62351427Y-102486256D01*
X-62316543Y-102499636D01*
X-62281630Y-102512941D01*
X-62246689Y-102526171D01*
X-62211720Y-102539326D01*
X-62176722Y-102552406D01*
X-62141696Y-102565411D01*
X-62106643Y-102578342D01*
X-62071562Y-102591197D01*
X-62036453Y-102603977D01*
X-62001317Y-102616682D01*
X-61966154Y-102629312D01*
X-61930963Y-102641867D01*
X-61895746Y-102654346D01*
X-61860502Y-102666750D01*
X-61825232Y-102679078D01*
X-61789935Y-102691331D01*
X-61754612Y-102703508D01*
X-61719263Y-102715609D01*
X-61683888Y-102727635D01*
X-61648487Y-102739585D01*
X-61613061Y-102751460D01*
X-61577609Y-102763258D01*
X-61542132Y-102774981D01*
X-61506630Y-102786627D01*
X-61471103Y-102798198D01*
X-61435552Y-102809692D01*
X-61399975Y-102821111D01*
X-61364375Y-102832453D01*
X-61328750Y-102843719D01*
X-61293101Y-102854909D01*
X-61257428Y-102866022D01*
X-61221731Y-102877059D01*
X-61186011Y-102888019D01*
X-61150267Y-102898903D01*
X-61114500Y-102909711D01*
X-61078710Y-102920442D01*
X-61042897Y-102931096D01*
X-61007061Y-102941674D01*
X-60971203Y-102952174D01*
X-60935322Y-102962598D01*
X-60899419Y-102972946D01*
X-60863493Y-102983216D01*
X-60827546Y-102993409D01*
X-60791577Y-103003526D01*
X-60755587Y-103013565D01*
X-60719575Y-103023527D01*
X-60683541Y-103033413D01*
X-60647487Y-103043221D01*
X-60629452Y-103048096D01*
X-60611412Y-103052951D01*
X-60593366Y-103057788D01*
X-60575316Y-103062605D01*
X-60557260Y-103067403D01*
X-60539199Y-103072181D01*
X-60521133Y-103076940D01*
X-60503062Y-103081680D01*
X-60484986Y-103086400D01*
X-60466904Y-103091102D01*
X-60448818Y-103095783D01*
X-60430727Y-103100446D01*
X-60412631Y-103105089D01*
X-60394530Y-103109712D01*
X-60376423Y-103114316D01*
X-60358312Y-103118901D01*
X-60340196Y-103123467D01*
X-60322076Y-103128013D01*
X-60303950Y-103132539D01*
X-60285819Y-103137047D01*
X-60267684Y-103141535D01*
X-60249544Y-103146003D01*
X-60231399Y-103150452D01*
X-60213249Y-103154882D01*
X-60195095Y-103159292D01*
X-60176936Y-103163682D01*
X-60158772Y-103168054D01*
X-60140604Y-103172405D01*
X-60122431Y-103176738D01*
X-60104253Y-103181051D01*
X-60086070Y-103185344D01*
X-60067883Y-103189618D01*
X-60049692Y-103193873D01*
X-60031496Y-103198108D01*
X-60013296Y-103202323D01*
X-59995090Y-103206519D01*
X-59976881Y-103210696D01*
X-59958667Y-103214853D01*
X-59940449Y-103218990D01*
X-59922226Y-103223108D01*
X-59903998Y-103227207D01*
X-59885767Y-103231286D01*
X-59867531Y-103235345D01*
X-59849291Y-103239385D01*
X-59831046Y-103243406D01*
X-59812797Y-103247407D01*
X-59794544Y-103251388D01*
X-59776286Y-103255350D01*
X-59758025Y-103259292D01*
X-59739759Y-103263215D01*
X-59721489Y-103267118D01*
X-59703215Y-103271002D01*
X-59684937Y-103274866D01*
X-59666654Y-103278710D01*
X-59648368Y-103282535D01*
X-59630077Y-103286340D01*
X-59611782Y-103290126D01*
X-59593483Y-103293892D01*
X-59575181Y-103297639D01*
X-59556874Y-103301366D01*
X-59538564Y-103305073D01*
X-59520249Y-103308761D01*
X-59501930Y-103312429D01*
X-59483608Y-103316078D01*
X-59465281Y-103319706D01*
X-59446951Y-103323316D01*
X-59428617Y-103326905D01*
X-59410279Y-103330475D01*
X-59391937Y-103334026D01*
X-59373592Y-103337556D01*
X-59355243Y-103341067D01*
X-59336890Y-103344559D01*
X-59318533Y-103348031D01*
X-59300172Y-103351483D01*
X-59281808Y-103354915D01*
X-59263441Y-103358328D01*
X-59245069Y-103361721D01*
X-59226694Y-103365095D01*
X-59208316Y-103368448D01*
X-59189933Y-103371783D01*
X-59171548Y-103375097D01*
X-59153158Y-103378392D01*
X-59134766Y-103381667D01*
X-59116369Y-103384922D01*
X-59097970Y-103388158D01*
X-59079567Y-103391374D01*
X-59061160Y-103394570D01*
X-59042750Y-103397747D01*
X-59024337Y-103400903D01*
X-59005920Y-103404041D01*
X-58987500Y-103407158D01*
X-58969076Y-103410256D01*
X-58950650Y-103413333D01*
X-58932220Y-103416392D01*
X-58913787Y-103419430D01*
X-58895350Y-103422449D01*
X-58876911Y-103425448D01*
X-58858468Y-103428427D01*
X-58840022Y-103431387D01*
X-58821572Y-103434326D01*
X-58803120Y-103437246D01*
X-58784665Y-103440147D01*
X-58766206Y-103443027D01*
X-58747744Y-103445888D01*
X-58729280Y-103448729D01*
X-58710812Y-103451550D01*
X-58692342Y-103454351D01*
X-58673868Y-103457133D01*
X-58655392Y-103459895D01*
X-58636912Y-103462637D01*
X-58618430Y-103465359D01*
X-58599944Y-103468062D01*
X-58581456Y-103470744D01*
X-58562965Y-103473407D01*
X-58544471Y-103476050D01*
X-58525974Y-103478674D01*
X-58507475Y-103481277D01*
X-58488972Y-103483861D01*
X-58470468Y-103486425D01*
X-58451959Y-103488969D01*
X-58433449Y-103491493D01*
X-58414936Y-103493997D01*
X-58396420Y-103496482D01*
X-58377901Y-103498947D01*
X-58359381Y-103501392D01*
X-58340857Y-103503817D01*
X-58322331Y-103506222D01*
X-58303801Y-103508607D01*
X-58285270Y-103510973D01*
X-58266736Y-103513319D01*
X-58248200Y-103515645D01*
X-58229661Y-103517951D01*
X-58211120Y-103520237D01*
X-58192576Y-103522503D01*
X-58174030Y-103524750D01*
X-58155481Y-103526976D01*
X-58136930Y-103529183D01*
X-58118376Y-103531370D01*
X-58099821Y-103533537D01*
X-58081263Y-103535684D01*
X-58062703Y-103537812D01*
X-58044140Y-103539919D01*
X-58025576Y-103542007D01*
X-58007008Y-103544074D01*
X-57988439Y-103546122D01*
X-57969868Y-103548150D01*
X-57951294Y-103550158D01*
X-57932718Y-103552146D01*
X-57914141Y-103554115D01*
X-57895560Y-103556063D01*
X-57876979Y-103557991D01*
X-57858394Y-103559900D01*
X-57839809Y-103561789D01*
X-57821220Y-103563658D01*
X-57802630Y-103565506D01*
X-57784038Y-103567336D01*
X-57765444Y-103569145D01*
X-57746847Y-103570934D01*
X-57728250Y-103572703D01*
X-57709650Y-103574452D01*
X-57691048Y-103576182D01*
X-57672444Y-103577891D01*
X-57653839Y-103579581D01*
X-57635232Y-103581251D01*
X-57616623Y-103582900D01*
X-57598012Y-103584530D01*
X-57579400Y-103586140D01*
X-57560785Y-103587730D01*
X-57542169Y-103589300D01*
X-57523551Y-103590850D01*
X-57504932Y-103592381D01*
X-57486311Y-103593891D01*
X-57467689Y-103595381D01*
X-57449064Y-103596852D01*
X-57430439Y-103598302D01*
X-57411811Y-103599733D01*
X-57393182Y-103601143D01*
X-57374551Y-103602534D01*
X-57355920Y-103603905D01*
X-57337286Y-103605255D01*
X-57318652Y-103606586D01*
X-57300015Y-103607897D01*
X-57267352Y-103610146D01*
D10*
X-73693989Y-23069495D02*
X-73693989Y-77054949D01*
D11*
X153514165Y34971412D02*
X153546730Y34954698D01*
X153579259Y34937912D01*
X153611750Y34921056D01*
X153644205Y34904129D01*
X153676623Y34887131D01*
X153709003Y34870062D01*
X153741346Y34852922D01*
X153773651Y34835712D01*
X153805919Y34818431D01*
X153838148Y34801080D01*
X153870340Y34783658D01*
X153902494Y34766167D01*
X153934609Y34748604D01*
X153966686Y34730972D01*
X153998724Y34713270D01*
X154030723Y34695498D01*
X154062683Y34677656D01*
X154094605Y34659744D01*
X154126487Y34641762D01*
X154158330Y34623711D01*
X154190133Y34605590D01*
X154221896Y34587399D01*
X154253620Y34569140D01*
X154285304Y34550811D01*
X154316948Y34532412D01*
X154348551Y34513945D01*
X154380114Y34495409D01*
X154411637Y34476803D01*
X154443119Y34458129D01*
X154474560Y34439386D01*
X154505960Y34420574D01*
X154537318Y34401694D01*
X154568636Y34382745D01*
X154599912Y34363728D01*
X154631147Y34344643D01*
X154662339Y34325489D01*
X154693490Y34306267D01*
X154724599Y34286977D01*
X154755666Y34267619D01*
X154786690Y34248193D01*
X154817672Y34228699D01*
X154848611Y34209138D01*
X154879508Y34189509D01*
X154910361Y34169812D01*
X154941172Y34150049D01*
X154971939Y34130217D01*
X155002663Y34110319D01*
X155033343Y34090353D01*
X155063980Y34070321D01*
X155094573Y34050221D01*
X155125122Y34030055D01*
X155155627Y34009822D01*
X155186088Y33989522D01*
X155216504Y33969155D01*
X155246876Y33948723D01*
X155277203Y33928223D01*
X155307486Y33907658D01*
X155337723Y33887026D01*
X155367915Y33866329D01*
X155398062Y33845565D01*
X155428164Y33824736D01*
X155458220Y33803840D01*
X155488230Y33782879D01*
X155518195Y33761853D01*
X155548114Y33740761D01*
X155577986Y33719603D01*
X155607812Y33698381D01*
X155637592Y33677093D01*
X155667325Y33655740D01*
X155697012Y33634322D01*
X155726652Y33612840D01*
X155756244Y33591292D01*
X155785790Y33569680D01*
X155815288Y33548004D01*
X155844739Y33526262D01*
X155874143Y33504457D01*
X155903499Y33482587D01*
X155932806Y33460654D01*
X155962066Y33438656D01*
X155991278Y33416594D01*
X156020442Y33394469D01*
X156049557Y33372280D01*
X156078624Y33350027D01*
X156107642Y33327711D01*
X156136611Y33305331D01*
X156165531Y33282888D01*
X156194402Y33260382D01*
X156223224Y33237813D01*
X156251996Y33215181D01*
X156266364Y33203841D01*
X156280719Y33192486D01*
X156295062Y33181115D01*
X156309393Y33169728D01*
X156323711Y33158326D01*
X156338016Y33146908D01*
X156352309Y33135474D01*
X156366590Y33124025D01*
X156380858Y33112560D01*
X156395114Y33101080D01*
X156409356Y33089584D01*
X156423587Y33078072D01*
X156437805Y33066545D01*
X156452010Y33055003D01*
X156466202Y33043445D01*
X156480382Y33031871D01*
X156494550Y33020282D01*
X156508704Y33008677D01*
X156522846Y32997057D01*
X156536976Y32985422D01*
X156551092Y32973771D01*
X156565196Y32962105D01*
X156579287Y32950423D01*
X156593365Y32938726D01*
X156607430Y32927013D01*
X156621483Y32915285D01*
X156635523Y32903542D01*
X156649550Y32891784D01*
X156663564Y32880010D01*
X156677565Y32868221D01*
X156691554Y32856416D01*
X156705529Y32844596D01*
X156719492Y32832761D01*
X156733441Y32820911D01*
X156747378Y32809046D01*
X156761301Y32797165D01*
X156775212Y32785269D01*
X156789110Y32773358D01*
X156802994Y32761432D01*
X156816866Y32749490D01*
X156830724Y32737534D01*
X156844570Y32725562D01*
X156858402Y32713575D01*
X156872222Y32701573D01*
X156886028Y32689556D01*
X156899821Y32677524D01*
X156913600Y32665477D01*
X156927367Y32653415D01*
X156941120Y32641337D01*
X156954861Y32629245D01*
X156968588Y32617138D01*
X156982301Y32605015D01*
X156996002Y32592878D01*
X157009689Y32580726D01*
X157023363Y32568559D01*
X157037024Y32556377D01*
X157050671Y32544180D01*
X157064305Y32531968D01*
X157077926Y32519741D01*
X157091533Y32507499D01*
X157105127Y32495243D01*
X157118707Y32482972D01*
X157132274Y32470686D01*
X157145828Y32458384D01*
X157159368Y32446069D01*
X157172895Y32433738D01*
X157186408Y32421393D01*
X157199907Y32409033D01*
X157213394Y32396658D01*
X157226866Y32384268D01*
X157240325Y32371864D01*
X157253771Y32359445D01*
X157267203Y32347011D01*
X157280621Y32334563D01*
X157294026Y32322100D01*
X157307417Y32309622D01*
X157320794Y32297130D01*
X157334158Y32284623D01*
X157347508Y32272102D01*
X157360844Y32259566D01*
X157374167Y32247015D01*
X157387476Y32234450D01*
X157400771Y32221871D01*
X157414053Y32209276D01*
X157427320Y32196668D01*
X157440574Y32184045D01*
X157453814Y32171407D01*
X157467040Y32158755D01*
X157480253Y32146089D01*
X157493451Y32133407D01*
X157506636Y32120712D01*
X157519807Y32108002D01*
X157532964Y32095278D01*
X157546107Y32082540D01*
X157559236Y32069787D01*
X157572351Y32057020D01*
X157585452Y32044238D01*
X157598539Y32031442D01*
X157611612Y32018633D01*
X157624671Y32005808D01*
X157637716Y31992970D01*
X157650748Y31980117D01*
X157663764Y31967250D01*
X157676768Y31954368D01*
X157689756Y31941473D01*
X157702731Y31928563D01*
X157715692Y31915639D01*
X157728638Y31902701D01*
X157741571Y31889749D01*
X157754489Y31876783D01*
X157767393Y31863802D01*
X157780283Y31850808D01*
X157793158Y31837799D01*
X157806020Y31824777D01*
X157818867Y31811740D01*
X157831700Y31798689D01*
X157844518Y31785625D01*
X157857323Y31772546D01*
X157870113Y31759453D01*
X157882888Y31746347D01*
X157895650Y31733226D01*
X157908397Y31720091D01*
X157921129Y31706943D01*
X157933848Y31693781D01*
X157946552Y31680605D01*
X157959241Y31667414D01*
X157971916Y31654211D01*
X157984577Y31640993D01*
X157997223Y31627761D01*
X158009855Y31614515D01*
X158022472Y31601256D01*
X158035075Y31587983D01*
X158047663Y31574697D01*
X158060237Y31561396D01*
X158072796Y31548082D01*
X158085341Y31534753D01*
X158097870Y31521412D01*
X158110386Y31508056D01*
X158122887Y31494687D01*
X158135373Y31481304D01*
X158147845Y31467908D01*
X158160302Y31454498D01*
X158172744Y31441075D01*
X158185172Y31427637D01*
X158197585Y31414187D01*
X158209983Y31400722D01*
X158222366Y31387244D01*
X158234735Y31373753D01*
X158247089Y31360248D01*
X158259429Y31346729D01*
X158271753Y31333198D01*
X158284063Y31319652D01*
X158296358Y31306093D01*
X158308638Y31292521D01*
X158320903Y31278935D01*
X158333154Y31265336D01*
X158345389Y31251724D01*
X158357610Y31238097D01*
X158369816Y31224458D01*
X158382007Y31210806D01*
X158394183Y31197140D01*
X158406344Y31183460D01*
X158418490Y31169768D01*
X158430622Y31156062D01*
X158442738Y31142343D01*
X158454839Y31128611D01*
X158466925Y31114865D01*
X158478997Y31101106D01*
X158491053Y31087335D01*
X158503094Y31073549D01*
X158515120Y31059751D01*
X158527131Y31045939D01*
X158539127Y31032115D01*
X158551108Y31018277D01*
X158563074Y31004426D01*
X158575025Y30990562D01*
X158597772Y30964088D01*
D10*
X124421016Y-103610261D02*
X147062680Y-103610261D01*
D12*
X162500000Y-12765671D02*
X162814644Y14178263D01*
D10*
X-73534989Y-80772241D02*
X-73534989Y-83722241D01*
X118270406Y-97873865D02*
G75*
G02*
X117977539Y-97166758I707094J707065D01*
G01*
X162814644Y15259273D02*
X162814644Y14198974D01*
X95883513Y-97166758D02*
G75*
G02*
X95590602Y-97873847I-999813J-42D01*
G01*
X-52670084Y-44625028D02*
G75*
G02*
X-56070084Y-44625028I-1700000J0D01*
G01*
X-56070084Y-44625028D02*
G75*
G02*
X-52670084Y-44625028I1700000J0D01*
G01*
X95883513Y-64974218D02*
G75*
G02*
X96350108Y-64128347I999987J18D01*
G01*
D11*
X158597772Y30964088D02*
X158621568Y30936274D01*
X158645302Y30908408D01*
X158668976Y30880491D01*
X158692588Y30852522D01*
X158716140Y30824501D01*
X158739630Y30796429D01*
X158763058Y30768306D01*
X158786425Y30740132D01*
X158809731Y30711906D01*
X158832974Y30683630D01*
X158856156Y30655303D01*
X158879276Y30626926D01*
X158902333Y30598498D01*
X158925329Y30570020D01*
X158948262Y30541491D01*
X158971133Y30512913D01*
X158993941Y30484284D01*
X159016687Y30455606D01*
X159039370Y30426879D01*
X159061990Y30398101D01*
X159084547Y30369274D01*
X159107042Y30340398D01*
X159129473Y30311473D01*
X159151841Y30282499D01*
X159174145Y30253476D01*
X159196386Y30224405D01*
X159218564Y30195285D01*
X159240677Y30166116D01*
X159262727Y30136899D01*
X159284714Y30107634D01*
X159306636Y30078321D01*
X159328494Y30048960D01*
X159350288Y30019551D01*
X159372017Y29990095D01*
X159393683Y29960591D01*
X159415283Y29931040D01*
X159436820Y29901442D01*
X159458291Y29871796D01*
X159479698Y29842104D01*
X159501040Y29812365D01*
X159522316Y29782579D01*
X159543528Y29752747D01*
X159564674Y29722868D01*
X159585756Y29692944D01*
X159606771Y29662973D01*
X159627722Y29632956D01*
X159648606Y29602894D01*
X159669425Y29572786D01*
X159690178Y29542632D01*
X159710866Y29512433D01*
X159731487Y29482189D01*
X159752042Y29451900D01*
X159772531Y29421566D01*
X159792954Y29391187D01*
X159813310Y29360763D01*
X159833600Y29330295D01*
X159853823Y29299783D01*
X159873979Y29269226D01*
X159894069Y29238626D01*
X159914092Y29207982D01*
X159934048Y29177293D01*
X159953936Y29146562D01*
X159973758Y29115786D01*
X159993512Y29084968D01*
X160013199Y29054106D01*
X160032819Y29023202D01*
X160052371Y28992254D01*
X160071855Y28961264D01*
X160091272Y28930231D01*
X160110620Y28899156D01*
X160129901Y28868038D01*
X160149114Y28836879D01*
X160168259Y28805677D01*
X160187335Y28774434D01*
X160206343Y28743149D01*
X160225283Y28711822D01*
X160244154Y28680454D01*
X160262957Y28649045D01*
X160281691Y28617595D01*
X160300357Y28586104D01*
X160318953Y28554572D01*
X160337481Y28523000D01*
X160355939Y28491387D01*
X160374329Y28459734D01*
X160392649Y28428041D01*
X160410900Y28396307D01*
X160429082Y28364534D01*
X160447194Y28332722D01*
X160465236Y28300869D01*
X160474231Y28284928D01*
X160483209Y28268978D01*
X160492169Y28253017D01*
X160501112Y28237047D01*
X160510038Y28221067D01*
X160518946Y28205077D01*
X160527836Y28189077D01*
X160536709Y28173068D01*
X160545565Y28157049D01*
X160554403Y28141020D01*
X160563223Y28124982D01*
X160572026Y28108934D01*
X160580812Y28092876D01*
X160589580Y28076809D01*
X160598330Y28060732D01*
X160607063Y28044646D01*
X160615778Y28028550D01*
X160624475Y28012445D01*
X160633155Y27996330D01*
X160641818Y27980206D01*
X160650462Y27964072D01*
X160659089Y27947929D01*
X160667699Y27931776D01*
X160676291Y27915614D01*
X160684865Y27899443D01*
X160693421Y27883262D01*
X160701960Y27867072D01*
X160710481Y27850872D01*
X160718985Y27834664D01*
X160727470Y27818446D01*
X160735938Y27802219D01*
X160744388Y27785982D01*
X160752821Y27769736D01*
X160761235Y27753481D01*
X160769632Y27737217D01*
X160778012Y27720944D01*
X160786373Y27704662D01*
X160794716Y27688370D01*
X160803042Y27672069D01*
X160811350Y27655759D01*
X160819640Y27639441D01*
X160827913Y27623113D01*
X160836167Y27606776D01*
X160844404Y27590430D01*
X160852622Y27574075D01*
X160860823Y27557711D01*
X160869006Y27541339D01*
X160877171Y27524957D01*
X160885318Y27508566D01*
X160893447Y27492167D01*
X160901559Y27475758D01*
X160909652Y27459341D01*
X160917727Y27442915D01*
X160925785Y27426480D01*
X160933824Y27410036D01*
X160941846Y27393584D01*
X160949849Y27377123D01*
X160957835Y27360653D01*
X160965802Y27344174D01*
X160973752Y27327687D01*
X160981683Y27311191D01*
X160989597Y27294686D01*
X160997492Y27278173D01*
X161005370Y27261651D01*
X161013229Y27245120D01*
X161021070Y27228581D01*
X161028893Y27212034D01*
X161036699Y27195477D01*
X161044485Y27178913D01*
X161052254Y27162340D01*
X161060005Y27145758D01*
X161067738Y27129168D01*
X161075452Y27112569D01*
X161083149Y27095962D01*
X161090827Y27079347D01*
X161098487Y27062723D01*
X161106129Y27046091D01*
X161113752Y27029451D01*
X161121358Y27012802D01*
X161128945Y26996145D01*
X161136514Y26979480D01*
X161144065Y26962806D01*
X161151598Y26946125D01*
X161159112Y26929434D01*
X161166608Y26912736D01*
X161174086Y26896030D01*
X161181546Y26879316D01*
X161188987Y26862593D01*
X161196410Y26845862D01*
X161203815Y26829123D01*
X161211201Y26812376D01*
X161218570Y26795621D01*
X161225919Y26778858D01*
X161233251Y26762087D01*
X161240564Y26745308D01*
X161247859Y26728521D01*
X161255135Y26711726D01*
X161262394Y26694923D01*
X161269633Y26678112D01*
X161276855Y26661293D01*
X161284058Y26644467D01*
X161291243Y26627632D01*
X161298409Y26610790D01*
X161305557Y26593940D01*
X161312686Y26577082D01*
X161319797Y26560216D01*
X161326889Y26543343D01*
X161333964Y26526462D01*
X161341019Y26509573D01*
X161348057Y26492676D01*
X161355075Y26475772D01*
X161362075Y26458860D01*
X161369057Y26441941D01*
X161376020Y26425013D01*
X161382965Y26408079D01*
X161389891Y26391136D01*
X161396799Y26374186D01*
X161403688Y26357228D01*
X161410559Y26340264D01*
X161417411Y26323291D01*
X161424245Y26306311D01*
X161431060Y26289324D01*
X161437856Y26272329D01*
X161444634Y26255327D01*
X161451393Y26238317D01*
X161458134Y26221300D01*
X161464856Y26204276D01*
X161471560Y26187244D01*
X161478244Y26170205D01*
X161484911Y26153158D01*
X161491558Y26136105D01*
X161498187Y26119044D01*
X161504798Y26101976D01*
X161511389Y26084900D01*
X161517962Y26067818D01*
X161524517Y26050728D01*
X161531052Y26033632D01*
X161537569Y26016527D01*
X161544068Y25999416D01*
X161550547Y25982298D01*
X161557008Y25965173D01*
X161563450Y25948040D01*
X161569874Y25930901D01*
X161576278Y25913754D01*
X161582664Y25896601D01*
X161589032Y25879441D01*
X161595380Y25862274D01*
X161601710Y25845099D01*
X161608021Y25827918D01*
X161614313Y25810730D01*
X161620586Y25793535D01*
X161626841Y25776333D01*
X161633077Y25759125D01*
X161639294Y25741909D01*
X161645492Y25724687D01*
X161651671Y25707458D01*
X161657832Y25690222D01*
X161663974Y25672979D01*
X161670096Y25655730D01*
X161676200Y25638474D01*
X161682286Y25621212D01*
X161688352Y25603942D01*
X161694399Y25586667D01*
X161700428Y25569384D01*
X161706438Y25552095D01*
X161712428Y25534799D01*
X161718400Y25517497D01*
X161724353Y25500188D01*
X161730287Y25482873D01*
X161736203Y25465550D01*
X161742099Y25448223D01*
X161747976Y25430887D01*
X161753834Y25413547D01*
X161759674Y25396198D01*
X161765494Y25378845D01*
X161771296Y25361484D01*
X161782453Y25327919D01*
D10*
X108717831Y-58765671D02*
G75*
G02*
X109251241Y-58919792I-31J-1000229D01*
G01*
X163332009Y-85752130D02*
X163332009Y-86200250D01*
X109251231Y-58919808D02*
X117510913Y-64128355D01*
X16848510Y36811260D02*
X-56199485Y36811260D01*
X147078186Y-103609203D02*
X147064372Y-103610146D01*
X82329916Y-44625028D02*
G75*
G02*
X78929916Y-44625028I-1700000J0D01*
G01*
X78929916Y-44625028D02*
G75*
G02*
X82329916Y-44625028I1700000J0D01*
G01*
X-7670084Y-95625028D02*
G75*
G02*
X-11070084Y-95625028I-1700000J0D01*
G01*
X-11070084Y-95625028D02*
G75*
G02*
X-7670084Y-95625028I1700000J0D01*
G01*
X90147117Y-103317368D02*
X95590620Y-97873865D01*
X-56199485Y36811260D02*
X-56199485Y36858505D01*
X-52670084Y-95625028D02*
G75*
G02*
X-56070084Y-95625028I-1700000J0D01*
G01*
X-56070084Y-95625028D02*
G75*
G02*
X-52670084Y-95625028I1700000J0D01*
G01*
D11*
X-73346080Y-88760895D02*
X-73349089Y-88740544D01*
X-73352075Y-88720211D01*
X-73355016Y-88700046D01*
X-73357934Y-88679897D01*
X-73360809Y-88659908D01*
X-73363662Y-88639933D01*
X-73366472Y-88620109D01*
X-73369261Y-88600299D01*
X-73372009Y-88580632D01*
X-73374735Y-88560977D01*
X-73377422Y-88541458D01*
X-73380087Y-88521950D01*
X-73382714Y-88502571D01*
X-73385320Y-88483201D01*
X-73387889Y-88463953D01*
X-73390436Y-88444714D01*
X-73392948Y-88425590D01*
X-73395439Y-88406473D01*
X-73397896Y-88387467D01*
X-73400331Y-88368466D01*
X-73402733Y-88349569D01*
X-73405114Y-88330677D01*
X-73407462Y-88311883D01*
X-73409789Y-88293093D01*
X-73412085Y-88274396D01*
X-73414361Y-88255701D01*
X-73416605Y-88237095D01*
X-73418829Y-88218489D01*
X-73421023Y-88199967D01*
X-73423197Y-88181444D01*
X-73425341Y-88163001D01*
X-73427465Y-88144556D01*
X-73429560Y-88126186D01*
X-73431636Y-88107813D01*
X-73433683Y-88089511D01*
X-73435711Y-88071204D01*
X-73437711Y-88052964D01*
X-73439691Y-88034719D01*
X-73441645Y-88016536D01*
X-73443579Y-87998347D01*
X-73445487Y-87980217D01*
X-73447375Y-87962079D01*
X-73449237Y-87943996D01*
X-73451080Y-87925905D01*
X-73452898Y-87907864D01*
X-73454696Y-87889815D01*
X-73456470Y-87871813D01*
X-73458224Y-87853801D01*
X-73459955Y-87835832D01*
X-73461665Y-87817853D01*
X-73463352Y-87799913D01*
X-73465020Y-87781963D01*
X-73466665Y-87764048D01*
X-73468290Y-87746121D01*
X-73469893Y-87728228D01*
X-73471476Y-87710321D01*
X-73473037Y-87692444D01*
X-73474578Y-87674553D01*
X-73476098Y-87656689D01*
X-73477598Y-87638810D01*
X-73479076Y-87620954D01*
X-73480536Y-87603083D01*
X-73481974Y-87585232D01*
X-73483393Y-87567364D01*
X-73484790Y-87549515D01*
X-73486169Y-87531647D01*
X-73487527Y-87513794D01*
X-73488866Y-87495923D01*
X-73490183Y-87478064D01*
X-73491483Y-87460185D01*
X-73492761Y-87442316D01*
X-73494021Y-87424426D01*
X-73495260Y-87406543D01*
X-73496481Y-87388638D01*
X-73497681Y-87370737D01*
X-73498863Y-87352814D01*
X-73500025Y-87334892D01*
X-73501168Y-87316947D01*
X-73502291Y-87299001D01*
X-73503395Y-87281030D01*
X-73504480Y-87263055D01*
X-73505546Y-87245056D01*
X-73506593Y-87227049D01*
X-73507621Y-87209017D01*
X-73508629Y-87190976D01*
X-73509619Y-87172908D01*
X-73510589Y-87154827D01*
X-73511541Y-87136720D01*
X-73512474Y-87118598D01*
X-73513388Y-87100448D01*
X-73514282Y-87082280D01*
X-73515159Y-87064083D01*
X-73516016Y-87045867D01*
X-73516854Y-87027621D01*
X-73517674Y-87009352D01*
X-73518474Y-86991052D01*
X-73519256Y-86972728D01*
X-73520019Y-86954372D01*
X-73520763Y-86935988D01*
X-73521489Y-86917573D01*
X-73522196Y-86899126D01*
X-73522883Y-86880647D01*
X-73523553Y-86862135D01*
X-73524203Y-86843590D01*
X-73524834Y-86825008D01*
X-73525447Y-86806392D01*
X-73526041Y-86787738D01*
X-73526616Y-86769049D01*
X-73527172Y-86750319D01*
X-73527709Y-86731552D01*
X-73528228Y-86712742D01*
X-73528727Y-86693896D01*
X-73529208Y-86675003D01*
X-73529669Y-86656072D01*
X-73530536Y-86618074D01*
X-73531326Y-86579896D01*
X-73532040Y-86541529D01*
X-73532678Y-86502968D01*
X-73533239Y-86464204D01*
X-73533723Y-86425231D01*
X-73534129Y-86386041D01*
X-73534457Y-86346628D01*
X-73534707Y-86306982D01*
X-73534879Y-86267098D01*
X-73534972Y-86226967D01*
X-73534989Y-86200250D01*
D10*
X-7670084Y-44625028D02*
G75*
G02*
X-11070084Y-44625028I-1700000J0D01*
G01*
X-11070084Y-44625028D02*
G75*
G02*
X-7670084Y-44625028I1700000J0D01*
G01*
D11*
X142518545Y36811260D02*
X143144857Y36811248D01*
X143432811Y36811218D01*
X143704742Y36811160D01*
X143961237Y36811065D01*
X144202879Y36810924D01*
X144430254Y36810726D01*
X144538774Y36810603D01*
X144643947Y36810463D01*
X144745845Y36810304D01*
X144844542Y36810125D01*
X144940110Y36809925D01*
X145032624Y36809703D01*
X145122155Y36809457D01*
X145208778Y36809187D01*
X145292565Y36808891D01*
X145373590Y36808569D01*
X145451925Y36808218D01*
X145527643Y36807838D01*
X145600819Y36807428D01*
X145671524Y36806986D01*
X145739832Y36806512D01*
X145805816Y36806004D01*
X145869549Y36805460D01*
X145931104Y36804881D01*
X145990555Y36804264D01*
X146047974Y36803608D01*
X146103435Y36802913D01*
X146157011Y36802177D01*
X146208774Y36801399D01*
X146258798Y36800578D01*
X146307157Y36799712D01*
X146353922Y36798801D01*
X146399168Y36797843D01*
X146421243Y36797346D01*
X146442967Y36796837D01*
X146464346Y36796316D01*
X146485392Y36795782D01*
X146506113Y36795236D01*
X146526517Y36794677D01*
X146546615Y36794105D01*
X146566415Y36793520D01*
X146585926Y36792922D01*
X146605158Y36792311D01*
X146624120Y36791686D01*
X146642821Y36791048D01*
X146661269Y36790396D01*
X146679475Y36789730D01*
X146697447Y36789051D01*
X146715195Y36788357D01*
X146732727Y36787648D01*
X146750052Y36786926D01*
X146767181Y36786188D01*
X146784121Y36785436D01*
X146800883Y36784669D01*
X146817475Y36783887D01*
X146833906Y36783090D01*
X146850186Y36782277D01*
X146866323Y36781449D01*
X146882328Y36780606D01*
X146898208Y36779746D01*
X146913973Y36778871D01*
X146929633Y36777979D01*
X146945196Y36777072D01*
X146960671Y36776148D01*
X146976068Y36775207D01*
X146991396Y36774250D01*
X147006664Y36773276D01*
X147037055Y36771278D01*
X147067316Y36769210D01*
X147097520Y36767072D01*
X147127739Y36764863D01*
X147158047Y36762582D01*
X147188516Y36760227D01*
D10*
X90147117Y-103317368D02*
G75*
G02*
X89440010Y-103610280I-707117J707068D01*
G01*
X71698148Y36811260D02*
X100366169Y36811260D01*
D11*
X-72920142Y-90791491D02*
X-72930040Y-90755046D01*
X-72939850Y-90718622D01*
X-72949571Y-90682219D01*
X-72959204Y-90645836D01*
X-72968750Y-90609472D01*
X-72978209Y-90573125D01*
X-72987581Y-90536796D01*
X-72996866Y-90500482D01*
X-73006066Y-90464183D01*
X-73015179Y-90427898D01*
X-73024208Y-90391625D01*
X-73033151Y-90355364D01*
X-73042009Y-90319113D01*
X-73050783Y-90282871D01*
X-73059473Y-90246638D01*
X-73068080Y-90210411D01*
X-73076603Y-90174190D01*
X-73085043Y-90137973D01*
X-73093401Y-90101759D01*
X-73101676Y-90065547D01*
X-73109869Y-90029336D01*
X-73117981Y-89993123D01*
X-73126012Y-89956907D01*
X-73133962Y-89920688D01*
X-73141832Y-89884463D01*
X-73149621Y-89848232D01*
X-73157331Y-89811992D01*
X-73164961Y-89775741D01*
X-73172513Y-89739479D01*
X-73179986Y-89703203D01*
X-73187380Y-89666912D01*
X-73194697Y-89630603D01*
X-73201936Y-89594276D01*
X-73209098Y-89557928D01*
X-73216184Y-89521556D01*
X-73223193Y-89485160D01*
X-73230126Y-89448737D01*
X-73236983Y-89412284D01*
X-73243766Y-89375800D01*
X-73250473Y-89339283D01*
X-73257106Y-89302729D01*
X-73263666Y-89266136D01*
X-73270151Y-89229502D01*
X-73276564Y-89192824D01*
X-73282903Y-89156099D01*
X-73289171Y-89119325D01*
X-73295366Y-89082499D01*
X-73301491Y-89045617D01*
X-73307544Y-89008676D01*
X-73313526Y-88971672D01*
X-73319439Y-88934604D01*
X-73325282Y-88897466D01*
X-73331056Y-88860255D01*
X-73336761Y-88822967D01*
X-73342398Y-88785599D01*
X-73346080Y-88760895D01*
D10*
X118270406Y-97873865D02*
X123713909Y-103317368D01*
D11*
X-68100464Y-98854530D02*
X-68073344Y-98880226D01*
X-68046169Y-98905864D01*
X-68018939Y-98931444D01*
X-67991654Y-98956965D01*
X-67964314Y-98982428D01*
X-67936920Y-99007833D01*
X-67909472Y-99033179D01*
X-67881969Y-99058466D01*
X-67854412Y-99083694D01*
X-67826802Y-99108863D01*
X-67799137Y-99133973D01*
X-67771418Y-99159024D01*
X-67743646Y-99184016D01*
X-67715821Y-99208948D01*
X-67687942Y-99233820D01*
X-67660009Y-99258633D01*
X-67632024Y-99283386D01*
X-67603986Y-99308079D01*
X-67575894Y-99332712D01*
X-67547750Y-99357284D01*
X-67519554Y-99381797D01*
X-67491305Y-99406249D01*
X-67463003Y-99430641D01*
X-67434650Y-99454972D01*
X-67406244Y-99479242D01*
X-67377786Y-99503452D01*
X-67349277Y-99527600D01*
X-67320716Y-99551688D01*
X-67292103Y-99575714D01*
X-67263439Y-99599679D01*
X-67234723Y-99623583D01*
X-67205957Y-99647425D01*
X-67177139Y-99671206D01*
X-67148270Y-99694925D01*
X-67119351Y-99718582D01*
X-67090381Y-99742177D01*
X-67061361Y-99765710D01*
X-67032290Y-99789181D01*
X-67003169Y-99812590D01*
X-66973997Y-99835936D01*
X-66944776Y-99859220D01*
X-66915505Y-99882441D01*
X-66886185Y-99905599D01*
X-66856815Y-99928695D01*
X-66827395Y-99951728D01*
X-66797926Y-99974698D01*
X-66768408Y-99997604D01*
X-66738841Y-100020448D01*
X-66709225Y-100043228D01*
X-66694399Y-100054594D01*
X-66679560Y-100065945D01*
X-66664710Y-100077279D01*
X-66649847Y-100088598D01*
X-66634972Y-100099900D01*
X-66620085Y-100111187D01*
X-66605186Y-100122458D01*
X-66590275Y-100133713D01*
X-66575352Y-100144952D01*
X-66560417Y-100156175D01*
X-66545470Y-100167382D01*
X-66530511Y-100178572D01*
X-66515540Y-100189747D01*
X-66500557Y-100200906D01*
X-66485562Y-100212049D01*
X-66470555Y-100223176D01*
X-66455536Y-100234287D01*
X-66440505Y-100245381D01*
X-66425463Y-100256460D01*
X-66410408Y-100267522D01*
X-66395342Y-100278568D01*
X-66380264Y-100289599D01*
X-66365174Y-100300613D01*
X-66350072Y-100311611D01*
X-66334959Y-100322592D01*
X-66319833Y-100333558D01*
X-66304696Y-100344507D01*
X-66289548Y-100355440D01*
X-66274387Y-100366357D01*
X-66259215Y-100377258D01*
X-66244032Y-100388142D01*
X-66228836Y-100399010D01*
X-66213629Y-100409862D01*
X-66198411Y-100420698D01*
X-66183181Y-100431517D01*
X-66167939Y-100442320D01*
X-66152685Y-100453107D01*
X-66137421Y-100463877D01*
X-66122144Y-100474631D01*
X-66106856Y-100485369D01*
X-66091557Y-100496090D01*
X-66076246Y-100506795D01*
X-66060924Y-100517483D01*
X-66045590Y-100528155D01*
X-66030245Y-100538811D01*
X-66014888Y-100549450D01*
X-65999520Y-100560073D01*
X-65984141Y-100570679D01*
X-65968751Y-100581269D01*
X-65953348Y-100591842D01*
X-65937935Y-100602399D01*
X-65922511Y-100612939D01*
X-65907075Y-100623463D01*
X-65891628Y-100633970D01*
X-65876169Y-100644461D01*
X-65860700Y-100654935D01*
X-65845219Y-100665393D01*
X-65829727Y-100675834D01*
X-65814224Y-100686258D01*
X-65798710Y-100696666D01*
X-65783184Y-100707057D01*
X-65767648Y-100717432D01*
X-65752100Y-100727790D01*
X-65736541Y-100738131D01*
X-65720972Y-100748456D01*
X-65705391Y-100758764D01*
X-65689799Y-100769055D01*
X-65674196Y-100779329D01*
X-65658583Y-100789587D01*
X-65642958Y-100799828D01*
X-65627322Y-100810053D01*
X-65611675Y-100820260D01*
X-65596018Y-100830451D01*
X-65580349Y-100840625D01*
X-65564670Y-100850783D01*
X-65548980Y-100860923D01*
X-65533279Y-100871047D01*
X-65517567Y-100881154D01*
X-65501844Y-100891244D01*
X-65486111Y-100901317D01*
X-65470366Y-100911374D01*
X-65454611Y-100921413D01*
X-65438846Y-100931436D01*
X-65423069Y-100941442D01*
X-65407282Y-100951430D01*
X-65391484Y-100961402D01*
X-65375676Y-100971357D01*
X-65359856Y-100981296D01*
X-65344027Y-100991217D01*
X-65328186Y-101001121D01*
X-65312335Y-101011008D01*
X-65296473Y-101020878D01*
X-65280602Y-101030732D01*
X-65264719Y-101040568D01*
X-65248826Y-101050387D01*
X-65232922Y-101060189D01*
X-65217008Y-101069974D01*
X-65201083Y-101079743D01*
X-65185148Y-101089494D01*
X-65169202Y-101099228D01*
X-65153247Y-101108945D01*
X-65137280Y-101118645D01*
X-65121304Y-101128327D01*
X-65105316Y-101137993D01*
X-65089319Y-101147642D01*
X-65073311Y-101157273D01*
X-65057294Y-101166887D01*
X-65041265Y-101176484D01*
X-65025227Y-101186064D01*
X-65009178Y-101195627D01*
X-64993119Y-101205173D01*
X-64977049Y-101214701D01*
X-64960970Y-101224212D01*
X-64944880Y-101233706D01*
X-64928781Y-101243183D01*
X-64912671Y-101252642D01*
X-64896551Y-101262084D01*
X-64880421Y-101271510D01*
X-64864281Y-101280917D01*
X-64848130Y-101290308D01*
X-64831970Y-101299681D01*
X-64815799Y-101309037D01*
X-64799619Y-101318375D01*
X-64783429Y-101327696D01*
X-64767229Y-101337000D01*
X-64751018Y-101346286D01*
X-64734798Y-101355555D01*
X-64718568Y-101364807D01*
X-64702328Y-101374041D01*
X-64686078Y-101383259D01*
X-64669818Y-101392458D01*
X-64653549Y-101401640D01*
X-64637269Y-101410805D01*
X-64620980Y-101419952D01*
X-64604681Y-101429082D01*
X-64588372Y-101438195D01*
X-64572054Y-101447289D01*
X-64555725Y-101456367D01*
X-64539387Y-101465427D01*
X-64523039Y-101474470D01*
X-64506682Y-101483494D01*
X-64490315Y-101492502D01*
X-64473939Y-101501492D01*
X-64457552Y-101510464D01*
X-64441156Y-101519419D01*
X-64424751Y-101528357D01*
X-64408336Y-101537276D01*
X-64391911Y-101546179D01*
X-64375477Y-101555063D01*
X-64359033Y-101563930D01*
X-64342580Y-101572779D01*
X-64326117Y-101581611D01*
X-64309645Y-101590425D01*
X-64293163Y-101599222D01*
X-64276673Y-101608001D01*
X-64260172Y-101616762D01*
X-64243663Y-101625506D01*
X-64227143Y-101634232D01*
X-64210615Y-101642940D01*
X-64194077Y-101651630D01*
X-64177530Y-101660303D01*
X-64160973Y-101668958D01*
X-64144408Y-101677596D01*
X-64127833Y-101686215D01*
X-64111249Y-101694817D01*
X-64094655Y-101703402D01*
X-64078053Y-101711968D01*
X-64061440Y-101720517D01*
X-64044820Y-101729047D01*
X-64028189Y-101737561D01*
X-64011551Y-101746056D01*
X-63994902Y-101754533D01*
X-63978245Y-101762993D01*
X-63961578Y-101771435D01*
X-63944903Y-101779859D01*
X-63928218Y-101788265D01*
X-63911524Y-101796653D01*
X-63894821Y-101805024D01*
X-63878110Y-101813376D01*
X-63861389Y-101821711D01*
X-63855603Y-101824590D01*
D10*
X67299292Y36811331D02*
X22435292Y36811331D01*
X95883513Y-97166758D02*
X95883513Y-64974218D01*
X-57265660Y-103610261D02*
X89440010Y-103610261D01*
D11*
X156602021Y-99969195D02*
X156572836Y-99991867D01*
X156543596Y-100014480D01*
X156514301Y-100037034D01*
X156484952Y-100059530D01*
X156455547Y-100081967D01*
X156426088Y-100104345D01*
X156396575Y-100126664D01*
X156367007Y-100148923D01*
X156337386Y-100171123D01*
X156307710Y-100193264D01*
X156277981Y-100215345D01*
X156248198Y-100237366D01*
X156218362Y-100259327D01*
X156188472Y-100281228D01*
X156158529Y-100303069D01*
X156128533Y-100324849D01*
X156098484Y-100346569D01*
X156068383Y-100368229D01*
X156038229Y-100389827D01*
X156008023Y-100411365D01*
X155977764Y-100432842D01*
X155947454Y-100454257D01*
X155917091Y-100475612D01*
X155886677Y-100496904D01*
X155856211Y-100518136D01*
X155825694Y-100539306D01*
X155795126Y-100560413D01*
X155764507Y-100581459D01*
X155733836Y-100602443D01*
X155703115Y-100623365D01*
X155672343Y-100644224D01*
X155641521Y-100665021D01*
X155610649Y-100685755D01*
X155579727Y-100706427D01*
X155548754Y-100727036D01*
X155517732Y-100747581D01*
X155486661Y-100768064D01*
X155455540Y-100788483D01*
X155424370Y-100808839D01*
X155393150Y-100829132D01*
X155361882Y-100849361D01*
X155330566Y-100869526D01*
X155299200Y-100889627D01*
X155267787Y-100909664D01*
X155236325Y-100929637D01*
X155204815Y-100949545D01*
X155173258Y-100969390D01*
X155141652Y-100989169D01*
X155110000Y-101008884D01*
X155078300Y-101028535D01*
X155046553Y-101048120D01*
X155014759Y-101067640D01*
X154982918Y-101087095D01*
X154951031Y-101106485D01*
X154919098Y-101125809D01*
X154887118Y-101145068D01*
X154855092Y-101164261D01*
X154823021Y-101183389D01*
X154790904Y-101202450D01*
X154758741Y-101221445D01*
X154726534Y-101240374D01*
X154694281Y-101259237D01*
X154661983Y-101278033D01*
X154629641Y-101296763D01*
X154597254Y-101315426D01*
X154564823Y-101334023D01*
X154532348Y-101352552D01*
X154499829Y-101371014D01*
X154467267Y-101389409D01*
X154434660Y-101407737D01*
X154402011Y-101425998D01*
X154369318Y-101444191D01*
X154336583Y-101462316D01*
X154303805Y-101480373D01*
X154270984Y-101498363D01*
X154238121Y-101516284D01*
X154205215Y-101534138D01*
X154172268Y-101551923D01*
X154139279Y-101569640D01*
X154106249Y-101587288D01*
X154073177Y-101604867D01*
X154040064Y-101622378D01*
X154006911Y-101639820D01*
X153973716Y-101657193D01*
X153940481Y-101674497D01*
X153907206Y-101691732D01*
X153873890Y-101708898D01*
X153840535Y-101725994D01*
X153807140Y-101743020D01*
X153773705Y-101759977D01*
X153740232Y-101776864D01*
X153706719Y-101793681D01*
X153673167Y-101810429D01*
X153639576Y-101827106D01*
X153605948Y-101843713D01*
X153572280Y-101860249D01*
X153538575Y-101876715D01*
X153504832Y-101893111D01*
X153471052Y-101909436D01*
X153437234Y-101925690D01*
X153403379Y-101941873D01*
X153369487Y-101957985D01*
X153335558Y-101974026D01*
X153301592Y-101989996D01*
X153267590Y-102005895D01*
X153233553Y-102021722D01*
X153199479Y-102037478D01*
X153165369Y-102053162D01*
X153131225Y-102068774D01*
X153097044Y-102084315D01*
X153062829Y-102099783D01*
X153028579Y-102115180D01*
X152994295Y-102130504D01*
X152959976Y-102145756D01*
X152925622Y-102160936D01*
X152891235Y-102176043D01*
X152856815Y-102191077D01*
X152822360Y-102206039D01*
X152787873Y-102220929D01*
X152753352Y-102235745D01*
X152718798Y-102250488D01*
X152684212Y-102265159D01*
X152649594Y-102279756D01*
X152614943Y-102294280D01*
X152580261Y-102308730D01*
X152545546Y-102323108D01*
X152510800Y-102337411D01*
X152476023Y-102351641D01*
X152441215Y-102365797D01*
X152406376Y-102379880D01*
X152371507Y-102393888D01*
X152336607Y-102407823D01*
X152301677Y-102421683D01*
X152266717Y-102435469D01*
X152231727Y-102449181D01*
X152196708Y-102462819D01*
X152161659Y-102476382D01*
X152126582Y-102489870D01*
X152091476Y-102503284D01*
X152056341Y-102516623D01*
X152021178Y-102529888D01*
X151985987Y-102543077D01*
X151950767Y-102556192D01*
X151915521Y-102569231D01*
X151880247Y-102582195D01*
X151844945Y-102595084D01*
X151827284Y-102601500D01*
X151809617Y-102607898D01*
X151791943Y-102614276D01*
X151774262Y-102620636D01*
X151756575Y-102626977D01*
X151738880Y-102633299D01*
X151721180Y-102639602D01*
X151703473Y-102645886D01*
X151685759Y-102652151D01*
X151668039Y-102658398D01*
X151650312Y-102664625D01*
X151632579Y-102670833D01*
X151614840Y-102677023D01*
X151597094Y-102683193D01*
X151579342Y-102689345D01*
X151561584Y-102695478D01*
X151543819Y-102701591D01*
X151526048Y-102707686D01*
X151508271Y-102713761D01*
X151490488Y-102719818D01*
X151472698Y-102725855D01*
X151454903Y-102731874D01*
X151437101Y-102737873D01*
X151419293Y-102743854D01*
X151401479Y-102749815D01*
X151383659Y-102755757D01*
X151365834Y-102761680D01*
X151348002Y-102767584D01*
X151330164Y-102773469D01*
X151312320Y-102779335D01*
X151294471Y-102785182D01*
X151276616Y-102791009D01*
X151258755Y-102796818D01*
X151240887Y-102802607D01*
X151223015Y-102808377D01*
X151205136Y-102814128D01*
X151187252Y-102819860D01*
X151169363Y-102825572D01*
X151151467Y-102831266D01*
X151133566Y-102836940D01*
X151115660Y-102842595D01*
X151097747Y-102848231D01*
X151079830Y-102853847D01*
X151061907Y-102859444D01*
X151043978Y-102865022D01*
X151026044Y-102870581D01*
X151008105Y-102876121D01*
X150990160Y-102881641D01*
X150972210Y-102887142D01*
X150954254Y-102892623D01*
X150936294Y-102898086D01*
X150918327Y-102903529D01*
X150900356Y-102908952D01*
X150882380Y-102914357D01*
X150864398Y-102919742D01*
X150846411Y-102925108D01*
X150828420Y-102930454D01*
X150810423Y-102935781D01*
X150792421Y-102941089D01*
X150774414Y-102946377D01*
X150756402Y-102951646D01*
X150738385Y-102956896D01*
X150720363Y-102962126D01*
X150702336Y-102967336D01*
X150684305Y-102972528D01*
X150666268Y-102977700D01*
X150648227Y-102982852D01*
X150630180Y-102987985D01*
X150612130Y-102993099D01*
X150594074Y-102998193D01*
X150576014Y-103003268D01*
X150557949Y-103008323D01*
X150539879Y-103013359D01*
X150521805Y-103018375D01*
X150503726Y-103023372D01*
X150485643Y-103028349D01*
X150467555Y-103033307D01*
X150449463Y-103038245D01*
X150431366Y-103043164D01*
X150413264Y-103048063D01*
X150395159Y-103052943D01*
X150377049Y-103057803D01*
X150358935Y-103062644D01*
X150340816Y-103067465D01*
X150322693Y-103072266D01*
X150304565Y-103077048D01*
X150286434Y-103081811D01*
X150268298Y-103086554D01*
X150250159Y-103091277D01*
X150232014Y-103095981D01*
X150213867Y-103100665D01*
X150195714Y-103105329D01*
X150177558Y-103109974D01*
X150159397Y-103114599D01*
X150141234Y-103119205D01*
X150123065Y-103123791D01*
X150104893Y-103128357D01*
X150086717Y-103132904D01*
X150068537Y-103137431D01*
X150050353Y-103141938D01*
X150032166Y-103146426D01*
X150013974Y-103150894D01*
X149995779Y-103155343D01*
X149977580Y-103159771D01*
X149959378Y-103164180D01*
X149941171Y-103168570D01*
X149922961Y-103172939D01*
X149904747Y-103177290D01*
X149886531Y-103181620D01*
X149868310Y-103185930D01*
X149850086Y-103190221D01*
X149831858Y-103194492D01*
X149813627Y-103198744D01*
X149795392Y-103202975D01*
X149777154Y-103207187D01*
X149758912Y-103211379D01*
X149740668Y-103215552D01*
X149722420Y-103219704D01*
X149704169Y-103223837D01*
X149685914Y-103227950D01*
X149667656Y-103232044D01*
X149649395Y-103236117D01*
X149631131Y-103240171D01*
X149612863Y-103244205D01*
X149594593Y-103248219D01*
X149576319Y-103252214D01*
X149558043Y-103256188D01*
X149539762Y-103260143D01*
X149521480Y-103264078D01*
X149503194Y-103267993D01*
X149484906Y-103271888D01*
X149466614Y-103275764D01*
X149448320Y-103279619D01*
X149430022Y-103283455D01*
X149411722Y-103287271D01*
X149393419Y-103291067D01*
X149375114Y-103294843D01*
X149356805Y-103298600D01*
X149338494Y-103302336D01*
X149320180Y-103306053D01*
X149301864Y-103309750D01*
X149283544Y-103313427D01*
X149265223Y-103317084D01*
X149246898Y-103320721D01*
X149228572Y-103324338D01*
X149210242Y-103327936D01*
X149191911Y-103331513D01*
X149173576Y-103335071D01*
X149155240Y-103338608D01*
X149136900Y-103342126D01*
X149118559Y-103345624D01*
X149100215Y-103349102D01*
X149081869Y-103352560D01*
X149063520Y-103355998D01*
X149045170Y-103359416D01*
X149026817Y-103362815D01*
X149008462Y-103366193D01*
X148990104Y-103369551D01*
X148971746Y-103372890D01*
X148953383Y-103376208D01*
X148935021Y-103379507D01*
X148916654Y-103382785D01*
X148898287Y-103386044D01*
X148879917Y-103389282D01*
X148861546Y-103392501D01*
X148843172Y-103395700D01*
X148824797Y-103398879D01*
X148806419Y-103402037D01*
X148788040Y-103405176D01*
X148769659Y-103408295D01*
X148751277Y-103411394D01*
X148732891Y-103414473D01*
X148714506Y-103417531D01*
X148696117Y-103420570D01*
X148677728Y-103423589D01*
X148659336Y-103426588D01*
X148640944Y-103429567D01*
X148622548Y-103432526D01*
X148604153Y-103435465D01*
X148585754Y-103438384D01*
X148567356Y-103441282D01*
X148548955Y-103444161D01*
X148530553Y-103447020D01*
X148512149Y-103449859D01*
X148493745Y-103452677D01*
X148475337Y-103455476D01*
X148456931Y-103458255D01*
X148438521Y-103461014D01*
X148420111Y-103463752D01*
X148401699Y-103466471D01*
X148383287Y-103469169D01*
X148364872Y-103471848D01*
X148346458Y-103474506D01*
X148328041Y-103477145D01*
X148309624Y-103479763D01*
X148291205Y-103482362D01*
X148272786Y-103484940D01*
X148254364Y-103487498D01*
X148235944Y-103490036D01*
X148217520Y-103492554D01*
X148199097Y-103495052D01*
X148180672Y-103497531D01*
X148162247Y-103499988D01*
X148143820Y-103502426D01*
X148125394Y-103504844D01*
X148106965Y-103507242D01*
X148088537Y-103509619D01*
X148070107Y-103511977D01*
X148051678Y-103514315D01*
X148033246Y-103516632D01*
X148014815Y-103518929D01*
X147996382Y-103521207D01*
X147977950Y-103523464D01*
X147959516Y-103525701D01*
X147941083Y-103527918D01*
X147922647Y-103530115D01*
X147904213Y-103532292D01*
X147885776Y-103534449D01*
X147867341Y-103536586D01*
X147848904Y-103538702D01*
X147830468Y-103540799D01*
X147812030Y-103542875D01*
X147793593Y-103544932D01*
X147775154Y-103546968D01*
X147756717Y-103548984D01*
X147738278Y-103550980D01*
X147719840Y-103552956D01*
X147701400Y-103554912D01*
X147682962Y-103556848D01*
X147664522Y-103558764D01*
X147646083Y-103560659D01*
X147627643Y-103562535D01*
X147609204Y-103564390D01*
X147590764Y-103566226D01*
X147572325Y-103568041D01*
X147553884Y-103569836D01*
X147535446Y-103571611D01*
X147517005Y-103573366D01*
X147498567Y-103575101D01*
X147480126Y-103576815D01*
X147461688Y-103578510D01*
X147443248Y-103580185D01*
X147424810Y-103581839D01*
X147406370Y-103583473D01*
X147387933Y-103585087D01*
X147369494Y-103586682D01*
X147351057Y-103588255D01*
X147332618Y-103589809D01*
X147314182Y-103591343D01*
X147295744Y-103592857D01*
X147277309Y-103594350D01*
X147258872Y-103595824D01*
X147240438Y-103597277D01*
X147222001Y-103598711D01*
X147203568Y-103600124D01*
X147185133Y-103601517D01*
X147166700Y-103602890D01*
X147148266Y-103604243D01*
X147129835Y-103605575D01*
X147111402Y-103606888D01*
X147078186Y-103609203D01*
D10*
X100366169Y36811260D02*
X100416741Y36811260D01*
D11*
X163082379Y-89141232D02*
X163076412Y-89175889D01*
X163070319Y-89210811D01*
X163064100Y-89245987D01*
X163057757Y-89281404D01*
X163051291Y-89317053D01*
X163044704Y-89352919D01*
X163037997Y-89388991D01*
X163031174Y-89425257D01*
X163024234Y-89461703D01*
X163017182Y-89498318D01*
X163010017Y-89535088D01*
X163006393Y-89553529D01*
X163002743Y-89572001D01*
X162999066Y-89590507D01*
X162995362Y-89609043D01*
X162991632Y-89627609D01*
X162987876Y-89646202D01*
X162984095Y-89664820D01*
X162980288Y-89683465D01*
X162976456Y-89702129D01*
X162972599Y-89720818D01*
X162968718Y-89739522D01*
X162964812Y-89758248D01*
X162960884Y-89776986D01*
X162956930Y-89795744D01*
X162952955Y-89814508D01*
X162948956Y-89833291D01*
X162944935Y-89852075D01*
X162940891Y-89870877D01*
X162936826Y-89889675D01*
X162932738Y-89908489D01*
X162928631Y-89927294D01*
X162924501Y-89946114D01*
X162920353Y-89964921D01*
X162916181Y-89983741D01*
X162911993Y-90002543D01*
X162907782Y-90021356D01*
X162903555Y-90040147D01*
X162899306Y-90058948D01*
X162895042Y-90077722D01*
X162890756Y-90096504D01*
X162886456Y-90115255D01*
X162882135Y-90134012D01*
X162877800Y-90152734D01*
X162873444Y-90171462D01*
X162869077Y-90190149D01*
X162864689Y-90208840D01*
X162860289Y-90227488D01*
X162855869Y-90246137D01*
X162851440Y-90264739D01*
X162846990Y-90283341D01*
X162842532Y-90301892D01*
X162838053Y-90320441D01*
X162833567Y-90338936D01*
X162829061Y-90357427D01*
X162824549Y-90375860D01*
X162820017Y-90394289D01*
X162815479Y-90412656D01*
X162810923Y-90431016D01*
X162806362Y-90449311D01*
X162801782Y-90467599D01*
X162797199Y-90485818D01*
X162792598Y-90504028D01*
X162787994Y-90522166D01*
X162783372Y-90540295D01*
X162778748Y-90558347D01*
X162774106Y-90576389D01*
X162769464Y-90594352D01*
X162764805Y-90612303D01*
X162760146Y-90630172D01*
X162755470Y-90648027D01*
X162750795Y-90665799D01*
X162746103Y-90683555D01*
X162741413Y-90701225D01*
X162736707Y-90718878D01*
X162732004Y-90736442D01*
X162727285Y-90753989D01*
X162722570Y-90771444D01*
X162717839Y-90788880D01*
X162713113Y-90806222D01*
X162708372Y-90823544D01*
X162703636Y-90840770D01*
X162698885Y-90857976D01*
X162690244Y-90889074D01*
D10*
X-56199485Y36858505D02*
X-59444030Y36858505D01*
X96350113Y-64128355D02*
X104609795Y-58919808D01*
D11*
X163332009Y-86200250D02*
X163331999Y-86223705D01*
X163331969Y-86247044D01*
X163331919Y-86270120D01*
X163331850Y-86293084D01*
X163331761Y-86315797D01*
X163331652Y-86338401D01*
X163331525Y-86360765D01*
X163331378Y-86383024D01*
X163331213Y-86405053D01*
X163331029Y-86426980D01*
X163330826Y-86448686D01*
X163330604Y-86470295D01*
X163330364Y-86491693D01*
X163330106Y-86512995D01*
X163329829Y-86534096D01*
X163329534Y-86555105D01*
X163329222Y-86575921D01*
X163328891Y-86596648D01*
X163328542Y-86617191D01*
X163328176Y-86637647D01*
X163327792Y-86657928D01*
X163327390Y-86678125D01*
X163326971Y-86698154D01*
X163326534Y-86718102D01*
X163326080Y-86737890D01*
X163325608Y-86757600D01*
X163325120Y-86777157D01*
X163324614Y-86796638D01*
X163324091Y-86815974D01*
X163323551Y-86835237D01*
X163322994Y-86854361D01*
X163322419Y-86873415D01*
X163321828Y-86892336D01*
X163321219Y-86911190D01*
X163320595Y-86929918D01*
X163319952Y-86948581D01*
X163319294Y-86967125D01*
X163318618Y-86985606D01*
X163317925Y-87003973D01*
X163317216Y-87022280D01*
X163316490Y-87040481D01*
X163315747Y-87058622D01*
X163314987Y-87076663D01*
X163314210Y-87094648D01*
X163313417Y-87112537D01*
X163312607Y-87130372D01*
X163311780Y-87148119D01*
X163310936Y-87165813D01*
X163310076Y-87183424D01*
X163309199Y-87200984D01*
X163308305Y-87218467D01*
X163307393Y-87235902D01*
X163306466Y-87253264D01*
X163305521Y-87270580D01*
X163304559Y-87287830D01*
X163303580Y-87305035D01*
X163302584Y-87322179D01*
X163301571Y-87339280D01*
X163300541Y-87356326D01*
X163299494Y-87373331D01*
X163298429Y-87390285D01*
X163297348Y-87407201D01*
X163296248Y-87424071D01*
X163295132Y-87440905D01*
X163293998Y-87457698D01*
X163292846Y-87474457D01*
X163291676Y-87491181D01*
X163290489Y-87507871D01*
X163289284Y-87524532D01*
X163288061Y-87541162D01*
X163286820Y-87557767D01*
X163285562Y-87574342D01*
X163284284Y-87590899D01*
X163282989Y-87607428D01*
X163280342Y-87640432D01*
X163277621Y-87673368D01*
X163274824Y-87706252D01*
X163271950Y-87739098D01*
X163268999Y-87771919D01*
X163265967Y-87804731D01*
X163262855Y-87837550D01*
X163259661Y-87870389D01*
X163256383Y-87903264D01*
X163253020Y-87936192D01*
X163249570Y-87969189D01*
X163246030Y-88002270D01*
X163242399Y-88035453D01*
X163238675Y-88068756D01*
X163234854Y-88102197D01*
X163230936Y-88135794D01*
X163226917Y-88169567D01*
X163222794Y-88203535D01*
X163218565Y-88237720D01*
X163214226Y-88272144D01*
X163209773Y-88306829D01*
X163205203Y-88341799D01*
X163200512Y-88377080D01*
X163195695Y-88412699D01*
X163190749Y-88448682D01*
X163185668Y-88485061D01*
X163180447Y-88521867D01*
X163175080Y-88559134D01*
X163169560Y-88596897D01*
X163163882Y-88635195D01*
X163158038Y-88674071D01*
X163152019Y-88713570D01*
X163145818Y-88753739D01*
X163139424Y-88794633D01*
X163132827Y-88836309D01*
X163126015Y-88878831D01*
X163118976Y-88922271D01*
X163111695Y-88966704D01*
X163104156Y-89012220D01*
X163096342Y-89058915D01*
X163088230Y-89106899D01*
X163082379Y-89141232D01*
X162690244Y-90889074D02*
X162680324Y-90924485D01*
X162670324Y-90959884D01*
X162660245Y-90995272D01*
X162650086Y-91030648D01*
X162639846Y-91066012D01*
X162629528Y-91101364D01*
X162619129Y-91136703D01*
X162608651Y-91172030D01*
X162598093Y-91207344D01*
X162587456Y-91242644D01*
X162576739Y-91277932D01*
X162565942Y-91313206D01*
X162555067Y-91348466D01*
X162544111Y-91383712D01*
X162533077Y-91418944D01*
X162521963Y-91454162D01*
X162510770Y-91489365D01*
X162499497Y-91524553D01*
X162488145Y-91559727D01*
X162476715Y-91594885D01*
X162465205Y-91630027D01*
X162453616Y-91665155D01*
X162441948Y-91700266D01*
X162430201Y-91735361D01*
X162418375Y-91770440D01*
X162406471Y-91805502D01*
X162394487Y-91840548D01*
X162382425Y-91875577D01*
X162370284Y-91910588D01*
X162358065Y-91945582D01*
X162345766Y-91980559D01*
X162333390Y-92015517D01*
X162320935Y-92050458D01*
X162308401Y-92085381D01*
X162295790Y-92120284D01*
X162283099Y-92155170D01*
X162270331Y-92190036D01*
X162257485Y-92224883D01*
X162244560Y-92259711D01*
X162231557Y-92294519D01*
X162218477Y-92329308D01*
X162205318Y-92364076D01*
X162192081Y-92398824D01*
X162178767Y-92433552D01*
X162165375Y-92468258D01*
X162151906Y-92502944D01*
X162138358Y-92537609D01*
X162124734Y-92572253D01*
X162111031Y-92606874D01*
X162097252Y-92641474D01*
X162083395Y-92676052D01*
X162069461Y-92710608D01*
X162055449Y-92745141D01*
X162041361Y-92779651D01*
X162027195Y-92814139D01*
X162012953Y-92848603D01*
X161998634Y-92883044D01*
X161984238Y-92917461D01*
X161969765Y-92951854D01*
X161955215Y-92986223D01*
X161940589Y-93020568D01*
X161925887Y-93054889D01*
X161911108Y-93089184D01*
X161896253Y-93123455D01*
X161881321Y-93157700D01*
X161866313Y-93191920D01*
X161851230Y-93226114D01*
X161836070Y-93260282D01*
X161820834Y-93294424D01*
X161805523Y-93328539D01*
X161790136Y-93362628D01*
X161774673Y-93396690D01*
X161759135Y-93430725D01*
X161743521Y-93464733D01*
X161727831Y-93498713D01*
X161712067Y-93532666D01*
X161696227Y-93566590D01*
X161680312Y-93600486D01*
X161664323Y-93634354D01*
X161648258Y-93668193D01*
X161632118Y-93702003D01*
X161615904Y-93735784D01*
X161599615Y-93769536D01*
X161583252Y-93803258D01*
X161566814Y-93836950D01*
X161550302Y-93870612D01*
X161533715Y-93904243D01*
X161517055Y-93937845D01*
X161500320Y-93971415D01*
X161483512Y-94004954D01*
X161466629Y-94038463D01*
X161449673Y-94071939D01*
X161432644Y-94105384D01*
X161415540Y-94138797D01*
X161398364Y-94172178D01*
X161381114Y-94205527D01*
X161363791Y-94238843D01*
X161346395Y-94272126D01*
X161328925Y-94305376D01*
X161311383Y-94338593D01*
X161293769Y-94371776D01*
X161276081Y-94404925D01*
X161258321Y-94438040D01*
X161240489Y-94471122D01*
X161222584Y-94504168D01*
X161204607Y-94537180D01*
X161186559Y-94570157D01*
X161168438Y-94603099D01*
X161150245Y-94636006D01*
X161131980Y-94668877D01*
X161113644Y-94701712D01*
X161095237Y-94734511D01*
X161076758Y-94767274D01*
X161058208Y-94800000D01*
X161039587Y-94832689D01*
X161020894Y-94865342D01*
X161002131Y-94897957D01*
X160983297Y-94930535D01*
X160964393Y-94963075D01*
X160945418Y-94995577D01*
X160926372Y-95028041D01*
X160907257Y-95060467D01*
X160888071Y-95092854D01*
X160868815Y-95125203D01*
X160849490Y-95157512D01*
X160830094Y-95189782D01*
X160810629Y-95222013D01*
X160791095Y-95254204D01*
X160771491Y-95286355D01*
X160751818Y-95318466D01*
X160732076Y-95350536D01*
X160712265Y-95382566D01*
X160692385Y-95414555D01*
X160672437Y-95446503D01*
X160652420Y-95478410D01*
X160632334Y-95510275D01*
X160612181Y-95542098D01*
X160591959Y-95573880D01*
X160571669Y-95605619D01*
X160551311Y-95637316D01*
X160530886Y-95668970D01*
X160510393Y-95700582D01*
X160489833Y-95732150D01*
X160469205Y-95763676D01*
X160448510Y-95795157D01*
X160427748Y-95826595D01*
X160417342Y-95842298D01*
X160406920Y-95857989D01*
X160396480Y-95873670D01*
X160386024Y-95889339D01*
X160375552Y-95904997D01*
X160365062Y-95920645D01*
X160354556Y-95936281D01*
X160344034Y-95951906D01*
X160333495Y-95967519D01*
X160322939Y-95983122D01*
X160312367Y-95998713D01*
X160301778Y-96014293D01*
X160291173Y-96029861D01*
X160280552Y-96045419D01*
X160269914Y-96060964D01*
X160259259Y-96076499D01*
X160248588Y-96092022D01*
X160237901Y-96107534D01*
X160227197Y-96123034D01*
X160216477Y-96138523D01*
X160205741Y-96154000D01*
X160194988Y-96169465D01*
X160184219Y-96184919D01*
X160173433Y-96200362D01*
X160162632Y-96215792D01*
X160151814Y-96231212D01*
X160140980Y-96246619D01*
X160130129Y-96262015D01*
X160119263Y-96277399D01*
X160108380Y-96292771D01*
X160097481Y-96308131D01*
X160086566Y-96323480D01*
X160075635Y-96338817D01*
X160064688Y-96354142D01*
X160053725Y-96369455D01*
X160042745Y-96384756D01*
X160031750Y-96400045D01*
X160020738Y-96415322D01*
X160009711Y-96430587D01*
X159998668Y-96445840D01*
X159987608Y-96461081D01*
X159976533Y-96476310D01*
X159965442Y-96491527D01*
X159954334Y-96506732D01*
X159943212Y-96521924D01*
X159932073Y-96537105D01*
X159920918Y-96552273D01*
X159909747Y-96567429D01*
X159898561Y-96582572D01*
X159887359Y-96597704D01*
X159876141Y-96612823D01*
X159864907Y-96627930D01*
X159853658Y-96643024D01*
X159842392Y-96658106D01*
X159831112Y-96673175D01*
X159819815Y-96688233D01*
X159808503Y-96703277D01*
X159797175Y-96718310D01*
X159785832Y-96733329D01*
X159774473Y-96748336D01*
X159763099Y-96763330D01*
X159751708Y-96778313D01*
X159740303Y-96793282D01*
X159728882Y-96808238D01*
X159717445Y-96823182D01*
X159705993Y-96838114D01*
X159694526Y-96853032D01*
X159683043Y-96867938D01*
X159671544Y-96882831D01*
X159660030Y-96897711D01*
X159648502Y-96912578D01*
X159636957Y-96927433D01*
X159625397Y-96942274D01*
X159613822Y-96957104D01*
X159602232Y-96971919D01*
X159590626Y-96986722D01*
X159579005Y-97001512D01*
X159567369Y-97016289D01*
X159555718Y-97031053D01*
X159544051Y-97045804D01*
X159532370Y-97060541D01*
X159520673Y-97075266D01*
X159508961Y-97089977D01*
X159497234Y-97104676D01*
X159485492Y-97119361D01*
X159473735Y-97134033D01*
X159461963Y-97148692D01*
X159450176Y-97163338D01*
X159438374Y-97177970D01*
X159426556Y-97192589D01*
X159414724Y-97207194D01*
X159402877Y-97221787D01*
X159391015Y-97236365D01*
X159379138Y-97250931D01*
X159367247Y-97265483D01*
X159355340Y-97280022D01*
X159343419Y-97294547D01*
X159331483Y-97309059D01*
X159319532Y-97323557D01*
X159307566Y-97338042D01*
X159295586Y-97352513D01*
X159283590Y-97366971D01*
X159271581Y-97381414D01*
X159259556Y-97395845D01*
X159247517Y-97410261D01*
X159235463Y-97424665D01*
X159223395Y-97439054D01*
X159211311Y-97453430D01*
X159199214Y-97467791D01*
X159187101Y-97482139D01*
X159174975Y-97496473D01*
X159162833Y-97510794D01*
X159150678Y-97525100D01*
X159138507Y-97539393D01*
X159126323Y-97553672D01*
X159114124Y-97567937D01*
X159101911Y-97582188D01*
X159089682Y-97596425D01*
X159077441Y-97610648D01*
X159065184Y-97624857D01*
X159052913Y-97639052D01*
X159040628Y-97653233D01*
X159028329Y-97667399D01*
X159016015Y-97681553D01*
X159003687Y-97695691D01*
X158991345Y-97709816D01*
X158978989Y-97723926D01*
X158966618Y-97738022D01*
X158954234Y-97752104D01*
X158941835Y-97766172D01*
X158929423Y-97780225D01*
X158916995Y-97794265D01*
X158904555Y-97808289D01*
X158892099Y-97822300D01*
X158879631Y-97836296D01*
X158867147Y-97850278D01*
X158854651Y-97864245D01*
X158842140Y-97878199D01*
X158829615Y-97892137D01*
X158817076Y-97906061D01*
X158804524Y-97919971D01*
X158791957Y-97933866D01*
X158779377Y-97947746D01*
X158766783Y-97961613D01*
X158754175Y-97975464D01*
X158741553Y-97989301D01*
X158728918Y-98003123D01*
X158716269Y-98016932D01*
X158703607Y-98030724D01*
X158690930Y-98044503D01*
X158678240Y-98058266D01*
X158665536Y-98072016D01*
X158652819Y-98085749D01*
X158640087Y-98099469D01*
X158627343Y-98113173D01*
X158614585Y-98126864D01*
X158601813Y-98140538D01*
X158589028Y-98154199D01*
X158576230Y-98167844D01*
X158563417Y-98181475D01*
X158550592Y-98195090D01*
X158537753Y-98208691D01*
X158524901Y-98222276D01*
X158512035Y-98235847D01*
X158499156Y-98249402D01*
X158486263Y-98262944D01*
X158473358Y-98276469D01*
X158460438Y-98289980D01*
X158447507Y-98303475D01*
X158434561Y-98316956D01*
X158421603Y-98330421D01*
X158408630Y-98343871D01*
X158395646Y-98357306D01*
X158382647Y-98370726D01*
X158369636Y-98384130D01*
X158356611Y-98397520D01*
X158343574Y-98410894D01*
X158330523Y-98424253D01*
X158317460Y-98437596D01*
X158304383Y-98450925D01*
X158291294Y-98464238D01*
X158278191Y-98477536D01*
X158265076Y-98490818D01*
X158251947Y-98504085D01*
X158238806Y-98517336D01*
X158225651Y-98530573D01*
X158212485Y-98543793D01*
X158199304Y-98556999D01*
X158186112Y-98570188D01*
X158172906Y-98583363D01*
X158159688Y-98596521D01*
X158146457Y-98609665D01*
X158133214Y-98622791D01*
X158119956Y-98635904D01*
X158106688Y-98649000D01*
X158093406Y-98662081D01*
X158080112Y-98675146D01*
X158066804Y-98688196D01*
X158053485Y-98701229D01*
X158040152Y-98714248D01*
X158026808Y-98727250D01*
X158013450Y-98740237D01*
X158000081Y-98753208D01*
X157986698Y-98766164D01*
X157973304Y-98779102D01*
X157959897Y-98792027D01*
X157946478Y-98804934D01*
X157933045Y-98817826D01*
X157919602Y-98830702D01*
X157906144Y-98843563D01*
X157892676Y-98856406D01*
X157879194Y-98869236D01*
X157865702Y-98882047D01*
X157852195Y-98894845D01*
X157838678Y-98907624D01*
X157825147Y-98920390D01*
X157811605Y-98933137D01*
X157798050Y-98945871D01*
X157784484Y-98958586D01*
X157770905Y-98971288D01*
X157757315Y-98983971D01*
X157743711Y-98996640D01*
X157730097Y-99009292D01*
X157716469Y-99021928D01*
X157702831Y-99034547D01*
X157689179Y-99047152D01*
X157675517Y-99059739D01*
X157661841Y-99072311D01*
X157648155Y-99084865D01*
X157634456Y-99097405D01*
X157620746Y-99109926D01*
X157607023Y-99122433D01*
X157593289Y-99134923D01*
X157579543Y-99147397D01*
X157565786Y-99159854D01*
X157552015Y-99172296D01*
X157538235Y-99184719D01*
X157524441Y-99197128D01*
X157510637Y-99209520D01*
X157496820Y-99221896D01*
X157482993Y-99234254D01*
X157469153Y-99246598D01*
X157455302Y-99258923D01*
X157441439Y-99271233D01*
X157427565Y-99283526D01*
X157413678Y-99295803D01*
X157399782Y-99308063D01*
X157385872Y-99320307D01*
X157371953Y-99332533D01*
X157358020Y-99344744D01*
X157344078Y-99356938D01*
X157330123Y-99369116D01*
X157316158Y-99381275D01*
X157302179Y-99393420D01*
X157288192Y-99405547D01*
X157274191Y-99417658D01*
X157260181Y-99429751D01*
X157246157Y-99441829D01*
X157232125Y-99453889D01*
X157218079Y-99465934D01*
X157204024Y-99477960D01*
X157189956Y-99489971D01*
X157175878Y-99501964D01*
X157161788Y-99513941D01*
X157147688Y-99525900D01*
X157133575Y-99537844D01*
X157119454Y-99549769D01*
X157105319Y-99561680D01*
X157091175Y-99573571D01*
X157077018Y-99585448D01*
X157062852Y-99597305D01*
X157048674Y-99609148D01*
X157034486Y-99620972D01*
X157020285Y-99632781D01*
X157006076Y-99644571D01*
X156991854Y-99656345D01*
X156977623Y-99668101D01*
X156963379Y-99679842D01*
X156949126Y-99691564D01*
X156934861Y-99703271D01*
X156920586Y-99714958D01*
X156906299Y-99726631D01*
X156892004Y-99738285D01*
X156877695Y-99749923D01*
X156863378Y-99761542D01*
X156849049Y-99773147D01*
X156834711Y-99784732D01*
X156820360Y-99796301D01*
X156806000Y-99807852D01*
X156791628Y-99819388D01*
X156777248Y-99830904D01*
X156762855Y-99842405D01*
X156748453Y-99853887D01*
X156734039Y-99865354D01*
X156719617Y-99876801D01*
X156705182Y-99888233D01*
X156690739Y-99899646D01*
X156676284Y-99911043D01*
X156661820Y-99922422D01*
X156647344Y-99933785D01*
X156632859Y-99945128D01*
X156618362Y-99956456D01*
X156602021Y-99969195D01*
D10*
X163332009Y-83104949D02*
X163332009Y-85752130D01*
X-73534989Y-86200250D02*
X-73534989Y-84245397D01*
X19948510Y36811260D02*
X22435292Y36811260D01*
X163332009Y-83104949D02*
X162500000Y-12765671D01*
D11*
X-68100464Y-98854530D02*
X-68127357Y-98828939D01*
X-68154201Y-98803285D01*
X-68180996Y-98777567D01*
X-68207741Y-98751786D01*
X-68234437Y-98725941D01*
X-68261082Y-98700033D01*
X-68287678Y-98674062D01*
X-68314224Y-98648029D01*
X-68340719Y-98621933D01*
X-68367164Y-98595774D01*
X-68393557Y-98569553D01*
X-68419900Y-98543271D01*
X-68446191Y-98516926D01*
X-68472431Y-98490520D01*
X-68498620Y-98464052D01*
X-68524756Y-98437522D01*
X-68550841Y-98410932D01*
X-68576873Y-98384280D01*
X-68602853Y-98357568D01*
X-68628780Y-98330795D01*
X-68654655Y-98303962D01*
X-68680476Y-98277069D01*
X-68706244Y-98250115D01*
X-68731959Y-98223102D01*
X-68757620Y-98196028D01*
X-68783227Y-98168896D01*
X-68808781Y-98141704D01*
X-68834280Y-98114453D01*
X-68859724Y-98087143D01*
X-68885114Y-98059774D01*
X-68910450Y-98032346D01*
X-68935730Y-98004861D01*
X-68960955Y-97977317D01*
X-68986125Y-97949715D01*
X-69011239Y-97922056D01*
X-69036297Y-97894339D01*
X-69061299Y-97866564D01*
X-69086245Y-97838732D01*
X-69111135Y-97810844D01*
X-69135968Y-97782898D01*
X-69160745Y-97754896D01*
X-69185464Y-97726838D01*
X-69210127Y-97698724D01*
X-69234732Y-97670553D01*
X-69259279Y-97642327D01*
X-69283769Y-97614045D01*
X-69308201Y-97585708D01*
X-69332575Y-97557316D01*
X-69356891Y-97528869D01*
X-69381148Y-97500367D01*
X-69405346Y-97471810D01*
X-69429486Y-97443200D01*
X-69453567Y-97414535D01*
X-69477588Y-97385816D01*
X-69501550Y-97357044D01*
X-69525452Y-97328218D01*
X-69549295Y-97299339D01*
X-69573078Y-97270407D01*
X-69596800Y-97241422D01*
X-69620463Y-97212385D01*
X-69644064Y-97183295D01*
X-69667605Y-97154153D01*
X-69691085Y-97124959D01*
X-69714504Y-97095713D01*
X-69737862Y-97066416D01*
X-69761159Y-97037067D01*
X-69784394Y-97007668D01*
X-69807567Y-96978217D01*
X-69830678Y-96948716D01*
X-69853727Y-96919165D01*
X-69876713Y-96889563D01*
X-69899637Y-96859912D01*
X-69922499Y-96830210D01*
X-69945298Y-96800460D01*
X-69968033Y-96770659D01*
X-69990706Y-96740810D01*
X-70013315Y-96710912D01*
X-70035860Y-96680966D01*
X-70058342Y-96650971D01*
X-70080760Y-96620927D01*
X-70103114Y-96590836D01*
X-70125403Y-96560698D01*
X-70147629Y-96530511D01*
X-70169789Y-96500278D01*
X-70180845Y-96485144D01*
X-70191885Y-96469998D01*
X-70202909Y-96454840D01*
X-70213916Y-96439670D01*
X-70224907Y-96424489D01*
X-70235882Y-96409297D01*
X-70246841Y-96394092D01*
X-70257783Y-96378876D01*
X-70268709Y-96363649D01*
X-70279618Y-96348410D01*
X-70290511Y-96333160D01*
X-70301388Y-96317898D01*
X-70312248Y-96302625D01*
X-70323092Y-96287341D01*
X-70333919Y-96272045D01*
X-70344730Y-96256738D01*
X-70355524Y-96241419D01*
X-70366302Y-96226090D01*
X-70377063Y-96210749D01*
X-70387808Y-96195397D01*
X-70398536Y-96180034D01*
X-70409247Y-96164659D01*
X-70419942Y-96149274D01*
X-70430620Y-96133877D01*
X-70441281Y-96118469D01*
X-70451926Y-96103051D01*
X-70462554Y-96087621D01*
X-70473166Y-96072180D01*
X-70483760Y-96056729D01*
X-70494338Y-96041266D01*
X-70504899Y-96025793D01*
X-70515443Y-96010309D01*
X-70525970Y-95994814D01*
X-70536481Y-95979308D01*
X-70546974Y-95963792D01*
X-70557451Y-95948265D01*
X-70567911Y-95932727D01*
X-70578353Y-95917178D01*
X-70588779Y-95901619D01*
X-70599188Y-95886049D01*
X-70609580Y-95870469D01*
X-70619955Y-95854878D01*
X-70630313Y-95839277D01*
X-70640654Y-95823665D01*
X-70650977Y-95808042D01*
X-70661284Y-95792409D01*
X-70671574Y-95776767D01*
X-70681846Y-95761113D01*
X-70692101Y-95745449D01*
X-70702340Y-95729775D01*
X-70712560Y-95714091D01*
X-70722764Y-95698396D01*
X-70732951Y-95682691D01*
X-70743120Y-95666976D01*
X-70753272Y-95651251D01*
X-70763407Y-95635515D01*
X-70773524Y-95619770D01*
X-70783625Y-95604014D01*
X-70793707Y-95588249D01*
X-70803773Y-95572473D01*
X-70813821Y-95556688D01*
X-70823852Y-95540892D01*
X-70833865Y-95525087D01*
X-70843861Y-95509272D01*
X-70853839Y-95493447D01*
X-70863801Y-95477612D01*
X-70873744Y-95461767D01*
X-70883670Y-95445913D01*
X-70893579Y-95430049D01*
X-70903470Y-95414175D01*
X-70913343Y-95398292D01*
X-70923199Y-95382398D01*
X-70933037Y-95366496D01*
X-70942858Y-95350583D01*
X-70952661Y-95334662D01*
X-70962447Y-95318730D01*
X-70972215Y-95302789D01*
X-70981965Y-95286839D01*
X-70991697Y-95270879D01*
X-71001412Y-95254910D01*
X-71011109Y-95238932D01*
X-71020789Y-95222944D01*
X-71030450Y-95206947D01*
X-71040094Y-95190940D01*
X-71049720Y-95174925D01*
X-71059329Y-95158900D01*
X-71068919Y-95142866D01*
X-71078492Y-95126823D01*
X-71088046Y-95110771D01*
X-71097583Y-95094709D01*
X-71107102Y-95078639D01*
X-71116603Y-95062560D01*
X-71126086Y-95046472D01*
X-71135551Y-95030374D01*
X-71144998Y-95014268D01*
X-71154428Y-94998152D01*
X-71163839Y-94982029D01*
X-71173233Y-94965896D01*
X-71182608Y-94949754D01*
X-71191965Y-94933604D01*
X-71201304Y-94917445D01*
X-71210625Y-94901276D01*
X-71219928Y-94885100D01*
X-71229213Y-94868915D01*
X-71238480Y-94852721D01*
X-71247729Y-94836518D01*
X-71256959Y-94820308D01*
X-71266172Y-94804088D01*
X-71275366Y-94787860D01*
X-71284542Y-94771623D01*
X-71293700Y-94755379D01*
X-71302840Y-94739125D01*
X-71311961Y-94722864D01*
X-71321064Y-94706593D01*
X-71330148Y-94690316D01*
X-71339215Y-94674028D01*
X-71348263Y-94657734D01*
X-71357293Y-94641430D01*
X-71366305Y-94625120D01*
X-71375298Y-94608800D01*
X-71384273Y-94592473D01*
X-71393230Y-94576136D01*
X-71402168Y-94559793D01*
X-71411088Y-94543441D01*
X-71419989Y-94527082D01*
X-71428872Y-94510713D01*
X-71437736Y-94494338D01*
X-71446582Y-94477954D01*
X-71455409Y-94461563D01*
X-71464219Y-94445163D01*
X-71473009Y-94428757D01*
X-71481781Y-94412341D01*
X-71490534Y-94395919D01*
X-71499269Y-94379488D01*
X-71507985Y-94363051D01*
X-71516683Y-94346604D01*
X-71525362Y-94330152D01*
X-71534023Y-94313690D01*
X-71542665Y-94297222D01*
X-71551288Y-94280745D01*
X-71559893Y-94264262D01*
X-71568479Y-94247770D01*
X-71577046Y-94231273D01*
X-71585595Y-94214766D01*
X-71594125Y-94198253D01*
X-71602636Y-94181732D01*
X-71611128Y-94165205D01*
X-71619602Y-94148669D01*
X-71628057Y-94132127D01*
X-71636494Y-94115576D01*
X-71644911Y-94099020D01*
X-71653310Y-94082455D01*
X-71661689Y-94065884D01*
X-71670050Y-94049305D01*
X-71685068Y-94019416D01*
D10*
X-73694302Y-77054949D02*
X-73694302Y-80772241D01*
X104609795Y-58919808D02*
G75*
G02*
X105143195Y-58765673I533405J-845892D01*
G01*
X117510913Y-64128355D02*
G75*
G02*
X117977492Y-64974218I-533413J-845845D01*
G01*
X-73534989Y-84245397D02*
X-73534989Y-83722241D01*
X162814644Y14198974D02*
X162814644Y14178263D01*
D12*
X67299292Y36811260D02*
X71698148Y36811260D01*
D11*
X161782453Y25327919D02*
X161792771Y25256605D01*
X161803019Y25185628D01*
X161813204Y25114950D01*
X161823321Y25044608D01*
X161833375Y24974564D01*
X161843360Y24904854D01*
X161853283Y24835440D01*
X161863138Y24766360D01*
X161872932Y24697574D01*
X161882657Y24629119D01*
X161892321Y24560957D01*
X161901918Y24493126D01*
X161911454Y24425585D01*
X161920923Y24358374D01*
X161930331Y24291451D01*
X161939673Y24224857D01*
X161948955Y24158550D01*
X161958171Y24092569D01*
X161967326Y24026874D01*
X161976417Y23961505D01*
X161985447Y23896419D01*
X161994413Y23831657D01*
X162003319Y23767177D01*
X162012161Y23703020D01*
X162020944Y23639143D01*
X162029662Y23575588D01*
X162038322Y23512312D01*
X162046919Y23449355D01*
X162055457Y23386675D01*
X162063932Y23324314D01*
X162072349Y23262228D01*
X162080703Y23200460D01*
X162089000Y23138965D01*
X162097235Y23077786D01*
X162105412Y23016879D01*
X162113527Y22956287D01*
X162121586Y22895964D01*
X162129583Y22835955D01*
X162137524Y22776214D01*
X162145404Y22716786D01*
X162153228Y22657624D01*
X162160991Y22598773D01*
X162168699Y22540186D01*
X162176346Y22481909D01*
X162183938Y22423895D01*
X162191470Y22366189D01*
X162198948Y22308745D01*
X162206365Y22251607D01*
X162213729Y22194729D01*
X162221033Y22138156D01*
X162228284Y22081841D01*
X162235476Y22025831D01*
X162242614Y21970076D01*
X162249694Y21914624D01*
X162256721Y21859427D01*
X162263690Y21804531D01*
X162270606Y21749888D01*
X162277465Y21695545D01*
X162284272Y21641453D01*
X162291021Y21587660D01*
X162297718Y21534115D01*
X162304359Y21480869D01*
X162310948Y21427869D01*
X162317480Y21375166D01*
X162323962Y21322709D01*
X162330388Y21270546D01*
X162336763Y21218627D01*
X162343082Y21167003D01*
X162349352Y21115619D01*
X162355566Y21064529D01*
X162361730Y21013678D01*
X162367839Y20963119D01*
X162373900Y20912797D01*
X162379905Y20862766D01*
X162385862Y20812971D01*
X162391764Y20763465D01*
X162397618Y20714193D01*
X162403418Y20665209D01*
X162409171Y20616458D01*
X162414869Y20567993D01*
X162420520Y20519758D01*
X162426118Y20471809D01*
X162431669Y20424088D01*
X162437167Y20376652D01*
X162442619Y20329442D01*
X162448018Y20282515D01*
X162453371Y20235812D01*
X162458672Y20189392D01*
X162463927Y20143194D01*
X162469130Y20097277D01*
X162474288Y20051581D01*
X162479395Y20006164D01*
X162484457Y19960966D01*
X162489468Y19916047D01*
X162494434Y19871344D01*
X162499350Y19826918D01*
X162504222Y19782707D01*
X162509043Y19738772D01*
X162513821Y19695051D01*
X162518549Y19651603D01*
X162523234Y19608367D01*
X162527869Y19565405D01*
X162532462Y19522651D01*
X162537006Y19480170D01*
X162541507Y19437895D01*
X162545959Y19395893D01*
X162550370Y19354094D01*
X162554732Y19312567D01*
X162559053Y19271242D01*
X162563325Y19230186D01*
X162567557Y19189330D01*
X162571741Y19148743D01*
X162575884Y19108354D01*
X162579980Y19068233D01*
X162584036Y19028308D01*
X162588045Y18988648D01*
X162592014Y18949183D01*
X162595937Y18909983D01*
X162599821Y18870975D01*
X162603658Y18832230D01*
X162607456Y18793676D01*
X162611209Y18755384D01*
X162614923Y18717280D01*
X162618591Y18679438D01*
X162622222Y18641781D01*
X162625807Y18604385D01*
X162629355Y18567172D01*
X162632858Y18530219D01*
X162636325Y18493446D01*
X162639746Y18456933D01*
X162643131Y18420598D01*
X162646472Y18384520D01*
X162649777Y18348619D01*
X162653038Y18312975D01*
X162656263Y18277505D01*
X162659445Y18242290D01*
X162662591Y18207247D01*
X162665695Y18172458D01*
X162668764Y18137839D01*
X162671790Y18103474D01*
X162674781Y18069275D01*
X162677731Y18035329D01*
X162680646Y18001548D01*
X162683519Y17968018D01*
X162686359Y17934650D01*
X162689157Y17901533D01*
X162691922Y17868575D01*
X162694646Y17835868D01*
X162697337Y17803316D01*
X162699987Y17771015D01*
X162702605Y17738867D01*
X162705183Y17706967D01*
X162707728Y17675218D01*
X162710234Y17643718D01*
X162712708Y17612365D01*
X162715143Y17581259D01*
X162717546Y17550299D01*
X162719910Y17519585D01*
X162722244Y17489014D01*
X162724538Y17458687D01*
X162726803Y17428501D01*
X162729029Y17398559D01*
X162731224Y17368753D01*
X162733382Y17339192D01*
X162735511Y17309764D01*
X162737602Y17280579D01*
X162739663Y17251525D01*
X162741688Y17222713D01*
X162743683Y17194028D01*
X162745642Y17165585D01*
X162749467Y17109187D01*
X162753163Y17053512D01*
X162756733Y16998552D01*
X162760177Y16944297D01*
X162763498Y16890739D01*
X162766697Y16837870D01*
X162769776Y16785679D01*
X162772736Y16734159D01*
X162775579Y16683299D01*
X162778307Y16633090D01*
X162780921Y16583521D01*
X162783422Y16534581D01*
X162785813Y16486260D01*
X162788094Y16438545D01*
X162790269Y16391425D01*
X162792337Y16344887D01*
X162794302Y16298917D01*
X162796164Y16253500D01*
X162797925Y16208622D01*
X162799587Y16164265D01*
X162801151Y16120411D01*
X162802619Y16077042D01*
X162803993Y16034134D01*
X162805275Y15991666D01*
X162806465Y15949608D01*
X162807567Y15907933D01*
X162808580Y15866605D01*
X162809508Y15825585D01*
X162810352Y15784826D01*
X162811114Y15744273D01*
X162811795Y15703859D01*
X162812398Y15663502D01*
X162812924Y15623096D01*
X162813374Y15582505D01*
X162813752Y15541546D01*
X162814060Y15499956D01*
X162814299Y15457347D01*
X162814472Y15413082D01*
X162814582Y15365998D01*
X162814635Y15313458D01*
X162814644Y15259273D01*
D10*
X105143195Y-58765671D02*
X108717831Y-58765671D01*
X-73694302Y-80772241D02*
X-73534989Y-80772241D01*
X-73694035Y22608500D02*
G75*
G02*
X-59444030Y36858505I14250005J0D01*
G01*
D11*
X147188516Y36760227D02*
X147225005Y36757332D01*
X147261488Y36754357D01*
X147297964Y36751303D01*
X147334434Y36748168D01*
X147370896Y36744955D01*
X147407351Y36741661D01*
X147443799Y36738288D01*
X147480239Y36734835D01*
X147516672Y36731302D01*
X147553097Y36727690D01*
X147589514Y36723999D01*
X147625922Y36720227D01*
X147662323Y36716377D01*
X147698715Y36712446D01*
X147735098Y36708436D01*
X147771472Y36704347D01*
X147807837Y36700178D01*
X147844193Y36695930D01*
X147880540Y36691602D01*
X147916877Y36687195D01*
X147953205Y36682708D01*
X147989522Y36678142D01*
X148025830Y36673497D01*
X148062127Y36668772D01*
X148098414Y36663968D01*
X148134691Y36659085D01*
X148170957Y36654123D01*
X148207212Y36649081D01*
X148243455Y36643960D01*
X148279688Y36638760D01*
X148315909Y36633480D01*
X148352119Y36628122D01*
X148388317Y36622684D01*
X148424503Y36617167D01*
X148460677Y36611571D01*
X148496838Y36605896D01*
X148532988Y36600142D01*
X148569124Y36594309D01*
X148605248Y36588397D01*
X148641359Y36582407D01*
X148677457Y36576337D01*
X148713541Y36570188D01*
X148749612Y36563961D01*
X148785670Y36557654D01*
X148821714Y36551269D01*
X148857743Y36544805D01*
X148893759Y36538263D01*
X148929760Y36531641D01*
X148965747Y36524941D01*
X149001719Y36518163D01*
X149037676Y36511305D01*
X149073619Y36504369D01*
X149109546Y36497355D01*
X149145457Y36490262D01*
X149181354Y36483091D01*
X149217234Y36475841D01*
X149253099Y36468513D01*
X149288948Y36461106D01*
X149324780Y36453621D01*
X149360596Y36446058D01*
X149396396Y36438416D01*
X149432179Y36430697D01*
X149467945Y36422899D01*
X149503694Y36415023D01*
X149539426Y36407068D01*
X149575140Y36399036D01*
X149610837Y36390926D01*
X149646515Y36382737D01*
X149682177Y36374471D01*
X149717820Y36366127D01*
X149753444Y36357705D01*
X149789050Y36349205D01*
X149824638Y36340627D01*
X149860207Y36331971D01*
X149895757Y36323238D01*
X149931288Y36314427D01*
X149966799Y36305538D01*
X150002291Y36296572D01*
X150037764Y36287529D01*
X150073216Y36278407D01*
X150108649Y36269209D01*
X150144062Y36259933D01*
X150179454Y36250579D01*
X150214825Y36241148D01*
X150250176Y36231640D01*
X150285507Y36222055D01*
X150320816Y36212392D01*
X150356104Y36202652D01*
X150391371Y36192836D01*
X150426616Y36182942D01*
X150461839Y36172971D01*
X150479443Y36167957D01*
X150497041Y36162923D01*
X150514633Y36157870D01*
X150532220Y36152798D01*
X150549802Y36147707D01*
X150567378Y36142597D01*
X150584948Y36137467D01*
X150602513Y36132318D01*
X150620072Y36127150D01*
X150637625Y36121963D01*
X150655173Y36116757D01*
X150672715Y36111531D01*
X150690252Y36106287D01*
X150707782Y36101023D01*
X150725307Y36095740D01*
X150742826Y36090438D01*
X150760339Y36085116D01*
X150777847Y36079776D01*
X150795348Y36074417D01*
X150812844Y36069038D01*
X150830334Y36063640D01*
X150847818Y36058223D01*
X150865296Y36052787D01*
X150882768Y36047332D01*
X150900234Y36041858D01*
X150917694Y36036365D01*
X150935148Y36030852D01*
X150952596Y36025321D01*
X150970038Y36019771D01*
X150987474Y36014201D01*
X151004904Y36008612D01*
X151022327Y36003005D01*
X151039745Y35997378D01*
X151057156Y35991733D01*
X151074562Y35986068D01*
X151091961Y35980384D01*
X151109353Y35974682D01*
X151126740Y35968960D01*
X151144120Y35963219D01*
X151161494Y35957459D01*
X151178862Y35951681D01*
X151196223Y35945883D01*
X151213578Y35940067D01*
X151230927Y35934231D01*
X151248269Y35928376D01*
X151265605Y35922503D01*
X151282934Y35916611D01*
X151300257Y35910699D01*
X151317573Y35904769D01*
X151334884Y35898820D01*
X151352187Y35892852D01*
X151369484Y35886865D01*
X151386774Y35880859D01*
X151404058Y35874834D01*
X151421335Y35868791D01*
X151438606Y35862728D01*
X151455869Y35856647D01*
X151473127Y35850546D01*
X151490377Y35844427D01*
X151507621Y35838289D01*
X151524858Y35832133D01*
X151542089Y35825957D01*
X151559312Y35819763D01*
X151576529Y35813549D01*
X151593739Y35807317D01*
X151610942Y35801066D01*
X151628139Y35794797D01*
X151645328Y35788508D01*
X151662511Y35782201D01*
X151679687Y35775875D01*
X151696855Y35769531D01*
X151714017Y35763167D01*
X151731172Y35756785D01*
X151748320Y35750384D01*
X151765461Y35743964D01*
X151782595Y35737526D01*
X151799721Y35731069D01*
X151816841Y35724593D01*
X151833953Y35718098D01*
X151851059Y35711585D01*
X151868157Y35705053D01*
X151885248Y35698502D01*
X151902332Y35691933D01*
X151919409Y35685345D01*
X151936479Y35678739D01*
X151953541Y35672113D01*
X151970596Y35665470D01*
X151987644Y35658807D01*
X152004684Y35652126D01*
X152021718Y35645426D01*
X152038743Y35638708D01*
X152055762Y35631971D01*
X152072773Y35625215D01*
X152089777Y35618441D01*
X152106773Y35611649D01*
X152123762Y35604837D01*
X152140743Y35598008D01*
X152157717Y35591159D01*
X152174684Y35584292D01*
X152191643Y35577407D01*
X152208594Y35570503D01*
X152225538Y35563580D01*
X152242474Y35556639D01*
X152259403Y35549680D01*
X152276324Y35542702D01*
X152293237Y35535705D01*
X152310143Y35528691D01*
X152327041Y35521657D01*
X152343931Y35514605D01*
X152360814Y35507535D01*
X152377688Y35500446D01*
X152394556Y35493339D01*
X152411415Y35486213D01*
X152428266Y35479069D01*
X152445110Y35471907D01*
X152461946Y35464726D01*
X152478774Y35457527D01*
X152495594Y35450309D01*
X152512406Y35443073D01*
X152529211Y35435819D01*
X152546007Y35428546D01*
X152562795Y35421255D01*
X152579575Y35413946D01*
X152596348Y35406618D01*
X152613112Y35399272D01*
X152629869Y35391907D01*
X152646617Y35384525D01*
X152663357Y35377124D01*
X152680089Y35369705D01*
X152696813Y35362267D01*
X152713529Y35354811D01*
X152730237Y35347337D01*
X152746936Y35339845D01*
X152763628Y35332334D01*
X152780310Y35324805D01*
X152796986Y35317258D01*
X152813652Y35309693D01*
X152830311Y35302109D01*
X152846960Y35294508D01*
X152863602Y35286888D01*
X152880235Y35279250D01*
X152896861Y35271594D01*
X152913477Y35263919D01*
X152930086Y35256227D01*
X152946685Y35248516D01*
X152963277Y35240787D01*
X152979860Y35233040D01*
X152996435Y35225275D01*
X153013000Y35217492D01*
X153029558Y35209690D01*
X153046107Y35201871D01*
X153062648Y35194034D01*
X153079179Y35186178D01*
X153095703Y35178304D01*
X153112217Y35170413D01*
X153128724Y35162503D01*
X153145221Y35154575D01*
X153161710Y35146629D01*
X153178190Y35138666D01*
X153194662Y35130684D01*
X153211124Y35122684D01*
X153227578Y35114666D01*
X153244023Y35106630D01*
X153260460Y35098576D01*
X153276887Y35090505D01*
X153293306Y35082415D01*
X153309716Y35074308D01*
X153326117Y35066182D01*
X153342509Y35058038D01*
X153358893Y35049877D01*
X153375267Y35041698D01*
X153391633Y35033500D01*
X153407989Y35025285D01*
X153424337Y35017052D01*
X153440676Y35008801D01*
X153457006Y35000532D01*
X153473326Y34992246D01*
X153489638Y34983941D01*
X153514165Y34971412D01*
D10*
X124421016Y-103610261D02*
G75*
G02*
X123713909Y-103317368I-16J999961D01*
G01*
X117977513Y-64974218D02*
X117977513Y-97166758D01*
X82329916Y-95625028D02*
G75*
G02*
X78929916Y-95625028I-1700000J0D01*
G01*
X78929916Y-95625028D02*
G75*
G02*
X82329916Y-95625028I1700000J0D01*
G01*
X100416741Y36811260D02*
X142518545Y36811260D01*
X19948510Y36811506D02*
X16848510Y36811506D01*
D11*
X-71685068Y-94019416D02*
X-71701774Y-93985996D01*
X-71718409Y-93952540D01*
X-71734972Y-93919049D01*
X-71751463Y-93885522D01*
X-71767882Y-93851960D01*
X-71784230Y-93818363D01*
X-71800505Y-93784731D01*
X-71816709Y-93751064D01*
X-71832840Y-93717363D01*
X-71848899Y-93683627D01*
X-71856902Y-93666746D01*
X-71864886Y-93649856D01*
X-71872853Y-93632958D01*
X-71880801Y-93616051D01*
X-71888731Y-93599136D01*
X-71896643Y-93582213D01*
X-71904537Y-93565281D01*
X-71912413Y-93548340D01*
X-71920271Y-93531391D01*
X-71928111Y-93514434D01*
X-71935932Y-93497468D01*
X-71943735Y-93480494D01*
X-71951520Y-93463511D01*
X-71959287Y-93446520D01*
X-71967036Y-93429521D01*
X-71974766Y-93412514D01*
X-71982479Y-93395498D01*
X-71990173Y-93378474D01*
X-71997849Y-93361442D01*
X-72005506Y-93344402D01*
X-72013146Y-93327353D01*
X-72020767Y-93310296D01*
X-72028370Y-93293231D01*
X-72035954Y-93276158D01*
X-72043521Y-93259077D01*
X-72051069Y-93241988D01*
X-72058598Y-93224890D01*
X-72066110Y-93207785D01*
X-72073603Y-93190671D01*
X-72081078Y-93173550D01*
X-72088534Y-93156420D01*
X-72095972Y-93139283D01*
X-72103392Y-93122137D01*
X-72110794Y-93104984D01*
X-72118177Y-93087823D01*
X-72125541Y-93070653D01*
X-72132888Y-93053476D01*
X-72140215Y-93036291D01*
X-72147525Y-93019099D01*
X-72154816Y-93001898D01*
X-72162089Y-92984690D01*
X-72169343Y-92967473D01*
X-72176579Y-92950250D01*
X-72183796Y-92933018D01*
X-72190995Y-92915779D01*
X-72198176Y-92898531D01*
X-72205338Y-92881277D01*
X-72212481Y-92864014D01*
X-72219606Y-92846744D01*
X-72226713Y-92829466D01*
X-72233801Y-92812181D01*
X-72240870Y-92794888D01*
X-72247921Y-92777588D01*
X-72254954Y-92760280D01*
X-72261968Y-92742964D01*
X-72268963Y-92725641D01*
X-72275940Y-92708311D01*
X-72282899Y-92690973D01*
X-72289838Y-92673627D01*
X-72296760Y-92656274D01*
X-72303662Y-92638914D01*
X-72310546Y-92621547D01*
X-72317412Y-92604172D01*
X-72324258Y-92586789D01*
X-72331087Y-92569400D01*
X-72337896Y-92552003D01*
X-72344687Y-92534599D01*
X-72351460Y-92517187D01*
X-72358213Y-92499768D01*
X-72364948Y-92482342D01*
X-72371665Y-92464909D01*
X-72378362Y-92447469D01*
X-72385041Y-92430021D01*
X-72391702Y-92412567D01*
X-72398343Y-92395105D01*
X-72404966Y-92377636D01*
X-72411571Y-92360160D01*
X-72418156Y-92342677D01*
X-72424723Y-92325187D01*
X-72431271Y-92307690D01*
X-72437800Y-92290186D01*
X-72444311Y-92272675D01*
X-72450803Y-92255157D01*
X-72457276Y-92237632D01*
X-72463730Y-92220100D01*
X-72470166Y-92202561D01*
X-72476583Y-92185016D01*
X-72482981Y-92167463D01*
X-72489360Y-92149904D01*
X-72495721Y-92132338D01*
X-72502062Y-92114765D01*
X-72508385Y-92097185D01*
X-72514689Y-92079598D01*
X-72520974Y-92062005D01*
X-72527240Y-92044405D01*
X-72533488Y-92026798D01*
X-72539716Y-92009185D01*
X-72545926Y-91991565D01*
X-72552117Y-91973938D01*
X-72558289Y-91956305D01*
X-72564442Y-91938665D01*
X-72570576Y-91921019D01*
X-72576692Y-91903366D01*
X-72582788Y-91885706D01*
X-72588865Y-91868040D01*
X-72594924Y-91850367D01*
X-72600964Y-91832688D01*
X-72606985Y-91815003D01*
X-72612986Y-91797311D01*
X-72618969Y-91779612D01*
X-72624933Y-91761908D01*
X-72630878Y-91744196D01*
X-72636804Y-91726479D01*
X-72642711Y-91708755D01*
X-72648599Y-91691025D01*
X-72654468Y-91673288D01*
X-72660318Y-91655546D01*
X-72666150Y-91637797D01*
X-72671962Y-91620042D01*
X-72677755Y-91602280D01*
X-72683529Y-91584512D01*
X-72689284Y-91566738D01*
X-72695020Y-91548959D01*
X-72700737Y-91531172D01*
X-72706435Y-91513380D01*
X-72712114Y-91495581D01*
X-72717773Y-91477777D01*
X-72723414Y-91459967D01*
X-72729036Y-91442150D01*
X-72734638Y-91424327D01*
X-72740222Y-91406499D01*
X-72745786Y-91388664D01*
X-72751332Y-91370824D01*
X-72756858Y-91352977D01*
X-72762365Y-91335125D01*
X-72767853Y-91317267D01*
X-72773322Y-91299403D01*
X-72778772Y-91281533D01*
X-72784202Y-91263657D01*
X-72789614Y-91245775D01*
X-72795006Y-91227888D01*
X-72800380Y-91209995D01*
X-72805734Y-91192096D01*
X-72811069Y-91174191D01*
X-72816384Y-91156281D01*
X-72821681Y-91138365D01*
X-72826958Y-91120443D01*
X-72832217Y-91102515D01*
X-72837455Y-91084583D01*
X-72842675Y-91066644D01*
X-72847876Y-91048700D01*
X-72853057Y-91030749D01*
X-72858220Y-91012794D01*
X-72863363Y-90994833D01*
X-72868486Y-90976867D01*
X-72873591Y-90958895D01*
X-72878676Y-90940918D01*
X-72883742Y-90922934D01*
X-72888789Y-90904946D01*
X-72893816Y-90886952D01*
X-72898825Y-90868954D01*
X-72903814Y-90850949D01*
X-72908783Y-90832939D01*
X-72913734Y-90814924D01*
X-72920142Y-90791491D01*
D12*
%TO.C,U18*%
X-59000000Y18734329D02*
X-58992892Y15241436D01*
X25492893Y14241437D02*
X-57992893Y14241437D01*
X25492893Y19727222D02*
X-57999915Y19734329D01*
X26500000Y18727229D02*
X26492893Y15241436D01*
X-57992893Y14241436D02*
G75*
G02*
X-58992893Y15241436I-1J999999D01*
G01*
X-59000000Y18734329D02*
G75*
G02*
X-58000000Y19734329I999999J1D01*
G01*
X26492893Y15241436D02*
G75*
G02*
X25492893Y14241436I-999993J-7D01*
G01*
X25500000Y19727222D02*
G75*
G02*
X26499993Y18727222I0J-999993D01*
G01*
D10*
%TO.C,U14*%
X56633851Y-20555093D02*
X56633851Y-25055093D01*
X55633851Y-26055093D02*
X33733851Y-26055093D01*
X33733851Y-19555093D02*
X55633851Y-19555093D01*
X32733851Y-25055093D02*
X32733851Y-20555093D01*
X56633851Y-25055093D02*
G75*
G02*
X55633851Y-26055093I-999999J-1D01*
G01*
X55633851Y-19555093D02*
G75*
G02*
X56633851Y-20555093I1J-999999D01*
G01*
X33733851Y-26055093D02*
G75*
G02*
X32733848Y-25055093I-1J1000002D01*
G01*
X32733851Y-20555093D02*
G75*
G02*
X33733851Y-19555092I999999J2D01*
G01*
X63253143Y-46803220D02*
G75*
G02*
X59853143Y-46803220I-1700000J0D01*
G01*
X59853143Y-46803220D02*
G75*
G02*
X63253143Y-46803220I1700000J0D01*
G01*
X62365140Y-16907681D02*
G75*
G02*
X58965140Y-16907681I-1700000J0D01*
G01*
X58965140Y-16907681D02*
G75*
G02*
X62365140Y-16907681I1700000J0D01*
G01*
X56483851Y-45555093D02*
G75*
G02*
X52883851Y-45555093I-1800000J0D01*
G01*
X52883851Y-45555093D02*
G75*
G02*
X56483851Y-45555093I1800000J0D01*
G01*
X56483851Y-33505093D02*
G75*
G02*
X52883851Y-33505093I-1800000J0D01*
G01*
X52883851Y-33505093D02*
G75*
G02*
X56483851Y-33505093I1800000J0D01*
G01*
X36183851Y-45558863D02*
G75*
G02*
X32583851Y-45558863I-1800000J0D01*
G01*
X32583851Y-45558863D02*
G75*
G02*
X36183851Y-45558863I1800000J0D01*
G01*
X36383851Y-33505093D02*
G75*
G02*
X32383851Y-33505093I-2000000J0D01*
G01*
X32383851Y-33505093D02*
G75*
G02*
X36383851Y-33505093I2000000J0D01*
G01*
X29383851Y-46555093D02*
G75*
G02*
X25983851Y-46555093I-1700000J0D01*
G01*
X25983851Y-46555093D02*
G75*
G02*
X29383851Y-46555093I1700000J0D01*
G01*
X29146856Y-16728121D02*
G75*
G02*
X25746856Y-16728121I-1700000J0D01*
G01*
X25746856Y-16728121D02*
G75*
G02*
X29146856Y-16728121I1700000J0D01*
G01*
%TD*%
M02*
