M48
; DRILL file {KiCad 9.0.2} date 2025-05-14T09:05:42+0800
; FORMAT={-:-/ absolute / inch / decimal}
; #@! TF.CreationDate,2025-05-14T09:05:42+08:00
; #@! TF.GenerationSoftware,Kicad,Pcbnew,9.0.2
; #@! TF.FileFunction,Plated,1,2,PTH
FMAT,2
INCH
; #@! TA.AperFunction,Plated,PTH,ViaDrill
T1C0.0118
; #@! TA.AperFunction,Plated,PTH,ComponentDrill
T2C0.0157
; #@! TA.AperFunction,Plated,PTH,ComponentDrill
T3C0.0394
; #@! TA.AperFunction,Plated,PTH,ComponentDrill
T4C0.0433
; #@! TA.AperFunction,Plated,PTH,ComponentDrill
T5C0.0512
; #@! TA.AperFunction,Plated,PTH,ComponentDrill
T6C0.0669
; #@! TA.AperFunction,Plated,PTH,ComponentDrill
T7C0.1083
; #@! TA.AperFunction,Plated,PTH,ComponentDrill
T8C0.1142
%
G90
G05
T1
X-2.8622Y-0.1093
X-2.8555Y0.3435
X-2.8555Y0.0935
X-2.8476Y-0.0305
X-2.8472Y0.2328
X-2.8429Y-2.8172
X-2.798Y-2.8864
X-2.7921Y0.5088
X-2.7067Y-0.7514
X-2.6953Y-0.3845
X-2.6799Y-0.4778
X-2.6799Y-1.4152
X-2.676Y-0.2128
X-2.6626Y-0.6447
X-2.6626Y-0.8817
X-2.6433Y-2.8022
X-2.6331Y0.5317
X-2.6031Y-0.4242
X-2.5831Y-0.7573
X-2.5665Y-1.7805
X-2.5638Y-0.5766
X-2.5394Y-1.9986
X-2.535Y-1.1833
X-2.5335Y-1.3798
X-2.5323Y-0.8872
X-2.4299Y-0.9943
X-2.3902Y0.5037
X-2.3114Y-2.4644
X-2.3071Y-0.6101
X-2.3071Y-1.2018
X-2.3063Y-0.8101
X-2.3059Y0.3636
X-2.3059Y0.2636
X-2.3047Y-0.1364
X-2.3047Y-0.7101
X-2.3043Y0.1636
X-2.3043Y0.0636
X-2.3043Y-1.1018
X-2.3024Y-0.9101
X-2.3024Y-1.3018
X-2.302Y-0.2364
X-2.3012Y-0.0364
X-2.3004Y-0.4101
X-2.3004Y-0.5101
X-2.2996Y-1.4018
X-2.2992Y-1.0211
X-2.1535Y0.6486
X-2.1272Y0.4537
X-2.1028Y-0.8687
X-2.0823Y-0.4022
X-2.0622Y-3.9719
X-2.0559Y-1.3128
X-2.0524Y-0.7514
X-2.0476Y0.1974
X-1.9756Y-0.8101
X-1.902Y-0.4026
X-1.8984Y-3.6703
X-1.8799Y0.0054
X-1.852Y0.7297
X-1.8508Y-1.1943
X-1.8453Y-0.7636
X-1.8299Y-0.466
X-1.8295Y-0.0223
X-1.8236Y-0.8652
X-1.7803Y0.1124
X-1.7803Y-0.0461
X-1.7799Y-0.466
X-1.748Y-3.9927
X-1.7386Y1.0478
X-1.7343Y-0.3986
X-1.7299Y-0.4672
X-1.7295Y-0.0738
X-1.7291Y-1.3384
X-1.7217Y0.7077
X-1.7146Y-2.742
X-1.7126Y-0.8668
X-1.7043Y0.2639
X-1.6803Y-0.1014
X-1.6801Y-0.6035
X-1.6787Y-0.0195
X-1.6705Y1.2754
X-1.6303Y-0.1022
X-1.6301Y-0.5758
X-1.6217Y0.7065
X-1.615Y-0.3983
X-1.6039Y1.0403
X-1.5823Y-3.6939
X-1.5803Y-0.1026
X-1.5799Y-0.4672
X-1.5744Y-1.8735
X-1.5579Y-0.6998
X-1.5299Y-0.4593
X-1.5217Y0.7057
X-1.5087Y-2.8542
X-1.5083Y-4.0061
X-1.5059Y-2.5664
X-1.4839Y1.0577
X-1.4717Y-1.1128
X-1.4433Y-0.7431
X-1.4217Y0.7037
X-1.4161Y-0.7994
X-1.3646Y-0.0719
X-1.3579Y-0.1581
X-1.3571Y1.0372
X-1.3402Y-0.7498
X-1.339Y-1.3341
X-1.3382Y-0.5172
X-1.3217Y0.7057
X-1.2484Y1.0462
X-1.2217Y0.7057
X-1.2059Y-1.1675
X-1.2Y-3.8203
X-1.1587Y1.0435
X-1.1217Y0.7053
X-1.098Y-2.9715
X-1.0224Y1.0482
X-1.0114Y1.1391
X-0.9661Y-1.4073
X-0.9579Y-0.14
X-0.9209Y0.7065
X-0.9209Y-3.466
X-0.9157Y1.0466
X-0.8465Y-0.7132
X-0.8209Y0.7049
X-0.8Y1.0592
X-0.7579Y-0.5144
X-0.7575Y0.1112
X-0.7543Y-2.0494
X-0.7472Y-0.1628
X-0.7283Y-3.8884
X-0.7264Y-2.6313
X-0.7209Y0.7053
X-0.6992Y1.0514
X-0.6618Y1.1391
X-0.6417Y-1.4116
X-0.5732Y-2.2679
X-0.5709Y-3.8833
X-0.5382Y-2.5069
X-0.4846Y0.1454
X-0.4724Y-2.1061
X-0.435Y-2.466
X-0.4205Y-2.8109
X-0.4122Y0.3741
X-0.4079Y-2.7294
X-0.4075Y-0.2883
X-0.4071Y-0.2053
X-0.4041Y0.3188
X-0.3929Y0.4021
X-0.3929Y-2.5526
X-0.3849Y0.3462
X-0.3728Y-3.4963
X-0.3689Y-2.192
X-0.3606Y-2.7435
X-0.3575Y-0.5711
X-0.3449Y-1.4038
X-0.3398Y-3.2612
X-0.3374Y0.9017
X-0.313Y-2.6152
X-0.313Y-3.0298
X-0.3075Y-0.5719
X-0.298Y-2.466
X-0.2843Y-1.2467
X-0.2732Y1.0738
X-0.2579Y-0.5723
X-0.2575Y-2.1144
X-0.2299Y-2.1849
X-0.2209Y0.9628
X-0.2181Y-2.9026
X-0.213Y-2.7361
X-0.213Y-2.8301
X-0.2086Y-2.9427
X-0.2086Y-3.1798
X-0.2071Y-0.5731
X-0.1921Y-0.9384
X-0.1642Y-2.999
X-0.1606Y-2.6069
X-0.1598Y-2.5109
X-0.1272Y-3.7813
X-0.126Y-2.7672
X-0.1223Y-2.7984
X-0.1138Y-3.1183
X-0.1079Y-0.0975
X-0.1075Y-0.4601
X-0.1024Y0.4171
X-0.0988Y-2.1821
X-0.0988Y-3.3853
X-0.0626Y-2.099
X-0.0575Y-0.4585
X-0.0571Y-0.0959
X-0.0528Y-2.8628
X-0.0421Y-3.2278
X-0.0386Y-1.3864
X-0.0169Y-3.0857
X-0.0161Y-3.4766
X-0.0094Y0.808
X-0.0079Y-0.0947
X-0.0075Y-0.4597
X-0.0075Y-1.2278
X0.0154Y0.8758
X0.0193Y-1.7581
X0.0209Y-3.7183
X0.026Y-2.2022
X0.0303Y-0.8668
X0.0425Y-0.2605
X0.0429Y-0.2053
X0.0429Y-0.4609
X0.0476Y-3.2506
X0.0551Y0.2502
X0.063Y-2.7573
X0.0701Y-2.8758
X0.0768Y-2.1101
X0.0923Y-0.5727
X0.1063Y-3.4203
X0.1217Y-3.2002
X0.1423Y-0.5731
X0.15Y-3.0164
X0.1551Y-0.3395
X0.1638Y-3.6455
X0.1917Y-0.3661
X0.2031Y-2.8301
X0.2292Y-0.7243
X0.2382Y0.062
X0.2654Y-2.1916
X0.2965Y-2.0254
X0.3008Y-2.6986
X0.3008Y-3.0565
X0.3146Y0.8856
X0.3146Y-0.0266
X0.3524Y-0.8179
X0.3547Y0.3553
X0.3606Y1.2478
X0.361Y0.101
X0.3756Y-1.2908
X0.4079Y-3.1849
X0.4091Y-2.1923
X0.4181Y0.8395
X0.4205Y-2.6927
X0.4205Y-3.0876
X0.4426Y1.2629
X0.4439Y0.9341
X0.4484Y1.3419
X0.4484Y-2.7427
X0.4496Y-1.7569
X0.4496Y-3.0073
X0.4508Y-3.6675
X0.4732Y-2.8715
X0.4961Y-0.5837
X0.4996Y-2.051
X0.5079Y0.7545
X0.5161Y-2.8656
X0.5203Y0.2915
X0.5272Y-2.8077
X0.5323Y-2.9357
X0.5479Y0.3334
X0.5614Y-2.3557
X0.5755Y0.3596
X0.5835Y-2.2534
X0.5843Y-2.4443
X0.5886Y-3.1778
X0.5921Y-2.5522
X0.6031Y0.3998
X0.6094Y0.8147
X0.6307Y0.4199
X0.6358Y1.3073
X0.6362Y-2.6947
X0.6594Y0.3986
X0.6606Y-1.0589
X0.6882Y0.4238
X0.6972Y-2.3231
X0.7071Y-2.6774
X0.7147Y0.4027
X0.7406Y0.4557
X0.7823Y-2.8073
X0.7972Y-1.5298
X0.7988Y-2.629
X0.8217Y1.3254
X0.8638Y-2.3691
X0.8638Y-2.4439
X0.9067Y-2.2939
X0.9256Y1.3191
X0.9441Y1.1655
X0.9988Y-2.3518
X1.0067Y0.2671
X1.0598Y-2.7829
X1.0661Y-3.4927
X1.1295Y0.0848
X1.1469Y-0.2593
X1.1689Y1.1262
X1.2587Y1.1659
X1.2768Y-2.649
X1.4331Y0.3722
X1.4429Y-2.9699
X1.4795Y-0.2664
X1.6819Y-2.6782
X1.7583Y-2.2959
X1.8238Y0.3239
X1.8238Y0.2983
X1.8238Y0.2731
X1.849Y0.3243
X1.849Y0.2987
X1.849Y0.2735
X1.8618Y-2.9479
X1.8742Y0.3239
X1.8742Y0.2983
X1.8742Y0.2731
X1.8998Y0.3247
X1.8998Y0.2991
X1.8998Y0.2739
X1.925Y0.3243
X1.925Y0.2987
X1.925Y0.2735
X2.0461Y-0.2612
X2.05Y-0.4384
X2.0543Y0.0069
X2.074Y-2.6313
X2.1008Y0.312
X2.2075Y0.5443
X2.2736Y-3.5325
X2.3291Y-2.9439
X2.4276Y0.0545
X2.4335Y-2.2636
X2.4386Y-2.6951
X2.4594Y0.5758
X2.4823Y0.7297
X2.5059Y0.3305
X2.5803Y-0.1235
X2.5949Y-0.7628
X2.6102Y-0.238
X2.6146Y0.2077
X2.6776Y-2.1459
X2.7031Y1.0986
X2.7303Y-1.6872
X2.7417Y-3.8612
X2.7504Y-1.2561
X2.978Y-2.9097
X3.0209Y1.1041
X3.0551Y-2.4833
X3.0661Y-2.3459
X3.0933Y-0.6404
X3.1594Y1.3832
X3.1673Y-0.2943
X3.1748Y-0.8423
X3.1815Y1.0982
X3.1965Y-1.1223
X3.2528Y-3.4203
X3.3157Y-1.5794
X3.322Y-0.8616
X3.328Y-3.6573
X3.3457Y-2.3951
X3.352Y-2.0605
X3.361Y-0.9853
X3.4004Y0.8738
X3.4134Y-0.1467
X3.422Y-0.2593
X3.4232Y-2.5313
X3.4346Y1.1167
X3.4409Y-0.1731
X3.4787Y-1.5349
X3.4866Y-3.9199
X3.4898Y-1.6109
X3.524Y1.3895
X3.5461Y-1.3849
X3.5701Y0.7639
X3.5902Y-2.8022
X3.6012Y-2.425
X3.6197Y-3.7601
X3.6228Y-3.5038
X3.6579Y-3.2534
X3.7063Y-0.1931
X3.7102Y-1.2939
X3.7232Y-1.753
X3.7689Y-2.0644
X3.7937Y-2.362
X3.8776Y-1.2672
X3.8976Y-2.0758
X3.9169Y-1.5801
X3.9512Y-1.7675
X3.976Y-0.3404
X4.0264Y-0.7195
X4.1161Y-0.8916
X4.139Y0.0742
X4.1433Y1.3828
X4.1504Y0.7427
X4.1516Y-1.4884
X4.1736Y0.0048
X4.1835Y-1.1593
X4.1993Y0.0305
X4.222Y-1.1675
X4.2315Y-1.1333
X4.25Y-0.2561
X4.25Y-0.2813
X4.25Y-0.3069
X4.2752Y-0.2565
X4.2752Y-0.2817
X4.2752Y-0.3073
X4.2961Y0.7675
X4.3008Y-0.2557
X4.3008Y-0.2809
X4.3008Y-0.3065
X4.3114Y-1.0144
X4.326Y-0.2561
X4.326Y-0.2813
X4.326Y-0.3069
X4.328Y0.4383
X4.3327Y-1.4609
X4.3409Y-2.1116
X4.3465Y0.4896
X4.3512Y-0.2557
X4.3512Y-0.2809
X4.3512Y-0.3065
X4.3646Y1.3994
X4.3721Y0.5143
X4.4366Y-1.8805
X4.4469Y-1.166
X4.4551Y-1.2609
X4.4661Y-1.8805
X4.4748Y-1.403
X4.4777Y1.0395
X4.5055Y-1.5128
X4.5091Y1.0136
X4.5126Y-0.3589
X4.5134Y1.0652
X4.5366Y0.3734
X4.5476Y0.5084
X4.5752Y-0.7219
X4.589Y-2.1046
X4.6961Y-2.262
X4.7008Y-0.6959
X4.7114Y-2.4042
X4.7169Y-1.6526
X4.7205Y-1.8144
X4.7362Y0.8132
X4.7563Y-1.3868
X4.7571Y-1.6191
X4.778Y-3.5073
X4.7791Y-3.7597
X4.8051Y0.3746
X4.8169Y-1.5132
X4.8295Y-1.2754
X4.8472Y-0.8861
X4.8598Y0.6474
X4.8677Y-0.2565
X4.8713Y-1.2754
X4.8752Y-1.7664
X4.8752Y-1.7923
X4.8752Y-1.8179
X4.8752Y-1.8439
X4.8752Y-1.8695
X4.8992Y-1.7668
X4.8992Y-1.7927
X4.8992Y-1.8183
X4.8992Y-1.8443
X4.8992Y-1.8699
X4.9016Y-1.4927
X4.9039Y-1.5549
X4.9083Y-1.4148
X4.9236Y-1.7672
X4.9236Y-1.7931
X4.9236Y-1.8187
X4.9236Y-1.8447
X4.9236Y-1.8703
X4.9453Y-2.0081
X4.9622Y-2.2006
X4.9661Y0.3939
X4.985Y-1.4073
X4.9858Y-0.8372
X4.987Y-0.6404
X4.9906Y-2.3294
X5.0031Y-0.4191
X5.0283Y1.3573
X5.0374Y-3.5427
X5.0484Y0.908
X5.0583Y-2.4486
X5.0587Y-2.4746
X5.0591Y-2.501
X5.0594Y-2.527
X5.0598Y-2.2786
X5.0807Y-0.8172
X5.0807Y-0.8439
X5.0846Y-2.4486
X5.085Y-2.4746
X5.0854Y-2.501
X5.0858Y-2.527
X5.111Y-2.4486
X5.1114Y-2.4746
X5.1118Y-2.501
X5.1122Y-2.527
X5.1134Y-3.4294
X5.1374Y-2.4486
X5.1378Y-2.4746
X5.1382Y-2.501
X5.1386Y-2.527
X5.1394Y-2.0605
X5.172Y-1.2994
X5.1772Y-2.7672
X5.1871Y-1.3396
X5.1913Y0.5423
X5.1961Y-2.2703
X5.2051Y-2.8876
X5.2126Y-2.1018
X5.2157Y-3.6916
X5.2213Y-3.0223
X5.237Y-1.3927
X5.2453Y0.6679
X5.2587Y0.8947
X5.2622Y-2.7002
X5.2622Y-3.9849
X5.278Y-2.8833
X5.2992Y-2.0809
X5.3059Y-3.4758
X5.3323Y-0.0353
X5.361Y-2.8502
X5.4083Y-2.7132
X5.4098Y-2.79
X5.4217Y0.2384
X5.4646Y-1.4105
X5.4768Y-3.9549
X5.4803Y-3.7427
X5.4953Y1.351
X5.5122Y-0.514
X5.55Y1.2919
X5.55Y-2.7376
X5.5504Y-0.8089
X5.5555Y-3.8609
X5.6173Y0.7124
X5.6217Y-0.0136
X5.6256Y-3.4542
X5.6287Y0.5065
X5.6535Y-0.6254
X5.6657Y0.2057
X5.7Y-3.3833
X5.7327Y0.1191
X5.7591Y-3.4605
X5.7717Y1.0332
X5.7823Y0.4903
X5.9205Y1.0238
X5.9256Y-1.0624
X5.9449Y0.7832
X5.9453Y-3.3821
X5.9484Y-2.7927
X5.9886Y-1.3262
X6.0071Y-0.7183
X6.0122Y-2.0467
X6.0154Y0.9265
X6.0169Y-2.1175
X6.0232Y-2.7337
X6.0315Y1.1765
X6.0921Y0.5521
X6.1276Y-1.0416
X6.1492Y-3.3506
X6.2398Y-0.7203
X6.2429Y-1.5774
X6.2531Y-1.1065
X6.2913Y-0.8955
X6.3685Y-1.4825
T2
X4.0512Y-2.0518
X4.0512Y-2.2014
X4.3898Y-2.2014
X4.3906Y-2.0518
T3
X-2.0669Y1.0147
X-2.0669Y0.9147
X-2.0669Y0.8147
X-2.0669Y0.7147
X-2.0669Y0.6147
X-1.2225Y-0.4149
X-1.2225Y-0.511
X-1.2225Y-0.6072
X-1.2225Y-0.7034
X-1.2225Y-0.7995
X-0.6247Y-0.4215
X-0.6247Y-0.5165
X-0.6247Y-0.6116
X-0.6247Y-0.7066
X-0.6247Y-0.8016
X-0.458Y0.5799
X-0.4528Y1.2895
X-0.4528Y1.151
X-0.36Y0.58
X-0.3543Y1.2895
X-0.3543Y1.151
X1.3751Y0.5804
X1.3804Y1.2899
X1.3804Y1.1514
X1.4731Y0.5804
X1.4788Y1.2899
X1.4788Y1.1514
X2.7305Y0.6981
X2.7305Y0.5596
X2.7362Y1.2691
X2.8289Y0.6981
X2.8289Y0.5596
X2.8342Y1.2692
X4.0Y1.2297
X4.0Y1.1297
X4.1Y1.2297
X4.1Y1.1297
X4.2Y1.2297
X4.2Y1.1297
X4.3Y1.2297
X4.3Y1.1297
X4.4Y1.2297
X4.4Y1.1297
X4.5Y1.2297
X4.5Y1.1297
X4.6Y1.2297
X4.6Y1.1297
X4.7Y1.2297
X4.7Y1.1297
X4.8Y1.2297
X4.8Y1.1297
X4.9Y1.2297
X4.9Y1.1297
X5.0Y1.2297
X5.0Y1.1297
X5.1Y1.2297
X5.1Y1.1297
X5.2Y1.2297
X5.2Y1.1297
X5.3Y1.2297
X5.3Y1.1297
X5.4Y1.2297
X5.4Y1.1297
X5.5Y1.2297
X5.5Y1.1297
X5.6Y1.2297
X5.6Y1.1297
X5.7Y1.2297
X5.7Y1.1297
X5.8Y1.2297
X5.8Y1.1297
X5.9Y1.2297
X5.9Y1.1297
T4
X5.2134Y-3.6128
X5.3134Y-3.6128
X5.4134Y-3.6128
T5
X6.2402Y-2.7861
X6.2402Y-3.1798
X6.2441Y-1.9002
X6.2441Y-2.0971
X6.2441Y-2.2939
X6.2441Y-2.4908
T6
X4.7846Y-3.2486
X5.0508Y-3.2486
X5.3374Y-3.2486
X5.6035Y-3.2486
T7
X3.9464Y0.8558
X3.9464Y-1.0734
X6.2298Y0.8558
T8
X-1.8769Y0.5697
X-1.8725Y1.3013
X-0.0437Y0.5702
X-0.0394Y1.3017
T3
G00X3.6496Y-1.5931
M15
G01X3.6496Y-1.5065
M16
G05
G00X3.8898Y-1.4357
M15
G01X3.7874Y-1.4357
M16
G05
G00X3.8819Y-1.6837
M15
G01X3.7953Y-1.6837
M16
G05
M30
