M48
; DRILL file {KiCad 9.0.2} date 2025-05-14T09:05:42+0800
; FORMAT={-:-/ absolute / inch / decimal}
; #@! TF.CreationDate,2025-05-14T09:05:42+08:00
; #@! TF.GenerationSoftware,Kicad,Pcbnew,9.0.2
; #@! TF.FileFunction,NonPlated,1,2,NPTH
FMAT,2
INCH
; #@! TA.AperFunction,NonPlated,NPTH,ComponentDrill
T1C0.0157
%
G90
G05
T1
X4.0504Y-2.038
X4.0504Y-2.042
X4.0504Y-2.0439
X4.0504Y-2.0479
X4.0504Y-2.0597
X4.0504Y-2.0636
X4.0504Y-2.0656
X4.0504Y-2.1896
X4.0504Y-2.1916
X4.0504Y-2.1935
X4.0504Y-2.1975
X4.0504Y-2.2053
X4.0504Y-2.2093
X4.0504Y-2.2112
X4.0504Y-2.2152
X4.3906Y-2.038
X4.3906Y-2.042
X4.3906Y-2.0439
X4.3906Y-2.0479
X4.3906Y-2.0557
X4.3906Y-2.0597
X4.3906Y-2.0616
X4.3906Y-2.0656
X4.3906Y-2.1876
X4.3906Y-2.1916
X4.3906Y-2.1935
X4.3906Y-2.1975
X4.3906Y-2.2053
X4.3906Y-2.2093
X4.3906Y-2.2112
X4.3906Y-2.2152
M30
