%TF.GenerationSoftware,KiCad,Pcbnew,9.0.2*%
%TF.CreationDate,2025-05-14T09:05:42+08:00*%
%TF.ProjectId,MothBo,4d6f7468-426f-42e6-9b69-6361645f7063,5.0.0*%
%TF.SameCoordinates,Original*%
%TF.FileFunction,Soldermask,Top*%
%TF.FilePolarity,Negative*%
%FSLAX46Y46*%
G04 Gerber Fmt 4.6, Leading zero omitted, Abs format (unit mm)*
G04 Created by KiCad (PCBNEW 9.0.2) date 2025-05-14 09:05:42*
%MOMM*%
%LPD*%
G01*
G04 APERTURE LIST*
G04 Aperture macros list*
%AMRoundRect*
0 Rectangle with rounded corners*
0 $1 Rounding radius*
0 $2 $3 $4 $5 $6 $7 $8 $9 X,Y pos of 4 corners*
0 Add a 4 corners polygon primitive as box body*
4,1,4,$2,$3,$4,$5,$6,$7,$8,$9,$2,$3,0*
0 Add four circle primitives for the rounded corners*
1,1,$1+$1,$2,$3*
1,1,$1+$1,$4,$5*
1,1,$1+$1,$6,$7*
1,1,$1+$1,$8,$9*
0 Add four rect primitives between the rounded corners*
20,1,$1+$1,$2,$3,$4,$5,0*
20,1,$1+$1,$4,$5,$6,$7,0*
20,1,$1+$1,$6,$7,$8,$9,0*
20,1,$1+$1,$8,$9,$2,$3,0*%
%AMFreePoly0*
4,1,23,0.500000,-0.750000,0.000000,-0.750000,0.000000,-0.745722,-0.065263,-0.745722,-0.191342,-0.711940,-0.304381,-0.646677,-0.396677,-0.554381,-0.461940,-0.441342,-0.495722,-0.315263,-0.495722,-0.250000,-0.500000,-0.250000,-0.500000,0.250000,-0.495722,0.250000,-0.495722,0.315263,-0.461940,0.441342,-0.396677,0.554381,-0.304381,0.646677,-0.191342,0.711940,-0.065263,0.745722,0.000000,0.745722,
0.000000,0.750000,0.500000,0.750000,0.500000,-0.750000,0.500000,-0.750000,$1*%
%AMFreePoly1*
4,1,23,0.000000,0.745722,0.065263,0.745722,0.191342,0.711940,0.304381,0.646677,0.396677,0.554381,0.461940,0.441342,0.495722,0.315263,0.495722,0.250000,0.500000,0.250000,0.500000,-0.250000,0.495722,-0.250000,0.495722,-0.315263,0.461940,-0.441342,0.396677,-0.554381,0.304381,-0.646677,0.191342,-0.711940,0.065263,-0.745722,0.000000,-0.745722,0.000000,-0.750000,-0.500000,-0.750000,
-0.500000,0.750000,0.000000,0.750000,0.000000,0.745722,0.000000,0.745722,$1*%
G04 Aperture macros list end*
%ADD10C,0.010000*%
%ADD11RoundRect,0.250000X-1.000000X1.000000X-1.000000X-1.000000X1.000000X-1.000000X1.000000X1.000000X0*%
%ADD12C,2.500000*%
%ADD13RoundRect,0.250000X-0.450000X0.262500X-0.450000X-0.262500X0.450000X-0.262500X0.450000X0.262500X0*%
%ADD14RoundRect,0.250000X0.450000X-0.262500X0.450000X0.262500X-0.450000X0.262500X-0.450000X-0.262500X0*%
%ADD15RoundRect,0.250000X0.475000X-0.337500X0.475000X0.337500X-0.475000X0.337500X-0.475000X-0.337500X0*%
%ADD16RoundRect,0.250000X-0.362500X-1.425000X0.362500X-1.425000X0.362500X1.425000X-0.362500X1.425000X0*%
%ADD17RoundRect,0.250000X0.250000X0.475000X-0.250000X0.475000X-0.250000X-0.475000X0.250000X-0.475000X0*%
%ADD18RoundRect,0.102000X-1.150000X-0.535000X1.150000X-0.535000X1.150000X0.535000X-1.150000X0.535000X0*%
%ADD19RoundRect,0.250000X-1.425000X0.362500X-1.425000X-0.362500X1.425000X-0.362500X1.425000X0.362500X0*%
%ADD20RoundRect,0.125000X0.625000X0.125000X-0.625000X0.125000X-0.625000X-0.125000X0.625000X-0.125000X0*%
%ADD21RoundRect,0.125000X0.125000X0.625000X-0.125000X0.625000X-0.125000X-0.625000X0.125000X-0.625000X0*%
%ADD22RoundRect,0.250000X1.425000X-0.362500X1.425000X0.362500X-1.425000X0.362500X-1.425000X-0.362500X0*%
%ADD23RoundRect,0.165000X0.385000X0.885000X-0.385000X0.885000X-0.385000X-0.885000X0.385000X-0.885000X0*%
%ADD24RoundRect,0.315000X0.735000X0.735000X-0.735000X0.735000X-0.735000X-0.735000X0.735000X-0.735000X0*%
%ADD25RoundRect,0.243750X-0.456250X0.243750X-0.456250X-0.243750X0.456250X-0.243750X0.456250X0.243750X0*%
%ADD26RoundRect,0.250000X-0.475000X0.250000X-0.475000X-0.250000X0.475000X-0.250000X0.475000X0.250000X0*%
%ADD27RoundRect,0.102000X1.800000X-1.000000X1.800000X1.000000X-1.800000X1.000000X-1.800000X-1.000000X0*%
%ADD28RoundRect,0.165000X-0.385000X-0.885000X0.385000X-0.885000X0.385000X0.885000X-0.385000X0.885000X0*%
%ADD29RoundRect,0.315000X-0.735000X-0.735000X0.735000X-0.735000X0.735000X0.735000X-0.735000X0.735000X0*%
%ADD30RoundRect,0.250000X0.362500X1.425000X-0.362500X1.425000X-0.362500X-1.425000X0.362500X-1.425000X0*%
%ADD31RoundRect,0.102000X0.650000X0.450000X-0.650000X0.450000X-0.650000X-0.450000X0.650000X-0.450000X0*%
%ADD32RoundRect,0.165000X0.885000X-0.385000X0.885000X0.385000X-0.885000X0.385000X-0.885000X-0.385000X0*%
%ADD33RoundRect,0.315000X0.735000X-0.735000X0.735000X0.735000X-0.735000X0.735000X-0.735000X-0.735000X0*%
%ADD34RoundRect,0.249997X2.950003X2.650003X-2.950003X2.650003X-2.950003X-2.650003X2.950003X-2.650003X0*%
%ADD35RoundRect,0.250000X0.850000X0.350000X-0.850000X0.350000X-0.850000X-0.350000X0.850000X-0.350000X0*%
%ADD36RoundRect,0.165000X-0.885000X0.385000X-0.885000X-0.385000X0.885000X-0.385000X0.885000X0.385000X0*%
%ADD37RoundRect,0.315000X-0.735000X0.735000X-0.735000X-0.735000X0.735000X-0.735000X0.735000X0.735000X0*%
%ADD38RoundRect,0.102000X-0.500000X-0.375000X0.500000X-0.375000X0.500000X0.375000X-0.500000X0.375000X0*%
%ADD39RoundRect,0.198500X0.508500X0.198500X-0.508500X0.198500X-0.508500X-0.198500X0.508500X-0.198500X0*%
%ADD40C,1.905000*%
%ADD41C,2.857500*%
%ADD42RoundRect,0.250000X-0.250000X-0.475000X0.250000X-0.475000X0.250000X0.475000X-0.250000X0.475000X0*%
%ADD43RoundRect,0.250000X-0.900000X1.000000X-0.900000X-1.000000X0.900000X-1.000000X0.900000X1.000000X0*%
%ADD44RoundRect,0.150000X-0.587500X-0.150000X0.587500X-0.150000X0.587500X0.150000X-0.587500X0.150000X0*%
%ADD45RoundRect,0.250000X1.750000X2.500000X-1.750000X2.500000X-1.750000X-2.500000X1.750000X-2.500000X0*%
%ADD46R,1.800000X1.000000*%
%ADD47RoundRect,0.250000X-0.475000X0.337500X-0.475000X-0.337500X0.475000X-0.337500X0.475000X0.337500X0*%
%ADD48RoundRect,0.150000X0.587500X0.150000X-0.587500X0.150000X-0.587500X-0.150000X0.587500X-0.150000X0*%
%ADD49FreePoly0,180.000000*%
%ADD50FreePoly1,180.000000*%
%ADD51RoundRect,0.249997X-2.950003X-2.650003X2.950003X-2.650003X2.950003X2.650003X-2.950003X2.650003X0*%
%ADD52RoundRect,0.250000X-0.850000X-0.350000X0.850000X-0.350000X0.850000X0.350000X-0.850000X0.350000X0*%
%ADD53R,1.700000X1.700000*%
%ADD54C,1.700000*%
%ADD55RoundRect,0.250001X1.149999X-1.149999X1.149999X1.149999X-1.149999X1.149999X-1.149999X-1.149999X0*%
%ADD56C,2.800000*%
%ADD57C,6.404000*%
%ADD58R,4.600000X2.000000*%
%ADD59O,4.200000X2.000000*%
%ADD60O,2.000000X4.200000*%
%ADD61RoundRect,0.675000X0.675000X0.675000X-0.675000X0.675000X-0.675000X-0.675000X0.675000X-0.675000X0*%
%ADD62C,2.700000*%
%ADD63R,1.905000X2.000000*%
%ADD64O,1.905000X2.000000*%
%ADD65O,1.204000X2.204000*%
G04 APERTURE END LIST*
D10*
%TO.C,U1*%
X148770000Y-63311342D02*
X147100000Y-63311342D01*
X147100000Y-62261342D01*
X140900000Y-62261342D01*
X140900000Y-53361342D01*
X147100000Y-53361342D01*
X147100000Y-52311342D01*
X148770000Y-52311342D01*
X148770000Y-63311342D01*
G36*
X148770000Y-63311342D02*
G01*
X147100000Y-63311342D01*
X147100000Y-62261342D01*
X140900000Y-62261342D01*
X140900000Y-53361342D01*
X147100000Y-53361342D01*
X147100000Y-52311342D01*
X148770000Y-52311342D01*
X148770000Y-63311342D01*
G37*
%TO.C,JP1*%
G36*
X-38060000Y-11045671D02*
G01*
X-38360000Y-11045671D01*
X-38360000Y-9545671D01*
X-38060000Y-9545671D01*
X-38060000Y-11045671D01*
G37*
%TD*%
D11*
%TO.C,J1*%
X158500000Y-70765671D03*
D12*
X158500000Y-80765671D03*
%TD*%
D13*
%TO.C,R52*%
X107490000Y-3563171D03*
X107490000Y-5388171D03*
%TD*%
D14*
%TO.C,R12*%
X5108571Y-61758171D03*
X5108571Y-59933171D03*
%TD*%
D15*
%TO.C,C3*%
X130670000Y-61213171D03*
X130670000Y-59138171D03*
%TD*%
D16*
%TO.C,R64*%
X112337497Y-14015672D03*
X118262501Y-14015670D03*
%TD*%
D17*
%TO.C,C16*%
X9500000Y-69650671D03*
X7600000Y-69650671D03*
%TD*%
D18*
%TO.C,U1*%
X134500000Y-54411342D03*
X134500000Y-56111342D03*
X134500000Y-57811342D03*
X134500000Y-59511342D03*
X134500000Y-61211342D03*
%TD*%
D19*
%TO.C,R56*%
X-69700000Y-56578172D03*
X-69700000Y-62503170D03*
%TD*%
D14*
%TO.C,R8*%
X-11050000Y-61758171D03*
X-11050000Y-59933171D03*
%TD*%
D20*
%TO.C,U5*%
X4025000Y-74285671D03*
X4025000Y-73485671D03*
X4025000Y-72685671D03*
X4025000Y-71885671D03*
X4025000Y-71085671D03*
X4025000Y-70285671D03*
X4025000Y-69485671D03*
X4025000Y-68685671D03*
D21*
X2650000Y-67310671D03*
X1850000Y-67310671D03*
X1050000Y-67310671D03*
X250000Y-67310671D03*
X-550000Y-67310671D03*
X-1350000Y-67310671D03*
X-2150000Y-67310671D03*
X-2950000Y-67310671D03*
D20*
X-4325000Y-68685671D03*
X-4325000Y-69485671D03*
X-4325000Y-70285671D03*
X-4325000Y-71085671D03*
X-4325000Y-71885671D03*
X-4325000Y-72685671D03*
X-4325000Y-73485671D03*
X-4325000Y-74285671D03*
D21*
X-2950000Y-75660671D03*
X-2150000Y-75660671D03*
X-1350000Y-75660671D03*
X-550000Y-75660671D03*
X250000Y-75660671D03*
X1050000Y-75660671D03*
X1850000Y-75660671D03*
X2650000Y-75660671D03*
%TD*%
D16*
%TO.C,R67*%
X45444997Y18279329D03*
X51369999Y18279329D03*
%TD*%
D22*
%TO.C,R55*%
X-67049999Y-3118171D03*
X-67049999Y2806829D03*
%TD*%
D16*
%TO.C,R65*%
X129575164Y2557452D03*
X135500164Y2557452D03*
%TD*%
D23*
%TO.C,D18*%
X157649999Y-22765671D03*
D24*
X155500000Y-22765671D03*
%TD*%
D25*
%TO.C,D21*%
X-7567143Y-55750671D03*
X-7567143Y-57625671D03*
%TD*%
D23*
%TO.C,D3*%
X82777500Y-24765671D03*
D24*
X80627500Y-24765671D03*
%TD*%
D23*
%TO.C,D17*%
X-10280001Y-31736097D03*
D24*
X-12430001Y-31736097D03*
%TD*%
D26*
%TO.C,C6*%
X23500000Y-60175671D03*
X23500000Y-62075671D03*
%TD*%
D27*
%TO.C,E4*%
X146980000Y-37593171D03*
X146980000Y-44393171D03*
%TD*%
D28*
%TO.C,D20*%
X87312501Y7234330D03*
D29*
X89462501Y7234329D03*
%TD*%
D14*
%TO.C,R14*%
X-1049047Y-61758171D03*
X-1049047Y-59933171D03*
%TD*%
D30*
%TO.C,R59*%
X11412500Y-98565670D03*
X5487502Y-98565672D03*
%TD*%
D31*
%TO.C,D33*%
X-7467500Y-76005671D03*
X-7467500Y-73865671D03*
X-10647500Y-73865671D03*
X-10647500Y-76005671D03*
%TD*%
D15*
%TO.C,R5*%
X130590000Y-56093171D03*
X130590000Y-54018171D03*
%TD*%
D30*
%TO.C,R74*%
X101425000Y7234331D03*
X95500000Y7234329D03*
%TD*%
D28*
%TO.C,D8*%
X-42603207Y2434329D03*
D29*
X-40453209Y2434327D03*
%TD*%
D17*
%TO.C,C15*%
X9550000Y-76610671D03*
X7650000Y-76610671D03*
%TD*%
D32*
%TO.C,D19*%
X88372006Y-96915670D03*
D33*
X88372006Y-94765671D03*
%TD*%
D14*
%TO.C,R51*%
X49470000Y3959329D03*
X49470000Y5784329D03*
%TD*%
D28*
%TO.C,D5*%
X-2839997Y-98665671D03*
D29*
X-690000Y-98665671D03*
%TD*%
D23*
%TO.C,D13*%
X59710000Y18279329D03*
D24*
X57560000Y18279326D03*
%TD*%
D25*
%TO.C,D23*%
X11572857Y-55730671D03*
X11572857Y-57605671D03*
%TD*%
D30*
%TO.C,R63*%
X-23325000Y-70415670D03*
X-29249998Y-70415674D03*
%TD*%
D13*
%TO.C,R54*%
X106130000Y3709329D03*
X106130000Y1884329D03*
%TD*%
D23*
%TO.C,D15*%
X150719999Y22924329D03*
D24*
X148570000Y22924329D03*
%TD*%
D15*
%TO.C,C2*%
X128470000Y-61163171D03*
X128470000Y-59088171D03*
%TD*%
D14*
%TO.C,R7*%
X-7570000Y-61758171D03*
X-7570000Y-59933171D03*
%TD*%
D34*
%TO.C,Q4*%
X39960000Y3516829D03*
D35*
X46260000Y1236829D03*
X46260000Y5796829D03*
%TD*%
D30*
%TO.C,R68*%
X56425000Y-71765671D03*
X50500000Y-71765671D03*
%TD*%
D16*
%TO.C,R70*%
X81575000Y-55765671D03*
X87500000Y-55765671D03*
%TD*%
D28*
%TO.C,D14*%
X42312500Y-71859733D03*
D29*
X44462499Y-71859733D03*
%TD*%
D13*
%TO.C,R11*%
X1850671Y-78113171D03*
X1850671Y-79938171D03*
%TD*%
D36*
%TO.C,D1*%
X-66500000Y11384328D03*
D37*
X-66500000Y9234329D03*
%TD*%
D38*
%TO.C,SW1*%
X20680000Y-64820671D03*
X26680000Y-64820671D03*
X20680000Y-68570671D03*
X26680000Y-68570671D03*
%TD*%
D14*
%TO.C,R13*%
X2064762Y-61758171D03*
X2064762Y-59933171D03*
%TD*%
D16*
%TO.C,R69*%
X136417499Y22924329D03*
X142342499Y22924329D03*
%TD*%
D39*
%TO.C,U6*%
X20915000Y-62075671D03*
X20915000Y-61125671D03*
X20915000Y-60175671D03*
X18405000Y-60175671D03*
X18405000Y-62075671D03*
%TD*%
D23*
%TO.C,D11*%
X143725164Y2557452D03*
D24*
X141575164Y2557452D03*
%TD*%
D25*
%TO.C,D27*%
X-1037143Y-55750671D03*
X-1037143Y-57625671D03*
%TD*%
D40*
%TO.C,A1*%
X35061497Y29246355D03*
X37561331Y29246355D03*
X35061497Y32764329D03*
X37561331Y32764329D03*
X34928203Y14741147D03*
X37416361Y14743415D03*
D41*
X-1111190Y14483124D03*
X-1000000Y33064329D03*
%TD*%
D42*
%TO.C,C14*%
X-9080000Y-68720671D03*
X-7180000Y-68720671D03*
%TD*%
D28*
%TO.C,D6*%
X-48750479Y-98315672D03*
D29*
X-46600479Y-98315671D03*
%TD*%
D43*
%TO.C,E2*%
X147820000Y-81845671D03*
X147820000Y-86145671D03*
%TD*%
D16*
%TO.C,R66*%
X124447499Y-97740671D03*
X130372499Y-97740671D03*
%TD*%
D28*
%TO.C,D9*%
X-37827496Y-69765672D03*
D29*
X-35677499Y-69765671D03*
%TD*%
D36*
%TO.C,D4*%
X-67500000Y-24615672D03*
D37*
X-67500000Y-26765671D03*
%TD*%
D30*
%TO.C,R60*%
X-34597977Y-98565671D03*
X-40522979Y-98565671D03*
%TD*%
D14*
%TO.C,R9*%
X11592381Y-61758171D03*
X11592381Y-59933171D03*
%TD*%
D23*
%TO.C,D12*%
X138749999Y-97741982D03*
D24*
X136600000Y-97741981D03*
%TD*%
D42*
%TO.C,C17*%
X-9100000Y-70720671D03*
X-7200000Y-70720671D03*
%TD*%
D44*
%TO.C,Q7*%
X108792500Y3706829D03*
X108792500Y1806829D03*
X110667500Y2756829D03*
%TD*%
D17*
%TO.C,C10*%
X12030671Y-74295671D03*
X10130671Y-74295671D03*
%TD*%
D16*
%TO.C,R72*%
X143537499Y-22765671D03*
X149462499Y-22765671D03*
%TD*%
D17*
%TO.C,C11*%
X11990671Y-71715671D03*
X10090671Y-71715671D03*
%TD*%
D32*
%TO.C,D2*%
X-69649998Y-71080670D03*
D33*
X-69649999Y-68930670D03*
%TD*%
D19*
%TO.C,R73*%
X88500000Y-82803171D03*
X88500000Y-88728171D03*
%TD*%
D45*
%TO.C,L1*%
X139550000Y-44423171D03*
X129050000Y-44423171D03*
%TD*%
D23*
%TO.C,D16*%
X95877500Y-55765671D03*
D24*
X93727501Y-55765671D03*
%TD*%
D14*
%TO.C,R53*%
X56450000Y3789329D03*
X56450000Y5614329D03*
%TD*%
D46*
%TO.C,Y1*%
X8020671Y-71785671D03*
X8020671Y-74285671D03*
%TD*%
D28*
%TO.C,D7*%
X8472498Y-3765671D03*
D29*
X10622498Y-3765671D03*
%TD*%
D25*
%TO.C,D22*%
X-11057143Y-55760671D03*
X-11057143Y-57635671D03*
%TD*%
D23*
%TO.C,D10*%
X126840001Y-13765671D03*
D24*
X124690000Y-13765672D03*
%TD*%
D47*
%TO.C,R4*%
X128430000Y-54028171D03*
X128430000Y-56103171D03*
%TD*%
D22*
%TO.C,R58*%
X-67849999Y-39218171D03*
X-67849999Y-33293171D03*
%TD*%
D17*
%TO.C,C9*%
X9540000Y-78700671D03*
X7640000Y-78700671D03*
%TD*%
D16*
%TO.C,R57*%
X68575000Y-24765671D03*
X74500000Y-24765671D03*
%TD*%
D30*
%TO.C,R61*%
X22674999Y-3515672D03*
X16749999Y-3515672D03*
%TD*%
D48*
%TO.C,Q6*%
X53807500Y3801829D03*
X53807500Y5701829D03*
X51932500Y4751829D03*
%TD*%
D49*
%TO.C,JP1*%
X-37560000Y-10295671D03*
D50*
X-38860000Y-10295671D03*
%TD*%
D40*
%TO.C,A2*%
X71854864Y17731389D03*
X69355030Y17731389D03*
X71854864Y14213415D03*
X69355030Y14213415D03*
X71988158Y32236597D03*
X69500000Y32234329D03*
%TD*%
D14*
%TO.C,R10*%
X8360000Y-61758171D03*
X8360000Y-59933171D03*
%TD*%
D26*
%TO.C,C7*%
X16050000Y-60185671D03*
X16050000Y-62085671D03*
%TD*%
D25*
%TO.C,D24*%
X8332857Y-55750671D03*
X8332857Y-57625671D03*
%TD*%
D16*
%TO.C,R71*%
X-24582501Y-31730671D03*
X-18657501Y-31730671D03*
%TD*%
D25*
%TO.C,D28*%
X-4067143Y-55750671D03*
X-4067143Y-57625671D03*
%TD*%
D30*
%TO.C,R62*%
X-28550708Y2034331D03*
X-34475708Y2034327D03*
%TD*%
D14*
%TO.C,R6*%
X16070000Y-66648171D03*
X16070000Y-64823171D03*
%TD*%
D40*
%TO.C,A3*%
X-11500000Y29234329D03*
X-9000166Y29234329D03*
X-11500000Y32752303D03*
X-9000166Y32752303D03*
X-11633294Y14729121D03*
X-9145136Y14731389D03*
D41*
X-47672687Y14471098D03*
X-47561497Y33052303D03*
%TD*%
D14*
%TO.C,R15*%
X-4063810Y-61758171D03*
X-4063810Y-59933171D03*
%TD*%
D51*
%TO.C,Q5*%
X116960000Y-3108171D03*
D52*
X110660000Y-828171D03*
X110660000Y-5388171D03*
%TD*%
D26*
%TO.C,C8*%
X18170000Y-64825671D03*
X18170000Y-66725671D03*
%TD*%
D25*
%TO.C,D25*%
X5072857Y-55750671D03*
X5072857Y-57625671D03*
%TD*%
%TO.C,D26*%
X2052857Y-55750671D03*
X2052857Y-57625671D03*
%TD*%
D53*
%TO.C,J5*%
X-52500000Y15614329D03*
D54*
X-52500000Y18154329D03*
X-52500000Y20694329D03*
X-52500000Y23234329D03*
X-52500000Y25774329D03*
%TD*%
D55*
%TO.C,U2*%
X158600000Y-63265671D03*
D56*
X158600000Y-58265671D03*
X158600000Y-53265671D03*
X158600000Y-48265671D03*
%TD*%
D57*
%TO.C,U4*%
X158237500Y21736829D03*
X100237500Y21736829D03*
X100237500Y-27263171D03*
%TD*%
D58*
%TO.C,J7*%
X97500000Y-36465671D03*
D59*
X97500000Y-42765671D03*
D60*
X92700000Y-39365671D03*
%TD*%
D61*
%TO.C,F1*%
X142330000Y-82515671D03*
X135570000Y-82515671D03*
D62*
X128290000Y-82515671D03*
X121530000Y-82515671D03*
%TD*%
D53*
%TO.C,U3*%
X101600000Y31234329D03*
D54*
X101600000Y28694329D03*
X104140000Y31234329D03*
X104140000Y28694329D03*
X106680000Y31234329D03*
X106680000Y28694329D03*
X109220000Y31234329D03*
X109220000Y28694329D03*
X111760000Y31234329D03*
X111760000Y28694329D03*
X114300000Y31234329D03*
X114300000Y28694329D03*
X116840000Y31234329D03*
X116840000Y28694329D03*
X119380000Y31234329D03*
X119380000Y28694329D03*
X121920000Y31234329D03*
X121920000Y28694329D03*
X124460000Y31234329D03*
X124460000Y28694329D03*
X127000000Y31234329D03*
X127000000Y28694329D03*
X129540000Y31234329D03*
X129540000Y28694329D03*
X132080000Y31234329D03*
X132080000Y28694329D03*
X134620000Y31234329D03*
X134620000Y28694329D03*
X137160000Y31234329D03*
X137160000Y28694329D03*
X139700000Y31234329D03*
X139700000Y28694329D03*
X142240000Y31234329D03*
X142240000Y28694329D03*
X144780000Y31234329D03*
X144780000Y28694329D03*
X147320000Y31234329D03*
X147320000Y28694329D03*
X149860000Y31234329D03*
X149860000Y28694329D03*
%TD*%
D63*
%TO.C,Q1*%
X137500000Y-91765671D03*
D64*
X134960000Y-91765671D03*
X132420000Y-91765671D03*
%TD*%
D65*
%TO.C,J2*%
X111500000Y-55915671D03*
X102900000Y-55915671D03*
X102900000Y-52115671D03*
X111520000Y-52115671D03*
%TD*%
D40*
%TO.C,J4*%
X-31050680Y-10538019D03*
X-15866151Y-13119451D03*
X-31050680Y-20307866D03*
X-15866151Y-10705332D03*
X-31050680Y-15422942D03*
X-15866151Y-15533570D03*
X-15866151Y-17947689D03*
X-15866151Y-20361808D03*
X-31050680Y-17865404D03*
X-31050680Y-12980481D03*
%TD*%
M02*
