<?xml version="1.0" standalone="no"?>
 <!DOCTYPE svg PUBLIC "-//W3C//DTD SVG 1.1//EN" 
 "http://www.w3.org/Graphics/SVG/1.1/DTD/svg11.dtd"> 
<svg
  xmlns:svg="http://www.w3.org/2000/svg"
  xmlns="http://www.w3.org/2000/svg"
  xmlns:xlink="http://www.w3.org/1999/xlink"
  version="1.1"
  width="297.0022mm" height="210.0072mm" viewBox="0.0000 0.0000 297.0022 210.0072">
<title>SVG Image created as MothBox-F_Paste.svg date 2025/07/18 12:57:55 </title>
  <desc>Image generated by PCBNEW </desc>
<g style="fill:#000000; fill-opacity:1.0000;stroke:#000000; stroke-opacity:1.0000;
stroke-linecap:round; stroke-linejoin:round;"
 transform="translate(0 0) scale(1 1)">
<path style="fill:#000000; fill-opacity:1.0000; stroke:none;fill-rule:evenodd;"
d="M 94.1738,149.1341
94.2504,149.1493
94.3152,149.1927
94.3586,149.2576
94.3738,149.3341
94.3738,149.8341
94.3586,149.9106
94.3152,149.9755
94.2504,150.0189
94.1738,150.0341
92.4538,150.0341
92.3773,150.0189
92.3124,149.9755
92.2690,149.9106
92.2538,149.8341
92.2538,149.3341
92.2690,149.2576
92.3124,149.1927
92.3773,149.1493
92.4538,149.1341
Z" /> 
<path style="fill:#000000; fill-opacity:1.0000; stroke:none;fill-rule:evenodd;"
d="M 94.1738,152.0591
94.2504,152.0743
94.3152,152.1177
94.3586,152.1826
94.3738,152.2591
94.3738,152.7591
94.3586,152.8356
94.3152,152.9005
94.2504,152.9439
94.1738,152.9591
92.4538,152.9591
92.3773,152.9439
92.3124,152.9005
92.2690,152.8356
92.2538,152.7591
92.2538,152.2591
92.2690,152.1826
92.3124,152.1177
92.3773,152.0743
92.4538,152.0591
Z" /> 
<path style="fill:#000000; fill-opacity:1.0000; stroke:none;fill-rule:evenodd;"
d="M 125.4224,92.2091
124.7824,92.2091
124.7824,90.2891
125.4224,90.2891
Z" /> 
<path style="fill:#000000; fill-opacity:1.0000; stroke:none;fill-rule:evenodd;"
d="M 130.0624,90.2891
130.7024,90.2891
130.7024,92.2091
130.0624,92.2091
Z" /> 
<path style="fill:#000000; fill-opacity:1.0000; stroke:none;fill-rule:evenodd;"
d="M 129.0944,90.6411
129.0944,91.8571
126.9904,91.8571
126.9904,90.6411
Z" /> 
<path style="fill:#000000; fill-opacity:1.0000; stroke:none;fill-rule:evenodd;"
d="M 78.9005,171.2861
78.9770,171.3014
79.0419,171.3447
79.0853,171.4096
79.1005,171.4861
79.1005,171.9861
79.0853,172.0627
79.0419,172.1276
78.9770,172.1709
78.9005,172.1861
77.1805,172.1861
77.1040,172.1709
77.0391,172.1276
76.9957,172.0627
76.9805,171.9861
76.9805,171.4861
76.9957,171.4096
77.0391,171.3447
77.1040,171.3014
77.1805,171.2861
Z" /> 
<path style="fill:#000000; fill-opacity:1.0000; stroke:none;fill-rule:evenodd;"
d="M 78.9005,174.2111
78.9770,174.2264
79.0419,174.2697
79.0853,174.3346
79.1005,174.4111
79.1005,174.9111
79.0853,174.9877
79.0419,175.0526
78.9770,175.0959
78.9005,175.1111
77.1805,175.1111
77.1040,175.0959
77.0391,175.0526
76.9957,174.9877
76.9805,174.9111
76.9805,174.4111
76.9957,174.3346
77.0391,174.2697
77.1040,174.2264
77.1805,174.2111
Z" /> 
<path style="fill:#000000; fill-opacity:1.0000; stroke:none;fill-rule:evenodd;"
d="M 238.6714,89.1186
238.7479,89.1339
238.8128,89.1772
238.8562,89.2421
238.8714,89.3186
238.8714,89.8186
238.8562,89.8952
238.8128,89.9601
238.7479,90.0034
238.6714,90.0186
236.9514,90.0186
236.8749,90.0034
236.8100,89.9601
236.7666,89.8952
236.7514,89.8186
236.7514,89.3186
236.7666,89.2421
236.8100,89.1772
236.8749,89.1339
236.9514,89.1186
Z" /> 
<path style="fill:#000000; fill-opacity:1.0000; stroke:none;fill-rule:evenodd;"
d="M 238.6714,92.0436
238.7479,92.0589
238.8128,92.1022
238.8562,92.1671
238.8714,92.2436
238.8714,92.7436
238.8562,92.8202
238.8128,92.8851
238.7479,92.9284
238.6714,92.9436
236.9514,92.9436
236.8749,92.9284
236.8100,92.8851
236.7666,92.8202
236.7514,92.7436
236.7514,92.2436
236.7666,92.1671
236.8100,92.1022
236.8749,92.0589
236.9514,92.0436
Z" /> 
<path style="fill:#000000; fill-opacity:1.0000; stroke:none;fill-rule:evenodd;"
d="M 140.3077,160.7736
140.3842,160.7888
140.4491,160.8321
140.4925,160.8970
140.5077,160.9736
140.5077,161.4736
140.4925,161.5501
140.4491,161.6150
140.3842,161.6583
140.3077,161.6736
138.5877,161.6736
138.5111,161.6583
138.4463,161.6150
138.4029,161.5501
138.3877,161.4736
138.3877,160.9736
138.4029,160.8970
138.4463,160.8321
138.5111,160.7888
138.5877,160.7736
Z" /> 
<path style="fill:#000000; fill-opacity:1.0000; stroke:none;fill-rule:evenodd;"
d="M 140.3077,163.6986
140.3842,163.7138
140.4491,163.7571
140.4925,163.8220
140.5077,163.8986
140.5077,164.3986
140.4925,164.4751
140.4491,164.5400
140.3842,164.5833
140.3077,164.5986
138.5877,164.5986
138.5111,164.5833
138.4463,164.5400
138.4029,164.4751
138.3877,164.3986
138.3877,163.8986
138.4029,163.8220
138.4463,163.7571
138.5111,163.7138
138.5877,163.6986
Z" /> 
<path style="fill:#000000; fill-opacity:1.0000; stroke:none;fill-rule:evenodd;"
d="M 177.2825,113.5567
177.2825,112.9167
179.2025,112.9167
179.2025,113.5567
Z" /> 
<path style="fill:#000000; fill-opacity:1.0000; stroke:none;fill-rule:evenodd;"
d="M 179.2025,118.1967
179.2025,118.8367
177.2825,118.8367
177.2825,118.1967
Z" /> 
<path style="fill:#000000; fill-opacity:1.0000; stroke:none;fill-rule:evenodd;"
d="M 178.8505,117.2287
177.6345,117.2287
177.6345,115.1247
178.8505,115.1247
Z" /> 
<path style="fill:#000000; fill-opacity:1.0000; stroke:none;fill-rule:evenodd;"
d="M 116.7895,173.4961
117.4295,173.4961
117.4295,175.4161
116.7895,175.4161
Z" /> 
<path style="fill:#000000; fill-opacity:1.0000; stroke:none;fill-rule:evenodd;"
d="M 112.1495,175.4161
111.5095,175.4161
111.5095,173.4961
112.1495,173.4961
Z" /> 
<path style="fill:#000000; fill-opacity:1.0000; stroke:none;fill-rule:evenodd;"
d="M 113.1175,175.0641
113.1175,173.8481
115.2215,173.8481
115.2215,175.0641
Z" /> 
<path style="fill:#000000; fill-opacity:1.0000; stroke:none;fill-rule:evenodd;"
d="M 36.6147,101.2589
36.6147,100.6189
38.5347,100.6189
38.5347,101.2589
Z" /> 
<path style="fill:#000000; fill-opacity:1.0000; stroke:none;fill-rule:evenodd;"
d="M 38.5347,105.8989
38.5347,106.5389
36.6147,106.5389
36.6147,105.8989
Z" /> 
<path style="fill:#000000; fill-opacity:1.0000; stroke:none;fill-rule:evenodd;"
d="M 38.1827,104.9309
36.9667,104.9309
36.9667,102.8269
38.1827,102.8269
Z" /> 
<path style="fill:#000000; fill-opacity:1.0000; stroke:none;fill-rule:evenodd;"
d="M 182.4428,160.2357
183.0828,160.2357
183.0828,162.1557
182.4428,162.1557
Z" /> 
<path style="fill:#000000; fill-opacity:1.0000; stroke:none;fill-rule:evenodd;"
d="M 177.8028,162.1557
177.1628,162.1557
177.1628,160.2357
177.8028,160.2357
Z" /> 
<path style="fill:#000000; fill-opacity:1.0000; stroke:none;fill-rule:evenodd;"
d="M 178.7708,161.8037
178.7708,160.5877
180.8748,160.5877
180.8748,161.8037
Z" /> 
<path style="fill:#000000; fill-opacity:1.0000; stroke:none;fill-rule:evenodd;"
d="M 214.5677,106.8657
213.9277,106.8657
213.9277,104.9457
214.5677,104.9457
Z" /> 
<path style="fill:#000000; fill-opacity:1.0000; stroke:none;fill-rule:evenodd;"
d="M 219.2077,104.9457
219.8477,104.9457
219.8477,106.8657
219.2077,106.8657
Z" /> 
<path style="fill:#000000; fill-opacity:1.0000; stroke:none;fill-rule:evenodd;"
d="M 218.2397,105.2977
218.2397,106.5137
216.1357,106.5137
216.1357,105.2977
Z" /> 
<path style="fill:#000000; fill-opacity:1.0000; stroke:none;fill-rule:evenodd;"
d="M 185.3200,187.2780
185.9600,187.2780
185.9600,189.1980
185.3200,189.1980
Z" /> 
<path style="fill:#000000; fill-opacity:1.0000; stroke:none;fill-rule:evenodd;"
d="M 180.6800,189.1980
180.0400,189.1980
180.0400,187.2780
180.6800,187.2780
Z" /> 
<path style="fill:#000000; fill-opacity:1.0000; stroke:none;fill-rule:evenodd;"
d="M 181.6480,188.8460
181.6480,187.6300
183.7520,187.6300
183.7520,188.8460
Z" /> 
<path style="fill:#000000; fill-opacity:1.0000; stroke:none;fill-rule:evenodd;"
d="M 144.6594,170.0519
144.6594,170.6919
142.7394,170.6919
142.7394,170.0519
Z" /> 
<path style="fill:#000000; fill-opacity:1.0000; stroke:none;fill-rule:evenodd;"
d="M 142.7394,165.4119
142.7394,164.7719
144.6594,164.7719
144.6594,165.4119
Z" /> 
<path style="fill:#000000; fill-opacity:1.0000; stroke:none;fill-rule:evenodd;"
d="M 143.0914,166.3799
144.3074,166.3799
144.3074,168.4839
143.0914,168.4839
Z" /> 
<path style="fill:#000000; fill-opacity:1.0000; stroke:none;fill-rule:evenodd;"
d="M 238.7265,169.2659
238.7699,169.3308
238.7851,169.4073
238.7699,169.4838
238.7265,169.5487
238.3730,169.9023
238.3081,169.9456
238.2315,169.9608
238.1550,169.9456
238.0901,169.9023
236.8739,168.6860
236.8305,168.6212
236.8153,168.5446
236.8305,168.4681
236.8739,168.4032
237.2274,168.0496
237.2923,168.0063
237.3689,167.9911
237.4454,168.0063
237.5103,168.0496
Z" /> 
<path style="fill:#000000; fill-opacity:1.0000; stroke:none;fill-rule:evenodd;"
d="M 236.6582,171.3342
236.7016,171.3990
236.7168,171.4756
236.7016,171.5521
236.6582,171.6170
236.3047,171.9706
236.2398,172.0139
236.1632,172.0291
236.0867,172.0139
236.0218,171.9706
234.8056,170.7543
234.7622,170.6894
234.7470,170.6129
234.7622,170.5364
234.8056,170.4715
235.1592,170.1179
235.2240,170.0746
235.3006,170.0594
235.3771,170.0746
235.4420,170.1179
Z" /> 
<path style="fill:#000000; fill-opacity:1.0000; stroke:none;fill-rule:evenodd;"
d="M 254.5942,158.2782
254.5942,158.9182
252.6742,158.9182
252.6742,158.2782
Z" /> 
<path style="fill:#000000; fill-opacity:1.0000; stroke:none;fill-rule:evenodd;"
d="M 252.6742,153.6382
252.6742,152.9982
254.5942,152.9982
254.5942,153.6382
Z" /> 
<path style="fill:#000000; fill-opacity:1.0000; stroke:none;fill-rule:evenodd;"
d="M 253.0262,154.6062
254.2422,154.6062
254.2422,156.7102
253.0262,156.7102
Z" /> 
<path style="fill:#000000; fill-opacity:1.0000; stroke:none;fill-rule:evenodd;"
d="M 105.7161,120.4070
105.3561,120.4070
105.3561,120.0870
105.7161,120.0870
Z" /> 
<path style="fill:#000000; fill-opacity:1.0000; stroke:none;fill-rule:evenodd;"
d="M 105.7161,119.7470
105.3561,119.7470
105.3561,119.4270
105.7161,119.4270
Z" /> 
<path style="fill:#000000; fill-opacity:1.0000; stroke:none;fill-rule:evenodd;"
d="M 105.7161,119.0970
105.3561,119.0970
105.3561,118.7770
105.7161,118.7770
Z" /> 
<path style="fill:#000000; fill-opacity:1.0000; stroke:none;fill-rule:evenodd;"
d="M 103.8161,119.0970
103.4561,119.0970
103.4561,118.7770
103.8161,118.7770
Z" /> 
<path style="fill:#000000; fill-opacity:1.0000; stroke:none;fill-rule:evenodd;"
d="M 103.8161,119.7470
103.4561,119.7470
103.4561,119.4270
103.8161,119.4270
Z" /> 
<path style="fill:#000000; fill-opacity:1.0000; stroke:none;fill-rule:evenodd;"
d="M 103.8161,120.4070
103.4561,120.4070
103.4561,120.0870
103.8161,120.0870
Z" /> 
<path style="fill:#000000; fill-opacity:1.0000; stroke:none;fill-rule:evenodd;"
d="M 104.9501,119.0470
104.2221,119.0470
104.2221,118.7270
104.9501,118.7270
Z" /> 
<path style="fill:#000000; fill-opacity:1.0000; stroke:none;fill-rule:evenodd;"
d="M 104.9501,120.2410
104.2221,120.2410
104.2221,119.5930
104.9501,119.5930
Z" /> 
<path style="fill:#000000; fill-opacity:1.0000; stroke:none;fill-rule:evenodd;"
d="M 232.3820,195.5588
233.0220,195.5588
233.0220,197.4788
232.3820,197.4788
Z" /> 
<path style="fill:#000000; fill-opacity:1.0000; stroke:none;fill-rule:evenodd;"
d="M 227.7420,197.4788
227.1020,197.4788
227.1020,195.5588
227.7420,195.5588
Z" /> 
<path style="fill:#000000; fill-opacity:1.0000; stroke:none;fill-rule:evenodd;"
d="M 228.7100,197.1268
228.7100,195.9108
230.8140,195.9108
230.8140,197.1268
Z" /> 
<path style="fill:#000000; fill-opacity:1.0000; stroke:none;fill-rule:evenodd;"
d="M 148.5157,177.7219
149.1557,177.7219
149.1557,179.6419
148.5157,179.6419
Z" /> 
<path style="fill:#000000; fill-opacity:1.0000; stroke:none;fill-rule:evenodd;"
d="M 143.8757,179.6419
143.2357,179.6419
143.2357,177.7219
143.8757,177.7219
Z" /> 
<path style="fill:#000000; fill-opacity:1.0000; stroke:none;fill-rule:evenodd;"
d="M 144.8437,179.2899
144.8437,178.0739
146.9477,178.0739
146.9477,179.2899
Z" /> 
<path style="fill:#000000; fill-opacity:1.0000; stroke:none;fill-rule:evenodd;"
d="M 36.9501,115.7598
36.3101,115.7598
36.3101,113.8398
36.9501,113.8398
Z" /> 
<path style="fill:#000000; fill-opacity:1.0000; stroke:none;fill-rule:evenodd;"
d="M 41.5901,113.8398
42.2301,113.8398
42.2301,115.7598
41.5901,115.7598
Z" /> 
<path style="fill:#000000; fill-opacity:1.0000; stroke:none;fill-rule:evenodd;"
d="M 40.6221,114.1918
40.6221,115.4078
38.5181,115.4078
38.5181,114.1918
Z" /> 
<path style="fill:#000000; fill-opacity:1.0000; stroke:none;fill-rule:evenodd;"
d="M 147.0514,194.1449
146.4114,194.1449
146.4114,192.2249
147.0514,192.2249
Z" /> 
<path style="fill:#000000; fill-opacity:1.0000; stroke:none;fill-rule:evenodd;"
d="M 151.6914,192.2249
152.3314,192.2249
152.3314,194.1449
151.6914,194.1449
Z" /> 
<path style="fill:#000000; fill-opacity:1.0000; stroke:none;fill-rule:evenodd;"
d="M 150.7234,192.5769
150.7234,193.7929
148.6194,193.7929
148.6194,192.5769
Z" /> 
<path style="fill:#000000; fill-opacity:1.0000; stroke:none;fill-rule:evenodd;"
d="M 134.8463,87.3340
134.9228,87.3493
134.9877,87.3926
135.0311,87.4575
135.0463,87.5340
135.0463,88.0340
135.0311,88.1106
134.9877,88.1755
134.9228,88.2188
134.8463,88.2340
133.1263,88.2340
133.0498,88.2188
132.9849,88.1755
132.9415,88.1106
132.9263,88.0340
132.9263,87.5340
132.9415,87.4575
132.9849,87.3926
133.0498,87.3493
133.1263,87.3340
Z" /> 
<path style="fill:#000000; fill-opacity:1.0000; stroke:none;fill-rule:evenodd;"
d="M 134.8463,90.2590
134.9228,90.2743
134.9877,90.3176
135.0311,90.3825
135.0463,90.4590
135.0463,90.9590
135.0311,91.0356
134.9877,91.1005
134.9228,91.1438
134.8463,91.1590
133.1263,91.1590
133.0498,91.1438
132.9849,91.1005
132.9415,91.0356
132.9263,90.9590
132.9263,90.4590
132.9415,90.3825
132.9849,90.3176
133.0498,90.2743
133.1263,90.2590
Z" /> 
<path style="fill:#000000; fill-opacity:1.0000; stroke:none;fill-rule:evenodd;"
d="M 58.8796,152.1180
58.2396,152.1180
58.2396,150.1980
58.8796,150.1980
Z" /> 
<path style="fill:#000000; fill-opacity:1.0000; stroke:none;fill-rule:evenodd;"
d="M 63.5196,150.1980
64.1596,150.1980
64.1596,152.1180
63.5196,152.1180
Z" /> 
<path style="fill:#000000; fill-opacity:1.0000; stroke:none;fill-rule:evenodd;"
d="M 62.5516,150.5500
62.5516,151.7660
60.4476,151.7660
60.4476,150.5500
Z" /> 
<path style="fill:#000000; fill-opacity:1.0000; stroke:none;fill-rule:evenodd;"
d="M 166.6200,170.2257
165.9800,170.2257
165.9800,168.3057
166.6200,168.3057
Z" /> 
<path style="fill:#000000; fill-opacity:1.0000; stroke:none;fill-rule:evenodd;"
d="M 171.2600,168.3057
171.9000,168.3057
171.9000,170.2257
171.2600,170.2257
Z" /> 
<path style="fill:#000000; fill-opacity:1.0000; stroke:none;fill-rule:evenodd;"
d="M 170.2920,168.6577
170.2920,169.8737
168.1880,169.8737
168.1880,168.6577
Z" /> 
<path style="fill:#000000; fill-opacity:1.0000; stroke:none;fill-rule:evenodd;"
d="M 81.7447,141.8057
82.3847,141.8057
82.3847,143.7257
81.7447,143.7257
Z" /> 
<path style="fill:#000000; fill-opacity:1.0000; stroke:none;fill-rule:evenodd;"
d="M 77.1047,143.7257
76.4647,143.7257
76.4647,141.8057
77.1047,141.8057
Z" /> 
<path style="fill:#000000; fill-opacity:1.0000; stroke:none;fill-rule:evenodd;"
d="M 78.0727,143.3737
78.0727,142.1577
80.1767,142.1577
80.1767,143.3737
Z" /> 
<path style="fill:#000000; fill-opacity:1.0000; stroke:none;fill-rule:evenodd;"
d="M 41.9672,175.4480
41.3272,175.4480
41.3272,173.5280
41.9672,173.5280
Z" /> 
<path style="fill:#000000; fill-opacity:1.0000; stroke:none;fill-rule:evenodd;"
d="M 46.6072,173.5280
47.2472,173.5280
47.2472,175.4480
46.6072,175.4480
Z" /> 
<path style="fill:#000000; fill-opacity:1.0000; stroke:none;fill-rule:evenodd;"
d="M 45.6392,173.8800
45.6392,175.0960
43.5352,175.0960
43.5352,173.8800
Z" /> 
<path style="fill:#000000; fill-opacity:1.0000; stroke:none;fill-rule:evenodd;"
d="M 256.1977,131.2396
256.2129,131.1630
256.2563,131.0982
256.3212,131.0548
256.3977,131.0396
256.8977,131.0396
256.9742,131.0548
257.0391,131.0982
257.0825,131.1630
257.0977,131.2396
257.0977,132.9596
257.0825,133.0361
257.0391,133.1010
256.9742,133.1444
256.8977,133.1596
256.3977,133.1596
256.3212,133.1444
256.2563,133.1010
256.2129,133.0361
256.1977,132.9596
Z" /> 
<path style="fill:#000000; fill-opacity:1.0000; stroke:none;fill-rule:evenodd;"
d="M 259.1227,131.2396
259.1379,131.1630
259.1813,131.0982
259.2462,131.0548
259.3227,131.0396
259.8227,131.0396
259.8992,131.0548
259.9641,131.0982
260.0075,131.1630
260.0227,131.2396
260.0227,132.9596
260.0075,133.0361
259.9641,133.1010
259.8992,133.1444
259.8227,133.1596
259.3227,133.1596
259.2462,133.1444
259.1813,133.1010
259.1379,133.0361
259.1227,132.9596
Z" /> 
<path style="fill:#000000; fill-opacity:1.0000; stroke:none;fill-rule:evenodd;"
d="M 57.4875,171.5313
57.4723,171.6079
57.4290,171.6727
57.3641,171.7161
57.2875,171.7313
56.7875,171.7313
56.7110,171.7161
56.6461,171.6727
56.6028,171.6079
56.5875,171.5313
56.5875,169.8113
56.6028,169.7348
56.6461,169.6699
56.7110,169.6265
56.7875,169.6113
57.2875,169.6113
57.3641,169.6265
57.4290,169.6699
57.4723,169.7348
57.4875,169.8113
Z" /> 
<path style="fill:#000000; fill-opacity:1.0000; stroke:none;fill-rule:evenodd;"
d="M 54.5625,171.5313
54.5473,171.6079
54.5040,171.6727
54.4391,171.7161
54.3625,171.7313
53.8625,171.7313
53.7860,171.7161
53.7211,171.6727
53.6778,171.6079
53.6625,171.5313
53.6625,169.8113
53.6778,169.7348
53.7211,169.6699
53.7860,169.6265
53.8625,169.6113
54.3625,169.6113
54.4391,169.6265
54.5040,169.6699
54.5473,169.7348
54.5625,169.8113
Z" /> 
<path style="fill:#000000; fill-opacity:1.0000; stroke:none;fill-rule:evenodd;"
d="M 203.9992,135.5089
203.9992,136.1489
202.0792,136.1489
202.0792,135.5089
Z" /> 
<path style="fill:#000000; fill-opacity:1.0000; stroke:none;fill-rule:evenodd;"
d="M 202.0792,130.8689
202.0792,130.2289
203.9992,130.2289
203.9992,130.8689
Z" /> 
<path style="fill:#000000; fill-opacity:1.0000; stroke:none;fill-rule:evenodd;"
d="M 202.4312,131.8369
203.6472,131.8369
203.6472,133.9409
202.4312,133.9409
Z" /> 
<path style="fill:#000000; fill-opacity:1.0000; stroke:none;fill-rule:evenodd;"
d="M 227.3511,119.1097
226.9911,119.1097
226.9911,118.7897
227.3511,118.7897
Z" /> 
<path style="fill:#000000; fill-opacity:1.0000; stroke:none;fill-rule:evenodd;"
d="M 227.3511,118.4497
226.9911,118.4497
226.9911,118.1297
227.3511,118.1297
Z" /> 
<path style="fill:#000000; fill-opacity:1.0000; stroke:none;fill-rule:evenodd;"
d="M 227.3511,117.7997
226.9911,117.7997
226.9911,117.4797
227.3511,117.4797
Z" /> 
<path style="fill:#000000; fill-opacity:1.0000; stroke:none;fill-rule:evenodd;"
d="M 225.4511,117.7997
225.0911,117.7997
225.0911,117.4797
225.4511,117.4797
Z" /> 
<path style="fill:#000000; fill-opacity:1.0000; stroke:none;fill-rule:evenodd;"
d="M 225.4511,118.4497
225.0911,118.4497
225.0911,118.1297
225.4511,118.1297
Z" /> 
<path style="fill:#000000; fill-opacity:1.0000; stroke:none;fill-rule:evenodd;"
d="M 225.4511,119.1097
225.0911,119.1097
225.0911,118.7897
225.4511,118.7897
Z" /> 
<path style="fill:#000000; fill-opacity:1.0000; stroke:none;fill-rule:evenodd;"
d="M 226.5851,117.7497
225.8571,117.7497
225.8571,117.4297
226.5851,117.4297
Z" /> 
<path style="fill:#000000; fill-opacity:1.0000; stroke:none;fill-rule:evenodd;"
d="M 226.5851,118.9437
225.8571,118.9437
225.8571,118.2957
226.5851,118.2957
Z" /> 
<path style="fill:#000000; fill-opacity:1.0000; stroke:none;fill-rule:evenodd;"
d="M 70.2266,185.9372
69.5866,185.9372
69.5866,184.0172
70.2266,184.0172
Z" /> 
<path style="fill:#000000; fill-opacity:1.0000; stroke:none;fill-rule:evenodd;"
d="M 74.8666,184.0172
75.5066,184.0172
75.5066,185.9372
74.8666,185.9372
Z" /> 
<path style="fill:#000000; fill-opacity:1.0000; stroke:none;fill-rule:evenodd;"
d="M 73.8986,184.3692
73.8986,185.5852
71.7946,185.5852
71.7946,184.3692
Z" /> 
<path style="fill:#000000; fill-opacity:1.0000; stroke:none;fill-rule:evenodd;"
d="M 116.4469,137.1084
116.3704,137.0932
116.3055,137.0499
116.2622,136.9850
116.2469,136.9084
116.2469,136.4084
116.2622,136.3319
116.3055,136.2670
116.3704,136.2237
116.4469,136.2084
118.1669,136.2084
118.2435,136.2237
118.3084,136.2670
118.3517,136.3319
118.3669,136.4084
118.3669,136.9084
118.3517,136.9850
118.3084,137.0499
118.2435,137.0932
118.1669,137.1084
Z" /> 
<path style="fill:#000000; fill-opacity:1.0000; stroke:none;fill-rule:evenodd;"
d="M 116.4469,134.1834
116.3704,134.1682
116.3055,134.1249
116.2622,134.0600
116.2469,133.9834
116.2469,133.4834
116.2622,133.4069
116.3055,133.3420
116.3704,133.2987
116.4469,133.2834
118.1669,133.2834
118.2435,133.2987
118.3084,133.3420
118.3517,133.4069
118.3669,133.4834
118.3669,133.9834
118.3517,134.0600
118.3084,134.1249
118.2435,134.1682
118.1669,134.1834
Z" /> 
<path style="fill:#000000; fill-opacity:1.0000; stroke:none;fill-rule:evenodd;"
d="M 194.8988,177.4511
194.8988,178.0911
192.9788,178.0911
192.9788,177.4511
Z" /> 
<path style="fill:#000000; fill-opacity:1.0000; stroke:none;fill-rule:evenodd;"
d="M 192.9788,172.8111
192.9788,172.1711
194.8988,172.1711
194.8988,172.8111
Z" /> 
<path style="fill:#000000; fill-opacity:1.0000; stroke:none;fill-rule:evenodd;"
d="M 193.3308,173.7791
194.5468,173.7791
194.5468,175.8831
193.3308,175.8831
Z" /> 
<path style="fill:#000000; fill-opacity:1.0000; stroke:none;fill-rule:evenodd;"
d="M 149.8883,91.0104
150.5283,91.0104
150.5283,92.9304
149.8883,92.9304
Z" /> 
<path style="fill:#000000; fill-opacity:1.0000; stroke:none;fill-rule:evenodd;"
d="M 145.2483,92.9304
144.6083,92.9304
144.6083,91.0104
145.2483,91.0104
Z" /> 
<path style="fill:#000000; fill-opacity:1.0000; stroke:none;fill-rule:evenodd;"
d="M 146.2163,92.5784
146.2163,91.3624
148.3203,91.3624
148.3203,92.5784
Z" /> 
<path style="fill:#000000; fill-opacity:1.0000; stroke:none;fill-rule:evenodd;"
d="M 191.0248,142.8017
190.3848,142.8017
190.3848,140.8817
191.0248,140.8817
Z" /> 
<path style="fill:#000000; fill-opacity:1.0000; stroke:none;fill-rule:evenodd;"
d="M 195.6648,140.8817
196.3048,140.8817
196.3048,142.8017
195.6648,142.8017
Z" /> 
<path style="fill:#000000; fill-opacity:1.0000; stroke:none;fill-rule:evenodd;"
d="M 194.6968,141.2337
194.6968,142.4497
192.5928,142.4497
192.5928,141.2337
Z" /> 
<path style="fill:#000000; fill-opacity:1.0000; stroke:none;fill-rule:evenodd;"
d="M 259.7592,124.2000
259.7592,123.5600
261.6792,123.5600
261.6792,124.2000
Z" /> 
<path style="fill:#000000; fill-opacity:1.0000; stroke:none;fill-rule:evenodd;"
d="M 261.6792,128.8400
261.6792,129.4800
259.7592,129.4800
259.7592,128.8400
Z" /> 
<path style="fill:#000000; fill-opacity:1.0000; stroke:none;fill-rule:evenodd;"
d="M 261.3272,127.8720
260.1112,127.8720
260.1112,125.7680
261.3272,125.7680
Z" /> 
<path style="fill:#000000; fill-opacity:1.0000; stroke:none;fill-rule:evenodd;"
d="M 227.3365,116.4738
227.3244,116.5350
227.2897,116.5869
227.2378,116.6216
227.1765,116.6338
226.8565,116.6338
226.7953,116.6216
226.7434,116.5869
226.7087,116.5350
226.6965,116.4738
226.6965,116.0338
226.7087,115.9726
226.7434,115.9206
226.7953,115.8860
226.8565,115.8738
227.1765,115.8738
227.2378,115.8860
227.2897,115.9206
227.3244,115.9726
227.3365,116.0338
Z" /> 
<path style="fill:#000000; fill-opacity:1.0000; stroke:none;fill-rule:evenodd;"
d="M 225.6865,116.4738
225.6744,116.5350
225.6397,116.5869
225.5878,116.6216
225.5265,116.6338
225.2065,116.6338
225.1453,116.6216
225.0934,116.5869
225.0587,116.5350
225.0465,116.4738
225.0465,116.0338
225.0587,115.9726
225.0934,115.9206
225.1453,115.8860
225.2065,115.8738
225.5265,115.8738
225.5878,115.8860
225.6397,115.9206
225.6744,115.9726
225.6865,116.0338
Z" /> 
<path style="fill:#000000; fill-opacity:1.0000; stroke:none;fill-rule:evenodd;"
d="M 37.7932,150.7159
37.1532,150.7159
37.1532,148.7959
37.7932,148.7959
Z" /> 
<path style="fill:#000000; fill-opacity:1.0000; stroke:none;fill-rule:evenodd;"
d="M 42.4332,148.7959
43.0732,148.7959
43.0732,150.7159
42.4332,150.7159
Z" /> 
<path style="fill:#000000; fill-opacity:1.0000; stroke:none;fill-rule:evenodd;"
d="M 41.4652,149.1479
41.4652,150.3639
39.3612,150.3639
39.3612,149.1479
Z" /> 
<path style="fill:#000000; fill-opacity:1.0000; stroke:none;fill-rule:evenodd;"
d="M 233.2779,97.5714
232.6379,97.5714
232.6379,95.6514
233.2779,95.6514
Z" /> 
<path style="fill:#000000; fill-opacity:1.0000; stroke:none;fill-rule:evenodd;"
d="M 237.9179,95.6514
238.5579,95.6514
238.5579,97.5714
237.9179,97.5714
Z" /> 
<path style="fill:#000000; fill-opacity:1.0000; stroke:none;fill-rule:evenodd;"
d="M 236.9499,96.0034
236.9499,97.2194
234.8459,97.2194
234.8459,96.0034
Z" /> 
<path style="fill:#000000; fill-opacity:1.0000; stroke:none;fill-rule:evenodd;"
d="M 195.2350,192.2947
195.8750,192.2947
195.8750,194.2147
195.2350,194.2147
Z" /> 
<path style="fill:#000000; fill-opacity:1.0000; stroke:none;fill-rule:evenodd;"
d="M 190.5950,194.2147
189.9550,194.2147
189.9550,192.2947
190.5950,192.2947
Z" /> 
<path style="fill:#000000; fill-opacity:1.0000; stroke:none;fill-rule:evenodd;"
d="M 191.5630,193.8627
191.5630,192.6467
193.6670,192.6467
193.6670,193.8627
Z" /> 
<path style="fill:#000000; fill-opacity:1.0000; stroke:none;fill-rule:evenodd;"
d="M 61.2767,183.2053
61.2767,183.8453
59.3567,183.8453
59.3567,183.2053
Z" /> 
<path style="fill:#000000; fill-opacity:1.0000; stroke:none;fill-rule:evenodd;"
d="M 59.3567,178.5653
59.3567,177.9253
61.2767,177.9253
61.2767,178.5653
Z" /> 
<path style="fill:#000000; fill-opacity:1.0000; stroke:none;fill-rule:evenodd;"
d="M 59.7087,179.5333
60.9247,179.5333
60.9247,181.6373
59.7087,181.6373
Z" /> 
<path style="fill:#000000; fill-opacity:1.0000; stroke:none;fill-rule:evenodd;"
d="M 263.9260,180.4907
263.9260,181.1307
262.0060,181.1307
262.0060,180.4907
Z" /> 
<path style="fill:#000000; fill-opacity:1.0000; stroke:none;fill-rule:evenodd;"
d="M 262.0060,175.8507
262.0060,175.2107
263.9260,175.2107
263.9260,175.8507
Z" /> 
<path style="fill:#000000; fill-opacity:1.0000; stroke:none;fill-rule:evenodd;"
d="M 262.3580,176.8187
263.5740,176.8187
263.5740,178.9227
262.3580,178.9227
Z" /> 
<path style="fill:#000000; fill-opacity:1.0000; stroke:none;fill-rule:evenodd;"
d="M 81.7931,158.0269
81.7931,158.6669
79.8731,158.6669
79.8731,158.0269
Z" /> 
<path style="fill:#000000; fill-opacity:1.0000; stroke:none;fill-rule:evenodd;"
d="M 79.8731,153.3869
79.8731,152.7469
81.7931,152.7469
81.7931,153.3869
Z" /> 
<path style="fill:#000000; fill-opacity:1.0000; stroke:none;fill-rule:evenodd;"
d="M 80.2251,154.3549
81.4411,154.3549
81.4411,156.4589
80.2251,156.4589
Z" /> 
<path style="fill:#000000; fill-opacity:1.0000; stroke:none;fill-rule:evenodd;"
d="M 166.9809,190.0858
166.9809,190.7258
165.0609,190.7258
165.0609,190.0858
Z" /> 
<path style="fill:#000000; fill-opacity:1.0000; stroke:none;fill-rule:evenodd;"
d="M 165.0609,185.4458
165.0609,184.8058
166.9809,184.8058
166.9809,185.4458
Z" /> 
<path style="fill:#000000; fill-opacity:1.0000; stroke:none;fill-rule:evenodd;"
d="M 165.4129,186.4138
166.6289,186.4138
166.6289,188.5178
165.4129,188.5178
Z" /> 
<path style="fill:#000000; fill-opacity:1.0000; stroke:none;fill-rule:evenodd;"
d="M 257.4853,88.3948
257.4853,87.7548
259.4053,87.7548
259.4053,88.3948
Z" /> 
<path style="fill:#000000; fill-opacity:1.0000; stroke:none;fill-rule:evenodd;"
d="M 259.4053,93.0348
259.4053,93.6748
257.4853,93.6748
257.4853,93.0348
Z" /> 
<path style="fill:#000000; fill-opacity:1.0000; stroke:none;fill-rule:evenodd;"
d="M 259.0533,92.0668
257.8373,92.0668
257.8373,89.9628
259.0533,89.9628
Z" /> 
<path style="fill:#000000; fill-opacity:1.0000; stroke:none;fill-rule:evenodd;"
d="M 226.3530,170.2157
225.7130,170.2157
225.7130,168.2957
226.3530,168.2957
Z" /> 
<path style="fill:#000000; fill-opacity:1.0000; stroke:none;fill-rule:evenodd;"
d="M 230.9930,168.2957
231.6330,168.2957
231.6330,170.2157
230.9930,170.2157
Z" /> 
<path style="fill:#000000; fill-opacity:1.0000; stroke:none;fill-rule:evenodd;"
d="M 230.0250,168.6477
230.0250,169.8637
227.9210,169.8637
227.9210,168.6477
Z" /> 
<path style="fill:#000000; fill-opacity:1.0000; stroke:none;fill-rule:evenodd;"
d="M 191.5472,156.0690
191.6238,156.0843
191.6886,156.1276
191.7320,156.1925
191.7472,156.2690
191.7472,156.7690
191.7320,156.8456
191.6886,156.9105
191.6238,156.9538
191.5472,156.9690
189.8272,156.9690
189.7507,156.9538
189.6858,156.9105
189.6424,156.8456
189.6272,156.7690
189.6272,156.2690
189.6424,156.1925
189.6858,156.1276
189.7507,156.0843
189.8272,156.0690
Z" /> 
<path style="fill:#000000; fill-opacity:1.0000; stroke:none;fill-rule:evenodd;"
d="M 191.5472,158.9940
191.6238,159.0093
191.6886,159.0526
191.7320,159.1175
191.7472,159.1940
191.7472,159.6940
191.7320,159.7706
191.6886,159.8355
191.6238,159.8788
191.5472,159.8940
189.8272,159.8940
189.7507,159.8788
189.6858,159.8355
189.6424,159.7706
189.6272,159.6940
189.6272,159.1940
189.6424,159.1175
189.6858,159.0526
189.7507,159.0093
189.8272,158.9940
Z" /> 
<path style="fill:#000000; fill-opacity:1.0000; stroke:none;fill-rule:evenodd;"
d="M 227.5899,183.6302
227.5899,184.2702
225.6699,184.2702
225.6699,183.6302
Z" /> 
<path style="fill:#000000; fill-opacity:1.0000; stroke:none;fill-rule:evenodd;"
d="M 225.6699,178.9902
225.6699,178.3502
227.5899,178.3502
227.5899,178.9902
Z" /> 
<path style="fill:#000000; fill-opacity:1.0000; stroke:none;fill-rule:evenodd;"
d="M 226.0219,179.9582
227.2379,179.9582
227.2379,182.0622
226.0219,182.0622
Z" /> 
<path style="fill:#000000; fill-opacity:1.0000; stroke:none;fill-rule:evenodd;"
d="M 93.6578,189.9802
94.2978,189.9802
94.2978,191.9002
93.6578,191.9002
Z" /> 
<path style="fill:#000000; fill-opacity:1.0000; stroke:none;fill-rule:evenodd;"
d="M 89.0178,191.9002
88.3778,191.9002
88.3778,189.9802
89.0178,189.9802
Z" /> 
<path style="fill:#000000; fill-opacity:1.0000; stroke:none;fill-rule:evenodd;"
d="M 89.9858,191.5482
89.9858,190.3322
92.0898,190.3322
92.0898,191.5482
Z" /> 
<path style="fill:#000000; fill-opacity:1.0000; stroke:none;fill-rule:evenodd;"
d="M 96.9528,134.0330
96.3128,134.0330
96.3128,132.1130
96.9528,132.1130
Z" /> 
<path style="fill:#000000; fill-opacity:1.0000; stroke:none;fill-rule:evenodd;"
d="M 101.5928,132.1130
102.2328,132.1130
102.2328,134.0330
101.5928,134.0330
Z" /> 
<path style="fill:#000000; fill-opacity:1.0000; stroke:none;fill-rule:evenodd;"
d="M 100.6248,132.4650
100.6248,133.6810
98.5208,133.6810
98.5208,132.4650
Z" /> 
<path style="fill:#000000; fill-opacity:1.0000; stroke:none;fill-rule:evenodd;"
d="M 108.1842,155.4585
108.2608,155.4737
108.3257,155.5171
108.3690,155.5820
108.3842,155.6585
108.3842,156.1585
108.3690,156.2351
108.3257,156.2999
108.2608,156.3433
108.1842,156.3585
106.4642,156.3585
106.3877,156.3433
106.3228,156.2999
106.2795,156.2351
106.2642,156.1585
106.2642,155.6585
106.2795,155.5820
106.3228,155.5171
106.3877,155.4737
106.4642,155.4585
Z" /> 
<path style="fill:#000000; fill-opacity:1.0000; stroke:none;fill-rule:evenodd;"
d="M 108.1842,158.3835
108.2608,158.3987
108.3257,158.4421
108.3690,158.5070
108.3842,158.5835
108.3842,159.0835
108.3690,159.1601
108.3257,159.2249
108.2608,159.2683
108.1842,159.2835
106.4642,159.2835
106.3877,159.2683
106.3228,159.2249
106.2795,159.1601
106.2642,159.0835
106.2642,158.5835
106.2795,158.5070
106.3228,158.4421
106.3877,158.3987
106.4642,158.3835
Z" /> 
<path style="fill:#000000; fill-opacity:1.0000; stroke:none;fill-rule:evenodd;"
d="M 55.8361,196.8657
55.1961,196.8657
55.1961,194.9457
55.8361,194.9457
Z" /> 
<path style="fill:#000000; fill-opacity:1.0000; stroke:none;fill-rule:evenodd;"
d="M 60.4761,194.9457
61.1161,194.9457
61.1161,196.8657
60.4761,196.8657
Z" /> 
<path style="fill:#000000; fill-opacity:1.0000; stroke:none;fill-rule:evenodd;"
d="M 59.5081,195.2977
59.5081,196.5137
57.4041,196.5137
57.4041,195.2977
Z" /> 
<path style="fill:#000000; fill-opacity:1.0000; stroke:none;fill-rule:evenodd;"
d="M 120.1884,120.1487
119.5484,120.1487
119.5484,118.2287
120.1884,118.2287
Z" /> 
<path style="fill:#000000; fill-opacity:1.0000; stroke:none;fill-rule:evenodd;"
d="M 124.8284,118.2287
125.4684,118.2287
125.4684,120.1487
124.8284,120.1487
Z" /> 
<path style="fill:#000000; fill-opacity:1.0000; stroke:none;fill-rule:evenodd;"
d="M 123.8604,118.5807
123.8604,119.7967
121.7564,119.7967
121.7564,118.5807
Z" /> 
<path style="fill:#000000; fill-opacity:1.0000; stroke:none;fill-rule:evenodd;"
d="M 98.3847,158.3128
99.0247,158.3128
99.0247,160.2328
98.3847,160.2328
Z" /> 
<path style="fill:#000000; fill-opacity:1.0000; stroke:none;fill-rule:evenodd;"
d="M 93.7447,160.2328
93.1047,160.2328
93.1047,158.3128
93.7447,158.3128
Z" /> 
<path style="fill:#000000; fill-opacity:1.0000; stroke:none;fill-rule:evenodd;"
d="M 94.7127,159.8808
94.7127,158.6648
96.8167,158.6648
96.8167,159.8808
Z" /> 
<path style="fill:#000000; fill-opacity:1.0000; stroke:none;fill-rule:evenodd;"
d="M 48.0962,117.6013
48.0810,117.6778
48.0376,117.7427
47.9727,117.7860
47.8962,117.8013
47.3962,117.8013
47.3197,117.7860
47.2548,117.7427
47.2114,117.6778
47.1962,117.6013
47.1962,115.8813
47.2114,115.8047
47.2548,115.7398
47.3197,115.6965
47.3962,115.6813
47.8962,115.6813
47.9727,115.6965
48.0376,115.7398
48.0810,115.8047
48.0962,115.8813
Z" /> 
<path style="fill:#000000; fill-opacity:1.0000; stroke:none;fill-rule:evenodd;"
d="M 45.1712,117.6013
45.1560,117.6778
45.1126,117.7427
45.0477,117.7860
44.9712,117.8013
44.4712,117.8013
44.3947,117.7860
44.3298,117.7427
44.2864,117.6778
44.2712,117.6013
44.2712,115.8813
44.2864,115.8047
44.3298,115.7398
44.3947,115.6965
44.4712,115.6813
44.9712,115.6813
45.0477,115.6965
45.1126,115.7398
45.1560,115.8047
45.1712,115.8813
Z" /> 
<path style="fill:#000000; fill-opacity:1.0000; stroke:none;fill-rule:evenodd;"
d="M 119.7750,162.3805
119.7750,161.7405
121.6950,161.7405
121.6950,162.3805
Z" /> 
<path style="fill:#000000; fill-opacity:1.0000; stroke:none;fill-rule:evenodd;"
d="M 121.6950,167.0205
121.6950,167.6605
119.7750,167.6605
119.7750,167.0205
Z" /> 
<path style="fill:#000000; fill-opacity:1.0000; stroke:none;fill-rule:evenodd;"
d="M 121.3430,166.0525
120.1270,166.0525
120.1270,163.9485
121.3430,163.9485
Z" /> 
<path style="fill:#000000; fill-opacity:1.0000; stroke:none;fill-rule:evenodd;"
d="M 115.0903,148.8857
115.0903,149.5257
113.1703,149.5257
113.1703,148.8857
Z" /> 
<path style="fill:#000000; fill-opacity:1.0000; stroke:none;fill-rule:evenodd;"
d="M 113.1703,144.2457
113.1703,143.6057
115.0903,143.6057
115.0903,144.2457
Z" /> 
<path style="fill:#000000; fill-opacity:1.0000; stroke:none;fill-rule:evenodd;"
d="M 113.5223,145.2137
114.7383,145.2137
114.7383,147.3177
113.5223,147.3177
Z" /> 
<path style="fill:#000000; fill-opacity:1.0000; stroke:none;fill-rule:evenodd;"
d="M 171.6022,157.3404
171.6788,157.3556
171.7436,157.3990
171.7870,157.4638
171.8022,157.5404
171.8022,158.0404
171.7870,158.1169
171.7436,158.1818
171.6788,158.2251
171.6022,158.2404
169.8822,158.2404
169.8057,158.2251
169.7408,158.1818
169.6974,158.1169
169.6822,158.0404
169.6822,157.5404
169.6974,157.4638
169.7408,157.3990
169.8057,157.3556
169.8822,157.3404
Z" /> 
<path style="fill:#000000; fill-opacity:1.0000; stroke:none;fill-rule:evenodd;"
d="M 171.6022,160.2654
171.6788,160.2806
171.7436,160.3240
171.7870,160.3888
171.8022,160.4654
171.8022,160.9654
171.7870,161.0419
171.7436,161.1068
171.6788,161.1501
171.6022,161.1654
169.8822,161.1654
169.8057,161.1501
169.7408,161.1068
169.6974,161.0419
169.6822,160.9654
169.6822,160.4654
169.6974,160.3888
169.7408,160.3240
169.8057,160.2806
169.8822,160.2654
Z" /> 
<path style="fill:#000000; fill-opacity:1.0000; stroke:none;fill-rule:evenodd;"
d="M 69.5891,123.6007
69.6657,123.6159
69.7305,123.6593
69.7739,123.7241
69.7891,123.8007
69.7891,124.3007
69.7739,124.3772
69.7305,124.4421
69.6657,124.4854
69.5891,124.5007
67.8691,124.5007
67.7926,124.4854
67.7277,124.4421
67.6843,124.3772
67.6691,124.3007
67.6691,123.8007
67.6843,123.7241
67.7277,123.6593
67.7926,123.6159
67.8691,123.6007
Z" /> 
<path style="fill:#000000; fill-opacity:1.0000; stroke:none;fill-rule:evenodd;"
d="M 69.5891,126.5257
69.6657,126.5409
69.7305,126.5842
69.7739,126.6491
69.7891,126.7257
69.7891,127.2257
69.7739,127.3022
69.7305,127.3671
69.6657,127.4104
69.5891,127.4257
67.8691,127.4257
67.7926,127.4104
67.7277,127.3671
67.6843,127.3022
67.6691,127.2257
67.6691,126.7257
67.6843,126.6491
67.7277,126.5842
67.7926,126.5409
67.8691,126.5257
Z" /> 
<path style="fill:#000000; fill-opacity:1.0000; stroke:none;fill-rule:evenodd;"
d="M 140.0275,94.4697
140.6675,94.4697
140.6675,96.3897
140.0275,96.3897
Z" /> 
<path style="fill:#000000; fill-opacity:1.0000; stroke:none;fill-rule:evenodd;"
d="M 135.3875,96.3897
134.7475,96.3897
134.7475,94.4697
135.3875,94.4697
Z" /> 
<path style="fill:#000000; fill-opacity:1.0000; stroke:none;fill-rule:evenodd;"
d="M 136.3555,96.0377
136.3555,94.8217
138.4595,94.8217
138.4595,96.0377
Z" /> 
<path style="fill:#000000; fill-opacity:1.0000; stroke:none;fill-rule:evenodd;"
d="M 44.7371,159.6353
44.7371,158.9953
46.6571,158.9953
46.6571,159.6353
Z" /> 
<path style="fill:#000000; fill-opacity:1.0000; stroke:none;fill-rule:evenodd;"
d="M 46.6571,164.2753
46.6571,164.9153
44.7371,164.9153
44.7371,164.2753
Z" /> 
<path style="fill:#000000; fill-opacity:1.0000; stroke:none;fill-rule:evenodd;"
d="M 46.3051,163.3073
45.0891,163.3073
45.0891,161.2033
46.3051,161.2033
Z" /> 
<path style="fill:#000000; fill-opacity:1.0000; stroke:none;fill-rule:evenodd;"
d="M 221.8151,100.6555
221.1751,100.6555
221.1751,98.7355
221.8151,98.7355
Z" /> 
<path style="fill:#000000; fill-opacity:1.0000; stroke:none;fill-rule:evenodd;"
d="M 226.4551,98.7355
227.0951,98.7355
227.0951,100.6555
226.4551,100.6555
Z" /> 
<path style="fill:#000000; fill-opacity:1.0000; stroke:none;fill-rule:evenodd;"
d="M 225.4871,99.0875
225.4871,100.3035
223.3831,100.3035
223.3831,99.0875
Z" /> 
<path style="fill:#000000; fill-opacity:1.0000; stroke:none;fill-rule:evenodd;"
d="M 246.7429,150.6579
246.7582,150.5814
246.8015,150.5165
246.8664,150.4731
246.9429,150.4579
247.4429,150.4579
247.5195,150.4731
247.5844,150.5165
247.6277,150.5814
247.6429,150.6579
247.6429,152.3779
247.6277,152.4544
247.5844,152.5193
247.5195,152.5627
247.4429,152.5779
246.9429,152.5779
246.8664,152.5627
246.8015,152.5193
246.7582,152.4544
246.7429,152.3779
Z" /> 
<path style="fill:#000000; fill-opacity:1.0000; stroke:none;fill-rule:evenodd;"
d="M 249.6679,150.6579
249.6832,150.5814
249.7265,150.5165
249.7914,150.4731
249.8679,150.4579
250.3679,150.4579
250.4445,150.4731
250.5094,150.5165
250.5527,150.5814
250.5679,150.6579
250.5679,152.3779
250.5527,152.4544
250.5094,152.5193
250.4445,152.5627
250.3679,152.5779
249.8679,152.5779
249.7914,152.5627
249.7265,152.5193
249.6832,152.4544
249.6679,152.3779
Z" /> 
<path style="fill:#000000; fill-opacity:1.0000; stroke:none;fill-rule:evenodd;"
d="M 105.7148,117.7020
105.7026,117.7633
105.6679,117.8152
105.6160,117.8499
105.5548,117.8620
105.2348,117.8620
105.1735,117.8499
105.1216,117.8152
105.0869,117.7633
105.0748,117.7020
105.0748,117.2620
105.0869,117.2008
105.1216,117.1489
105.1735,117.1142
105.2348,117.1020
105.5548,117.1020
105.6160,117.1142
105.6679,117.1489
105.7026,117.2008
105.7148,117.2620
Z" /> 
<path style="fill:#000000; fill-opacity:1.0000; stroke:none;fill-rule:evenodd;"
d="M 104.0648,117.7020
104.0526,117.7633
104.0179,117.8152
103.9660,117.8499
103.9048,117.8620
103.5848,117.8620
103.5235,117.8499
103.4716,117.8152
103.4369,117.7633
103.4248,117.7020
103.4248,117.2620
103.4369,117.2008
103.4716,117.1489
103.5235,117.1142
103.5848,117.1020
103.9048,117.1020
103.9660,117.1142
104.0179,117.1489
104.0526,117.2008
104.0648,117.2620
Z" /> 
<path style="fill:#000000; fill-opacity:1.0000; stroke:none;fill-rule:evenodd;"
d="M 254.9600,167.8057
255.6000,167.8057
255.6000,169.7257
254.9600,169.7257
Z" /> 
<path style="fill:#000000; fill-opacity:1.0000; stroke:none;fill-rule:evenodd;"
d="M 250.3200,169.7257
249.6800,169.7257
249.6800,167.8057
250.3200,167.8057
Z" /> 
<path style="fill:#000000; fill-opacity:1.0000; stroke:none;fill-rule:evenodd;"
d="M 251.2880,169.3737
251.2880,168.1577
253.3920,168.1577
253.3920,169.3737
Z" /> 
<path style="fill:#000000; fill-opacity:1.0000; stroke:none;fill-rule:evenodd;"
d="M 121.1227,184.2577
121.7627,184.2577
121.7627,186.1777
121.1227,186.1777
Z" /> 
<path style="fill:#000000; fill-opacity:1.0000; stroke:none;fill-rule:evenodd;"
d="M 116.4827,186.1777
115.8427,186.1777
115.8427,184.2577
116.4827,184.2577
Z" /> 
<path style="fill:#000000; fill-opacity:1.0000; stroke:none;fill-rule:evenodd;"
d="M 117.4507,185.8257
117.4507,184.6097
119.5547,184.6097
119.5547,185.8257
Z" /> 
<path style="fill:#000000; fill-opacity:1.0000; stroke:none;fill-rule:evenodd;"
d="M 42.1395,91.5126
42.7795,91.5126
42.7795,93.4326
42.1395,93.4326
Z" /> 
<path style="fill:#000000; fill-opacity:1.0000; stroke:none;fill-rule:evenodd;"
d="M 37.4995,93.4326
36.8595,93.4326
36.8595,91.5126
37.4995,91.5126
Z" /> 
<path style="fill:#000000; fill-opacity:1.0000; stroke:none;fill-rule:evenodd;"
d="M 38.4675,93.0806
38.4675,91.8646
40.5715,91.8646
40.5715,93.0806
Z" /> 
<path style="fill:#000000; fill-opacity:1.0000; stroke:none;fill-rule:evenodd;"
d="M 208.9954,127.1343
209.0720,127.1495
209.1369,127.1929
209.1802,127.2578
209.1954,127.3343
209.1954,127.8343
209.1802,127.9108
209.1369,127.9757
209.0720,128.0191
208.9954,128.0343
207.2754,128.0343
207.1989,128.0191
207.1340,127.9757
207.0907,127.9108
207.0754,127.8343
207.0754,127.3343
207.0907,127.2578
207.1340,127.1929
207.1989,127.1495
207.2754,127.1343
Z" /> 
<path style="fill:#000000; fill-opacity:1.0000; stroke:none;fill-rule:evenodd;"
d="M 208.9954,130.0593
209.0720,130.0745
209.1369,130.1179
209.1802,130.1828
209.1954,130.2593
209.1954,130.7593
209.1802,130.8358
209.1369,130.9007
209.0720,130.9441
208.9954,130.9593
207.2754,130.9593
207.1989,130.9441
207.1340,130.9007
207.0907,130.8358
207.0754,130.7593
207.0754,130.2593
207.0907,130.1828
207.1340,130.1179
207.1989,130.0745
207.2754,130.0593
Z" /> 
<path style="fill:#000000; fill-opacity:1.0000; stroke:none;fill-rule:evenodd;"
d="M 259.8011,113.9006
259.1611,113.9006
259.1611,111.9806
259.8011,111.9806
Z" /> 
<path style="fill:#000000; fill-opacity:1.0000; stroke:none;fill-rule:evenodd;"
d="M 264.4411,111.9806
265.0811,111.9806
265.0811,113.9006
264.4411,113.9006
Z" /> 
<path style="fill:#000000; fill-opacity:1.0000; stroke:none;fill-rule:evenodd;"
d="M 263.4731,112.3326
263.4731,113.5486
261.3691,113.5486
261.3691,112.3326
Z" /> 
<path style="fill:#000000; fill-opacity:1.0000; stroke:none;fill-rule:evenodd;"
d="M 59.4765,134.0478
58.8365,134.0478
58.8365,132.1278
59.4765,132.1278
Z" /> 
<path style="fill:#000000; fill-opacity:1.0000; stroke:none;fill-rule:evenodd;"
d="M 64.1165,132.1278
64.7565,132.1278
64.7565,134.0478
64.1165,134.0478
Z" /> 
<path style="fill:#000000; fill-opacity:1.0000; stroke:none;fill-rule:evenodd;"
d="M 63.1485,132.4798
63.1485,133.6958
61.0445,133.6958
61.0445,132.4798
Z" /> 
</g> 
</svg>
