<?xml version="1.0" standalone="no"?>
 <!DOCTYPE svg PUBLIC "-//W3C//DTD SVG 1.1//EN" 
 "http://www.w3.org/Graphics/SVG/1.1/DTD/svg11.dtd"> 
<svg
  xmlns:svg="http://www.w3.org/2000/svg"
  xmlns="http://www.w3.org/2000/svg"
  xmlns:xlink="http://www.w3.org/1999/xlink"
  version="1.1"
  width="297.0022mm" height="210.0072mm" viewBox="0.0000 0.0000 297.0022 210.0072">
<title>SVG Image created as MothBox-B_Paste.svg date 2025/07/18 12:57:55 </title>
  <desc>Image generated by PCBNEW </desc>
<g style="fill:#000000; fill-opacity:1.0000;stroke:#000000; stroke-opacity:1.0000;
stroke-linecap:round; stroke-linejoin:round;"
 transform="translate(0 0) scale(1 1)">
<path style="fill:#000000; fill-opacity:1.0000; stroke:none;fill-rule:evenodd;"
d="M 231.9975,157.3023
232.0112,157.2334
232.0502,157.1750
232.1086,157.1360
232.1775,157.1223
232.5375,157.1223
232.6064,157.1360
232.6648,157.1750
232.7038,157.2334
232.7175,157.3023
232.7175,157.7023
232.7038,157.7712
232.6648,157.8296
232.6064,157.8686
232.5375,157.8823
232.1775,157.8823
232.1086,157.8686
232.0502,157.8296
232.0112,157.7712
231.9975,157.7023
Z" /> 
<path style="fill:#000000; fill-opacity:1.0000; stroke:none;fill-rule:evenodd;"
d="M 233.5475,157.3023
233.5612,157.2334
233.6002,157.1750
233.6586,157.1360
233.7275,157.1223
234.0875,157.1223
234.1564,157.1360
234.2148,157.1750
234.2538,157.2334
234.2675,157.3023
234.2675,157.7023
234.2538,157.7712
234.2148,157.8296
234.1564,157.8686
234.0875,157.8823
233.7275,157.8823
233.6586,157.8686
233.6002,157.8296
233.5612,157.7712
233.5475,157.7023
Z" /> 
<path style="fill:#000000; fill-opacity:1.0000; stroke:none;fill-rule:evenodd;"
d="M 247.0874,172.7988
247.0874,172.4388
247.4074,172.4388
247.4074,172.7988
Z" /> 
<path style="fill:#000000; fill-opacity:1.0000; stroke:none;fill-rule:evenodd;"
d="M 247.7474,172.7988
247.7474,172.4388
248.0674,172.4388
248.0674,172.7988
Z" /> 
<path style="fill:#000000; fill-opacity:1.0000; stroke:none;fill-rule:evenodd;"
d="M 248.3974,172.7988
248.3974,172.4388
248.7174,172.4388
248.7174,172.7988
Z" /> 
<path style="fill:#000000; fill-opacity:1.0000; stroke:none;fill-rule:evenodd;"
d="M 248.3974,174.6988
248.3974,174.3388
248.7174,174.3388
248.7174,174.6988
Z" /> 
<path style="fill:#000000; fill-opacity:1.0000; stroke:none;fill-rule:evenodd;"
d="M 247.7474,174.6988
247.7474,174.3388
248.0674,174.3388
248.0674,174.6988
Z" /> 
<path style="fill:#000000; fill-opacity:1.0000; stroke:none;fill-rule:evenodd;"
d="M 247.0874,174.6988
247.0874,174.3388
247.4074,174.3388
247.4074,174.6988
Z" /> 
<path style="fill:#000000; fill-opacity:1.0000; stroke:none;fill-rule:evenodd;"
d="M 248.4474,173.9328
248.4474,173.2048
248.7674,173.2048
248.7674,173.9328
Z" /> 
<path style="fill:#000000; fill-opacity:1.0000; stroke:none;fill-rule:evenodd;"
d="M 247.2534,173.9328
247.2534,173.2048
247.9014,173.2048
247.9014,173.9328
Z" /> 
<path style="fill:#000000; fill-opacity:1.0000; stroke:none;fill-rule:evenodd;"
d="M 165.6780,87.3207
165.6092,87.3070
165.5508,87.2680
165.5117,87.2096
165.4980,87.1407
165.4980,86.7807
165.5117,86.7119
165.5508,86.6535
165.6092,86.6144
165.6780,86.6007
166.0780,86.6007
166.1469,86.6144
166.2053,86.6535
166.2443,86.7119
166.2580,86.7807
166.2580,87.1407
166.2443,87.2096
166.2053,87.2680
166.1469,87.3070
166.0780,87.3207
Z" /> 
<path style="fill:#000000; fill-opacity:1.0000; stroke:none;fill-rule:evenodd;"
d="M 165.6780,85.7707
165.6092,85.7570
165.5508,85.7180
165.5117,85.6596
165.4980,85.5907
165.4980,85.2307
165.5117,85.1619
165.5508,85.1035
165.6092,85.0644
165.6780,85.0507
166.0780,85.0507
166.1469,85.0644
166.2053,85.1035
166.2443,85.1619
166.2580,85.2307
166.2580,85.5907
166.2443,85.6596
166.2053,85.7180
166.1469,85.7570
166.0780,85.7707
Z" /> 
<path style="fill:#000000; fill-opacity:1.0000; stroke:none;fill-rule:evenodd;"
d="M 250.7553,77.9942
251.1153,77.9942
251.1153,78.3142
250.7553,78.3142
Z" /> 
<path style="fill:#000000; fill-opacity:1.0000; stroke:none;fill-rule:evenodd;"
d="M 250.7553,78.6542
251.1153,78.6542
251.1153,78.9742
250.7553,78.9742
Z" /> 
<path style="fill:#000000; fill-opacity:1.0000; stroke:none;fill-rule:evenodd;"
d="M 250.7553,79.3042
251.1153,79.3042
251.1153,79.6242
250.7553,79.6242
Z" /> 
<path style="fill:#000000; fill-opacity:1.0000; stroke:none;fill-rule:evenodd;"
d="M 248.8553,79.3042
249.2153,79.3042
249.2153,79.6242
248.8553,79.6242
Z" /> 
<path style="fill:#000000; fill-opacity:1.0000; stroke:none;fill-rule:evenodd;"
d="M 248.8553,78.6542
249.2153,78.6542
249.2153,78.9742
248.8553,78.9742
Z" /> 
<path style="fill:#000000; fill-opacity:1.0000; stroke:none;fill-rule:evenodd;"
d="M 248.8553,77.9942
249.2153,77.9942
249.2153,78.3142
248.8553,78.3142
Z" /> 
<path style="fill:#000000; fill-opacity:1.0000; stroke:none;fill-rule:evenodd;"
d="M 249.6213,79.3542
250.3493,79.3542
250.3493,79.6742
249.6213,79.6742
Z" /> 
<path style="fill:#000000; fill-opacity:1.0000; stroke:none;fill-rule:evenodd;"
d="M 249.6213,78.1602
250.3493,78.1602
250.3493,78.8082
249.6213,78.8082
Z" /> 
<path style="fill:#000000; fill-opacity:1.0000; stroke:none;fill-rule:evenodd;"
d="M 172.1803,69.2187
172.1803,67.4587
173.0603,67.4587
173.0603,69.2187
Z" /> 
<path style="fill:#000000; fill-opacity:1.0000; stroke:none;fill-rule:evenodd;"
d="M 174.7203,69.2187
174.7203,67.4587
175.6003,67.4587
175.6003,69.2187
Z" /> 
<path style="fill:#000000; fill-opacity:1.0000; stroke:none;fill-rule:evenodd;"
d="M 177.2603,69.2187
177.2603,67.4587
178.1403,67.4587
178.1403,69.2187
Z" /> 
<path style="fill:#000000; fill-opacity:1.0000; stroke:none;fill-rule:evenodd;"
d="M 179.8003,69.2187
179.8003,67.4587
180.6803,67.4587
180.6803,69.2187
Z" /> 
<path style="fill:#000000; fill-opacity:1.0000; stroke:none;fill-rule:evenodd;"
d="M 182.3403,69.2187
182.3403,67.4587
183.2203,67.4587
183.2203,69.2187
Z" /> 
<path style="fill:#000000; fill-opacity:1.0000; stroke:none;fill-rule:evenodd;"
d="M 184.8803,69.2187
184.8803,67.4587
185.7603,67.4587
185.7603,69.2187
Z" /> 
<path style="fill:#000000; fill-opacity:1.0000; stroke:none;fill-rule:evenodd;"
d="M 187.4203,69.2187
187.4203,67.4587
188.3003,67.4587
188.3003,69.2187
Z" /> 
<path style="fill:#000000; fill-opacity:1.0000; stroke:none;fill-rule:evenodd;"
d="M 189.9603,69.2187
189.9603,67.4587
190.8403,67.4587
190.8403,69.2187
Z" /> 
<path style="fill:#000000; fill-opacity:1.0000; stroke:none;fill-rule:evenodd;"
d="M 189.9603,78.0187
189.9603,76.2587
190.8403,76.2587
190.8403,78.0187
Z" /> 
<path style="fill:#000000; fill-opacity:1.0000; stroke:none;fill-rule:evenodd;"
d="M 187.4203,78.0187
187.4203,76.2587
188.3003,76.2587
188.3003,78.0187
Z" /> 
<path style="fill:#000000; fill-opacity:1.0000; stroke:none;fill-rule:evenodd;"
d="M 184.8803,78.0187
184.8803,76.2587
185.7603,76.2587
185.7603,78.0187
Z" /> 
<path style="fill:#000000; fill-opacity:1.0000; stroke:none;fill-rule:evenodd;"
d="M 182.3403,78.0187
182.3403,76.2587
183.2203,76.2587
183.2203,78.0187
Z" /> 
<path style="fill:#000000; fill-opacity:1.0000; stroke:none;fill-rule:evenodd;"
d="M 179.8003,78.0187
179.8003,76.2587
180.6803,76.2587
180.6803,78.0187
Z" /> 
<path style="fill:#000000; fill-opacity:1.0000; stroke:none;fill-rule:evenodd;"
d="M 177.2603,78.0187
177.2603,76.2587
178.1403,76.2587
178.1403,78.0187
Z" /> 
<path style="fill:#000000; fill-opacity:1.0000; stroke:none;fill-rule:evenodd;"
d="M 174.7203,78.0187
174.7203,76.2587
175.6003,76.2587
175.6003,78.0187
Z" /> 
<path style="fill:#000000; fill-opacity:1.0000; stroke:none;fill-rule:evenodd;"
d="M 172.1803,78.0187
172.1803,76.2587
173.0603,76.2587
173.0603,78.0187
Z" /> 
<path style="fill:#000000; fill-opacity:1.0000; stroke:none;fill-rule:evenodd;"
d="M 252.0768,176.0306
252.0905,175.9617
252.1295,175.9033
252.1879,175.8643
252.2568,175.8506
252.6168,175.8506
252.6857,175.8643
252.7441,175.9033
252.7831,175.9617
252.7968,176.0306
252.7968,176.4306
252.7831,176.4995
252.7441,176.5579
252.6857,176.5969
252.6168,176.6106
252.2568,176.6106
252.1879,176.5969
252.1295,176.5579
252.0905,176.4995
252.0768,176.4306
Z" /> 
<path style="fill:#000000; fill-opacity:1.0000; stroke:none;fill-rule:evenodd;"
d="M 253.6268,176.0306
253.6405,175.9617
253.6795,175.9033
253.7379,175.8643
253.8068,175.8506
254.1668,175.8506
254.2357,175.8643
254.2941,175.9033
254.3331,175.9617
254.3468,176.0306
254.3468,176.4306
254.3331,176.4995
254.2941,176.5579
254.2357,176.5969
254.1668,176.6106
253.8068,176.6106
253.7379,176.5969
253.6795,176.5579
253.6405,176.4995
253.6268,176.4306
Z" /> 
<path style="fill:#000000; fill-opacity:1.0000; stroke:none;fill-rule:evenodd;"
d="M 248.8522,166.6876
248.8644,166.6264
248.8991,166.5745
248.9510,166.5398
249.0122,166.5276
249.3322,166.5276
249.3935,166.5398
249.4454,166.5745
249.4801,166.6264
249.4922,166.6876
249.4922,167.1276
249.4801,167.1889
249.4454,167.2408
249.3935,167.2755
249.3322,167.2876
249.0122,167.2876
248.9510,167.2755
248.8991,167.2408
248.8644,167.1889
248.8522,167.1276
Z" /> 
<path style="fill:#000000; fill-opacity:1.0000; stroke:none;fill-rule:evenodd;"
d="M 250.5022,166.6876
250.5144,166.6264
250.5491,166.5745
250.6010,166.5398
250.6622,166.5276
250.9822,166.5276
251.0435,166.5398
251.0954,166.5745
251.1301,166.6264
251.1422,166.6876
251.1422,167.1276
251.1301,167.1889
251.0954,167.2408
251.0435,167.2755
250.9822,167.2876
250.6622,167.2876
250.6010,167.2755
250.5491,167.2408
250.5144,167.1889
250.5022,167.1276
Z" /> 
<path style="fill:#000000; fill-opacity:1.0000; stroke:none;fill-rule:evenodd;"
d="M 149.6742,69.1629
149.6742,67.4029
150.5542,67.4029
150.5542,69.1629
Z" /> 
<path style="fill:#000000; fill-opacity:1.0000; stroke:none;fill-rule:evenodd;"
d="M 152.2142,69.1629
152.2142,67.4029
153.0942,67.4029
153.0942,69.1629
Z" /> 
<path style="fill:#000000; fill-opacity:1.0000; stroke:none;fill-rule:evenodd;"
d="M 154.7542,69.1629
154.7542,67.4029
155.6342,67.4029
155.6342,69.1629
Z" /> 
<path style="fill:#000000; fill-opacity:1.0000; stroke:none;fill-rule:evenodd;"
d="M 157.2942,69.1629
157.2942,67.4029
158.1742,67.4029
158.1742,69.1629
Z" /> 
<path style="fill:#000000; fill-opacity:1.0000; stroke:none;fill-rule:evenodd;"
d="M 159.8342,69.1629
159.8342,67.4029
160.7142,67.4029
160.7142,69.1629
Z" /> 
<path style="fill:#000000; fill-opacity:1.0000; stroke:none;fill-rule:evenodd;"
d="M 162.3742,69.1629
162.3742,67.4029
163.2542,67.4029
163.2542,69.1629
Z" /> 
<path style="fill:#000000; fill-opacity:1.0000; stroke:none;fill-rule:evenodd;"
d="M 164.9142,69.1629
164.9142,67.4029
165.7942,67.4029
165.7942,69.1629
Z" /> 
<path style="fill:#000000; fill-opacity:1.0000; stroke:none;fill-rule:evenodd;"
d="M 167.4542,69.1629
167.4542,67.4029
168.3342,67.4029
168.3342,69.1629
Z" /> 
<path style="fill:#000000; fill-opacity:1.0000; stroke:none;fill-rule:evenodd;"
d="M 167.4542,77.9629
167.4542,76.2029
168.3342,76.2029
168.3342,77.9629
Z" /> 
<path style="fill:#000000; fill-opacity:1.0000; stroke:none;fill-rule:evenodd;"
d="M 164.9142,77.9629
164.9142,76.2029
165.7942,76.2029
165.7942,77.9629
Z" /> 
<path style="fill:#000000; fill-opacity:1.0000; stroke:none;fill-rule:evenodd;"
d="M 162.3742,77.9629
162.3742,76.2029
163.2542,76.2029
163.2542,77.9629
Z" /> 
<path style="fill:#000000; fill-opacity:1.0000; stroke:none;fill-rule:evenodd;"
d="M 159.8342,77.9629
159.8342,76.2029
160.7142,76.2029
160.7142,77.9629
Z" /> 
<path style="fill:#000000; fill-opacity:1.0000; stroke:none;fill-rule:evenodd;"
d="M 157.2942,77.9629
157.2942,76.2029
158.1742,76.2029
158.1742,77.9629
Z" /> 
<path style="fill:#000000; fill-opacity:1.0000; stroke:none;fill-rule:evenodd;"
d="M 154.7542,77.9629
154.7542,76.2029
155.6342,76.2029
155.6342,77.9629
Z" /> 
<path style="fill:#000000; fill-opacity:1.0000; stroke:none;fill-rule:evenodd;"
d="M 152.2142,77.9629
152.2142,76.2029
153.0942,76.2029
153.0942,77.9629
Z" /> 
<path style="fill:#000000; fill-opacity:1.0000; stroke:none;fill-rule:evenodd;"
d="M 149.6742,77.9629
149.6742,76.2029
150.5542,76.2029
150.5542,77.9629
Z" /> 
<path style="fill:#000000; fill-opacity:1.0000; stroke:none;fill-rule:evenodd;"
d="M 219.0297,139.5852
219.0160,139.6540
218.9770,139.7124
218.9186,139.7514
218.8497,139.7652
218.4897,139.7652
218.4208,139.7514
218.3624,139.7124
218.3234,139.6540
218.3097,139.5852
218.3097,139.1852
218.3234,139.1163
218.3624,139.0579
218.4208,139.0189
218.4897,139.0052
218.8497,139.0052
218.9186,139.0189
218.9770,139.0579
219.0160,139.1163
219.0297,139.1852
Z" /> 
<path style="fill:#000000; fill-opacity:1.0000; stroke:none;fill-rule:evenodd;"
d="M 217.4797,139.5852
217.4660,139.6540
217.4270,139.7124
217.3686,139.7514
217.2997,139.7652
216.9397,139.7652
216.8708,139.7514
216.8124,139.7124
216.7734,139.6540
216.7597,139.5852
216.7597,139.1852
216.7734,139.1163
216.8124,139.0579
216.8708,139.0189
216.9397,139.0052
217.2997,139.0052
217.3686,139.0189
217.4270,139.0579
217.4660,139.1163
217.4797,139.1852
Z" /> 
<path style="fill:#000000; fill-opacity:1.0000; stroke:none;fill-rule:evenodd;"
d="M 249.7708,174.7278
249.7096,174.7156
249.6577,174.6809
249.6230,174.6290
249.6108,174.5678
249.6108,174.2478
249.6230,174.1866
249.6577,174.1346
249.7096,174.1000
249.7708,174.0878
250.2108,174.0878
250.2720,174.1000
250.3239,174.1346
250.3586,174.1866
250.3708,174.2478
250.3708,174.5678
250.3586,174.6290
250.3239,174.6809
250.2720,174.7156
250.2108,174.7278
Z" /> 
<path style="fill:#000000; fill-opacity:1.0000; stroke:none;fill-rule:evenodd;"
d="M 249.7708,173.0778
249.7096,173.0656
249.6577,173.0309
249.6230,172.9790
249.6108,172.9178
249.6108,172.5978
249.6230,172.5366
249.6577,172.4846
249.7096,172.4500
249.7708,172.4378
250.2108,172.4378
250.2720,172.4500
250.3239,172.4846
250.3586,172.5366
250.3708,172.5978
250.3708,172.9178
250.3586,172.9790
250.3239,173.0309
250.2720,173.0656
250.2108,173.0778
Z" /> 
<path style="fill:#000000; fill-opacity:1.0000; stroke:none;fill-rule:evenodd;"
d="M 243.5016,150.9580
243.5628,150.9702
243.6147,151.0049
243.6494,151.0568
243.6616,151.1180
243.6616,151.4380
243.6494,151.4993
243.6147,151.5512
243.5628,151.5858
243.5016,151.5980
243.0616,151.5980
243.0003,151.5858
242.9484,151.5512
242.9137,151.4993
242.9016,151.4380
242.9016,151.1180
242.9137,151.0568
242.9484,151.0049
243.0003,150.9702
243.0616,150.9580
Z" /> 
<path style="fill:#000000; fill-opacity:1.0000; stroke:none;fill-rule:evenodd;"
d="M 243.5016,152.6080
243.5628,152.6202
243.6147,152.6549
243.6494,152.7068
243.6616,152.7680
243.6616,153.0880
243.6494,153.1493
243.6147,153.2012
243.5628,153.2358
243.5016,153.2480
243.0616,153.2480
243.0003,153.2358
242.9484,153.2012
242.9137,153.1493
242.9016,153.0880
242.9016,152.7680
242.9137,152.7068
242.9484,152.6549
243.0003,152.6202
243.0616,152.6080
Z" /> 
<path style="fill:#000000; fill-opacity:1.0000; stroke:none;fill-rule:evenodd;"
d="M 221.5760,137.4299
221.4995,137.4146
221.4346,137.3713
221.3912,137.3064
221.3760,137.2299
221.3760,134.1099
221.3912,134.0333
221.4346,133.9684
221.4995,133.9251
221.5760,133.9099
223.1760,133.9099
223.2526,133.9251
223.3174,133.9684
223.3608,134.0333
223.3760,134.1099
223.3760,137.2299
223.3608,137.3064
223.3174,137.3713
223.2526,137.4146
223.1760,137.4299
Z" /> 
<path style="fill:#000000; fill-opacity:1.0000; stroke:none;fill-rule:evenodd;"
d="M 221.5760,129.0299
221.4995,129.0146
221.4346,128.9713
221.3912,128.9064
221.3760,128.8299
221.3760,125.7099
221.3912,125.6333
221.4346,125.5684
221.4995,125.5251
221.5760,125.5099
223.1760,125.5099
223.2526,125.5251
223.3174,125.5684
223.3608,125.6333
223.3760,125.7099
223.3760,128.8299
223.3608,128.9064
223.3174,128.9713
223.2526,129.0146
223.1760,129.0299
Z" /> 
<path style="fill:#000000; fill-opacity:1.0000; stroke:none;fill-rule:evenodd;"
d="M 252.3193,181.2350
252.3269,181.1967
252.3486,181.1643
252.3810,181.1426
252.4193,181.1350
253.2793,181.1350
253.3176,181.1426
253.3500,181.1643
253.3717,181.1967
253.3793,181.2350
253.3793,181.4350
253.3717,181.4732
253.3500,181.5057
253.3176,181.5274
253.2793,181.5350
252.4193,181.5350
252.3810,181.5274
252.3486,181.5057
252.3269,181.4732
252.3193,181.4350
Z" /> 
<path style="fill:#000000; fill-opacity:1.0000; stroke:none;fill-rule:evenodd;"
d="M 252.3193,180.5850
252.3269,180.5467
252.3486,180.5143
252.3810,180.4926
252.4193,180.4850
253.2793,180.4850
253.3176,180.4926
253.3500,180.5143
253.3717,180.5467
253.3793,180.5850
253.3793,180.7850
253.3717,180.8232
253.3500,180.8557
253.3176,180.8774
253.2793,180.8850
252.4193,180.8850
252.3810,180.8774
252.3486,180.8557
252.3269,180.8232
252.3193,180.7850
Z" /> 
<path style="fill:#000000; fill-opacity:1.0000; stroke:none;fill-rule:evenodd;"
d="M 252.3193,179.9350
252.3269,179.8967
252.3486,179.8643
252.3810,179.8426
252.4193,179.8350
253.2793,179.8350
253.3176,179.8426
253.3500,179.8643
253.3717,179.8967
253.3793,179.9350
253.3793,180.1350
253.3717,180.1732
253.3500,180.2057
253.3176,180.2274
253.2793,180.2350
252.4193,180.2350
252.3810,180.2274
252.3486,180.2057
252.3269,180.1732
252.3193,180.1350
Z" /> 
<path style="fill:#000000; fill-opacity:1.0000; stroke:none;fill-rule:evenodd;"
d="M 252.3193,179.2850
252.3269,179.2467
252.3486,179.2143
252.3810,179.1926
252.4193,179.1850
253.2793,179.1850
253.3176,179.1926
253.3500,179.2143
253.3717,179.2467
253.3793,179.2850
253.3793,179.4850
253.3717,179.5232
253.3500,179.5557
253.3176,179.5774
253.2793,179.5850
252.4193,179.5850
252.3810,179.5774
252.3486,179.5557
252.3269,179.5232
252.3193,179.4850
Z" /> 
<path style="fill:#000000; fill-opacity:1.0000; stroke:none;fill-rule:evenodd;"
d="M 254.5943,179.2850
254.6019,179.2467
254.6236,179.2143
254.6560,179.1926
254.6943,179.1850
255.5543,179.1850
255.5926,179.1926
255.6250,179.2143
255.6467,179.2467
255.6543,179.2850
255.6543,179.4850
255.6467,179.5232
255.6250,179.5557
255.5926,179.5774
255.5543,179.5850
254.6943,179.5850
254.6560,179.5774
254.6236,179.5557
254.6019,179.5232
254.5943,179.4850
Z" /> 
<path style="fill:#000000; fill-opacity:1.0000; stroke:none;fill-rule:evenodd;"
d="M 254.5943,179.9350
254.6019,179.8967
254.6236,179.8643
254.6560,179.8426
254.6943,179.8350
255.5543,179.8350
255.5926,179.8426
255.6250,179.8643
255.6467,179.8967
255.6543,179.9350
255.6543,180.1350
255.6467,180.1732
255.6250,180.2057
255.5926,180.2274
255.5543,180.2350
254.6943,180.2350
254.6560,180.2274
254.6236,180.2057
254.6019,180.1732
254.5943,180.1350
Z" /> 
<path style="fill:#000000; fill-opacity:1.0000; stroke:none;fill-rule:evenodd;"
d="M 254.5943,180.5850
254.6019,180.5467
254.6236,180.5143
254.6560,180.4926
254.6943,180.4850
255.5543,180.4850
255.5926,180.4926
255.6250,180.5143
255.6467,180.5467
255.6543,180.5850
255.6543,180.7850
255.6467,180.8232
255.6250,180.8557
255.5926,180.8774
255.5543,180.8850
254.6943,180.8850
254.6560,180.8774
254.6236,180.8557
254.6019,180.8232
254.5943,180.7850
Z" /> 
<path style="fill:#000000; fill-opacity:1.0000; stroke:none;fill-rule:evenodd;"
d="M 254.5943,181.2350
254.6019,181.1967
254.6236,181.1643
254.6560,181.1426
254.6943,181.1350
255.5543,181.1350
255.5926,181.1426
255.6250,181.1643
255.6467,181.1967
255.6543,181.2350
255.6543,181.4350
255.6467,181.4732
255.6250,181.5057
255.5926,181.5274
255.5543,181.5350
254.6943,181.5350
254.6560,181.5274
254.6236,181.5057
254.6019,181.4732
254.5943,181.4350
Z" /> 
<path style="fill:#000000; fill-opacity:1.0000; stroke:none;fill-rule:evenodd;"
d="M 228.7094,69.0521
228.7094,67.2921
229.5894,67.2921
229.5894,69.0521
Z" /> 
<path style="fill:#000000; fill-opacity:1.0000; stroke:none;fill-rule:evenodd;"
d="M 231.2494,69.0521
231.2494,67.2921
232.1294,67.2921
232.1294,69.0521
Z" /> 
<path style="fill:#000000; fill-opacity:1.0000; stroke:none;fill-rule:evenodd;"
d="M 233.7894,69.0521
233.7894,67.2921
234.6694,67.2921
234.6694,69.0521
Z" /> 
<path style="fill:#000000; fill-opacity:1.0000; stroke:none;fill-rule:evenodd;"
d="M 236.3294,69.0521
236.3294,67.2921
237.2094,67.2921
237.2094,69.0521
Z" /> 
<path style="fill:#000000; fill-opacity:1.0000; stroke:none;fill-rule:evenodd;"
d="M 238.8694,69.0521
238.8694,67.2921
239.7494,67.2921
239.7494,69.0521
Z" /> 
<path style="fill:#000000; fill-opacity:1.0000; stroke:none;fill-rule:evenodd;"
d="M 241.4094,69.0521
241.4094,67.2921
242.2894,67.2921
242.2894,69.0521
Z" /> 
<path style="fill:#000000; fill-opacity:1.0000; stroke:none;fill-rule:evenodd;"
d="M 243.9494,69.0521
243.9494,67.2921
244.8294,67.2921
244.8294,69.0521
Z" /> 
<path style="fill:#000000; fill-opacity:1.0000; stroke:none;fill-rule:evenodd;"
d="M 246.4894,69.0521
246.4894,67.2921
247.3694,67.2921
247.3694,69.0521
Z" /> 
<path style="fill:#000000; fill-opacity:1.0000; stroke:none;fill-rule:evenodd;"
d="M 246.4894,77.8521
246.4894,76.0921
247.3694,76.0921
247.3694,77.8521
Z" /> 
<path style="fill:#000000; fill-opacity:1.0000; stroke:none;fill-rule:evenodd;"
d="M 243.9494,77.8521
243.9494,76.0921
244.8294,76.0921
244.8294,77.8521
Z" /> 
<path style="fill:#000000; fill-opacity:1.0000; stroke:none;fill-rule:evenodd;"
d="M 241.4094,77.8521
241.4094,76.0921
242.2894,76.0921
242.2894,77.8521
Z" /> 
<path style="fill:#000000; fill-opacity:1.0000; stroke:none;fill-rule:evenodd;"
d="M 238.8694,77.8521
238.8694,76.0921
239.7494,76.0921
239.7494,77.8521
Z" /> 
<path style="fill:#000000; fill-opacity:1.0000; stroke:none;fill-rule:evenodd;"
d="M 236.3294,77.8521
236.3294,76.0921
237.2094,76.0921
237.2094,77.8521
Z" /> 
<path style="fill:#000000; fill-opacity:1.0000; stroke:none;fill-rule:evenodd;"
d="M 233.7894,77.8521
233.7894,76.0921
234.6694,76.0921
234.6694,77.8521
Z" /> 
<path style="fill:#000000; fill-opacity:1.0000; stroke:none;fill-rule:evenodd;"
d="M 231.2494,77.8521
231.2494,76.0921
232.1294,76.0921
232.1294,77.8521
Z" /> 
<path style="fill:#000000; fill-opacity:1.0000; stroke:none;fill-rule:evenodd;"
d="M 228.7094,77.8521
228.7094,76.0921
229.5894,76.0921
229.5894,77.8521
Z" /> 
<path style="fill:#000000; fill-opacity:1.0000; stroke:none;fill-rule:evenodd;"
d="M 106.4970,73.0236
106.1370,73.0236
106.1370,72.7036
106.4970,72.7036
Z" /> 
<path style="fill:#000000; fill-opacity:1.0000; stroke:none;fill-rule:evenodd;"
d="M 106.4970,72.3636
106.1370,72.3636
106.1370,72.0436
106.4970,72.0436
Z" /> 
<path style="fill:#000000; fill-opacity:1.0000; stroke:none;fill-rule:evenodd;"
d="M 106.4970,71.7136
106.1370,71.7136
106.1370,71.3936
106.4970,71.3936
Z" /> 
<path style="fill:#000000; fill-opacity:1.0000; stroke:none;fill-rule:evenodd;"
d="M 108.3970,71.7136
108.0370,71.7136
108.0370,71.3936
108.3970,71.3936
Z" /> 
<path style="fill:#000000; fill-opacity:1.0000; stroke:none;fill-rule:evenodd;"
d="M 108.3970,72.3636
108.0370,72.3636
108.0370,72.0436
108.3970,72.0436
Z" /> 
<path style="fill:#000000; fill-opacity:1.0000; stroke:none;fill-rule:evenodd;"
d="M 108.3970,73.0236
108.0370,73.0236
108.0370,72.7036
108.3970,72.7036
Z" /> 
<path style="fill:#000000; fill-opacity:1.0000; stroke:none;fill-rule:evenodd;"
d="M 107.6310,71.6636
106.9030,71.6636
106.9030,71.3436
107.6310,71.3436
Z" /> 
<path style="fill:#000000; fill-opacity:1.0000; stroke:none;fill-rule:evenodd;"
d="M 107.6310,72.8576
106.9030,72.8576
106.9030,72.2096
107.6310,72.2096
Z" /> 
<path style="fill:#000000; fill-opacity:1.0000; stroke:none;fill-rule:evenodd;"
d="M 139.5826,90.4840
139.5826,88.7240
140.4626,88.7240
140.4626,90.4840
Z" /> 
<path style="fill:#000000; fill-opacity:1.0000; stroke:none;fill-rule:evenodd;"
d="M 142.1226,90.4840
142.1226,88.7240
143.0026,88.7240
143.0026,90.4840
Z" /> 
<path style="fill:#000000; fill-opacity:1.0000; stroke:none;fill-rule:evenodd;"
d="M 144.6626,90.4840
144.6626,88.7240
145.5426,88.7240
145.5426,90.4840
Z" /> 
<path style="fill:#000000; fill-opacity:1.0000; stroke:none;fill-rule:evenodd;"
d="M 147.2026,90.4840
147.2026,88.7240
148.0826,88.7240
148.0826,90.4840
Z" /> 
<path style="fill:#000000; fill-opacity:1.0000; stroke:none;fill-rule:evenodd;"
d="M 149.7426,90.4840
149.7426,88.7240
150.6226,88.7240
150.6226,90.4840
Z" /> 
<path style="fill:#000000; fill-opacity:1.0000; stroke:none;fill-rule:evenodd;"
d="M 152.2826,90.4840
152.2826,88.7240
153.1626,88.7240
153.1626,90.4840
Z" /> 
<path style="fill:#000000; fill-opacity:1.0000; stroke:none;fill-rule:evenodd;"
d="M 154.8226,90.4840
154.8226,88.7240
155.7026,88.7240
155.7026,90.4840
Z" /> 
<path style="fill:#000000; fill-opacity:1.0000; stroke:none;fill-rule:evenodd;"
d="M 157.3626,90.4840
157.3626,88.7240
158.2426,88.7240
158.2426,90.4840
Z" /> 
<path style="fill:#000000; fill-opacity:1.0000; stroke:none;fill-rule:evenodd;"
d="M 157.3626,99.2840
157.3626,97.5240
158.2426,97.5240
158.2426,99.2840
Z" /> 
<path style="fill:#000000; fill-opacity:1.0000; stroke:none;fill-rule:evenodd;"
d="M 154.8226,99.2840
154.8226,97.5240
155.7026,97.5240
155.7026,99.2840
Z" /> 
<path style="fill:#000000; fill-opacity:1.0000; stroke:none;fill-rule:evenodd;"
d="M 152.2826,99.2840
152.2826,97.5240
153.1626,97.5240
153.1626,99.2840
Z" /> 
<path style="fill:#000000; fill-opacity:1.0000; stroke:none;fill-rule:evenodd;"
d="M 149.7426,99.2840
149.7426,97.5240
150.6226,97.5240
150.6226,99.2840
Z" /> 
<path style="fill:#000000; fill-opacity:1.0000; stroke:none;fill-rule:evenodd;"
d="M 147.2026,99.2840
147.2026,97.5240
148.0826,97.5240
148.0826,99.2840
Z" /> 
<path style="fill:#000000; fill-opacity:1.0000; stroke:none;fill-rule:evenodd;"
d="M 144.6626,99.2840
144.6626,97.5240
145.5426,97.5240
145.5426,99.2840
Z" /> 
<path style="fill:#000000; fill-opacity:1.0000; stroke:none;fill-rule:evenodd;"
d="M 142.1226,99.2840
142.1226,97.5240
143.0026,97.5240
143.0026,99.2840
Z" /> 
<path style="fill:#000000; fill-opacity:1.0000; stroke:none;fill-rule:evenodd;"
d="M 139.5826,99.2840
139.5826,97.5240
140.4626,97.5240
140.4626,99.2840
Z" /> 
<path style="fill:#000000; fill-opacity:1.0000; stroke:none;fill-rule:evenodd;"
d="M 257.4685,176.4729
257.4564,176.5341
257.4217,176.5860
257.3698,176.6207
257.3085,176.6329
256.9885,176.6329
256.9273,176.6207
256.8754,176.5860
256.8407,176.5341
256.8285,176.4729
256.8285,176.0329
256.8407,175.9717
256.8754,175.9198
256.9273,175.8851
256.9885,175.8729
257.3085,175.8729
257.3698,175.8851
257.4217,175.9198
257.4564,175.9717
257.4685,176.0329
Z" /> 
<path style="fill:#000000; fill-opacity:1.0000; stroke:none;fill-rule:evenodd;"
d="M 255.8185,176.4729
255.8064,176.5341
255.7717,176.5860
255.7198,176.6207
255.6585,176.6329
255.3385,176.6329
255.2773,176.6207
255.2254,176.5860
255.1907,176.5341
255.1785,176.4729
255.1785,176.0329
255.1907,175.9717
255.2254,175.9198
255.2773,175.8851
255.3385,175.8729
255.6585,175.8729
255.7198,175.8851
255.7717,175.9198
255.8064,175.9717
255.8185,176.0329
Z" /> 
<path style="fill:#000000; fill-opacity:1.0000; stroke:none;fill-rule:evenodd;"
d="M 252.0928,177.6248
252.1065,177.5559
252.1455,177.4975
252.2039,177.4585
252.2728,177.4448
252.6328,177.4448
252.7017,177.4585
252.7601,177.4975
252.7991,177.5559
252.8128,177.6248
252.8128,178.0248
252.7991,178.0937
252.7601,178.1521
252.7017,178.1911
252.6328,178.2048
252.2728,178.2048
252.2039,178.1911
252.1455,178.1521
252.1065,178.0937
252.0928,178.0248
Z" /> 
<path style="fill:#000000; fill-opacity:1.0000; stroke:none;fill-rule:evenodd;"
d="M 253.6428,177.6248
253.6565,177.5559
253.6955,177.4975
253.7539,177.4585
253.8228,177.4448
254.1828,177.4448
254.2517,177.4585
254.3101,177.4975
254.3491,177.5559
254.3628,177.6248
254.3628,178.0248
254.3491,178.0937
254.3101,178.1521
254.2517,178.1911
254.1828,178.2048
253.8228,178.2048
253.7539,178.1911
253.6955,178.1521
253.6565,178.0937
253.6428,178.0248
Z" /> 
<path style="fill:#000000; fill-opacity:1.0000; stroke:none;fill-rule:evenodd;"
d="M 240.6870,186.9046
240.3270,186.9046
240.3270,186.5846
240.6870,186.5846
Z" /> 
<path style="fill:#000000; fill-opacity:1.0000; stroke:none;fill-rule:evenodd;"
d="M 240.6870,186.2446
240.3270,186.2446
240.3270,185.9246
240.6870,185.9246
Z" /> 
<path style="fill:#000000; fill-opacity:1.0000; stroke:none;fill-rule:evenodd;"
d="M 240.6870,185.5946
240.3270,185.5946
240.3270,185.2746
240.6870,185.2746
Z" /> 
<path style="fill:#000000; fill-opacity:1.0000; stroke:none;fill-rule:evenodd;"
d="M 242.5870,185.5946
242.2270,185.5946
242.2270,185.2746
242.5870,185.2746
Z" /> 
<path style="fill:#000000; fill-opacity:1.0000; stroke:none;fill-rule:evenodd;"
d="M 242.5870,186.2446
242.2270,186.2446
242.2270,185.9246
242.5870,185.9246
Z" /> 
<path style="fill:#000000; fill-opacity:1.0000; stroke:none;fill-rule:evenodd;"
d="M 242.5870,186.9046
242.2270,186.9046
242.2270,186.5846
242.5870,186.5846
Z" /> 
<path style="fill:#000000; fill-opacity:1.0000; stroke:none;fill-rule:evenodd;"
d="M 241.8210,185.5446
241.0930,185.5446
241.0930,185.2246
241.8210,185.2246
Z" /> 
<path style="fill:#000000; fill-opacity:1.0000; stroke:none;fill-rule:evenodd;"
d="M 241.8210,186.7386
241.0930,186.7386
241.0930,186.0906
241.8210,186.0906
Z" /> 
<path style="fill:#000000; fill-opacity:1.0000; stroke:none;fill-rule:evenodd;"
d="M 200.5306,84.7746
200.5238,84.8090
200.5043,84.8382
200.4751,84.8577
200.4406,84.8646
200.1406,84.8646
200.1062,84.8577
200.0770,84.8382
200.0575,84.8090
200.0506,84.7746
200.0506,84.5946
200.0575,84.5601
200.0770,84.5310
200.1062,84.5114
200.1406,84.5046
200.4406,84.5046
200.4751,84.5114
200.5043,84.5310
200.5238,84.5601
200.5306,84.5946
Z" /> 
<path style="fill:#000000; fill-opacity:1.0000; stroke:none;fill-rule:evenodd;"
d="M 198.4306,84.7746
198.4238,84.8090
198.4043,84.8382
198.3751,84.8577
198.3406,84.8646
198.0406,84.8646
198.0062,84.8577
197.9770,84.8382
197.9575,84.8090
197.9506,84.7746
197.9506,84.5946
197.9575,84.5601
197.9770,84.5310
198.0062,84.5114
198.0406,84.5046
198.3406,84.5046
198.3751,84.5114
198.4043,84.5310
198.4238,84.5601
198.4306,84.5946
Z" /> 
<path style="fill:#000000; fill-opacity:1.0000; stroke:none;fill-rule:evenodd;"
d="M 147.9251,111.6323
147.9114,111.7012
147.8724,111.7596
147.8140,111.7986
147.7451,111.8123
147.3851,111.8123
147.3162,111.7986
147.2578,111.7596
147.2188,111.7012
147.2051,111.6323
147.2051,111.2323
147.2188,111.1635
147.2578,111.1051
147.3162,111.0660
147.3851,111.0523
147.7451,111.0523
147.8140,111.0660
147.8724,111.1051
147.9114,111.1635
147.9251,111.2323
Z" /> 
<path style="fill:#000000; fill-opacity:1.0000; stroke:none;fill-rule:evenodd;"
d="M 146.3751,111.6323
146.3614,111.7012
146.3224,111.7596
146.2640,111.7986
146.1951,111.8123
145.8351,111.8123
145.7662,111.7986
145.7078,111.7596
145.6688,111.7012
145.6551,111.6323
145.6551,111.2323
145.6688,111.1635
145.7078,111.1051
145.7662,111.0660
145.8351,111.0523
146.1951,111.0523
146.2640,111.0660
146.3224,111.1051
146.3614,111.1635
146.3751,111.2323
Z" /> 
<path style="fill:#000000; fill-opacity:1.0000; stroke:none;fill-rule:evenodd;"
d="M 252.2317,117.7226
252.1705,117.7104
252.1186,117.6757
252.0839,117.6238
252.0717,117.5626
252.0717,117.2426
252.0839,117.1814
252.1186,117.1295
252.1705,117.0948
252.2317,117.0826
252.6717,117.0826
252.7330,117.0948
252.7849,117.1295
252.8196,117.1814
252.8317,117.2426
252.8317,117.5626
252.8196,117.6238
252.7849,117.6757
252.7330,117.7104
252.6717,117.7226
Z" /> 
<path style="fill:#000000; fill-opacity:1.0000; stroke:none;fill-rule:evenodd;"
d="M 252.2317,116.0726
252.1705,116.0604
252.1186,116.0257
252.0839,115.9738
252.0717,115.9126
252.0717,115.5926
252.0839,115.5314
252.1186,115.4795
252.1705,115.4448
252.2317,115.4326
252.6717,115.4326
252.7330,115.4448
252.7849,115.4795
252.8196,115.5314
252.8317,115.5926
252.8317,115.9126
252.8196,115.9738
252.7849,116.0257
252.7330,116.0604
252.6717,116.0726
Z" /> 
<path style="fill:#000000; fill-opacity:1.0000; stroke:none;fill-rule:evenodd;"
d="M 106.1825,69.8924
106.1947,69.8311
106.2293,69.7792
106.2813,69.7445
106.3425,69.7324
106.6625,69.7324
106.7237,69.7445
106.7756,69.7792
106.8103,69.8311
106.8225,69.8924
106.8225,70.3324
106.8103,70.3936
106.7756,70.4455
106.7237,70.4802
106.6625,70.4924
106.3425,70.4924
106.2813,70.4802
106.2293,70.4455
106.1947,70.3936
106.1825,70.3324
Z" /> 
<path style="fill:#000000; fill-opacity:1.0000; stroke:none;fill-rule:evenodd;"
d="M 107.8325,69.8924
107.8447,69.8311
107.8793,69.7792
107.9313,69.7445
107.9925,69.7324
108.3125,69.7324
108.3737,69.7445
108.4256,69.7792
108.4603,69.8311
108.4725,69.8924
108.4725,70.3324
108.4603,70.3936
108.4256,70.4455
108.3737,70.4802
108.3125,70.4924
107.9925,70.4924
107.9313,70.4802
107.8793,70.4455
107.8447,70.3936
107.8325,70.3324
Z" /> 
<path style="fill:#000000; fill-opacity:1.0000; stroke:none;fill-rule:evenodd;"
d="M 245.2900,177.2962
245.3588,177.3099
245.4172,177.3489
245.4563,177.4073
245.4700,177.4762
245.4700,177.8362
245.4563,177.9051
245.4172,177.9635
245.3588,178.0025
245.2900,178.0162
244.8900,178.0162
244.8211,178.0025
244.7627,177.9635
244.7237,177.9051
244.7100,177.8362
244.7100,177.4762
244.7237,177.4073
244.7627,177.3489
244.8211,177.3099
244.8900,177.2962
Z" /> 
<path style="fill:#000000; fill-opacity:1.0000; stroke:none;fill-rule:evenodd;"
d="M 245.2900,178.8462
245.3588,178.8599
245.4172,178.8989
245.4563,178.9573
245.4700,179.0262
245.4700,179.3862
245.4563,179.4551
245.4172,179.5135
245.3588,179.5525
245.2900,179.5662
244.8900,179.5662
244.8211,179.5525
244.7627,179.5135
244.7237,179.4551
244.7100,179.3862
244.7100,179.0262
244.7237,178.9573
244.7627,178.8989
244.8211,178.8599
244.8900,178.8462
Z" /> 
<path style="fill:#000000; fill-opacity:1.0000; stroke:none;fill-rule:evenodd;"
d="M 145.8887,103.0478
145.9193,103.0539
145.9453,103.0712
145.9626,103.0972
145.9687,103.1278
145.9687,104.1478
145.9626,104.1784
145.9453,104.2044
145.9193,104.2217
145.8887,104.2278
145.7287,104.2278
145.6981,104.2217
145.6721,104.2044
145.6548,104.1784
145.6487,104.1478
145.6487,103.1278
145.6548,103.0972
145.6721,103.0712
145.6981,103.0539
145.7287,103.0478
Z" /> 
<path style="fill:#000000; fill-opacity:1.0000; stroke:none;fill-rule:evenodd;"
d="M 146.5387,103.0478
146.5693,103.0539
146.5953,103.0712
146.6126,103.0972
146.6187,103.1278
146.6187,104.1478
146.6126,104.1784
146.5953,104.2044
146.5693,104.2217
146.5387,104.2278
146.3787,104.2278
146.3481,104.2217
146.3221,104.2044
146.3048,104.1784
146.2987,104.1478
146.2987,103.1278
146.3048,103.0972
146.3221,103.0712
146.3481,103.0539
146.3787,103.0478
Z" /> 
<path style="fill:#000000; fill-opacity:1.0000; stroke:none;fill-rule:evenodd;"
d="M 147.1887,103.0478
147.2193,103.0539
147.2453,103.0712
147.2626,103.0972
147.2687,103.1278
147.2687,104.1478
147.2626,104.1784
147.2453,104.2044
147.2193,104.2217
147.1887,104.2278
147.0287,104.2278
146.9981,104.2217
146.9721,104.2044
146.9548,104.1784
146.9487,104.1478
146.9487,103.1278
146.9548,103.0972
146.9721,103.0712
146.9981,103.0539
147.0287,103.0478
Z" /> 
<path style="fill:#000000; fill-opacity:1.0000; stroke:none;fill-rule:evenodd;"
d="M 147.8387,103.0478
147.8693,103.0539
147.8953,103.0712
147.9126,103.0972
147.9187,103.1278
147.9187,104.1478
147.9126,104.1784
147.8953,104.2044
147.8693,104.2217
147.8387,104.2278
147.6787,104.2278
147.6481,104.2217
147.6221,104.2044
147.6048,104.1784
147.5987,104.1478
147.5987,103.1278
147.6048,103.0972
147.6221,103.0712
147.6481,103.0539
147.6787,103.0478
Z" /> 
<path style="fill:#000000; fill-opacity:1.0000; stroke:none;fill-rule:evenodd;"
d="M 148.4887,103.0478
148.5193,103.0539
148.5453,103.0712
148.5626,103.0972
148.5687,103.1278
148.5687,104.1478
148.5626,104.1784
148.5453,104.2044
148.5193,104.2217
148.4887,104.2278
148.3287,104.2278
148.2981,104.2217
148.2721,104.2044
148.2548,104.1784
148.2487,104.1478
148.2487,103.1278
148.2548,103.0972
148.2721,103.0712
148.2981,103.0539
148.3287,103.0478
Z" /> 
<path style="fill:#000000; fill-opacity:1.0000; stroke:none;fill-rule:evenodd;"
d="M 149.1387,103.0478
149.1693,103.0539
149.1953,103.0712
149.2126,103.0972
149.2187,103.1278
149.2187,104.1478
149.2126,104.1784
149.1953,104.2044
149.1693,104.2217
149.1387,104.2278
148.9787,104.2278
148.9481,104.2217
148.9221,104.2044
148.9048,104.1784
148.8987,104.1478
148.8987,103.1278
148.9048,103.0972
148.9221,103.0712
148.9481,103.0539
148.9787,103.0478
Z" /> 
<path style="fill:#000000; fill-opacity:1.0000; stroke:none;fill-rule:evenodd;"
d="M 149.7887,103.0478
149.8193,103.0539
149.8453,103.0712
149.8626,103.0972
149.8687,103.1278
149.8687,104.1478
149.8626,104.1784
149.8453,104.2044
149.8193,104.2217
149.7887,104.2278
149.6287,104.2278
149.5981,104.2217
149.5721,104.2044
149.5548,104.1784
149.5487,104.1478
149.5487,103.1278
149.5548,103.0972
149.5721,103.0712
149.5981,103.0539
149.6287,103.0478
Z" /> 
<path style="fill:#000000; fill-opacity:1.0000; stroke:none;fill-rule:evenodd;"
d="M 150.4387,103.0478
150.4693,103.0539
150.4953,103.0712
150.5126,103.0972
150.5187,103.1278
150.5187,104.1478
150.5126,104.1784
150.4953,104.2044
150.4693,104.2217
150.4387,104.2278
150.2787,104.2278
150.2481,104.2217
150.2221,104.2044
150.2048,104.1784
150.1987,104.1478
150.1987,103.1278
150.2048,103.0972
150.2221,103.0712
150.2481,103.0539
150.2787,103.0478
Z" /> 
<path style="fill:#000000; fill-opacity:1.0000; stroke:none;fill-rule:evenodd;"
d="M 151.0887,103.0478
151.1193,103.0539
151.1453,103.0712
151.1626,103.0972
151.1687,103.1278
151.1687,104.1478
151.1626,104.1784
151.1453,104.2044
151.1193,104.2217
151.0887,104.2278
150.9287,104.2278
150.8981,104.2217
150.8721,104.2044
150.8548,104.1784
150.8487,104.1478
150.8487,103.1278
150.8548,103.0972
150.8721,103.0712
150.8981,103.0539
150.9287,103.0478
Z" /> 
<path style="fill:#000000; fill-opacity:1.0000; stroke:none;fill-rule:evenodd;"
d="M 151.7387,103.0478
151.7693,103.0539
151.7953,103.0712
151.8126,103.0972
151.8187,103.1278
151.8187,104.1478
151.8126,104.1784
151.7953,104.2044
151.7693,104.2217
151.7387,104.2278
151.5787,104.2278
151.5481,104.2217
151.5221,104.2044
151.5048,104.1784
151.4987,104.1478
151.4987,103.1278
151.5048,103.0972
151.5221,103.0712
151.5481,103.0539
151.5787,103.0478
Z" /> 
<path style="fill:#000000; fill-opacity:1.0000; stroke:none;fill-rule:evenodd;"
d="M 152.3887,103.0478
152.4193,103.0539
152.4453,103.0712
152.4626,103.0972
152.4687,103.1278
152.4687,104.1478
152.4626,104.1784
152.4453,104.2044
152.4193,104.2217
152.3887,104.2278
152.2287,104.2278
152.1981,104.2217
152.1721,104.2044
152.1548,104.1784
152.1487,104.1478
152.1487,103.1278
152.1548,103.0972
152.1721,103.0712
152.1981,103.0539
152.2287,103.0478
Z" /> 
<path style="fill:#000000; fill-opacity:1.0000; stroke:none;fill-rule:evenodd;"
d="M 153.0387,103.0478
153.0693,103.0539
153.0953,103.0712
153.1126,103.0972
153.1187,103.1278
153.1187,104.1478
153.1126,104.1784
153.0953,104.2044
153.0693,104.2217
153.0387,104.2278
152.8787,104.2278
152.8481,104.2217
152.8221,104.2044
152.8048,104.1784
152.7987,104.1478
152.7987,103.1278
152.8048,103.0972
152.8221,103.0712
152.8481,103.0539
152.8787,103.0478
Z" /> 
<path style="fill:#000000; fill-opacity:1.0000; stroke:none;fill-rule:evenodd;"
d="M 153.0387,108.7728
153.0693,108.7789
153.0953,108.7962
153.1126,108.8222
153.1187,108.8528
153.1187,109.8728
153.1126,109.9034
153.0953,109.9294
153.0693,109.9467
153.0387,109.9528
152.8787,109.9528
152.8481,109.9467
152.8221,109.9294
152.8048,109.9034
152.7987,109.8728
152.7987,108.8528
152.8048,108.8222
152.8221,108.7962
152.8481,108.7789
152.8787,108.7728
Z" /> 
<path style="fill:#000000; fill-opacity:1.0000; stroke:none;fill-rule:evenodd;"
d="M 152.3887,108.7728
152.4193,108.7789
152.4453,108.7962
152.4626,108.8222
152.4687,108.8528
152.4687,109.8728
152.4626,109.9034
152.4453,109.9294
152.4193,109.9467
152.3887,109.9528
152.2287,109.9528
152.1981,109.9467
152.1721,109.9294
152.1548,109.9034
152.1487,109.8728
152.1487,108.8528
152.1548,108.8222
152.1721,108.7962
152.1981,108.7789
152.2287,108.7728
Z" /> 
<path style="fill:#000000; fill-opacity:1.0000; stroke:none;fill-rule:evenodd;"
d="M 151.7387,108.7728
151.7693,108.7789
151.7953,108.7962
151.8126,108.8222
151.8187,108.8528
151.8187,109.8728
151.8126,109.9034
151.7953,109.9294
151.7693,109.9467
151.7387,109.9528
151.5787,109.9528
151.5481,109.9467
151.5221,109.9294
151.5048,109.9034
151.4987,109.8728
151.4987,108.8528
151.5048,108.8222
151.5221,108.7962
151.5481,108.7789
151.5787,108.7728
Z" /> 
<path style="fill:#000000; fill-opacity:1.0000; stroke:none;fill-rule:evenodd;"
d="M 151.0887,108.7728
151.1193,108.7789
151.1453,108.7962
151.1626,108.8222
151.1687,108.8528
151.1687,109.8728
151.1626,109.9034
151.1453,109.9294
151.1193,109.9467
151.0887,109.9528
150.9287,109.9528
150.8981,109.9467
150.8721,109.9294
150.8548,109.9034
150.8487,109.8728
150.8487,108.8528
150.8548,108.8222
150.8721,108.7962
150.8981,108.7789
150.9287,108.7728
Z" /> 
<path style="fill:#000000; fill-opacity:1.0000; stroke:none;fill-rule:evenodd;"
d="M 150.4387,108.7728
150.4693,108.7789
150.4953,108.7962
150.5126,108.8222
150.5187,108.8528
150.5187,109.8728
150.5126,109.9034
150.4953,109.9294
150.4693,109.9467
150.4387,109.9528
150.2787,109.9528
150.2481,109.9467
150.2221,109.9294
150.2048,109.9034
150.1987,109.8728
150.1987,108.8528
150.2048,108.8222
150.2221,108.7962
150.2481,108.7789
150.2787,108.7728
Z" /> 
<path style="fill:#000000; fill-opacity:1.0000; stroke:none;fill-rule:evenodd;"
d="M 149.7887,108.7728
149.8193,108.7789
149.8453,108.7962
149.8626,108.8222
149.8687,108.8528
149.8687,109.8728
149.8626,109.9034
149.8453,109.9294
149.8193,109.9467
149.7887,109.9528
149.6287,109.9528
149.5981,109.9467
149.5721,109.9294
149.5548,109.9034
149.5487,109.8728
149.5487,108.8528
149.5548,108.8222
149.5721,108.7962
149.5981,108.7789
149.6287,108.7728
Z" /> 
<path style="fill:#000000; fill-opacity:1.0000; stroke:none;fill-rule:evenodd;"
d="M 149.1387,108.7728
149.1693,108.7789
149.1953,108.7962
149.2126,108.8222
149.2187,108.8528
149.2187,109.8728
149.2126,109.9034
149.1953,109.9294
149.1693,109.9467
149.1387,109.9528
148.9787,109.9528
148.9481,109.9467
148.9221,109.9294
148.9048,109.9034
148.8987,109.8728
148.8987,108.8528
148.9048,108.8222
148.9221,108.7962
148.9481,108.7789
148.9787,108.7728
Z" /> 
<path style="fill:#000000; fill-opacity:1.0000; stroke:none;fill-rule:evenodd;"
d="M 148.4887,108.7728
148.5193,108.7789
148.5453,108.7962
148.5626,108.8222
148.5687,108.8528
148.5687,109.8728
148.5626,109.9034
148.5453,109.9294
148.5193,109.9467
148.4887,109.9528
148.3287,109.9528
148.2981,109.9467
148.2721,109.9294
148.2548,109.9034
148.2487,109.8728
148.2487,108.8528
148.2548,108.8222
148.2721,108.7962
148.2981,108.7789
148.3287,108.7728
Z" /> 
<path style="fill:#000000; fill-opacity:1.0000; stroke:none;fill-rule:evenodd;"
d="M 147.8387,108.7728
147.8693,108.7789
147.8953,108.7962
147.9126,108.8222
147.9187,108.8528
147.9187,109.8728
147.9126,109.9034
147.8953,109.9294
147.8693,109.9467
147.8387,109.9528
147.6787,109.9528
147.6481,109.9467
147.6221,109.9294
147.6048,109.9034
147.5987,109.8728
147.5987,108.8528
147.6048,108.8222
147.6221,108.7962
147.6481,108.7789
147.6787,108.7728
Z" /> 
<path style="fill:#000000; fill-opacity:1.0000; stroke:none;fill-rule:evenodd;"
d="M 147.1887,108.7728
147.2193,108.7789
147.2453,108.7962
147.2626,108.8222
147.2687,108.8528
147.2687,109.8728
147.2626,109.9034
147.2453,109.9294
147.2193,109.9467
147.1887,109.9528
147.0287,109.9528
146.9981,109.9467
146.9721,109.9294
146.9548,109.9034
146.9487,109.8728
146.9487,108.8528
146.9548,108.8222
146.9721,108.7962
146.9981,108.7789
147.0287,108.7728
Z" /> 
<path style="fill:#000000; fill-opacity:1.0000; stroke:none;fill-rule:evenodd;"
d="M 146.5387,108.7728
146.5693,108.7789
146.5953,108.7962
146.6126,108.8222
146.6187,108.8528
146.6187,109.8728
146.6126,109.9034
146.5953,109.9294
146.5693,109.9467
146.5387,109.9528
146.3787,109.9528
146.3481,109.9467
146.3221,109.9294
146.3048,109.9034
146.2987,109.8728
146.2987,108.8528
146.3048,108.8222
146.3221,108.7962
146.3481,108.7789
146.3787,108.7728
Z" /> 
<path style="fill:#000000; fill-opacity:1.0000; stroke:none;fill-rule:evenodd;"
d="M 145.8887,108.7728
145.9193,108.7789
145.9453,108.7962
145.9626,108.8222
145.9687,108.8528
145.9687,109.8728
145.9626,109.9034
145.9453,109.9294
145.9193,109.9467
145.8887,109.9528
145.7287,109.9528
145.6981,109.9467
145.6721,109.9294
145.6548,109.9034
145.6487,109.8728
145.6487,108.8528
145.6548,108.8222
145.6721,108.7962
145.6981,108.7789
145.7287,108.7728
Z" /> 
<path style="fill:#000000; fill-opacity:1.0000; stroke:none;fill-rule:evenodd;"
d="M 257.4334,178.0565
257.4212,178.1178
257.3865,178.1697
257.3346,178.2043
257.2734,178.2165
256.9534,178.2165
256.8921,178.2043
256.8402,178.1697
256.8055,178.1178
256.7934,178.0565
256.7934,177.6165
256.8055,177.5553
256.8402,177.5034
256.8921,177.4687
256.9534,177.4565
257.2734,177.4565
257.3346,177.4687
257.3865,177.5034
257.4212,177.5553
257.4334,177.6165
Z" /> 
<path style="fill:#000000; fill-opacity:1.0000; stroke:none;fill-rule:evenodd;"
d="M 255.7834,178.0565
255.7712,178.1178
255.7365,178.1697
255.6846,178.2043
255.6234,178.2165
255.3034,178.2165
255.2421,178.2043
255.1902,178.1697
255.1555,178.1178
255.1434,178.0565
255.1434,177.6165
255.1555,177.5553
255.1902,177.5034
255.2421,177.4687
255.3034,177.4565
255.6234,177.4565
255.6846,177.4687
255.7365,177.5034
255.7712,177.5553
255.7834,177.6165
Z" /> 
<path style="fill:#000000; fill-opacity:1.0000; stroke:none;fill-rule:evenodd;"
d="M 106.0320,68.1146
106.0388,68.0801
106.0584,68.0509
106.0876,68.0314
106.1220,68.0246
106.4220,68.0246
106.4564,68.0314
106.4856,68.0509
106.5051,68.0801
106.5120,68.1146
106.5120,68.2946
106.5051,68.3290
106.4856,68.3582
106.4564,68.3777
106.4220,68.3846
106.1220,68.3846
106.0876,68.3777
106.0584,68.3582
106.0388,68.3290
106.0320,68.2946
Z" /> 
<path style="fill:#000000; fill-opacity:1.0000; stroke:none;fill-rule:evenodd;"
d="M 108.1320,68.1146
108.1388,68.0801
108.1584,68.0509
108.1876,68.0314
108.2220,68.0246
108.5220,68.0246
108.5564,68.0314
108.5856,68.0509
108.6051,68.0801
108.6120,68.1146
108.6120,68.2946
108.6051,68.3290
108.5856,68.3582
108.5564,68.3777
108.5220,68.3846
108.2220,68.3846
108.1876,68.3777
108.1584,68.3582
108.1388,68.3290
108.1320,68.2946
Z" /> 
<path style="fill:#000000; fill-opacity:1.0000; stroke:none;fill-rule:evenodd;"
d="M 250.6268,177.4075
250.7033,177.4227
250.7682,177.4660
250.8116,177.5309
250.8268,177.6075
250.8268,178.1875
250.8116,178.2640
250.7682,178.3289
250.7033,178.3722
250.6268,178.3875
248.3468,178.3875
248.2702,178.3722
248.2054,178.3289
248.1620,178.2640
248.1468,178.1875
248.1468,177.6075
248.1620,177.5309
248.2054,177.4660
248.2702,177.4227
248.3468,177.4075
Z" /> 
<path style="fill:#000000; fill-opacity:1.0000; stroke:none;fill-rule:evenodd;"
d="M 250.6268,183.3325
250.7033,183.3477
250.7682,183.3910
250.8116,183.4559
250.8268,183.5325
250.8268,184.1125
250.8116,184.1890
250.7682,184.2539
250.7033,184.2972
250.6268,184.3125
248.3468,184.3125
248.2702,184.2972
248.2054,184.2539
248.1620,184.1890
248.1468,184.1125
248.1468,183.5325
248.1620,183.4559
248.2054,183.3910
248.2702,183.3477
248.3468,183.3325
Z" /> 
<path style="fill:#000000; fill-opacity:1.0000; stroke:none;fill-rule:evenodd;"
d="M 230.5188,149.6468
230.4232,149.6277
230.3420,149.5735
230.2879,149.4924
230.2688,149.3968
230.2688,145.3468
230.2879,145.2511
230.3420,145.1700
230.4232,145.1158
230.5188,145.0968
235.2688,145.0968
235.3645,145.1158
235.4456,145.1700
235.4998,145.2511
235.5188,145.3468
235.5188,149.3968
235.4998,149.4924
235.4456,149.5735
235.3645,149.6277
235.2688,149.6468
Z" /> 
<path style="fill:#000000; fill-opacity:1.0000; stroke:none;fill-rule:evenodd;"
d="M 236.0688,149.6468
235.9732,149.6277
235.8920,149.5735
235.8379,149.4924
235.8188,149.3968
235.8188,145.3468
235.8379,145.2511
235.8920,145.1700
235.9732,145.1158
236.0688,145.0968
240.8188,145.0968
240.9145,145.1158
240.9956,145.1700
241.0498,145.2511
241.0688,145.3468
241.0688,149.3968
241.0498,149.4924
240.9956,149.5735
240.9145,149.6277
240.8188,149.6468
Z" /> 
<path style="fill:#000000; fill-opacity:1.0000; stroke:none;fill-rule:evenodd;"
d="M 230.5188,144.7968
230.4232,144.7777
230.3420,144.7235
230.2879,144.6424
230.2688,144.5468
230.2688,140.4968
230.2879,140.4011
230.3420,140.3200
230.4232,140.2658
230.5188,140.2468
235.2688,140.2468
235.3645,140.2658
235.4456,140.3200
235.4998,140.4011
235.5188,140.4968
235.5188,144.5468
235.4998,144.6424
235.4456,144.7235
235.3645,144.7777
235.2688,144.7968
Z" /> 
<path style="fill:#000000; fill-opacity:1.0000; stroke:none;fill-rule:evenodd;"
d="M 236.0688,144.7968
235.9732,144.7777
235.8920,144.7235
235.8379,144.6424
235.8188,144.5468
235.8188,140.4968
235.8379,140.4011
235.8920,140.3200
235.9732,140.2658
236.0688,140.2468
240.8188,140.2468
240.9145,140.2658
240.9956,140.3200
241.0498,140.4011
241.0688,140.4968
241.0688,144.5468
241.0498,144.6424
240.9956,144.7235
240.9145,144.7777
240.8188,144.7968
Z" /> 
<path style="fill:#000000; fill-opacity:1.0000; stroke:none;fill-rule:evenodd;"
d="M 238.8288,155.9368
238.7523,155.9215
238.6874,155.8782
238.6440,155.8133
238.6288,155.7368
238.6288,152.4568
238.6440,152.3802
238.6874,152.3153
238.7523,152.2720
238.8288,152.2568
239.3088,152.2568
239.3854,152.2720
239.4502,152.3153
239.4936,152.3802
239.5088,152.4568
239.5088,155.7368
239.4936,155.8133
239.4502,155.8782
239.3854,155.9215
239.3088,155.9368
Z" /> 
<path style="fill:#000000; fill-opacity:1.0000; stroke:none;fill-rule:evenodd;"
d="M 237.1288,155.9368
237.0523,155.9215
236.9874,155.8782
236.9440,155.8133
236.9288,155.7368
236.9288,152.4568
236.9440,152.3802
236.9874,152.3153
237.0523,152.2720
237.1288,152.2568
237.6088,152.2568
237.6854,152.2720
237.7502,152.3153
237.7936,152.3802
237.8088,152.4568
237.8088,155.7368
237.7936,155.8133
237.7502,155.8782
237.6854,155.9215
237.6088,155.9368
Z" /> 
<path style="fill:#000000; fill-opacity:1.0000; stroke:none;fill-rule:evenodd;"
d="M 235.4288,155.9368
235.3523,155.9215
235.2874,155.8782
235.2440,155.8133
235.2288,155.7368
235.2288,152.4568
235.2440,152.3802
235.2874,152.3153
235.3523,152.2720
235.4288,152.2568
235.9088,152.2568
235.9854,152.2720
236.0502,152.3153
236.0936,152.3802
236.1088,152.4568
236.1088,155.7368
236.0936,155.8133
236.0502,155.8782
235.9854,155.9215
235.9088,155.9368
Z" /> 
<path style="fill:#000000; fill-opacity:1.0000; stroke:none;fill-rule:evenodd;"
d="M 233.7288,155.9368
233.6523,155.9215
233.5874,155.8782
233.5440,155.8133
233.5288,155.7368
233.5288,152.4568
233.5440,152.3802
233.5874,152.3153
233.6523,152.2720
233.7288,152.2568
234.2088,152.2568
234.2854,152.2720
234.3502,152.3153
234.3936,152.3802
234.4088,152.4568
234.4088,155.7368
234.3936,155.8133
234.3502,155.8782
234.2854,155.9215
234.2088,155.9368
Z" /> 
<path style="fill:#000000; fill-opacity:1.0000; stroke:none;fill-rule:evenodd;"
d="M 232.0288,155.9368
231.9523,155.9215
231.8874,155.8782
231.8440,155.8133
231.8288,155.7368
231.8288,152.4568
231.8440,152.3802
231.8874,152.3153
231.9523,152.2720
232.0288,152.2568
232.5088,152.2568
232.5854,152.2720
232.6502,152.3153
232.6936,152.3802
232.7088,152.4568
232.7088,155.7368
232.6936,155.8133
232.6502,155.8782
232.5854,155.9215
232.5088,155.9368
Z" /> 
<path style="fill:#000000; fill-opacity:1.0000; stroke:none;fill-rule:evenodd;"
d="M 207.3513,69.0717
207.3513,67.3117
208.2313,67.3117
208.2313,69.0717
Z" /> 
<path style="fill:#000000; fill-opacity:1.0000; stroke:none;fill-rule:evenodd;"
d="M 209.8913,69.0717
209.8913,67.3117
210.7713,67.3117
210.7713,69.0717
Z" /> 
<path style="fill:#000000; fill-opacity:1.0000; stroke:none;fill-rule:evenodd;"
d="M 212.4313,69.0717
212.4313,67.3117
213.3113,67.3117
213.3113,69.0717
Z" /> 
<path style="fill:#000000; fill-opacity:1.0000; stroke:none;fill-rule:evenodd;"
d="M 214.9713,69.0717
214.9713,67.3117
215.8513,67.3117
215.8513,69.0717
Z" /> 
<path style="fill:#000000; fill-opacity:1.0000; stroke:none;fill-rule:evenodd;"
d="M 217.5113,69.0717
217.5113,67.3117
218.3913,67.3117
218.3913,69.0717
Z" /> 
<path style="fill:#000000; fill-opacity:1.0000; stroke:none;fill-rule:evenodd;"
d="M 220.0513,69.0717
220.0513,67.3117
220.9313,67.3117
220.9313,69.0717
Z" /> 
<path style="fill:#000000; fill-opacity:1.0000; stroke:none;fill-rule:evenodd;"
d="M 222.5913,69.0717
222.5913,67.3117
223.4713,67.3117
223.4713,69.0717
Z" /> 
<path style="fill:#000000; fill-opacity:1.0000; stroke:none;fill-rule:evenodd;"
d="M 225.1313,69.0717
225.1313,67.3117
226.0113,67.3117
226.0113,69.0717
Z" /> 
<path style="fill:#000000; fill-opacity:1.0000; stroke:none;fill-rule:evenodd;"
d="M 225.1313,77.8717
225.1313,76.1117
226.0113,76.1117
226.0113,77.8717
Z" /> 
<path style="fill:#000000; fill-opacity:1.0000; stroke:none;fill-rule:evenodd;"
d="M 222.5913,77.8717
222.5913,76.1117
223.4713,76.1117
223.4713,77.8717
Z" /> 
<path style="fill:#000000; fill-opacity:1.0000; stroke:none;fill-rule:evenodd;"
d="M 220.0513,77.8717
220.0513,76.1117
220.9313,76.1117
220.9313,77.8717
Z" /> 
<path style="fill:#000000; fill-opacity:1.0000; stroke:none;fill-rule:evenodd;"
d="M 217.5113,77.8717
217.5113,76.1117
218.3913,76.1117
218.3913,77.8717
Z" /> 
<path style="fill:#000000; fill-opacity:1.0000; stroke:none;fill-rule:evenodd;"
d="M 214.9713,77.8717
214.9713,76.1117
215.8513,76.1117
215.8513,77.8717
Z" /> 
<path style="fill:#000000; fill-opacity:1.0000; stroke:none;fill-rule:evenodd;"
d="M 212.4313,77.8717
212.4313,76.1117
213.3113,76.1117
213.3113,77.8717
Z" /> 
<path style="fill:#000000; fill-opacity:1.0000; stroke:none;fill-rule:evenodd;"
d="M 209.8913,77.8717
209.8913,76.1117
210.7713,76.1117
210.7713,77.8717
Z" /> 
<path style="fill:#000000; fill-opacity:1.0000; stroke:none;fill-rule:evenodd;"
d="M 207.3513,77.8717
207.3513,76.1117
208.2313,76.1117
208.2313,77.8717
Z" /> 
<path style="fill:#000000; fill-opacity:1.0000; stroke:none;fill-rule:evenodd;"
d="M 219.7009,87.9233
219.6320,87.9096
219.5736,87.8705
219.5346,87.8121
219.5209,87.7433
219.5209,87.3833
219.5346,87.3144
219.5736,87.2560
219.6320,87.2170
219.7009,87.2033
220.1009,87.2033
220.1698,87.2170
220.2282,87.2560
220.2672,87.3144
220.2809,87.3833
220.2809,87.7433
220.2672,87.8121
220.2282,87.8705
220.1698,87.9096
220.1009,87.9233
Z" /> 
<path style="fill:#000000; fill-opacity:1.0000; stroke:none;fill-rule:evenodd;"
d="M 219.7009,86.3733
219.6320,86.3596
219.5736,86.3205
219.5346,86.2621
219.5209,86.1933
219.5209,85.8333
219.5346,85.7644
219.5736,85.7060
219.6320,85.6670
219.7009,85.6533
220.1009,85.6533
220.1698,85.6670
220.2282,85.7060
220.2672,85.7644
220.2809,85.8333
220.2809,86.1933
220.2672,86.2621
220.2282,86.3205
220.1698,86.3596
220.1009,86.3733
Z" /> 
<path style="fill:#000000; fill-opacity:1.0000; stroke:none;fill-rule:evenodd;"
d="M 242.1866,175.6162
242.1713,175.6927
242.1280,175.7576
242.0631,175.8010
241.9866,175.8162
238.8666,175.8162
238.7900,175.8010
238.7251,175.7576
238.6818,175.6927
238.6666,175.6162
238.6666,174.0162
238.6818,173.9397
238.7251,173.8748
238.7900,173.8314
238.8666,173.8162
241.9866,173.8162
242.0631,173.8314
242.1280,173.8748
242.1713,173.9397
242.1866,174.0162
Z" /> 
<path style="fill:#000000; fill-opacity:1.0000; stroke:none;fill-rule:evenodd;"
d="M 233.7866,175.6162
233.7713,175.6927
233.7280,175.7576
233.6631,175.8010
233.5866,175.8162
230.4666,175.8162
230.3900,175.8010
230.3251,175.7576
230.2818,175.6927
230.2666,175.6162
230.2666,174.0162
230.2818,173.9397
230.3251,173.8748
230.3900,173.8314
230.4666,173.8162
233.5866,173.8162
233.6631,173.8314
233.7280,173.8748
233.7713,173.9397
233.7866,174.0162
Z" /> 
<path style="fill:#000000; fill-opacity:1.0000; stroke:none;fill-rule:evenodd;"
d="M 251.3081,82.7844
251.3013,82.8189
251.2818,82.8481
251.2526,82.8676
251.2181,82.8744
250.9181,82.8744
250.8837,82.8676
250.8545,82.8481
250.8350,82.8189
250.8281,82.7844
250.8281,82.6044
250.8350,82.5700
250.8545,82.5408
250.8837,82.5213
250.9181,82.5144
251.2181,82.5144
251.2526,82.5213
251.2818,82.5408
251.3013,82.5700
251.3081,82.6044
Z" /> 
<path style="fill:#000000; fill-opacity:1.0000; stroke:none;fill-rule:evenodd;"
d="M 249.2081,82.7844
249.2013,82.8189
249.1818,82.8481
249.1526,82.8676
249.1181,82.8744
248.8181,82.8744
248.7837,82.8676
248.7545,82.8481
248.7350,82.8189
248.7281,82.7844
248.7281,82.6044
248.7350,82.5700
248.7545,82.5408
248.7837,82.5213
248.8181,82.5144
249.1181,82.5144
249.1526,82.5213
249.1818,82.5408
249.2013,82.5700
249.2081,82.6044
Z" /> 
<path style="fill:#000000; fill-opacity:1.0000; stroke:none;fill-rule:evenodd;"
d="M 200.3628,82.9853
200.3506,83.0465
200.3159,83.0984
200.2640,83.1331
200.2028,83.1453
199.8828,83.1453
199.8216,83.1331
199.7696,83.0984
199.7350,83.0465
199.7228,82.9853
199.7228,82.5453
199.7350,82.4840
199.7696,82.4321
199.8216,82.3974
199.8828,82.3853
200.2028,82.3853
200.2640,82.3974
200.3159,82.4321
200.3506,82.4840
200.3628,82.5453
Z" /> 
<path style="fill:#000000; fill-opacity:1.0000; stroke:none;fill-rule:evenodd;"
d="M 198.7128,82.9853
198.7006,83.0465
198.6659,83.0984
198.6140,83.1331
198.5528,83.1453
198.2328,83.1453
198.1715,83.1331
198.1196,83.0984
198.0850,83.0465
198.0728,82.9853
198.0728,82.5453
198.0850,82.4840
198.1196,82.4321
198.1715,82.3974
198.2328,82.3853
198.5528,82.3853
198.6140,82.3974
198.6659,82.4321
198.7006,82.4840
198.7128,82.5453
Z" /> 
<path style="fill:#000000; fill-opacity:1.0000; stroke:none;fill-rule:evenodd;"
d="M 230.8045,137.2568
230.7356,137.2431
230.6772,137.2041
230.6382,137.1457
230.6245,137.0768
230.6245,136.7168
230.6382,136.6479
230.6772,136.5895
230.7356,136.5505
230.8045,136.5368
231.2045,136.5368
231.2734,136.5505
231.3318,136.5895
231.3708,136.6479
231.3845,136.7168
231.3845,137.0768
231.3708,137.1457
231.3318,137.2041
231.2734,137.2431
231.2045,137.2568
Z" /> 
<path style="fill:#000000; fill-opacity:1.0000; stroke:none;fill-rule:evenodd;"
d="M 230.8045,135.7068
230.7356,135.6931
230.6772,135.6541
230.6382,135.5957
230.6245,135.5268
230.6245,135.1668
230.6382,135.0979
230.6772,135.0395
230.7356,135.0005
230.8045,134.9868
231.2045,134.9868
231.2734,135.0005
231.3318,135.0395
231.3708,135.0979
231.3845,135.1668
231.3845,135.5268
231.3708,135.5957
231.3318,135.6541
231.2734,135.6931
231.2045,135.7068
Z" /> 
<path style="fill:#000000; fill-opacity:1.0000; stroke:none;fill-rule:evenodd;"
d="M 220.5000,156.1157
220.4235,156.1004
220.3586,156.0571
220.3152,155.9922
220.3000,155.9157
220.3000,153.1157
220.3152,153.0391
220.3586,152.9742
220.4235,152.9309
220.5000,152.9157
224.5000,152.9157
224.5765,152.9309
224.6414,152.9742
224.6848,153.0391
224.7000,153.1157
224.7000,155.9157
224.6848,155.9922
224.6414,156.0571
224.5765,156.1004
224.5000,156.1157
Z" /> 
<path style="fill:#000000; fill-opacity:1.0000; stroke:none;fill-rule:evenodd;"
d="M 220.5000,145.6157
220.4235,145.6004
220.3586,145.5571
220.3152,145.4922
220.3000,145.4157
220.3000,142.6157
220.3152,142.5391
220.3586,142.4742
220.4235,142.4309
220.5000,142.4157
224.5000,142.4157
224.5765,142.4309
224.6414,142.4742
224.6848,142.5391
224.7000,142.6157
224.7000,145.4157
224.6848,145.4922
224.6414,145.5571
224.5765,145.6004
224.5000,145.6157
Z" /> 
<path style="fill:#000000; fill-opacity:1.0000; stroke:none;fill-rule:evenodd;"
d="M 174.5344,85.5342
174.5283,85.5648
174.5110,85.5907
174.4850,85.6081
174.4544,85.6142
173.4344,85.6142
173.4038,85.6081
173.3778,85.5907
173.3605,85.5648
173.3544,85.5342
173.3544,85.3742
173.3605,85.3435
173.3778,85.3176
173.4038,85.3002
173.4344,85.2942
174.4544,85.2942
174.4850,85.3002
174.5110,85.3176
174.5283,85.3435
174.5344,85.3742
Z" /> 
<path style="fill:#000000; fill-opacity:1.0000; stroke:none;fill-rule:evenodd;"
d="M 174.5344,86.1842
174.5283,86.2148
174.5110,86.2407
174.4850,86.2581
174.4544,86.2642
173.4344,86.2642
173.4038,86.2581
173.3778,86.2407
173.3605,86.2148
173.3544,86.1842
173.3544,86.0242
173.3605,85.9935
173.3778,85.9676
173.4038,85.9502
173.4344,85.9442
174.4544,85.9442
174.4850,85.9502
174.5110,85.9676
174.5283,85.9935
174.5344,86.0242
Z" /> 
<path style="fill:#000000; fill-opacity:1.0000; stroke:none;fill-rule:evenodd;"
d="M 174.5344,86.8342
174.5283,86.8648
174.5110,86.8907
174.4850,86.9081
174.4544,86.9142
173.4344,86.9142
173.4038,86.9081
173.3778,86.8907
173.3605,86.8648
173.3544,86.8342
173.3544,86.6742
173.3605,86.6435
173.3778,86.6176
173.4038,86.6002
173.4344,86.5942
174.4544,86.5942
174.4850,86.6002
174.5110,86.6176
174.5283,86.6435
174.5344,86.6742
Z" /> 
<path style="fill:#000000; fill-opacity:1.0000; stroke:none;fill-rule:evenodd;"
d="M 174.5344,87.4842
174.5283,87.5148
174.5110,87.5407
174.4850,87.5581
174.4544,87.5642
173.4344,87.5642
173.4038,87.5581
173.3778,87.5407
173.3605,87.5148
173.3544,87.4842
173.3544,87.3242
173.3605,87.2935
173.3778,87.2676
173.4038,87.2502
173.4344,87.2442
174.4544,87.2442
174.4850,87.2502
174.5110,87.2676
174.5283,87.2935
174.5344,87.3242
Z" /> 
<path style="fill:#000000; fill-opacity:1.0000; stroke:none;fill-rule:evenodd;"
d="M 174.5344,88.1342
174.5283,88.1648
174.5110,88.1907
174.4850,88.2081
174.4544,88.2142
173.4344,88.2142
173.4038,88.2081
173.3778,88.1907
173.3605,88.1648
173.3544,88.1342
173.3544,87.9742
173.3605,87.9435
173.3778,87.9176
173.4038,87.9002
173.4344,87.8942
174.4544,87.8942
174.4850,87.9002
174.5110,87.9176
174.5283,87.9435
174.5344,87.9742
Z" /> 
<path style="fill:#000000; fill-opacity:1.0000; stroke:none;fill-rule:evenodd;"
d="M 174.5344,88.7842
174.5283,88.8148
174.5110,88.8407
174.4850,88.8581
174.4544,88.8642
173.4344,88.8642
173.4038,88.8581
173.3778,88.8407
173.3605,88.8148
173.3544,88.7842
173.3544,88.6242
173.3605,88.5935
173.3778,88.5676
173.4038,88.5502
173.4344,88.5442
174.4544,88.5442
174.4850,88.5502
174.5110,88.5676
174.5283,88.5935
174.5344,88.6242
Z" /> 
<path style="fill:#000000; fill-opacity:1.0000; stroke:none;fill-rule:evenodd;"
d="M 174.5344,89.4342
174.5283,89.4648
174.5110,89.4907
174.4850,89.5081
174.4544,89.5142
173.4344,89.5142
173.4038,89.5081
173.3778,89.4907
173.3605,89.4648
173.3544,89.4342
173.3544,89.2742
173.3605,89.2435
173.3778,89.2176
173.4038,89.2002
173.4344,89.1942
174.4544,89.1942
174.4850,89.2002
174.5110,89.2176
174.5283,89.2435
174.5344,89.2742
Z" /> 
<path style="fill:#000000; fill-opacity:1.0000; stroke:none;fill-rule:evenodd;"
d="M 174.5344,90.0842
174.5283,90.1148
174.5110,90.1407
174.4850,90.1581
174.4544,90.1642
173.4344,90.1642
173.4038,90.1581
173.3778,90.1407
173.3605,90.1148
173.3544,90.0842
173.3544,89.9242
173.3605,89.8935
173.3778,89.8676
173.4038,89.8502
173.4344,89.8442
174.4544,89.8442
174.4850,89.8502
174.5110,89.8676
174.5283,89.8935
174.5344,89.9242
Z" /> 
<path style="fill:#000000; fill-opacity:1.0000; stroke:none;fill-rule:evenodd;"
d="M 174.5344,90.7342
174.5283,90.7648
174.5110,90.7907
174.4850,90.8081
174.4544,90.8142
173.4344,90.8142
173.4038,90.8081
173.3778,90.7907
173.3605,90.7648
173.3544,90.7342
173.3544,90.5742
173.3605,90.5435
173.3778,90.5176
173.4038,90.5002
173.4344,90.4942
174.4544,90.4942
174.4850,90.5002
174.5110,90.5176
174.5283,90.5435
174.5344,90.5742
Z" /> 
<path style="fill:#000000; fill-opacity:1.0000; stroke:none;fill-rule:evenodd;"
d="M 174.5344,91.3842
174.5283,91.4148
174.5110,91.4407
174.4850,91.4581
174.4544,91.4642
173.4344,91.4642
173.4038,91.4581
173.3778,91.4407
173.3605,91.4148
173.3544,91.3842
173.3544,91.2242
173.3605,91.1935
173.3778,91.1676
173.4038,91.1502
173.4344,91.1442
174.4544,91.1442
174.4850,91.1502
174.5110,91.1676
174.5283,91.1935
174.5344,91.2242
Z" /> 
<path style="fill:#000000; fill-opacity:1.0000; stroke:none;fill-rule:evenodd;"
d="M 174.5344,92.0342
174.5283,92.0648
174.5110,92.0907
174.4850,92.1081
174.4544,92.1142
173.4344,92.1142
173.4038,92.1081
173.3778,92.0907
173.3605,92.0648
173.3544,92.0342
173.3544,91.8742
173.3605,91.8435
173.3778,91.8176
173.4038,91.8002
173.4344,91.7942
174.4544,91.7942
174.4850,91.8002
174.5110,91.8176
174.5283,91.8435
174.5344,91.8742
Z" /> 
<path style="fill:#000000; fill-opacity:1.0000; stroke:none;fill-rule:evenodd;"
d="M 174.5344,92.6842
174.5283,92.7148
174.5110,92.7407
174.4850,92.7581
174.4544,92.7642
173.4344,92.7642
173.4038,92.7581
173.3778,92.7407
173.3605,92.7148
173.3544,92.6842
173.3544,92.5242
173.3605,92.4935
173.3778,92.4676
173.4038,92.4502
173.4344,92.4442
174.4544,92.4442
174.4850,92.4502
174.5110,92.4676
174.5283,92.4935
174.5344,92.5242
Z" /> 
<path style="fill:#000000; fill-opacity:1.0000; stroke:none;fill-rule:evenodd;"
d="M 168.8094,92.6842
168.8033,92.7148
168.7860,92.7407
168.7600,92.7581
168.7294,92.7642
167.7094,92.7642
167.6788,92.7581
167.6528,92.7407
167.6355,92.7148
167.6294,92.6842
167.6294,92.5242
167.6355,92.4935
167.6528,92.4676
167.6788,92.4502
167.7094,92.4442
168.7294,92.4442
168.7600,92.4502
168.7860,92.4676
168.8033,92.4935
168.8094,92.5242
Z" /> 
<path style="fill:#000000; fill-opacity:1.0000; stroke:none;fill-rule:evenodd;"
d="M 168.8094,92.0342
168.8033,92.0648
168.7860,92.0907
168.7600,92.1081
168.7294,92.1142
167.7094,92.1142
167.6788,92.1081
167.6528,92.0907
167.6355,92.0648
167.6294,92.0342
167.6294,91.8742
167.6355,91.8435
167.6528,91.8176
167.6788,91.8002
167.7094,91.7942
168.7294,91.7942
168.7600,91.8002
168.7860,91.8176
168.8033,91.8435
168.8094,91.8742
Z" /> 
<path style="fill:#000000; fill-opacity:1.0000; stroke:none;fill-rule:evenodd;"
d="M 168.8094,91.3842
168.8033,91.4148
168.7860,91.4407
168.7600,91.4581
168.7294,91.4642
167.7094,91.4642
167.6788,91.4581
167.6528,91.4407
167.6355,91.4148
167.6294,91.3842
167.6294,91.2242
167.6355,91.1935
167.6528,91.1676
167.6788,91.1502
167.7094,91.1442
168.7294,91.1442
168.7600,91.1502
168.7860,91.1676
168.8033,91.1935
168.8094,91.2242
Z" /> 
<path style="fill:#000000; fill-opacity:1.0000; stroke:none;fill-rule:evenodd;"
d="M 168.8094,90.7342
168.8033,90.7648
168.7860,90.7907
168.7600,90.8081
168.7294,90.8142
167.7094,90.8142
167.6788,90.8081
167.6528,90.7907
167.6355,90.7648
167.6294,90.7342
167.6294,90.5742
167.6355,90.5435
167.6528,90.5176
167.6788,90.5002
167.7094,90.4942
168.7294,90.4942
168.7600,90.5002
168.7860,90.5176
168.8033,90.5435
168.8094,90.5742
Z" /> 
<path style="fill:#000000; fill-opacity:1.0000; stroke:none;fill-rule:evenodd;"
d="M 168.8094,90.0842
168.8033,90.1148
168.7860,90.1407
168.7600,90.1581
168.7294,90.1642
167.7094,90.1642
167.6788,90.1581
167.6528,90.1407
167.6355,90.1148
167.6294,90.0842
167.6294,89.9242
167.6355,89.8935
167.6528,89.8676
167.6788,89.8502
167.7094,89.8442
168.7294,89.8442
168.7600,89.8502
168.7860,89.8676
168.8033,89.8935
168.8094,89.9242
Z" /> 
<path style="fill:#000000; fill-opacity:1.0000; stroke:none;fill-rule:evenodd;"
d="M 168.8094,89.4342
168.8033,89.4648
168.7860,89.4907
168.7600,89.5081
168.7294,89.5142
167.7094,89.5142
167.6788,89.5081
167.6528,89.4907
167.6355,89.4648
167.6294,89.4342
167.6294,89.2742
167.6355,89.2435
167.6528,89.2176
167.6788,89.2002
167.7094,89.1942
168.7294,89.1942
168.7600,89.2002
168.7860,89.2176
168.8033,89.2435
168.8094,89.2742
Z" /> 
<path style="fill:#000000; fill-opacity:1.0000; stroke:none;fill-rule:evenodd;"
d="M 168.8094,88.7842
168.8033,88.8148
168.7860,88.8407
168.7600,88.8581
168.7294,88.8642
167.7094,88.8642
167.6788,88.8581
167.6528,88.8407
167.6355,88.8148
167.6294,88.7842
167.6294,88.6242
167.6355,88.5935
167.6528,88.5676
167.6788,88.5502
167.7094,88.5442
168.7294,88.5442
168.7600,88.5502
168.7860,88.5676
168.8033,88.5935
168.8094,88.6242
Z" /> 
<path style="fill:#000000; fill-opacity:1.0000; stroke:none;fill-rule:evenodd;"
d="M 168.8094,88.1342
168.8033,88.1648
168.7860,88.1907
168.7600,88.2081
168.7294,88.2142
167.7094,88.2142
167.6788,88.2081
167.6528,88.1907
167.6355,88.1648
167.6294,88.1342
167.6294,87.9742
167.6355,87.9435
167.6528,87.9176
167.6788,87.9002
167.7094,87.8942
168.7294,87.8942
168.7600,87.9002
168.7860,87.9176
168.8033,87.9435
168.8094,87.9742
Z" /> 
<path style="fill:#000000; fill-opacity:1.0000; stroke:none;fill-rule:evenodd;"
d="M 168.8094,87.4842
168.8033,87.5148
168.7860,87.5407
168.7600,87.5581
168.7294,87.5642
167.7094,87.5642
167.6788,87.5581
167.6528,87.5407
167.6355,87.5148
167.6294,87.4842
167.6294,87.3242
167.6355,87.2935
167.6528,87.2676
167.6788,87.2502
167.7094,87.2442
168.7294,87.2442
168.7600,87.2502
168.7860,87.2676
168.8033,87.2935
168.8094,87.3242
Z" /> 
<path style="fill:#000000; fill-opacity:1.0000; stroke:none;fill-rule:evenodd;"
d="M 168.8094,86.8342
168.8033,86.8648
168.7860,86.8907
168.7600,86.9081
168.7294,86.9142
167.7094,86.9142
167.6788,86.9081
167.6528,86.8907
167.6355,86.8648
167.6294,86.8342
167.6294,86.6742
167.6355,86.6435
167.6528,86.6176
167.6788,86.6002
167.7094,86.5942
168.7294,86.5942
168.7600,86.6002
168.7860,86.6176
168.8033,86.6435
168.8094,86.6742
Z" /> 
<path style="fill:#000000; fill-opacity:1.0000; stroke:none;fill-rule:evenodd;"
d="M 168.8094,86.1842
168.8033,86.2148
168.7860,86.2407
168.7600,86.2581
168.7294,86.2642
167.7094,86.2642
167.6788,86.2581
167.6528,86.2407
167.6355,86.2148
167.6294,86.1842
167.6294,86.0242
167.6355,85.9935
167.6528,85.9676
167.6788,85.9502
167.7094,85.9442
168.7294,85.9442
168.7600,85.9502
168.7860,85.9676
168.8033,85.9935
168.8094,86.0242
Z" /> 
<path style="fill:#000000; fill-opacity:1.0000; stroke:none;fill-rule:evenodd;"
d="M 168.8094,85.5342
168.8033,85.5648
168.7860,85.5907
168.7600,85.6081
168.7294,85.6142
167.7094,85.6142
167.6788,85.6081
167.6528,85.5907
167.6355,85.5648
167.6294,85.5342
167.6294,85.3742
167.6355,85.3435
167.6528,85.3176
167.6788,85.3002
167.7094,85.2942
168.7294,85.2942
168.7600,85.3002
168.7860,85.3176
168.8033,85.3435
168.8094,85.3742
Z" /> 
<path style="fill:#000000; fill-opacity:1.0000; stroke:none;fill-rule:evenodd;"
d="M 240.4802,181.3651
240.4955,181.2886
240.5388,181.2237
240.6037,181.1804
240.6802,181.1651
241.1802,181.1651
241.2568,181.1804
241.3217,181.2237
241.3650,181.2886
241.3802,181.3651
241.3802,183.6851
241.3650,183.7617
241.3217,183.8266
241.2568,183.8699
241.1802,183.8851
240.6802,183.8851
240.6037,183.8699
240.5388,183.8266
240.4955,183.7617
240.4802,183.6851
Z" /> 
<path style="fill:#000000; fill-opacity:1.0000; stroke:none;fill-rule:evenodd;"
d="M 244.7552,181.3651
244.7705,181.2886
244.8138,181.2237
244.8787,181.1804
244.9552,181.1651
245.4552,181.1651
245.5318,181.1804
245.5967,181.2237
245.6400,181.2886
245.6552,181.3651
245.6552,183.6851
245.6400,183.7617
245.5967,183.8266
245.5318,183.8699
245.4552,183.8851
244.9552,183.8851
244.8787,183.8699
244.8138,183.8266
244.7705,183.7617
244.7552,183.6851
Z" /> 
<path style="fill:#000000; fill-opacity:1.0000; stroke:none;fill-rule:evenodd;"
d="M 224.9108,161.8781
224.9108,159.2381
227.0708,159.2381
227.0708,161.8781
Z" /> 
<path style="fill:#000000; fill-opacity:1.0000; stroke:none;fill-rule:evenodd;"
d="M 232.2908,161.8781
232.2908,159.2381
234.4508,159.2381
234.4508,161.8781
Z" /> 
<path style="fill:#000000; fill-opacity:1.0000; stroke:none;fill-rule:evenodd;"
d="M 243.5069,147.5592
243.5681,147.5714
243.6200,147.6061
243.6547,147.6580
243.6669,147.7192
243.6669,148.0392
243.6547,148.1004
243.6200,148.1523
243.5681,148.1870
243.5069,148.1992
243.0669,148.1992
243.0057,148.1870
242.9538,148.1523
242.9191,148.1004
242.9069,148.0392
242.9069,147.7192
242.9191,147.6580
242.9538,147.6061
243.0057,147.5714
243.0669,147.5592
Z" /> 
<path style="fill:#000000; fill-opacity:1.0000; stroke:none;fill-rule:evenodd;"
d="M 243.5069,149.2092
243.5681,149.2214
243.6200,149.2561
243.6547,149.3080
243.6669,149.3692
243.6669,149.6892
243.6547,149.7504
243.6200,149.8023
243.5681,149.8370
243.5069,149.8492
243.0669,149.8492
243.0057,149.8370
242.9538,149.8023
242.9191,149.7504
242.9069,149.6892
242.9069,149.3692
242.9191,149.3080
242.9538,149.2561
243.0057,149.2214
243.0669,149.2092
Z" /> 
<path style="fill:#000000; fill-opacity:1.0000; stroke:none;fill-rule:evenodd;"
d="M 255.2713,117.3723
255.2713,117.7323
254.9513,117.7323
254.9513,117.3723
Z" /> 
<path style="fill:#000000; fill-opacity:1.0000; stroke:none;fill-rule:evenodd;"
d="M 254.6113,117.3723
254.6113,117.7323
254.2913,117.7323
254.2913,117.3723
Z" /> 
<path style="fill:#000000; fill-opacity:1.0000; stroke:none;fill-rule:evenodd;"
d="M 253.9613,117.3723
253.9613,117.7323
253.6413,117.7323
253.6413,117.3723
Z" /> 
<path style="fill:#000000; fill-opacity:1.0000; stroke:none;fill-rule:evenodd;"
d="M 253.9613,115.4723
253.9613,115.8323
253.6413,115.8323
253.6413,115.4723
Z" /> 
<path style="fill:#000000; fill-opacity:1.0000; stroke:none;fill-rule:evenodd;"
d="M 254.6113,115.4723
254.6113,115.8323
254.2913,115.8323
254.2913,115.4723
Z" /> 
<path style="fill:#000000; fill-opacity:1.0000; stroke:none;fill-rule:evenodd;"
d="M 255.2713,115.4723
255.2713,115.8323
254.9513,115.8323
254.9513,115.4723
Z" /> 
<path style="fill:#000000; fill-opacity:1.0000; stroke:none;fill-rule:evenodd;"
d="M 253.9113,116.2383
253.9113,116.9663
253.5913,116.9663
253.5913,116.2383
Z" /> 
<path style="fill:#000000; fill-opacity:1.0000; stroke:none;fill-rule:evenodd;"
d="M 255.1053,116.2383
255.1053,116.9663
254.4573,116.9663
254.4573,116.2383
Z" /> 
<path style="fill:#000000; fill-opacity:1.0000; stroke:none;fill-rule:evenodd;"
d="M 254.8555,114.0129
254.8487,114.0474
254.8292,114.0766
254.8000,114.0961
254.7655,114.1029
254.4655,114.1029
254.4311,114.0961
254.4019,114.0766
254.3824,114.0474
254.3755,114.0129
254.3755,113.8329
254.3824,113.7985
254.4019,113.7693
254.4311,113.7498
254.4655,113.7429
254.7655,113.7429
254.8000,113.7498
254.8292,113.7693
254.8487,113.7985
254.8555,113.8329
Z" /> 
<path style="fill:#000000; fill-opacity:1.0000; stroke:none;fill-rule:evenodd;"
d="M 252.7555,114.0129
252.7487,114.0474
252.7292,114.0766
252.7000,114.0961
252.6655,114.1029
252.3655,114.1029
252.3311,114.0961
252.3019,114.0766
252.2824,114.0474
252.2755,114.0129
252.2755,113.8329
252.2824,113.7985
252.3019,113.7693
252.3311,113.7498
252.3655,113.7429
252.6655,113.7429
252.7000,113.7498
252.7292,113.7693
252.7487,113.7985
252.7555,113.8329
Z" /> 
<path style="fill:#000000; fill-opacity:1.0000; stroke:none;fill-rule:evenodd;"
d="M 251.1468,81.0629
251.1347,81.1242
251.1000,81.1761
251.0481,81.2108
250.9868,81.2229
250.6668,81.2229
250.6056,81.2108
250.5537,81.1761
250.5190,81.1242
250.5068,81.0629
250.5068,80.6229
250.5190,80.5617
250.5537,80.5098
250.6056,80.4751
250.6668,80.4629
250.9868,80.4629
251.0481,80.4751
251.1000,80.5098
251.1347,80.5617
251.1468,80.6229
Z" /> 
<path style="fill:#000000; fill-opacity:1.0000; stroke:none;fill-rule:evenodd;"
d="M 249.4968,81.0629
249.4847,81.1242
249.4500,81.1761
249.3981,81.2108
249.3368,81.2229
249.0168,81.2229
248.9556,81.2108
248.9037,81.1761
248.8690,81.1242
248.8568,81.0629
248.8568,80.6229
248.8690,80.5617
248.9037,80.5098
248.9556,80.4751
249.0168,80.4629
249.3368,80.4629
249.3981,80.4751
249.4500,80.5098
249.4847,80.5617
249.4968,80.6229
Z" /> 
<path style="fill:#000000; fill-opacity:1.0000; stroke:none;fill-rule:evenodd;"
d="M 238.7797,184.9908
238.8410,185.0030
238.8929,185.0377
238.9276,185.0896
238.9397,185.1508
238.9397,185.4708
238.9276,185.5320
238.8929,185.5839
238.8410,185.6186
238.7797,185.6308
238.3397,185.6308
238.2785,185.6186
238.2266,185.5839
238.1919,185.5320
238.1797,185.4708
238.1797,185.1508
238.1919,185.0896
238.2266,185.0377
238.2785,185.0030
238.3397,184.9908
Z" /> 
<path style="fill:#000000; fill-opacity:1.0000; stroke:none;fill-rule:evenodd;"
d="M 238.7797,186.6408
238.8410,186.6530
238.8929,186.6877
238.9276,186.7396
238.9397,186.8008
238.9397,187.1208
238.9276,187.1820
238.8929,187.2339
238.8410,187.2686
238.7797,187.2808
238.3397,187.2808
238.2785,187.2686
238.2266,187.2339
238.1919,187.1820
238.1797,187.1208
238.1797,186.8008
238.1919,186.7396
238.2266,186.6877
238.2785,186.6530
238.3397,186.6408
Z" /> 
<path style="fill:#000000; fill-opacity:1.0000; stroke:none;fill-rule:evenodd;"
d="M 229.0685,137.2710
228.9996,137.2573
228.9412,137.2183
228.9022,137.1599
228.8885,137.0910
228.8885,136.7310
228.9022,136.6622
228.9412,136.6038
228.9996,136.5647
229.0685,136.5510
229.4685,136.5510
229.5374,136.5647
229.5958,136.6038
229.6348,136.6622
229.6485,136.7310
229.6485,137.0910
229.6348,137.1599
229.5958,137.2183
229.5374,137.2573
229.4685,137.2710
Z" /> 
<path style="fill:#000000; fill-opacity:1.0000; stroke:none;fill-rule:evenodd;"
d="M 229.0685,135.7210
228.9996,135.7073
228.9412,135.6683
228.9022,135.6099
228.8885,135.5410
228.8885,135.1810
228.9022,135.1122
228.9412,135.0538
228.9996,135.0147
229.0685,135.0010
229.4685,135.0010
229.5374,135.0147
229.5958,135.0538
229.6348,135.1122
229.6485,135.1810
229.6485,135.5410
229.6348,135.6099
229.5958,135.6683
229.5374,135.7073
229.4685,135.7210
Z" /> 
<path style="fill:#000000; fill-opacity:1.0000; stroke:none;fill-rule:evenodd;"
d="M 228.4778,85.8612
228.4718,85.8919
228.4544,85.9178
228.4285,85.9352
228.3978,85.9412
227.3778,85.9412
227.3472,85.9352
227.3213,85.9178
227.3039,85.8919
227.2978,85.8612
227.2978,85.7012
227.3039,85.6706
227.3213,85.6447
227.3472,85.6273
227.3778,85.6212
228.3978,85.6212
228.4285,85.6273
228.4544,85.6447
228.4718,85.6706
228.4778,85.7012
Z" /> 
<path style="fill:#000000; fill-opacity:1.0000; stroke:none;fill-rule:evenodd;"
d="M 228.4778,86.5112
228.4718,86.5419
228.4544,86.5678
228.4285,86.5852
228.3978,86.5912
227.3778,86.5912
227.3472,86.5852
227.3213,86.5678
227.3039,86.5419
227.2978,86.5112
227.2978,86.3512
227.3039,86.3206
227.3213,86.2947
227.3472,86.2773
227.3778,86.2712
228.3978,86.2712
228.4285,86.2773
228.4544,86.2947
228.4718,86.3206
228.4778,86.3512
Z" /> 
<path style="fill:#000000; fill-opacity:1.0000; stroke:none;fill-rule:evenodd;"
d="M 228.4778,87.1612
228.4718,87.1919
228.4544,87.2178
228.4285,87.2352
228.3978,87.2412
227.3778,87.2412
227.3472,87.2352
227.3213,87.2178
227.3039,87.1919
227.2978,87.1612
227.2978,87.0012
227.3039,86.9706
227.3213,86.9447
227.3472,86.9273
227.3778,86.9212
228.3978,86.9212
228.4285,86.9273
228.4544,86.9447
228.4718,86.9706
228.4778,87.0012
Z" /> 
<path style="fill:#000000; fill-opacity:1.0000; stroke:none;fill-rule:evenodd;"
d="M 228.4778,87.8112
228.4718,87.8419
228.4544,87.8678
228.4285,87.8852
228.3978,87.8912
227.3778,87.8912
227.3472,87.8852
227.3213,87.8678
227.3039,87.8419
227.2978,87.8112
227.2978,87.6512
227.3039,87.6206
227.3213,87.5947
227.3472,87.5773
227.3778,87.5712
228.3978,87.5712
228.4285,87.5773
228.4544,87.5947
228.4718,87.6206
228.4778,87.6512
Z" /> 
<path style="fill:#000000; fill-opacity:1.0000; stroke:none;fill-rule:evenodd;"
d="M 228.4778,88.4612
228.4718,88.4919
228.4544,88.5178
228.4285,88.5352
228.3978,88.5412
227.3778,88.5412
227.3472,88.5352
227.3213,88.5178
227.3039,88.4919
227.2978,88.4612
227.2978,88.3012
227.3039,88.2706
227.3213,88.2447
227.3472,88.2273
227.3778,88.2212
228.3978,88.2212
228.4285,88.2273
228.4544,88.2447
228.4718,88.2706
228.4778,88.3012
Z" /> 
<path style="fill:#000000; fill-opacity:1.0000; stroke:none;fill-rule:evenodd;"
d="M 228.4778,89.1112
228.4718,89.1419
228.4544,89.1678
228.4285,89.1852
228.3978,89.1912
227.3778,89.1912
227.3472,89.1852
227.3213,89.1678
227.3039,89.1419
227.2978,89.1112
227.2978,88.9512
227.3039,88.9206
227.3213,88.8947
227.3472,88.8773
227.3778,88.8712
228.3978,88.8712
228.4285,88.8773
228.4544,88.8947
228.4718,88.9206
228.4778,88.9512
Z" /> 
<path style="fill:#000000; fill-opacity:1.0000; stroke:none;fill-rule:evenodd;"
d="M 228.4778,89.7612
228.4718,89.7919
228.4544,89.8178
228.4285,89.8352
228.3978,89.8412
227.3778,89.8412
227.3472,89.8352
227.3213,89.8178
227.3039,89.7919
227.2978,89.7612
227.2978,89.6012
227.3039,89.5706
227.3213,89.5447
227.3472,89.5273
227.3778,89.5212
228.3978,89.5212
228.4285,89.5273
228.4544,89.5447
228.4718,89.5706
228.4778,89.6012
Z" /> 
<path style="fill:#000000; fill-opacity:1.0000; stroke:none;fill-rule:evenodd;"
d="M 228.4778,90.4112
228.4718,90.4419
228.4544,90.4678
228.4285,90.4852
228.3978,90.4912
227.3778,90.4912
227.3472,90.4852
227.3213,90.4678
227.3039,90.4419
227.2978,90.4112
227.2978,90.2512
227.3039,90.2206
227.3213,90.1947
227.3472,90.1773
227.3778,90.1712
228.3978,90.1712
228.4285,90.1773
228.4544,90.1947
228.4718,90.2206
228.4778,90.2512
Z" /> 
<path style="fill:#000000; fill-opacity:1.0000; stroke:none;fill-rule:evenodd;"
d="M 228.4778,91.0612
228.4718,91.0919
228.4544,91.1178
228.4285,91.1352
228.3978,91.1412
227.3778,91.1412
227.3472,91.1352
227.3213,91.1178
227.3039,91.0919
227.2978,91.0612
227.2978,90.9012
227.3039,90.8706
227.3213,90.8447
227.3472,90.8273
227.3778,90.8212
228.3978,90.8212
228.4285,90.8273
228.4544,90.8447
228.4718,90.8706
228.4778,90.9012
Z" /> 
<path style="fill:#000000; fill-opacity:1.0000; stroke:none;fill-rule:evenodd;"
d="M 228.4778,91.7112
228.4718,91.7419
228.4544,91.7678
228.4285,91.7852
228.3978,91.7912
227.3778,91.7912
227.3472,91.7852
227.3213,91.7678
227.3039,91.7419
227.2978,91.7112
227.2978,91.5512
227.3039,91.5206
227.3213,91.4947
227.3472,91.4773
227.3778,91.4712
228.3978,91.4712
228.4285,91.4773
228.4544,91.4947
228.4718,91.5206
228.4778,91.5512
Z" /> 
<path style="fill:#000000; fill-opacity:1.0000; stroke:none;fill-rule:evenodd;"
d="M 228.4778,92.3612
228.4718,92.3919
228.4544,92.4178
228.4285,92.4352
228.3978,92.4412
227.3778,92.4412
227.3472,92.4352
227.3213,92.4178
227.3039,92.3919
227.2978,92.3612
227.2978,92.2012
227.3039,92.1706
227.3213,92.1447
227.3472,92.1273
227.3778,92.1212
228.3978,92.1212
228.4285,92.1273
228.4544,92.1447
228.4718,92.1706
228.4778,92.2012
Z" /> 
<path style="fill:#000000; fill-opacity:1.0000; stroke:none;fill-rule:evenodd;"
d="M 228.4778,93.0112
228.4718,93.0419
228.4544,93.0678
228.4285,93.0852
228.3978,93.0912
227.3778,93.0912
227.3472,93.0852
227.3213,93.0678
227.3039,93.0419
227.2978,93.0112
227.2978,92.8512
227.3039,92.8206
227.3213,92.7947
227.3472,92.7773
227.3778,92.7712
228.3978,92.7712
228.4285,92.7773
228.4544,92.7947
228.4718,92.8206
228.4778,92.8512
Z" /> 
<path style="fill:#000000; fill-opacity:1.0000; stroke:none;fill-rule:evenodd;"
d="M 222.7528,93.0112
222.7468,93.0419
222.7294,93.0678
222.7035,93.0852
222.6728,93.0912
221.6528,93.0912
221.6222,93.0852
221.5963,93.0678
221.5789,93.0419
221.5728,93.0112
221.5728,92.8512
221.5789,92.8206
221.5963,92.7947
221.6222,92.7773
221.6528,92.7712
222.6728,92.7712
222.7035,92.7773
222.7294,92.7947
222.7468,92.8206
222.7528,92.8512
Z" /> 
<path style="fill:#000000; fill-opacity:1.0000; stroke:none;fill-rule:evenodd;"
d="M 222.7528,92.3612
222.7468,92.3919
222.7294,92.4178
222.7035,92.4352
222.6728,92.4412
221.6528,92.4412
221.6222,92.4352
221.5963,92.4178
221.5789,92.3919
221.5728,92.3612
221.5728,92.2012
221.5789,92.1706
221.5963,92.1447
221.6222,92.1273
221.6528,92.1212
222.6728,92.1212
222.7035,92.1273
222.7294,92.1447
222.7468,92.1706
222.7528,92.2012
Z" /> 
<path style="fill:#000000; fill-opacity:1.0000; stroke:none;fill-rule:evenodd;"
d="M 222.7528,91.7112
222.7468,91.7419
222.7294,91.7678
222.7035,91.7852
222.6728,91.7912
221.6528,91.7912
221.6222,91.7852
221.5963,91.7678
221.5789,91.7419
221.5728,91.7112
221.5728,91.5512
221.5789,91.5206
221.5963,91.4947
221.6222,91.4773
221.6528,91.4712
222.6728,91.4712
222.7035,91.4773
222.7294,91.4947
222.7468,91.5206
222.7528,91.5512
Z" /> 
<path style="fill:#000000; fill-opacity:1.0000; stroke:none;fill-rule:evenodd;"
d="M 222.7528,91.0612
222.7468,91.0919
222.7294,91.1178
222.7035,91.1352
222.6728,91.1412
221.6528,91.1412
221.6222,91.1352
221.5963,91.1178
221.5789,91.0919
221.5728,91.0612
221.5728,90.9012
221.5789,90.8706
221.5963,90.8447
221.6222,90.8273
221.6528,90.8212
222.6728,90.8212
222.7035,90.8273
222.7294,90.8447
222.7468,90.8706
222.7528,90.9012
Z" /> 
<path style="fill:#000000; fill-opacity:1.0000; stroke:none;fill-rule:evenodd;"
d="M 222.7528,90.4112
222.7468,90.4419
222.7294,90.4678
222.7035,90.4852
222.6728,90.4912
221.6528,90.4912
221.6222,90.4852
221.5963,90.4678
221.5789,90.4419
221.5728,90.4112
221.5728,90.2512
221.5789,90.2206
221.5963,90.1947
221.6222,90.1773
221.6528,90.1712
222.6728,90.1712
222.7035,90.1773
222.7294,90.1947
222.7468,90.2206
222.7528,90.2512
Z" /> 
<path style="fill:#000000; fill-opacity:1.0000; stroke:none;fill-rule:evenodd;"
d="M 222.7528,89.7612
222.7468,89.7919
222.7294,89.8178
222.7035,89.8352
222.6728,89.8412
221.6528,89.8412
221.6222,89.8352
221.5963,89.8178
221.5789,89.7919
221.5728,89.7612
221.5728,89.6012
221.5789,89.5706
221.5963,89.5447
221.6222,89.5273
221.6528,89.5212
222.6728,89.5212
222.7035,89.5273
222.7294,89.5447
222.7468,89.5706
222.7528,89.6012
Z" /> 
<path style="fill:#000000; fill-opacity:1.0000; stroke:none;fill-rule:evenodd;"
d="M 222.7528,89.1112
222.7468,89.1419
222.7294,89.1678
222.7035,89.1852
222.6728,89.1912
221.6528,89.1912
221.6222,89.1852
221.5963,89.1678
221.5789,89.1419
221.5728,89.1112
221.5728,88.9512
221.5789,88.9206
221.5963,88.8947
221.6222,88.8773
221.6528,88.8712
222.6728,88.8712
222.7035,88.8773
222.7294,88.8947
222.7468,88.9206
222.7528,88.9512
Z" /> 
<path style="fill:#000000; fill-opacity:1.0000; stroke:none;fill-rule:evenodd;"
d="M 222.7528,88.4612
222.7468,88.4919
222.7294,88.5178
222.7035,88.5352
222.6728,88.5412
221.6528,88.5412
221.6222,88.5352
221.5963,88.5178
221.5789,88.4919
221.5728,88.4612
221.5728,88.3012
221.5789,88.2706
221.5963,88.2447
221.6222,88.2273
221.6528,88.2212
222.6728,88.2212
222.7035,88.2273
222.7294,88.2447
222.7468,88.2706
222.7528,88.3012
Z" /> 
<path style="fill:#000000; fill-opacity:1.0000; stroke:none;fill-rule:evenodd;"
d="M 222.7528,87.8112
222.7468,87.8419
222.7294,87.8678
222.7035,87.8852
222.6728,87.8912
221.6528,87.8912
221.6222,87.8852
221.5963,87.8678
221.5789,87.8419
221.5728,87.8112
221.5728,87.6512
221.5789,87.6206
221.5963,87.5947
221.6222,87.5773
221.6528,87.5712
222.6728,87.5712
222.7035,87.5773
222.7294,87.5947
222.7468,87.6206
222.7528,87.6512
Z" /> 
<path style="fill:#000000; fill-opacity:1.0000; stroke:none;fill-rule:evenodd;"
d="M 222.7528,87.1612
222.7468,87.1919
222.7294,87.2178
222.7035,87.2352
222.6728,87.2412
221.6528,87.2412
221.6222,87.2352
221.5963,87.2178
221.5789,87.1919
221.5728,87.1612
221.5728,87.0012
221.5789,86.9706
221.5963,86.9447
221.6222,86.9273
221.6528,86.9212
222.6728,86.9212
222.7035,86.9273
222.7294,86.9447
222.7468,86.9706
222.7528,87.0012
Z" /> 
<path style="fill:#000000; fill-opacity:1.0000; stroke:none;fill-rule:evenodd;"
d="M 222.7528,86.5112
222.7468,86.5419
222.7294,86.5678
222.7035,86.5852
222.6728,86.5912
221.6528,86.5912
221.6222,86.5852
221.5963,86.5678
221.5789,86.5419
221.5728,86.5112
221.5728,86.3512
221.5789,86.3206
221.5963,86.2947
221.6222,86.2773
221.6528,86.2712
222.6728,86.2712
222.7035,86.2773
222.7294,86.2947
222.7468,86.3206
222.7528,86.3512
Z" /> 
<path style="fill:#000000; fill-opacity:1.0000; stroke:none;fill-rule:evenodd;"
d="M 222.7528,85.8612
222.7468,85.8919
222.7294,85.9178
222.7035,85.9352
222.6728,85.9412
221.6528,85.9412
221.6222,85.9352
221.5963,85.9178
221.5789,85.8919
221.5728,85.8612
221.5728,85.7012
221.5789,85.6706
221.5963,85.6447
221.6222,85.6273
221.6528,85.6212
222.6728,85.6212
222.7035,85.6273
222.7294,85.6447
222.7468,85.6706
222.7528,85.7012
Z" /> 
<path style="fill:#000000; fill-opacity:1.0000; stroke:none;fill-rule:evenodd;"
d="M 249.1421,168.1821
249.1880,168.1912
249.2269,168.2172
249.2529,168.2562
249.2621,168.3021
249.2621,169.2421
249.2529,169.2880
249.2269,169.3269
249.1880,169.3530
249.1421,169.3621
248.9021,169.3621
248.8561,169.3530
248.8172,169.3269
248.7912,169.2880
248.7821,169.2421
248.7821,168.3021
248.7912,168.2562
248.8172,168.2172
248.8561,168.1912
248.9021,168.1821
Z" /> 
<path style="fill:#000000; fill-opacity:1.0000; stroke:none;fill-rule:evenodd;"
d="M 251.0421,168.1821
251.0880,168.1912
251.1269,168.2172
251.1529,168.2562
251.1621,168.3021
251.1621,169.2421
251.1529,169.2880
251.1269,169.3269
251.0880,169.3530
251.0421,169.3621
250.8021,169.3621
250.7561,169.3530
250.7172,169.3269
250.6912,169.2880
250.6821,169.2421
250.6821,168.3021
250.6912,168.2562
250.7172,168.2172
250.7561,168.1912
250.8021,168.1821
Z" /> 
<path style="fill:#000000; fill-opacity:1.0000; stroke:none;fill-rule:evenodd;"
d="M 250.0921,170.0571
250.1380,170.0662
250.1769,170.0922
250.2029,170.1312
250.2121,170.1771
250.2121,171.1171
250.2029,171.1630
250.1769,171.2020
250.1380,171.2280
250.0921,171.2371
249.8521,171.2371
249.8061,171.2280
249.7672,171.2020
249.7412,171.1630
249.7321,171.1171
249.7321,170.1771
249.7412,170.1312
249.7672,170.0922
249.8061,170.0662
249.8521,170.0571
Z" /> 
<path style="fill:#000000; fill-opacity:1.0000; stroke:none;fill-rule:evenodd;"
d="M 238.9448,181.5791
238.9793,181.5860
239.0085,181.6055
239.0280,181.6347
239.0348,181.6691
239.0348,181.9691
239.0280,182.0036
239.0085,182.0328
238.9793,182.0523
238.9448,182.0591
238.7648,182.0591
238.7304,182.0523
238.7012,182.0328
238.6817,182.0036
238.6748,181.9691
238.6748,181.6691
238.6817,181.6347
238.7012,181.6055
238.7304,181.5860
238.7648,181.5791
Z" /> 
<path style="fill:#000000; fill-opacity:1.0000; stroke:none;fill-rule:evenodd;"
d="M 238.9448,183.6791
238.9793,183.6860
239.0085,183.7055
239.0280,183.7347
239.0348,183.7691
239.0348,184.0691
239.0280,184.1036
239.0085,184.1328
238.9793,184.1523
238.9448,184.1591
238.7648,184.1591
238.7304,184.1523
238.7012,184.1328
238.6817,184.1036
238.6748,184.0691
238.6748,183.7691
238.6817,183.7347
238.7012,183.7055
238.7304,183.6860
238.7648,183.6791
Z" /> 
<path style="fill:#000000; fill-opacity:1.0000; stroke:none;fill-rule:evenodd;"
d="M 199.9760,79.7915
200.3360,79.7915
200.3360,80.1115
199.9760,80.1115
Z" /> 
<path style="fill:#000000; fill-opacity:1.0000; stroke:none;fill-rule:evenodd;"
d="M 199.9760,80.4515
200.3360,80.4515
200.3360,80.7715
199.9760,80.7715
Z" /> 
<path style="fill:#000000; fill-opacity:1.0000; stroke:none;fill-rule:evenodd;"
d="M 199.9760,81.1015
200.3360,81.1015
200.3360,81.4215
199.9760,81.4215
Z" /> 
<path style="fill:#000000; fill-opacity:1.0000; stroke:none;fill-rule:evenodd;"
d="M 198.0760,81.1015
198.4360,81.1015
198.4360,81.4215
198.0760,81.4215
Z" /> 
<path style="fill:#000000; fill-opacity:1.0000; stroke:none;fill-rule:evenodd;"
d="M 198.0760,80.4515
198.4360,80.4515
198.4360,80.7715
198.0760,80.7715
Z" /> 
<path style="fill:#000000; fill-opacity:1.0000; stroke:none;fill-rule:evenodd;"
d="M 198.0760,79.7915
198.4360,79.7915
198.4360,80.1115
198.0760,80.1115
Z" /> 
<path style="fill:#000000; fill-opacity:1.0000; stroke:none;fill-rule:evenodd;"
d="M 198.8420,81.1515
199.5700,81.1515
199.5700,81.4715
198.8420,81.4715
Z" /> 
<path style="fill:#000000; fill-opacity:1.0000; stroke:none;fill-rule:evenodd;"
d="M 198.8420,79.9575
199.5700,79.9575
199.5700,80.6055
198.8420,80.6055
Z" /> 
</g> 
</svg>
