<?xml version="1.0" encoding="UTF-8" standalone="no"?>
<!-- Generator: Adobe Illustrator 22.0.0, SVG Export Plug-In . SVG Version: 6.00 Build 0)  -->

<svg
   version="1.1"
   id="Layer_1"
   x="0px"
   y="0px"
   viewBox="0 0 989.3 370.8"
   style="enable-background:new 0 0 989.3 370.8;"
   xml:space="preserve"
   sodipodi:docname="Mothbox Logo Wide White.svg"
   inkscape:version="1.3.2 (091e20e, 2023-11-25, custom)"
   xmlns:inkscape="http://www.inkscape.org/namespaces/inkscape"
   xmlns:sodipodi="http://sodipodi.sourceforge.net/DTD/sodipodi-0.dtd"
   xmlns="http://www.w3.org/2000/svg"
   xmlns:svg="http://www.w3.org/2000/svg"><defs
   id="defs36" /><sodipodi:namedview
   id="namedview36"
   pagecolor="#ffffff"
   bordercolor="#000000"
   borderopacity="0.25"
   inkscape:showpageshadow="2"
   inkscape:pageopacity="0.0"
   inkscape:pagecheckerboard="0"
   inkscape:deskcolor="#d1d1d1"
   inkscape:zoom="1.4181745"
   inkscape:cx="494.64999"
   inkscape:cy="185.09711"
   inkscape:window-width="1920"
   inkscape:window-height="1009"
   inkscape:window-x="-8"
   inkscape:window-y="-8"
   inkscape:window-maximized="1"
   inkscape:current-layer="Layer_1" />
<g
   id="g27"
   style="fill:#ffffff;fill-opacity:1">
	<path
   d="M377.8,188.7c-1.9,1.1-3.8,2-5.5,3.3c-3.7,2.8-7.2,6.1-11.1,8.6c-2.4,1.6-5.4,2.4-8.2,3.2c-3.3,0.9-6.6,1.6-10,2.2   c-3.3,0.5-6.7,0.6-10.1,1c-0.6,0.1-1.3,0.2-1.8,0.6c-0.4,0.3-0.8,0.9-1,1.4c-0.7,2.6-1.2,5.3-2.1,7.9c-0.9,2.7-2,5.3-3.3,7.8   c-1.9,3.4-3.9,6.7-6.2,9.8c-1.9,2.5-4.5,4.5-6.8,6.7c-3.4,3.2-7.4,5.5-11.9,7c-3.1,1-6.2,1.8-9.4,2.4c-3.1,0.6-6.3,1.1-9.5,1.3   c-1.9,0.1-3.9-0.3-5.8-0.7c-3.4-0.7-6.9-1.2-10-2.5c-4.8-1.9-9.2-4.8-13.1-8.3c-2.7-2.4-5.4-4.9-8.3-7.5c-0.1,0.5-0.2,0.7-0.2,0.9   c0.2,9.4-0.4,18.7-2.4,28c-0.9,4.1-2,8-3.5,11.9c-1.8,4.5-3.5,9.1-6.5,13c-3.8,5-7.6,10.1-13.9,12.3c-2.3,0.8-4.6,0.9-6.9,0.1   c-4.2-1.4-7.4-4.3-10.3-7.5c-3.7-4.1-6.7-8.7-8.9-13.8c-2-4.6-3.9-9.3-4.5-14.4c-0.2-1.5-0.6-3-0.9-4.4c-0.5-2.3-1.4-4.5-1.6-6.8   c-0.4-4.9-0.6-9.9-0.7-14.8c0-1.7,0.3-3.4,0.4-5.5c-0.9,0.8-1.6,1.2-2.2,1.8c-1.6,1.6-3.1,3.3-4.8,4.9c-2.1,2-4.2,4.2-6.6,5.8   c-4.5,2.9-9.2,5.7-14.7,6.4c-3,0.4-6.1,1.3-9.1,1.3c-3.5,0-7-0.7-10.5-1.4c-3.3-0.7-6.7-1.3-9.8-2.6c-9.3-3.9-16.5-10.5-22-18.9   c-2.9-4.4-4.7-9.3-6.4-14.2c-0.5-1.4-1-2.9-1-4.4c-0.1-2.5-0.8-3.4-3.3-3.5c-1.5-0.1-3,0.1-4.5-0.2c-3.9-0.6-7.7-1.4-11.5-2   c-4.1-0.6-7.9-2-11.3-4.2c-3.5-2.3-6.5-5.2-9.9-7.6c-2.9-2-6.1-3.7-9.2-5.5c-1.6-0.9-3.2-1.8-5.2-2.9c0,2.4,0,4.4,0,6.4   c0,35.3,0,70.7,0,106c0,1.6,0,3.1,0.1,4.7c0,0.5,0.3,1.2,0.7,1.3c1.4,0.6,2.8,1.1,4.2,1.5c5.3,1.7,10.6,3.3,15.8,5.1   c4,1.3,7.9,2.7,11.8,4c4.2,1.4,8.5,2.6,12.7,4c5,1.6,9.9,3.4,14.8,5c5.6,1.9,11.3,3.6,16.9,5.4c6.3,2.1,12.6,4.4,18.9,6.5   c7.3,2.4,14.5,4.7,21.8,7.1c6.5,2.1,13.1,4.4,19.6,6.5c6.5,2.1,13,4.1,19.5,6.3c4.1,1.3,8.1,2.9,12.2,4.2c1.1,0.3,2.4,0.5,3.4,0.3   c3.5-0.9,7-2.1,10.4-3.2c2.5-0.8,5-1.6,7.5-2.4c3.6-1.2,7.2-2.4,10.8-3.6c2.6-0.8,5.2-1.6,7.8-2.5c2.8-0.9,5.5-1.9,8.3-2.8   c3.3-1.1,6.7-2.1,10.1-3.2c3.9-1.3,7.7-2.8,11.6-4.1c4.9-1.6,10-3.1,14.9-4.7c3.5-1.2,7-2.5,10.6-3.7c4-1.3,8-2.6,12-3.9   c3.6-1.2,7.2-2.4,10.8-3.6c3.4-1.1,6.9-2.3,10.3-3.4c3.7-1.2,7.4-2.5,11.2-3.7c3-1,6-1.8,9-2.8c5-1.6,9.9-3.4,14.9-5   c2.6-0.8,5.2-1.5,7.8-2.4c1.4-0.5,2.3-1.2,2.3-3c0-36.9,0-73.9,0-110.8c0-1.5,0-3.1,0-4.9C381.9,186.3,379.8,187.5,377.8,188.7z"
   id="path1"
   style="fill:#ffffff;fill-opacity:1" />
	<path
   d="M413.8,106.3c-0.1-0.3-0.4-0.7-0.7-0.9c-2.8-3-6.6-3.3-10.3-3.7c-4.1-0.5-8.2-0.4-12.3-0.4c-1.2,0-2.3,0.3-3.5,0.4   c-3.6,0.3-7.3,0.4-10.9,0.9c-3.8,0.5-7.5,1.3-11.2,2.1c-4.4,0.9-8.9,1.9-13.3,3c-4.3,1.1-8.5,2.4-12.7,3.9   c-5.3,1.8-10.5,3.6-15.7,5.8c-7.6,3.1-15.1,6.4-22.6,9.8c-6.9,3.1-13.7,6.4-20.5,9.8c-7.2,3.6-14.3,7.3-21.4,11.1   c-7.6,4.1-15.2,8.4-22.8,12.6c-0.9,0.5-1.3,1.2-0.4,2.2c1.5,1.8,3,3.6,4.3,5.5c0.6,0.9,1.1,1.2,2.1,1c2.6-0.6,5.2-1.1,7.8-1.6   c2-0.4,4-0.9,6-1.4c2.5-0.7,5-1.5,7.6-2.1c3.6-0.9,7.3-1.5,10.9-2.5c4.2-1.1,8.5-2.2,12.6-3.6c5.8-2,11.5-4.2,17.2-6.5   c4.5-1.8,8.9-4,13.5-5.4c4.7-1.4,9.6-2.4,14.5-3c4-0.6,8-0.7,12-0.6c3.8,0.1,7.7,0.5,11.4,1.2c4.6,0.9,9.2,1.9,13.6,3.4   c6.9,2.4,13.6,5.5,20.9,6.8c2.8,0.5,5.7,0.8,8.5,1.1c0.4,0,1.1,0,1.3-0.3c1-1.2,2-2.5,2.7-3.9c2.5-4.9,5.1-9.8,7.2-14.8   c1.7-3.8,3-7.9,4-11.9c0.8-3.1,0.9-6.4,1.3-10.1C414.7,111.6,414.3,108.9,413.8,106.3z"
   id="path2"
   style="fill:#ffffff;fill-opacity:1" />
	<path
   d="M60.6,146c3.8-1.1,7.6-2,11.5-2.5c5.6-0.7,11.2-1.2,16.8-1.1c7.3,0.1,14.4,1.5,21.3,4.1c5.5,2.1,11,4.4,16.5,6.6   c3.7,1.4,7.3,2.8,11,4.1c2.9,1,5.8,1.9,8.8,2.7c2.1,0.6,4.3,1.1,6.5,1.7c2.6,0.6,5.1,1.2,7.7,1.8c3.5,0.9,6.9,1.8,10.4,2.7   c2.9,0.7,5.7,1.5,8.6,2.1c2,0.4,4,0.7,6.1,0.9c0.5,0.1,1.2-0.3,1.6-0.7c1.4-1.7,2.6-3.5,4.1-5.2c0.7-0.8,0.6-1.2-0.2-1.7   c-1.6-1.1-3-2.5-4.7-3.5c-6.1-3.5-12.3-7-18.6-10.3c-7.5-4-15-7.8-22.7-11.5c-9.1-4.4-18.3-8.7-27.6-12.9c-5.8-2.6-11.7-5-17.6-7.4   c-3.9-1.6-7.9-3.1-11.9-4.5c-3.8-1.3-7.6-2.4-11.4-3.5c-3.1-0.9-6.2-1.8-9.4-2.5c-2.9-0.7-5.9-1-8.8-1.6c-2.7-0.5-5.3-1.1-8-1.4   c-4.9-0.6-9.8-1-14.7-1.3c-2.3-0.2-4.6-0.1-6.9,0.1c-3,0.3-6,0.7-9,1.2c-1.8,0.3-3.6,0.8-5.1,1.8c-1,0.7-1.9,2.3-2,3.6   c-0.3,2.7-0.1,5.4-0.1,8.1c0,0,0.1,0,0.1,0c0,2.1-0.3,4.2,0.1,6.2c0.6,3,1.5,5.9,2.4,8.8c0.8,2.6,1.6,5.4,2.8,7.8   c2.4,4.8,5,9.5,7.7,14.1c0.6,1,1.8,2,2.9,2.4c0.9,0.3,2.1-0.2,3.2-0.5c5.8-1.5,11.6-3,17.3-4.7C53.2,148.8,56.8,147.1,60.6,146z"
   id="path3"
   style="fill:#ffffff;fill-opacity:1" />
	<path
   d="M66.7,189.1c5,4.3,10.5,7.3,17.2,7.8c1.9,0.1,3.7,0.1,5.6,0.1c0.3,0,0.7,0.1,1,0.1c1.2,0.2,2.3,0.5,3.5,0.6   c6.3,0.2,12.6,0.3,18.8,0.5c1.8,0,3.7,0.1,5.5,0.3c4.2,0.4,8.4,1.2,12.6,1.3c5.2,0.2,10.3,0,15.5-0.3c3.2-0.2,6.4-0.7,9.5-1.2   c2.9-0.5,5.8-1.3,8.6-2.1c2.8-0.7,5.5-1.5,8.2-2.4c3.6-1.2,7.1-2.4,10.6-3.7c0.8-0.3,2-0.7,1.3-1.7c-1.7-2.6-1.7-5.5-1.8-8.4   c0-1.4-0.7-2.1-1.8-2.4c-1.3-0.4-2.6-0.6-3.9-1c-3.6-0.9-7.2-1.9-10.9-2.8c-3.4-0.9-6.8-1.6-10.2-2.5c-2.6-0.6-5.3-1.3-7.9-2   c-2.7-0.7-5.4-1.2-8.1-1.9c-2.8-0.8-5.7-1.6-8.5-2.6c-3.2-1.1-6.3-2.2-9.4-3.5c-5-2.1-9.9-4.5-15-6.4c-3.5-1.3-7.1-2.2-10.8-3   c-3.5-0.7-7.1-1.2-10.6-1.3c-2.8-0.1-5.6,0.3-8.4,0.7c-3.1,0.4-6.2,0.8-9.2,1.7c-3.8,1.2-7.5,2.8-11.3,4.3   c-6.9,2.6-13.9,4.9-21.6,6.4c0.5,0.8,0.7,1.7,1.3,2.3c6.1,6.4,13.1,11.5,20.6,16.2C60.5,184.1,63.7,186.5,66.7,189.1z"
   id="path4"
   style="fill:#ffffff;fill-opacity:1" />
	<path
   d="M390.2,163.3c-2.7-0.5-5.4-0.9-8-1.7c-5.6-1.9-11.1-4.3-16.7-6.2c-4.4-1.5-8.8-3-13.3-4c-3.3-0.7-6.8-0.7-10.6-1   c-3.1,0.4-6.6,0.5-10,1.2c-3.4,0.6-6.9,1.5-10.1,2.7c-4.4,1.6-8.7,3.5-13,5.4c-2.9,1.2-5.6,2.6-8.5,3.6c-3.3,1.2-6.8,2.2-10.2,3.2   c-3.4,1-6.7,2-10.1,2.8c-2.6,0.6-5.3,0.9-7.9,1.6c-4.5,1.1-9,2.4-13.5,3.6c-4.1,1-8.1,2.1-12.2,3c-1.6,0.4-2.1,1.6-1.8,2.8   c0.6,2.5-0.4,4.7-1.1,6.8c-0.6,2.1-0.8,2.3,1.4,3.1c0.5,0.2,1,0.5,1.6,0.7c5.1,1.6,10.2,3.4,15.3,4.8c4.5,1.3,9,2.5,13.5,3.2   c4.5,0.7,9.1,0.8,13.7,1c2.3,0.1,4.6-0.1,6.9-0.2c3.8-0.2,7.6-0.4,11.4-0.7c4-0.3,7.9-1.1,11.9-1.3c6.5-0.3,13-0.3,19.6-0.6   c3-0.1,6-0.5,9-0.9c3.7-0.6,7-2.3,10-4.5c4.1-3.1,8-6.4,12.1-9.5c2.3-1.7,4.8-3.1,7.1-4.8c3.5-2.7,6.8-5.7,10.1-8.5   c1.4-1.2,2.9-2.4,4.2-3.8C391.6,164.3,391.7,163.5,390.2,163.3z"
   id="path5"
   style="fill:#ffffff;fill-opacity:1" />
	<path
   d="M231.3,175.7c-0.7-3.9-3-6.8-5.8-9.3c-3-2.7-6.9-3.6-10.8-3.8c-5.5-0.3-10.5,1.2-14.5,5.2c-2.5,2.5-4.1,5.6-4.6,9   c-0.5,3.5-0.6,7.1,0.7,10.7c0.9,2.6,1.3,5.4,2,8.1c0.4,1.3,1,2.4,2.7,2.3c0.4,0,0.8,0.2,1.2,0.3c3,0.6,6,1.5,9.1,1.7   c3.1,0.2,6.2-0.2,9.2-0.7c2.3-0.3,4.6-1.2,6.9-1.8c1.8-0.5,2.1-1.8,2.2-3.4c0.1-1.6,0.5-3.2,0.8-4.8c0.6-2.7,1.4-5.4,2.1-8.1   C232.1,179.1,231.6,177.4,231.3,175.7z"
   id="path6"
   style="fill:#ffffff;fill-opacity:1" />
	<path
   d="M127.4,221c-2.1-3.2-3.4-6.8-3.8-10.6c-0.2-1.9-0.9-2.6-2.9-2.7c-3.6-0.2-7.1-0.4-10.7-0.7c-1.5-0.1-2,0.2-2.1,1.8   c-0.2,3.5,1,6.6,2.2,9.8c1.9,5.1,5.3,9.2,9,13c3.8,4.1,8.4,7.1,13.6,8.9c3,1,6.1,2.1,9.2,2.3c3.3,0.2,6.6,0.4,10-0.5   c3.9-1.1,7.6-2.5,10.8-4.9c5.8-4.4,11.1-9.3,16-15.2c-1.8-0.9-3.5-1.7-5.2-2.4c-0.4-0.2-1.2,0-1.6,0.3c-1.6,1.4-3,3-4.6,4.5   c-3.9,3.6-8.3,6.2-13.6,7.4c-5.2,1.2-10,0.4-14.8-1.2C134.1,228.9,130.3,225.3,127.4,221z"
   id="path7"
   style="fill:#ffffff;fill-opacity:1" />
	<path
   d="M289.5,91.8c-1.1,1-1.7,2.2-1.1,3.7c0.7,1.6,2.7,3.1,4.3,3.4c1.1-0.6,2.4-0.9,3.3-1.8c2.4-2.1,4.6-4.4,6.9-6.6   c6.3-5.7,12.7-11.3,19-17.1c4.9-4.5,9.7-9.2,14.5-13.8c5.1-4.8,10.3-9.4,15.3-14.2c0.6-0.5,1-1.6,0.9-2.4c-0.2-3-3.9-5-6.4-3.3   c-2.4,1.6-4.6,3.7-6.8,5.7c-4.7,4.3-9.3,8.6-14,12.9c-6.6,6-13.3,12-19.9,18C300.2,81.5,294.9,86.7,289.5,91.8z"
   id="path8"
   style="fill:#ffffff;fill-opacity:1" />
	<path
   d="M89.3,58.3c6.4,5.9,12.8,11.8,19.2,17.7c5.7,5.3,11.3,10.6,17,16c0.9,0.9,1.7,1.8,2.7,2.7c1.2,1.2,2.5,2.4,3.8,3.4   c1.7,1.2,4.7,0.2,6.3-1.9c0.8-1,0.3-3.1-1-4.4c-3.7-3.6-7.3-7.2-11-10.8c-6.7-6.4-13.5-12.7-20.3-19C98.9,55.5,92,48.9,85,42.4   c-1.6-1.5-3.3-3.3-5.7-3.1c-1.8-0.1-3.8,0.8-4.3,1.9c-0.7,1.5-0.3,3.5,1.1,4.8C80.5,50.1,84.9,54.2,89.3,58.3z"
   id="path9"
   style="fill:#ffffff;fill-opacity:1" />
	<path
   d="M330,94.7c-1.6,0.8-3.3,1.5-4.8,2.5c-1.4,0.8-1.9,2.7-1.2,4.3c0.6,1.4,1.7,2.4,3.5,2.5c0.8-0.1,1.8-0.1,2.6-0.4   c5-2.2,9.9-4.5,14.8-6.8c4-1.9,8-3.9,12-5.7c6.9-3.2,13.9-6.3,20.8-9.4c7.7-3.6,15.4-7.2,23.1-10.8c1.4-0.6,2.8-3.1,2.4-4.2   c-0.6-1.7-4.1-3.8-5.6-3.2c-3,1.3-5.9,2.5-8.9,3.9c-6.1,2.9-12.2,5.8-18.3,8.7c-8.2,3.8-16.3,7.6-24.5,11.4   C340.6,89.8,335.3,92.3,330,94.7z"
   id="path10"
   style="fill:#ffffff;fill-opacity:1" />
	<path
   d="M209.5,79c0,3.1,1.2,4.6,4.2,5.2c1.9,0.4,4.3-1,4.5-2.9c0.3-2.4,0.2-4.8,0.2-7.2c0-15,0-29.9,0.1-44.9   c0-5.1-0.1-10.2,0.4-15.2c0.4-3.6-2.2-7.2-6.3-6.4c-1.2,0.2-3.1,2-3.1,3.2c0,1.4,0,2.8,0,4.1c0,10.2,0,20.5,0,30.7c0,0,0,0,0,0   C209.5,56.8,209.5,67.9,209.5,79z"
   id="path11"
   style="fill:#ffffff;fill-opacity:1" />
	<path
   d="M28,71.4c3.1,1.4,6.2,2.9,9.3,4.3c5.7,2.6,11.5,5.2,17.2,7.9c7.4,3.5,14.8,7,22.2,10.5c5.1,2.4,10.1,5,15.2,7.3   c2.2,1,4.5,1.9,6.9,2.4c2.5,0.6,4.8-1.2,4.8-2.6c0.2-2.9-1.5-3.8-3.1-4.6c-6.1-3-12.3-5.9-18.4-8.8c-6.7-3.2-13.5-6.4-20.2-9.6   c-7.5-3.5-15-6.9-22.5-10.3c-3.4-1.5-6.9-2.9-10.3-4.4c-1.5-0.6-2.5,0.1-3.3,1.1c-0.6,0.8-1.2,1.9-1.1,2.8   C25,69.3,26.2,70.6,28,71.4z"
   id="path12"
   style="fill:#ffffff;fill-opacity:1" />
	<path
   d="M242.1,86.4c1.9,0,3-0.6,4-2.4c0.5-1,0.8-2.1,1.2-3.2c0.5-1.4,1-2.9,1.4-4.3c0.4-1.6,0.7-3.2,1.1-4.8   c0.3-1.1,0.6-2.1,1-3.2c0.5-1.5,1.1-3,1.5-4.6c0.7-2.5,1.3-5.1,2-7.7c0.7-2.6,1.6-5.3,2.4-7.9c0.4-1.3,0.7-2.5,1.1-3.8   c0.5-1.4,1.1-2.8,1.5-4.2c0.8-3,1.6-6.1,2.4-9.1c0.4-1.6,0.9-3.3,1.2-5c0.5-2.6,0-3.6-1.9-4.5c-2.2-1.1-4-0.9-5.6,0.8   c-1.4,1.5-1.8,3.4-2.3,5.4c-0.9,3.7-2.2,7.2-3.3,10.9c-1.3,4.5-2.4,9-3.7,13.4c-1.3,4.6-2.7,9.1-4.1,13.6c-0.3,1.1-0.6,2.2-0.9,3.3   c-0.8,2.9-1.7,5.8-2.4,8.7c-0.4,1.6-0.9,3.2-1,4.8C237.5,84.3,240.2,86.4,242.1,86.4z"
   id="path13"
   style="fill:#ffffff;fill-opacity:1" />
	<path
   d="M165.8,31.2c0.7,2.6,1.2,5.2,1.9,7.7c0.4,1.5,1,2.8,1.5,4.3c0.4,1.2,0.7,2.4,1,3.6c0.6,2.3,1.2,4.7,1.9,7   c1,3.5,2.2,7,3.2,10.5c0.7,2.4,1.3,4.9,2,7.3c0.8,2.8,1.7,5.6,2.5,8.4c0.7,2.4,1.3,4.9,4,6c2.5,1.1,5.6-0.6,5.5-3.3   c-0.1-2.2-0.7-4.5-1.2-6.7c-0.6-2.4-1.6-4.8-2.3-7.2c-1-3.6-1.8-7.2-2.8-10.8c-1-3.5-2.3-6.9-3.3-10.3c-1-3.5-1.9-7.1-2.8-10.6   c-0.3-1.1-0.7-2.3-1-3.4c-0.5-1.8-0.9-3.5-1.5-5.3c-0.6-1.8-1.1-3.7-1.9-5.4c-0.8-1.7-3.5-2.4-5.5-2c-1.4,0.3-2.8,2.2-3.1,4   c0.2,0.8,0.5,1.6,0.7,2.4C165,28.8,165.5,30,165.8,31.2z"
   id="path14"
   style="fill:#ffffff;fill-opacity:1" />
	<path
   d="M232,234.5c-0.2-1.5-0.5-2.9-0.7-4.4c-0.3-2-0.4-4.1-0.7-6.1c-0.1-0.4-0.6-1-0.9-1c-1.2,0.1-2.4,0.3-3.6,0.5   c-2.5,0.4-4.9,1.1-7.4,1.2c-3.5,0.2-7,0.1-10.5,0c-0.6,0-1.3,0-1.9-0.1c-2.6-0.4-5.3-0.8-7.9-1.4c-1.1-0.2-1.5,0.3-1.6,1.2   c-0.2,1.7-0.3,3.3-0.4,5c-0.1,1.8,0.2,3.6-0.2,5.3c-0.5,1.8,0.3,2.3,1.7,2.5c1.7,0.3,3.5,0.7,5.2,1c3.6,0.6,7.2,1.2,10.8,1.7   c0-0.1,0-0.1,0-0.2c1.3-0.1,2.5,0,3.8-0.2c4-0.7,7.9-1.4,11.9-2.1C231.8,237.2,232.2,236.8,232,234.5z"
   id="path15"
   style="fill:#ffffff;fill-opacity:1" />
	<path
   d="M226.8,264c-2.9,0.6-5.8,1-8.7,1.4c-1.5,0.2-3,0.4-4.6,0.6c-0.4,0.1-0.9,0.1-1.4,0c-4.2-0.6-8.4-1.3-12.7-1.8   c-0.4,0-1.2,0.5-1.2,0.7c0.2,1.4,0.4,2.9,1,4.3c1.2,3.1,2.5,6.1,3.9,9.1c2.3,4.6,5.4,8.6,9.7,11.4c0.4,0.3,1.3,0.2,1.8-0.1   c3.3-2.1,5.5-5.3,7.7-8.4c2.5-3.5,3.8-7.6,5.2-11.6c0.5-1.3,0.8-2.7,1.1-3.7C228.7,263.9,228.3,263.8,226.8,264z"
   id="path16"
   style="fill:#ffffff;fill-opacity:1" />
	<path
   d="M278.7,72.9c2,0.4,3.3-0.8,4.3-2.1c2.7-3.5,5.3-7.1,7.9-10.7c1.6-2.2,3-4.4,4.6-6.6c2.5-3.4,5-6.8,7.5-10.1   c1.9-2.6,3.9-5.1,6-7.6c1.4-1.7,1.5-3.9,0-5.4c-1.6-1.6-5.6-2-6.7-0.6c-2.3,2.9-4.6,5.9-6.8,8.8c-4.3,5.9-8.6,11.8-13,17.7   c-2.5,3.4-5,6.7-7.4,10c-0.9,1.2-1.5,2.7-0.6,3.8C275.5,71.6,276.4,73.5,278.7,72.9z"
   id="path17"
   style="fill:#ffffff;fill-opacity:1" />
	<path
   d="M120.6,38.2c2.9,4.1,5.9,8,8.8,12.1c4.6,6.3,9,12.7,13.6,19c1.2,1.7,2.4,3.7,5.4,3.6c2.7,0.1,4.8-2.3,4-5.2   c-0.2-0.8-0.7-1.5-1.2-2.2c-2.6-3.6-5.3-7.1-7.8-10.7c-5.5-7.8-10.9-15.6-16.4-23.4c-1.7-2.4-5.2-4.1-8.2-1.1   c-1.2,1.2-1.4,2.5-0.6,4C119,35.6,119.8,36.9,120.6,38.2z"
   id="path18"
   style="fill:#ffffff;fill-opacity:1" />
	<path
   d="M231.1,254.1c0.1-3.1,0-6.3,0-9.9c-2.5,0.4-4.8,0.9-7,1.2c-2.1,0.4-4.2,1-6.2,1c-4.5-0.1-9,0.5-13.5-0.5   c-2.1-0.5-4.2-0.7-6.3-1.3c-1.4-0.4-1.9-0.2-1.9,1.4c0.1,2.9,0.2,5.9,0.4,8.8c0,0.5,0.4,1.3,0.8,1.5c1.9,0.6,3.9,1.2,5.9,1.6   c2.1,0.4,4.2,0.5,6.2,1.1c4.5,1.3,8.9,0,13.4-0.6c1.8-0.2,3.6-0.9,5.5-1.2C230.3,256.7,231.1,256.2,231.1,254.1z"
   id="path19"
   style="fill:#ffffff;fill-opacity:1" />
	<path
   d="M219.7,155.5c0.6,0.1,1.1,0.1,1.7,0.2c2.1,0.5,2.6,0.1,3.7-1.7c1.9-2.9,3.6-6,6-8.5c1.8-1.9,4.4-3.1,6.8-4.2   c3.1-1.3,6.3-2.1,9.5-3.1c2.5-0.8,5-1.5,7.5-2.2c3.1-0.8,6.2-1.4,9.2-2.4c1.2-0.4,2.3-1.4,2.1-3c0-1.9-2.7-4-4.5-3.5   c-3.9,1-7.8,2-11.8,3.1c-4.5,1.2-9.1,2.2-13.5,3.7c-3.2,1.1-6.5,2.6-9.2,4.6c-4.7,3.5-8.5,7.8-9.2,14.1   C217.9,154.4,218.1,155.2,219.7,155.5z"
   id="path20"
   style="fill:#ffffff;fill-opacity:1" />
	<path
   d="M162.9,133.8c3.6,1.1,7.2,2,10.8,3c4.4,1.2,8.9,2.4,13.3,3.8c6.6,2,11.3,6.4,14.5,12.5c2,3.7,1.3,3.8,5.4,2.6   c1.4-0.4,2-1.4,2-2.7c0-1.3-0.2-2.7-0.8-3.8c-3.8-7.7-10-12.7-18.1-15.3c-3.1-1-6.2-1.7-9.3-2.5c-2.6-0.7-5.3-1.3-7.9-2   c-2.3-0.6-4.6-1.2-6.9-1.8c-0.6-0.2-1.3-0.4-1.9-0.5c-1.6,0.2-3.3,1.2-3.5,2.3C160.3,131.3,161.2,133.3,162.9,133.8z"
   id="path21"
   style="fill:#ffffff;fill-opacity:1" />
	<path
   d="M206.7,217.9c3.5,0.3,7-0.1,10.5,0.1c4,0.2,7.6-1.2,11.4-1.8c1.9-0.3,2-0.8,1.3-2.6c-0.8-2.2-1.5-4.4-2.1-6.7   c-0.5-2-1.1-2.3-3.1-2c-3.5,0.6-7.1,1.2-10.7,1.2c-4.6,0-9.2-0.6-14.1-1c-0.7,3.2-1.5,6.7-2.3,10.2c1,0.4,1.9,0.7,2.7,1   C202.5,216.9,204.6,217.7,206.7,217.9z"
   id="path22"
   style="fill:#ffffff;fill-opacity:1" />
	<path
   d="M151.4,223c2.1-0.6,4.1-1.5,5.6-3.1c0.8-0.9,1.3-3.8,0.6-4.6c-1.6-2-3-4.4-6.2-4.1c-1.3,0.2-2.9,0.1-4,0.7   c-3.3,1.8-4.2,4.6-2.6,7.9C145.7,221.5,150.1,223.4,151.4,223z"
   id="path23"
   style="fill:#ffffff;fill-opacity:1" />
	<path
   d="M281.6,220.2c1.2-1.4,1.5-3.1,0.9-4.6c-1.2-2.8-3.5-4.4-6.8-4.6c-1.2,0.4-2.6,0.5-3.7,1.1c-3.1,1.6-4,4.7-2.5,7.1   C271.9,223.2,277.9,224.5,281.6,220.2z"
   id="path24"
   style="fill:#ffffff;fill-opacity:1" />
	<path
   d="M187.5,206.4c-0.2-0.1-0.3-0.3-0.5-0.4c-2.7,2.5-5.4,5.1-8.3,7.8c2,0.9,3.6,1.7,5.4,2.5   C185.1,213.1,186.3,209.8,187.5,206.4z"
   id="path25"
   style="fill:#ffffff;fill-opacity:1" />
	<path
   d="M254.4,219.9c-0.3-0.3-1.1-0.5-1.6-0.3c-1.7,0.7-3.4,1.6-5.2,2.4c4.9,5.9,10.2,10.8,16,15.2c3.2,2.4,6.9,3.8,10.8,4.9   c3.4,0.9,6.7,0.7,10,0.5c3.1-0.2,6.2-1.3,9.2-2.3c5.2-1.8,9.8-4.8,13.6-8.9c3.6-3.9,7.1-8,9-13c1.1-3.1,2.4-6.2,2.2-9.8   c-0.1-1.6-0.6-1.9-2.1-1.8c-3.5,0.3-7.1,0.5-10.7,0.7c-1.9,0.1-2.7,0.8-2.9,2.7c-0.4,3.8-1.7,7.4-3.8,10.6c-2.9,4.4-6.7,8-11.7,9.6   c-4.7,1.6-9.6,2.4-14.8,1.2c-5.4-1.2-9.7-3.8-13.6-7.4C257.4,223,255.9,221.4,254.4,219.9z"
   id="path26"
   style="fill:#ffffff;fill-opacity:1" />
	<path
   d="M239.1,206.4c1.2,3.3,2.3,6.7,3.4,9.9c1.8-0.8,3.4-1.6,5.4-2.5c-2.9-2.8-5.6-5.3-8.3-7.8   C239.4,206.1,239.2,206.3,239.1,206.4z"
   id="path27"
   style="fill:#ffffff;fill-opacity:1" />
</g>
<g
   id="g36"
   style="fill:#ffffff;fill-opacity:1">
	<polygon
   points="461.9,230 460.1,282.6 453.5,282.6 451.6,230 442.1,186.3 403.1,186.3 403.1,205.4 428,205.4 434.2,267.6    443,301.6 469.8,301.6 479.4,267.6 485.5,205.4 510.4,205.4 510.4,186.3 471.5,186.3  "
   id="polygon27"
   style="fill:#ffffff;fill-opacity:1" />
	<polygon
   points="488.1,266.1 488.1,301.6 510.4,301.6 510.4,212 491.5,212  "
   id="polygon28"
   style="fill:#ffffff;fill-opacity:1" />
	<polygon
   points="403.1,212 403.1,301.6 425.4,301.6 425.4,266.1 422,212  "
   id="polygon29"
   style="fill:#ffffff;fill-opacity:1" />
	<path
   d="M523.7,213.7c-0.1,5.4-0.2,10.6-0.2,15.5c0,5-0.1,9.9-0.1,14.7c0,4.8,0,9.7,0.1,14.6c0,4.9,0.1,10.1,0.2,15.6   c0.2,9.7,2.5,16.7,6.7,21.3c4.2,4.5,11.1,7,20.7,7.6v-18.1c-1.8-0.6-3.2-1.6-4.1-3.2c-0.9-1.6-1.4-3.7-1.4-6.4   c-0.2-5.3-0.4-10.5-0.5-15.7c-0.1-5.2-0.2-10.4-0.2-15.6s0.1-10.4,0.2-15.6c0.1-5.2,0.3-10.5,0.5-15.7c0-2.7,0.5-4.8,1.4-6.3   c0.9-1.5,2.2-2.6,4.1-3.1V185c-9.6,0.5-16.4,3-20.7,7.5C526.1,197.1,523.9,204.1,523.7,213.7z"
   id="path29"
   style="fill:#ffffff;fill-opacity:1" />
	<path
   d="M587.2,213.7c-0.3-9.5-2.6-16.5-6.8-21c-4.2-4.5-10.9-7-20-7.7v18c1.9,0.6,3.2,1.6,4.1,3.2c0.9,1.5,1.3,3.7,1.4,6.3   c0.2,5.2,0.4,10.5,0.6,15.7c0.1,5.2,0.2,10.4,0.2,15.6s-0.1,10.4-0.2,15.6c-0.1,5.2-0.3,10.5-0.6,15.7c0,2.7-0.5,4.9-1.4,6.4   c-0.9,1.6-2.2,2.6-4.1,3.2v18c9.2-0.6,15.8-3.2,20-7.7c4.2-4.5,6.4-11.5,6.8-21.1c0.2-5.4,0.4-10.5,0.5-15.5   c0.1-4.9,0.1-9.8,0.1-14.6s0-9.7-0.1-14.7C587.6,224.3,587.4,219.1,587.2,213.7z"
   id="path30"
   style="fill:#ffffff;fill-opacity:1" />
	<rect
   x="593"
   y="186.3"
   width="61.5"
   height="19"
   id="rect30"
   style="fill:#ffffff;fill-opacity:1" />
	<rect
   x="613.1"
   y="212"
   width="21.6"
   height="89.6"
   id="rect31"
   style="fill:#ffffff;fill-opacity:1" />
	<polygon
   points="684.1,186.3 662.5,186.3 662.5,301.6 684.1,301.6 684.1,252.5 692.4,252.5 697.5,233.4 684.1,233.4  "
   id="polygon31"
   style="fill:#ffffff;fill-opacity:1" />
	<rect
   x="702.1"
   y="186.3"
   width="21.6"
   height="115.3"
   id="rect32"
   style="fill:#ffffff;fill-opacity:1" />
	<path
   d="M797,251.7c-2.1-3.1-5.3-5.4-9.7-6.9v-3.5c4.3-1.4,7.4-3.7,9.5-6.8c2-3.1,3.2-7.3,3.5-12.5c0.1-1.2,0.1-2.5,0.1-3.7   c0-1.2,0-2.5,0-3.9c0-10-2.5-17.2-7.4-21.6c-4.9-4.3-12.8-6.5-23.6-6.5h-0.1v19h0.1c3,0,5.3,0.7,7,2.1c1.6,1.4,2.4,3.3,2.4,5.9   c0,1.3,0,2.7,0,4.1c0,1.4,0,2.8,0,4.1c0,3.8-0.8,6.7-2.4,8.8c-1.6,2.1-3.9,3.1-7,3.1h-0.1v19h0.1c3.3,0,5.7,1,7.2,3   c1.5,2,2.2,5.4,2.2,10.1c0,1.3,0,2.6,0,3.8c0,1.2,0,2.5,0,3.8c0,3-0.8,5.3-2.4,7c-1.6,1.6-3.9,2.4-7,2.4h-0.1v19h0.1   c10.8,0,18.5-2.2,23.2-6.6c4.7-4.4,7.3-11.5,7.7-21.5c0.1-1.7,0.1-3.2,0.1-4.5c0-1.3,0-2.8-0.1-4.4   C800.2,259.1,799,254.9,797,251.7z"
   id="path32"
   style="fill:#ffffff;fill-opacity:1" />
	<rect
   x="738.1"
   y="186.3"
   width="21.6"
   height="115.3"
   id="rect33"
   style="fill:#ffffff;fill-opacity:1" />
	<path
   d="M811.2,213.7c-0.1,5.4-0.2,10.6-0.2,15.5c0,5-0.1,9.9-0.1,14.7c0,4.8,0,9.7,0.1,14.6c0,4.9,0.1,10.1,0.2,15.6   c0.2,9.7,2.5,16.7,6.7,21.3c4.2,4.5,11.1,7,20.7,7.6v-18.1c-1.8-0.6-3.2-1.6-4.1-3.2c-0.9-1.6-1.4-3.7-1.4-6.4   c-0.2-5.3-0.4-10.5-0.5-15.7c-0.1-5.2-0.2-10.4-0.2-15.6s0.1-10.4,0.2-15.6c0.1-5.2,0.3-10.5,0.5-15.7c0-2.7,0.5-4.8,1.4-6.3   c0.9-1.5,2.2-2.6,4.1-3.1V185c-9.6,0.5-16.4,3-20.7,7.5C813.7,197.1,811.5,204.1,811.2,213.7z"
   id="path33"
   style="fill:#ffffff;fill-opacity:1" />
	<path
   d="M874.8,213.7c-0.3-9.5-2.6-16.5-6.8-21c-4.2-4.5-10.9-7-20-7.7v18c1.9,0.6,3.2,1.6,4.1,3.2c0.9,1.5,1.3,3.7,1.4,6.3   c0.2,5.2,0.4,10.5,0.6,15.7c0.1,5.2,0.2,10.4,0.2,15.6s-0.1,10.4-0.2,15.6c-0.1,5.2-0.3,10.5-0.6,15.7c0,2.7-0.5,4.9-1.4,6.4   c-0.9,1.6-2.2,2.6-4.1,3.2v18c9.2-0.6,15.8-3.2,20-7.7c4.2-4.5,6.4-11.5,6.8-21.1c0.2-5.4,0.4-10.5,0.5-15.5   c0.1-4.9,0.1-9.8,0.1-14.6s0-9.7-0.1-14.7C875.2,224.3,875,219.1,874.8,213.7z"
   id="path34"
   style="fill:#ffffff;fill-opacity:1" />
	<polygon
   points="926.8,233 910.4,233 908.5,213.3 901.1,186.3 879.9,186.3 900.9,252 916.2,252 918.1,273.2 925.7,301.6    946.9,301.6  "
   id="polygon34"
   style="fill:#ffffff;fill-opacity:1" />
	<polygon
   points="946.4,186.3 925.3,186.3 918.1,213.3 917,226.4 933.8,226.4  "
   id="polygon35"
   style="fill:#ffffff;fill-opacity:1" />
	<polygon
   points="879.4,301.6 900.6,301.6 908.5,273.2 909.6,258.7 893.7,258.7  "
   id="polygon36"
   style="fill:#ffffff;fill-opacity:1" />
</g>
</svg>
