%TF.GenerationSoftware,KiCad,Pcbnew,9.0.2*%
%TF.CreationDate,2025-07-08T20:16:39+08:00*%
%TF.ProjectId,Mothbeam,4d6f7468-6265-4616-9d2e-6b696361645f,rev?*%
%TF.SameCoordinates,Original*%
%TF.FileFunction,Profile,NP*%
%FSLAX46Y46*%
G04 Gerber Fmt 4.6, Leading zero omitted, Abs format (unit mm)*
G04 Created by KiCad (PCBNEW 9.0.2) date 2025-07-08 20:16:39*
%MOMM*%
%LPD*%
G01*
G04 APERTURE LIST*
%TA.AperFunction,Profile*%
%ADD10C,0.050000*%
%TD*%
%TA.AperFunction,Profile*%
%ADD11C,0.100000*%
%TD*%
G04 APERTURE END LIST*
D10*
X10614656Y32052468D02*
G75*
G02*
X11619780Y33049735I1000044J-2768D01*
G01*
D11*
X11890000Y70010000D02*
G75*
G02*
X12390000Y69510000I0J-500000D01*
G01*
X-5762563Y68262600D02*
X-5762563Y26249184D01*
X-110000Y70010000D02*
X-1360000Y70010000D01*
X-110000Y70010000D02*
G75*
G02*
X390000Y69510000I0J-500000D01*
G01*
D10*
X19250000Y70000000D02*
X17140000Y70010000D01*
X250000Y25000000D02*
X-4512500Y25000000D01*
D11*
X21000000Y67250000D02*
X21000000Y68250000D01*
X250000Y25000000D02*
X8000000Y25000000D01*
D10*
X20392317Y25099580D02*
G75*
G02*
X19892286Y25597231I83J500120D01*
G01*
D11*
X15390000Y69510000D02*
G75*
G02*
X15890000Y70010000I500000J0D01*
G01*
X3390000Y69510000D02*
G75*
G02*
X390000Y69510000I-1500000J0D01*
G01*
D10*
X18868189Y33049708D02*
G75*
G02*
X19862265Y32008216I-5189J-1000108D01*
G01*
D11*
X15390000Y69510000D02*
G75*
G02*
X12390000Y69510000I-1500000J0D01*
G01*
D10*
X10598196Y26002127D02*
G75*
G02*
X9603839Y25004816I-999996J2673D01*
G01*
X-4512500Y25012563D02*
X-4512500Y25000000D01*
X20997069Y25098593D02*
X20392317Y25099580D01*
D11*
X3390000Y69510000D02*
G75*
G02*
X3890000Y70010000I500000J0D01*
G01*
D10*
X21000000Y26000000D02*
X20997069Y25098593D01*
X11623431Y33049708D02*
X18868189Y33049708D01*
D11*
X15890000Y70010000D02*
X17140000Y70010000D01*
D10*
X8000000Y25000000D02*
X9607895Y25004848D01*
D11*
X3890000Y70010000D02*
X11890000Y70010000D01*
X19250000Y70000000D02*
G75*
G02*
X21000000Y68250000I0J-1750000D01*
G01*
D10*
X-1360000Y70010000D02*
X-4221912Y70000000D01*
X19862278Y31998240D02*
X19892322Y25597231D01*
D11*
X21000000Y26000000D02*
X21000000Y67250000D01*
D10*
X10598196Y26002127D02*
X10614656Y32052468D01*
D11*
X-4512500Y25012563D02*
G75*
G02*
X-5762564Y26249184I0J1250137D01*
G01*
X-5762563Y68262600D02*
G75*
G02*
X-4221912Y70000000I1749963J0D01*
G01*
M02*
