0
SECTION
2
HEADER
9
$INSUNITS
70
4
9
$ACADVER
1
AC1014
9
$HANDSEED
5
FFFF
0
ENDSEC
0
SECTION
2
TABLES
0
TABLE
2
VPORT
5
8
100
AcDbSymbolTable
0
ENDTAB
0
TABLE
2
LTYPE
5
5
100
AcDbSymbolTable
70
2
0
LTYPE
5
14
100
AcDbSymbolTableRecord
100
AcDbLinetypeTableRecord
2
BYBLOCK
70
0
0
LTYPE
5
15
100
AcDbSymbolTableRecord
100
AcDbLinetypeTableRecord
2
BYLAYER
70
0
0
ENDTAB
0
TABLE
2
LAYER
5
2
100
AcDbSymbolTable
70
3
0
LAYER
5
50
100
AcDbSymbolTableRecord
100
AcDbLayerTableRecord
2
0
70
0
6
CONTINUOUS
0
LAYER
5
51
100
AcDbSymbolTableRecord
100
AcDbLayerTableRecord
2
CUTOUTS
70
0
62
1
6
CONTINUOUS
0
LAYER
5
52
100
AcDbSymbolTableRecord
100
AcDbLayerTableRecord
2
PERIMETER
70
0
62
5
6
CONTINUOUS
0
ENDTAB
0
TABLE
2
STYLE
5
3
100
AcDbSymbolTable
70
1
0
STYLE
5
11
100
AcDbSymbolTableRecord
100
AcDbTextStyleTableRecord
2
STANDARD
70
0
0
ENDTAB
0
TABLE
2
VIEW
5
6
100
AcDbSymbolTable
0
ENDTAB
0
TABLE
2
UCS
5
7
100
AcDbSymbolTable
0
ENDTAB
0
TABLE
2
APPID
5
9
100
AcDbSymbolTable
70
1
0
APPID
5
12
100
AcDbSymbolTableRecord
100
AcDbRegAppTableRecord
2
ACAD
70
0
0
ENDTAB
0
TABLE
2
DIMSTYLE
5
A
100
AcDbSymbolTable
0
ENDTAB
0
TABLE
2
BLOCK_RECORD
5
1
100
AcDbSymbolTable
70
2
0
BLOCK_RECORD
5
1F
100
AcDbSymbolTableRecord
100
AcDbBlockTableRecord
2
*MODEL_SPACE
0
BLOCK_RECORD
5
1B
100
AcDbSymbolTableRecord
100
AcDbBlockTableRecord
2
*PAPER_SPACE
0
ENDTAB
0
ENDSEC
0
SECTION
2
BLOCKS
0
BLOCK
5
20
100
AcDbEntity
100
AcDbBlockBegin
2
*MODEL_SPACE
0
ENDBLK
5
21
100
AcDbEntity
100
AcDbBlockEnd
0
BLOCK
5
1C
100
AcDbEntity
100
AcDbBlockBegin
2
*PAPER_SPACE
0
ENDBLK
5
1D
100
AcDbEntity
100
AcDbBlockEnd
0
ENDSEC
0
SECTION
2
ENTITIES
0
CIRCLE
5
100
100
AcDbEntity
8
CUTOUTS
100
AcDbCircle
10
115.32073132728502
20
53.28607724433499
30
-1.7763568394002505e-14
40
1.4499999999999957
210
0
220
0
230
1
0
CIRCLE
5
101
100
AcDbEntity
8
CUTOUTS
100
AcDbCircle
10
98.890000448290309
20
63.844392596203939
30
0
40
1.4499999999999957
210
0
220
0
230
1
0
CIRCLE
5
102
100
AcDbEntity
8
CUTOUTS
100
AcDbCircle
10
102.99285532186767
20
45.575715157250116
30
0
40
0.95000000000000639
210
0
220
0
230
1
0
CIRCLE
5
103
100
AcDbEntity
8
CUTOUTS
100
AcDbCircle
10
95.06155522134847
20
-56.403698346305227
30
0
40
1.3499999999999979
210
0
220
0
230
1
0
CIRCLE
5
104
100
AcDbEntity
8
CUTOUTS
100
AcDbCircle
10
103.99765937849268
20
-56.656624702639256
30
0
40
1.3499999999999979
210
0
220
0
230
1
0
CIRCLE
5
105
100
AcDbEntity
8
CUTOUTS
100
AcDbCircle
10
-24.646892426385108
20
-56.506294280930874
30
0
40
0.95000000000000195
210
0
220
0
230
1
0
CIRCLE
5
106
100
AcDbEntity
8
CUTOUTS
100
AcDbCircle
10
-16.674827810556959
20
-56.923328157330822
30
0
40
0.94999999999999973
210
0
220
0
230
1
0
CIRCLE
5
107
100
AcDbEntity
8
CUTOUTS
100
AcDbCircle
10
7.5597888368664137
20
-67.123527467460605
30
8.8817841970012523e-15
40
0.94999999999999973
210
0
220
0
230
1
0
CIRCLE
5
108
100
AcDbEntity
8
CUTOUTS
100
AcDbCircle
10
7.6026031279055069
20
-58.167920997580808
30
0
40
1.4500000000000002
210
0
220
0
230
1
0
CIRCLE
5
109
100
AcDbEntity
8
CUTOUTS
100
AcDbCircle
10
-105.79438209539673
20
60.16743815443035
30
-8.8817841970012523e-15
40
1.4499999999999957
210
0
220
0
230
1
0
CIRCLE
5
10A
100
AcDbEntity
8
CUTOUTS
100
AcDbCircle
10
24.594999999937347
20
-6.7555439589741759
30
1.6271428648906294e-11
40
1.2000000000000011
210
0
220
0
230
1
0
CIRCLE
5
10B
100
AcDbEntity
8
CUTOUTS
100
AcDbCircle
10
-98.774738883465716
20
60.112752619501471
30
-8.8817841970012523e-15
40
1.4499999999999957
210
0
220
0
230
1
0
CIRCLE
5
10C
100
AcDbEntity
8
CUTOUTS
100
AcDbCircle
10
-51.308420509076917
20
-13.134923801404813
30
0
40
0.19999999999999574
210
0
220
0
230
1
0
CIRCLE
5
10D
100
AcDbEntity
8
CUTOUTS
100
AcDbCircle
10
-51.716296090102922
20
-67.623522708662037
30
0
40
0.19999999999999574
210
0
220
0
230
1
0
CIRCLE
5
10E
100
AcDbEntity
8
CUTOUTS
100
AcDbCircle
10
-108.86507638043065
20
-64.201052312629955
30
0
40
0.19999999999999574
210
0
220
0
230
1
0
CIRCLE
5
10F
100
AcDbEntity
8
CUTOUTS
100
AcDbCircle
10
-111.56418405679551
20
-12.980870066119813
30
-8.8817841970012523e-15
40
0.19999999999999574
210
0
220
0
230
1
0
CIRCLE
5
110
100
AcDbEntity
8
CUTOUTS
100
AcDbCircle
10
-115.58377099857061
20
-16.571817934967875
30
0
40
1.4499999999999957
210
0
220
0
230
1
0
CIRCLE
5
111
100
AcDbEntity
8
CUTOUTS
100
AcDbCircle
10
-63.490776521062884
20
60.272086439000383
30
-8.8817841970012523e-15
40
1.4499999999999957
210
0
220
0
230
1
0
CIRCLE
5
112
100
AcDbEntity
8
CUTOUTS
100
AcDbCircle
10
113.43305901549974
20
58.584871475826844
30
0
40
1.4499999999999957
210
0
220
0
230
1
0
CIRCLE
5
113
100
AcDbEntity
8
CUTOUTS
100
AcDbCircle
10
105.9761364769391
20
63.659115682380893
30
2.8332891588433995e-12
40
1.4499999999999957
210
0
220
0
230
1
0
CIRCLE
5
114
100
AcDbEntity
8
CUTOUTS
100
AcDbCircle
10
-9.0000001341730584
20
27.000000466914113
30
-1.5418777365994174e-11
40
1.4500000000000002
210
0
220
0
230
1
0
CIRCLE
5
115
100
AcDbEntity
8
CUTOUTS
100
AcDbCircle
10
10.000000148949004
20
27.000000402331302
30
2.5224267119483557e-12
40
1.4500000000000002
210
0
220
0
230
1
0
CIRCLE
5
116
100
AcDbEntity
8
CUTOUTS
100
AcDbCircle
10
-13.000000193777701
20
-27.497824375805937
30
-1.9229062786507711e-11
40
1.4500000000000002
210
0
220
0
230
1
0
CIRCLE
5
117
100
AcDbEntity
8
CUTOUTS
100
AcDbCircle
10
12.000000178751327
20
-27.497824440388744
30
4.3876013933186186e-12
40
1.4500000000000002
210
0
220
0
230
1
0
CIRCLE
5
118
100
AcDbEntity
8
CUTOUTS
100
AcDbCircle
10
15.00000000000008
20
32.502175996723153
30
0
40
1.4500000000000002
210
0
220
0
230
1
0
CIRCLE
5
119
100
AcDbEntity
8
CUTOUTS
100
AcDbCircle
10
-14.999999999999918
20
32.502175932140332
30
-2.6645352591003757e-14
40
1.4500000000000002
210
0
220
0
230
1
0
CIRCLE
5
11A
100
AcDbEntity
8
CUTOUTS
100
AcDbCircle
10
82.114999999937339
20
-6.7555439589734796
30
7.0539130092583946e-11
40
1.3499999999999979
210
0
220
0
230
1
0
CIRCLE
5
11B
100
AcDbEntity
8
CUTOUTS
100
AcDbCircle
10
33.000000491738305
20
-58.000000799684543
30
0
40
1.9499999999999984
210
0
220
0
230
1
0
CIRCLE
5
11C
100
AcDbEntity
8
CUTOUTS
100
AcDbCircle
10
45.997530372686164
20
11.726188593267203
30
4.7428727611986687e-12
40
1.9500000000000028
210
0
220
0
230
1
0
CIRCLE
5
11D
100
AcDbEntity
8
CUTOUTS
100
AcDbCircle
10
-72.745642047973519
20
48.63985823457228
30
4.6362913508346537e-12
40
1.9500000000000028
210
0
220
0
230
1
0
CIRCLE
5
11E
100
AcDbEntity
8
CUTOUTS
100
AcDbCircle
10
113.99753037268617
20
19.726188593237378
30
3.8280489889075398e-12
40
1.9500000000000028
210
0
220
0
230
1
0
CIRCLE
5
11F
100
AcDbEntity
8
CUTOUTS
100
AcDbCircle
10
96.334616761372416
20
-18.971415651259175
30
1.6981971384666394e-11
40
1.9500000000000028
210
0
220
0
230
1
0
CIRCLE
5
120
100
AcDbEntity
8
CUTOUTS
100
AcDbCircle
10
-112.00000000006254
20
26.905622697693452
30
-1.1270984145994589e-10
40
1.3000000000000078
210
0
220
0
230
1
0
CIRCLE
5
121
100
AcDbEntity
8
CUTOUTS
100
AcDbCircle
10
26.211665068522969
20
9.7116650685855248
30
1.779909553079051e-11
40
1.4500000000000046
210
0
220
0
230
1
0
CIRCLE
5
122
100
AcDbEntity
8
CUTOUTS
100
AcDbCircle
10
-30.353800397351201
20
13.853800397288566
30
-3.5615954629975022e-11
40
1.4500000000000046
210
0
220
0
230
1
0
CIRCLE
5
123
100
AcDbEntity
8
CUTOUTS
100
AcDbCircle
10
-25.876381351873228
20
-26.793249451730823
30
-4.4062531401323213e-11
40
1.4500000000000046
210
0
220
0
230
1
0
CIRCLE
5
124
100
AcDbEntity
8
CUTOUTS
100
AcDbCircle
10
21.211665068522937
20
-21.711665068585617
30
1.3082868122182845e-11
40
1.4500000000000046
210
0
220
0
230
1
0
CIRCLE
5
125
100
AcDbEntity
8
CUTOUTS
100
AcDbCircle
10
-6.2644258803148526e-11
20
-30.497824420509374
30
-6.9366734578579781e-12
40
1.4500000000000006
210
0
220
0
230
1
0
CIRCLE
5
126
100
AcDbEntity
8
CUTOUTS
100
AcDbCircle
10
44.997824003214234
20
-0.50000000000003997
30
3.5571545708990016e-11
40
1.4500000000000046
210
0
220
0
230
1
0
CIRCLE
5
127
100
AcDbEntity
8
CUTOUTS
100
AcDbCircle
10
30.353800397225985
20
14.853800397288538
30
2.1724844145865063e-11
40
1.4500000000000046
210
0
220
0
230
1
0
CIRCLE
5
128
100
AcDbEntity
8
CUTOUTS
100
AcDbCircle
10
-26.21166506864818
20
9.711665068585555
30
-3.1707969583294471e-11
40
1.4500000000000046
210
0
220
0
230
1
0
CIRCLE
5
129
100
AcDbEntity
8
CUTOUTS
100
AcDbCircle
10
-21.211665068648216
20
-21.711665068585582
30
-2.6973978606292803e-11
40
1.4500000000000024
210
0
220
0
230
1
0
CIRCLE
5
12A
100
AcDbEntity
8
CUTOUTS
100
AcDbCircle
10
32.353800397225953
20
-25.853800397288637
30
2.361666417982633e-11
40
1.4500000000000046
210
0
220
0
230
1
0
CIRCLE
5
12B
100
AcDbEntity
8
CUTOUTS
100
AcDbCircle
10
14.999999999937355
20
-33.497824003276861
30
7.2208905521620181e-12
40
1.4500000000000002
210
0
220
0
230
1
0
CIRCLE
5
12C
100
AcDbEntity
8
CUTOUTS
100
AcDbCircle
10
-6.259749919718862e-11
20
29.497824420509314
30
-6.9455552420549793e-12
40
1.4500000000000006
210
0
220
0
230
1
0
CIRCLE
5
12D
100
AcDbEntity
8
CUTOUTS
100
AcDbCircle
10
-68.000001013278975
20
-32.000000352649707
30
-1.7763568394002505e-14
40
1.4499999999999957
210
0
220
0
230
1
0
CIRCLE
5
12E
100
AcDbEntity
8
CUTOUTS
100
AcDbCircle
10
-68.00000107288362
20
-48.000000650672916
30
3.730349362740526e-12
40
1.4499999999999957
210
0
220
0
230
1
0
CIRCLE
5
12F
100
AcDbEntity
8
CUTOUTS
100
AcDbCircle
10
-43.965659754870039
20
10.280037590823312
30
4.4408920985006262e-13
40
1.4499999999999957
210
0
220
0
230
1
0
CIRCLE
5
130
100
AcDbEntity
8
CUTOUTS
100
AcDbCircle
10
112.00000166893004
20
3.0000001092862982
30
1.7763568394002505e-14
40
1.4499999999999957
210
0
220
0
230
1
0
CIRCLE
5
131
100
AcDbEntity
8
CUTOUTS
100
AcDbCircle
10
104.93204214489602
20
3.8140555985310098
30
4.7339909770016675e-12
40
1.4499999999999957
210
0
220
0
230
1
0
CIRCLE
5
132
100
AcDbEntity
8
CUTOUTS
100
AcDbCircle
10
73.776889269386331
20
29.24522058141649
30
8.8817841970012523e-15
40
1.4499999999999957
210
0
220
0
230
1
0
CIRCLE
5
133
100
AcDbEntity
8
CUTOUTS
100
AcDbCircle
10
79.00000117719172
20
45.00000073513506
30
1.7763568394002505e-14
40
1.4499999999999957
210
0
220
0
230
1
0
CIRCLE
5
134
100
AcDbEntity
8
CUTOUTS
100
AcDbCircle
10
-44.150000000065035
20
-5.8999999999968882
30
-4.8423487442050828e-11
40
1.6000000000000014
210
0
220
0
230
1
0
CIRCLE
5
135
100
AcDbEntity
8
CUTOUTS
100
AcDbCircle
10
-105.19999921030335
20
-1.0499995976650869
30
-1.056932319443149e-10
40
1.9500000000000028
210
0
220
0
230
1
0
CIRCLE
5
136
100
AcDbEntity
8
CUTOUTS
100
AcDbCircle
10
-16.000000238418497
20
-32.497824514894504
30
0
40
1.4500000000000002
210
0
220
0
230
1
0
CIRCLE
5
137
100
AcDbEntity
8
CUTOUTS
100
AcDbCircle
10
34.000000506639466
20
-34.000000506639473
30
0
40
1.4500000000000002
210
0
220
0
230
1
0
CIRCLE
5
138
100
AcDbEntity
8
CUTOUTS
100
AcDbCircle
10
-46.000000000059451
20
-18.094377302306505
30
1.7763568394002505e-14
40
1.2999999999999989
210
0
220
0
230
1
0
CIRCLE
5
139
100
AcDbEntity
8
CUTOUTS
100
AcDbCircle
10
106.00000157952314
20
-33.497824529795658
30
3.5527136788005009e-14
40
1.4499999999999957
210
0
220
0
230
1
0
CIRCLE
5
13A
100
AcDbEntity
8
CUTOUTS
100
AcDbCircle
10
-109.45558729511038
20
-13.888251060248431
30
-8.8817841970012523e-14
40
1.3000000000000078
210
0
220
0
230
1
0
CIRCLE
5
13B
100
AcDbEntity
8
CUTOUTS
100
AcDbCircle
10
-53.200994666425444
20
-64.882572392929291
30
-8.8817841970012523e-15
40
1.2999999999999989
210
0
220
0
230
1
0
CIRCLE
5
13C
100
AcDbEntity
8
CUTOUTS
100
AcDbCircle
10
-51.490919328002803
20
-15.912421868993601
30
8.8817841970012523e-15
40
1.2999999999999989
210
0
220
0
230
1
0
CIRCLE
5
13D
100
AcDbEntity
8
CUTOUTS
100
AcDbCircle
10
-111.16566263353303
20
-62.858401584184129
30
-1.1546319456101628e-13
40
1.3000000000000078
210
0
220
0
230
1
0
CIRCLE
5
13E
100
AcDbEntity
8
CUTOUTS
100
AcDbCircle
10
112.13885551120923
20
45.909801617479417
30
-8.8817841970012523e-15
40
1.1999999999999922
210
0
220
0
230
1
0
CIRCLE
5
13F
100
AcDbEntity
8
CUTOUTS
100
AcDbCircle
10
-104.0874983861008
20
43.264942251690748
30
0
40
1.1999999999999922
210
0
220
0
230
1
0
CIRCLE
5
140
100
AcDbEntity
8
CUTOUTS
100
AcDbCircle
10
-104.15602488280521
20
54.328245739374672
30
-1.7763568394002505e-14
40
1.1999999999999922
210
0
220
0
230
1
0
LWPOLYLINE
5
141
100
AcDbEntity
8
CUTOUTS
100
AcDbPolyline
90
2
70
1
43
0.0
10
24.958921647729579
20
65.144456041025947
10
24.230910658801484
20
65.144456041025933
42
-7.2801098892801486
0
LWPOLYLINE
5
142
100
AcDbEntity
8
CUTOUTS
100
AcDbPolyline
90
2
70
1
43
0.0
10
-32.561078352270421
20
65.144456041025379
10
-33.289089341198554
20
65.144456041025379
42
-7.2801098892797764
0
LWPOLYLINE
5
143
100
AcDbEntity
8
CUTOUTS
100
AcDbPolyline
90
2
70
1
43
0.0
10
82.478921647729564
20
65.144456041026515
10
81.75091065880153
20
65.144456041026501
42
-7.2801098892806522
0
LWPOLYLINE
5
144
100
AcDbEntity
8
CUTOUTS
100
AcDbPolyline
90
2
70
1
43
0.0
10
-31.64030912080095
20
-7.4279049815969556
42
1.3066428656677744
10
-34.373433142106279
20
-6.822934114261912
42
0.97754238769904311
0
LWPOLYLINE
5
145
100
AcDbEntity
8
CUTOUTS
100
AcDbPolyline
90
4
70
1
43
0.0
10
-62.445385266879484
20
-60.347430111932859
10
-61.675736248141845
20
-63.212546314764133
10
-62.6021199364233
20
-63.212546314764133
10
-63.439183257552386
20
-60.347430111932859
0
LWPOLYLINE
5
146
100
AcDbEntity
8
CUTOUTS
100
AcDbPolyline
90
5
70
1
43
0.0
10
-60.13611358763967
20
-61.711118867118657
10
-58.853822120300435
20
-59.312546255159482
10
-57.701679372658589
20
-59.312546255159482
10
-59.453783014727591
20
-62.439290489721408
10
-60.13611358763967
20
-62.439290489721408
0
SPLINE
5
147
100
AcDbEntity
8
CUTOUTS
100
AcDbSpline
70
0
71
3
72
14
73
10
74
0
42
0.000000001
43
0.0000000001
44
0.0000000001
40
-5.7497241942988669e-05
40
-5.7497241942988669e-05
40
-5.7497241942988669e-05
40
-5.7497241942988669e-05
40
0
40
0
40
0
40
0.023839100358235703
40
0.023839100358235703
40
0.023839100358235703
40
0.035426624579755935
40
0.035426624579755935
40
0.035426624579755935
40
0.035426624579755935
10
-53.099447333007731
20
-62.463709179630371
30
0
10
-53.099255619063605
20
-62.463709056274823
30
0
10
-53.099063905119657
20
-62.463708932919289
30
0
10
-53.098872191175715
20
-62.463708809563762
30
0
10
-53.019385109791813
20
-62.463657664762408
30
0
10
-52.939320251679831
20
-62.463616168437575
30
0
10
-52.85876602541299
20
-62.460770737380507
30
0
10
-52.819610854538837
20
-62.459387652415089
30
0
10
-52.780669668470772
20
-62.457352480772037
30
0
10
-52.741927424691056
20
-62.455124512348583
30
0
0
LINE
5
148
100
AcDbEntity
8
CUTOUTS
100
AcDbLine
10
-52.741927424691049
20
-62.455124512348576
30
0
11
-52.741927424691085
21
-63.255321462425897
31
-6.1629758220391547e-32
0
SPLINE
5
149
100
AcDbEntity
8
CUTOUTS
100
AcDbSpline
70
0
71
3
72
11
73
7
74
0
42
0.000000001
43
0.0000000001
44
0.0000000001
40
0.0048019794199359251
40
0.0048019794199359251
40
0.0048019794199359251
40
0.0048019794199359251
40
0.011636207666214066
40
0.011636207666214066
40
0.011636207666214066
40
0.027842061102550556
40
0.027842061102550556
40
0.027842061102550556
40
0.027842061102550556
10
-52.741927424691085
20
-63.255321462425897
30
0
10
-52.764546499203362
20
-63.256235770043993
30
0
10
-52.787065256211775
20
-63.257047661762343
30
0
10
-52.809486768753501
20
-63.257621403800044
30
0
10
-52.862654402753726
20
-63.258981905533133
30
0
10
-52.916265676102874
20
-63.259025264791482
30
0
10
-52.97028971754392
20
-63.259057769220391
30
0
0
SPLINE
5
14A
100
AcDbEntity
8
CUTOUTS
100
AcDbSpline
70
0
71
3
72
11
73
7
74
0
42
0.000000001
43
0.0000000001
44
0.0000000001
40
0
40
0
40
0
40
0
40
0.035261769423084316
40
0.035261769423084316
40
0.035261769423084316
40
0.070150885733675977
40
0.070150885733675977
40
0.070150885733675977
40
0.070150885733675977
10
-52.970289714277534
20
-63.259063214026192
30
0
10
-53.087880536998028
20
-63.257398315441769
30
-8.8817841970012523e-15
10
-53.204735866571902
20
-63.255727568259623
30
0
10
-53.32055551528213
20
-63.248968613736139
30
0
10
-53.43515115982904
20
-63.242281089134671
30
-8.8817841970012523e-15
10
-53.550182299850903
20
-63.230527802309602
30
0
10
-53.665933975404599
20
-63.218676695968384
30
0
0
SPLINE
5
14B
100
AcDbEntity
8
CUTOUTS
100
AcDbSpline
70
0
71
3
72
11
73
7
74
0
42
0.000000001
43
0.0000000001
44
0.0000000001
40
5.5466481240744581e-05
40
5.5466481240744581e-05
40
5.5466481240744581e-05
40
5.5466481240744581e-05
40
0.032364602789220084
40
0.032364602789220084
40
0.032364602789220084
40
0.055809186518056261
40
0.055809186518056261
40
0.055809186518056261
40
0.055809186518056261
10
-53.665933975404755
20
-63.218676695969648
30
0
10
-53.77285854838518
20
-63.205325078129661
30
0
10
-53.879015226164512
20
-63.192042775312444
30
0
10
-53.983583970326677
20
-63.174027893905532
30
0
10
-54.059462528470739
20
-63.160955696881025
30
0
10
-54.135378625838307
20
-63.145243656875827
30
0
10
-54.21169561507498
20
-63.129045358415866
30
0
0
LINE
5
14C
100
AcDbEntity
8
CUTOUTS
100
AcDbLine
10
-54.21169561507498
20
-63.12904535841588
30
0
11
-54.211695615074973
21
-62.393685879137536
31
0
0
SPLINE
5
14D
100
AcDbEntity
8
CUTOUTS
100
AcDbSpline
70
0
71
3
72
14
73
10
74
0
42
0.000000001
43
0.0000000001
44
0.0000000001
40
0.0055517753539032141
40
0.0055517753539032141
40
0.0055517753539032141
40
0.0055517753539032141
40
0.062756535956413395
40
0.062756535956413395
40
0.062756535956413395
40
0.11656884514712584
40
0.11656884514712584
40
0.11656884514712584
40
0.116626334368982
40
0.116626334368982
40
0.116626334368982
40
0.116626334368982
10
-54.21169561507498
20
-62.393685879137529
30
0
10
-54.02184715452556
20
-62.413689619004444
30
0
10
-53.831341703624872
20
-62.433083576106164
30
-8.8817841970012523e-15
10
-53.639726851980868
20
-62.444721582919776
30
0
10
-53.459475461474291
20
-62.455669413387398
30
0
10
-53.279429796677114
20
-62.459683879243919
30
0
10
-53.100022331315564
20
-62.463696319818538
30
0
10
-53.099830665212913
20
-62.463700606423032
30
0
10
-53.099638999110255
20
-62.463704893027526
30
0
10
-53.099447333007646
20
-62.463709179632019
30
0
0
SPLINE
5
14E
100
AcDbEntity
8
CUTOUTS
100
AcDbSpline
70
0
71
3
72
11
73
7
74
0
42
0.000000001
43
0.0000000001
44
0.0000000001
40
0.00025034265499865598
40
0.00025034265499865598
40
0.00025034265499865598
40
0.00025034265499865598
40
0.027725590923781608
40
0.027725590923781608
40
0.027725590923781608
40
0.054987131273888573
40
0.054987131273888573
40
0.054987131273888573
40
0.054987131273888573
10
-51.876087745663988
20
-63.108453498421355
30
0
10
-51.963021233089108
20
-63.137990085068665
30
0
10
-52.048493437751731
20
-63.166865069010576
30
0
10
-52.134296732251983
20
-63.186976176947482
30
0
10
-52.219432631746223
20
-63.206930856706663
30
0
10
-52.307763170998797
20
-63.218953078209836
30
0
10
-52.397741500161025
20
-63.229638846322437
30
0
0
LINE
5
14F
100
AcDbEntity
8
CUTOUTS
100
AcDbLine
10
-52.397741500161025
20
-63.229638846322437
30
0
11
-52.397741500161032
21
-62.012439332606178
31
0
0
SPLINE
5
150
100
AcDbEntity
8
CUTOUTS
100
AcDbSpline
70
0
71
3
72
17
73
13
74
0
42
0.000000001
43
0.0000000001
44
0.0000000001
40
-1.0670630221516708e-05
40
-1.0670630221516708e-05
40
-1.0670630221516708e-05
40
-1.0670630221516708e-05
40
0
40
0
40
0
40
0.013309129565141379
40
0.013309129565141379
40
0.013309129565141379
40
0.023094613114376068
40
0.023094613114376068
40
0.023094613114376068
40
0.023467302072945811
40
0.023467302072945811
40
0.023467302072945811
40
0.023467302072945811
10
-52.397741500158958
20
-62.012439332603535
30
0
10
-52.397741652762761
20
-62.012403671886645
30
0
10
-52.397741805366579
20
-62.012368011166991
30
0
10
-52.39774195797041
20
-62.012332350447188
30
0
10
-52.397932295751907
20
-61.967853896665559
30
0
10
-52.398042402416209
20
-61.921671885771417
30
0
10
-52.403111236061122
20
-61.874239310705768
30
0
10
-52.406838075446331
20
-61.839364702210069
30
0
10
-52.413011460700652
20
-61.806004985270093
30
0
10
-52.41891261524151
20
-61.773865414516898
30
-8.8817841970012523e-15
10
-52.419137366029666
20
-61.772641350004129
30
-8.8817841970012523e-15
10
-52.419362116817815
20
-61.771417285491353
30
-8.8817841970012523e-15
10
-52.419586867605979
20
-61.770193220978527
30
-8.8817841970012523e-15
0
SPLINE
5
151
100
AcDbEntity
8
CUTOUTS
100
AcDbSpline
70
0
71
3
72
17
73
13
74
0
42
0.000000001
43
0.0000000001
44
0.0000000001
40
-0.00036477270188399816
40
-0.00036477270188399816
40
-0.00036477270188399816
40
-0.00036477270188399816
40
0
40
0
40
0
40
0.0075784031281681125
40
0.0075784031281681125
40
0.0075784031281681125
40
0.014878433162428789
40
0.014878433162428789
40
0.014878433162428789
40
0.0153545357634065
40
0.0153545357634065
40
0.0153545357634065
40
0.0153545357634065
10
-52.419586867606263
20
-61.770193220978491
30
-8.8817841970012523e-15
10
-52.419990918018222
20
-61.769016110061862
30
-8.8817841970012523e-15
10
-52.420394968430216
20
-61.767838999145177
30
-8.8817841970012523e-15
10
-52.42079901884221
20
-61.766661888228491
30
0
10
-52.429193443343692
20
-61.742206601396219
30
-8.8817841970012523e-15
10
-52.438425677576248
20
-61.712949543486431
30
-8.8817841970012523e-15
10
-52.458734134712628
20
-61.684681344283085
30
0
10
-52.478296613052422
20
-61.657451504472654
30
0
10
-52.501930935000274
20
-61.639778567326971
30
0
10
-52.521491466617825
20
-61.624401201384053
30
0
10
-52.522767190133479
20
-61.623398300863464
30
-8.8817841970012523e-15
10
-52.524042913649119
20
-61.622395400342896
30
-8.8817841970012523e-15
10
-52.525318637164773
20
-61.621392499822313
30
0
0
SPLINE
5
152
100
AcDbEntity
8
CUTOUTS
100
AcDbSpline
70
0
71
3
72
17
73
13
74
0
42
0.000000001
43
0.0000000001
44
0.0000000001
40
-0.00048377303020252999
40
-0.00048377303020252999
40
-0.00048377303020252999
40
-0.00048377303020252999
40
0
40
0
40
0
40
0.0082940954526053469
40
0.0082940954526053469
40
0.0082940954526053469
40
0.018400061579513495
40
0.018400061579513495
40
0.018400061579513495
40
0.018545867463154002
40
0.018545867463154002
40
0.018545867463154002
40
0.018545867463154002
10
-52.525318637164531
20
-61.621392499822434
30
0
10
-52.526763860054672
20
-61.620654522356226
30
0
10
-52.528209082944748
20
-61.619916544890032
30
0
10
-52.529654305834839
20
-61.619178567423852
30
0
10
-52.554432075268835
20
-61.606526238409344
30
0
10
-52.581256174312315
20
-61.592629337532252
30
0
10
-52.611872859614124
20
-61.582215314352887
30
0
10
-52.649177854034122
20
-61.569526315763873
30
0
10
-52.685672601081507
20
-61.564198234538637
30
0
10
-52.71923596157297
20
-61.5590535360123
30
0
10
-52.719720203789187
20
-61.558979309826974
30
-8.8817841970012523e-15
10
-52.720204446005411
20
-61.558905083641633
30
-8.8817841970012523e-15
10
-52.720688688221308
20
-61.558830857456364
30
-8.8817841970012523e-15
0
SPLINE
5
153
100
AcDbEntity
8
CUTOUTS
100
AcDbSpline
70
0
71
3
72
17
73
13
74
0
42
0.000000001
43
0.0000000001
44
0.0000000001
40
-0.00014689979600185019
40
-0.00014689979600185019
40
-0.00014689979600185019
40
-0.00014689979600185019
40
0
40
0
40
0
40
0.013561264468602008
40
0.013561264468602008
40
0.013561264468602008
40
0.032024160247610761
40
0.032024160247610761
40
0.032024160247610761
40
0.032060249503571038
40
0.032060249503571038
40
0.032060249503571038
40
0.032060249503571038
10
-52.720688688221664
20
-61.558830857457309
30
-8.8817841970012523e-15
10
-52.721176454202457
20
-61.55878520236535
30
-8.8817841970012523e-15
10
-52.721664220183165
20
-61.558739547273397
30
-8.8817841970012523e-15
10
-52.72215198616388
20
-61.558693892181438
30
0
10
-52.767180799295986
20
-61.55447917716338
30
-8.8817841970012523e-15
10
-52.812848576926292
20
-61.550192158993255
30
0
10
-52.859250316941989
20
-61.54765006640752
30
0
10
-52.922423665700002
20
-61.544189150902213
30
0
10
-52.984884614088365
20
-61.54407605565406
30
-8.8817841970012523e-15
10
-53.046469654627295
20
-61.54394182118623
30
0
10
-53.046590034350949
20
-61.543941558799318
30
0
10
-53.046710414074596
20
-61.543941296412427
30
0
10
-53.046830793799387
20
-61.543941034025494
30
0
0
SPLINE
5
154
100
AcDbEntity
8
CUTOUTS
100
AcDbSpline
70
0
71
3
72
17
73
13
74
0
42
0.000000001
43
0.0000000001
44
0.0000000001
40
-3.6105183732980199e-05
40
-3.6105183732980199e-05
40
-3.6105183732980199e-05
40
-3.6105183732980199e-05
40
0
40
0
40
0
40
0.039544424341880387
40
0.039544424341880387
40
0.039544424341880387
40
0.081486684045238927
40
0.081486684045238927
40
0.081486684045238927
40
0.08151797524456196
40
0.08151797524456196
40
0.08151797524456196
40
0.08151797524456196
10
-53.046830793798236
20
-61.54394103402214
30
0
10
-53.046951164908755
20
-61.54394251053241
30
0
10
-53.047071536019246
20
-61.543943987042688
30
0
10
-53.047191907129694
20
-61.543945463552959
30
0
10
-53.179029105669848
20
-61.545562620507262
30
0
10
-53.311355887641241
20
-61.547178584295452
30
0
10
-53.444008251269317
20
-61.552705804944409
30
-8.8817841970012523e-15
10
-53.584704189524778
20
-61.558568176890745
30
0
10
-53.724695418213443
20
-61.568785891986984
30
0
10
-53.864169367760965
20
-61.578957763240176
30
0
10
-53.864273422887948
20
-61.578965352007515
30
0
10
-53.864377478014916
20
-61.578972940774868
30
0
10
-53.864481533141053
20
-61.578980529542171
30
0
0
SPLINE
5
155
100
AcDbEntity
8
CUTOUTS
100
AcDbSpline
70
0
71
3
72
14
73
10
74
0
42
0.000000001
43
0.0000000001
44
0.0000000001
40
-3.1299218911004002e-05
40
-3.1299218911004002e-05
40
-3.1299218911004002e-05
40
-3.1299218911004002e-05
40
0
40
0
40
0
40
0.02260822404757604
40
0.02260822404757604
40
0.02260822404757604
40
0.030177950339036495
40
0.030177950339036495
40
0.030177950339036495
40
0.030177950339036495
10
-53.864481533140484
20
-61.578980529545284
30
0
10
-53.864585484939354
20
-61.578989420398614
30
0
10
-53.864689436737066
20
-61.578998311251823
30
0
10
-53.864793388534736
20
-61.579007202105032
30
0
10
-53.939880423212479
20
-61.585429292133
30
0
10
-54.0148854539677
20
-61.5918441644354
30
0
10
-54.089838526661261
20
-61.597882032879781
30
0
10
-54.114934449445819
20
-61.599903642866131
30
0
10
-54.140049773022412
20
-61.601885035733133
30
-8.8817841970012523e-15
10
-54.165182534478042
20
-61.603850362025547
30
0
0
LINE
5
156
100
AcDbEntity
8
CUTOUTS
100
AcDbLine
10
-54.165182534478042
20
-61.60385036202554
30
4.5273346777852231e-30
11
-54.165182534478049
21
-59.312546255159504
31
0
0
LINE
5
157
100
AcDbEntity
8
CUTOUTS
100
AcDbLine
10
-54.165182534478049
20
-59.312546255159504
30
0
11
-53.282624999306535
21
-59.312546255159504
31
6.1192706234456825e-33
0
LINE
5
158
100
AcDbEntity
8
CUTOUTS
100
AcDbLine
10
-53.282624999306535
20
-59.312546255159504
30
6.1192706234456825e-33
11
-53.282624999306535
21
-60.79404200379949
31
0
0
LINE
5
159
100
AcDbEntity
8
CUTOUTS
100
AcDbLine
10
-53.282624999306535
20
-60.79404200379949
30
0
11
-53.03740486232374
21
-60.771749298701884
31
4.3063793556498594e-30
0
SPLINE
5
15A
100
AcDbEntity
8
CUTOUTS
100
AcDbSpline
70
0
71
3
72
11
73
7
74
0
42
0.000000001
43
0.0000000001
44
0.0000000001
40
0.00011715788161785484
40
0.00011715788161785484
40
0.00011715788161785484
40
0.00011715788161785484
40
0.034327287116312617
40
0.034327287116312617
40
0.034327287116312617
40
0.056905170444505909
40
0.056905170444505909
40
0.056905170444505909
40
0.056905170444505909
10
-53.03740486232374
20
-60.771749298701863
30
0
10
-52.923474447550134
20
-60.766755721458942
30
0
10
-52.809825854087997
20
-60.761783513561561
30
0
10
-52.696404267812099
20
-60.758749549244911
30
0
10
-52.621548679741466
20
-60.75674720391924
30
0
10
-52.546482800687784
20
-60.755580825244884
30
0
10
-52.471230659300765
20
-60.754416355992753
30
0
0
SPLINE
5
15B
100
AcDbEntity
8
CUTOUTS
100
AcDbSpline
70
0
71
3
72
11
73
7
74
0
42
0.000000001
43
0.0000000001
44
0.0000000001
40
9.756719887484908e-05
40
9.756719887484908e-05
40
9.756719887484908e-05
40
9.756719887484908e-05
40
0.05959031315730122
40
0.05959031315730122
40
0.05959031315730122
40
0.10486865498468226
40
0.10486865498468226
40
0.10486865498468226
40
0.10486865498468226
10
-52.471230659300765
20
-60.75441635599298
30
0
10
-52.266520188124034
20
-60.759499136572089
30
0
10
-52.0678344121498
20
-60.76569715718157
30
0
10
-51.899599769262529
20
-60.833619307357345
30
0
10
-51.771560870651598
20
-60.885313043858559
30
-8.8817841970012523e-15
10
-51.652415284109011
20
-60.976263979925982
30
0
10
-51.53045844514552
20
-61.070990897111315
30
0
0
SPLINE
5
15C
100
AcDbEntity
8
CUTOUTS
100
AcDbSpline
70
0
71
3
72
11
73
7
74
0
42
0.000000001
43
0.0000000001
44
0.0000000001
40
0.00069549195416115093
40
0.00069549195416115093
40
0.00069549195416115093
40
0.00069549195416115093
40
0.020016657398609559
40
0.020016657398609559
40
0.020016657398609559
40
0.041144985894116422
40
0.041144985894116422
40
0.041144985894116422
40
0.041144985894116422
10
-51.53045844514552
20
-61.070990897111301
30
0
10
-51.492218523580391
20
-61.123237992432202
30
0
10
-51.456035085425079
20
-61.173655257683983
30
0
10
-51.430003356423413
20
-61.225958537009191
30
0
10
-51.401536806450814
20
-61.283153889440342
30
0
10
-51.382335468200054
20
-61.348409447390935
30
0
10
-51.362698338525689
20
-61.416634575392727
30
0
0
SPLINE
5
15D
100
AcDbEntity
8
CUTOUTS
100
AcDbSpline
70
0
71
3
72
11
73
7
74
0
42
0.000000001
43
0.0000000001
44
0.0000000001
40
0.00022673574689084902
40
0.00022673574689084902
40
0.00022673574689084902
40
0.00022673574689084902
40
0.024229812925938184
40
0.024229812925938184
40
0.024229812925938184
40
0.05231678857529163
40
0.05231678857529163
40
0.05231678857529163
40
0.05231678857529163
10
-51.362698338525767
20
-61.416634575392742
30
0
10
-51.347607568348643
20
-61.495339767428064
30
-8.8817841970012523e-15
10
-51.332875212599404
20
-61.57277012308689
30
0
10
-51.324480525214106
20
-61.649523297369242
30
0
10
-51.314657560499377
20
-61.739335304429794
30
0
10
-51.313143571133956
20
-61.831601164352705
30
0
10
-51.311699532072403
20
-61.925420764442507
30
0
0
SPLINE
5
15E
100
AcDbEntity
8
CUTOUTS
100
AcDbSpline
70
0
71
3
72
11
73
7
74
0
42
0.000000001
43
0.0000000001
44
0.0000000001
40
6.8438553596425779e-05
40
6.8438553596425779e-05
40
6.8438553596425779e-05
40
6.8438553596425779e-05
40
0.031567864752281252
40
0.031567864752281252
40
0.031567864752281252
40
0.05765903826799678
40
0.05765903826799678
40
0.05765903826799678
40
0.05765903826799678
10
-51.31169953207241
20
-61.925420764442507
30
0
10
-51.312966054309072
20
-62.030617987493841
30
0
10
-51.314299926810619
20
-62.134345267644015
30
0
10
-51.32452343582937
20
-62.235727885155498
30
0
10
-51.332991632870979
20
-62.319703747073881
30
0
10
-51.347783316246343
20
-62.404301860945999
30
-8.8817841970012523e-15
10
-51.362880649951485
20
-62.490075398222984
30
0
0
SPLINE
5
15F
100
AcDbEntity
8
CUTOUTS
100
AcDbSpline
70
0
71
3
72
11
73
7
74
0
42
0.000000001
43
0.0000000001
44
0.0000000001
40
0.00021918835290291641
40
0.00021918835290291641
40
0.00021918835290291641
40
0.00021918835290291641
40
0.022659980133447645
40
0.022659980133447645
40
0.022659980133447645
40
0.043333600245991921
40
0.043333600245991921
40
0.043333600245991921
40
0.043333600245991921
10
-51.362880649951428
20
-62.490075398223006
30
0
10
-51.382439042504437
20
-62.562848830603357
30
0
10
-51.40161628277064
20
-62.632778276957303
30
0
10
-51.430565528998784
20
-62.69492099190235
30
0
10
-51.457235074570882
20
-62.752170080709007
30
0
10
-51.494413203056652
20
-62.807574604080514
30
0
10
-51.533392920788884
20
-62.86490673567436
30
0
0
SPLINE
5
160
100
AcDbEntity
8
CUTOUTS
100
AcDbSpline
70
0
71
3
72
11
73
7
74
0
42
0.000000001
43
0.0000000001
44
0.0000000001
40
0.00038897553869456569
40
0.00038897553869456569
40
0.00038897553869456569
40
0.00038897553869456569
40
0.021283822314723262
40
0.021283822314723262
40
0.021283822314723262
40
0.044740520232184118
40
0.044740520232184118
40
0.044740520232184118
40
0.044740520232184118
10
-51.533392920788884
20
-62.86490673567436
30
0
10
-51.581462807105382
20
-62.916103975197693
30
-8.8817841970012523e-15
10
-51.627858852935105
20
-62.964789536298873
30
0
10
-51.67862314474835
20
-63.002026312328809
30
0
10
-51.735611485980087
20
-63.043828571810138
30
0
10
-51.804212919691878
20
-63.075675358225524
30
0
10
-51.876087745663966
20
-63.108453498421405
30
0
0
LWPOLYLINE
5
161
100
AcDbEntity
8
CUTOUTS
100
AcDbPolyline
90
5
70
1
43
0.0
10
-68.621861083953092
20
-63.208451005725912
10
-70.197249829931366
20
-63.208451005725912
10
-69.095520663264679
20
-59.903263505725903
10
-67.923432897642968
20
-59.903263505725903
10
-68.006294292849688
20
-60.995527351632653
0
SPLINE
5
162
100
AcDbEntity
8
CUTOUTS
100
AcDbSpline
70
0
71
3
72
8
73
4
74
0
42
0.000000001
43
0.0000000001
44
0.0000000001
40
-0.99999696183386011
40
-0.99999696183386011
40
-0.99999696183386011
40
-0.99999696183386011
40
-0.076424778741429306
40
-0.076424778741429306
40
-0.076424778741429306
40
-0.076424778741429306
10
-73.874132312295188
20
-61.703400548409626
30
0
10
-73.802155401514824
20
-61.831364454661013
30
0
10
-73.690970091859839
20
-61.916366540151834
30
0
10
-73.555118217468177
20
-61.968128664199
30
0
0
LINE
5
163
100
AcDbEntity
8
CUTOUTS
100
AcDbLine
10
-73.555118217468177
20
-61.968128664199
30
0
11
-73.555118217468177
21
-63.316081182855122
31
0
0
SPLINE
5
164
100
AcDbEntity
8
CUTOUTS
100
AcDbSpline
70
0
71
3
72
8
73
4
74
0
42
0.000000001
43
0.0000000001
44
0.0000000001
40
-0.97638235962381381
40
-0.97638235962381381
40
-0.97638235962381381
40
-0.97638235962381381
40
-0.00038790769268515213
40
-0.00038790769268515213
40
-0.00038790769268515213
40
-0.00038790769268515213
10
-73.555118217468191
20
-63.316081182855129
30
0
10
-74.281669883573215
20
-63.263172054565942
30
0
10
-74.797760282381944
20
-63.068211951511522
30
-8.8817841970012523e-15
10
-75.111255275714782
20
-62.732609775114796
30
0
0
SPLINE
5
165
100
AcDbEntity
8
CUTOUTS
100
AcDbSpline
70
0
71
3
72
8
73
4
74
0
42
0.000000001
43
0.0000000001
44
0.0000000001
40
-1
40
-1
40
-1
40
-1
40
-5.3110405382472692e-05
40
-5.3110405382472692e-05
40
-5.3110405382472692e-05
40
-5.3110405382472692e-05
10
-75.111257549592978
20
-62.732611902038606
30
0
10
-75.433714347527967
20
-62.379447833720583
30
0
10
-75.614263281996756
20
-61.837201291972612
30
0
10
-75.630003274726988
20
-61.074729713697316
30
0
0
SPLINE
5
166
100
AcDbEntity
8
CUTOUTS
100
AcDbSpline
70
0
71
3
72
11
73
7
74
0
42
0.000000001
43
0.0000000001
44
0.0000000001
40
-1
40
-1
40
-1
40
-1
40
0
40
0
40
0
40
0.00043711090537115695
40
0.00043711090537115695
40
0.00043711090537115695
40
0.00043711090537115695
10
-75.630003423799906
20
-61.074729716755122
30
0
10
-75.637944425043784
20
-60.638134534272787
30
0
10
-75.645871124267501
20
-60.225645414385419
30
-8.8817841970012523e-15
10
-75.645871124267501
20
-59.837388505725897
30
-8.8817841970012523e-15
10
-75.645871124267501
20
-59.837218497114904
30
-8.8817841970012523e-15
10
-75.645871124267501
20
-59.83704848850391
30
-8.8817841970012523e-15
10
-75.645871124267501
20
-59.836878479892917
30
-8.8817841970012523e-15
0
SPLINE
5
167
100
AcDbEntity
8
CUTOUTS
100
AcDbSpline
70
0
71
3
72
11
73
7
74
0
42
0.000000001
43
0.0000000001
44
0.0000000001
40
-1.0004370180084607
40
-1.0004370180084607
40
-1.0004370180084607
40
-1.0004370180084607
40
-1
40
-1
40
-1
40
0
40
0
40
0
40
0
10
-75.64587112427445
20
-59.836878479892512
30
-8.8817841970012523e-15
10
-75.645874592257982
20
-59.836708506883831
30
-8.8817841970012523e-15
10
-75.645878060241543
20
-59.836538533874581
30
-8.8817841970012523e-15
10
-75.645881528225104
20
-59.836368560865331
30
-8.8817841970012523e-15
10
-75.653803222788
20
-59.448110012346397
30
-8.8817841970012523e-15
10
-75.653806686401296
20
-59.059513263492633
30
-8.8817841970012523e-15
10
-75.653806686401296
20
-58.678513021259342
30
-8.8817841970012523e-15
0
SPLINE
5
168
100
AcDbEntity
8
CUTOUTS
100
AcDbSpline
70
0
71
3
72
8
73
4
74
0
42
0.000000001
43
0.0000000001
44
0.0000000001
40
-1
40
-1
40
-1
40
-1
40
0
40
0
40
0
40
0
10
-75.653806686401296
20
-58.678513021259342
30
-8.8817841970012523e-15
10
-75.653806686401296
20
-58.298207053487012
30
-8.8817841970012523e-15
10
-75.645871124267501
20
-57.909242267398866
30
-8.8817841970012523e-15
10
-75.645871124267501
20
-57.51170076349262
30
-8.8817841970012523e-15
0
SPLINE
5
169
100
AcDbEntity
8
CUTOUTS
100
AcDbSpline
70
0
71
3
72
8
73
4
74
0
42
0.000000001
43
0.0000000001
44
0.0000000001
40
-1
40
-1
40
-1
40
-1
40
-0.0004947497963569969
40
-0.0004947497963569969
40
-0.0004947497963569969
40
-0.0004947497963569969
10
-75.645871124267501
20
-57.51170076349262
30
-8.8817841970012523e-15
10
-75.645871124267501
20
-57.123636359859844
30
-8.8817841970012523e-15
10
-75.637947560560647
20
-56.71136968646185
30
-8.8817841970012523e-15
10
-75.630015501343749
20
-56.282950014058997
30
0
0
SPLINE
5
16A
100
AcDbEntity
8
CUTOUTS
100
AcDbSpline
70
0
71
3
72
8
73
4
74
0
42
0.000000001
43
0.0000000001
44
0.0000000001
40
-1
40
-1
40
-1
40
-1
40
-0.00039593696122416423
40
-0.00039593696122416423
40
-0.00039593696122416423
40
-0.00039593696122416423
10
-75.630019549592646
20
-56.282949939114111
30
0
10
-75.606432020220069
20
-55.528119004876586
30
0
10
-75.433602447171296
20
-54.985674906116813
30
8.8817841970012523e-15
10
-75.111640088880065
20
-54.632771261507472
30
0
0
SPLINE
5
16B
100
AcDbEntity
8
CUTOUTS
100
AcDbSpline
70
0
71
3
72
8
73
4
74
0
42
0.000000001
43
0.0000000001
44
0.0000000001
40
-0.99960353150404224
40
-0.99960353150404224
40
-0.99960353150404224
40
-0.99960353150404224
40
-0.023400345424313018
40
-0.023400345424313018
40
-0.023400345424313018
40
-0.023400345424313018
10
-75.111640088880122
20
-54.632771261507436
30
0
10
-74.789818155183781
20
-54.296253746305709
30
0
10
-74.28128693122963
20
-54.101797181076094
30
0
10
-73.555118217468177
20
-54.056274935706831
30
8.8817841970012523e-15
0
LINE
5
16C
100
AcDbEntity
8
CUTOUTS
100
AcDbLine
10
-73.555118217468177
20
-54.056274935706824
30
8.8817841970012507e-15
11
-73.555118217468177
21
-55.418520502666986
31
8.8817841970012523e-15
0
SPLINE
5
16D
100
AcDbEntity
8
CUTOUTS
100
AcDbSpline
70
0
71
3
72
8
73
4
74
0
42
0.000000001
43
0.0000000001
44
0.0000000001
40
-0.92199780071405235
40
-0.92199780071405235
40
-0.92199780071405235
40
-0.92199780071405235
40
0
40
0
40
0
40
0
10
-73.555118217468177
20
-55.418520502666986
30
8.8817841970012523e-15
10
-73.698629451436545
20
-55.465552483968466
30
0
10
-73.802600678687739
20
-55.558180267937651
30
-8.8817841970012523e-15
10
-73.873428118020769
20
-55.67622279805078
30
0
0
SPLINE
5
16E
100
AcDbEntity
8
CUTOUTS
100
AcDbSpline
70
0
71
3
72
8
73
4
74
0
42
0.000000001
43
0.0000000001
44
0.0000000001
40
-1
40
-1
40
-1
40
-1
40
-0.0014639618435897952
40
-0.0014639618435897952
40
-0.0014639618435897952
40
-0.0014639618435897952
10
-73.873428118020769
20
-55.67622279805078
30
0
10
-73.951143134053524
20
-55.80574431127615
30
-8.8817841970012523e-15
10
-73.991561092002271
20
-55.981011721148299
30
-8.8817841970012523e-15
10
-73.991680454963031
20
-56.201042788347387
30
-8.8817841970012523e-15
0
SPLINE
5
16F
100
AcDbEntity
8
CUTOUTS
100
AcDbSpline
70
0
71
3
72
8
73
4
74
0
42
0.000000001
43
0.0000000001
44
0.0000000001
40
-0.99922984001072201
40
-0.99922984001072201
40
-0.99922984001072201
40
-0.99922984001072201
40
0
40
0
40
0
40
0
10
-73.991680454963031
20
-56.201042788347387
30
-8.8817841970012523e-15
10
-74.007545154486124
20
-56.613511890819687
30
-8.8817841970012523e-15
10
-74.023417452528406
20
-57.034176994932572
30
0
10
-74.031358978970218
20
-57.447236972271625
30
0
0
SPLINE
5
170
100
AcDbEntity
8
CUTOUTS
100
AcDbSpline
70
0
71
3
72
8
73
4
74
0
42
0.000000001
43
0.0000000001
44
0.0000000001
40
-0.99999952858597008
40
-0.99999952858597008
40
-0.99999952858597008
40
-0.99999952858597008
40
0
40
0
40
0
40
0
10
-74.031358978973628
20
-57.447236972271554
30
0
10
-74.039299389484114
20
-57.859988134199057
30
0
10
-74.047244186401286
20
-58.273056941702571
30
-8.8817841970012523e-15
10
-74.047244186401286
20
-58.68644858339313
30
-8.8817841970012523e-15
0
SPLINE
5
171
100
AcDbEntity
8
CUTOUTS
100
AcDbSpline
70
0
71
3
72
8
73
4
74
0
42
0.000000001
43
0.0000000001
44
0.0000000001
40
-1
40
-1
40
-1
40
-1
40
0
40
0
40
0
40
0
10
-74.047244186401286
20
-58.68644858339313
30
-8.8817841970012523e-15
10
-74.047244186401286
20
-59.099840811212523
30
-8.8817841970012523e-15
10
-74.039294533585945
20
-59.512910827782328
30
0
10
-74.031358978970218
20
-59.925660194514656
30
0
0
SPLINE
5
172
100
AcDbEntity
8
CUTOUTS
100
AcDbSpline
70
0
71
3
72
8
73
4
74
0
42
0.000000001
43
0.0000000001
44
0.0000000001
40
-1
40
-1
40
-1
40
-1
40
-0.00074149044243957297
40
-0.00074149044243957297
40
-0.00074149044243957297
40
-0.00074149044243957297
10
-74.031358979024418
20
-59.9256601916954
30
0
10
-74.023416988141491
20
-60.338745538003991
30
0
10
-74.00754378301346
20
-60.75149769611474
30
-8.8817841970012523e-15
10
-73.991680464752704
20
-61.171837366635422
30
0
0
SPLINE
5
173
100
AcDbEntity
8
CUTOUTS
100
AcDbSpline
70
0
71
3
72
8
73
4
74
0
42
0.000000001
43
0.0000000001
44
0.0000000001
40
-0.99856359684271501
40
-0.99856359684271501
40
-0.99856359684271501
40
-0.99856359684271501
40
0
40
0
40
0
40
0
10
-73.99168046475279
20
-61.171837366635408
30
0
10
-73.991563345235974
20
-61.391875935268232
30
0
10
-73.950747500801995
20
-61.567198943927728
30
-8.8817841970012523e-15
10
-73.874132312278149
20
-61.703400548400673
30
0
0
LWPOLYLINE
5
174
100
AcDbEntity
8
CUTOUTS
100
AcDbPolyline
90
8
70
1
43
0.0
10
-85.818558624267524
20
-59.311138505725907
10
-85.818558624267524
20
-63.208451005725912
10
-87.433058624267545
20
-63.208451005725912
10
-87.433058624267545
20
-54.156513505725911
10
-85.818558624267524
20
-54.156513505725911
10
-85.818558624267524
20
-57.895076005725905
10
-84.770036158073026
20
-57.895076005725905
10
-85.148147087392402
20
-59.311138505725907
0
SPLINE
5
175
100
AcDbEntity
8
CUTOUTS
100
AcDbSpline
70
0
71
3
72
8
73
4
74
0
42
0.000000001
43
0.0000000001
44
0.0000000001
40
-1
40
-1
40
-1
40
-1
40
0
40
0
40
0
40
0
10
-96.867556686401329
20
-58.68644858339313
30
-8.8817841970012523e-15
10
-96.867556686401329
20
-59.099840811212523
30
-8.8817841970012523e-15
10
-96.859607033586002
20
-59.512910827782328
30
0
10
-96.85167147897026
20
-59.925660194514656
30
0
0
SPLINE
5
176
100
AcDbEntity
8
CUTOUTS
100
AcDbSpline
70
0
71
3
72
8
73
4
74
0
42
0.000000001
43
0.0000000001
44
0.0000000001
40
-1
40
-1
40
-1
40
-1
40
-0.00074149044502395543
40
-0.00074149044502395543
40
-0.00074149044502395543
40
-0.00074149044502395543
10
-96.851671479024461
20
-59.9256601916954
30
0
10
-96.84372948814152
20
-60.338745538002925
30
0
10
-96.827856283013588
20
-60.751497696112608
30
-8.8817841970012523e-15
10
-96.811992964752875
20
-61.171837366632154
30
0
0
SPLINE
5
177
100
AcDbEntity
8
CUTOUTS
100
AcDbSpline
70
0
71
3
72
8
73
4
74
0
42
0.000000001
43
0.0000000001
44
0.0000000001
40
-0.99856359684765006
40
-0.99856359684765006
40
-0.99856359684765006
40
-0.99856359684765006
40
0
40
0
40
0
40
0
10
-96.811992964752832
20
-61.171837366632154
30
0
10
-96.811875845236386
20
-61.391875935266505
30
0
10
-96.771060000802422
20
-61.567198943927053
30
-8.8817841970012523e-15
10
-96.694444812278206
20
-61.703400548400673
30
0
0
SPLINE
5
178
100
AcDbEntity
8
CUTOUTS
100
AcDbSpline
70
0
71
3
72
8
73
4
74
0
42
0.000000001
43
0.0000000001
44
0.0000000001
40
-0.99999696183386011
40
-0.99999696183386011
40
-0.99999696183386011
40
-0.99999696183386011
40
-0.076424778741489424
40
-0.076424778741489424
40
-0.076424778741489424
40
-0.076424778741489424
10
-96.694444812295245
20
-61.703400548409626
30
0
10
-96.622467901514867
20
-61.831364454660999
30
-8.8817841970012523e-15
10
-96.511282591859924
20
-61.916366540151799
30
0
10
-96.375430717468248
20
-61.968128664198979
30
0
0
LINE
5
179
100
AcDbEntity
8
CUTOUTS
100
AcDbLine
10
-96.37543071746822
20
-61.968128664198979
30
-3.7168336799078849e-30
11
-96.37543071746822
21
-63.316081182855129
31
0
0
SPLINE
5
17A
100
AcDbEntity
8
CUTOUTS
100
AcDbSpline
70
0
71
3
72
8
73
4
74
0
42
0.000000001
43
0.0000000001
44
0.0000000001
40
-0.97638235962381681
40
-0.97638235962381681
40
-0.97638235962381681
40
-0.97638235962381681
40
-0.00038790769268481906
40
-0.00038790769268481906
40
-0.00038790769268481906
40
-0.00038790769268481906
10
-96.375430717468205
20
-63.316081182855129
30
0
10
-97.101982383573215
20
-63.263172054565942
30
0
10
-97.618072782382015
20
-63.068211951511543
30
-8.8817841970012523e-15
10
-97.931567775714839
20
-62.732609775114774
30
0
0
SPLINE
5
17B
100
AcDbEntity
8
CUTOUTS
100
AcDbSpline
70
0
71
3
72
8
73
4
74
0
42
0.000000001
43
0.0000000001
44
0.0000000001
40
-1
40
-1
40
-1
40
-1
40
-5.3110405382472692e-05
40
-5.3110405382472692e-05
40
-5.3110405382472692e-05
40
-5.3110405382472692e-05
10
-97.931570049593006
20
-62.732611902038606
30
0
10
-98.254026847527996
20
-62.379447833720583
30
0
10
-98.43457578199677
20
-61.837201291972612
30
0
10
-98.450315774727031
20
-61.074729713697316
30
0
0
SPLINE
5
17C
100
AcDbEntity
8
CUTOUTS
100
AcDbSpline
70
0
71
3
72
11
73
7
74
0
42
0.000000001
43
0.0000000001
44
0.0000000001
40
-1
40
-1
40
-1
40
-1
40
0
40
0
40
0
40
0.00043710943028473322
40
0.00043710943028473322
40
0.00043710943028473322
40
0.00043710943028473322
10
-98.450315923799948
20
-61.074729716755122
30
0
10
-98.458256925043827
20
-60.638134534272787
30
0
10
-98.466183624267529
20
-60.225645414385419
30
-8.8817841970012523e-15
10
-98.466183624267529
20
-59.837388505725897
30
-8.8817841970012523e-15
10
-98.466183624267529
20
-59.837218497688632
30
-8.8817841970012523e-15
10
-98.466183624267529
20
-59.837048489651366
30
-8.8817841970012523e-15
10
-98.466183624267529
20
-59.836878481614086
30
-8.8817841970012523e-15
0
SPLINE
5
17D
100
AcDbEntity
8
CUTOUTS
100
AcDbSpline
70
0
71
3
72
11
73
7
74
0
42
0.000000001
43
0.0000000001
44
0.0000000001
40
-1.0004370194829688
40
-1.0004370194829688
40
-1.0004370194829688
40
-1.0004370194829688
40
-1
40
-1
40
-1
40
0
40
0
40
0
40
0
10
-98.466183624239392
20
-59.836878481612345
30
-8.8817841970012523e-15
10
-98.466187092234634
20
-59.836708508030874
30
-8.8817841970012523e-15
10
-98.466190560229876
20
-59.836538534448287
30
-8.8817841970012523e-15
10
-98.466194028225132
20
-59.836368560865772
30
-8.8817841970012523e-15
10
-98.474115722788042
20
-59.448110012346397
30
-8.8817841970012523e-15
10
-98.474119186401325
20
-59.059513263492633
30
-8.8817841970012523e-15
10
-98.474119186401325
20
-58.678513021259342
30
-8.8817841970012523e-15
0
SPLINE
5
17E
100
AcDbEntity
8
CUTOUTS
100
AcDbSpline
70
0
71
3
72
8
73
4
74
0
42
0.000000001
43
0.0000000001
44
0.0000000001
40
-1
40
-1
40
-1
40
-1
40
0
40
0
40
0
40
0
10
-98.474119186401325
20
-58.678513021259342
30
-8.8817841970012523e-15
10
-98.474119186401325
20
-58.298207053487012
30
-8.8817841970012523e-15
10
-98.466183624267529
20
-57.909242267398866
30
-8.8817841970012523e-15
10
-98.466183624267529
20
-57.51170076349262
30
-8.8817841970012523e-15
0
SPLINE
5
17F
100
AcDbEntity
8
CUTOUTS
100
AcDbSpline
70
0
71
3
72
8
73
4
74
0
42
0.000000001
43
0.0000000001
44
0.0000000001
40
-1
40
-1
40
-1
40
-1
40
-9.0179559777081586e-05
40
-9.0179559777081586e-05
40
-9.0179559777081586e-05
40
-9.0179559777081586e-05
10
-98.466183624267529
20
-57.51170076349262
30
-8.8817841970012523e-15
10
-98.466183624267529
20
-57.123479282838431
30
-8.8817841970012523e-15
10
-98.458253644812842
20
-56.711035935724247
30
-8.8817841970012523e-15
10
-98.450318369346732
20
-56.282429771196291
30
0
0
SPLINE
5
180
100
AcDbEntity
8
CUTOUTS
100
AcDbSpline
70
0
71
3
72
8
73
4
74
0
42
0.000000001
43
0.0000000001
44
0.0000000001
40
-1
40
-1
40
-1
40
-1
40
-0.00037834537701986193
40
-0.00037834537701986193
40
-0.00037834537701986193
40
-0.00037834537701986193
10
-98.450318503842439
20
-56.282429768706457
30
0
10
-98.43459698801837
20
-55.527843785099435
30
8.8817841970012523e-15
10
-98.261944478932435
20
-54.98604768707316
30
0
10
-97.932342328622113
20
-54.633183465015726
30
0
0
SPLINE
5
181
100
AcDbEntity
8
CUTOUTS
100
AcDbSpline
70
0
71
3
72
8
73
4
74
0
42
0.000000001
43
0.0000000001
44
0.0000000001
40
-1
40
-1
40
-1
40
-1
40
-0.023400345424328377
40
-0.023400345424328377
40
-0.023400345424328377
40
-0.023400345424328377
10
-97.93234460286331
20
-54.633181343044647
30
0
10
-97.610543550798056
20
-54.296411844149411
30
0
10
-97.101894352432481
20
-54.101815669169973
30
0
10
-96.375430717468262
20
-54.056274935706831
30
8.8817841970012523e-15
0
LINE
5
182
100
AcDbEntity
8
CUTOUTS
100
AcDbLine
10
-96.375430717468262
20
-54.056274935706831
30
8.8817841970012492e-15
11
-96.37543071746822
21
-55.418520502667008
31
8.8817841970012523e-15
0
SPLINE
5
183
100
AcDbEntity
8
CUTOUTS
100
AcDbSpline
70
0
71
3
72
8
73
4
74
0
42
0.000000001
43
0.0000000001
44
0.0000000001
40
-0.92199780071399517
40
-0.92199780071399517
40
-0.92199780071399517
40
-0.92199780071399517
40
0
40
0
40
0
40
0
10
-96.375430717468248
20
-55.418520502667008
30
8.8817841970012523e-15
10
-96.51894195143656
20
-55.465552483968466
30
0
10
-96.622913178687782
20
-55.558180267937651
30
-8.8817841970012523e-15
10
-96.693740618020811
20
-55.67622279805078
30
0
0
SPLINE
5
184
100
AcDbEntity
8
CUTOUTS
100
AcDbSpline
70
0
71
3
72
8
73
4
74
0
42
0.000000001
43
0.0000000001
44
0.0000000001
40
-1
40
-1
40
-1
40
-1
40
-0.0014639618524099423
40
-0.0014639618524099423
40
-0.0014639618524099423
40
-0.0014639618524099423
10
-96.693740618020811
20
-55.67622279805078
30
0
10
-96.771455634052899
20
-55.805744311274992
30
-8.8817841970012523e-15
10
-96.811873592001589
20
-55.981011721145208
30
-8.8817841970012523e-15
10
-96.811992954963046
20
-56.20104278834156
30
-8.8817841970012523e-15
0
SPLINE
5
185
100
AcDbEntity
8
CUTOUTS
100
AcDbSpline
70
0
71
3
72
8
73
4
74
0
42
0.000000001
43
0.0000000001
44
0.0000000001
40
-0.99922984001542681
40
-0.99922984001542681
40
-0.99922984001542681
40
-0.99922984001542681
40
0
40
0
40
0
40
0
10
-96.811992954962832
20
-56.20104278834156
30
-8.8817841970012523e-15
10
-96.827857654486024
20
-56.613511890815744
30
-8.8817841970012523e-15
10
-96.84372995252842
20
-57.034176994930618
30
0
10
-96.85167147897026
20
-57.447236972271625
30
0
0
SPLINE
5
186
100
AcDbEntity
8
CUTOUTS
100
AcDbSpline
70
0
71
3
72
8
73
4
74
0
42
0.000000001
43
0.0000000001
44
0.0000000001
40
-0.99999952858596974
40
-0.99999952858596974
40
-0.99999952858596974
40
-0.99999952858596974
40
0
40
0
40
0
40
0
10
-96.851671478973685
20
-57.447236972271575
30
0
10
-96.859611889484114
20
-57.859988134199057
30
0
10
-96.867556686401329
20
-58.273056941702571
30
-8.8817841970012523e-15
10
-96.867556686401329
20
-58.68644858339313
30
-8.8817841970012523e-15
0
LWPOLYLINE
5
187
100
AcDbEntity
8
CUTOUTS
100
AcDbPolyline
90
5
70
1
43
0.0
10
-108.02293362426754
20
-63.208451005725912
10
-108.02293362426754
20
-56.196451005725912
10
-106.61970244025554
20
-56.196451005725912
10
-106.35287112426752
20
-60.4422081218882
10
-106.35287112426752
20
-63.208451005725905
0
SPLINE
5
188
100
AcDbEntity
8
CUTOUTS
100
AcDbSpline
70
0
71
3
72
8
73
4
74
0
42
0.000000001
43
0.0000000001
44
0.0000000001
40
-0.97473229181552268
40
-0.97473229181552268
40
-0.97473229181552268
40
-0.97473229181552268
40
0
40
0
40
0
40
0
10
-95.537244186401324
20
-54.057618761129504
30
8.8817841970012523e-15
10
-94.849912066158055
20
-54.118178184021943
30
8.8817841970012523e-15
10
-94.349752102294559
20
-54.31278534588958
30
8.8817841970012523e-15
10
-94.03629690035342
20
-54.64862922900349
30
0
0
SPLINE
5
189
100
AcDbEntity
8
CUTOUTS
100
AcDbSpline
70
0
71
3
72
11
73
7
74
0
42
0.000000001
43
0.0000000001
44
0.0000000001
40
-1
40
-1
40
-1
40
-1
40
0
40
0
40
0
40
6.0255757383282425e-05
40
6.0255757383282425e-05
40
6.0255757383282425e-05
40
6.0255757383282425e-05
10
-94.03629690035342
20
-54.64862922900349
30
0
10
-93.714356000891499
20
-54.993564904464918
30
0
10
-93.533551775862747
20
-55.536187503879376
30
8.8817841970012523e-15
10
-93.509970245243096
20
-56.282966360011059
30
-8.8817841970012523e-15
10
-93.50996881046126
20
-56.283011796618389
30
-8.8817841970012523e-15
10
-93.509967375679395
20
-56.283057233225648
30
-8.8817841970012523e-15
10
-93.509965940897672
20
-56.283102669829013
30
-8.8817841970012523e-15
0
SPLINE
5
18A
100
AcDbEntity
8
CUTOUTS
100
AcDbSpline
70
0
71
3
72
11
73
7
74
0
42
0.000000001
43
0.0000000001
44
0.0000000001
40
-1.0001059870646567
40
-1.0001059870646567
40
-1.0001059870646567
40
-1.0001059870646567
40
-1
40
-1
40
-1
40
0
40
0
40
0
40
0
10
-93.509965940903044
20
-56.283102669834022
30
-8.8817841970012523e-15
10
-93.509964258255764
20
-56.283148098615221
30
-8.8817841970012523e-15
10
-93.509962575608441
20
-56.283193527397223
30
-8.8817841970012523e-15
10
-93.509960892961146
20
-56.283238956179027
30
-8.8817841970012523e-15
10
-93.494083247623578
20
-56.711909943113625
30
0
10
-93.478223961557404
20
-57.124441118025267
30
0
10
-93.470296800172093
20
-57.504804603579942
30
-8.8817841970012523e-15
0
SPLINE
5
18B
100
AcDbEntity
8
CUTOUTS
100
AcDbSpline
70
0
71
3
72
8
73
4
74
0
42
0.000000001
43
0.0000000001
44
0.0000000001
40
-0.99996444009364749
40
-0.99996444009364749
40
-0.99996444009364749
40
-0.99996444009364749
40
0
40
0
40
0
40
0
10
-93.470296818071702
20
-57.504804603937821
30
-8.8817841970012523e-15
10
-93.462375153303853
20
-57.901012190049642
30
-8.8817841970012523e-15
10
-93.462372093200656
20
-58.289588342892465
30
-8.8817841970012523e-15
10
-93.462372093200656
20
-58.670575036792798
30
-8.8817841970012523e-15
0
SPLINE
5
18C
100
AcDbEntity
8
CUTOUTS
100
AcDbSpline
70
0
71
3
72
11
73
7
74
0
42
0.000000001
43
0.0000000001
44
0.0000000001
40
-1
40
-1
40
-1
40
-1
40
0
40
0
40
0
40
8.7383280807507008e-06
40
8.7383280807507008e-06
40
8.7383280807507008e-06
40
8.7383280807507008e-06
10
-93.462372093200656
20
-58.670575036792798
30
-8.8817841970012523e-15
10
-93.462372093200656
20
-59.051575279026068
30
-8.8817841970012523e-15
10
-93.462375556921856
20
-59.440173242218421
30
-8.8817841970012523e-15
10
-93.470297251312061
20
-59.828430573223869
30
-8.8817841970012523e-15
10
-93.470297320655476
20
-59.828433971876997
30
-8.8817841970012523e-15
10
-93.470297389998919
20
-59.828437370531667
30
-8.8817841970012523e-15
10
-93.470297459342206
20
-59.828440769178258
30
-8.8817841970012523e-15
0
SPLINE
5
18D
100
AcDbEntity
8
CUTOUTS
100
AcDbSpline
70
0
71
3
72
11
73
7
74
0
42
0.000000001
43
0.0000000001
44
0.0000000001
40
-1.0000085635759124
40
-1.0000085635759124
40
-1.0000085635759124
40
-1.0000085635759124
40
-1
40
-1
40
-1
40
0
40
0
40
0
40
0
10
-93.470297459342873
20
-59.828440769211213
30
-8.8817841970012523e-15
10
-93.470297527299309
20
-59.828444167862827
30
-8.8817841970012523e-15
10
-93.470297595256255
20
-59.828447566540241
30
-8.8817841970012523e-15
10
-93.470297663213273
20
-59.828450965220384
30
-8.8817841970012523e-15
10
-93.478220164772807
20
-60.224672777038755
30
0
10
-93.494082388575066
20
-60.629219360064496
30
0
10
-93.509960892767651
20
-61.057912323349022
30
0
0
SPLINE
5
18E
100
AcDbEntity
8
CUTOUTS
100
AcDbSpline
70
0
71
3
72
8
73
4
74
0
42
0.000000001
43
0.0000000001
44
0.0000000001
40
-0.99989823290054325
40
-0.99989823290054325
40
-0.99989823290054325
40
-0.99989823290054325
40
0
40
0
40
0
40
0
10
-93.509961429727156
20
-61.057912301033859
30
0
10
-93.541458811663105
20
-61.813183560752741
30
0
10
-93.714658788214692
20
-62.35584877879986
30
-8.8817841970012523e-15
10
-94.03629690035342
20
-62.700460040215049
30
0
0
SPLINE
5
18F
100
AcDbEntity
8
CUTOUTS
100
AcDbSpline
70
0
71
3
72
8
73
4
74
0
42
0.000000001
43
0.0000000001
44
0.0000000001
40
-1
40
-1
40
-1
40
-1
40
-0.024749507733428978
40
-0.024749507733428978
40
-0.024749507733428978
40
-0.024749507733428978
10
-94.03629690035342
20
-62.700460040215049
30
0
10
-94.350428160602718
20
-63.037028269410975
30
0
10
-94.842942378125571
20
-63.238589412179238
30
-8.8817841970012523e-15
10
-95.537244186401281
20
-63.292084507079942
30
0
0
LINE
5
190
100
AcDbEntity
8
CUTOUTS
100
AcDbLine
10
-95.537244186401296
20
-63.292084507079942
30
4.5657082206700764e-31
11
-95.53724418640131
21
-61.952827097903452
31
-6.1629758220391547e-32
0
SPLINE
5
191
100
AcDbEntity
8
CUTOUTS
100
AcDbSpline
70
0
71
3
72
8
73
4
74
0
42
0.000000001
43
0.0000000001
44
0.0000000001
40
-0.92561027534283202
40
-0.92561027534283202
40
-0.92561027534283202
40
-0.92561027534283202
40
-0.0014790801154854964
40
-0.0014790801154854964
40
-0.0014790801154854964
40
-0.0014790801154854964
10
-95.53724418640131
20
-61.952827097903452
30
0
10
-95.395341700061977
20
-61.90108637513945
30
0
10
-95.289982254378586
20
-61.814775360620551
30
0
10
-95.218572722649384
20
-61.68813537169995
30
0
0
SPLINE
5
192
100
AcDbEntity
8
CUTOUTS
100
AcDbSpline
70
0
71
3
72
8
73
4
74
0
42
0.000000001
43
0.0000000001
44
0.0000000001
40
-0.99846023431055109
40
-0.99846023431055109
40
-0.99846023431055109
40
-0.99846023431055109
40
-0.0021939929360301341
40
-0.0021939929360301341
40
-0.0021939929360301341
40
-0.0021939929360301341
10
-95.218572722649228
20
-61.688135371700021
30
0
10
-95.14065356311545
20
-61.557908769280118
30
0
10
-95.100860742767424
20
-61.375962388258543
30
0
10
-95.100682275964374
20
-61.156464677021589
30
0
0
SPLINE
5
193
100
AcDbEntity
8
CUTOUTS
100
AcDbSpline
70
0
71
3
72
8
73
4
74
0
42
0.000000001
43
0.0000000001
44
0.0000000001
40
-0.99884784943417204
40
-0.99884784943417204
40
-0.99884784943417204
40
-0.99884784943417204
40
0
40
0
40
0
40
0
10
-95.100682275964061
20
-61.156464677021589
30
0
10
-95.076877618415921
20
-60.743497458773341
30
0
10
-95.061006353228748
20
-60.322689927523207
30
-8.8817841970012523e-15
10
-95.053067862711288
20
-59.909786645095025
30
0
0
SPLINE
5
194
100
AcDbEntity
8
CUTOUTS
100
AcDbSpline
70
0
71
3
72
8
73
4
74
0
42
0.000000001
43
0.0000000001
44
0.0000000001
40
-0.99999952402956493
40
-0.99999952402956493
40
-0.99999952402956493
40
-0.99999952402956493
40
0
40
0
40
0
40
0
10
-95.053067862707806
20
-59.909786645095096
30
0
10
-95.045127452197221
20
-59.497036694328244
30
0
10
-95.037182655334433
20
-59.083967887766178
30
0
10
-95.037182655334433
20
-58.670576247959183
30
0
0
SPLINE
5
195
100
AcDbEntity
8
CUTOUTS
100
AcDbSpline
70
0
71
3
72
11
73
7
74
0
42
0.000000001
43
0.0000000001
44
0.0000000001
40
-1
40
-1
40
-1
40
-1
40
0
40
0
40
0
40
0.00038777541901656909
40
0.00038777541901656909
40
0.00038777541901656909
40
0.00038777541901656909
10
-95.037182655334433
20
-58.670576247959183
30
0
10
-95.037182655334433
20
-58.257184020139803
30
0
10
-95.045132308149775
20
-57.844114003570006
30
0
10
-95.053067862765502
20
-57.431364636837657
30
-8.8817841970012523e-15
10
-95.053070939981438
20
-57.431204582627366
30
-8.8817841970012523e-15
10
-95.05307401719736
20
-57.431044528417068
30
-8.8817841970012523e-15
10
-95.053077094413311
20
-57.430884474205655
30
-8.8817841970012523e-15
0
SPLINE
5
196
100
AcDbEntity
8
CUTOUTS
100
AcDbSpline
70
0
71
3
72
11
73
7
74
0
42
0.000000001
43
0.0000000001
44
0.0000000001
40
-1.0003875629026528
40
-1.0003875629026528
40
-1.0003875629026528
40
-1.0003875629026528
40
-1
40
-1
40
-1
40
0
40
0
40
0
40
0
10
-95.053077094386808
20
-57.430884474204291
30
-8.8817841970012523e-15
10
-95.05308324544572
20
-57.430724507711687
30
-8.8817841970012523e-15
10
-95.053089396504703
20
-57.430564541217663
30
-8.8817841970012523e-15
10
-95.053095547563686
20
-57.43040457472371
30
-8.8817841970012523e-15
10
-95.068965741081428
20
-57.017679022347984
30
-8.8817841970012523e-15
10
-95.084841716947338
20
-56.596991092397147
30
0
10
-95.100718632217649
20
-56.184216731379337
30
-8.8817841970012523e-15
0
SPLINE
5
197
100
AcDbEntity
8
CUTOUTS
100
AcDbSpline
70
0
71
3
72
8
73
4
74
0
42
0.000000001
43
0.0000000001
44
0.0000000001
40
-1
40
-1
40
-1
40
-1
40
-0.0015289191994635584
40
-0.0015289191994635584
40
-0.0015289191994635584
40
-0.0015289191994635584
10
-95.100718654527924
20
-56.184216151435471
30
-8.8817841970012523e-15
10
-95.108801877190302
20
-55.974128805136772
30
-8.8817841970012523e-15
10
-95.139672055955501
20
-55.79286315825825
30
0
10
-95.218571483890329
20
-55.660956061768935
30
0
0
SPLINE
5
198
100
AcDbEntity
8
CUTOUTS
100
AcDbSpline
70
0
71
3
72
8
73
4
74
0
42
0.000000001
43
0.0000000001
44
0.0000000001
40
-0.99852354194253357
40
-0.99852354194253357
40
-0.99852354194253357
40
-0.99852354194253357
40
-0.074388496258988773
40
-0.074388496258988773
40
-0.074388496258988773
40
-0.074388496258988773
10
-95.218571483890656
20
-55.660956061769127
30
0
10
-95.289976470885961
20
-55.534316242439388
30
8.8817841970012523e-15
10
-95.395336438490659
20
-55.448004047144124
30
8.8817841970012523e-15
10
-95.537244186401281
20
-55.396263017095706
30
8.8817841970012523e-15
0
LINE
5
199
100
AcDbEntity
8
CUTOUTS
100
AcDbLine
10
-95.537244186401281
20
-55.396263017095706
30
8.8817841970012507e-15
11
-95.537244186401324
21
-54.057618761129504
31
8.8817841970012523e-15
0
LWPOLYLINE
5
19A
100
AcDbEntity
8
CUTOUTS
100
AcDbPolyline
90
4
70
1
43
0.0
10
-82.675308624267529
20
-63.208451005725898
10
-84.289808624267522
20
-63.208451005725898
10
-84.289808624267522
20
-54.156513505725911
10
-82.675308624267529
20
-54.156513505725911
0
SPLINE
5
19B
100
AcDbEntity
8
CUTOUTS
100
AcDbSpline
70
0
71
3
72
8
73
4
74
0
42
0.000000001
43
0.0000000001
44
0.0000000001
40
-0.97473229181551968
40
-0.97473229181551968
40
-0.97473229181551968
40
-0.97473229181551968
40
0
40
0
40
0
40
0
10
-72.7089961242675
20
-54.057618761129504
30
0
10
-72.021664004024203
20
-54.118178184021922
30
8.8817841970012523e-15
10
-71.521504040160721
20
-54.31278534588958
30
8.8817841970012523e-15
10
-71.208048838219582
20
-54.648629229003475
30
0
0
SPLINE
5
19C
100
AcDbEntity
8
CUTOUTS
100
AcDbSpline
70
0
71
3
72
11
73
7
74
0
42
0.000000001
43
0.0000000001
44
0.0000000001
40
-1
40
-1
40
-1
40
-1
40
0
40
0
40
0
40
6.0255760215203185e-05
40
6.0255760215203185e-05
40
6.0255760215203185e-05
40
6.0255760215203185e-05
10
-71.208048838219582
20
-54.648629229003475
30
0
10
-70.886107938757675
20
-54.993564904464918
30
0
10
-70.70530371372891
20
-55.536187503879376
30
0
10
-70.681722183109258
20
-56.282966360011059
30
0
10
-70.681720748327351
20
-56.283011796620201
30
0
10
-70.681719313545443
20
-56.283057233229343
30
0
10
-70.681717878763592
20
-56.283102669836651
30
0
0
SPLINE
5
19D
100
AcDbEntity
8
CUTOUTS
100
AcDbSpline
70
0
71
3
72
11
73
7
74
0
42
0.000000001
43
0.0000000001
44
0.0000000001
40
-1.0001059870598181
40
-1.0001059870598181
40
-1.0001059870598181
40
-1.0001059870598181
40
-1
40
-1
40
-1
40
-3.6485033765742969e-05
40
-3.6485033765742969e-05
40
-3.6485033765742969e-05
40
-3.6485033765742969e-05
10
-70.681717878769135
20
-56.283102669836531
30
0
10
-70.681716196121783
20
-56.283148098619236
30
0
10
-70.681714513474518
20
-56.28319352739976
30
0
10
-70.681712830827252
20
-56.283238956180284
30
0
10
-70.665835750860438
20
-56.711894679010058
30
0
10
-70.649972215291953
20
-57.124411263180235
30
-8.8817841970012523e-15
10
-70.642049618444517
20
-57.504762335453449
30
-8.8817841970012523e-15
0
SPLINE
5
19E
100
AcDbEntity
8
CUTOUTS
100
AcDbSpline
70
0
71
3
72
8
73
4
74
0
42
0.000000001
43
0.0000000001
44
0.0000000001
40
-1
40
-1
40
-1
40
-1
40
0
40
0
40
0
40
0
10
-70.642049601078881
20
-57.504762335091819
30
-8.8817841970012523e-15
10
-70.634127091387654
20
-57.900984553594085
30
0
10
-70.634124031066818
20
-58.28957479455952
30
0
10
-70.634124031066818
20
-58.670575036792798
30
0
0
SPLINE
5
19F
100
AcDbEntity
8
CUTOUTS
100
AcDbSpline
70
0
71
3
72
11
73
7
74
0
42
0.000000001
43
0.0000000001
44
0.0000000001
40
-1
40
-1
40
-1
40
-1
40
0
40
0
40
0
40
8.7383549732581579e-06
40
8.7383549732581579e-06
40
8.7383549732581579e-06
40
8.7383549732581579e-06
10
-70.634124031066818
20
-58.670575036792798
30
0
10
-70.634124031066818
20
-59.051575279026068
30
0
10
-70.634127494788018
20
-59.440173242218421
30
0
10
-70.642049189178209
20
-59.828430573223869
30
-8.8817841970012523e-15
10
-70.642049258521951
20
-59.828433971892821
30
-8.8817841970012523e-15
10
-70.642049327865692
20
-59.828437370561971
30
-8.8817841970012523e-15
10
-70.642049397209263
20
-59.828440769222276
30
-8.8817841970012523e-15
0
SPLINE
5
1A0
100
AcDbEntity
8
CUTOUTS
100
AcDbSpline
70
0
71
3
72
11
73
7
74
0
42
0.000000001
43
0.0000000001
44
0.0000000001
40
-1.0000085635349012
40
-1.0000085635349012
40
-1.0000085635349012
40
-1.0000085635349012
40
-1
40
-1
40
-1
40
0
40
0
40
0
40
0
10
-70.642049397209419
20
-59.828440769231868
30
-8.8817841970012523e-15
10
-70.642049465165826
20
-59.828444167881514
30
-8.8817841970012523e-15
10
-70.642049533122218
20
-59.828447566530436
30
-8.8817841970012523e-15
10
-70.642049601078568
20
-59.828450965178035
30
-8.8817841970012523e-15
10
-70.649972102638984
20
-60.224672777038755
30
-8.8817841970012523e-15
10
-70.665834326441214
20
-60.629219360064496
30
0
10
-70.681712830633813
20
-61.057912323349022
30
0
0
SPLINE
5
1A1
100
AcDbEntity
8
CUTOUTS
100
AcDbSpline
70
0
71
3
72
8
73
4
74
0
42
0.000000001
43
0.0000000001
44
0.0000000001
40
-0.99989823290054325
40
-0.99989823290054325
40
-0.99989823290054325
40
-0.99989823290054325
40
0
40
0
40
0
40
0
10
-70.681713367593289
20
-61.057912301033859
30
0
10
-70.713210749529253
20
-61.813183560752741
30
0
10
-70.886410726080854
20
-62.35584877879986
30
0
10
-71.208048838219582
20
-62.700460040215049
30
0
0
SPLINE
5
1A2
100
AcDbEntity
8
CUTOUTS
100
AcDbSpline
70
0
71
3
72
8
73
4
74
0
42
0.000000001
43
0.0000000001
44
0.0000000001
40
-1
40
-1
40
-1
40
-1
40
-0.024749507733398953
40
-0.024749507733398953
40
-0.024749507733398953
40
-0.024749507733398953
10
-71.208048838219582
20
-62.700460040215049
30
0
10
-71.52218009846888
20
-63.037028269410989
30
0
10
-72.014694315991818
20
-63.238589412179287
30
0
10
-72.708996124267543
20
-63.292084507079991
30
-8.8817841970012523e-15
0
LINE
5
1A3
100
AcDbEntity
8
CUTOUTS
100
AcDbLine
10
-72.708996124267543
20
-63.292084507079991
30
-8.8817841970012523e-15
11
-72.708996124267486
21
-61.952827097903445
31
-8.8817841970012523e-15
0
SPLINE
5
1A4
100
AcDbEntity
8
CUTOUTS
100
AcDbSpline
70
0
71
3
72
8
73
4
74
0
42
0.000000001
43
0.0000000001
44
0.0000000001
40
-0.92561027534281159
40
-0.92561027534281159
40
-0.92561027534281159
40
-0.92561027534281159
40
-0.0014790801312345838
40
-0.0014790801312345838
40
-0.0014790801312345838
40
-0.0014790801312345838
10
-72.708996124267486
20
-61.952827097903437
30
-8.8817841970012523e-15
10
-72.567093637930611
20
-61.901086375140324
30
0
10
-72.461734192248258
20
-61.814775360623536
30
0
10
-72.390324660519227
20
-61.688135371706394
30
-8.8817841970012523e-15
0
SPLINE
5
1A5
100
AcDbEntity
8
CUTOUTS
100
AcDbSpline
70
0
71
3
72
8
73
4
74
0
42
0.000000001
43
0.0000000001
44
0.0000000001
40
-0.99846023432680742
40
-0.99846023432680742
40
-0.99846023432680742
40
-0.99846023432680742
40
-0.0021939929494692099
40
-0.0021939929494692099
40
-0.0021939929494692099
40
-0.0021939929494692099
10
-72.390324660519227
20
-61.688135371706394
30
-8.8817841970012523e-15
10
-72.312405500983914
20
-61.557908769287828
30
0
10
-72.272612680634708
20
-61.37596238826707
30
0
10
-72.272434213830564
20
-61.156464677030485
30
0
0
SPLINE
5
1A6
100
AcDbEntity
8
CUTOUTS
100
AcDbSpline
70
0
71
3
72
8
73
4
74
0
42
0.000000001
43
0.0000000001
44
0.0000000001
40
-0.99884784944135396
40
-0.99884784944135396
40
-0.99884784944135396
40
-0.99884784944135396
40
0
40
0
40
0
40
0
10
-72.272434213830763
20
-61.156464677030485
30
0
10
-72.248629556282339
20
-60.743497458779359
30
-8.8817841970012523e-15
10
-72.232758291094996
20
-60.322689927526191
30
0
10
-72.224819800577464
20
-59.909786645095046
30
0
0
SPLINE
5
1A7
100
AcDbEntity
8
CUTOUTS
100
AcDbSpline
70
0
71
3
72
8
73
4
74
0
42
0.000000001
43
0.0000000001
44
0.0000000001
40
-0.99999952402957204
40
-0.99999952402957204
40
-0.99999952402957204
40
-0.99999952402957204
40
0
40
0
40
0
40
0
10
-72.224819800573982
20
-59.909786645095096
30
0
10
-72.21687939006344
20
-59.497036694328258
30
0
10
-72.208934593200595
20
-59.083967887766178
30
0
10
-72.208934593200595
20
-58.670576247959183
30
0
0
SPLINE
5
1A8
100
AcDbEntity
8
CUTOUTS
100
AcDbSpline
70
0
71
3
72
11
73
7
74
0
42
0.000000001
43
0.0000000001
44
0.0000000001
40
-1
40
-1
40
-1
40
-1
40
0
40
0
40
0
40
0.00038777640426224211
40
0.00038777640426224211
40
0.00038777640426224211
40
0.00038777640426224211
10
-72.208934593200595
20
-58.670576247959183
30
0
10
-72.208934593200595
20
-58.257184020139803
30
0
10
-72.216884246015937
20
-57.844114003570006
30
0
10
-72.224819800631664
20
-57.431364636837657
30
0
10
-72.224822877855416
20
-57.431204582220701
30
0
10
-72.224825955079154
20
-57.431044527603767
30
0
10
-72.224829032302907
20
-57.430884472987287
30
0
0
SPLINE
5
1A9
100
AcDbEntity
8
CUTOUTS
100
AcDbSpline
70
0
71
3
72
11
73
7
74
0
42
0.000000001
43
0.0000000001
44
0.0000000001
40
-1.0003875619180844
40
-1.0003875619180844
40
-1.0003875619180844
40
-1.0003875619180844
40
-1
40
-1
40
-1
40
0
40
0
40
0
40
0
10
-72.224829032299795
20
-57.430884472986349
30
0
10
-72.22483518334316
20
-57.430724506898827
30
0
10
-72.224841334386525
20
-57.430564540810927
30
0
10
-72.224847485429876
20
-57.430404574723013
30
0
10
-72.240717678947604
20
-57.017679022347984
30
-8.8817841970012523e-15
10
-72.256593654813514
20
-56.596991092397147
30
0
10
-72.272470570083826
20
-56.184216731379337
30
0
0
SPLINE
5
1AA
100
AcDbEntity
8
CUTOUTS
100
AcDbSpline
70
0
71
3
72
8
73
4
74
0
42
0.000000001
43
0.0000000001
44
0.0000000001
40
-1
40
-1
40
-1
40
-1
40
-0.0015289191376357935
40
-0.0015289191376357935
40
-0.0015289191376357935
40
-0.0015289191376357935
10
-72.2724705923941
20
-56.184216151435471
30
0
10
-72.280553815056976
20
-55.974128805123769
30
-8.8817841970012523e-15
10
-72.311423993825258
20
-55.792863158235669
30
0
10
-72.390323421771171
20
-55.660956061744436
30
-8.8817841970012523e-15
0
SPLINE
5
1AB
100
AcDbEntity
8
CUTOUTS
100
AcDbSpline
70
0
71
3
72
8
73
4
74
0
42
0.000000001
43
0.0000000001
44
0.0000000001
40
-0.99852354188204817
40
-0.99852354188204817
40
-0.99852354188204817
40
-0.99852354188204817
40
-0.074388496258950845
40
-0.074388496258950845
40
-0.074388496258950845
40
-0.074388496258950845
10
-72.390323421770873
20
-55.660956061744258
30
-8.8817841970012523e-15
10
-72.461728408765666
20
-55.534316242427984
30
8.8817841970012523e-15
10
-72.567088376366144
20
-55.448004047140749
30
8.8817841970012523e-15
10
-72.7089961242675
20
-55.396263017095706
30
0
0
LINE
5
1AC
100
AcDbEntity
8
CUTOUTS
100
AcDbLine
10
-72.7089961242675
20
-55.396263017095706
30
-1.8594884763659059e-30
11
-72.7089961242675
21
-54.057618761129504
31
0
0
LWPOLYLINE
5
1AD
100
AcDbEntity
8
CUTOUTS
100
AcDbPolyline
90
5
70
1
43
0.0
10
-67.145354841301369
20
-56.258239003306258
10
-66.584894708613277
20
-54.156513505725911
10
-65.016617026081761
20
-54.156513505725911
10
-65.985320579697742
20
-57.239451005725918
10
-67.227746688832795
20
-57.239451005725918
0
SPLINE
5
1AE
100
AcDbEntity
8
CUTOUTS
100
AcDbSpline
70
0
71
3
72
11
73
7
74
0
42
0.000000001
43
0.0000000001
44
0.0000000001
40
-1
40
-1
40
-1
40
-1
40
0
40
0
40
0
40
0.0011565872427534935
40
0.0011565872427534935
40
0.0011565872427534935
40
0.0011565872427534935
10
-76.587249031066804
20
-60.662888021259349
30
0
10
-76.587249031066804
20
-60.766074552326252
30
0
10
-76.587263986494989
20
-60.883922408852406
30
0
10
-76.595098355110139
20
-61.017140155517502
30
-8.8817841970012523e-15
10
-76.595107533280057
20
-61.017296223629273
30
-8.8817841970012523e-15
10
-76.59511671144999
20
-61.017452291741023
30
-8.8817841970012523e-15
10
-76.595125889620007
20
-61.017608359854066
30
-8.8817841970012523e-15
0
SPLINE
5
1AF
100
AcDbEntity
8
CUTOUTS
100
AcDbSpline
70
0
71
3
72
11
73
7
74
0
42
0.000000001
43
0.0000000001
44
0.0000000001
40
-1.0001968032382405
40
-1.0001968032382405
40
-1.0001968032382405
40
-1.0001968032382405
40
-1
40
-1
40
-1
40
0
40
0
40
0
40
0
10
-76.595125889612859
20
-61.017608359853554
30
-8.8817841970012523e-15
10
-76.595132138497036
20
-61.01776457242331
30
-8.8817841970012523e-15
10
-76.595138387381226
20
-61.017920784993571
30
-8.8817841970012523e-15
10
-76.595144636265417
20
-61.01807699756381
30
-8.8817841970012523e-15
10
-76.626588500645653
20
-61.804125630468512
30
0
10
-76.83035532266797
20
-62.352940125277392
30
-8.8817841970012523e-15
10
-77.190544203978149
20
-62.690136883399717
30
0
0
SPLINE
5
1B0
100
AcDbEntity
8
CUTOUTS
100
AcDbSpline
70
0
71
3
72
8
73
4
74
0
42
0.000000001
43
0.0000000001
44
0.0000000001
40
-1
40
-1
40
-1
40
-1
40
-0.016567626506617871
40
-0.016567626506617871
40
-0.016567626506617871
40
-0.016567626506617871
10
-77.190544203978149
20
-62.690136883399717
30
0
10
-77.543836269524462
20
-63.020877073766599
30
-8.8817841970012523e-15
10
-78.127675588605413
20
-63.194727455461546
30
-8.8817841970012523e-15
10
-78.955809593200613
20
-63.200370869389644
30
-8.8817841970012523e-15
0
LINE
5
1B1
100
AcDbEntity
8
CUTOUTS
100
AcDbLine
10
-78.955809593200598
20
-63.200370869389637
30
-8.8817841970012507e-15
11
-78.955809593200598
21
-61.791773883545353
31
-8.8817841970012523e-15
0
SPLINE
5
1B2
100
AcDbEntity
8
CUTOUTS
100
AcDbSpline
70
0
71
3
72
11
73
7
74
0
42
0.000000001
43
0.0000000001
44
0.0000000001
40
-0.94422185570833961
40
-0.94422185570833961
40
-0.94422185570833961
40
-0.94422185570833961
40
0
40
0
40
0
40
0.0014048795619755238
40
0.0014048795619755238
40
0.0014048795619755238
40
0.0014048795619755238
10
-78.955809593200598
20
-61.79177388354536
30
-8.8817841970012523e-15
10
-78.721298952255538
20
-61.784823279422206
30
-8.8817841970012523e-15
10
-78.537240567242591
20
-61.71759369069737
30
0
10
-78.406893354832363
20
-61.587243992073446
30
0
10
-78.406714937850467
20
-61.587065571688456
30
0
10
-78.406536520868542
20
-61.586887151303465
30
0
10
-78.406358103886745
20
-61.586708730918566
30
0
0
SPLINE
5
1B3
100
AcDbEntity
8
CUTOUTS
100
AcDbSpline
70
0
71
3
72
11
73
7
74
0
42
0.000000001
43
0.0000000001
44
0.0000000001
40
-1.0013616585780607
40
-1.0013616585780607
40
-1.0013616585780607
40
-1.0013616585780607
40
-1
40
-1
40
-1
40
0
40
0
40
0
40
0
10
-78.40635810386334
20
-61.586708730940309
30
0
10
-78.406185169265882
20
-61.586524990816606
30
0
10
-78.406012234668395
20
-61.586341250692868
30
0
10
-78.405839300070909
20
-61.58615751056913
30
0
10
-78.26911122558289
20
-61.440886213269302
30
-8.8817841970012523e-15
10
-78.201747093200595
20
-61.243277743447678
30
0
10
-78.201747093200595
20
-60.99626399019246
30
0
0
LINE
5
1B4
100
AcDbEntity
8
CUTOUTS
100
AcDbLine
10
-78.201747093200595
20
-60.996263990192467
30
8.8817844003730829e-31
11
-78.201747093200595
21
-60.393015928058666
31
0
0
SPLINE
5
1B5
100
AcDbEntity
8
CUTOUTS
100
AcDbSpline
70
0
71
3
72
8
73
4
74
0
42
0.000000001
43
0.0000000001
44
0.0000000001
40
-1
40
-1
40
-1
40
-1
40
0
40
0
40
0
40
0
10
-78.201747093200595
20
-60.393015928058659
30
0
10
-78.201747093200595
20
-60.014987846438082
30
0
10
-78.255470669555592
20
-59.735864467029629
30
0
10
-78.3863730621337
20
-59.561327943592126
30
0
0
SPLINE
5
1B6
100
AcDbEntity
8
CUTOUTS
100
AcDbSpline
70
0
71
3
72
8
73
4
74
0
42
0.000000001
43
0.0000000001
44
0.0000000001
40
-1
40
-1
40
-1
40
-1
40
-0.052202266162475648
40
-0.052202266162475648
40
-0.052202266162475648
40
-0.052202266162475648
10
-78.3863730621337
20
-59.561327943592104
30
0
10
-78.509229121981463
20
-59.397519863795118
30
0
10
-78.704165879845718
20
-59.312073140721438
30
0
10
-78.955809593200613
20
-59.30387834349564
30
-8.8817841970012523e-15
0
LINE
5
1B7
100
AcDbEntity
8
CUTOUTS
100
AcDbLine
10
-78.955809593200613
20
-59.303878343495654
30
-8.8817841970012539e-15
11
-78.955809593200598
21
-57.894315109089973
31
-8.8817841970012507e-15
0
SPLINE
5
1B8
100
AcDbEntity
8
CUTOUTS
100
AcDbSpline
70
0
71
3
72
8
73
4
74
0
42
0.000000001
43
0.0000000001
44
0.0000000001
40
-0.9447209890674938
40
-0.9447209890674938
40
-0.9447209890674938
40
-0.9447209890674938
40
0
40
0
40
0
40
0
10
-78.955809593200584
20
-57.894315109089966
30
-8.8817841970012523e-15
10
-78.718913385355037
20
-57.885595140675761
30
0
10
-78.531299406375467
20
-57.798399015513368
30
0
10
-78.402477179714623
20
-57.629316771612913
30
-8.8817841970012523e-15
0
SPLINE
5
1B9
100
AcDbEntity
8
CUTOUTS
100
AcDbSpline
70
0
71
3
72
8
73
4
74
0
42
0.000000001
43
0.0000000001
44
0.0000000001
40
-0.99999863000193157
40
-0.99999863000193157
40
-0.99999863000193157
40
-0.99999863000193157
40
0
40
0
40
0
40
0
10
-78.402477179708285
20
-57.629316771617674
30
-8.8817841970012523e-15
10
-78.266895288383935
20
-57.45136866557533
30
0
10
-78.201747093200595
20
-57.209156967430459
30
0
10
-78.201747093200595
20
-56.900514716892275
30
0
0
LINE
5
1BA
100
AcDbEntity
8
CUTOUTS
100
AcDbLine
10
-78.201747093200595
20
-56.900514716892275
30
-9.8590782071490408e-31
11
-78.201747093200595
21
-56.249638747959175
31
0
0
SPLINE
5
1BB
100
AcDbEntity
8
CUTOUTS
100
AcDbSpline
70
0
71
3
72
11
73
7
74
0
42
0.000000001
43
0.0000000001
44
0.0000000001
40
-1
40
-1
40
-1
40
-1
40
0
40
0
40
0
40
0.0014771967275844849
40
0.0014771967275844849
40
0.0014771967275844849
40
0.0014771967275844849
10
-78.201747093200595
20
-56.249638747959175
30
0
10
-78.201747093200595
20
-56.033007402283175
30
0
10
-78.271669936430925
20
-55.864146341691139
30
-8.8817841970012523e-15
10
-78.409323597425541
20
-55.743698075533203
30
-8.8817841970012523e-15
10
-78.409511198547307
20
-55.743533922762516
30
-8.8817841970012523e-15
10
-78.409698799669073
20
-55.743369769991837
30
-8.8817841970012523e-15
10
-78.409886400790725
20
-55.743205617221292
30
-8.8817841970012523e-15
0
SPLINE
5
1BC
100
AcDbEntity
8
CUTOUTS
100
AcDbSpline
70
0
71
3
72
11
73
7
74
0
42
0.000000001
43
0.0000000001
44
0.0000000001
40
-1.001426032135962
40
-1.001426032135962
40
-1.001426032135962
40
-1.001426032135962
40
-1
40
-1
40
-1
40
-0.057721586643790831
40
-0.057721586643790831
40
-0.057721586643790831
40
-0.057721586643790831
10
-78.409886400787229
20
-55.743205617217207
30
-8.8817841970012523e-15
10
-78.410078827380502
20
-55.743047148359651
30
-8.8817841970012523e-15
10
-78.410271253973548
20
-55.742888679502272
30
-8.8817841970012523e-15
10
-78.410463680566579
20
-55.742730210644893
30
-8.8817841970012523e-15
10
-78.547761383040438
20
-55.629661586980681
30
0
10
-78.729549011409361
20
-55.571475958322722
30
-8.8817841970012523e-15
10
-78.955809593200598
20
-55.565213254515264
30
-8.8817841970012523e-15
0
LINE
5
1BD
100
AcDbEntity
8
CUTOUTS
100
AcDbLine
10
-78.955809593200598
20
-55.565213254515264
30
-8.8817841970012539e-15
11
-78.955809593200598
21
-54.156656258750019
31
-8.8817841970012523e-15
0
SPLINE
5
1BE
100
AcDbEntity
8
CUTOUTS
100
AcDbSpline
70
0
71
3
72
8
73
4
74
0
42
0.000000001
43
0.0000000001
44
0.0000000001
40
-0.98343764880230977
40
-0.98343764880230977
40
-0.98343764880230977
40
-0.98343764880230977
40
-0.0003809908008649554
40
-0.0003809908008649554
40
-0.0003809908008649554
40
-0.0003809908008649554
10
-78.955809593200598
20
-54.156656258750012
30
0
10
-78.127443307197083
20
-54.162293816804159
30
0
10
-77.527124185604876
20
-54.336035997743998
30
0
10
-77.158034408213851
20
-54.659656270941774
30
8.8817841970012523e-15
0
SPLINE
5
1BF
100
AcDbEntity
8
CUTOUTS
100
AcDbSpline
70
0
71
3
72
8
73
4
74
0
42
0.000000001
43
0.0000000001
44
0.0000000001
40
-1
40
-1
40
-1
40
-1
40
0
40
0
40
0
40
0
10
-77.158032183949729
20
-54.659653731723814
30
8.8817841970012523e-15
10
-76.782977532440313
20
-54.996436523179561
30
0
10
-76.587249031066804
20
-55.551535065759062
30
0
10
-76.587249031066804
20
-56.336951732425725
30
-8.8817841970012523e-15
0
LINE
5
1C0
100
AcDbEntity
8
CUTOUTS
100
AcDbLine
10
-76.587249031066804
20
-56.336951732425725
30
-8.8817841970012507e-15
11
-76.587249031066804
21
-56.646513747959169
31
-8.8817841970012523e-15
0
SPLINE
5
1C1
100
AcDbEntity
8
CUTOUTS
100
AcDbSpline
70
0
71
3
72
11
73
7
74
0
42
0.000000001
43
0.0000000001
44
0.0000000001
40
-1
40
-1
40
-1
40
-1
40
0
40
0
40
0
40
0.0022229675831225712
40
0.0022229675831225712
40
0.0022229675831225712
40
0.0022229675831225712
10
-76.587249031066804
20
-56.646513747959169
30
-8.8817841970012523e-15
10
-76.587249031066804
20
-56.741763505725899
30
-8.8817841970012523e-15
10
-76.587324466431909
20
-56.843777462877661
30
-8.8817841970012523e-15
10
-76.595011964124936
20
-56.936049727998743
30
-8.8817841970012523e-15
10
-76.595029604622312
20
-56.936261465122577
30
-8.8817841970012523e-15
10
-76.595047245119687
20
-56.936473202246411
30
-8.8817841970012523e-15
10
-76.595064885617049
20
-56.936684939370011
30
-8.8817841970012523e-15
0
SPLINE
5
1C2
100
AcDbEntity
8
CUTOUTS
100
AcDbSpline
70
0
71
3
72
11
73
7
74
0
42
0.000000001
43
0.0000000001
44
0.0000000001
40
-1.0005139148653994
40
-1.0005139148653994
40
-1.0005139148653994
40
-1.0005139148653994
40
-1
40
-1
40
-1
40
-0.00066437324943569649
40
-0.00066437324943569649
40
-0.00066437324943569649
40
-0.00066437324943569649
10
-76.595064885625689
20
-56.936684939369584
30
-8.8817841970012523e-15
10
-76.595077122725485
20
-56.936897057605968
30
-8.8817841970012523e-15
10
-76.595089359825266
20
-56.937109175842238
30
-8.8817841970012523e-15
10
-76.595101596925048
20
-56.937321294078529
30
-8.8817841970012523e-15
10
-76.618545132815839
20
-57.343692212980358
30
0
10
-76.712350526877685
20
-57.668419306745527
30
0
10
-76.864708004722729
20
-57.904810847605226
30
0
0
SPLINE
5
1C3
100
AcDbEntity
8
CUTOUTS
100
AcDbSpline
70
0
71
3
72
11
73
7
74
0
42
0.000000001
43
0.0000000001
44
0.0000000001
40
-0.99934564198268316
40
-0.99934564198268316
40
-0.99934564198268316
40
-0.99934564198268316
40
0
40
0
40
0
40
0.033713792991344221
40
0.033713792991344221
40
0.033713792991344221
40
0.033713792991344221
10
-76.864708004723283
20
-57.904810847604892
30
0
10
-77.025013608890262
20
-58.141228389316588
30
0
10
-77.260047049056084
20
-58.316342181686458
30
0
10
-77.592538874288763
20
-58.424595169454896
30
-8.8817841970012523e-15
10
-77.604045780592713
20
-58.428341598367865
30
0
10
-77.615552686896663
20
-58.432088027280813
30
0
10
-77.627059593200613
20
-58.435834456193774
30
0
0
LINE
5
1C4
100
AcDbEntity
8
CUTOUTS
100
AcDbLine
10
-77.627059593200613
20
-58.435834456193774
30
-4.1319231867990371e-31
11
-77.627059593200656
21
-58.785731490652473
31
0
0
SPLINE
5
1C5
100
AcDbEntity
8
CUTOUTS
100
AcDbSpline
70
0
71
3
72
11
73
7
74
0
42
0.000000001
43
0.0000000001
44
0.0000000001
40
-1.032322783009376
40
-1.032322783009376
40
-1.032322783009376
40
-1.032322783009376
40
-1
40
-1
40
-1
40
-0.0010744677203625818
40
-0.0010744677203625818
40
-0.0010744677203625818
40
-0.0010744677203625818
10
-77.627059593200599
20
-58.785731490652473
30
0
10
-77.615770798597353
20
-58.789579922004542
30
0
10
-77.604482003994107
20
-58.793428353356589
30
0
10
-77.593193209390847
20
-58.79727678470865
30
-8.8817841970012523e-15
10
-77.25207522601886
20
-58.913566361062529
30
0
10
-77.008939676027083
20
-59.089259953005595
30
-8.8817841970012523e-15
10
-76.849032940582859
20
-59.324919759847987
30
-8.8817841970012523e-15
0
SPLINE
5
1C6
100
AcDbEntity
8
CUTOUTS
100
AcDbSpline
70
0
71
3
72
11
73
7
74
0
42
0.000000001
43
0.0000000001
44
0.0000000001
40
-0.99893682810629769
40
-0.99893682810629769
40
-0.99893682810629769
40
-0.99893682810629769
40
0
40
0
40
0
40
0.00085333032217393414
40
0.00085333032217393414
40
0.00085333032217393414
40
0.00085333032217393414
10
-76.849032940582873
20
-59.324919759847987
30
-8.8817841970012523e-15
10
-76.696229967934059
20
-59.569775055459814
30
0
10
-76.602975097860778
20
-59.893311808559659
30
0
10
-76.595176026181051
20
-60.31456404803204
30
-8.8817841970012523e-15
10
-76.59516925452526
20
-60.314929806327953
30
-8.8817841970012523e-15
10
-76.595162482869469
20
-60.315295564623888
30
-8.8817841970012523e-15
10
-76.595155711213678
20
-60.315661322920022
30
-8.8817841970012523e-15
0
SPLINE
5
1C7
100
AcDbEntity
8
CUTOUTS
100
AcDbSpline
70
0
71
3
72
11
73
7
74
0
42
0.000000001
43
0.0000000001
44
0.0000000001
40
-1.0028748624542967
40
-1.0028748624542967
40
-1.0028748624542967
40
-1.0028748624542967
40
-1
40
-1
40
-1
40
0
40
0
40
0
40
0
10
-76.595155711214005
20
-60.315661322919027
30
-8.8817841970012523e-15
10
-76.595132897564312
20
-60.316026431844342
30
-8.8817841970012523e-15
10
-76.595110083914676
20
-60.316391540768855
30
-8.8817841970012523e-15
10
-76.59508727026504
20
-60.316756649693374
30
-8.8817841970012523e-15
10
-76.587273006377657
20
-60.441815880875033
30
0
10
-76.587249031066804
20
-60.55970149019246
30
0
10
-76.587249031066804
20
-60.662888021259349
30
0
0
LWPOLYLINE
5
1C8
100
AcDbEntity
8
CUTOUTS
100
AcDbPolyline
90
4
70
1
43
0.0
10
-88.168058624267545
20
-55.564638505725881
10
-92.949621124267523
20
-55.564638505725881
10
-92.949621124267523
20
-54.156513505725911
10
-88.168058624267545
20
-54.156513505725911
0
LWPOLYLINE
5
1C9
100
AcDbEntity
8
CUTOUTS
100
AcDbPolyline
90
5
70
1
43
0.0
10
-101.27605862426755
20
-63.208451005725912
10
-101.27605862426755
20
-60.4422081218882
10
-101.00922730827953
20
-56.196451005725905
10
-99.605996124267548
20
-56.196451005725912
10
-99.605996124267548
20
-63.208451005725912
0
LWPOLYLINE
5
1CA
100
AcDbEntity
8
CUTOUTS
100
AcDbPolyline
90
16
70
1
43
0.0
10
-104.27305251580674
20
-57.581463650564338
10
-104.12066014936555
20
-61.800326005725893
10
-103.50024038332859
20
-61.800326005725907
10
-103.35586895035546
20
-57.581471908844428
10
-102.60347534234774
20
-54.156513505725911
10
-99.605996124267548
20
-54.156513505725911
10
-99.605996124267548
20
-55.572576005725914
10
-101.57776995865621
20
-55.572576005725914
10
-102.06594831575475
20
-60.550394663353543
10
-102.81645834183635
20
-63.208451005725912
10
-104.86716470593989
20
-63.208451005725912
10
-105.55500009866267
20
-60.550905170205944
10
-106.05123226618319
20
-55.572576005725914
10
-108.02293362426752
20
-55.572576005725914
10
-108.02293362426752
20
-54.156513505725911
10
-105.01760689511946
20
-54.156513505725911
0
LWPOLYLINE
5
1CB
100
AcDbEntity
8
CUTOUTS
100
AcDbPolyline
90
4
70
1
43
0.0
10
-89.739683624267542
20
-63.208451005725898
10
-91.354183624267534
20
-63.208451005725898
10
-91.354183624267534
20
-56.196451005725912
10
-89.739683624267542
20
-56.196451005725912
0
LWPOLYLINE
5
1CC
100
AcDbEntity
8
CUTOUTS
100
AcDbPolyline
90
4
70
1
43
0.0
10
-81.432308624267506
20
-63.208451005725912
10
-81.432308624267534
20
-54.156513505725911
10
-79.817808624267514
20
-54.156513505725911
10
-79.817808624267485
20
-63.208451005725912
0
LWPOLYLINE
5
1CD
100
AcDbEntity
8
CUTOUTS
100
AcDbPolyline
90
10
70
1
43
0.0
10
-68.00616541636397
20
-56.258713142385226
10
-67.851405800102683
20
-57.863326005725916
10
-66.541698058790772
20
-57.863326005725916
10
-64.975560850335981
20
-63.208451005725898
10
-66.553179540253367
20
-63.208451005725898
10
-67.145393229608473
20
-60.99544195603049
10
-67.299901852513116
20
-59.271451005725886
10
-68.523548304231127
20
-59.271451005725886
10
-70.158459833911493
20
-54.156513505725911
10
-68.582323835300215
20
-54.156513505725911
0
LWPOLYLINE
5
1CE
100
AcDbEntity
8
CUTOUTS
100
AcDbPolyline
90
4
70
1
43
0.0
10
-52.938439074776511
20
-60.113709177541857
10
-52.938439074776511
20
-59.312546255159504
10
-51.608206549904679
20
-59.312546255159504
10
-51.608206549904679
20
-60.113709177541857
0
LWPOLYLINE
5
1CF
100
AcDbEntity
8
CUTOUTS
100
AcDbPolyline
90
4
70
1
43
0.0
10
-56.136113826058249
20
-62.364871801900989
10
-55.06169489981923
20
-62.364871801900989
10
-55.06169489981923
20
-63.212546314764147
10
-56.136113826058249
20
-63.212546314764147
0
LWPOLYLINE
5
1D0
100
AcDbEntity
8
CUTOUTS
100
AcDbPolyline
90
12
70
1
43
0.0
10
-57.241927901528214
20
-60.85324406819354
10
-57.241927901528214
20
-61.649755539465055
10
-56.753556052468156
20
-61.649755539465055
10
-56.753556052468156
20
-62.439290489721408
10
-57.241927901528214
20
-62.439290489721408
10
-57.241927901528214
20
-63.212546314764133
10
-58.281462613365989
20
-63.212546314764133
10
-58.281462613365989
20
-62.439290489721408
10
-59.059954544368537
20
-62.439290489721408
10
-58.616163584683008
20
-61.649755539465055
10
-58.29601893669809
20
-61.649755539465055
10
-57.859972217147003
20
-60.85324406819354
0
LWPOLYLINE
5
1D1
100
AcDbEntity
8
CUTOUTS
100
AcDbPolyline
90
4
70
1
43
0.0
10
-61.727694430834603
20
-61.691474670357664
10
-61.43648481956906
20
-60.347430111932859
10
-60.48536989457056
20
-60.347430111932859
10
-61.319321821202578
20
-63.201894610675595
0
LWPOLYLINE
5
1D2
100
AcDbEntity
8
CUTOUTS
100
AcDbPolyline
90
4
70
1
43
0.0
10
105.54555959850164
20
28.618147106169069
10
105.54555959849139
20
32.742221286069039
10
108.44555959849139
20
32.742221286069039
10
108.44555959850162
20
28.618147106169069
0
LWPOLYLINE
5
1D3
100
AcDbEntity
8
CUTOUTS
100
AcDbPolyline
90
4
70
1
43
0.0
10
105.54555959849131
20
36.018150322499771
10
105.54555959850174
20
54.774150377013804
10
108.4455595985017
20
54.774150377013783
10
108.44555959849129
20
36.018147160683185
0
LWPOLYLINE
5
1D4
100
AcDbEntity
8
CUTOUTS
100
AcDbPolyline
90
4
70
1
43
0.0
10
100.44555959871218
20
-43.093893990351944
10
97.545559598712188
20
-43.093893990351958
10
97.545559598701956
20
-38.969819810451966
10
100.44555959870193
20
-38.969819810451966
0
LWPOLYLINE
5
1D5
100
AcDbEntity
8
CUTOUTS
100
AcDbPolyline
90
4
70
1
43
0.0
10
100.44555959871226
20
-46.36982302678269
10
100.44555959870183
20
-65.125823081296701
10
97.545559598701871
20
-65.125823081296716
10
97.545559598712288
20
-46.36981986496609
0
LWPOLYLINE
5
1D6
100
AcDbEntity
8
CUTOUTS
100
AcDbPolyline
90
4
70
1
43
0.0
10
20.449487054252756
20
-63.997821445913232
10
20.449487054252756
20
-61.097821445913226
10
24.573561234152763
20
-61.097821445902987
10
24.573561234152763
20
-63.997821445902979
0
LWPOLYLINE
5
1D7
100
AcDbEntity
8
CUTOUTS
100
AcDbPolyline
90
4
70
1
43
0.0
10
-1.5824420366919902
20
-63.997821445902872
10
-1.5824420366919982
20
-61.097821445902881
10
17.173561179638629
20
-61.097821445913347
10
17.173558017822049
20
-63.997821445913331
0
LWPOLYLINE
5
1D8
100
AcDbEntity
8
CUTOUTS
100
AcDbPolyline
90
4
70
1
43
0.0
10
-19.554440401298098
20
-38.969819810451924
10
-19.554440401287842
20
-43.093893990351916
10
-22.454440401287851
20
-43.09389399035193
10
-22.454440401298086
20
-38.969819810451931
0
LWPOLYLINE
5
1D9
100
AcDbEntity
8
CUTOUTS
100
AcDbPolyline
90
4
70
1
43
0.0
10
-19.554440401298187
20
-65.125823081296673
10
-22.454440401298182
20
-65.125823081296673
10
-22.454440401287737
20
-46.369819864966061
10
-19.554440401287746
20
-46.369823026782633
0
LWPOLYLINE
5
1DA
100
AcDbEntity
8
CUTOUTS
100
AcDbPolyline
90
4
70
1
43
0.0
10
-91.922511310510828
20
47.374150377046192
10
-91.922511310510828
20
50.274150377046205
10
-87.798437130610836
20
50.274150377056444
10
-87.798437130610836
20
47.374150377056452
0
LWPOLYLINE
5
1DB
100
AcDbEntity
8
CUTOUTS
100
AcDbPolyline
90
4
70
1
43
0.0
10
-113.9544404014556
20
47.374150377056552
10
-113.9544404014556
20
50.274150377056543
10
-95.198437185124959
20
50.274150377046098
10
-95.198440346941567
20
47.374150377046107
0
LWPOLYLINE
5
1DC
100
AcDbEntity
8
CUTOUTS
100
AcDbPolyline
90
16
70
1
43
0.0
10
-61.974999999999945
20
42.502175996723153
42
0.41421356237310047
10
-62.924999999999955
20
43.452175996723142
10
-91.499999999999943
20
43.452175996723142
42
0.41421356237309503
10
-93.949999999999946
20
41.002175996723153
10
-93.949999999999946
20
33.002175996723153
42
0.4142135623730972
10
-91.499999999999929
20
30.552175996723161
10
-77.365207936407188
20
30.552175996723165
42
-0.4142135623730942
10
-74.315207936407191
20
27.50217599672316
10
-74.315207936407205
20
16.962673325481219
42
-0.34415766961456884
10
-76.625547702748833
20
14.003720345330212
42
6.3742027845709268
10
-67.489436591637698
20
13.397344743573392
42
-0.30750035262155423
10
-69.415207936407214
20
16.232588988917815
10
-69.415207936407199
20
27.502175996723153
42
-0.4142135623730972
10
-66.365207936407202
20
30.552175996723161
10
-62.924999999999933
20
30.552175996723161
42
0.41421356237309637
10
-61.974999999999945
20
31.50217599672316
0
LINE
5
1DD
100
AcDbEntity
8
PERIMETER
100
AcDbLine
10
84.14657373429921
20
-69.32799999999763
30
0
11
103.14254473155636
21
-69.327999999997658
31
-1.0518247049552888e-29
0
ARC
5
1DE
100
AcDbEntity
8
PERIMETER
100
AcDbCircle
10
103.14254473155644
20
-55.177999999997638
30
8.8817841970012523e-15
40
14.150000000000018
210
-1.4380311691032307e-30
220
-6.276879291166962e-16
230
1
100
AcDbArc
50
269.9999999999996
51
360
0
LINE
5
1DF
100
AcDbEntity
8
PERIMETER
100
AcDbLine
10
117.29254473155646
20
-55.177999999997652
30
8.8817841970012176e-15
11
117.29254473155643
21
-41.914546476078144
31
0
0
LINE
5
1E0
100
AcDbEntity
8
PERIMETER
100
AcDbLine
10
117.29254473155643
20
-41.914546476078144
30
0
11
118.49254473155645
21
-41.914546476078129
31
5.3332987097167484e-30
0
LINE
5
1E1
100
AcDbEntity
8
PERIMETER
100
AcDbLine
10
118.49254473155645
20
-41.914546476078129
30
5.3332987097167484e-30
11
118.49254473155645
21
-10.099999999990352
31
0
0
LINE
5
1E2
100
AcDbEntity
8
PERIMETER
100
AcDbLine
10
118.49254473155645
20
-10.099999999990352
30
0
11
118.49249900590749
21
-10.100000000004918
31
8.8817841970012523e-15
0
LINE
5
1E3
100
AcDbEntity
8
PERIMETER
100
AcDbLine
10
118.49249900590749
20
-10.100000000004918
30
8.8817841970012523e-15
11
118.49249900590749
21
44.085453517226512
31
8.8817841970012523e-15
0
LINE
5
1E4
100
AcDbEntity
8
PERIMETER
100
AcDbLine
10
118.49249900590749
20
44.085453517226512
30
8.8817841970012523e-15
11
118.49281239013169
21
44.085453517226519
31
2.1728700969792614e-36
0
LINE
5
1E5
100
AcDbEntity
8
PERIMETER
100
AcDbLine
10
118.49281239013169
20
44.085453517226519
30
2.1728700969792614e-36
11
118.49281239013169
21
47.6027462498582
31
0
0
LINE
5
1E6
100
AcDbEntity
8
PERIMETER
100
AcDbLine
10
118.49281239013169
20
47.6027462498582
30
0
11
118.33349900590747
21
47.602746249858193
31
-1.1046098108669737e-33
0
LINE
5
1E7
100
AcDbEntity
8
PERIMETER
100
AcDbLine
10
118.33349900590747
20
47.602746249858193
30
-1.1046098108669737e-33
11
118.33349900590747
21
50.652746249854246
31
0
0
SPLINE
5
1E8
100
AcDbEntity
8
PERIMETER
100
AcDbSpline
70
0
71
3
72
23
73
19
74
0
42
0.000000001
43
0.0000000001
44
0.0000000001
40
0.37030699100335601
40
0.37030699100335601
40
0.37030699100335601
40
0.37030699100335601
40
0.96136322854946821
40
0.96136322854946821
40
0.96136322854946821
40
1.2997859228581174
40
1.2997859228581174
40
1.2997859228581174
40
1.5227514056931675
40
1.5227514056931675
40
1.5227514056931675
40
1.8199984917648075
40
1.8199984917648075
40
1.8199984917648075
40
2.0043651549405848
40
2.0043651549405848
40
2.0043651549405848
40
2.0462287995924124
40
2.0462287995924124
40
2.0462287995924124
40
2.0462287995924124
10
112.93011771128867
20
65.712517301565299
30
0
10
114.38391713567566
20
64.332102359012154
30
0
10
115.59734913050255
20
62.69439351173795
30
0
10
116.49417912115319
20
60.905111684271851
30
0
10
117.00769909365206
20
59.880578646336168
30
0
10
117.41946329965569
20
58.8056543839241
30
8.8817841970012523e-15
10
117.72217510482257
20
57.695684665123153
30
8.8817841970012523e-15
10
117.92162712946676
20
56.964343158350623
30
0
10
118.0539301838232
20
56.295132162266491
30
0
10
118.14567271397567
20
55.676725551853686
30
8.8817841970012523e-15
10
118.26803067307067
20
54.851950274616399
30
0
10
118.33349900590746
20
54.074716366371696
30
0
10
118.33349900590746
20
53.130755467201453
30
0
10
118.33349900590747
20
52.557324218057808
30
0
10
118.3334990059075
20
51.922227944858761
30
0
10
118.33349900590753
20
51.175902220942938
30
0
10
118.33349900590753
20
51.006436036751374
30
0
10
118.33349900590747
20
50.829030964786035
30
0
10
118.33349900590747
20
50.652746249854282
30
0
0
SPLINE
5
1E9
100
AcDbEntity
8
PERIMETER
100
AcDbSpline
70
0
71
3
72
11
73
7
74
0
42
0.000000001
43
0.0000000001
44
0.0000000001
40
-1.2075900177425554
40
-1.2075900177425554
40
-1.2075900177425554
40
-1.2075900177425554
40
-0.68725355780098529
40
-0.68725355780098529
40
-0.68725355780098529
40
-0.00016995885231081763
40
-0.00016995885231081763
40
-0.00016995885231081763
40
-0.00016995885231081763
10
112.93011771128343
20
65.712517301570287
30
0
10
111.68018191604938
20
66.899359186377922
30
0
10
110.25812108864548
20
67.895408546743269
30
0
10
108.70958192995258
20
68.665556889765597
30
0
10
106.6647977595189
20
69.682507046858831
30
0
10
104.43920010966272
20
70.285803894646207
30
0
10
102.16077740771111
20
70.44076632847127
30
-8.8817841970012523e-15
0
LINE
5
1EA
100
AcDbEntity
8
PERIMETER
100
AcDbLine
10
102.16077740771109
20
70.44076632847127
30
-8.8817841970012555e-15
11
-69.035453921304509
21
70.440766328471241
31
-8.8817841970012649e-15
0
ARC
5
1EB
100
AcDbEntity
8
PERIMETER
100
AcDbCircle
10
-69.035453921304409
20
68.490766328471238
30
0
40
1.9500000000000117
210
-2.1656795000799874e-28
220
4.554761126667288e-15
230
1
100
AcDbArc
50
90.000000000002927
51
180
0
LINE
5
1EC
100
AcDbEntity
8
PERIMETER
100
AcDbLine
10
-70.98545392130444
20
68.490766328471238
30
-1.77634485561088e-29
11
-70.985453921304426
21
61.335453523977861
31
4.9303806576313238e-31
0
ARC
5
1ED
100
AcDbEntity
8
PERIMETER
100
AcDbCircle
10
-76.035453921304438
20
61.335453523977861
30
0
40
5.0499999999999989
210
-6.9335656652192083e-33
220
-1.2736753497883037e-48
230
1
100
AcDbArc
50
-90
51
0
0
LINE
5
1EE
100
AcDbEntity
8
PERIMETER
100
AcDbLine
10
-76.035453921304438
20
56.285453523977864
30
-6.4320605164309328e-48
11
-82.285453921304423
21
56.285453523977864
31
8.8817841970012555e-15
0
ARC
5
1EF
100
AcDbEntity
8
PERIMETER
100
AcDbCircle
10
-82.285453921304438
20
65.085453523977861
30
0
40
8.8000000000000078
210
-6.9335656652192083e-33
220
-6.0139095658185305e-50
230
1
100
AcDbArc
50
180
51
270.00000000000011
0
LINE
5
1F0
100
AcDbEntity
8
PERIMETER
100
AcDbLine
10
-91.085453921304449
20
65.085453523977861
30
-6.1015377853929086e-32
11
-91.085453921304435
21
68.490766328471238
31
0
0
ARC
5
1F1
100
AcDbEntity
8
PERIMETER
100
AcDbCircle
10
-93.035453921304395
20
68.490766328471267
30
0
40
1.9499999999999673
210
6.4647041834110657e-61
220
4.7310963946138872e-47
230
1
100
AcDbArc
50
0
51
90.000000000001691
0
LINE
5
1F2
100
AcDbEntity
8
PERIMETER
100
AcDbLine
10
-93.035453921304452
20
70.440766328471241
30
3.4009391810879256e-43
11
-102.16077740769984
21
70.440766328471241
31
-6.3271029609289772e-32
0
SPLINE
5
1F3
100
AcDbEntity
8
PERIMETER
100
AcDbSpline
70
0
71
3
72
26
73
22
74
0
42
0.000000001
43
0.0000000001
44
0.0000000001
40
60.312743724298059
40
60.312743724298059
40
60.312743724298059
40
60.312743724298059
40
61.037933801502191
40
61.037933801502191
40
61.037933801502191
40
61.202226640263476
40
61.202226640263476
40
61.202226640263476
40
62.548142623026948
40
62.548142623026948
40
62.548142623026948
40
63.279413738814014
40
63.279413738814014
40
63.279413738814014
40
67.773902239028118
40
67.773902239028118
40
67.773902239028118
40
71.969554502371238
40
71.969554502371238
40
71.969554502371238
40
71.974483775392841
40
71.974483775392841
40
71.974483775392841
40
71.974483775392841
10
-118.33349900602099
20
50.035453523922044
30
0
10
-118.33349900602099
20
51.1061666404349
30
-8.8817841970012523e-15
10
-118.33349900602099
20
51.990192060532728
30
-8.8817841970012523e-15
10
-118.33349900602099
20
52.682635036958231
30
-8.8817841970012523e-15
10
-118.33349900602099
20
52.839508973672665
30
-8.8817841970012523e-15
10
-118.33349900602099
20
52.988449938461308
30
-8.8817841970012523e-15
10
-118.33349900602099
20
53.13075546719211
30
-8.8817841970012523e-15
10
-118.33349900602099
20
54.321827079295034
30
-8.8817841970012523e-15
10
-118.25686899657452
20
55.051486659458931
30
-8.8817841970012523e-15
10
-118.08529961805479
20
56.054882256866698
30
8.8817841970012523e-15
10
-117.99224347372366
20
56.599105977551602
30
8.8817841970012523e-15
10
-117.85634422234942
20
57.215814475867582
30
0
10
-117.69541202034043
20
57.792708814397777
30
0
10
-116.70604963804803
20
61.339280289678896
30
0
10
-114.55190250756843
20
64.555307300906321
30
0
10
-111.64207798216546
20
66.820795297775916
30
0
10
-108.92564750364375
20
68.935713427613805
30
0
10
-105.58952719206204
20
70.205174083358543
30
0
10
-102.17282086760541
20
70.439943007002654
30
0
10
-102.16880647343471
20
70.440218844288339
30
0
10
-102.16479198655617
20
70.440493284792439
30
0
10
-102.16077740769984
20
70.440766328471256
30
0
0
LINE
5
1F4
100
AcDbEntity
8
PERIMETER
100
AcDbLine
10
-118.33349900602099
20
50.035453523922044
30
0
11
-118.33349900602099
21
-20.810390304337201
31
0
0
LINE
5
1F5
100
AcDbEntity
8
PERIMETER
100
AcDbLine
10
-118.33349900602099
20
-20.810390304337201
30
0
11
-109.36278832790236
21
-29.78110098245585
31
-1.5481395264962357e-28
0
LINE
5
1F6
100
AcDbEntity
8
PERIMETER
100
AcDbLine
10
-109.36278832790236
20
-29.78110098245585
30
-1.5481395264962357e-28
11
-96.362788327902322
21
-29.78110098245585
31
-1.6848564566583117e-30
0
LINE
5
1F7
100
AcDbEntity
8
PERIMETER
100
AcDbLine
10
-96.362788327902322
20
-29.78110098245585
30
-1.6848564566583117e-30
11
-90.333499006020958
21
-35.810390304337211
31
-7.4448747930232989e-29
0
LINE
5
1F8
100
AcDbEntity
8
PERIMETER
100
AcDbLine
10
-90.333499006020958
20
-35.810390304337211
30
-7.4448747930232989e-29
11
-90.333499006020958
21
-42.851811660574484
31
4.9303806576313238e-31
0
LINE
5
1F9
100
AcDbEntity
8
PERIMETER
100
AcDbLine
10
-90.333499006020958
20
-42.851811660574484
30
4.9303806576313238e-31
11
-96.362788327902322
21
-48.881100982455848
31
-7.4448747930232989e-29
0
LINE
5
1FA
100
AcDbEntity
8
PERIMETER
100
AcDbLine
10
-96.362788327902322
20
-48.881100982455848
30
-7.4448747930232989e-29
11
-117.633499006021
21
-48.881100982455862
31
-1.4748186923261534e-31
0
SPLINE
5
1FB
100
AcDbEntity
8
PERIMETER
100
AcDbSpline
70
0
71
3
72
29
73
25
74
0
42
0.000000001
43
0.0000000001
44
0.0000000001
40
4.7300782339795049
40
4.7300782339795049
40
4.7300782339795049
40
4.7300782339795049
40
4.7350782339798148
40
4.7350782339798148
40
4.7350782339798148
40
12.262003529783744
40
12.262003529783744
40
12.262003529783744
40
13.319740620883621
40
13.319740620883621
40
13.319740620883621
40
16.897001816830088
40
16.897001816830088
40
16.897001816830088
40
20.41849009358468
40
20.41849009358468
40
20.41849009358468
40
23.940267050354372
40
23.940267050354372
40
23.940267050354372
40
28.308431257020352
40
28.308431257020352
40
28.308431257020352
40
35.096829930692437
40
35.096829930692437
40
35.096829930692437
40
35.096829930692437
10
-22.300781967266019
20
-69.780755467195988
30
0
10
-22.317448633933729
20
-69.780755467195988
30
0
10
-22.334115300601425
20
-69.780755467195988
30
0
10
-22.350781967269128
20
-69.780755467195988
30
0
10
-47.440532953282222
20
-69.78075546719505
30
0
10
-72.530283939295344
20
-69.780755467194012
30
0
10
-97.620034925308445
20
-69.780755467193018
30
0
10
-101.1458252289747
20
-69.780755467192876
30
0
10
-101.63383966620916
20
-69.780755468644614
30
8.8817841970012523e-15
10
-102.2822061376219
20
-69.730026900751795
30
8.8817841970012523e-15
10
-104.47497812863699
20
-69.55846315135355
30
8.8817841970012523e-15
10
-106.61219884207775
20
-68.954086245907732
30
0
10
-108.570090462675
20
-67.951890887360051
30
0
10
-110.4974566826485
20
-66.965320711790369
30
0
10
-112.21399411746893
20
-65.612204083501624
30
0
10
-113.6233468749773
20
-63.968491802370096
30
0
10
-115.0328151566614
20
-62.324644786690826
30
0
10
-116.10815971056945
20
-60.421512871350977
30
0
10
-116.78901458766768
20
-58.365971489708841
30
-8.8817841970012523e-15
10
-117.63349904553705
20
-55.816422668523494
30
0
10
-117.633499006021
20
-53.751576064973385
30
8.8817841970012523e-15
10
-117.633499006021
20
-52.891400386090098
30
8.8817841970012523e-15
10
-117.633499006021
20
-51.554633918212012
30
8.8817841970012523e-15
10
-117.633499006021
20
-50.217867450333948
30
8.8817841970012523e-15
10
-117.633499006021
20
-48.881100982455862
30
8.8817841970012523e-15
0
LINE
5
1FC
100
AcDbEntity
8
PERIMETER
100
AcDbLine
10
-22.300781967266019
20
-69.780755467195988
30
0
11
-22.30078196726598
21
-69.780825928912989
31
0
0
LINE
5
1FD
100
AcDbEntity
8
PERIMETER
100
AcDbLine
10
-22.30078196726598
20
-69.780825928912989
30
0
11
22.363218032730884
21
-69.780825928912989
31
-3.2403048437409509e-30
0
LINE
5
1FE
100
AcDbEntity
8
PERIMETER
100
AcDbLine
10
22.363218032730884
20
-69.780825928912989
30
-3.2403048437409509e-30
11
22.363218032730877
21
-69.780755467197764
31
0
0
LINE
5
1FF
100
AcDbEntity
8
PERIMETER
100
AcDbLine
10
25.050000374673207
20
-69.780755467197878
30
0
11
22.363218032730877
21
-69.780755467197764
31
0
0
LINE
5
200
100
AcDbEntity
8
PERIMETER
100
AcDbLine
10
25.050000374673207
20
-69.780755467197878
30
0
11
25.050000374673207
21
-69.781000769882212
31
0
0
LINE
5
201
100
AcDbEntity
8
PERIMETER
100
AcDbLine
10
25.050000374673207
20
-69.781000769882212
30
0
11
27.950000374672307
21
-69.78100076988224
31
-1.4179835142020165e-29
0
LINE
5
202
100
AcDbEntity
8
PERIMETER
100
AcDbLine
10
27.950000374672307
20
-69.78100076988224
30
-1.4179835142020165e-29
11
27.950000374672307
21
-69.780755467197949
31
0
0
LINE
5
203
100
AcDbEntity
8
PERIMETER
100
AcDbLine
10
27.950000374672307
20
-69.780755467197949
30
0
11
33.279015456947349
21
-69.780755467198162
31
-8.161272019807954e-29
0
LINE
5
204
100
AcDbEntity
8
PERIMETER
100
AcDbLine
10
33.279015456947349
20
-69.780755467198162
30
-8.161272019807954e-29
11
37.949999999936999
21
-65.105701884469411
31
-2.7610131682735413e-29
0
LINE
5
205
100
AcDbEntity
8
PERIMETER
100
AcDbLine
10
37.949999999936999
20
-65.105701884469411
30
-2.7610131682735413e-29
11
37.949999999937233
21
-21.127633902659547
31
0
0
ARC
5
206
100
AcDbEntity
8
PERIMETER
100
AcDbCircle
10
31.499999999937238
20
-21.127633902659511
30
0
40
6.4500000000000002
210
2.7156946983117389e-46
220
4.9303806576455382e-32
230
1
100
AcDbArc
50
0
51
90.000000000000298
0
LINE
5
207
100
AcDbEntity
8
PERIMETER
100
AcDbLine
10
31.499999999937206
20
-14.677633902659512
30
-3.1800955240437338e-31
11
17.983456200635672
21
-14.677633902649854
31
-1.7667719734937178e-28
0
ARC
5
208
100
AcDbEntity
8
PERIMETER
100
AcDbCircle
10
-6.2627609307393826e-11
20
-0.50000000000002698
30
0
40
22.899999999999991
210
1.5404001853244448e-28
220
9.1911831971652664e-30
230
1
100
AcDbArc
50
271.78517767013454
51
321.74878147126896
0
LINE
5
209
100
AcDbEntity
8
PERIMETER
100
AcDbLine
10
0.71338508734489481
20
-23.388885549914072
30
1.0048608818318461e-28
11
-6.2649191390207193e-11
21
-26.242425899544312
31
-5.3987668201062995e-29
0
LINE
5
20A
100
AcDbEntity
8
PERIMETER
100
AcDbLine
10
-6.2649191390207193e-11
20
-26.242425899544312
30
-5.3987668201062995e-29
11
-0.71338508747017837
21
-23.388885549914072
31
5.3987668201062995e-29
0
ARC
5
20B
100
AcDbEntity
8
PERIMETER
100
AcDbCircle
10
-6.2627609307393826e-11
20
-0.50000000000002698
30
0
40
22.899999999999999
210
-8.519129892154499e-29
220
5.3500993601563228e-30
230
1
100
AcDbArc
50
-20.552686888054456
51
268.2148223298654
0
LINE
5
20C
100
AcDbEntity
8
PERIMETER
100
AcDbLine
10
21.442409428134802
20
-8.5394700020306384
30
1.8697186745095812e-27
11
21.442409428134788
21
-10.999999999997144
31
0
0
LINE
5
20D
100
AcDbEntity
8
PERIMETER
100
AcDbLine
10
21.442409428134788
20
-10.999999999997144
30
0
11
70.876958755763653
21
-10.999999999996369
31
3.1007900309231886e-28
0
LINE
5
20E
100
AcDbEntity
8
PERIMETER
100
AcDbLine
10
70.876958755763653
20
-10.999999999996369
30
3.1007900309231886e-28
11
70.876958755763695
21
-5.0820514920216375
31
8.8817841970012507e-15
0
ARC
5
20F
100
AcDbEntity
8
PERIMETER
100
AcDbCircle
10
72.999999999937387
20
-0.50000000000003031
30
0
40
5.0499999999999998
210
6.8736093639238857e-29
220
-1.0149364911068772e-28
230
1
100
AcDbArc
50
-42.946113205494626
51
245.13989062075044
0
LINE
5
210
100
AcDbEntity
8
PERIMETER
100
AcDbLine
10
76.696573734283703
20
-3.9406166055724769
30
-6.0328877283875521e-28
11
76.69657373429925
21
-61.87799999999757
31
0
0
ARC
5
211
100
AcDbEntity
8
PERIMETER
100
AcDbCircle
10
84.14657373429921
20
-61.877999999997641
30
-8.8817841970012523e-15
40
7.4499999999999744
210
1.1921857982552058e-15
220
-1.1370455820491215e-29
230
1
100
AcDbArc
50
180
51
270
0
ENDSEC
0
SECTION
2
OBJECTS
0
DICTIONARY
5
C
100
AcDbDictionary
3
ACAD_GROUP
350
D
3
ACAD_MLINESTYLE
350
17
0
DICTIONARY
5
D
100
AcDbDictionary
0
DICTIONARY
5
1A
330
C
100
AcDbDictionary
0
DICTIONARY
5
17
100
AcDbDictionary
0
ENDSEC
0
EOF
