0
SECTION
2
HEADER
9
$INSUNITS
70
4
9
$ACADVER
1
AC1014
9
$HANDSEED
5
FFFF
0
ENDSEC
0
SECTION
2
TABLES
0
TABLE
2
VPORT
5
8
100
AcDbSymbolTable
0
ENDTAB
0
TABLE
2
LTYPE
5
5
100
AcDbSymbolTable
70
2
0
LTYPE
5
14
100
AcDbSymbolTableRecord
100
AcDbLinetypeTableRecord
2
BYBLOCK
70
0
0
LTYPE
5
15
100
AcDbSymbolTableRecord
100
AcDbLinetypeTableRecord
2
BYLAYER
70
0
0
ENDTAB
0
TABLE
2
LAYER
5
2
100
AcDbSymbolTable
70
3
0
LAYER
5
50
100
AcDbSymbolTableRecord
100
AcDbLayerTableRecord
2
0
70
0
6
CONTINUOUS
0
LAYER
5
51
100
AcDbSymbolTableRecord
100
AcDbLayerTableRecord
2
CUTOUTS
70
0
62
1
6
CONTINUOUS
0
LAYER
5
52
100
AcDbSymbolTableRecord
100
AcDbLayerTableRecord
2
PERIMETER
70
0
62
5
6
CONTINUOUS
0
ENDTAB
0
TABLE
2
STYLE
5
3
100
AcDbSymbolTable
70
1
0
STYLE
5
11
100
AcDbSymbolTableRecord
100
AcDbTextStyleTableRecord
2
STANDARD
70
0
0
ENDTAB
0
TABLE
2
VIEW
5
6
100
AcDbSymbolTable
0
ENDTAB
0
TABLE
2
UCS
5
7
100
AcDbSymbolTable
0
ENDTAB
0
TABLE
2
APPID
5
9
100
AcDbSymbolTable
70
1
0
APPID
5
12
100
AcDbSymbolTableRecord
100
AcDbRegAppTableRecord
2
ACAD
70
0
0
ENDTAB
0
TABLE
2
DIMSTYLE
5
A
100
AcDbSymbolTable
0
ENDTAB
0
TABLE
2
BLOCK_RECORD
5
1
100
AcDbSymbolTable
70
2
0
BLOCK_RECORD
5
1F
100
AcDbSymbolTableRecord
100
AcDbBlockTableRecord
2
*MODEL_SPACE
0
BLOCK_RECORD
5
1B
100
AcDbSymbolTableRecord
100
AcDbBlockTableRecord
2
*PAPER_SPACE
0
ENDTAB
0
ENDSEC
0
SECTION
2
BLOCKS
0
BLOCK
5
20
100
AcDbEntity
100
AcDbBlockBegin
2
*MODEL_SPACE
0
ENDBLK
5
21
100
AcDbEntity
100
AcDbBlockEnd
0
BLOCK
5
1C
100
AcDbEntity
100
AcDbBlockBegin
2
*PAPER_SPACE
0
ENDBLK
5
1D
100
AcDbEntity
100
AcDbBlockEnd
0
ENDSEC
0
SECTION
2
ENTITIES
0
CIRCLE
5
100
100
AcDbEntity
8
CUTOUTS
100
AcDbCircle
10
-1.4379766420522149
20
-22.440266502097757
30
0
40
0.20000000000000004
210
0
220
0
230
1
0
CIRCLE
5
101
100
AcDbEntity
8
CUTOUTS
100
AcDbCircle
10
18.00000026822088
20
5.0000000596046483
30
0
40
1.4500000000000002
210
0
220
0
230
1
0
CIRCLE
5
102
100
AcDbEntity
8
CUTOUTS
100
AcDbCircle
10
18.00000026822088
20
-7.000000059604611
30
-8.8817841970012523e-15
40
1.4500000000000002
210
0
220
0
230
1
0
CIRCLE
5
103
100
AcDbEntity
8
CUTOUTS
100
AcDbCircle
10
-18.000000268220951
20
5.000000059604651
30
8.8817841970012523e-15
40
1.4500000000000002
210
0
220
0
230
1
0
CIRCLE
5
104
100
AcDbEntity
8
CUTOUTS
100
AcDbCircle
10
-18.000000268220951
20
-7.0000000596046066
30
0
40
1.4500000000000002
210
0
220
0
230
1
0
CIRCLE
5
105
100
AcDbEntity
8
CUTOUTS
100
AcDbCircle
10
-9.0000001341104721
20
27.000000466914166
30
-8.8817841970012523e-15
40
1.4500000000000002
210
0
220
0
230
1
0
CIRCLE
5
106
100
AcDbEntity
8
CUTOUTS
100
AcDbCircle
10
10.000000149011592
20
27.000000402331356
30
8.8817841970012523e-15
40
1.4500000000000002
210
0
220
0
230
1
0
CIRCLE
5
107
100
AcDbEntity
8
CUTOUTS
100
AcDbCircle
10
-13.000000193715115
20
-27.49782437580588
30
-8.8817841970012523e-15
40
1.4500000000000002
210
0
220
0
230
1
0
CIRCLE
5
108
100
AcDbEntity
8
CUTOUTS
100
AcDbCircle
10
12.000000178813915
20
-27.49782444038869
30
8.8817841970012523e-15
40
1.4500000000000002
210
0
220
0
230
1
0
CIRCLE
5
109
100
AcDbEntity
8
CUTOUTS
100
AcDbCircle
10
24.594999999999935
20
-6.7555439589741253
30
-7.9936057773011271e-14
40
1.3499999999999979
210
0
220
0
230
1
0
CIRCLE
5
10A
100
AcDbEntity
8
CUTOUTS
100
AcDbCircle
10
-21.211665068585642
20
-21.711665068585528
30
8.8817841970012523e-15
40
1.4500000000000024
210
0
220
0
230
1
0
CIRCLE
5
10B
100
AcDbEntity
8
CUTOUTS
100
AcDbCircle
10
-26.211665068585603
20
9.7116650685856136
30
8.8817841970012523e-15
40
1.4500000000000046
210
0
220
0
230
1
0
CIRCLE
5
10C
100
AcDbEntity
8
CUTOUTS
100
AcDbCircle
10
-1.7732842686810362e-14
20
29.497824420509374
30
0
40
1.4500000000000006
210
0
220
0
230
1
0
CIRCLE
5
10D
100
AcDbEntity
8
CUTOUTS
100
AcDbCircle
10
21.211665068585507
20
-21.711665068585564
30
-8.8817841970012523e-15
40
1.4500000000000046
210
0
220
0
230
1
0
CIRCLE
5
10E
100
AcDbEntity
8
CUTOUTS
100
AcDbCircle
10
26.211665068585553
20
9.7116650685855745
30
8.8817841970012523e-15
40
1.4500000000000002
210
0
220
0
230
1
0
CIRCLE
5
10F
100
AcDbEntity
8
CUTOUTS
100
AcDbCircle
10
-7.1839796578282891e-14
20
-30.497824420509314
30
0
40
1.4500000000000006
210
0
220
0
230
1
0
CIRCLE
5
110
100
AcDbEntity
8
CUTOUTS
100
AcDbCircle
10
10.150000000002828
20
12.049999999999986
30
8.8817841970012523e-15
40
1.0499999999999976
210
0
220
0
230
1
0
CIRCLE
5
111
100
AcDbEntity
8
CUTOUTS
100
AcDbCircle
10
-10.149999999997174
20
12.04999999999999
30
0
40
1.0499999999999943
210
0
220
0
230
1
0
CIRCLE
5
112
100
AcDbEntity
8
CUTOUTS
100
AcDbCircle
10
-10.149999999997185
20
-0.50000000000001354
30
-8.8817841970012523e-15
40
1.1000000000000021
210
0
220
0
230
1
0
CIRCLE
5
113
100
AcDbEntity
8
CUTOUTS
100
AcDbCircle
10
10.150000000002816
20
-0.5000000000000161
30
8.8817841970012523e-15
40
1.0999999999999988
210
0
220
0
230
1
0
LWPOLYLINE
5
114
100
AcDbEntity
8
CUTOUTS
100
AcDbPolyline
90
7
70
1
43
0.0
10
-0.93596119458093807
20
-20.152175364913923
10
-0.34999999105930646
20
-20.152175364913923
10
-0.34999999105930601
20
-18.600290271726404
10
0.349999991059258
20
-18.600290271726404
10
0.34999999105925578
20
-20.152175364913923
10
0.93596119458088878
20
-20.152175364913923
10
-2.4702462297909733e-14
20
-23.896020143237667
0
LWPOLYLINE
5
115
100
AcDbEntity
8
CUTOUTS
100
AcDbPolyline
90
4
70
1
43
0.0
10
-8.0000000000000231
20
7.5999999999999899
10
7.9999999999999813
20
7.5999999999999881
10
7.9999999999999796
20
-8.6000000000000156
10
-8.0000000000000266
20
-8.6000000000000156
0
LWPOLYLINE
5
116
100
AcDbEntity
8
PERIMETER
100
AcDbPolyline
90
4
70
1
43
0.0
10
30.43742191780823
20
12.759085451015235
42
0.15215392684973536
10
30.437421917808255
20
-13.759085451015192
42
-0.65514466379025726
10
-30.437421917808251
20
-13.759085451015359
42
0.15215392684973766
10
-30.437421917808244
20
12.759085451015411
42
-0.65514466379025726
0
ENDSEC
0
SECTION
2
OBJECTS
0
DICTIONARY
5
C
100
AcDbDictionary
3
ACAD_GROUP
350
D
3
ACAD_MLINESTYLE
350
17
0
DICTIONARY
5
D
100
AcDbDictionary
0
DICTIONARY
5
1A
330
C
100
AcDbDictionary
0
DICTIONARY
5
17
100
AcDbDictionary
0
ENDSEC
0
EOF
