0
SECTION
2
HEADER
9
$INSUNITS
70
4
9
$ACADVER
1
AC1014
9
$HANDSEED
5
FFFF
0
ENDSEC
0
SECTION
2
TABLES
0
TABLE
2
VPORT
5
8
100
AcDbSymbolTable
0
ENDTAB
0
TABLE
2
LTYPE
5
5
100
AcDbSymbolTable
70
2
0
LTYPE
5
14
100
AcDbSymbolTableRecord
100
AcDbLinetypeTableRecord
2
BYBLOCK
70
0
0
LTYPE
5
15
100
AcDbSymbolTableRecord
100
AcDbLinetypeTableRecord
2
BYLAYER
70
0
0
ENDTAB
0
TABLE
2
LAYER
5
2
100
AcDbSymbolTable
70
3
0
LAYER
5
50
100
AcDbSymbolTableRecord
100
AcDbLayerTableRecord
2
0
70
0
6
CONTINUOUS
0
LAYER
5
51
100
AcDbSymbolTableRecord
100
AcDbLayerTableRecord
2
CUTOUTS
70
0
62
1
6
CONTINUOUS
0
LAYER
5
52
100
AcDbSymbolTableRecord
100
AcDbLayerTableRecord
2
PERIMETER
70
0
62
5
6
CONTINUOUS
0
ENDTAB
0
TABLE
2
STYLE
5
3
100
AcDbSymbolTable
70
1
0
STYLE
5
11
100
AcDbSymbolTableRecord
100
AcDbTextStyleTableRecord
2
STANDARD
70
0
0
ENDTAB
0
TABLE
2
VIEW
5
6
100
AcDbSymbolTable
0
ENDTAB
0
TABLE
2
UCS
5
7
100
AcDbSymbolTable
0
ENDTAB
0
TABLE
2
APPID
5
9
100
AcDbSymbolTable
70
1
0
APPID
5
12
100
AcDbSymbolTableRecord
100
AcDbRegAppTableRecord
2
ACAD
70
0
0
ENDTAB
0
TABLE
2
DIMSTYLE
5
A
100
AcDbSymbolTable
0
ENDTAB
0
TABLE
2
BLOCK_RECORD
5
1
100
AcDbSymbolTable
70
2
0
BLOCK_RECORD
5
1F
100
AcDbSymbolTableRecord
100
AcDbBlockTableRecord
2
*MODEL_SPACE
0
BLOCK_RECORD
5
1B
100
AcDbSymbolTableRecord
100
AcDbBlockTableRecord
2
*PAPER_SPACE
0
ENDTAB
0
ENDSEC
0
SECTION
2
BLOCKS
0
BLOCK
5
20
100
AcDbEntity
100
AcDbBlockBegin
2
*MODEL_SPACE
0
ENDBLK
5
21
100
AcDbEntity
100
AcDbBlockEnd
0
BLOCK
5
1C
100
AcDbEntity
100
AcDbBlockBegin
2
*PAPER_SPACE
0
ENDBLK
5
1D
100
AcDbEntity
100
AcDbBlockEnd
0
ENDSEC
0
SECTION
2
ENTITIES
0
SPLINE
5
100
100
AcDbEntity
8
CUTOUTS
100
AcDbSpline
70
0
71
3
72
23
73
19
74
0
42
0.000000001
43
0.0000000001
44
0.0000000001
40
-3.1415926535897931
40
-3.1415926535897931
40
-3.1415926535897931
40
-3.1415926535897931
40
-2.0570901576080143
40
-2.0570901576080143
40
-2.0570901576080143
40
-0.75741945480856243
40
-0.75741945480856243
40
-0.75741945480856243
40
0.4220614782324108
40
0.4220614782324108
40
0.4220614782324108
40
1.6318201376850561
40
1.6318201376850561
40
1.6318201376850561
40
2.7722206140138494
40
2.7722206140138494
40
2.7722206140138494
40
3.1415926535897931
40
3.1415926535897931
40
3.1415926535897931
40
3.1415926535897931
10
61.585238574459673
20
-73.625290714638183
30
5.0387142132906173e-32
10
61.910589323254214
20
-73.625290714638183
30
5.0387142132906173e-32
10
62.254783257806636
20
-73.225954405564877
30
3.96519093515343e-32
10
62.420969697587182
20
-72.597218766061445
30
2.3548561309086285e-32
10
62.620127973188737
20
-71.843740287684355
30
4.2502657816002533e-33
10
62.534489861821697
20
-70.824881333560725
30
-2.1614356071876848e-32
10
62.228086533238525
20
-70.245440916752258
30
-3.6611871296285702e-32
10
61.950018494076218
20
-69.719585465839359
30
-5.0222459895443755e-32
10
61.548208461764595
20
-69.583361602501057
30
-5.4080587551248653e-32
10
61.209005738542828
20
-69.887997818545216
30
-4.5965489593296491e-32
10
60.861095551754588
20
-70.200454162703423
30
-3.7642073968740506e-32
10
60.612792575972975
20
-71.000836066791933
30
-1.720803227268022e-32
10
60.637076633474393
20
-71.795735822031347
30
3.0729074011005107e-33
10
60.659968431375916
20
-72.545062187604813
30
2.2191095217866788e-32
10
60.921932019882561
20
-73.243115964330656
30
4.0073634164842163e-32
10
61.254819519896614
20
-73.500864702395873
30
4.6988743135617751e-32
10
61.362640708489373
20
-73.584348688112684
30
4.9228524648729694e-32
10
61.47442696258689
20
-73.625290714638183
30
5.0387142132906173e-32
10
61.585238574459673
20
-73.625290714638183
30
5.0387142132906173e-32
0
SPLINE
5
101
100
AcDbEntity
8
CUTOUTS
100
AcDbSpline
70
0
71
3
72
23
73
19
74
0
42
0.000000001
43
0.0000000001
44
0.0000000001
40
-3.1415926535897931
40
-3.1415926535897931
40
-3.1415926535897931
40
-3.1415926535897931
40
-2.0570901576080258
40
-2.0570901576080258
40
-2.0570901576080258
40
-0.75741945480857109
40
-0.75741945480857109
40
-0.75741945480857109
40
0.4220614782324057
40
0.4220614782324057
40
0.4220614782324057
40
1.6318201376850434
40
1.6318201376850434
40
1.6318201376850434
40
2.7722206140138317
40
2.7722206140138317
40
2.7722206140138317
40
3.1415926535897931
40
3.1415926535897931
40
3.1415926535897931
40
3.1415926535897931
10
64.545576232371943
20
-54.334767719056451
30
5.0387142132925879e-32
10
64.870926981166477
20
-54.334767719056451
30
5.0387142132925879e-32
10
65.215120915718913
20
-53.935431409983167
30
3.9651909351550053e-32
10
65.381307355499445
20
-53.306695770479735
30
2.3548561309096006e-32
10
65.580465631101006
20
-52.553217292102651
30
4.2502657816025078e-33
10
65.494827519733974
20
-51.534358337979
30
-2.1614356071884831e-32
10
65.188424191150801
20
-50.954917921170534
30
-3.661187129629972e-32
10
64.910356151988495
20
-50.429062470257627
30
-5.0222459895463264e-32
10
64.508546119676879
20
-50.292838606919325
30
-5.4080587551269837e-32
10
64.169343396455105
20
-50.597474822963463
30
-4.5965489593314576e-32
10
63.821433209666878
20
-50.90993116712167
30
-3.7642073968755488e-32
10
63.573130233885266
20
-51.71031307121018
30
-1.7208032272687473e-32
10
63.59741429138667
20
-52.505212826449593
30
3.0729074011010762e-33
10
63.620306089288199
20
-53.254539192023046
30
2.2191095217874758e-32
10
63.882269677794824
20
-53.952592968748903
30
4.0073634164857222e-32
10
64.215157177808862
20
-54.210341706814127
30
4.6988743135635803e-32
10
64.322978366401628
20
-54.293825692530937
30
4.922852464874883e-32
10
64.434764620499166
20
-54.334767719056451
30
5.0387142132925879e-32
10
64.545576232371943
20
-54.334767719056451
30
5.0387142132925879e-32
0
LINE
5
102
100
AcDbEntity
8
PERIMETER
100
AcDbLine
10
57.141305014691241
20
-63.359129795252336
30
0
11
62.513303379268862
21
-63.35912979526249
31
0
0
LINE
5
103
100
AcDbEntity
8
PERIMETER
100
AcDbLine
10
62.513303379268862
20
-63.35912979526249
30
0
11
62.513303379267512
21
-66.259129795262467
31
4.1864923684770648e-33
0
LINE
5
104
100
AcDbEntity
8
PERIMETER
100
AcDbLine
10
62.513303379267512
20
-66.259129795262467
30
4.1864923684770648e-33
11
57.585454360965151
21
-66.259129795253187
31
0
0
ARC
5
105
100
AcDbEntity
8
PERIMETER
100
AcDbCircle
10
56.519020524489434
20
-67.241585327284838
30
0
40
1.4499999999999702
210
-4.1757584069929813e-33
220
4.5326937586237424e-33
230
1
100
AcDbArc
50
42.652918317813324
51
89.999999999973056
0
LINE
5
106
100
AcDbEntity
8
PERIMETER
100
AcDbLine
10
56.519020524490116
20
-65.791585327284864
30
-1.2627255640144239e-32
11
56.463303379267714
21
-65.791585327284821
31
0
0
ARC
5
107
100
AcDbEntity
8
PERIMETER
100
AcDbCircle
10
56.463303379267003
20
-67.24158532728481
30
0
40
1.4499999999999869
210
-4.2405312302144635e-50
220
2.077985283719142e-62
230
1
100
AcDbArc
50
89.999999999971919
51
180
0
LINE
5
108
100
AcDbEntity
8
PERIMETER
100
AcDbLine
10
55.013303379267022
20
-67.241585327284128
30
2.7218556456336321e-47
11
55.013303379258886
21
-84.479129795250429
31
-9.8375283994805715e-32
0
LINE
5
109
100
AcDbEntity
8
PERIMETER
100
AcDbLine
10
55.013303379258886
20
-84.479129795250429
30
-9.8375283994805715e-32
11
65.222206714118727
21
-84.479129795267596
31
2.2204460492503131e-15
0
LINE
5
10A
100
AcDbEntity
8
PERIMETER
100
AcDbLine
10
65.222206714118727
20
-84.479129795267596
30
2.2204460492503131e-15
11
68.678283077452903
21
-77.566977068612331
31
3.0814879110195774e-32
0
LINE
5
10B
100
AcDbEntity
8
PERIMETER
100
AcDbLine
10
68.678283077452903
20
-77.566977068612331
30
3.0814879110195774e-32
11
69.741303378776166
21
-72.434253097460029
31
-2.2204460492503131e-15
0
LINE
5
10C
100
AcDbEntity
8
PERIMETER
100
AcDbLine
10
69.741303378776166
20
-72.434253097460029
30
-2.2204460492503131e-15
11
69.741305014645306
21
-55.274757904685138
31
-2.2204460492503131e-15
0
LINE
5
10D
100
AcDbEntity
8
PERIMETER
100
AcDbLine
10
70.64993716476485
20
-11.746951094197078
30
-2.2204460492503131e-15
11
69.741305014645306
21
-55.274757904685138
31
-2.2204460492503131e-15
0
LINE
5
10E
100
AcDbEntity
8
PERIMETER
100
AcDbLine
10
69.912458330804924
20
-10.209129795276459
30
-2.2204460492503131e-15
11
70.64993716476485
21
-11.746951094197078
31
-2.2204460492503131e-15
0
LINE
5
10F
100
AcDbEntity
8
PERIMETER
100
AcDbLine
10
69.912458330804924
20
-10.209129795276459
30
-2.2204460492503131e-15
11
64.191305014706487
21
-10.209129795265653
31
-2.2204460492503131e-15
0
ARC
5
110
100
AcDbEntity
8
PERIMETER
100
AcDbCircle
10
64.191305014719617
20
-3.2591297952656539
30
-2.2204460492503131e-15
40
6.9500000000000028
210
2.8919515884725402e-45
220
6.1212601906149279e-33
230
1
100
AcDbArc
50
180
51
269.99999999989177
0
LINE
5
111
100
AcDbEntity
8
PERIMETER
100
AcDbLine
10
57.241305014719615
20
-3.2591297952623703
30
-2.2204460492503131e-15
11
57.24130501472321
21
4.3641297836141062
31
3.8958843925832475e-31
0
LINE
5
112
100
AcDbEntity
8
PERIMETER
100
AcDbLine
10
57.24130501472321
20
4.3641297836141062
30
3.8958843925832475e-31
11
53.277934804160282
21
12.290870204754942
31
3.0814879110195774e-32
0
LINE
5
113
100
AcDbEntity
8
PERIMETER
100
AcDbLine
10
53.277934804160282
20
12.290870204754942
30
3.0814879110195774e-32
11
45.141305014726981
21
12.290870204770293
31
2.2204460492503131e-15
0
LINE
5
114
100
AcDbEntity
8
PERIMETER
100
AcDbLine
10
45.141305014726981
20
12.290870204770293
30
2.2204460492503131e-15
11
45.141305014718455
21
-5.7648257593410879
31
2.6065313036469731e-32
0
ARC
5
115
100
AcDbEntity
8
PERIMETER
100
AcDbCircle
10
49.191305014718445
20
-5.7648257593430046
30
0
40
4.0499999999999936
210
6.4358797620950626e-33
220
7.9489683409262094e-33
230
1
100
AcDbArc
50
180
51
255.42674596638091
0
ARC
5
116
100
AcDbEntity
8
PERIMETER
100
AcDbCircle
10
42.523438637322393
20
-31.41223416590902
30
0
40
22.450000000000038
210
-8.5906190225961444e-33
220
1.4716680246195908e-33
230
1
100
AcDbArc
50
35.278962438945193
51
75.426745966380935
0
SPLINE
5
117
100
AcDbEntity
8
PERIMETER
100
AcDbSpline
70
0
71
3
72
8
73
4
74
0
42
0.000000001
43
0.0000000001
44
0.0000000001
40
2.5263672417614038
40
2.5263672417614038
40
2.5263672417614038
40
2.5263672417614038
40
2.5587378199425053
40
2.5587378199425053
40
2.5587378199425053
40
2.5587378199425053
10
60.850489621537527
20
-18.446058853891195
30
2.2204460492503131e-15
10
60.927904051289019
20
-18.555480342250561
30
2.2204460492503131e-15
10
61.006214762203911
20
-18.662410802779657
30
2.2204460492503131e-15
10
61.085382256319754
20
-18.766794151509668
30
2.2204460492503131e-15
0
SPLINE
5
118
100
AcDbEntity
8
PERIMETER
100
AcDbSpline
70
0
71
3
72
14
73
10
74
0
42
0.000000001
43
0.0000000001
44
0.0000000001
40
-2.5587378199443953
40
-2.5587378199443953
40
-2.5587378199443953
40
-2.5587378199443953
40
-1.7964096576694117
40
-1.7964096576694117
40
-1.7964096576694117
40
-1.0152812706404291
40
-1.0152812706404291
40
-1.0152812706404291
40
-0.58285483364729151
40
-0.58285483364729151
40
-0.58285483364729151
40
-0.58285483364729151
10
61.085382256308513
20
-42.575170461201893
30
0
10
62.593659726824683
20
-40.586487417180201
30
0
10
63.702213615326251
20
-37.396775717235812
30
0
10
64.10774890277149
20
-33.863021263667989
30
-2.2204460492503131e-15
10
64.523285335296947
20
-30.24211880581516
30
0
10
64.195066196726032
20
-26.301573479260867
30
0
10
63.216062321406483
20
-23.147155538299312
30
2.2204460492503131e-15
10
62.674093594322954
20
-21.400894957262942
30
2.2204460492503131e-15
10
61.940944315873139
20
-19.894863617645008
30
2.2204460492503131e-15
10
61.085382256319754
20
-18.766794151509689
30
2.2204460492503131e-15
0
SPLINE
5
119
100
AcDbEntity
8
PERIMETER
100
AcDbSpline
70
0
71
3
72
11
73
7
74
0
42
0.000000001
43
0.0000000001
44
0.0000000001
40
0.58285483364540092
40
0.58285483364540092
40
0.58285483364540092
40
0.58285483364540092
40
1.3144989588396907
40
1.3144989588396907
40
1.3144989588396907
40
1.5707963267939515
40
1.5707963267939515
40
1.5707963267939515
40
1.5707963267939515
10
61.085382256308513
20
-42.575170461201907
30
0
10
59.29602799602236
20
-44.934456830414376
30
0
10
57.969338476112128
20
-48.638421219095591
30
2.2204460492503131e-15
10
57.427545559490156
20
-52.773285989812273
30
2.2204460492503131e-15
10
57.237753700682291
20
-54.22174285714523
30
2.2204460492503131e-15
10
57.141305014694851
20
-55.718838889040285
30
2.2204460492503131e-15
10
57.14130501469414
20
-57.216042680173089
30
2.2204460492503131e-15
0
LINE
5
11A
100
AcDbEntity
8
PERIMETER
100
AcDbLine
10
57.14130501469414
20
-57.216042680173089
30
2.2204460492503131e-15
11
57.141305014691241
21
-63.359129795252336
31
0
0
ENDSEC
0
SECTION
2
OBJECTS
0
DICTIONARY
5
C
100
AcDbDictionary
3
ACAD_GROUP
350
D
3
ACAD_MLINESTYLE
350
17
0
DICTIONARY
5
D
100
AcDbDictionary
0
DICTIONARY
5
1A
330
C
100
AcDbDictionary
0
DICTIONARY
5
17
100
AcDbDictionary
0
ENDSEC
0
EOF
